<svg id="Слой_1" data-name="Слой 1" xmlns="http://www.w3.org/2000/svg" viewBox="0 0 300 297.23"><defs><style>.cls-1{fill:#e8e8e8;}</style></defs><title>closed-eye</title><g id="Слой_12" data-name="Слой 12"><path class="cls-1" d="M296.48,149.06,271.72,124.3a108.41,108.41,0,0,0,15.74-35A11.55,11.55,0,1,0,265,83.78a86.82,86.82,0,0,1-16.82,33.59,11.86,11.86,0,0,0-1.25,1.52c-21.36,25.6-57.29,42.05-96.93,42.05-55.44,0-103.76-32.27-114.9-76.74a11.55,11.55,0,0,0-22.41,5.62A108.62,108.62,0,0,0,28.3,124.28L3.52,149.06a11.55,11.55,0,1,0,16.34,16.33l23.25-23.25a133.11,133.11,0,0,0,18.63,15.44,142.67,142.67,0,0,0,16.81,9.88L65.66,192.64a11.55,11.55,0,0,0,20.57,10.52L100,176.22a162,162,0,0,0,38.51,7.41v27.08a11.55,11.55,0,1,0,23.1,0V183.63a162.67,162.67,0,0,0,39.7-7.84l13.35,27a11.55,11.55,0,0,0,20.71-10.23l-12.71-25.7a143.38,143.38,0,0,0,15.85-9.44,132.91,132.91,0,0,0,18.38-15.27l23.23,23.24a11.55,11.55,0,1,0,16.34-16.33Z"/></g></svg>