<svg width="100" height="100" viewBox="0 0 100 100" fill="none" xmlns="http://www.w3.org/2000/svg">
<g clip-path="url(#clip0_104_1427)">
<path d="M29.1734 24.0767C29.1734 20.7173 30.5079 17.4955 32.8833 15.12C35.2588 12.7445 38.4806 11.41 41.84 11.41C45.1994 11.41 48.4212 12.7445 50.7967 15.12C53.1722 17.4955 54.5067 20.7173 54.5067 24.0767V36.8967H66.7334V25.1333C66.7334 21.8637 66.089 18.626 64.837 15.6055C63.585 12.585 61.75 9.84085 59.4369 7.52992C57.1238 5.21898 54.378 3.38657 51.3563 2.13744C48.3346 0.888309 45.0964 0.246945 41.8267 0.250011C35.2272 0.250011 28.898 2.87164 24.2315 7.53817C19.565 12.2047 16.9434 18.5339 16.9434 25.1333V36.8967H29.1734V24.0767Z" fill="#BAC7CA"/>
<path d="M61.1531 25.1333V36.8967H66.7065V25.1333C66.7065 18.5344 64.0853 12.2058 59.4195 7.53934C54.7537 2.8729 48.4254 0.250884 41.8265 0.25C40.8986 0.250934 39.9716 0.304353 39.0498 0.41C45.1292 1.09274 50.7439 3.99134 54.8213 8.55203C58.8987 13.1127 61.1528 19.0157 61.1531 25.1333Z" fill="#9AA3A3"/>
<path d="M72.9267 36.8966H10.7233C8.9402 36.8966 7.23009 37.605 5.96922 38.8658C4.70835 40.1267 4 41.8368 4 43.62V56.9533C3.99869 61.9216 4.97613 66.8415 6.87651 71.432C8.77689 76.0225 11.563 80.1937 15.0756 83.7073C18.5883 87.2208 22.7587 90.008 27.3487 91.9096C31.9387 93.8112 36.8584 94.79 41.8267 94.79C46.7953 94.7917 51.7155 93.8146 56.3064 91.9144C60.8973 90.0142 65.0688 87.2282 68.5828 83.7155C72.0967 80.2028 74.8842 76.0322 76.786 71.442C78.6878 66.8518 79.6667 61.9319 79.6667 56.9633V43.63C79.668 42.7448 79.4945 41.8681 79.1562 41.0501C78.8178 40.2322 78.3213 39.4891 77.6951 38.8635C77.0689 38.2379 76.3253 37.7421 75.507 37.4046C74.6887 37.067 73.8118 36.8944 72.9267 36.8966Z" fill="#E6B262"/>
<path d="M72.9265 36.8966H67.3731C69.1563 36.8966 70.8664 37.605 72.1272 38.8658C73.3881 40.1267 74.0965 41.8368 74.0965 43.62V56.9533C74.0945 66.5026 70.4804 75.6978 63.9799 82.693C57.4793 89.6882 48.5734 93.9656 39.0498 94.6666C39.9665 94.7333 40.8898 94.7766 41.8265 94.7766C46.7939 94.7784 51.7131 93.8017 56.3031 91.9023C60.8931 90.003 65.0641 87.2182 68.5779 83.7069C72.0916 80.1956 74.8794 76.0266 76.782 71.4379C78.6846 66.8492 79.6647 61.9308 79.6665 56.9633V43.63C79.6678 42.7448 79.4943 41.8681 79.156 41.0501C78.8176 40.2322 78.3211 39.4891 77.6949 38.8635C77.0687 38.2379 76.3251 37.7421 75.5068 37.4046C74.6885 37.067 73.8116 36.8944 72.9265 36.8966Z" fill="#D28A34"/>
<path d="M44.7099 65.8799C46.6381 65.1993 48.2634 63.8588 49.2987 62.0954C50.334 60.3321 50.7124 58.2595 50.3671 56.244C50.0218 54.2286 48.975 52.4002 47.4118 51.082C45.8486 49.7639 43.8697 49.0409 41.8249 49.0409C39.7801 49.0409 37.8012 49.7639 36.238 51.082C34.6748 52.4002 33.628 54.2286 33.2827 56.244C32.9374 58.2595 33.3158 60.3321 34.3511 62.0954C35.3863 63.8588 37.0117 65.1993 38.9399 65.8799L34.2532 79.1533C34.2201 79.2465 34.2098 79.3463 34.2234 79.4444C34.2369 79.5424 34.2738 79.6357 34.3311 79.7165C34.3883 79.7972 34.464 79.863 34.552 79.9083C34.64 79.9535 34.7376 79.977 34.8366 79.9766H48.8166C48.9152 79.9762 49.0124 79.9523 49.1 79.9068C49.1876 79.8613 49.263 79.7956 49.3201 79.715C49.3771 79.6345 49.4141 79.5415 49.428 79.4438C49.4419 79.3461 49.4323 79.2465 49.3999 79.1533L44.7099 65.8799Z" fill="#555A77"/>
<path d="M44.7101 65.88C46.7098 65.1657 48.3778 63.7421 49.3973 61.8794C50.4168 60.0167 50.717 57.8445 50.2409 55.7751C49.7647 53.7056 48.5454 51.8831 46.8143 50.6532C45.0833 49.4233 42.9609 48.8718 40.8501 49.1033C42.7954 49.3271 44.6075 50.2032 45.9913 51.5886C47.3751 52.974 48.2489 54.7872 48.4704 56.7328C48.6919 58.6784 48.248 60.6416 47.2111 62.3026C46.1742 63.9637 44.6053 65.2246 42.7601 65.88L47.4501 79.1533C47.4825 79.2465 47.4921 79.3461 47.4782 79.4439C47.4643 79.5416 47.4273 79.6345 47.3703 79.7151C47.3132 79.7956 47.2378 79.8613 47.1502 79.9068C47.0626 79.9523 46.9655 79.9763 46.8668 79.9766H48.8168C48.9155 79.9763 49.0126 79.9523 49.1002 79.9068C49.1878 79.8613 49.2632 79.7956 49.3203 79.7151C49.3773 79.6345 49.4143 79.5416 49.4282 79.4439C49.4421 79.3461 49.4325 79.2465 49.4001 79.1533L44.7101 65.88Z" fill="#3F425E"/>
<path d="M74.9865 99.58C86.5918 99.58 95.9998 90.172 95.9998 78.5667C95.9998 66.9613 86.5918 57.5533 74.9865 57.5533C63.3811 57.5533 53.9731 66.9613 53.9731 78.5667C53.9731 90.172 63.3811 99.58 74.9865 99.58Z" fill="#72BBB0"/>
<path d="M62.5033 82.7001L62.6 80.5967L61.1067 81.7567C61.0365 81.811 60.9563 81.8507 60.8706 81.8736C60.7849 81.8965 60.6955 81.902 60.6077 81.8899C60.5198 81.8778 60.4353 81.8483 60.359 81.8031C60.2827 81.7579 60.2162 81.6979 60.1633 81.6267L59.6167 80.8901C59.5619 80.8159 59.5232 80.7311 59.5028 80.6411C59.4825 80.5512 59.4811 80.458 59.4986 80.3674C59.5162 80.2769 59.5523 80.191 59.6048 80.1151C59.6572 80.0393 59.7248 79.9751 59.8033 79.9267L61.8567 78.6634L59.7767 77.3734C59.6977 77.3245 59.6298 77.2596 59.5774 77.183C59.5249 77.1063 59.4891 77.0195 59.4721 76.9282C59.4552 76.8369 59.4575 76.743 59.4789 76.6527C59.5004 76.5623 59.5405 76.4774 59.5967 76.4034L60.1633 75.6534C60.2164 75.5834 60.2827 75.5246 60.3586 75.4803C60.4344 75.436 60.5183 75.4072 60.6053 75.3954C60.6924 75.3836 60.7809 75.3892 60.8658 75.4117C60.9507 75.4342 61.0303 75.4733 61.1 75.5267L62.63 76.6967L62.51 74.4367C62.505 74.3462 62.5186 74.2555 62.5498 74.1703C62.5811 74.0852 62.6294 74.0073 62.6918 73.9414C62.7542 73.8756 62.8294 73.8232 62.9128 73.7874C62.9962 73.7516 63.0859 73.7333 63.1767 73.7334H64.1467C64.238 73.7332 64.3284 73.7518 64.4122 73.788C64.4961 73.8241 64.5716 73.8772 64.6341 73.9437C64.6966 74.0103 64.7448 74.089 64.7756 74.175C64.8064 74.2609 64.8193 74.3523 64.8133 74.4434L64.6667 76.6967L66.2267 75.5701C66.3689 75.4671 66.546 75.4244 66.7195 75.4513C66.893 75.4781 67.0489 75.5723 67.1533 75.7134L67.7067 76.4567C67.7627 76.5318 67.8022 76.6179 67.8228 76.7093C67.8433 76.8008 67.8443 76.8955 67.8257 76.9873C67.8072 77.0792 67.7695 77.1661 67.7151 77.2423C67.6607 77.3186 67.5908 77.3826 67.51 77.4301L65.4733 78.6301L67.51 79.8601C67.59 79.9084 67.6589 79.973 67.7124 80.0497C67.7658 80.1263 67.8025 80.2134 67.8201 80.3052C67.8377 80.3969 67.8358 80.4914 67.8145 80.5824C67.7933 80.6734 67.7531 80.7589 67.6967 80.8334L67.1333 81.5767C67.0803 81.6467 67.0139 81.7056 66.9381 81.7498C66.8622 81.7941 66.7784 81.823 66.6913 81.8348C66.6043 81.8465 66.5158 81.841 66.4309 81.8184C66.346 81.7959 66.2664 81.7568 66.1967 81.7034L64.7 80.5634L64.7967 82.7001C64.8012 82.7904 64.7873 82.8807 64.7558 82.9654C64.7243 83.0502 64.676 83.1277 64.6136 83.1932C64.5512 83.2587 64.4762 83.3108 64.3931 83.3463C64.3099 83.3819 64.2204 83.4002 64.13 83.4001H63.1667C63.0765 83.3997 62.9874 83.3811 62.9046 83.3453C62.8219 83.3096 62.7473 83.2574 62.6853 83.192C62.6233 83.1265 62.5752 83.0492 62.5439 82.9647C62.5126 82.8801 62.4988 82.7901 62.5033 82.7001Z" fill="white"/>
<path d="M73.8431 82.7001L73.9398 80.5967L72.4464 81.7567C72.3763 81.811 72.296 81.8507 72.2104 81.8736C72.1247 81.8965 72.0353 81.902 71.9475 81.8899C71.8596 81.8778 71.7751 81.8483 71.6988 81.8031C71.6225 81.7579 71.5559 81.6979 71.5031 81.6267L70.9564 80.8901C70.9017 80.8159 70.8629 80.7311 70.8426 80.6411C70.8223 80.5512 70.8208 80.458 70.8384 80.3674C70.8559 80.2769 70.8921 80.191 70.9445 80.1151C70.997 80.0393 71.0646 79.9751 71.1431 79.9267L73.1964 78.6634L71.1131 77.3734C71.0341 77.3245 70.9662 77.2596 70.9138 77.183C70.8613 77.1063 70.8255 77.0195 70.8086 76.9282C70.7916 76.8369 70.7939 76.743 70.8154 76.6527C70.8368 76.5623 70.8769 76.4774 70.9331 76.4034L71.5031 75.6534C71.5561 75.5834 71.6225 75.5246 71.6983 75.4803C71.7742 75.436 71.8581 75.4072 71.9451 75.3954C72.0321 75.3836 72.1206 75.3892 72.2055 75.4117C72.2904 75.4342 72.37 75.4733 72.4398 75.5267L73.9698 76.6967L73.8464 74.4367C73.8414 74.3462 73.855 74.2555 73.8863 74.1703C73.9175 74.0852 73.9658 74.0073 74.0282 73.9414C74.0906 73.8756 74.1658 73.8232 74.2492 73.7874C74.3326 73.7516 74.4224 73.7333 74.5131 73.7334H75.4831C75.5744 73.7332 75.6648 73.7518 75.7486 73.788C75.8325 73.8241 75.908 73.8772 75.9705 73.9437C76.033 74.0103 76.0812 74.089 76.112 74.175C76.1428 74.2609 76.1557 74.3523 76.1498 74.4434L76.0031 76.6967L77.5631 75.5701C77.7053 75.4671 77.8824 75.4244 78.0559 75.4513C78.2294 75.4781 78.3853 75.5723 78.4898 75.7134L79.0431 76.4567C79.0991 76.5318 79.1387 76.6179 79.1592 76.7093C79.1797 76.8008 79.1807 76.8955 79.1621 76.9873C79.1436 77.0792 79.1059 77.1661 79.0515 77.2423C78.9971 77.3186 78.9272 77.3826 78.8464 77.4301L76.8098 78.6301L78.8464 79.8601C78.9264 79.9084 78.9954 79.973 79.0488 80.0497C79.1022 80.1263 79.1389 80.2134 79.1565 80.3052C79.1741 80.3969 79.1722 80.4914 79.151 80.5824C79.1297 80.6734 79.0895 80.7589 79.0331 80.8334L78.4698 81.5767C78.4167 81.6467 78.3504 81.7056 78.2745 81.7498C78.1987 81.7941 78.1148 81.823 78.0278 81.8348C77.9407 81.8465 77.8522 81.841 77.7673 81.8184C77.6824 81.7959 77.6028 81.7568 77.5331 81.7034L76.0364 80.5634L76.1331 82.7001C76.1376 82.7904 76.1237 82.8807 76.0922 82.9654C76.0608 83.0502 76.0124 83.1277 75.95 83.1932C75.8877 83.2587 75.8126 83.3108 75.7295 83.3463C75.6464 83.3819 75.5568 83.4002 75.4664 83.4001H74.5098C74.4193 83.4002 74.3298 83.3819 74.2467 83.3463C74.1636 83.3108 74.0885 83.2587 74.0262 83.1932C73.9638 83.1277 73.9154 83.0502 73.8839 82.9654C73.8525 82.8807 73.8386 82.7904 73.8431 82.7001Z" fill="white"/>
<path d="M85.1801 82.7001L85.2768 80.5967L83.7868 81.7567C83.7166 81.811 83.6364 81.8507 83.5507 81.8736C83.465 81.8965 83.3756 81.902 83.2878 81.8899C83.1999 81.8778 83.1154 81.8483 83.0391 81.8031C82.9628 81.7579 82.8963 81.6979 82.8434 81.6267L82.2968 80.8901C82.242 80.8159 82.2032 80.7311 82.1829 80.6411C82.1626 80.5512 82.1612 80.458 82.1787 80.3674C82.1963 80.2769 82.2324 80.191 82.2849 80.1151C82.3373 80.0393 82.4049 79.9751 82.4834 79.9267L84.5368 78.6634L82.4534 77.3734C82.3745 77.3245 82.3066 77.2596 82.2541 77.183C82.2017 77.1063 82.1658 77.0195 82.1489 76.9282C82.1319 76.8369 82.1343 76.743 82.1557 76.6527C82.1772 76.5623 82.2173 76.4774 82.2734 76.4034L82.8434 75.6534C82.8965 75.5834 82.9628 75.5246 83.0387 75.4803C83.1145 75.436 83.1984 75.4072 83.2854 75.3954C83.3725 75.3836 83.461 75.3892 83.5459 75.4117C83.6308 75.4342 83.7104 75.4733 83.7801 75.5267L85.3101 76.6967L85.1868 74.4367C85.1818 74.3462 85.1953 74.2555 85.2266 74.1703C85.2578 74.0852 85.3062 74.0073 85.3686 73.9414C85.431 73.8756 85.5062 73.8232 85.5895 73.7874C85.6729 73.7516 85.7627 73.7333 85.8534 73.7334H86.8201C86.9114 73.7332 87.0018 73.7518 87.0856 73.788C87.1695 73.8241 87.245 73.8772 87.3075 73.9437C87.37 74.0103 87.4182 74.089 87.449 74.175C87.4799 74.2609 87.4927 74.3523 87.4868 74.4434L87.3401 76.6967L88.9001 75.5701C89.0423 75.4671 89.2194 75.4244 89.3929 75.4513C89.5664 75.4781 89.7223 75.5723 89.8268 75.7134L90.3768 76.4567C90.4328 76.5318 90.4723 76.6179 90.4928 76.7093C90.5134 76.8008 90.5144 76.8955 90.4958 76.9873C90.4773 77.0792 90.4395 77.1661 90.3851 77.2423C90.3307 77.3186 90.2609 77.3826 90.1801 77.4301L88.1434 78.6301L90.1834 79.8601C90.2634 79.9084 90.3324 79.973 90.3858 80.0497C90.4392 80.1263 90.4759 80.2134 90.4935 80.3052C90.5111 80.3969 90.5092 80.4914 90.488 80.5824C90.4667 80.6734 90.4265 80.7589 90.3701 80.8334L89.8068 81.5767C89.7537 81.6467 89.6874 81.7056 89.6115 81.7498C89.5356 81.7941 89.4518 81.823 89.3648 81.8348C89.2777 81.8465 89.1892 81.841 89.1043 81.8184C89.0194 81.7959 88.9398 81.7568 88.8701 81.7034L87.3734 80.5634L87.4701 82.7001C87.4746 82.7904 87.4607 82.8807 87.4292 82.9654C87.3978 83.0502 87.3494 83.1277 87.287 83.1932C87.2247 83.2587 87.1496 83.3108 87.0665 83.3463C86.9834 83.3819 86.8939 83.4002 86.8034 83.4001H85.8468C85.7563 83.4002 85.6668 83.3819 85.5837 83.3463C85.5006 83.3108 85.4255 83.2587 85.3632 83.1932C85.3008 83.1277 85.2524 83.0502 85.2209 82.9654C85.1895 82.8807 85.1756 82.7904 85.1801 82.7001Z" fill="white"/>
</g>
<defs>
<clipPath id="clip0_104_1427">
<rect width="100" height="99.8333" fill="white"/>
</clipPath>
</defs>
</svg>
