<svg id="Слой_1" data-name="Слой 1" xmlns="http://www.w3.org/2000/svg" xmlns:xlink="http://www.w3.org/1999/xlink" viewBox="0 0 300 298.62"><defs><style>.cls-1{fill:#e8e8e8;}</style></defs><title>open-eye-icon</title><g id="Слой_12" data-name="Слой 12"><image width="512" height="512" transform="scale(0.58)" xlink:href="../../../../Downloads/visible-opened-eye-interface-option.png"/><path class="cls-1" d="M292.65,143c-2.69-3.18-66.8-77.84-143.34-77.84S8.66,139.77,6,143a11,11,0,0,0,.14,14.39c2.7,3,66.79,74.66,143.2,74.66s140.5-71.62,143.19-74.66A11,11,0,0,0,292.65,143ZM149.31,210C96.05,210,47.09,167.18,29.5,149.89,41,138.11,66,114.72,97,100.06a62,62,0,1,0,104.71,0c30.93,14.68,56,38,67.44,49.8C251.55,167.21,202.7,210,149.31,210Z"/></g></svg>