<svg width="26" height="26" viewBox="0 0 26 26" fill="none" xmlns="http://www.w3.org/2000/svg">
<path d="M25.2617 4.346C25.2617 3.33951 24.8686 2.37424 24.1689 1.66255C23.4692 0.950852 22.5202 0.551025 21.5306 0.551025L4.11869 0.551025C3.12914 0.551025 2.18011 0.950852 1.48039 1.66255C0.780672 2.37424 0.387573 3.33951 0.387573 4.346L0.387573 22.0559C0.387573 23.0624 0.780672 24.0276 1.48039 24.7393C2.18011 25.451 3.12914 25.8509 4.11869 25.8509H21.5306C22.5202 25.8509 23.4692 25.451 24.1689 24.7393C24.8686 24.0276 25.2617 23.0624 25.2617 22.0559V4.346ZM6.32669 20.8423C6.18621 20.8805 6.03834 20.8803 5.89792 20.842C5.7575 20.8036 5.62946 20.7284 5.52665 20.6238C5.42384 20.5193 5.34987 20.389 5.31216 20.2462C5.27446 20.1034 5.27434 19.953 5.31182 19.8101L6.22388 16.3331L9.74191 19.9113L6.32669 20.8423ZM20.1211 9.35452L10.7435 18.8959L7.22548 15.3177L16.6063 5.77966C16.7618 5.62156 16.9727 5.53274 17.1925 5.53274C17.4124 5.53274 17.6233 5.62156 17.7787 5.77966L20.1211 8.16206C20.2765 8.3202 20.3638 8.53467 20.3638 8.75829C20.3638 8.98191 20.2765 9.19637 20.1211 9.35452Z" fill="#E8E8E8"/>
</svg>
