<?xml version="1.0" encoding="utf-8"?>
<!-- Generator: Adobe Illustrator 23.1.0, SVG Export Plug-In . SVG Version: 6.00 Build 0)  -->
<svg version="1.1" id="Слой_1" xmlns="http://www.w3.org/2000/svg" xmlns:xlink="http://www.w3.org/1999/xlink" x="0px" y="0px"
	 viewBox="0 0 300 103.3" style="enable-background:new 0 0 300 103.3;" xml:space="preserve">
<style type="text/css">
	.st0{fill:#E8E8E8;}
	.st1{fill:#C24462;}
	.st2{fill:#FFFFFF;}
</style>
<title>not-found-icon</title>
<g id="Слой_3">
	<path class="st0" d="M77.2,2v64.2c0,1.1,0.9,2,2,2h15.6c1.1,0,2,0.9,2,2V79c0,1.1-0.9,2-2,2H79.2c-1.1,0-2,0.9-2,2v18.3
		c0,1.1-0.9,2-2,2H63.2c-1.1,0-2-0.9-2-2V83c0-1.1-0.9-2-2-2H2c-1.1,0-2-0.9-2-2v-9.3c0-0.6,0.2-1.1,0.7-1.5
		C12,58,22.8,47.1,32.8,35.5C42.5,24.6,51.4,13,59.5,0.9c0.4-0.6,1-0.9,1.7-0.9h14.1C76.3,0,77.2,0.9,77.2,2C77.2,2,77.2,2,77.2,2z
		 M23.5,68.2h35.7c1.1,0,2-0.9,2-2v-41c0-1.1-0.9-2-2-2c-0.6,0-1.2,0.3-1.6,0.8c-4.8,6.6-9.9,12.9-15.3,19.2
		c-5.8,6.8-12.6,14-20.2,21.6c-0.8,0.8-0.7,2.1,0,2.8C22.5,68,23,68.2,23.5,68.2z"/>
	<path class="st0" d="M280.4,2v64.2c0,1.1,0.9,2,2,2H298c1.1,0,2,0.9,2,2V79c0,1.1-0.9,2-2,2h-15.6c-1.1,0-2,0.9-2,2v18.3
		c0,1.1-0.9,2-2,2h-12.1c-1.1,0-2-0.9-2-2V83c0-1.1-0.9-2-2-2h-57.1c-1.1,0-2-0.9-2-2v-9.3c0-0.6,0.2-1.1,0.7-1.5
		C215.2,58,226,47,236,35.5c9.7-10.9,18.6-22.4,26.6-34.6c0.4-0.6,1-0.9,1.7-0.9h14.1C279.5,0,280.4,0.9,280.4,2
		C280.4,2,280.4,2,280.4,2z M226.6,68.3h35.7c1.1,0,2-0.9,2-2v-41c0-1.1-0.9-2-2-2c-0.6,0-1.3,0.3-1.6,0.8
		c-4.8,6.6-9.9,12.9-15.3,19.2c-5.8,6.8-12.6,14-20.2,21.6c-0.8,0.8-0.8,2.1,0,2.8C225.6,68,226.1,68.2,226.6,68.3L226.6,68.3z"/>
	<circle class="st1" cx="150" cy="51.6" r="48.2"/>
	<path class="st2" d="M136,30l12.9,13c0.6,0.6,1.6,0.6,2.3,0l13-12.9c0.6-0.6,1.6-0.6,2.2,0c0,0,0,0,0,0l5.3,5.2
		c0.6,0.6,0.6,1.7,0,2.3l-13,12.9c-0.6,0.6-0.6,1.6,0,2.3c0,0,0,0,0,0l12.9,12.9c0.6,0.6,0.6,1.6,0,2.3l-5.4,5.4
		c-0.6,0.6-1.6,0.6-2.3,0c0,0,0,0,0,0l-12.8-12.9c-0.6-0.6-1.6-0.6-2.3,0c0,0,0,0,0,0L136,73.3c-0.6,0.6-1.6,0.6-2.3,0c0,0,0,0,0,0
		l-5.3-5.3c-0.6-0.6-0.6-1.6,0-2.3c0,0,0,0,0,0l13-13c0.6-0.6,0.6-1.6,0-2.3c0,0,0,0,0,0l-13.1-13c-0.6-0.6-0.6-1.6,0-2.3l5.2-5.3
		c0.6-0.7,1.6-0.7,2.3-0.1C135.9,29.9,136,29.9,136,30z"/>
</g>
</svg>
