<svg width="40" height="39" viewBox="0 0 40 39" fill="none" xmlns="http://www.w3.org/2000/svg">
<path d="M16.5815 17.9584C17.4754 17.4362 18.213 16.6972 18.7216 15.8145C19.2301 14.9318 19.492 13.9358 19.4813 12.9251C19.4813 9.71299 16.1334 7.10831 12.8158 7.10831H0.214844V30.3731H13.3694C15.8566 30.3731 18.0815 29.1632 19.3008 27.0116C19.8767 25.9768 20.1733 24.8179 20.1628 23.6425V23.0261C20.163 21.9303 19.8212 20.86 19.1821 19.9557C18.543 19.0513 17.6365 18.3551 16.5815 17.9584ZM5.03114 11.1487H11.8971C12.6008 11.1638 13.2704 11.445 13.7626 11.9322C14.2547 12.4194 14.5303 13.0738 14.5303 13.7553C14.5303 14.4368 14.2547 15.0912 13.7626 15.5784C13.2704 16.0656 12.6008 16.3468 11.8971 16.3619H5.03114V11.1487ZM15.1277 23.58C15.1273 24.336 14.817 25.0609 14.2648 25.5955C13.7127 26.1301 12.9639 26.4306 12.1831 26.4309H5.03114V20.1088H12.1831C12.9639 20.1091 13.7127 20.4096 14.2648 20.9442C14.817 21.4787 15.1273 22.2037 15.1277 22.9597V23.58Z" fill="#90ABF1"/>
<path d="M35.9244 8.21603H25.4917V11.1487H35.9244V8.21603Z" fill="#90ABF1"/>
<path d="M34.7974 25.4853C33.9156 26.7002 32.5923 27.4736 31.1068 27.4736C27.9855 27.4736 26.7571 25.604 26.4935 23.1065H39.7416C39.7692 22.7173 39.7851 22.3217 39.7851 21.9171C39.7851 15.6779 35.9231 12.7452 30.8946 12.7452C25.8661 12.7452 21.7905 15.743 21.7905 21.9171C21.7905 26.9835 24.718 31.0903 30.8946 31.0903C35.956 31.0903 38.4261 28.7791 39.3448 25.4853H34.7974ZM31.1068 16.3619C33.1959 16.3619 34.4521 17.9456 34.9411 20.1088H26.6253C27.1077 17.929 28.5484 16.3619 31.1068 16.3619Z" fill="#90ABF1"/>
</svg>
