<svg width="17" height="17" viewBox="0 0 17 17" fill="none" xmlns="http://www.w3.org/2000/svg">
<g clip-path="url(#clip0_715_96)">
<path d="M0 5.82935V12.8707C0 13.1713 0.113135 13.4596 0.314517 13.6721C0.515899 13.8847 0.789031 14.0041 1.07383 14.0041H15.0336C15.3184 14.0041 15.5915 13.8847 15.7929 13.6721C15.9943 13.4596 16.1074 13.1713 16.1074 12.8707V5.84408L8.59063 10.404C8.42738 10.5035 8.24221 10.5559 8.05371 10.5559C7.86522 10.5559 7.68004 10.5035 7.5168 10.404L0 5.82935Z" fill="#0F1111"/>
<path d="M15.0148 2.94666H1.08084C0.93818 2.94663 0.796947 2.97661 0.665388 3.03483C0.533829 3.09306 0.414582 3.17837 0.314611 3.28578C0.21464 3.39319 0.135949 3.52055 0.083135 3.66041C0.0303209 3.80028 0.00444207 3.94985 0.00700992 4.10039L0.0241912 5.06996L7.5077 9.60329C7.67018 9.7015 7.85416 9.75317 8.04139 9.75317C8.22863 9.75317 8.41261 9.7015 8.57509 9.60329L16.0828 5.06996L16.0887 4.08849C16.0897 3.93894 16.0627 3.79065 16.0092 3.65217C15.9558 3.51368 15.8768 3.38774 15.777 3.2816C15.6772 3.17546 15.5584 3.09122 15.4276 3.03373C15.2968 2.97624 15.1565 2.94665 15.0148 2.94666Z" fill="#0F1111"/>
</g>
<defs>
<clipPath id="clip0_715_96">
<rect width="16.1074" height="17" fill="white"/>
</clipPath>
</defs>
</svg>
