<svg id="Слой_1" data-name="Слой 1" xmlns="http://www.w3.org/2000/svg" viewBox="0 0 300 300"><defs><style>.cls-1{fill:none;}.cls-1,.cls-2,.cls-3{stroke:#90abf1;stroke-width:6px;}.cls-1,.cls-3{stroke-miterlimit:10;}.cls-2,.cls-3{fill:#90abf1;}.cls-2{stroke-linejoin:round;}</style></defs><title>blog-uploaded-photo-icon</title><path class="cls-1" d="M295.63,52.12a13.53,13.53,0,0,0-13.5-13.5H17.87a13.53,13.53,0,0,0-13.5,13.5h0V247.88a13.53,13.53,0,0,0,13.5,13.5H282.34a13.29,13.29,0,0,0,13.29-13.29Z"/><circle class="cls-2" cx="233.11" cy="90.38" r="25.28"/><path class="cls-2" d="M213.8,261.38,121.9,143.51a13.52,13.52,0,0,0-18.79-2.39,23.51,23.51,0,0,0-2.22,2L8,256.94l9.91,4.27Z"/><path class="cls-3" d="M260.61,209.62l-51.08-56.2a13.47,13.47,0,0,0-19-.86l-1,1L94.74,261.38H283a12.62,12.62,0,0,0,12.61-12.61h0Z"/></svg>