<svg width="17" height="17" viewBox="0 0 17 17" fill="none" xmlns="http://www.w3.org/2000/svg">
<path d="M15.4879 1.3515L15.4879 1.3515C15.1059 0.964826 14.4866 0.964826 14.1047 1.3515L0.964275 14.654C0.582317 15.0407 0.582315 15.6676 0.96428 16.0542C1.34624 16.4409 1.96552 16.4409 2.34748 16.0542L15.4879 2.75176C15.8698 2.36509 15.8698 1.73817 15.4879 1.3515Z" fill="#90ABF1"/>
<path d="M15.4881 14.654L2.3477 1.3515C1.96574 0.964826 1.34646 0.964826 0.964499 1.3515L0.964494 1.3515C0.582535 1.73817 0.582535 2.36509 0.964494 2.75176L14.1049 16.0542C14.4868 16.4409 15.1061 16.4409 15.4881 16.0542C15.87 15.6676 15.87 15.0407 15.4881 14.654Z" fill="#90ABF1"/>
</svg>
