<svg width="25" height="17" viewBox="0 0 25 17" fill="none" xmlns="http://www.w3.org/2000/svg">
<path d="M24.1392 6.47168H0.860833C0.385408 6.47168 0 6.89322 0 7.41322V9.17598C0 9.69597 0.385408 10.1175 0.860833 10.1175H24.1392C24.6146 10.1175 25 9.69597 25 9.17598V7.41322C25 6.89322 24.6146 6.47168 24.1392 6.47168Z" fill="#90ABF1"/>
<path d="M24.1392 12.9429H0.860833C0.385408 12.9429 0 13.3644 0 13.8844V15.6472C0 16.1672 0.385408 16.5887 0.860833 16.5887H24.1392C24.6146 16.5887 25 16.1672 25 15.6472V13.8844C25 13.3644 24.6146 12.9429 24.1392 12.9429Z" fill="#90ABF1"/>
<path d="M24.1392 0H0.860833C0.385408 0 0 0.42154 0 0.941537V2.7043C0 3.22429 0.385408 3.64583 0.860833 3.64583H24.1392C24.6146 3.64583 25 3.22429 25 2.7043V0.941537C25 0.42154 24.6146 0 24.1392 0Z" fill="#90ABF1"/>
</svg>
