<svg width="301" height="301" viewBox="0 0 301 301" fill="none" xmlns="http://www.w3.org/2000/svg">
<g clip-path="url(#clip0_736_1201)">
<mask id="mask0_736_1201" style="mask-type:luminance" maskUnits="userSpaceOnUse" x="0" y="0" width="301" height="301">
<path d="M301 0H0V301H301V0Z" fill="white"/>
</mask>
<g mask="url(#mask0_736_1201)">
<path d="M0.280762 49.7451V175.072C0.280762 179.888 2.19408 184.507 5.59979 187.913C9.00551 191.319 13.6247 193.232 18.4411 193.232H254.515C264.549 193.232 271.281 185.105 271.281 175.072L271.903 49.7451L144.891 122.406C139.283 125.637 133.012 126.289 127.403 123.059L0.280762 49.7451Z" fill="#E072A4"/>
<path d="M266.446 188.125L176.216 104.457L144.892 122.407C139.283 125.637 133.013 126.29 127.404 123.059L93.5613 103.514L5.5791 187.884C7.26229 189.583 9.26605 190.93 11.4741 191.848C13.6821 192.766 16.0505 193.237 18.4418 193.232H254.516C256.751 193.265 258.969 192.828 261.024 191.948C263.08 191.068 264.927 189.766 266.446 188.125Z" fill="#BA3A6E"/>
<path d="M253.843 15.7523H18.1602C15.7477 15.7533 13.3594 16.2347 11.1349 17.1684C8.9103 18.1022 6.89399 19.4696 5.20352 21.1909C3.51304 22.9122 2.18227 24.9529 1.28886 27.194C0.395452 29.435 -0.0427226 31.8317 -9.26522e-05 34.2439L0.280841 49.7454L126.018 122.407C131.607 125.617 139.323 126.48 144.891 122.407L271.903 49.7454L272.003 34.0229C272.017 31.6294 271.557 29.2565 270.65 27.0411C269.744 24.8256 268.408 22.8111 266.721 21.1133C265.033 19.4155 263.027 18.0679 260.817 17.1479C258.607 16.2279 256.237 15.7536 253.843 15.7523Z" fill="#FFB4D6"/>
<path d="M167.637 250.974L125.025 285.248" stroke="#BDCFFE" stroke-width="6" stroke-miterlimit="10" stroke-linecap="round"/>
<path d="M155.969 281.576L173.357 265.964" stroke="#BDCFFE" stroke-width="6" stroke-miterlimit="10" stroke-linecap="round"/>
<path d="M147.491 213.419L263.245 247.824C263.431 247.88 263.633 247.862 263.805 247.771C263.978 247.681 264.108 247.527 264.168 247.342L301 135.29C301.042 135.154 301.042 135.009 301.003 134.873C300.967 134.736 300.891 134.613 300.786 134.517C300.681 134.422 300.551 134.358 300.412 134.333C300.272 134.308 300.129 134.323 299.997 134.377L147.25 209.627C146.862 209.786 146.534 210.063 146.312 210.419C146.09 210.775 145.985 211.191 146.011 211.609C146.038 212.028 146.195 212.427 146.46 212.752C146.725 213.076 147.086 213.31 147.491 213.419Z" fill="#BDCFFE"/>
<path d="M176.125 221.947L300.468 134.336C300.543 134.357 300.614 134.391 300.678 134.437L205.362 230.636L192.93 271.291C192.649 271.241 192.489 271.181 192.298 270.639L176.125 221.947Z" fill="#5274CB"/>
<path d="M193.805 270.95L229.925 237.94L205.383 230.636L192.952 271.291C193.213 271.361 193.373 271.321 193.805 270.95Z" fill="#90ABF1"/>
</g>
</g>
<defs>
<clipPath id="clip0_736_1201">
<rect width="301" height="301" fill="white"/>
</clipPath>
</defs>
</svg>
