<svg width="82" height="82" viewBox="0 0 82 82" fill="none" xmlns="http://www.w3.org/2000/svg">
<path d="M36.0889 58.1626C48.2799 58.1626 58.1626 48.2799 58.1626 36.0889C58.1626 23.8979 48.2799 14.0151 36.0889 14.0151C23.8979 14.0151 14.0151 23.8979 14.0151 36.0889C14.0151 48.2799 23.8979 58.1626 36.0889 58.1626Z" stroke="#90ABF1" stroke-width="2" stroke-miterlimit="10" stroke-linecap="round"/>
<path d="M24.8438 30.2581C24.8438 30.2581 35.4989 24.5661 47.5422 32.3405" stroke="#90ABF1" stroke-width="2" stroke-miterlimit="10" stroke-linecap="round"/>
<path d="M27.0303 36.3666C27.0303 36.3666 35.3948 32.7917 44.4533 38.5184" stroke="#90ABF1" stroke-width="2" stroke-miterlimit="10" stroke-linecap="round"/>
<path d="M29.0781 42.5444C29.0781 42.5444 36.6442 40.2885 42.3709 44.731" stroke="#90ABF1" stroke-width="2" stroke-miterlimit="10" stroke-linecap="round"/>
<path d="M67.7071 71.1779H4.47065C2.56176 71.1779 0.999939 69.6161 0.999939 67.7072V4.47072C0.999939 2.56182 2.56176 1 4.47065 1H67.7071C69.616 1 71.1778 2.56182 71.1778 4.47072V67.7072C71.1778 69.6161 69.616 71.1779 67.7071 71.1779Z" stroke="#90ABF1" stroke-width="2" stroke-miterlimit="10" stroke-linecap="round"/>
<path d="M71.1778 5.61609H72.4273C74.3361 5.61609 75.898 7.17791 75.898 9.0868V72.3232C75.898 74.2321 74.3361 75.794 72.4273 75.794H9.19081C7.28191 75.794 5.72009 74.2321 5.72009 72.3232V71.1779" stroke="#90ABF1" stroke-width="2" stroke-miterlimit="10" stroke-linecap="round"/>
<path d="M75.898 10.1279H77.0086C78.9175 10.1279 80.4793 11.6898 80.4793 13.5986V76.8351C80.4793 78.744 78.9175 80.3058 77.0086 80.3058H13.7722C11.8633 80.3058 10.3015 78.744 10.3015 76.8351V75.8286" stroke="#90ABF1" stroke-width="2" stroke-miterlimit="10" stroke-linecap="round"/>
</svg>
