<svg width="41" height="41" viewBox="0 0 41 41" fill="none" xmlns="http://www.w3.org/2000/svg">
<path d="M0.941465 13.9025L7.15838 22.1651C7.36687 22.4439 7.50504 22.7689 7.56116 23.1125C7.61727 23.456 7.58968 23.8081 7.48073 24.1387L4.19136 33.9539C4.06237 34.3371 4.04332 34.7488 4.13635 35.1423C4.22938 35.5358 4.43079 35.8953 4.71773 36.1802C5.00468 36.4651 5.36571 36.6639 5.75987 36.7541C6.15404 36.8443 6.56556 36.8223 6.94785 36.6906L16.737 33.3289C17.0669 33.2198 17.418 33.1909 17.7612 33.2447C18.1045 33.2984 18.43 33.4333 18.7106 33.6381L27.0262 39.7956C27.3514 40.0358 27.7373 40.1804 28.1403 40.2131C28.5434 40.2457 28.9475 40.1652 29.3072 39.9806C29.6669 39.7959 29.9679 39.5145 30.1763 39.168C30.3847 38.8215 30.4921 38.4237 30.4866 38.0194L30.3155 27.6714C30.3085 27.3197 30.3875 26.9716 30.5457 26.6574C30.704 26.3433 30.9366 26.0725 31.2234 25.8688L39.6442 19.8626C39.9741 19.6287 40.232 19.3071 40.3884 18.9341C40.5449 18.5611 40.5936 18.1517 40.5292 17.7524C40.4649 17.3532 40.2899 16.9799 40.0241 16.675C39.7584 16.3701 39.4125 16.1457 39.0258 16.0274L29.1577 12.9947C28.8209 12.8905 28.5145 12.7062 28.2647 12.4576C28.0149 12.2089 27.8292 11.9034 27.7235 11.5671L24.6183 1.6993C24.4956 1.31453 24.2679 0.971618 23.961 0.709135C23.654 0.446653 23.2799 0.275002 22.8807 0.213486C22.4815 0.15197 22.0731 0.203027 21.7013 0.360915C21.3296 0.518804 21.0093 0.777264 20.7764 1.10723L14.8555 9.58039C14.6537 9.86693 14.3856 10.1004 14.074 10.2608C13.7623 10.4211 13.4165 10.5037 13.0661 10.5014L2.71773 10.4093C2.30679 10.3962 1.90062 10.5005 1.54678 10.7099C1.19294 10.9193 0.90605 11.2251 0.719698 11.5916C0.533346 11.958 0.455245 12.37 0.494518 12.7793C0.53379 13.1885 0.68882 13.5781 0.941465 13.9025Z" fill="#E5DA17"/>
<path d="M20.0591 31.9606C20.0591 31.9606 25.1445 36.1577 27.1181 37.776C28.6115 38.9996 28.6904 36.8156 28.6904 36.8156C28.6904 36.8156 28.4075 27.4938 28.3351 26.6188C28.2628 25.7439 29.2759 24.5861 29.2759 24.5861C29.2759 24.5861 37.2296 19.3824 37.6441 18.6127C38.0585 17.843 36.6507 17.6325 36.6507 17.6325L27.6378 14.8038C27.1768 14.6929 26.7543 14.4595 26.415 14.1284C26.0757 13.7972 25.8322 13.3805 25.7102 12.9223L22.9603 3.14001C22.9603 3.14001 22.3353 1.92299 20.9012 4.02154" stroke="#F4F2D9" stroke-width="2" stroke-linecap="round" stroke-linejoin="round"/>
</svg>
