<svg width="70" height="70" viewBox="0 0 70 70" fill="none" xmlns="http://www.w3.org/2000/svg">
<g clip-path="url(#clip0_733_98)">
<path d="M47.4033 28.5591H24.3545C23.187 28.5591 22.2319 29.6659 22.2319 31.0295V60.6234C22.2319 59.2574 23.1823 58.1506 24.3545 58.1506H47.004C47.2175 58.15 47.422 58.0649 47.573 57.914C47.7239 57.7631 47.809 57.5585 47.8096 57.345V29.0518C47.8171 28.9334 47.7793 28.8166 47.7038 28.7251C47.6284 28.6336 47.5209 28.5743 47.4033 28.5591Z" stroke="#90ABF1" stroke-miterlimit="10"/>
<path d="M22.2319 60.2591C22.2319 61.6251 23.1823 62.7319 24.3545 62.7319H45.3555C45.6798 62.7319 46.0009 62.6678 46.3004 62.5435C46.5999 62.4191 46.8718 62.2368 47.1007 62.007C47.3296 61.7773 47.5109 61.5046 47.6341 61.2047C47.7574 60.9047 47.8202 60.5834 47.8189 60.2591V57.3403" stroke="#90ABF1" stroke-miterlimit="10"/>
<path d="M26.7083 36.2646H43.2564" stroke="#90ABF1" stroke-miterlimit="10"/>
<path d="M26.7922 41.4739H43.3404" stroke="#90ABF1" stroke-miterlimit="10"/>
<path d="M26.7922 46.6809H37.9652" stroke="#90ABF1" stroke-miterlimit="10"/>
<path d="M3.53081 42.1909H11.5305V58.1577H3.53081C2.91153 58.1577 2.31761 57.9117 1.87971 57.4738C1.44181 57.0359 1.1958 56.442 1.1958 55.8227V44.5259C1.1958 43.9066 1.44181 43.3127 1.87971 42.8748C2.31761 42.4369 2.91153 42.1909 3.53081 42.1909Z" stroke="#90ABF1" stroke-miterlimit="10"/>
<path d="M66.457 58.1553H58.4549V42.1885H66.457C67.0763 42.1885 67.6702 42.4345 68.1081 42.8724C68.546 43.3103 68.792 43.9042 68.792 44.5235V55.8203C68.792 56.4395 68.546 57.0335 68.1081 57.4714C67.6702 57.9093 67.0763 58.1553 66.457 58.1553Z" stroke="#90ABF1" stroke-miterlimit="10"/>
<path d="M63.6223 42.1908V35.912C63.6223 28.319 60.606 21.0369 55.2369 15.6679C49.8678 10.2988 42.5858 7.28247 34.9928 7.28247C27.3998 7.28247 20.1177 10.2988 14.7487 15.6679C9.3796 21.0369 6.36328 28.319 6.36328 35.912V42.1908" stroke="#90ABF1" stroke-miterlimit="10"/>
</g>
<defs>
<clipPath id="clip0_733_98">
<rect width="69.0462" height="69.0462" fill="white" transform="translate(0.469727 0.48291)"/>
</clipPath>
</defs>
</svg>
