<svg width="67" height="66" viewBox="0 0 67 66" fill="none" xmlns="http://www.w3.org/2000/svg">
<path d="M27.4746 5.35449H38.8554C50.3931 5.35449 59.7353 14.6967 59.7353 26.2567V61.2282C59.7353 63.1325 58.1894 64.6783 56.2852 64.6783H10.0448C8.14055 64.6783 6.59473 63.1325 6.59473 61.2282V26.2343C6.59473 14.6967 15.9369 5.35449 27.4746 5.35449Z" stroke="#90ABF1" stroke-miterlimit="10"/>
<path d="M29.1995 32.4176H10.3808C8.27486 32.4176 6.5498 30.6926 6.5498 28.5867" stroke="#90ABF1" stroke-miterlimit="10"/>
<path d="M59.7129 28.5867C59.7129 30.6926 57.9879 32.4176 55.882 32.4176H37.0632" stroke="#90ABF1" stroke-miterlimit="10"/>
<path d="M30.8127 26.8167H35.4278C36.3239 26.8167 37.0632 27.556 37.0632 28.4521V36.6293C37.0632 37.5254 36.3239 38.2647 35.4278 38.2647H30.8127C29.9166 38.2647 29.1772 37.5254 29.1772 36.6293V28.4521C29.1996 27.5336 29.9166 26.8167 30.8127 26.8167Z" stroke="#90ABF1" stroke-miterlimit="10"/>
<path d="M19.1854 7.05707L17.3259 2.68843C16.9899 1.88192 16.1834 1.34424 15.2873 1.34424H7.82697C7.3789 1.34424 6.99805 1.70269 6.99805 2.15076C6.99805 2.26277 7.02045 2.37479 7.06526 2.4868L11.4563 12.8371" stroke="#90ABF1" stroke-miterlimit="10"/>
<path d="M47.2341 7.10188L49.0936 2.68843C49.4297 1.88192 50.2362 1.34424 51.1323 1.34424H58.5926C59.0406 1.34424 59.4215 1.70269 59.4215 2.15076C59.4215 2.26277 59.3991 2.37479 59.3543 2.4644L54.9409 12.8595" stroke="#90ABF1" stroke-miterlimit="10"/>
<path d="M61.5275 45.5907V22.829C61.5275 22.0449 61.5051 21.2831 61.4379 20.499L59.3992 2.10596" stroke="#90ABF1" stroke-miterlimit="10"/>
<path d="M6.99802 2.10596L4.82491 20.387C4.73529 21.2383 4.71289 22.0673 4.71289 22.9186V45.5235" stroke="#90ABF1" stroke-miterlimit="10"/>
<path d="M59.7578 45.5906H61.1916C63.6559 45.5906 65.6274 47.5845 65.6274 50.0264V58.7637C65.6274 59.2342 65.2466 59.615 64.7761 59.615H59.7354" stroke="#90ABF1" stroke-miterlimit="10"/>
<path d="M6.54983 45.5234H5.11602C2.65166 45.5234 0.680176 47.5173 0.680176 49.9593V58.6966C0.680176 59.167 1.06103 59.5479 1.5315 59.5479H6.57223" stroke="#90ABF1" stroke-miterlimit="10"/>
<path d="M12.3523 64.6557V55.7168C12.3523 53.3197 14.3014 51.3706 16.6761 51.3706H49.6313C52.0285 51.3706 53.9775 53.3197 53.9775 55.6944V64.6333" stroke="#90ABF1" stroke-miterlimit="10"/>
<path d="M18.6252 58.0244H47.7271" stroke="#90ABF1" stroke-miterlimit="10"/>
<path d="M22.9042 58.1812V60.8919C22.9042 61.2952 22.5682 61.6313 22.1649 61.6313H21.1568C20.7535 61.6313 20.4175 61.2952 20.4175 60.8919V58.1812" stroke="#90ABF1" stroke-miterlimit="10"/>
<path d="M27.4968 5.24232C28.3033 2.77796 30.5885 1.12012 33.1649 1.12012C35.7412 1.12012 38.0488 2.77796 38.8553 5.24232" stroke="#90ABF1" stroke-miterlimit="10"/>
</svg>
