<svg width="66" height="40" viewBox="0 0 66 40" fill="none" xmlns="http://www.w3.org/2000/svg">
<path d="M5.45721 1.2915H30.6853C31.9601 1.2915 33.0113 2.49923 33.0113 3.9977V36.405C33.0113 34.9066 31.9825 33.6988 30.6853 33.6988H5.88215C5.39011 33.6988 5.0099 33.2962 4.98753 32.8266V1.82827C4.96517 1.55989 5.16646 1.31387 5.45721 1.2915Z" stroke="#90ABF1" stroke-miterlimit="10"/>
<path d="M33.0112 36.0024C33.0112 37.5009 31.9824 38.7086 30.6852 38.7086H1.02883C0.760449 38.6862 0.536796 38.4402 0.559162 38.1718V5.29485C0.559162 4.80282 0.961737 4.42261 1.43141 4.42261C1.43141 4.42261 1.43141 4.42261 1.45377 4.42261H4.96513" stroke="#90ABF1" stroke-miterlimit="10"/>
<path d="M10.3328 9.74561H28.4487" stroke="#90ABF1" stroke-miterlimit="10"/>
<path d="M10.4221 15.4487H28.538" stroke="#90ABF1" stroke-miterlimit="10"/>
<path d="M16.2373 21.1519H28.4488" stroke="#90ABF1" stroke-miterlimit="10"/>
<path d="M60.5653 1.2915H35.3372C34.0624 1.2915 33.0112 2.49923 33.0112 3.9977V36.405C33.0112 34.9066 34.0624 33.6988 35.3372 33.6988H60.1403C60.6324 33.6988 61.0349 33.2962 61.0349 32.8266V1.82827C61.0573 1.55989 60.8337 1.31387 60.5653 1.2915Z" stroke="#90ABF1" stroke-miterlimit="10"/>
<path d="M33.0112 36.0024C33.0112 37.5009 34.0624 38.7086 35.3372 38.7086H64.9712C65.2396 38.6862 65.4633 38.4402 65.4409 38.1718V5.29485C65.4409 4.80282 65.0383 4.42261 64.5687 4.42261C64.5687 4.42261 64.5687 4.42261 64.5463 4.42261H61.0126" stroke="#90ABF1" stroke-miterlimit="10"/>
<path d="M37.9092 9.74561H56.0251" stroke="#90ABF1" stroke-miterlimit="10"/>
<path d="M37.9985 15.4487H56.1144" stroke="#90ABF1" stroke-miterlimit="10"/>
<path d="M37.9985 21.1519H50.2324" stroke="#90ABF1" stroke-miterlimit="10"/>
</svg>
