<svg width="59" height="66" viewBox="0 0 59 66" fill="none" xmlns="http://www.w3.org/2000/svg">
<path d="M17.2167 59.8229C17.2167 62.6876 14.2401 64.9928 9.9654 64.9928C5.69073 64.9928 2.37842 63.7618 2.37842 60.8971C2.37842 58.0324 5.69073 54.6306 9.9654 54.6306C14.2401 54.6306 17.2167 56.9582 17.2167 59.8229Z" stroke="#90ABF1" stroke-miterlimit="10"/>
<path d="M7.01123 61.0315V64.769" stroke="#90ABF1" stroke-miterlimit="10"/>
<path d="M11.5769 61.0315V64.8809" stroke="#90ABF1" stroke-miterlimit="10"/>
<path d="M41.6338 59.8229C41.6338 62.6876 44.6104 64.9928 48.8851 64.9928C53.1597 64.9928 56.472 63.7618 56.472 60.8971C56.472 58.0324 53.1821 54.6306 48.8851 54.6306C44.588 54.6306 41.6338 56.9582 41.6338 59.8229Z" stroke="#90ABF1" stroke-miterlimit="10"/>
<path d="M51.8394 61.0315V64.769" stroke="#90ABF1" stroke-miterlimit="10"/>
<path d="M47.2737 61.0315V64.8809" stroke="#90ABF1" stroke-miterlimit="10"/>
<path d="M50.3621 54.765C52.9807 52.1688 54.5025 48.9237 54.5025 45.1861C54.5025 42.0976 53.4507 39.0091 51.6155 36.2116L53.4283 24.5066C53.5626 23.6337 52.9807 22.828 52.1078 22.6938C51.8393 22.649 51.5483 22.6714 51.2797 22.7833L40.2686 27.0803C33.353 24.2156 25.5646 24.1932 18.6266 27.0356L7.48117 22.6938C6.65309 22.3804 5.73549 22.7833 5.42217 23.589C5.33264 23.8575 5.28788 24.1261 5.33264 24.3947L7.14546 36.1892C5.33264 39.0091 4.28076 42.0976 4.28076 45.1861C4.28076 48.946 5.82501 52.1912 8.44353 54.7873" stroke="#90ABF1" stroke-miterlimit="10"/>
<path d="M29.4141 48.5881L32.1669 45.4772C32.4578 45.052 32.3236 44.4701 31.8983 44.1791C31.7417 44.0896 31.5626 44.0225 31.3836 44.0225H27.4446C26.9299 44.0225 26.5046 44.4477 26.5046 44.9624C26.5046 45.1415 26.5494 45.3205 26.6613 45.4772L29.4141 48.5881Z" stroke="#90ABF1" stroke-miterlimit="10"/>
<path d="M24.7812 52.4373C24.7812 53.6459 25.8107 54.8992 27.0864 54.8992C28.3621 54.8992 29.3916 53.9368 29.3916 52.7283V48.5208" stroke="#90ABF1" stroke-miterlimit="10"/>
<path d="M29.3916 52.7507C29.3916 53.9592 30.4435 54.9216 31.7192 54.9216C32.9949 54.9216 34.0244 53.6459 34.0244 52.4597" stroke="#90ABF1" stroke-miterlimit="10"/>
<path d="M17.2168 59.8901C20.8424 61.0987 24.9828 61.7701 29.3918 61.7701C33.8007 61.7701 38.0083 61.1211 41.6115 59.8901" stroke="#90ABF1" stroke-miterlimit="10"/>
<path d="M16.2544 40.1954C16.2544 40.1954 21.6705 38.6959 24.1771 42.0977" stroke="#90ABF1" stroke-miterlimit="10"/>
<path d="M42.596 40.1954C42.596 40.1954 37.18 38.7183 34.6733 42.0977" stroke="#90ABF1" stroke-miterlimit="10"/>
<path d="M17.2167 45.4548C17.2167 45.4548 9.29405 41.6278 0.699951 42.1202" stroke="#90ABF1" stroke-miterlimit="10"/>
<path d="M16.2544 48.0509C16.2544 48.0509 5.35509 47.1333 0.699951 49.9756" stroke="#90ABF1" stroke-miterlimit="10"/>
<path d="M41.6338 45.4099C41.6338 45.4099 49.5565 41.5829 58.173 42.0752" stroke="#90ABF1" stroke-miterlimit="10"/>
<path d="M42.6184 48.0285C42.6184 48.0285 53.5177 47.1109 58.1728 49.9532" stroke="#90ABF1" stroke-miterlimit="10"/>
<path d="M11.4648 24.2381C14.7324 20.232 21.5361 17.4568 29.414 17.4568C37.3143 17.4568 44.1627 20.232 47.4079 24.2828" stroke="#90ABF1" stroke-miterlimit="10"/>
<path d="M29.3021 17.4792L26.9745 8.45992C26.1464 5.28189 28.0711 2.03673 31.2492 1.20865C32.2563 0.940084 33.3305 0.962465 34.3377 1.23103L38.9704 2.5291C39.8433 2.77528 40.4475 3.89431 40.2014 4.76714C39.9552 5.63998 38.769 5.90855 37.8962 5.66236L33.8453 4.54334C32.2115 4.09573 30.5106 5.05809 30.063 6.69186C29.9287 7.20662 29.9063 7.76613 30.0406 8.28088L32.4801 17.6359" stroke="#90ABF1" stroke-miterlimit="10"/>
</svg>
