<svg width="60" height="68" viewBox="0 0 60 68" fill="none" xmlns="http://www.w3.org/2000/svg">
<path d="M6.84668 42.5145V3.84687C6.84668 3.02411 7.15873 2.23504 7.71419 1.65325C8.26965 1.07147 9.02301 0.744629 9.80854 0.744629H47.7469L58.7868 12.3077V64.3604C58.7868 64.7678 58.7101 65.1712 58.5613 65.5475C58.4125 65.9239 58.1943 66.2659 57.9192 66.554C57.6442 66.8421 57.3177 67.0706 56.9584 67.2265C56.599 67.3824 56.2139 67.4626 55.8249 67.4626H9.80854C9.41921 67.4626 9.0337 67.3822 8.67406 67.226C8.31442 67.0698 7.98771 66.8409 7.71262 66.5523C7.43753 66.2638 7.21945 65.9212 7.07087 65.5443C6.92228 65.1674 6.8461 64.7635 6.84668 64.3557V59.8592" stroke="#90ABF1" stroke-miterlimit="10"/>
<path d="M58.7958 12.3079L50.6446 12.2637C50.2554 12.261 49.8704 12.178 49.5118 12.0194C49.1532 11.8608 48.8279 11.6299 48.5545 11.3396C48.2811 11.0494 48.065 10.7056 47.9185 10.3279C47.7719 9.95017 47.6979 9.54592 47.7005 9.13822L47.756 0.751709L58.7958 12.3079Z" stroke="#90ABF1" stroke-linecap="round" stroke-linejoin="round"/>
<path d="M16.9993 22.314H48.0533" stroke="#90ABF1" stroke-miterlimit="10"/>
<path d="M17.5916 28.2095H48.6456" stroke="#90ABF1" stroke-miterlimit="10"/>
<path d="M17.5916 34.1025H38.1315" stroke="#90ABF1" stroke-miterlimit="10"/>
<path d="M36.9357 42.5146H3.52111C2.2958 42.5146 1.30249 43.555 1.30249 44.8384V57.5356C1.30249 58.8189 2.2958 59.8593 3.52111 59.8593H36.9357C38.161 59.8593 39.1543 58.8189 39.1543 57.5356V44.8384C39.1543 43.555 38.161 42.5146 36.9357 42.5146Z" stroke="#90ABF1" stroke-miterlimit="10"/>
<path d="M16.3957 49.1676H15.6458C15.5913 48.8794 15.4892 48.6034 15.3441 48.352C15.1978 48.1036 15.0134 47.8821 14.7983 47.6967C14.5766 47.5076 14.3251 47.3606 14.0551 47.2621C13.7697 47.1584 13.4697 47.1057 13.1676 47.1064C12.6675 47.1016 12.1766 47.2485 11.7544 47.5293C11.3104 47.8346 10.9574 48.2646 10.736 48.7702C10.4827 49.406 10.3523 50.088 10.3523 50.7768C10.3523 51.4657 10.4827 52.1477 10.736 52.7834C10.9563 53.2886 11.3096 53.7174 11.7544 54.0197C12.1768 54.2998 12.6677 54.4459 13.1676 54.4403C13.4696 54.4417 13.7696 54.3899 14.0551 54.2869C14.3242 54.1896 14.5756 54.045 14.7983 53.8593C15.0145 53.6749 15.199 53.4533 15.3441 53.204C15.4892 52.9526 15.5913 52.6766 15.6458 52.3884H16.3957C16.333 52.7745 16.2069 53.1464 16.023 53.4875C15.8427 53.8242 15.6077 54.1254 15.3286 54.3775C15.0411 54.6337 14.713 54.835 14.359 54.9724C13.9734 55.1174 13.5662 55.189 13.1565 55.1839C12.5088 55.1966 11.8719 55.0082 11.3262 54.6424C10.7793 54.2664 10.3448 53.7364 10.0727 53.1134C9.7726 52.3761 9.61792 51.5829 9.61792 50.7815C9.61792 49.98 9.7726 49.1868 10.0727 48.4496C10.3448 47.8265 10.7793 47.2965 11.3262 46.9205C11.8717 46.554 12.5086 46.3648 13.1565 46.3768C13.5661 46.3727 13.9732 46.4443 14.359 46.5882C14.7138 46.7237 15.0422 46.9253 15.3286 47.1831C15.894 47.6972 16.2713 48.4012 16.3957 49.1746V49.1676Z" fill="#90ABF1"/>
<path d="M22.5991 48.6308C22.5831 48.4066 22.5208 48.1887 22.4167 47.9921C22.3125 47.7955 22.1688 47.625 21.9956 47.4922C21.6037 47.1992 21.1301 47.0505 20.6489 47.0692C20.3036 47.0619 19.9609 47.1325 19.6439 47.276C19.3711 47.3964 19.1348 47.5924 18.9605 47.843C18.7963 48.0825 18.7099 48.3709 18.7143 48.6657C18.7096 48.8727 18.7579 49.0773 18.854 49.2582C18.949 49.4307 19.0775 49.5803 19.2312 49.6974C19.3955 49.8216 19.5727 49.926 19.7592 50.0088C19.9499 50.0939 20.1455 50.1661 20.345 50.2249L21.208 50.4852C21.4747 50.5635 21.7363 50.6598 21.9912 50.7733C22.2476 50.8882 22.4891 51.0365 22.71 51.2148C22.9245 51.3921 23.1019 51.6135 23.2314 51.8655C23.3728 52.1524 23.4415 52.4724 23.4311 52.795C23.4367 53.2324 23.3186 53.6618 23.0916 54.0289C22.8497 54.4081 22.5116 54.7091 22.1154 54.898C21.6376 55.1236 21.1173 55.2332 20.5934 55.2187C20.0956 55.2305 19.6011 55.1315 19.1425 54.9282C18.7571 54.7546 18.4232 54.4762 18.1751 54.1219C17.9399 53.7713 17.8044 53.3579 17.7847 52.9298H18.5501C18.5678 53.2441 18.6805 53.5444 18.8718 53.7873C19.0665 54.0269 19.3162 54.2108 19.5973 54.3217C19.9172 54.4465 20.2565 54.5079 20.5979 54.503C20.9713 54.5097 21.342 54.4361 21.6872 54.2869C21.984 54.16 22.2429 53.9522 22.4371 53.685C22.6206 53.4241 22.7172 53.1074 22.7122 52.7834C22.7196 52.5201 22.6414 52.262 22.4904 52.0514C22.3282 51.841 22.1227 51.6717 21.8891 51.5564C21.6041 51.4102 21.3071 51.2913 21.0017 51.2009L20.021 50.8988C19.4677 50.7486 18.9561 50.4636 18.5279 50.0669C18.3529 49.8928 18.2149 49.6819 18.1232 49.448C18.0314 49.2141 17.9879 48.9625 17.9954 48.7098C17.9876 48.2759 18.1111 47.8505 18.3482 47.4945C18.5931 47.1365 18.9247 46.8533 19.3089 46.6742C19.7358 46.4718 20.2003 46.371 20.6689 46.3791C21.1345 46.3693 21.5963 46.4694 22.02 46.6719C22.393 46.8499 22.715 47.1271 22.954 47.4759C23.1822 47.8174 23.3102 48.2212 23.3223 48.6378L22.5991 48.6308Z" fill="#90ABF1"/>
<path d="M29.6809 48.6308C29.6649 48.4066 29.6026 48.1887 29.4984 47.9921C29.3943 47.7955 29.2506 47.625 29.0774 47.4922C28.6854 47.1992 28.2119 47.0505 27.7307 47.0692C27.3854 47.0619 27.0426 47.1325 26.7257 47.276C26.4545 47.3971 26.2198 47.5931 26.0468 47.843C25.8825 48.0825 25.7962 48.3709 25.8005 48.6657C25.7958 48.8727 25.8441 49.0773 25.9403 49.2582C26.0353 49.4307 26.1637 49.5803 26.3174 49.6974C26.4818 49.8216 26.6589 49.926 26.8455 50.0088C27.0361 50.0939 27.2317 50.1661 27.4312 50.2249L28.2942 50.4852C28.5609 50.5635 28.8225 50.6598 29.0774 50.7733C29.3338 50.8882 29.5754 51.0365 29.7962 51.2148C30.0107 51.3921 30.1881 51.6135 30.3176 51.8655C30.459 52.1524 30.5277 52.4724 30.5173 52.795C30.523 53.2324 30.4048 53.6618 30.1778 54.0289C29.9359 54.4081 29.5979 54.7091 29.2016 54.898C28.7238 55.1236 28.2036 55.2332 27.6797 55.2187C27.1818 55.2305 26.6873 55.1315 26.2287 54.9282C25.8434 54.7546 25.5094 54.4762 25.2614 54.1219C25.0245 53.7718 24.8875 53.3583 24.8665 52.9298H25.6319C25.6496 53.2441 25.7623 53.5444 25.9536 53.7873C26.1483 54.0269 26.3979 54.2108 26.6791 54.3217C26.999 54.4465 27.3383 54.5079 27.6797 54.503C28.0531 54.5097 28.4238 54.4361 28.769 54.2869C29.0658 54.16 29.3247 53.9522 29.5189 53.685C29.7023 53.4241 29.799 53.1074 29.794 52.7834C29.8014 52.5201 29.7232 52.262 29.5721 52.0514C29.41 51.841 29.2044 51.6717 28.9709 51.5564C28.6859 51.4102 28.3889 51.2913 28.0834 51.2009L27.1028 50.8988C26.5495 50.7486 26.0379 50.4636 25.6097 50.0669C25.4346 49.8928 25.2967 49.6819 25.2049 49.448C25.1132 49.2141 25.0697 48.9625 25.0772 48.7098C25.0694 48.2759 25.1929 47.8505 25.43 47.4945C25.6749 47.1365 26.0065 46.8533 26.3906 46.6742C26.8176 46.4718 27.2821 46.371 27.7507 46.3791C28.2163 46.3693 28.6781 46.4694 29.1018 46.6719C29.4748 46.8499 29.7968 47.1271 30.0358 47.4759C30.264 47.8174 30.392 48.2212 30.4041 48.6378L29.6809 48.6308Z" fill="#90ABF1"/>
</svg>
