<svg width="70" height="52" viewBox="0 0 70 52" fill="none" xmlns="http://www.w3.org/2000/svg">
<path d="M1.22119 43.9578H69.333V45.6414C69.333 47.1056 68.7403 48.5098 67.6854 49.5452C66.6305 50.5805 65.1997 51.1621 63.7078 51.1621H6.83932C5.34865 51.1603 3.91967 50.5778 2.86627 49.5427C1.81287 48.5076 1.22119 47.1044 1.22119 45.6414V43.9578Z" stroke="#90ABF1" stroke-miterlimit="10"/>
<path d="M43.766 43.9578C43.766 44.7345 43.4517 45.4794 42.8923 46.0289C42.333 46.5783 41.5742 46.8873 40.7827 46.8879H29.6199C28.8285 46.8873 28.0697 46.5783 27.5103 46.0289C26.9509 45.4794 26.6367 44.7345 26.6367 43.9578" stroke="#90ABF1" stroke-miterlimit="10"/>
<path d="M50.3983 4.38013H6.98632C6.26488 4.38013 5.57298 4.6614 5.06284 5.16205C4.55271 5.66271 4.26611 6.34176 4.26611 7.0498V43.9577" stroke="#90ABF1" stroke-miterlimit="10"/>
<path d="M66.0631 43.9577V7.0498C66.0631 6.34176 65.7765 5.66271 65.2663 5.16205C64.7562 4.6614 64.0643 4.38013 63.3429 4.38013H57.0044" stroke="#90ABF1" stroke-miterlimit="10"/>
<path d="M34.596 20.6609H9.50993C9.3214 20.6609 9.14059 20.5874 9.00728 20.4565C8.87397 20.3257 8.79907 20.1482 8.79907 19.9632V9.57289C8.79907 9.38786 8.87397 9.21041 9.00728 9.07958C9.14059 8.94875 9.3214 8.87524 9.50993 8.87524H44.2423" stroke="#90ABF1" stroke-miterlimit="10" stroke-linecap="round"/>
<path d="M54.2819 8.87524H60.8218C61.0103 8.87524 61.1911 8.94875 61.3244 9.07958C61.4577 9.21041 61.5326 9.38786 61.5326 9.57289V19.9632C61.5326 20.1482 61.4577 20.3257 61.3244 20.4565C61.1911 20.5874 61.0103 20.6609 60.8218 20.6609H43.4722" stroke="#90ABF1" stroke-miterlimit="10" stroke-linecap="round"/>
<path d="M38.7426 23.6025H39.9037C40.0922 23.6025 40.273 23.676 40.4063 23.8069C40.5396 23.9377 40.6145 24.1152 40.6145 24.3002V38.609C40.6145 38.794 40.5396 38.9714 40.4063 39.1023C40.273 39.2331 40.0922 39.3066 39.9037 39.3066H9.42692C9.23839 39.3066 9.05758 39.2331 8.92427 39.1023C8.79096 38.9714 8.71606 38.794 8.71606 38.609V24.3002C8.71606 24.1152 8.79096 23.9377 8.92427 23.8069C9.05758 23.676 9.23839 23.6025 9.42692 23.6025H29.5963" stroke="#90ABF1" stroke-miterlimit="10" stroke-linecap="round"/>
<path d="M60.7744 23.6025H44.3134C43.9208 23.6025 43.6025 23.9149 43.6025 24.3002V38.609C43.6025 38.9943 43.9208 39.3066 44.3134 39.3066H60.7744C61.167 39.3066 61.4853 38.9943 61.4853 38.609V24.3002C61.4853 23.9149 61.167 23.6025 60.7744 23.6025Z" stroke="#90ABF1" stroke-miterlimit="10" stroke-linecap="round"/>
<path d="M24.5657 31.4372C24.5657 31.4372 27.8498 30.1605 28.0631 27.6373C28.2763 25.1142 30.3686 20.2144 34.7759 22.7724C40.2827 28.3489 27.973 34.372 24.5657 31.4372Z" stroke="#90ABF1" stroke-linejoin="round"/>
<path d="M35.16 23.3235C30.2977 18.3516 52.8674 0.473237 57.8481 1.05694C58.7059 6.0614 39.8398 28.1071 35.16 23.3235Z" stroke="#90ABF1" stroke-linejoin="round"/>
</svg>
