<?xml version="1.0" encoding="utf-8"?>
<!-- Generator: Adobe Illustrator 23.1.0, SVG Export Plug-In . SVG Version: 6.00 Build 0)  -->
<svg version="1.1" id="Слой_1" xmlns="http://www.w3.org/2000/svg" xmlns:xlink="http://www.w3.org/1999/xlink" x="0px" y="0px"
	 viewBox="0 0 66 58" style="enable-background:new 0 0 66 58;" xml:space="preserve">
<style type="text/css">
	.st0{fill:none;stroke:#9A7BD9;stroke-miterlimit:10;}
	.st1{fill:none;stroke:#9A7BD9;stroke-linecap:round;stroke-linejoin:round;}
</style>
<g>
	<g>
		<path class="st0" d="M39.9,41.3H10.4c-0.9,0-1.6-0.7-1.6-1.6V15.4c0-0.9,0.7-1.6,1.6-1.6h35.2c0.9,0,1.6,0.7,1.6,1.6V34"/>
		<path class="st1" d="M9.4,40.8l9.8-9.7l8.5,5.9l5.9-3.4l9,4.9"/>
		<path class="st0" d="M30.2,26.3c2,0,3.6-1.6,3.6-3.6s-1.6-3.6-3.6-3.6s-3.6,1.6-3.6,3.6C26.6,24.6,28.2,26.3,30.2,26.3z"/>
	</g>
	<g>
		<path class="st1" d="M60.3,25.6c1.3,1.3,1.3,3.1,0,4.7L39.8,50.7l-7.3,2.7l2.7-7.3l20.4-20.5C58.2,23.2,60.3,25.6,60.3,25.6z"/>
		<path class="st1" d="M35.1,46.1l4.7,4.7"/>
		<path class="st1" d="M52.1,29.1l4.7,4.7"/>
	</g>
</g>
</svg>
