<svg width="65" height="66" viewBox="0 0 65 66" fill="none" xmlns="http://www.w3.org/2000/svg">
<path d="M49.8331 14.6391C60.3796 24.3311 61.0767 40.7018 51.3847 51.2483C41.6927 61.7948 25.322 62.4919 14.7755 52.7999C4.22901 43.1079 3.5319 26.7372 13.2014 16.1907C21.814 6.81355 35.9585 5.08203 46.5724 12.098" stroke="#90ABF1" stroke-miterlimit="10"/>
<path d="M38.8367 8.65747L35.9584 11.9181C35.5086 12.4128 34.879 12.7052 34.2269 12.7052H30.3141C29.6844 12.7052 29.0773 13.02 28.695 13.5147L27.3907 15.2912C26.9185 15.9208 26.851 16.7754 27.1884 17.4725L29.2122 21.5427C29.4371 21.9924 29.9768 22.1498 30.4265 21.9249C30.4715 21.9024 30.5165 21.88 30.5614 21.835L32.9226 19.991C33.2374 19.7437 33.6422 19.5863 34.047 19.5638L38.0722 19.3389C38.5669 19.3164 39.0841 19.4289 39.5114 19.6987L41.2654 20.8006C41.895 21.2053 42.2773 21.9024 42.2773 22.6445C42.2773 22.9369 42.3447 23.2292 42.5022 23.4766L44.4361 26.7822C44.8858 27.5692 45.7178 28.0415 46.6398 28.0415H46.6848C47.0446 28.0415 47.4044 27.9515 47.7417 27.7941L50.5301 26.4898C50.8224 26.3549 50.9349 26.0176 50.7999 25.7253C50.7775 25.6803 50.755 25.6578 50.7325 25.6128L50.1478 24.8483C49.9454 24.5784 49.878 24.2186 49.9904 23.9038C50.0579 23.6789 50.3052 23.544 50.5526 23.6115L51.2722 23.8363C51.8568 24.0162 52.3291 24.4435 52.5539 25.0057L54.1955 29.0984C54.3304 29.4357 54.7352 29.6156 55.0725 29.4806C55.14 29.4582 55.2074 29.4132 55.2749 29.3457L57.4786 27.3444" stroke="#90ABF1" stroke-miterlimit="10"/>
<path d="M29.9543 23.5442H33.7771C33.912 23.5442 34.002 23.6341 34.002 23.7691C34.002 23.814 33.9795 23.859 33.957 23.904C33.6871 24.3088 33.7996 24.8709 34.2043 25.1408C34.2718 25.1858 34.3393 25.2082 34.4067 25.2532L36.588 25.9728C37.0602 26.1302 37.5999 25.9728 37.9147 25.568C38.2071 25.1858 38.7468 25.0508 39.1965 25.2757L40.6357 25.9953C40.9505 26.1527 41.2204 26.4001 41.4003 26.7149L42.9969 29.5483C43.4466 30.3353 44.2112 30.8525 45.0882 30.9875L45.5604 31.0549C46.1451 31.1449 46.5273 31.6846 46.4374 32.2692C46.4149 32.3817 46.3924 32.4716 46.3475 32.5841L43.9638 37.3738C43.7389 37.8461 43.649 38.3633 43.7164 38.8805L43.9863 40.9943C44.0762 41.6464 43.9188 42.321 43.5815 42.8832L42.7945 44.165C42.5921 44.5023 42.4796 44.8846 42.5246 45.2893C42.5696 45.7616 42.4572 46.2563 42.2323 46.6835L41.4452 48.1452C41.2429 48.5275 40.9505 48.8423 40.6132 49.1122L38.5669 50.5738C37.8923 51.0685 36.9703 51.0461 36.2957 50.5513L35.3737 49.8542C35.0139 49.5844 34.7216 49.2471 34.5192 48.8648L31.3035 42.9282C30.8538 42.1186 30.8313 41.1292 31.2135 40.2972L31.6633 39.2852C32.0231 38.5207 31.9331 37.5987 31.3934 36.9466C31.1461 36.6542 31.0112 36.272 31.0112 35.8897V35.5299C31.0112 34.9002 30.5164 34.4055 29.8868 34.4055C29.8643 34.4055 29.8643 34.4055 29.8418 34.4055L28.4251 34.473L26.1314 33.7759C25.0296 33.4386 24.175 32.6065 23.7928 31.5272C23.4555 30.5602 23.4779 29.5258 23.8827 28.5813L24.4899 27.1871C24.7597 26.5575 25.2095 26.0403 25.7941 25.6805L28.8299 23.859C29.2122 23.6341 29.572 23.5442 29.9543 23.5442Z" stroke="#90ABF1" stroke-miterlimit="10"/>
<path d="M45.6954 46.5934L45.9877 45.5365C46.1002 45.1093 46.0777 44.637 45.8753 44.2098L45.7179 43.85C45.5605 43.5127 45.6504 43.1304 45.9203 42.883L46.7298 42.1859C46.9097 42.0285 47.0671 41.8486 47.1796 41.6462L47.9891 40.2745C48.0566 40.1621 48.1915 40.1396 48.3039 40.1846C48.3489 40.207 48.3714 40.252 48.3939 40.297L48.8211 41.3989C48.956 41.7587 48.9785 42.1634 48.8886 42.5457L47.1796 48.6622C47.1346 48.8646 46.9322 48.9771 46.7298 48.9096C46.6623 48.8871 46.5949 48.8421 46.5499 48.7747L45.9652 48.0326C45.6504 47.6728 45.538 47.1106 45.6954 46.5934Z" stroke="#90ABF1" stroke-miterlimit="10"/>
<path d="M18.9581 11.491L19.6327 12.2555C20.3523 13.0876 20.7346 14.1445 20.7346 15.2463V15.4262C20.7346 16.4831 20.2174 17.4951 19.3404 18.1022L19.2054 18.1922C18.7107 18.5295 18.3059 18.9567 17.9911 19.4514L15.0228 23.9039C14.5056 24.6685 13.7635 25.2531 12.909 25.568L11.2225 26.1751C10.9301 26.2876 10.7727 26.6024 10.8852 26.8947C10.9301 27.0072 10.9976 27.0971 11.0875 27.1646L12.6392 28.3114C12.8865 28.4913 12.9315 28.8511 12.7516 29.0985C12.7066 29.1659 12.6392 29.2109 12.5717 29.2559L11.1325 30.0654C10.2555 30.5601 9.17613 30.5152 8.36659 29.9305L6.79248 28.8286" stroke="#90ABF1" stroke-miterlimit="10"/>
<path d="M6.77002 34.9676L8.92879 34.293C9.91823 33.9781 10.9751 34.2255 11.7172 34.9451L13.831 36.9914C14.4831 37.6211 15.3377 37.9584 16.2371 37.9584H18.1486C18.7107 37.9584 19.183 38.4081 19.183 38.9928C19.183 39.0827 19.183 39.1727 19.1605 39.2626L19.0031 39.8698C18.7782 40.7018 18.8681 41.5788 19.2279 42.3659L19.8351 43.6252C20.1049 44.1873 19.925 44.8844 19.3854 45.2218L17.8787 46.1437C17.2266 46.5485 16.7768 47.2231 16.6419 47.9877L15.6974 53.7219" stroke="#90ABF1" stroke-miterlimit="10"/>
<path d="M60.1773 19.0918C68.2502 34.4955 62.336 53.5197 46.9323 61.5926C31.5285 69.6655 12.5043 63.7514 4.43143 48.3476C-3.64148 32.9439 2.27266 13.9422 17.6539 5.86928C24.1078 2.47371 31.5285 1.4393 38.6795 2.92346" stroke="#90ABF1" stroke-miterlimit="10"/>
<path d="M60.3796 2.81094L60.0198 2.51861C59.2553 1.86648 58.2208 1.70907 57.2764 2.06886L50.0805 4.96971L47.0897 1.95643C46.1677 1.1244 44.9534 0.674655 43.7166 0.71963C42.5922 0.764604 41.7152 1.68658 41.7602 2.81094C41.7602 2.8784 41.7602 2.94586 41.7827 3.01333C41.9401 4.25012 42.5922 5.37448 43.5817 6.13905L47.3145 8.77005L45.7854 15.6511C45.583 16.6181 45.9203 17.63 46.6849 18.2822L47.0447 18.5745C47.2696 18.7769 47.6069 18.7319 47.8093 18.507C47.8317 18.4845 47.8542 18.4396 47.8767 18.4171L51.3622 11.6484L56.4668 15.2913C56.8716 15.5837 57.029 16.0784 56.8716 16.5506L56.7142 17.0004C56.6243 17.2702 56.7142 17.5626 56.9166 17.7425L57.5912 18.3046C57.7036 18.3946 57.8835 18.3946 57.9735 18.2597C57.996 18.2372 58.0185 18.2147 58.0185 18.1697L58.783 15.8985C58.873 15.6511 59.0529 15.4263 59.2777 15.3138L61.3915 14.1895C61.5265 14.122 61.5714 13.9646 61.504 13.8297C61.4815 13.8072 61.459 13.7622 61.4365 13.7397L60.7619 13.1776C60.537 12.9977 60.2447 12.9527 59.9749 13.0876L59.5476 13.3125C59.1203 13.5373 58.5806 13.4699 58.2433 13.1101L53.7234 8.56767L60.3346 3.59799C60.582 3.4181 60.627 3.08079 60.4471 2.83343C60.4471 2.85592 60.4021 2.83343 60.3796 2.81094Z" stroke="#90ABF1" stroke-miterlimit="10"/>
</svg>
