<svg width="63" height="68" viewBox="0 0 63 68" fill="none" xmlns="http://www.w3.org/2000/svg">
<path d="M6.95605 42.4654V4.02373C6.95605 3.61876 7.03737 3.21775 7.19535 2.84364C7.35333 2.46952 7.58489 2.12963 7.87678 1.84337C8.16867 1.55712 8.51517 1.33013 8.89649 1.17537C9.27781 1.0206 9.68646 0.941101 10.0991 0.941407H50.3605L62.0734 12.4366V64.1815C62.0734 64.9996 61.7422 65.7842 61.1528 66.3626C60.5633 66.9411 59.7639 67.2661 58.9303 67.2661H10.0991C9.26551 67.2661 8.46607 66.9411 7.87663 66.3626C7.2872 65.7842 6.95605 64.9996 6.95605 64.1815V59.7106" stroke="#90ABF1" stroke-miterlimit="10"/>
<path d="M62.0731 12.4367L53.425 12.3831C53.0112 12.381 52.6018 12.2986 52.2205 12.1407C51.8392 11.9828 51.4935 11.7525 51.2032 11.463C50.9128 11.1736 50.6837 10.8306 50.5289 10.454C50.374 10.0773 50.2966 9.67429 50.301 9.26815L50.3603 0.932129L62.0731 12.4367Z" stroke="#90ABF1" stroke-linecap="round" stroke-linejoin="round"/>
<path d="M17.7263 22.3826H50.6737" stroke="#90ABF1" stroke-miterlimit="10"/>
<path d="M18.3555 28.2444H51.3029" stroke="#90ABF1" stroke-miterlimit="10"/>
<path d="M18.3555 34.1038H40.1479" stroke="#90ABF1" stroke-miterlimit="10"/>
<path d="M38.8588 42.4653H3.44495C2.13388 42.4653 1.07104 43.5084 1.07104 44.7951V57.3784C1.07104 58.6651 2.13388 59.7082 3.44495 59.7082H38.8588C40.1699 59.7082 41.2327 58.6651 41.2327 57.3784V44.7951C41.2327 43.5084 40.1699 42.4653 38.8588 42.4653Z" stroke="#90ABF1" stroke-miterlimit="10"/>
<path d="M18.6451 46.4167H19.438V52.5628C19.4518 53.0461 19.3468 53.5256 19.1317 53.9606C18.9481 54.3142 18.658 54.6038 18.3009 54.79C17.9243 54.979 17.5059 55.0735 17.083 55.065C16.6683 55.0719 16.2572 54.9884 15.8795 54.8203C15.5406 54.6684 15.2519 54.4263 15.0462 54.1214C14.8382 53.8089 14.7322 53.4415 14.7424 53.0683H15.5258C15.5208 53.3067 15.5922 53.5405 15.7299 53.737C15.8706 53.9331 16.0624 54.0884 16.2854 54.1866C16.5364 54.2986 16.8097 54.3543 17.0854 54.3497C17.3683 54.3562 17.6481 54.2904 17.8973 54.1587C18.139 54.0234 18.3316 53.8173 18.448 53.5692C18.592 53.2506 18.6602 52.9041 18.6474 52.5558L18.6451 46.4167Z" fill="#90ABF1"/>
<path d="M26.4599 48.5461C26.4418 48.3236 26.3753 48.1076 26.2647 47.9127C26.1541 47.7177 26.0021 47.5484 25.8189 47.4161C25.4049 47.1244 24.9039 46.9761 24.3946 46.9944C24.0284 46.9866 23.6648 47.0566 23.3287 47.1994C23.0438 47.3208 22.7977 47.5156 22.6165 47.7633C22.4434 48.0018 22.3519 48.2882 22.3554 48.581C22.3513 48.787 22.4029 48.9904 22.505 49.1705C22.6051 49.3417 22.741 49.4902 22.9038 49.6061C23.078 49.7298 23.266 49.8338 23.464 49.916C23.6665 50.0009 23.8742 50.0733 24.086 50.1327L25.0023 50.3913C25.2855 50.4684 25.5631 50.5641 25.8332 50.6778C26.105 50.7913 26.3604 50.9394 26.5928 51.1182C26.8233 51.2904 27.0129 51.5098 27.1483 51.7612C27.2954 52.0435 27.3681 52.3575 27.3596 52.6745C27.3654 53.1097 27.2398 53.5369 26.9988 53.9023C26.7431 54.2799 26.3845 54.5794 25.9637 54.7666C25.457 54.9909 24.9052 55.1 24.3495 55.0858C23.8209 55.097 23.2959 54.9986 22.8088 54.7969C22.396 54.6272 22.0369 54.3521 21.7691 54.0001C21.5178 53.6517 21.3721 53.2405 21.3489 52.8143H22.1726C22.192 53.1264 22.3108 53.4246 22.5121 53.667C22.7186 53.906 22.9843 54.0889 23.2836 54.1982C23.6231 54.3213 23.9828 54.3821 24.3447 54.3776C24.7403 54.3855 25.1332 54.3125 25.4985 54.1632C25.8147 54.0383 26.0904 53.8313 26.2961 53.5645C26.4918 53.3054 26.5945 52.9899 26.5881 52.6675C26.5944 52.4059 26.5108 52.1498 26.3507 51.9406C26.1801 51.726 25.9606 51.5536 25.7097 51.4374C25.4044 51.2922 25.0867 51.1737 24.7602 51.0832L23.7204 50.7827C23.1328 50.6333 22.5895 50.35 22.1346 49.9556C21.9494 49.7823 21.8036 49.5725 21.7066 49.3401C21.6097 49.1076 21.5638 48.8577 21.572 48.6066C21.5647 48.175 21.6959 47.7519 21.9471 47.3975C22.2066 47.0416 22.5582 46.7601 22.9655 46.5821C23.4187 46.3811 23.9116 46.2808 24.4088 46.2885C24.8997 46.2811 25.3861 46.3806 25.8332 46.5797C26.2288 46.7574 26.5701 47.0337 26.8231 47.3812C27.0691 47.7225 27.2055 48.1281 27.2148 48.5461H26.4599Z" fill="#90ABF1"/>
</svg>
