<svg width="55" height="70" viewBox="0 0 55 70" fill="none" xmlns="http://www.w3.org/2000/svg">
<path d="M25.833 3.33032H13.5642" stroke="#90ABF1" stroke-miterlimit="10"/>
<path d="M42.7282 3.33032H29.5503" stroke="#90ABF1" stroke-miterlimit="10"/>
<path d="M9.8469 3.33032H3.93287C3.122 3.33032 2.34435 3.65244 1.77098 4.22581C1.1976 4.79918 0.875488 5.57684 0.875488 6.38771V66.031C0.875488 66.8418 1.1976 67.6195 1.77098 68.1929C2.34435 68.7662 3.122 69.0883 3.93287 69.0883H43.1113L54.5078 57.6895V6.38771C54.5078 5.57684 54.1857 4.79918 53.6123 4.22581C53.0389 3.65244 52.2613 3.33032 51.4504 3.33032H46.4455" stroke="#90ABF1" stroke-miterlimit="10"/>
<path d="M54.5078 57.6895L46.0924 57.7425C45.2814 57.748 44.5056 58.0753 43.9358 58.6525C43.366 59.2297 43.0486 60.0096 43.0535 60.8207L43.1112 69.0883L54.5078 57.6895Z" stroke="#90ABF1" stroke-linecap="round" stroke-linejoin="round"/>
<path d="M9.87451 17.8674H34.2575" stroke="#90ABF1" stroke-miterlimit="10"/>
<path d="M9.87451 21.3655H26.0014" stroke="#90ABF1" stroke-miterlimit="10"/>
<path d="M9.87451 29.647H34.2575" stroke="#90ABF1" stroke-miterlimit="10"/>
<path d="M9.87451 33.145H26.0014" stroke="#90ABF1" stroke-miterlimit="10"/>
<path d="M9.84668 41.3596H34.2296" stroke="#90ABF1" stroke-miterlimit="10"/>
<path d="M9.84668 44.8601H25.9758" stroke="#90ABF1" stroke-miterlimit="10"/>
<path d="M46.4477 17.002L43.4711 19.9786L42.1997 18.7072" stroke="#90ABF1" stroke-miterlimit="10"/>
<path d="M45.7532 28.9893H42.8873C42.505 28.9893 42.1951 29.2992 42.1951 29.6815V32.5474C42.1951 32.9297 42.505 33.2396 42.8873 33.2396H45.7532C46.1355 33.2396 46.4454 32.9297 46.4454 32.5474V29.6815C46.4454 29.2992 46.1355 28.9893 45.7532 28.9893Z" stroke="#90ABF1" stroke-miterlimit="10"/>
<path d="M45.7532 40.7595H42.8873C42.505 40.7595 42.1951 41.0694 42.1951 41.4518V44.3176C42.1951 44.6999 42.505 45.0099 42.8873 45.0099H45.7532C46.1355 45.0099 46.4454 44.6999 46.4454 44.3176V41.4518C46.4454 41.0694 46.1355 40.7595 45.7532 40.7595Z" stroke="#90ABF1" stroke-miterlimit="10"/>
<path d="M12.8718 0.923584H10.5389C10.1566 0.923584 9.84668 1.23351 9.84668 1.61582V5.04009C9.84668 5.42241 10.1566 5.73233 10.5389 5.73233H12.8718C13.2541 5.73233 13.564 5.42241 13.564 5.04009V1.61582C13.564 1.23351 13.2541 0.923584 12.8718 0.923584Z" stroke="#90ABF1" stroke-miterlimit="10"/>
<path d="M45.7531 0.923584H43.4203C43.038 0.923584 42.728 1.23351 42.728 1.61582V5.04009C42.728 5.42241 43.038 5.73233 43.4203 5.73233H45.7531C46.1354 5.73233 46.4453 5.42241 46.4453 5.04009V1.61582C46.4453 1.23351 46.1354 0.923584 45.7531 0.923584Z" stroke="#90ABF1" stroke-miterlimit="10"/>
<path d="M28.8578 0.923584H26.525C26.1427 0.923584 25.8328 1.23351 25.8328 1.61582V5.04009C25.8328 5.42241 26.1427 5.73233 26.525 5.73233H28.8578C29.2402 5.73233 29.5501 5.42241 29.5501 5.04009V1.61582C29.5501 1.23351 29.2402 0.923584 28.8578 0.923584Z" stroke="#90ABF1" stroke-miterlimit="10"/>
</svg>
