<svg width="70" height="46" viewBox="0 0 70 46" fill="none" xmlns="http://www.w3.org/2000/svg">
<path d="M32.8245 1.01611H3.72338C2.43679 1.01611 1.3938 2.0591 1.3938 3.34569V13.4561C1.3938 14.7427 2.43679 15.7856 3.72338 15.7856H32.8245C34.1111 15.7856 35.1541 14.7427 35.1541 13.4561V3.34569C35.1541 2.0591 34.1111 1.01611 32.8245 1.01611Z" stroke="#90ABF1" stroke-miterlimit="10"/>
<path d="M8.21924 10.9889V5.39795H8.72942V7.96049H11.8883V5.39795H12.3985V10.9889H11.8883V8.4264H8.71777V10.9889H8.21924Z" fill="#90ABF1"/>
<path d="M13.5447 5.86167V5.39575H17.5935V5.86167H15.823V10.9867H15.3128V5.86167H13.5447Z" fill="#90ABF1"/>
<path d="M18.7397 5.40259H19.3291L21.3559 10.2691H21.4048L23.4315 5.40259H24.0209V10.9936H23.5387V6.48118H23.4967L21.6121 10.9889H21.1462L19.2639 6.48118H19.2196V10.9889H18.7397V5.40259Z" fill="#90ABF1"/>
<path d="M25.5024 10.9889V5.39795H26.0126V10.523H28.6753V10.9889H25.5024Z" fill="#90ABF1"/>
<path d="M59.0532 13.9918V10.7304C59.0507 10.0765 58.7892 9.45023 58.326 8.98871C57.8627 8.52719 57.2354 8.26806 56.5815 8.26807H41.2063" stroke="#90ABF1" stroke-miterlimit="10"/>
<path d="M11.3945 28.5516V25.5092C11.3945 25.1846 11.4585 24.8632 11.5827 24.5633C11.7069 24.2634 11.889 23.9909 12.1185 23.7614C12.348 23.5319 12.6205 23.3498 12.9203 23.2256C13.2202 23.1014 13.5416 23.0375 13.8662 23.0375H56.5814C56.906 23.0375 57.2274 22.9736 57.5273 22.8493C57.8271 22.7251 58.0996 22.5431 58.3291 22.3135C58.5586 22.084 58.7407 21.8116 58.8649 21.5117C58.9891 21.2118 59.0531 20.8904 59.0531 20.5658V17.5374" stroke="#90ABF1" stroke-miterlimit="10"/>
<path d="M29.2461 37.8072H13.8709C13.2153 37.8072 12.5866 37.5468 12.1231 37.0833C11.6596 36.6197 11.3992 35.991 11.3992 35.3355V32.2954" stroke="#90ABF1" stroke-miterlimit="10"/>
<path d="M59.0532 17.6586C60.0876 17.6586 60.9261 16.82 60.9261 15.7856C60.9261 14.7512 60.0876 13.9126 59.0532 13.9126C58.0187 13.9126 57.1802 14.7512 57.1802 15.7856C57.1802 16.82 58.0187 17.6586 59.0532 17.6586Z" stroke="#90ABF1" stroke-miterlimit="10"/>
<path d="M11.3945 32.2953C12.4289 32.2953 13.2674 31.4567 13.2674 30.4223C13.2674 29.3879 12.4289 28.5493 11.3945 28.5493C10.36 28.5493 9.52148 29.3879 9.52148 30.4223C9.52148 31.4567 10.36 32.2953 11.3945 32.2953Z" stroke="#90ABF1" stroke-miterlimit="10"/>
<path d="M66.5823 30.4224H37.4812C36.1946 30.4224 35.1516 31.4654 35.1516 32.7519V42.8623C35.1516 44.1489 36.1946 45.1919 37.4812 45.1919H66.5823C67.8689 45.1919 68.9119 44.1489 68.9119 42.8623V32.7519C68.9119 31.4654 67.8689 30.4224 66.5823 30.4224Z" stroke="#90ABF1" stroke-miterlimit="10"/>
<path d="M49.5275 36.5537H49.015C48.9781 36.3668 48.9087 36.1878 48.81 36.0249C48.6071 35.6937 48.296 35.4427 47.9294 35.3143C47.7327 35.2451 47.5254 35.2104 47.3168 35.2118C46.9752 35.2086 46.6401 35.305 46.3523 35.4891C46.0472 35.6865 45.8048 35.967 45.6534 36.2974C45.4812 36.7116 45.3925 37.1557 45.3925 37.6043C45.3925 38.0529 45.4812 38.497 45.6534 38.9112C45.8056 39.2405 46.0479 39.52 46.3523 39.7172C46.6407 39.8995 46.9756 39.995 47.3168 39.9921C47.5254 39.9936 47.7327 39.9589 47.9294 39.8896C48.1135 39.8252 48.2853 39.7299 48.4373 39.6078C48.5849 39.4879 48.7109 39.3437 48.81 39.1814C48.909 39.0178 48.9784 38.838 49.015 38.6503H49.5275C49.4842 38.9014 49.3983 39.1433 49.2736 39.3655C49.1524 39.5839 48.9948 39.7801 48.8077 39.9455C48.6121 40.113 48.388 40.244 48.1461 40.3323C47.8834 40.4277 47.6056 40.475 47.3261 40.472C46.8834 40.4792 46.4483 40.3561 46.0751 40.1179C45.7028 39.8717 45.4067 39.5263 45.2201 39.1209C45.0184 38.6415 44.9146 38.1267 44.9146 37.6066C44.9146 37.0866 45.0184 36.5718 45.2201 36.0924C45.4067 35.687 45.7028 35.3416 46.0751 35.0954C46.4483 34.8572 46.8834 34.7341 47.3261 34.7413C47.6056 34.7383 47.8834 34.7856 48.1461 34.881C48.3889 34.9675 48.6133 35.0986 48.8077 35.2677C49.1939 35.6017 49.4517 36.0596 49.5369 36.563L49.5275 36.5537Z" fill="#90ABF1"/>
<path d="M53.7603 36.2067C53.7496 36.0603 53.7072 35.9181 53.636 35.7897C53.5648 35.6614 53.4665 35.5501 53.348 35.4636C53.0811 35.2725 52.7581 35.1758 52.4301 35.1887C52.1942 35.1839 51.96 35.2291 51.7429 35.3215C51.5569 35.4005 51.3959 35.5285 51.277 35.6919C51.1653 35.848 51.1065 36.0358 51.1093 36.2277C51.1065 36.3628 51.1394 36.4962 51.2048 36.6144C51.2698 36.7264 51.358 36.8233 51.4634 36.8986C51.5752 36.981 51.6964 37.0498 51.8244 37.1036C51.9543 37.1589 52.0873 37.2064 52.2228 37.2457L52.8122 37.4134C52.9943 37.4635 53.1726 37.5265 53.3457 37.6021C53.5208 37.6768 53.6859 37.773 53.8372 37.8887C53.9831 38.0048 54.1043 38.149 54.1936 38.3127C54.2885 38.4976 54.335 38.7036 54.3287 38.9114C54.3329 39.1965 54.2518 39.4764 54.0958 39.7151C53.9328 39.963 53.7025 40.1594 53.4318 40.2812C52.7843 40.5542 52.0552 40.5609 51.4028 40.2998C51.1391 40.1878 50.9105 40.0067 50.7412 39.7756C50.5803 39.5466 50.4867 39.277 50.4709 38.9976H50.9951C51.0069 39.2024 51.0836 39.3983 51.2141 39.5567C51.3468 39.7137 51.5177 39.8341 51.7103 39.9061C51.9284 39.988 52.1599 40.0283 52.3929 40.0249C52.6477 40.0296 52.9008 39.9812 53.136 39.8828C53.3366 39.8024 53.5126 39.6706 53.6462 39.5007C53.7708 39.3298 53.8362 39.1229 53.8325 38.9114C53.8363 38.7441 53.7847 38.5804 53.6858 38.4454C53.5754 38.3079 53.4352 38.1971 53.2758 38.1216C53.0792 38.027 52.875 37.9491 52.6654 37.8887L51.9968 37.693C51.6192 37.5938 51.2698 37.4079 50.9765 37.1502C50.8541 37.0335 50.7587 36.8916 50.6967 36.7343C50.6348 36.577 50.6078 36.4081 50.6177 36.2393C50.61 35.9574 50.6916 35.6802 50.8507 35.4473C51.0177 35.2145 51.2436 35.0304 51.5053 34.9138C51.7978 34.7814 52.116 34.7153 52.4371 34.7204C52.7543 34.7137 53.069 34.779 53.3573 34.9115C53.6115 35.0285 53.8313 35.209 53.9956 35.4356C54.1528 35.6591 54.2404 35.9242 54.2472 36.1974L53.7603 36.2067Z" fill="#90ABF1"/>
<path d="M58.5941 36.2068C58.5834 36.0604 58.541 35.9181 58.4698 35.7898C58.3986 35.6615 58.3003 35.5502 58.1817 35.4637C57.9147 35.2729 57.5918 35.1762 57.2639 35.1888C57.028 35.1839 56.7937 35.2292 56.5766 35.3216C56.3903 35.3999 56.2291 35.5281 56.1107 35.692C55.9991 35.8481 55.9403 36.0358 55.943 36.2278C55.9402 36.3628 55.9731 36.4962 56.0385 36.6145C56.1022 36.7275 56.1906 36.8247 56.2971 36.8987C56.4084 36.9806 56.5288 37.0494 56.6558 37.1037C56.7866 37.1586 56.9204 37.2061 57.0565 37.2458L57.6459 37.4135C57.8279 37.4639 58.0062 37.527 58.1794 37.6022C58.3541 37.6763 58.5185 37.7726 58.6686 37.8887C58.816 38.004 58.9381 38.1483 59.0274 38.3127C59.1212 38.498 59.1677 38.7038 59.1625 38.9114C59.1655 39.1964 59.0845 39.476 58.9295 39.7151C58.7662 39.9637 58.5349 40.1602 58.2633 40.2812C57.6157 40.5543 56.8866 40.5609 56.2342 40.2999C55.9715 40.1872 55.7439 40.0062 55.5749 39.7757C55.4131 39.5471 55.3194 39.2773 55.3047 38.9976H55.8288C55.8406 39.2025 55.9173 39.3983 56.0478 39.5567C56.1794 39.715 56.3507 39.8356 56.544 39.9062C56.7614 39.9878 56.9921 40.0281 57.2243 40.025C57.4792 40.0301 57.7323 39.9817 57.9674 39.8829C58.1707 39.8015 58.3479 39.6662 58.4799 39.4915C58.6063 39.3213 58.6727 39.114 58.6686 38.9021C58.6725 38.7345 58.62 38.5704 58.5195 38.4362C58.4096 38.2981 58.2693 38.1873 58.1095 38.1124C57.9139 38.0174 57.7105 37.9395 57.5015 37.8794L56.8329 37.6837C56.4552 37.5845 56.1059 37.3987 55.8125 37.141C55.6927 37.0275 55.5984 36.89 55.5357 36.7374C55.4731 36.5848 55.4436 36.4206 55.4491 36.2557C55.4414 35.9738 55.523 35.6966 55.6821 35.4637C55.8485 35.2304 56.0746 35.0461 56.3367 34.9302C56.6292 34.7976 56.9474 34.7316 57.2685 34.7368C57.5897 34.7283 57.9085 34.7936 58.2004 34.9279C58.4546 35.0449 58.6744 35.2254 58.8387 35.452C58.9952 35.6759 59.0826 35.9407 59.0903 36.2138L58.5941 36.2068Z" fill="#90ABF1"/>
</svg>
