<svg width="66" height="50" viewBox="0 0 66 50" fill="none" xmlns="http://www.w3.org/2000/svg">
<path d="M26.3596 3.66811V2.63791C26.3596 1.6525 27.1659 0.868652 28.1289 0.868652H29.8757C30.8611 0.868652 31.645 1.6749 31.645 2.63791V3.66811" stroke="#90ABF1" stroke-miterlimit="10"/>
<path d="M9.89893 9.71486V7.85602C9.89893 6.44509 11.0411 5.28052 12.4744 5.28052H12.7432C14.1541 5.28052 15.3187 6.4227 15.3187 7.85602V9.71486" stroke="#90ABF1" stroke-miterlimit="10"/>
<path d="M1.83643 20.3977V15.9409C1.83643 14.418 3.06819 13.1863 4.59109 13.1863H5.41973" stroke="#90ABF1" stroke-miterlimit="10"/>
<path d="M65.0817 46.2199C64.5666 47.9444 62.9765 49.1313 61.1625 49.1313H4.81499C3.00094 49.1089 1.41085 47.922 0.895752 46.1975" stroke="#90ABF1" stroke-miterlimit="10"/>
<path d="M4.16553 19.121L5.57645 12.4471C5.91239 10.857 7.30092 9.71484 8.91341 9.71484H61.1625C63.4468 9.73724 65.2833 11.5961 65.2609 13.8804V19.121" stroke="#90ABF1" stroke-miterlimit="10"/>
<path d="M34.8253 9.71504H19.4619L20.9848 5.45987C21.3655 4.38487 22.3733 3.66821 23.5155 3.66821H38.9909V4.13852" stroke="#90ABF1" stroke-miterlimit="10"/>
<path d="M34.8252 9.71494L39.909 2.77228C40.7824 1.58531 42.171 0.868652 43.6715 0.868652H53.6823C55.1604 0.868652 56.549 1.58531 57.4224 2.77228L62.7974 10.0509" stroke="#90ABF1" stroke-miterlimit="10"/>
<path d="M55.7427 40.3522C58.251 41.0912 59.9755 43.398 59.9531 45.9959V46.1974H64.7681C64.9473 46.1974 65.0817 46.0855 65.1041 45.9063L65.2384 45.1224V19.1211H59.7963V19.3674C59.7963 21.7638 58.3406 23.9138 56.101 24.7872" stroke="#90ABF1" stroke-miterlimit="10"/>
<path d="M36.9529 24.3841C35.1837 23.3315 34.1087 21.4278 34.1087 19.3674V19.1211H4.77038C2.53081 19.1435 0.716765 20.9575 0.739161 23.1971V44.7865C0.69437 45.2568 0.761557 45.7495 0.895931 46.1974H34.1087V45.9959C34.1087 43.7787 35.3404 41.7407 37.3337 40.7329" stroke="#90ABF1" stroke-miterlimit="10"/>
<path d="M46.3814 40.3074C50.7105 40.3074 54.2199 36.7479 54.2199 32.357C54.2199 27.966 50.7105 24.4065 46.3814 24.4065C42.0524 24.4065 38.543 27.966 38.543 32.357C38.543 36.7479 42.0524 40.3074 46.3814 40.3074Z" stroke="#90ABF1" stroke-miterlimit="10"/>
<path d="M46.3815 19.9275C39.5956 19.9275 34.1086 25.4816 34.1086 32.3571C34.1086 39.2325 39.5956 44.7867 46.3815 44.7867C53.1673 44.7867 58.6543 39.2325 58.6543 32.3571C58.6543 25.4816 53.145 19.9275 46.3815 19.9275ZM46.3815 38.8294C42.7982 38.8742 39.8419 36.0076 39.7971 32.4243C39.7523 28.841 42.619 25.8847 46.2023 25.8399C49.7856 25.7952 52.7418 28.6618 52.7866 32.2451C52.7866 32.2675 52.7866 32.3123 52.7866 32.3347C52.809 35.918 49.9424 38.807 46.3815 38.8294Z" stroke="#90ABF1" stroke-miterlimit="10"/>
<path d="M52.4507 7.54257H44.4554C43.9179 7.54257 43.4924 7.09465 43.4924 6.55716C43.4924 6.44518 43.5148 6.31081 43.5596 6.19883L44.0971 4.76551C44.2315 4.38478 44.5898 4.13843 44.9929 4.13843H51.8908C52.2939 4.13843 52.6747 4.38478 52.809 4.76551L53.3689 6.22122C53.5705 6.73632 53.3017 7.29621 52.809 7.49778C52.6747 7.52017 52.5627 7.54257 52.4507 7.54257Z" stroke="#90ABF1" stroke-miterlimit="10"/>
</svg>
