<svg width="70" height="50" viewBox="0 0 70 50" fill="none" xmlns="http://www.w3.org/2000/svg">
<path d="M0.665771 41.4412H69.4172V43.1854C69.4172 44.6517 68.8237 46.0579 67.7673 47.0947C66.7108 48.1315 65.278 48.7139 63.784 48.7139H6.29896C4.80494 48.7139 3.37212 48.1315 2.31569 47.0947C1.25927 46.0579 0.665771 44.6517 0.665771 43.1854V41.4412Z" stroke="#90ABF1" stroke-miterlimit="10"/>
<path d="M43.6121 41.4412C43.6121 42.2256 43.2946 42.9778 42.7295 43.5325C42.1643 44.0871 41.3978 44.3987 40.5986 44.3987H29.3346C28.5353 44.3987 27.7688 44.0871 27.2037 43.5325C26.6385 42.9778 26.321 42.2256 26.321 41.4412" stroke="#90ABF1" stroke-miterlimit="10"/>
<path d="M66.1188 41.4412V4.18073C66.1188 3.8267 66.0477 3.47614 65.9096 3.14909C65.7715 2.82204 65.569 2.52491 65.3139 2.27468C65.0587 2.02445 64.7557 1.82603 64.4224 1.69076C64.089 1.55549 63.7318 1.48602 63.371 1.48633H6.48394C6.123 1.48633 5.76561 1.55617 5.43222 1.69187C5.09882 1.82757 4.79596 2.02645 4.54096 2.27715C4.28596 2.52784 4.08384 2.82542 3.94615 3.15285C3.80846 3.48029 3.73791 3.83116 3.73853 4.18538V41.4459" stroke="#90ABF1" stroke-miterlimit="10"/>
<path d="M34.6 37.3683C38.1397 37.3683 41.0091 30.3274 41.0091 21.642C41.0091 12.9567 38.1397 5.91577 34.6 5.91577C31.0604 5.91577 28.1909 12.9567 28.1909 21.642C28.1909 30.3274 31.0604 37.3683 34.6 37.3683Z" stroke="#90ABF1" stroke-miterlimit="10"/>
<path d="M48.5184 29.5055C50.2883 26.497 45.51 20.5377 37.8458 16.195C30.1817 11.8523 22.534 10.7708 20.7641 13.7792C18.9943 16.7877 23.7726 22.747 31.4367 27.0897C39.1009 31.4324 46.7486 32.514 48.5184 29.5055Z" stroke="#90ABF1" stroke-miterlimit="10"/>
<path d="M37.8993 27.0862C45.5634 22.7435 50.3417 16.7842 48.5719 13.7758C46.8021 10.7673 39.1543 11.8489 31.4902 16.1916C23.8261 20.5342 19.0478 26.4935 20.8176 29.502C22.5874 32.5105 30.2352 31.4289 37.8993 27.0862Z" stroke="#90ABF1" stroke-miterlimit="10"/>
</svg>
