<svg xmlns="http://www.w3.org/2000/svg" viewBox="0 0 300 300"><defs><style>.cls-1{fill:#b9322f;}.cls-2{fill:#985e30;}.cls-3{fill:#466f41;}.cls-4{fill:#d14f38;}.cls-5{fill:#d97a60;}.cls-6{fill:#dd8a37;}.cls-7{fill:#f5eb66;}.cls-8{fill:#83b952;}.cls-9{fill:#51944f;}.cls-10{fill:#a2c64e;}.cls-11{fill:#69ab53;}.cls-12{fill:#fefdfd;}</style></defs><title>fp</title><g id="яблоко"><path class="cls-1" d="M248.19,93c25.92,24.74,30.71,55.12,21.95,88.11-11,41.32-37.43,69.76-76.73,86.1-12.46,5.18-25.56,8.83-39.4,5.81-6.24-1.36-11.68-4.79-17.48-7.25-7.86-3.34-16-5-24.37-3.54C90.38,266,73,257.69,59.36,241.77c-27.67-32.28-38.17-69.9-31.64-111.88,4.13-26.57,17.21-48,40.4-62.22C90.48,54,113.79,54.06,137.29,65.16c3.15,1.49,6.45,2.65,9.68,4l-.06,4c-3.33-.08-5.87-2.18-8.73-3.45-13.31-5.92-26.76-10-41.81-7.82C81.86,64,69.06,69.34,58.56,79.19,40.06,96.58,31.07,118.54,30,143.75A133.3,133.3,0,0,0,40.09,201c6.34,15.34,14.27,29.55,26.59,41,14,14.71,33.1,20.52,47.28,14.38a7.21,7.21,0,0,0-4-2.32c-.44-1-1.23-1.06-2.14-.84H105c-.7-1.55-2.26-1.2-3.47-1.51a62.67,62.67,0,0,1-29.73-17.26c-6.69-6.79-12.84-13.87-16.89-22.57-.91-2-4.45-3.78-2.35-5.78,1.65-1.57,4.91,0,7.2,1.35.29.17.51.44.8.59,9.13,4.73,16.34,12.42,26.75,15.4,8,2.31,15.56,5.71,24.12,6.9a159.54,159.54,0,0,0,40.6.64,86.56,86.56,0,0,0,45.55-19.14,13.33,13.33,0,0,0,4.47-6.45c1.27-4,3.23-7.49,7.25-9.65a13.67,13.67,0,0,0,5.79-6c4-8.32,8-16.63,11.82-25,4-8.93,4.65-19.28,11.58-27,1.2-1.34.15-4.62,2.47-4.94,2.55-.36,1.66,3.23,3.37,4.31,1.05.67,1.65,2.33,3.29,1.6a2.09,2.09,0,0,0,1.13-2.52c-1-4.53-1.61-9.2-4.52-13-1.66-2.19-3.5-4.47-6.32.26-.69-5.86-3.94-9.19-6.66-12.92-1.52-2.09-2.71-3.25-5.44-3.28-10.23-.09-20-2.59-29.49-6.21-3-1.12-5.89-3.34-9.43-1.83-.53-2.36-1.83-1.89-3.26-.87-3.69,2.65-7.89,2.91-12.27,3.15s-5.48-1.61-4.92-5.42a5.76,5.76,0,0,1,3.4-3.21,24.39,24.39,0,0,1,16.86.82c8,3.19,16.14,6.23,24.78,7.16,9.12,1,18.21,1,26.3-4.46l1.19-.38c.49.2.78,0,.88-.47l1.93-.7C244.21,95.38,246.24,94.39,248.19,93ZM121.05,256.49c9.47.66,17.9,4.4,26.12,8.88A33.43,33.43,0,0,0,163,269.08c12,.19,23-3.73,33.64-8.27,40.65-17.35,77.22-65.94,71.49-115.78-1.91-16.61-7.6-31.14-18.58-43.65-1.61-1.82-3.28-3.45-5.91-1.4-2.94,2.28-.86,4.08.55,5.81a68.09,68.09,0,0,1,15,32.63,107.58,107.58,0,0,1,.74,28.72,96,96,0,0,1-16.19,44.45,123.88,123.88,0,0,1-45.59,41.35c-17.16,9-34.83,12.95-53.51,4.86C137,254.48,129.2,254.24,121.05,256.49Zm57.68-9.57c5.44.48,9.61-2.4,13.69-5.16,1.93-1.29,3.31-3.69,2.19-6.08s-3.81-3.21-6.39-2.61A53.24,53.24,0,0,0,176.53,237c-3.11,1.52-4.84,3.91-4.25,7C172.91,247.28,176.12,247,178.73,246.92Z"/><path class="cls-2" d="M166.4,95.86c-.56,3.81.53,5.67,4.92,5.42s8.58-.5,12.27-3.15c1.43-1,2.73-1.49,3.26.87l.05,0-1,1h0l-1.23,1-2.59,1-1.39,1a1.3,1.3,0,0,0-.65,0l-1.34.9-2.63.12c-3.44.91-6.84-2.13-10.29-.07l-1.61,0a2.47,2.47,0,0,0-2.36-.9l-1.66,0a2.32,2.32,0,0,0-2.34-.88c-10.59-3-21.17-6.07-28.74-14.91.15-1.13-.1-2.83.53-3.25,1.45-1,2.14.88,3.11,1.6,1.32,1,2.55,2.07,3.87,3,2.83,2.1,6.1,6.11,9,4.58,3.18-1.67,1-6.62,1.27-10.14l.18-7.12c1.23-1,1-1.89-.13-2.76h0l.06-4c1.85-6.16,2.36-12.62,4.61-18.7a61.46,61.46,0,0,1,9.86-17.73c3.63-4.45,7.55-8.29,13.91-6.29,6.58,2.08,9.69,7.28,10.78,13.7.77,4.54-.15,8-5.26,10.33C173,54,168.35,61.15,166.51,69.16c-.93,4.08,3.64,2.48,6.18,2-.23,2.85-.49,5.69-2.92,7.72-.14-1.68.49-3.83-2.39-3.81-1.54,0-3.23.06-3.25,2,0,2.84-1.19,5.87,1,8.44-.16,1.82-2.1,2.46-2.68,3.95-1,2.5-1.26,5.45,0,7.56S164.82,95.63,166.4,95.86Zm9.34-64.61c-4.27-2.4-7.61-.85-10.41,2.56-6,7.33-9.53,15.87-12.34,24.82-3.2,10.2-3.15,20.51-1.7,30.91.25,1.85.76,4.56,3.37,4,2.07-.44,1.33-3,.86-4.32-1.43-4.2-.57-8.29.33-12.29,2.49-11,4.72-22.11,13.13-30.62,2-2,3.83-2.78,6.63-1.62,1.66.69,4,2.38,5.45.17a5.25,5.25,0,0,0-.47-6.8C180.53,34.69,178.39,32.79,175.74,31.25Z"/><path class="cls-3" d="M169.77,78.84c2.43-2,2.69-4.87,2.92-7.72a53,53,0,0,1,66.85-27c4.66,1.75,9.14,4,13.82,5.71,5.11,1.86,10.45,2.45,15.64.41,3.47-1.36,4.11-.13,3.63,3-2.51,16.41-10.69,29.09-24.84,37.88-2,1.19-4.9.87-6,3.54l-1.93.69-.88.48-1.19.38c-5.53.92-11,2.2-16.6,2.7-11.1,1-21.16-3.1-31.37-6.75-6.48-2.31-13.48-5.27-20,.53a5.76,5.76,0,0,0-3.4,3.21c-1.58-.23-2.76,3.23-4,1.16s-.93-5.06,0-7.56c.58-1.49,2.52-2.13,2.68-3.95L166.86,84a1.42,1.42,0,0,0,1.08-1.83l.06-.1a1.52,1.52,0,0,0,1.07-1.85ZM194,68.14v0c3.21-.44,6.09-1.85,9.05-3l7.79-2c1.88.84,4.68-1.65,5.88,1.64A83.29,83.29,0,0,0,196.91,71a2.81,2.81,0,0,0-2.26,1.09c-1.15.06-1.64.81-1.88,1.81-3.66.47-6.56,2.71-9.8,4.18l-8.57,7.12c8.06,0,14.75,3.4,21.45,6.44a51.9,51.9,0,0,0,28,4.59c19.37-2.12,39.43-18.56,44.38-37.28.28-1.07,1.16-2.21-.52-2.91a3.73,3.73,0,0,0-3-1.49c-9,.18-16.58-4.19-24.67-7-18.33-6.37-35.52-5-51,7.76-8.57,6.24-13.93,14.49-16.29,26.21,5.09-3.56,9.21-6.46,13.33-9.35l3.69-2.25c1.27.21,2.5.34,3.32-1Z"/><path class="cls-2" d="M241.74,94.62c1.15-2.67,4-2.35,6-3.54.13.65.26,1.3.4,2C246.24,94.39,244.21,95.38,241.74,94.62Z"/><path class="cls-4" d="M160.15,103l1.67,0a2.15,2.15,0,0,0,2.35.9l1.61,0a11.19,11.19,0,0,0,10.29.07l2.64-.12L180,103a1.3,1.3,0,0,1,.65,0c.47-.31.93-.63,1.39-1l2.59-1,1.23-1h0l1-1-.05,0c3.54-1.51,6.46.71,9.43,1.83,9.52,3.62,19.26,6.12,29.49,6.21,2.73,0,3.92,1.19,5.44,3.28,2.72,3.73,6,7.06,6.66,12.92,2.82-4.73,4.66-2.45,6.32-.26,2.91,3.83,3.54,8.5,4.52,13a2.09,2.09,0,0,1-1.13,2.52c-1.64.73-2.24-.93-3.29-1.6-1.71-1.08-.82-4.67-3.37-4.31-2.32.32-1.27,3.6-2.47,4.94-6.93,7.74-7.56,18.09-11.58,27-3.8,8.41-7.82,16.72-11.82,25a13.67,13.67,0,0,1-5.79,6c-4,2.16-6,5.65-7.25,9.65a13.33,13.33,0,0,1-4.47,6.45A86.56,86.56,0,0,1,152,230.91a159.54,159.54,0,0,1-40.6-.64c-8.56-1.19-16.09-4.59-24.12-6.9-10.41-3-17.62-10.67-26.75-15.4-.29-.15-.51-.42-.8-.59-2.29-1.37-5.55-2.92-7.2-1.35-2.1,2,1.44,3.81,2.35,5.78,4.05,8.7,10.2,15.78,16.89,22.57a62.67,62.67,0,0,0,29.73,17.26c1.21.31,2.77,0,3.47,1.51-.59.22-1.23.74-1.76.64A70.24,70.24,0,0,1,76.12,242c-4-2.83-6.23-3-9.44-.1-12.32-11.41-20.25-25.62-26.59-41A133.3,133.3,0,0,1,30,143.75c1.05-25.21,10-47.17,28.54-64.56C69.06,69.34,81.86,64,96.37,61.87c15-2.16,28.5,1.9,41.81,7.82,2.86,1.27,5.4,3.37,8.73,3.45h0c0,.92.09,1.84.13,2.76L146.87,83c-4.77,1.47-8.08-2.16-12.06-3.43-2.43-.78-4.57-.64-6.23,1.56s-1.84,4.19.49,6c7.57,8.84,18.15,11.89,28.74,14.91A2.37,2.37,0,0,0,160.15,103ZM88.93,138c10,3,20,4.67,30,0,4.79,4.73,9.9,6.1,16.2,2.54,3.26-1.83,3.44-6,6.86-7.42,2.31-.22,5.42,1,5.89-2.77.28-2.29-1.28-3.66-3.41-4.21A12,12,0,0,0,142,126c-4.12-4.52-7.55-9.66-12.37-13.55-7.14-5.75-13.48-12-16.27-21.22C112.65,88.92,112.05,86,109,85c-.35-2.19-2.2-2.51-3.86-3.08-2.68-2.34-5.35-4.7-8-7-.82-.72-1.79-.48-2.8-.49-10.64-.09-18.83,5.49-26.63,11.66-6.09,4.82-11.92,10.11-6.9,19.15a5.34,5.34,0,0,1,.18,2.45c0,9.14,1.42,10.87,10.47,12.39,1.19.2,2,.15,2.09,1.94.2,6.91,4,11.45,11.34,14.07l2.06.19A1.83,1.83,0,0,0,88.93,138ZM194.06,132a12.6,12.6,0,0,0,9.61-2.36c3.1-2.16,2.86-4.85-.63-6.37-4.73-2-9.37-1.36-13.91.82A3.69,3.69,0,0,0,187,128.1a4,4,0,0,0,3.34,3.8A18.3,18.3,0,0,0,194.06,132ZM66,136c-2.31.09-2.89,2.13-3,4.41-.11,2.09.75,3.74,3.07,3.62,2.83-.14,4-2.07,4-4.73C70,137,68.74,136,66,136ZM105.36,70c-1.61.13-3.35.59-3.27,2.73s1.79,2.59,3.61,2.52c1.63-.07,3.09-.68,3.18-2.49C109,70.61,107.34,70.11,105.36,70Z"/><path class="cls-5" d="M121.05,256.49c8.15-2.25,15.9-2,23.55,1.31,18.68,8.09,36.35,4.18,53.51-4.86a123.88,123.88,0,0,0,45.59-41.35,96,96,0,0,0,16.19-44.45,107.58,107.58,0,0,0-.74-28.72,68.09,68.09,0,0,0-15-32.63c-1.41-1.73-3.49-3.53-.55-5.81,2.63-2,4.3-.42,5.91,1.4,11,12.51,16.67,27,18.58,43.65,5.73,49.84-30.84,98.43-71.49,115.78C186,265.35,175,269.27,163,269.08a33.43,33.43,0,0,1-15.83-3.71C139,260.89,130.52,257.15,121.05,256.49Z"/><path class="cls-5" d="M66.68,241.94c3.21-2.95,5.4-2.73,9.44.1a70.24,70.24,0,0,0,27.08,11.75c.53.1,1.17-.42,1.76-.64h2.81a2.32,2.32,0,0,0,2.14.85,7.21,7.21,0,0,1,4,2.32C99.78,262.46,80.69,256.65,66.68,241.94Z"/><path class="cls-4" d="M178.73,246.92c-2.61.11-5.82.36-6.45-2.94-.59-3.08,1.14-5.47,4.25-7a53.24,53.24,0,0,1,11.69-3.92c2.58-.6,5.21.1,6.39,2.61s-.26,4.79-2.19,6.08C188.34,244.52,184.17,247.4,178.73,246.92Z"/><path class="cls-2" d="M169.8,92.65c6.49-5.8,13.49-2.84,20-.53C200,95.77,210,99.86,221.14,98.87c5.57-.5,11.07-1.78,16.6-2.7-8.09,5.46-17.18,5.44-26.3,4.46-8.64-.93-16.74-4-24.78-7.16A24.39,24.39,0,0,0,169.8,92.65Z"/><path class="cls-4" d="M109.91,254a2.32,2.32,0,0,1-2.14-.85C108.68,252.94,109.47,253,109.91,254Z"/><path class="cls-2" d="M238.93,95.79l.88-.48C239.71,95.84,239.42,96,238.93,95.79Z"/><path class="cls-6" d="M180.59,38.06a5.25,5.25,0,0,1,.47,6.8c-1.46,2.21-3.79.52-5.45-.17-2.8-1.16-4.65-.38-6.63,1.62-8.41,8.51-10.64,19.64-13.13,30.62-.9,4-1.76,8.09-.33,12.29.47,1.36,1.21,3.88-.86,4.32-2.61.56-3.12-2.15-3.37-4-1.45-10.4-1.5-20.71,1.7-30.91,2.81-9,6.33-17.49,12.34-24.82,2.8-3.41,6.14-5,10.41-2.56-.82,0-1.65,0-2.47,0-3.35.18-5.54,2-5,5.31s3.15,3.63,6.11,2.72A59.32,59.32,0,0,1,180.59,38.06Z"/><path class="cls-1" d="M129.07,87.18c-2.33-1.84-2.11-3.87-.49-6s3.8-2.34,6.23-1.56c4,1.27,7.29,4.9,12.06,3.43-.26,3.52,1.91,8.47-1.27,10.14-2.92,1.53-6.19-2.48-9-4.58-1.32-1-2.55-2.07-3.87-3-1-.72-1.66-2.59-3.11-1.6C129,84.35,129.22,86.05,129.07,87.18Z"/><path class="cls-7" d="M180.59,38.06a59.32,59.32,0,0,0-6.24,1.23c-3,.91-5.6.69-6.11-2.72s1.68-5.13,5-5.31c.82-.05,1.65,0,2.47,0C178.39,32.79,180.53,34.69,180.59,38.06Z"/><path class="cls-4" d="M166.86,84l-1.69,1.51c-2.23-2.57-1.08-5.6-1-8.44,0-2,1.71-2,3.25-2,2.88,0,2.25,2.13,2.39,3.81l-.7,1.38c-1,.24-1.19,1-1.07,1.85l-.06.1A1.54,1.54,0,0,0,166.86,84Z"/><path class="cls-1" d="M176.07,104a11.19,11.19,0,0,1-10.29-.07C169.23,101.88,172.63,104.92,176.07,104Z"/><path class="cls-1" d="M147.05,75.9c0-.92-.09-1.84-.13-2.76C148,74,148.28,74.93,147.05,75.9Z"/><path class="cls-1" d="M160.15,103a2.37,2.37,0,0,1-2.34-.88A2.32,2.32,0,0,1,160.15,103Z"/><path class="cls-1" d="M164.17,103.91a2.15,2.15,0,0,1-2.35-.9A2.46,2.46,0,0,1,164.17,103.91Z"/><path class="cls-1" d="M180,103l-1.33.9Z"/><path class="cls-1" d="M182.08,102c-.46.32-.92.64-1.39,1C181.16,102.66,181.62,102.34,182.08,102Z"/><path class="cls-1" d="M186.9,99l-1,1Z"/><path class="cls-1" d="M185.9,100l-1.23,1Z"/><path class="cls-8" d="M183,78.07c3.24-1.47,6.14-3.71,9.8-4.17,8.45,1.23,15.43,6.39,23.4,9-4-4.82-10.23-5.66-15.23-8.65a53.43,53.43,0,0,1,21.7-3.64c-.66-2-3.16-2-2.82-4.28A5.47,5.47,0,0,1,224,67.65c7.9,6,13-3.1,19.63-3.6a7.63,7.63,0,0,0,.29-1.87,1.28,1.28,0,0,0,.15-.47c0-.12-.15-.34-.24-.35q-10.41-.16-20.84-.3c3.92-1.88,8.09-.73,12.14-.87,3.28-.12,3.57-2.88,4.28-4.66.86-2.16-1.74-2.28-3.19-2.76-6.06-2-11.59.78-17.27,8.48-1.42.81-1.1-1.25-2-1.25a24.39,24.39,0,0,1,6-5.84c1.52-1,4.5-1.26,3.66-3.83-.62-1.9-3.22-1.76-5.12-2.21-6.6-1.59-10.76,3-15.6,5.94-.7-1.13-1.31-.8-1.9.11l0,0-1,1h0c-5.88,3.61-11.12,7.79-13.25,14.76L186,72.16a4.5,4.5,0,0,1-.08-6.32c3-3.11,3.28-6.67,3-10.54,15.44-12.74,32.63-14.13,51-7.76,8.09,2.81,15.71,7.18,24.67,7a3.69,3.69,0,0,1,3,1.49c-3.34,1.45-5.09,4.65-7.7,6.85-3.82,3.21-4.64,9-8.89,11.28-7.87,4.27-14.55,10.68-23.7,12.75s-18.05,3.73-26.64-2.27c-4.48-3.13-9.65-5.16-15.43-4.61A1.9,1.9,0,0,1,183,78.07Z"/><path class="cls-9" d="M183,78.07a1.9,1.9,0,0,0,2.32,2c5.78-.55,11,1.48,15.43,4.61,8.59,6,17.44,4.35,26.64,2.27s15.83-8.48,23.7-12.75c4.25-2.3,5.07-8.07,8.89-11.28,2.61-2.2,4.36-5.4,7.7-6.85,1.69.7.81,1.84.53,2.91-4.95,18.72-25,35.16-44.38,37.28a51.9,51.9,0,0,1-28-4.59c-6.7-3-13.39-6.44-21.45-6.44Z"/><path class="cls-10" d="M205.83,54.06c4.84-2.9,9-7.53,15.6-5.94,1.9.45,4.5.31,5.12,2.21.84,2.57-2.14,2.79-3.66,3.83a24.39,24.39,0,0,0-6,5.84c-1.52,2-4.23,1.75-6.09,3.11l-7.79,2c-2.93-.54-2.88-2.92-3.17-5.09.75-1.81,3.22-2.53,3.11-4.89h0a1,1,0,0,0,1-1l0,0Z"/><path class="cls-10" d="M243.91,62.18a7.63,7.63,0,0,1-.29,1.87c-6.66.5-11.73,9.65-19.63,3.6a5.47,5.47,0,0,0-4.17-1.36c-.34,2.23,2.16,2.29,2.82,4.28a53.43,53.43,0,0,0-21.7,3.64L197,73c0-.68-.05-1.35-.08-2a83.29,83.29,0,0,1,19.79-6.24c4.76-.32,9.33-2.23,14.19-1.69,3.68-.29,7.49,1.06,11.06-.78Z"/><path class="cls-11" d="M189,55.3c.24,3.87-.08,7.43-3,10.54a4.5,4.5,0,0,0,.08,6.32c-4.12,2.89-8.24,5.79-13.33,9.35C175.06,69.79,180.42,61.54,189,55.3Z"/><path class="cls-9" d="M243.91,62.18l-2,.1c-3.69.24-7.48-.92-11.06.78-4.86-.54-9.43,1.37-14.19,1.69-1.2-3.29-4-.8-5.88-1.64,1.86-1.36,4.57-1.07,6.09-3.11.93,0,.61,2.06,2,1.25l4-.19q10.43.15,20.84.3c.09,0,.23.23.24.35A1.28,1.28,0,0,1,243.91,62.18Z"/><path class="cls-9" d="M197,73l3.95,1.2c5,3,11.18,3.83,15.23,8.65-8-2.57-14.95-7.73-23.4-9,.24-1,.73-1.76,1.88-1.82Z"/><path class="cls-9" d="M203,55.15c.11,2.36-2.36,3.08-3.11,4.89-2.41,2.38-6,3.93-5.88,8.13v0l-.94.8c-.82,1.31-2,1.18-3.32,1C191.85,62.94,197.09,58.76,203,55.15Z"/><path class="cls-8" d="M194,68.17c-.1-4.2,3.47-5.75,5.88-8.13.29,2.17.24,4.55,3.17,5.09C200.07,66.32,197.19,67.73,194,68.17Z"/><path class="cls-8" d="M197,73l-2.34-.93A2.81,2.81,0,0,1,196.91,71C196.94,71.66,197,72.33,197,73Z"/><path class="cls-2" d="M166.86,84a1.54,1.54,0,0,1,1.08-1.83A1.42,1.42,0,0,1,166.86,84Z"/><path class="cls-2" d="M168,82.07c-.12-.89.06-1.61,1.07-1.85A1.52,1.52,0,0,1,168,82.07Z"/><path class="cls-8" d="M193,68.94l.94-.8Z"/><path class="cls-6" d="M142,133.12c-3.42,1.39-3.6,5.59-6.86,7.42-6.3,3.56-11.41,2.19-16.2-2.54,1.87-3.05,5.58-5.29,4.3-9.73a13.37,13.37,0,0,0-3.8-10.49,30.17,30.17,0,0,0-20.63-8.89c-5.87-.13-12.31.85-16.6,6.19-4.42.46-5.4,4-6.15,7.35-.91,4.07,1.52,6.89,4.35,9.36,1.55,1.36,4,1.71,4.45,4.26-7.35-2.62-11.14-7.16-11.34-14.07,0-1.79-.9-1.74-2.09-1.94-9.05-1.52-10.49-3.25-10.47-12.39a5.34,5.34,0,0,0-.18-2.45c-5-9,.81-14.33,6.9-19.15,7.8-6.17,16-11.75,26.63-11.66,1,0,2-.23,2.8.49,2.69,2.32,5.36,4.68,8,7a25.57,25.57,0,0,1-11.23.38C85.73,80.78,74.19,87,72.11,93.34l-1.9,1.89c-5,.63-4.83,5.38-6.43,8.46-2.43,4.67-.18,9.19,4.77,11.18,4.74,1.89,10.52-.46,12.34-5l2.67-2c1.65.3,2.46-.35,2.3-2.07L87.69,104c6-1.3,7.6-6.79,10.09-11.21,1.2-2.13,2.31-3.07,4.58-2.4,4.88,1.44,6.1-1.55,6.65-5.4,3,1,3.64,3.94,4.35,6.26,2.79,9.17,9.13,15.47,16.27,21.22,4.82,3.89,8.25,9,12.37,13.55C139.61,128.38,139.68,130.75,142,133.12Z"/><path class="cls-5" d="M123.24,128.27c1.28,4.44-2.43,6.68-4.3,9.73-10,4.69-20,3.05-30,0-.09-1.25-.67-1.94-2-1.78l-2.06-.19c-.4-2.55-2.9-2.9-4.45-4.26-2.83-2.47-5.26-5.29-4.35-9.36.75-3.38,1.73-6.89,6.15-7.35a9,9,0,0,1-.61,1.81c-3.46,5.75-3,6.8,3.43,9.09a120.88,120.88,0,0,0,22.54,5.48C112.86,132.26,119.07,134.35,123.24,128.27Z"/><path class="cls-5" d="M72.11,93.34C74.19,87,85.73,80.78,93.92,82.28a25.57,25.57,0,0,0,11.23-.38c1.66.57,3.51.89,3.86,3.08-.55,3.85-1.77,6.84-6.65,5.4-2.27-.67-3.38.27-4.58,2.4-2.49,4.42-4,9.91-10.09,11.21,1.62-3.57,4.59-6.44,5.15-10.57.35-2.59,1.61-5.33-1-7.35-2.36-1.82-5-.9-7.56-.14C79.54,87.32,76.38,91.22,72.11,93.34Z"/><path class="cls-5" d="M194.06,132a18.3,18.3,0,0,1-3.76,0,4,4,0,0,1-3.34-3.8,3.69,3.69,0,0,1,2.17-4.06c4.54-2.18,9.18-2.87,13.91-.82,3.49,1.52,3.73,4.21.63,6.37A12.6,12.6,0,0,1,194.06,132Z"/><path class="cls-5" d="M66,136c2.79,0,4,1,4,3.3,0,2.66-1.15,4.59-4,4.73-2.32.12-3.18-1.53-3.07-3.62C63.06,138.1,63.64,136.06,66,136Z"/><path class="cls-5" d="M142,133.12c-2.32-2.37-2.39-4.74,0-7.11a12,12,0,0,1,2.48.13c2.13.55,3.69,1.92,3.41,4.21C147.42,134.1,144.31,132.9,142,133.12Z"/><path class="cls-5" d="M105.36,70c2,.09,3.62.59,3.52,2.76-.09,1.81-1.55,2.42-3.18,2.49-1.82.07-3.52-.43-3.61-2.52S103.75,70.15,105.36,70Z"/><path class="cls-6" d="M86.92,136.24c1.34-.16,1.92.53,2,1.78A1.83,1.83,0,0,1,86.92,136.24Z"/><path class="cls-10" d="M223,61.06l-4,.19c5.68-7.7,11.21-10.44,17.27-8.48,1.45.48,4,.6,3.19,2.76-.71,1.78-1,4.54-4.28,4.66C231.07,60.33,226.9,59.18,223,61.06Z"/><path class="cls-9" d="M205.83,54.06l-1.9.11C204.52,53.26,205.13,52.93,205.83,54.06Z"/><path class="cls-9" d="M204,54.13a1,1,0,0,1-1,1Z"/><path class="cls-8" d="M230.89,63.06c3.58-1.7,7.37-.54,11.06-.78C238.38,64.12,234.57,62.77,230.89,63.06Z"/><path class="cls-12" d="M123.24,128.27c-4.17,6.08-10.38,4-15.67,3.19A120.88,120.88,0,0,1,85,126c-6.43-2.29-6.89-3.34-3.43-9.09a9,9,0,0,0,.61-1.81c4.29-5.34,10.73-6.32,16.6-6.19a30.17,30.17,0,0,1,20.63,8.89A13.37,13.37,0,0,1,123.24,128.27Z"/><path class="cls-12" d="M72.11,93.34c4.27-2.12,7.43-6,12.18-7.41,2.59-.76,5.2-1.68,7.56.14,2.6,2,1.34,4.76,1,7.35-.56,4.13-3.53,7-5.15,10.57l-1.83,1.82a2.52,2.52,0,0,0-2.3,2.07l-2.67,2c-1.07.39-2.17.71-3.2,1.18-3.31,1.53-6.42,1.28-9.18-1.14s-2.7-5.49-1.41-8.58c.87-2.09,2.06-4,3.11-6.07Z"/><path class="cls-5" d="M70.21,95.23c-1,2-2.24,4-3.11,6.07-1.29,3.09-1.37,6.16,1.41,8.58s5.87,2.67,9.18,1.14c1-.47,2.13-.79,3.2-1.18-1.82,4.57-7.6,6.92-12.34,5-4.95-2-7.2-6.51-4.77-11.18C65.38,100.61,65.24,95.86,70.21,95.23Z"/><path class="cls-5" d="M83.56,107.88a2.52,2.52,0,0,1,2.3-2.07C86,107.53,85.21,108.18,83.56,107.88Z"/></g></svg>