<svg xmlns="http://www.w3.org/2000/svg" viewBox="0 0 300 300"><defs><style>.cls-1{fill:#985e30;}.cls-2{fill:#e4b536;}.cls-3{fill:#466f41;}.cls-4{fill:#f2d93b;}.cls-5{fill:#f5eb66;}.cls-6{fill:#a2c64e;}.cls-7{fill:#51944f;}.cls-8{fill:#d97a60;}.cls-9{fill:#dd8a37;}.cls-10{fill:#83b952;}</style></defs><title>fp</title><g id="банан"><path class="cls-1" d="M268.34,89.69c11.15,19.74,13.27,40.94,8.16,62.51C262.33,212,224.69,250.06,165.7,266.13c-33.46,9.11-66.72,6.14-98.06-9.59-18.07-9.07-32.83-22.1-43.07-39.84-8.58-14.86-1.72-31.3,15-35.76l2.42-.65c2.85-.21,3.33.81,1.56,3l-.07.08c-.76.29-.68.68-.14,1.12,1.34,3.95,1.26,8.07,1.46,12.16-1.6.92-1.84,2.77-2.78,4.14-2.9,4.23-5.85,8.82-10.76,10.47-5.4,1.8-4.18,4-2,7.41,11,17.1,26.26,29.2,44.6,37.25,30.54,13.41,62,15.05,94.17,6.11q48.51-13.49,78.89-53.39c16.08-21.08,25.68-44.85,27.64-71.4a83.93,83.93,0,0,0-9.86-46.54C265.73,89.63,267.82,92.45,268.34,89.69Z"/><path class="cls-2" d="M43.57,183.3c1.77-2.2,1.29-3.22-1.56-3,9.3-2.73,18.83-2,28.29-1.69,15,.44,29.85-.12,44.5-3.63,27.08-6.47,47.34-21.81,60.82-46.22,6.7-12.15,12.29-24.94,20.68-36.15a58.55,58.55,0,0,1,16.54-14.79c.6.88,1.2,1.75,1.81,2.62-.34.56-.54,1.34-1,1.65-9.66,6-16.1,14.73-21.61,24.4-7.52,13.2-13.64,27.23-23.2,39.23-1.67,1.87-3.33,3.76-5,5.61-19.5,21.28-44.87,29.08-72.57,30.92C75.36,183.29,59.42,181.37,43.57,183.3Z"/><path class="cls-1" d="M214.65,80.44l-1.81-2.63c8.57-9.47,10.89-21,11.23-33.29.37-13.22,3.73-16.32,17.24-15.69a51.49,51.49,0,0,1,21.88,5.75c8.71,4.61,9.65,7.58,5.5,16.61l-3.44.62c-.16-1.4-1.07-1.41-2.15-1.2-5.67,1.1-11.35,1.87-17.14,1.12-6.76-.69-12.61-3.95-18.83-7.26-.52,12.23-2.4,23.41-9.5,33Zm25.06-47.51c-2.05,0-3.56-.06-5.05,0-2.57.13-5.48.35-6.39,3.11-1,3,1.17,5.22,3.49,6.66,5.61,3.47,11.23,7.29,18.45,5C238.58,44.9,234.91,40.17,239.71,32.93Z"/><path class="cls-3" d="M265.25,51.82l3.44-.63c-1.38,4.83-2.9,9.61-4.11,14.48-2.1,8.5-.5,16.49,3.76,24-.52,2.75-2.61-.07-3.6,1-.4-.68-.79-1.36-1.18-2,0-4.6-3.13-8.32-3.3-13C260,67.23,262.66,59.57,265.25,51.82Z"/><path class="cls-2" d="M263.56,88.67c.39.68.78,1.36,1.18,2a83.93,83.93,0,0,1,9.86,46.54c-2,26.55-11.56,50.32-27.64,71.4q-30.4,39.85-78.89,53.39c-32.17,8.94-63.63,7.3-94.17-6.11-18.34-8.05-33.63-20.15-44.6-37.25-2.2-3.43-3.42-5.61,2-7.41C36.19,209.62,39.14,205,42,200.8c.94-1.37,1.18-3.22,2.78-4.14,5.57,1.52,6.26,4.14,2.18,8.32-6.38,6.52-6.5,8.68.18,14.92,12.67,11.84,27.58,19.71,44.23,24.52,10.51,3,21,4.1,31.74,1.42,2.19-.55,5.17-.77,5.66-3.52.44-2.45-1.58-4.52-3.3-5.92-8.84-7.15-16.87-15.66-28.8-17.91a6.85,6.85,0,0,1-2.6-1.52c-.63-.5-1.48-1.14-1.12-2.07.52-1.36,1.61-.68,2.56-.48,2.44.52,4.92,1.33,7.17-.59,5.69.26,11.43-.38,17.06.9,2.54-.31,5.69,1.85,7.4-1.82l3.92-.11c1.52,1.67,1.88.42,2.21-.88,2.19-.16,4.46,0,6.56-.51,16.87-4.21,32.39-11.36,45.76-22.55,10.35-8.65,19.91-18.15,26.89-29.9,1.45,0,2.14-.7,2-2.17,4.9-9.16,9.67-18.38,12.5-28.44,1.27-4.5,1.73-9.31,3.63-13.5A67.26,67.26,0,0,0,236,95.18l1.26-.81c1.59.59,2-.78,2.66-1.65C246,85,251.18,84,260,88.6,261.25,89.25,262.34,90,263.56,88.67Zm6.07,53.23c0-4,0-6.9,0-9.77,0-1.18,0-2.55-1.89-2.12-3.87.9-8,1.09-9.53,6.05-2.14,7.07-4.76,14-7,21.05a8,8,0,0,0,3.34,9.19c2.61,1.62,5.22-1,7.27-3.08C268,157,270.77,149.52,269.63,141.9Z"/><path class="cls-4" d="M102.72,213.83c-2.25,1.92-4.73,1.11-7.17.59-1-.2-2-.88-2.56.48-.36.93.49,1.57,1.12,2.07a6.85,6.85,0,0,0,2.6,1.52c11.93,2.25,20,10.76,28.8,17.91,1.72,1.4,3.74,3.47,3.3,5.92-.49,2.75-3.47,3-5.66,3.52-10.71,2.68-21.23,1.62-31.74-1.42-16.65-4.81-31.56-12.68-44.23-24.52-6.68-6.24-6.56-8.4-.18-14.92,4.08-4.18,3.39-6.8-2.18-8.32-.2-4.09-.12-8.21-1.45-12.15,0-.38.09-.76.13-1.13l.07-.08c15.85-1.93,31.79,0,47.63-1.06,27.7-1.84,53.07-9.64,72.57-30.92,1.7-1.85,3.36-3.74,5-5.61-.24,2.81,2.59,5.73-.76,8.45-6.58,5.33-13.78,10-19,16.89a5.15,5.15,0,0,1-2.35,1.86c-7.14,2-10,6.83-9.48,14,.28,3.52-1.43,4.27-4.35,2.85-4.21-2-8.54-1-12.92-.91-9.57.16-19,2.53-28.72.92C82,188.26,72.5,187.48,63,189.2c-4.67.85-4.63,2.88-2.72,6.28,1,1.79,2.5,2.48,4.3,3.22,4.76,2,9.94,1.64,14.75,3.1,2,.59,5.4,1,4,4.2-1.6,3.71.55,3.74,2.88,3.81C92,210,97.15,212.78,102.72,213.83Z"/><path class="cls-2" d="M43.5,183.38c0,.37-.09.75-.13,1.13C42.82,184.06,42.74,183.67,43.5,183.38Z"/><path class="cls-5" d="M102.72,213.83c-5.57-1.05-10.7-3.83-16.5-4-2.33-.07-4.48-.1-2.88-3.81,1.4-3.24-2-3.61-4-4.2-4.81-1.46-10-1.15-14.75-3.1-1.8-.74-3.3-1.43-4.3-3.22-1.91-3.4-1.95-5.43,2.72-6.28,9.49-1.72,18.95-.94,28.23.6,9.75,1.61,19.15-.76,28.72-.92,4.38-.08,8.71-1.14,12.92.91,2.92,1.42,4.63.67,4.35-2.85-.56-7.2,2.34-12,9.48-14a5.15,5.15,0,0,0,2.35-1.86c5.2-6.91,12.4-11.56,19-16.89,3.35-2.72.52-5.64.76-8.45,9.56-12,15.68-26,23.2-39.23,5.51-9.67,11.95-18.43,21.61-24.4.5-.31.7-1.09,1-1.65l3-2.92c.06,2.76,1.58,3.4,4,2.92a35.94,35.94,0,0,1,6-.82c6.4-.13,8.45,2,8.48,8.46,0,2.37-.08,4.74-.12,7.11a67.26,67.26,0,0,1-5.37,19.67c-1.9,4.19-2.36,9-3.63,13.5-2.83,10.06-7.6,19.28-12.5,28.45a2.11,2.11,0,0,0-2,2.16c-7,11.75-16.54,21.25-26.89,29.9-13.37,11.19-28.89,18.34-45.76,22.55-2.1.52-4.37.35-6.56.51a2.14,2.14,0,0,0-2.21.88l-3.92.11c-2.49.51-5.62-1.6-7.4,1.82C114.15,213.45,108.41,214.09,102.72,213.83Z"/><path class="cls-6" d="M236,95.18c0-2.37.13-4.74.12-7.11,0-6.49-2.08-8.59-8.48-8.46a35.94,35.94,0,0,0-6,.82c-2.46.48-4-.16-4-2.92,7.1-9.63,9-20.81,9.5-33C233.35,47.78,239.2,51,246,51.72c1.42,4-.56,7.79-.38,11.7-2,8.09-4.12,16.13-5.21,24.4-1.24,2.08-2.71,4.06-3.09,6.55Zm3-37.91c-.19-.72.57-2.45-1.39-2.79a2.85,2.85,0,0,0-2.86,1.74q-4.94,8.45-9.68,17c-.49.9-1.75,2.15-.28,3.06,1.18.73,2.17-.4,3-1.2,4.12-3.77,6.95-8.58,10.29-13C239.07,60.87,239.15,59.3,239,57.27Z"/><path class="cls-7" d="M237.28,94.37c.38-2.49,1.85-4.47,3.09-6.55,4.8-4.08,10.12-7.83,8.9-15.42-.47-2.88.29-5.7,1.1-8.44s2.67-3.83,5.37-3.14c1,.25,1.74,1.91,2.8.12a5.11,5.11,0,0,0,.67-4.36c-.6-1.75-2.2-1.37-3.45-1.14-3.51.64-7,1.3-7.65,5.87a2.55,2.55,0,0,1-2.53,2.11c-.18-3.91,1.8-7.75.38-11.7,5.79.76,11.47,0,17.14-1.11,1.08-.21,2-.2,2.15,1.2-2.59,7.76-5.29,15.42-5,23.85.17,4.69,3.33,8.41,3.3,13-1.22,1.37-2.31.58-3.55-.07C251.18,84,246,85,239.94,92.72,239.25,93.59,238.87,95,237.28,94.37Z"/><path class="cls-8" d="M239.71,32.93c-4.8,7.24-1.13,12,10.5,14.78-7.22,2.29-12.84-1.53-18.45-5-2.32-1.44-4.48-3.68-3.49-6.66.91-2.76,3.82-3,6.39-3.11C236.15,32.87,237.66,32.93,239.71,32.93Z"/><path class="cls-9" d="M269.63,141.9c1.14,7.62-1.64,15-7.79,21.32-2,2.09-4.66,4.7-7.27,3.08a8,8,0,0,1-3.34-9.19c2.2-7.06,4.82-14,7-21.05,1.5-5,5.66-5.15,9.53-6.05,1.86-.43,1.88.94,1.89,2.12C269.66,135,269.63,137.87,269.63,141.9Zm-3.06-.49c-.08-3.06.62-5.72-2.37-6.31s-2.8,2.47-3.34,4.08c-1.85,5.57-3.38,11.25-5,16.89-.56,2-1.29,4.47,1,5.36s3.46-1.64,4.46-3.26C264.62,152.77,265.81,146.68,266.57,141.41Z"/><path class="cls-4" d="M119.78,214.73c1.78-3.42,4.91-1.31,7.4-1.82C125.47,216.58,122.32,214.42,119.78,214.73Z"/><path class="cls-4" d="M212.52,159a2.11,2.11,0,0,1,2-2.16C214.66,158.26,214,159,212.52,159Z"/><path class="cls-4" d="M131.1,212.8a2.14,2.14,0,0,1,2.21-.88C133,213.22,132.62,214.47,131.1,212.8Z"/><path class="cls-3" d="M245.58,63.42a2.55,2.55,0,0,0,2.53-2.11c.6-4.57,4.14-5.23,7.65-5.87,1.25-.23,2.85-.61,3.45,1.14a5.11,5.11,0,0,1-.67,4.36c-1.06,1.79-1.82.13-2.8-.12-2.7-.69-4.59.53-5.37,3.14s-1.57,5.56-1.1,8.44c1.22,7.59-4.1,11.34-8.9,15.42C241.46,79.55,243.63,71.51,245.58,63.42Z"/><path class="cls-10" d="M239,57.27c.14,2,.06,3.6-.88,4.85-3.34,4.39-6.17,9.2-10.29,13-.87.8-1.86,1.93-3,1.2-1.47-.91-.21-2.16.28-3.06q4.74-8.57,9.68-17a2.85,2.85,0,0,1,2.86-1.74C239.58,54.82,238.82,56.55,239,57.27Z"/><path class="cls-2" d="M266.57,141.41c-.76,5.27-1.95,11.36-5.26,16.76-1,1.62-2.17,4.15-4.46,3.26s-1.56-3.39-1-5.36c1.63-5.64,3.16-11.32,5-16.89.54-1.61.23-4.68,3.34-4.08S266.49,138.35,266.57,141.41Z"/></g></svg>