<?xml version="1.0" encoding="utf-8"?>
<!-- Generator: Adobe Illustrator 23.1.0, SVG Export Plug-In . SVG Version: 6.00 Build 0)  -->
<svg version="1.1" id="Слой_1" xmlns="http://www.w3.org/2000/svg" xmlns:xlink="http://www.w3.org/1999/xlink" x="0px" y="0px"
	 viewBox="0 0 26 26" style="enable-background:new 0 0 26 26;" xml:space="preserve">
<style type="text/css">
	.st0{fill:#90ABF1;}
</style>
<path class="st0" d="M6.3,20.8c-0.1,0-0.3,0-0.4,0c-0.1,0-0.3-0.1-0.4-0.2c-0.1-0.1-0.2-0.2-0.2-0.4c0-0.1,0-0.3,0-0.4l0.9-3.5
	l3.5,3.6L6.3,20.8z"/>
<path class="st0" d="M20.1,9.4l-9.4,9.5l-3.5-3.6l9.4-9.5c0.2-0.2,0.4-0.2,0.6-0.2c0.2,0,0.4,0.1,0.6,0.2l2.3,2.4
	c0.2,0.2,0.2,0.4,0.2,0.6C20.4,9,20.3,9.2,20.1,9.4z"/>
</svg>
