<svg width="20" height="20" viewBox="0 0 20 20" fill="none" xmlns="http://www.w3.org/2000/svg">
<g clip-path="url(#clip0_734_117)">
<path d="M19.5333 19.9999H0.493333C0.363482 20.0004 0.238699 19.949 0.146258 19.857C0.0538156 19.765 0.00123223 19.6397 0 19.5087L0 16.9288C1.94967e-09 16.7968 0.051976 16.6701 0.144494 16.5767C0.237012 16.4834 0.362493 16.4309 0.493333 16.4309C0.624174 16.4309 0.749655 16.4834 0.842173 16.5767C0.934691 16.6701 0.986667 16.7968 0.986667 16.9288V19.0148H19.0133V16.9288C19.0133 16.7968 19.0653 16.6701 19.1578 16.5767C19.2503 16.4834 19.3758 16.4309 19.5067 16.4309C19.6375 16.4309 19.763 16.4834 19.8555 16.5767C19.948 16.6701 20 16.7968 20 16.9288V19.5087C20.0021 19.5721 19.9917 19.6352 19.9692 19.6945C19.9468 19.7537 19.9128 19.8078 19.8693 19.8536C19.8258 19.8994 19.7737 19.9359 19.716 19.961C19.6583 19.9862 19.5962 19.9994 19.5333 19.9999Z" fill="white"/>
<path d="M15.6354 11.9899C15.5905 11.9433 15.5368 11.9062 15.4775 11.8809C15.4182 11.8556 15.3545 11.8425 15.29 11.8425C15.2256 11.8425 15.1619 11.8556 15.1026 11.8809C15.0433 11.9062 14.9896 11.9433 14.9447 11.9899L10.382 16.5359V0.491104C10.3774 0.362301 10.3234 0.240352 10.2314 0.150903C10.1395 0.0614542 10.0167 0.0114746 9.88905 0.0114746C9.76135 0.0114746 9.63862 0.0614542 9.54668 0.150903C9.45474 0.240352 9.40074 0.362301 9.39605 0.491104V16.5359C5.05538 12.2362 4.78405 11.9408 4.75938 11.9408C4.70792 11.9003 4.64891 11.8707 4.58587 11.8537C4.52283 11.8367 4.45704 11.8326 4.39242 11.8418C4.3278 11.8509 4.26566 11.8731 4.20971 11.907C4.15375 11.9409 4.10513 11.9858 4.06671 12.0391C3.9984 12.128 3.9634 12.2384 3.96792 12.3508C3.97243 12.4632 4.01616 12.5704 4.09138 12.6534C4.09138 12.6534 4.46071 12.9979 9.54138 18.0593L9.56605 18.0835L9.59071 18.1084C9.61538 18.1327 9.66471 18.1576 9.68938 18.1818C9.71405 18.1818 9.73871 18.2067 9.76338 18.2067H9.98538L10.0587 18.1818H10.0834C10.108 18.1818 10.1327 18.1576 10.1574 18.1576L10.2314 18.0835L15.6314 12.7005C15.828 12.504 15.828 12.2093 15.6314 11.9879L15.6354 11.9899Z" fill="white"/>
</g>
<defs>
<clipPath id="clip0_734_117">
<rect width="20" height="20" fill="white"/>
</clipPath>
</defs>
</svg>
