<svg xmlns="http://www.w3.org/2000/svg" viewBox="0 0 300 300"><defs><style>.cls-1{fill:#466f41;}.cls-2{fill:#51944f;}.cls-3{fill:#a2c64e;}.cls-4{fill:#83b952;}.cls-5{fill:#69ab53;}</style></defs><title>fp</title><g id="брокколи"><path class="cls-1" d="M69.81,53.47A29,29,0,0,0,75,48.1c3.46-5,8.82-6.49,14.55-6.63,2.29,0,3-1.35,4.54-2.72,5.73-5.29,8.85-13.91,18.38-14.67,2.92-.23,5-3.55,8.12-3.64,8.89-.25,17.69,1.6,26.65,1.06,2.78-.17,5.64,2.31,7,5.17,1,2,2.47,2.63,4.36,3.55,7.52,3.64,15.17,0,22.74.89,9,1,17.27,3,24.21,9.08,2.51,2.21,6.67,2.19,8.54,5.07,3.65,5.62,8.2,8.05,15.13,7.68,4.11-.22,8.21,2.65,10.32,6.41s5.7,5.08,8.75,7.44c5.56,4.3,11.48,9,14.85,15,2.84,5,6.41,10,8.13,15.47,2.22,7.1,1.58,14.93,4.46,22a1.43,1.43,0,0,1,0,1c-3.34,7.85-6.84,15.65-11.64,22.7-1.08,1.58-2.6,2.45-2.5,4.8.23,5.65-2.49,9.62-7.86,11.54a3.87,3.87,0,0,0-2.44,2.11c-3,5.69-7.22,7.75-13.6,7-1.4-.16-2.61-1-4.25.13-8.32,5.58-13.47,5.26-20.86-1.18-6.28,12.4-6.91,25.43-4.94,38.64,2.14,14.3,6.88,28,10.74,41.88s2,17.82-11.52,23.7c-14.63,6.35-30,8.52-45.76,7.91-11-.43-13.79-2.68-16.74-13.12-3.51-12.42-6.31-25.05-10.2-37.35-4.51-14.25-12.47-25.94-27.3-31.58-3.29-1.25-5.67-1.88-6.35,2.71-.44,3-3.54,4.11-5.53,4.12-6,0-12.29,4.35-18.1-.8-1.23-1.09-2.53.31-3.74.65-3.88,1.08-7.76.55-10.38-2.15A15.26,15.26,0,0,0,53.16,197c-4.19-.55-7.25-3.28-9-7.25a5.79,5.79,0,0,0-1.54-2.47c-6-3.95-6.15-10.44-7.15-16.49-.25-1.49,0-2.72-1.57-3.83-4.45-3.28-5.58-7.82-3.91-13,.74-2.31.67-3.73-1.47-5.56-4.86-4.17-5.81-14.29-1.9-19.49a8,8,0,0,0,1.65-5.44c-.07-5.3,1.8-9.6,7-11.67,2-.79,2.43-2,2.22-3.87a4.89,4.89,0,0,1,1.17-4.21c1.77-1.54,3.67-2.78,4.14-5.56.27-1.59,1.12.7,1.91.55.91,2.32,7.32-.58,4.77,5-.76,5,1.26,8.06,5.9,8.06,4.18,0,8.51,1.06,12.29-2.52a8,8,0,0,1,8.16-1.23c5.44,2.61,10.78.28,16.12.67,3.68-.24,7.39-6.69,5.51-10.81-2.65-5.8-.08-9.61,3.75-13.24,1-1,2.5-2,1.77-3.26-2.82-4.69.28-8.55,1.35-12.71,4.54-7.05,3.22-10-4.88-10.32-2.14-.08-3.24-1.33-4.74-2.2-4.09-2.45-9-1.87-13.32-3.85-2.18-1-5.66-.63-7,1.25-2.8,3.79-6.34,3.9-10.3,3.82-1.09,0-2.2.69-3.3,1.06l-.9-1.79,2.09-1.17c1.08,0,2.17,0,2.87-1h.07C66.54,54.37,68.46,55.24,69.81,53.47Zm35.29,73.66c-2.75-.49-2.06-2.09-1-3.58,1.47-2.13,1.25-4.57-.39-5.9-4-3.21-8.15-6.39-13.78-5.92-1.1.35-2.66.35-3.22,1.1-2.82,3.82-4.9,2.76-7.9-.11-3.49-3.36-8.38-2.39-11.17,1.79-1.23,1.84-2.14,2.3-4.41,1.74-5.21-1.31-8.44.66-10.92,5.61-1.3,2.59,0,3.3,2.19,3.61a.65.65,0,0,0,.16.48c-.39,2.66-2,3.71-4.58,4.39-7.36,1.95-8.71,4.77-6.17,11.92-4,1.74-5.85,4.53-4.45,9-2.77,1.18-6.4,1.23-6.87,5.41-.31,2.72.31,5.69,2.58,6.59,3.89,1.53,3.88,3.82,3.5,7.25-.56,5,1.46,6.5,6.11,4.88,2.06-.72,2.43-.06,3.21,1.56,1.37,2.84,3.63,3.29,6.14,1.24,4.9-4,5.07-4.09,7.22,1.76,1.24,3.37,4.11,3,6.52,3.45a3,3,0,0,0,3.6-3.22c-.63-4.08,2.21-3,3.56-2.24,3.61,1.92,6.33.87,8.73-1.79,2.24-2.47,3-7,8.07-5.25.32.11,1-.79,1.5-1.23a27.31,27.31,0,0,0,7.85-11.36h1.92c2.45,1.34,4.79,0,7-.56,4.33-1,5.74-4.41,3-7.75-2.16-2.59-1.32-3.85.55-5.73,2.63-2.67,4.08-5.52-.27-8.08-1.27-.74-.84-1.83-.8-3C112.69,128.62,109.39,126.06,105.1,127.13ZM37.54,114.91c-4.75.24-6.59,3.63-5.91,7.39a16.37,16.37,0,0,1-1.3,9.76c-4.2,3.32-3.7,11,.91,14.44,2.25,1.69,3.82,2,5.34-1.11a62.6,62.6,0,0,0,4.05-12.25c2.78-3,8.39-4.11,6.95-10.06,2.9-4.45,5.35-8.79-.32-13.16-1-.77-1.11-2.7-1.53-4.12-.27-.88.24-2.17-1.09-2.46-1.14-.24-1.8.73-2.39,1.5a6.65,6.65,0,0,0-1.69,5.09C41,112.58,39.47,113.81,37.54,114.91ZM98.92,45.34l0-.05c-1.42,1.8-5.38,1.76-4.35,5.23,1.09,3.68,4.12,5,7.83,5.06,1.62,0,3.41-.51,4.74,1,1.27,2,1.62,4.86,5,4.64,6.43-.41,12.89-.65,17.29-6.47l6.91-.4c2,.43,4.08,2.3,6.14.58,5.11-4.25,10.76-4,16.5-2,2.59.89,4.07.12,5.49-1.88,1.66-2.33.8-4.11-1.18-5.5-2.64-1.87-2.57-3.9-.75-6.22-.78-4.56-2.5-8-8.13-7.07-1.18.19-2.49,0-2.61-1.59-.47-5.95-4.56-6.67-9.29-6.52a5,5,0,0,0-2,.15c-3.74,2.06-6.87,2.51-10.77-.62-3.51-2.82-10.45-.3-12.85,3.55l-1.55.37c-9.88-4.26-10,7.8-16.22,9.72-1.3.4-1.88,1.89-2,3.27-.2,1.61.68,2.86,1.66,4C98.8,44.83,98.86,45.09,98.92,45.34Zm34.62,102.8c-3.06-5-6.21-9.86-9.12-14.91-1.28-2.23-3.15-2.67-5-1.83-2.09.92-.51,2.55,0,3.82,1.36,3.45,1.84,6.73-1.19,9.66a3.28,3.28,0,0,0-.41,4.17c2.86,5.32,1.45,9.21-4.76,12,4,1.34,4.57,5.51,8.07,6.53,3.32,4.79,7.05,9.32,9.24,14.82.07,2.74-1,3.52-3.6,2.32-3.43-1.55-7-2.86-10.44-4.28l-1.12-.69-1.9-.32c-2.6-1.8-5.31-3.47-7.75-5.46-1-.84-1.22-.55-1.73.25-2.28,3.49-5.89,4.84-10.16,5.64,1.8,1.42,3.11,2.47,4.42,3.49,1,.78,2.84,1.35,2.21,2.86-.49,1.17-2.22,1.31-3.61,1.31H86.1a4,4,0,0,0,2.23,1.84c7.29,3.16,15.5,2.35,22.85,5.23,10,5.16,17.89,12.81,22.61,22.83a113.64,113.64,0,0,1,8.91,27.66,110.52,110.52,0,0,0,6,21.26c.67,1.64,1.11,4.73,3.94,3.26,9-4.7,19-6.23,28.49-9.45,1.94-.3,4,.55,5.82-.81l14-1.41c3.19.09,6.4,0,9.56.32,6.29.73,6.47.58,5-5.7-3.26-14.18-8.69-27.78-11.11-42.2-2.76-16.46-1.82-32.3,5.81-47.47,3.51-7,9.53-11.52,15-16.65,4.67-.23,7.62-3.24,10.54-6.33-4.17.09-7.47,2-10.6,4.36-2.79.07-5.4,3.73-8.16,1.05-2.06-2-1.17-4.83,0-7.25,2.73-3.47,3.72-7.88,6.72-11.4-4.35,1.43-7.79.29-11-2.43a34,34,0,0,1-6,12.56c-1.36,1.9-2.85,3.86-5.71,3.3-.12-.27-.24-.54-.35-.81-.54-3.61-.91-7.26-2.5-10.61-.48-1-.92-2.49-2.41-2-1.17.4-.82,1.74-.47,2.6,1.17,2.91.55,6,.79,8.92a110.77,110.77,0,0,1-7.16,22c-.68,1.48-1.21,3.16-3.36,3.24-2.35.08-3.11-1.61-3.86-3.3-2.54-5.7-3.18-11.85-4.12-17.92A3.7,3.7,0,0,0,177,139c.23-2,.48-4,.69-6,.31-3-.53-3.65-3.93-3.65A12.88,12.88,0,0,0,163.13,134c-1.47,1.66-3.68,2.17-6,2.17a15.78,15.78,0,0,1-11.09-3.93c-1.09-1-2.25-1.56-3.57-.5a2.45,2.45,0,0,0-.6,3.19c1.53,3.35,1.47,7.23,3.54,10.39a120.89,120.89,0,0,0,5,20.25l.2,1.71.93,10.11c-.59,1.94.75,4.2-1,5.93a1.48,1.48,0,0,0-.06-.75c.13-1.22.16-2.42-.9-3.32l-.18-1.74C147.74,165.77,143.2,155.57,133.54,148.14ZM197.92,261c-9.63-.29-18.73,2.76-28,4.52-3.73.7-7.48,1.67-10.5,4.26-2.34.68-5.84.78-5.61,3.84.21,2.7,3.8,1.8,5.84,2.6a5.3,5.3,0,0,0,1.5.09A93,93,0,0,0,191,273.47c6.44-1.8,13-3.16,18.7-7,1.38-.92,3.36-1.63,3.12-3.52-.29-2.32-2.76-2.12-4.41-2.6C204.85,259.38,201.42,261,197.92,261ZM179.62,59.67c.85,2.85,1.89,5.31,5.69,5,2.73-.23,2.58-2.07,2.75-3.88,3.75-.53,7.4-1.91,11.29-1.27a2.12,2.12,0,0,0,2.5-1.15c2.14-4.53,6-5.81,10.66-5.82,1,0,2.11.08,2.43-1.19.28-1.1-.53-1.81-1.11-2.62-2.63-3.6-6.37-4.52-10.53-4.48-1.92-4.26-3.91-8.26-9.91-6-1.17.44-1.78-1.18-2.55-2-3.32-3.74-7.29-4.52-11.41-1.91-1.76,1.11-2.83.91-4.44-.13-2.47-1.6-5.12-1.54-7.29.67-2.44,2.49-.6,4.55.92,6.57-1.1.43-3.9-.16-2,2.31,2.44,3.14.76,7,1.89,9.69s6.67,1.75,9.2,4.72A14.58,14.58,0,0,0,179.62,59.67ZM125.27,119a22.44,22.44,0,0,1,2,2.84c3.86,7.86,7.63,9.07,14.83,4.39,2.23-1.45,3.3-1.73,4.71,1.09,1.58,3.17,4.93,4.34,8.36,4.77a9.75,9.75,0,0,0,7.79-2.65c2.54-2.12,1.2-5.21,2.11-7.9.85.55,1.27.79,1.67,1.07,8.15,5.84,14.86,3,16-6.83.29-2.64,1.72-2.6,3.67-2.9,5.77-.88,8.45-6.43,5.55-11.43a9.15,9.15,0,0,1-1.27-3.73c1.84-3.82,3.82-7.75-1.33-10.58-3.17-1.75-5.4-3.25-1.2-6.37.71-.52.78-2.13.83-3.25.25-6-3.71-9.42-11.24-9.7-2.84-8.87-2.85-8.94-12.12-7.32-2.09.37-3.05-.83-4.29-1.92-5.37-4.69-10.94-5.15-16.32-.8a6,6,0,0,1-6.82,1c-4.85-1.88-8.94-.58-11.73,3.83-1.27,2-2.47,2.23-4.53,1.28-4.85-2.23-8.85,0-12.31,3.11s-2.79,6.75-1.19,10.62c1.33,3.18,1.24,5.76-2.79,7.6-4.41,2-5.76,6.89-3.34,11.05,1.32,2.25.48,3.74-.26,5.55-3.21,5.4-1.33,10.51,4.55,11,3.39.3,3.63,1.68,3.66,4.39,0,5,3.69,9.64,7.68,9.64C123,126.87,124.53,123.21,125.27,119Zm110.4-58.59c-4.75-5.11-9-6.55-13-3.73-2.09,1.48-3.17,1.25-5.17,0-5.3-3.33-11.56-1.06-13.18,4.95-.84,3.12-1.75,2.7-4,1.67-3.31-1.49-6.55-1.38-8.71,2.23-2.46,1.68-1.81,3.7-.51,5.67a11.13,11.13,0,0,1,1.58,8.68A5.77,5.77,0,0,0,194.42,86c2.81,2.79,4.34,6.23,2.88,10.5-.83,2.41-1.11,5,2.46,5.94a3.22,3.22,0,0,1,2.14,2c1.59,3.48,3.54,4.19,7,1.58,3.6-2.75,4.93,2.65,8,3.12,2,.32.88,2.22.14,3.63-1.92,3.68.49,5.06,3.49,5.17a10.34,10.34,0,0,0,6.19-1.57c2.56-1.9,4.23-1.28,6,.69,1.45,1.58,3.17,2.82,5.27,1.54s3.65-2.63,2.64-5.69c-.64-2,.87-4,2.62-5,2.55-1.55,2.25,1.56,3.35,2.42,1.49,1.15,3,2.5,4.9,1s4-2.94,2.23-5.8c-1.31-2.17-1.45-4.36,1-5.54,2.67-1.29,3-3.25,2.79-5.75a4.18,4.18,0,0,1,1.32-3.56c3.09-3.19,3-6.09-.61-9.29-2.29-2-4.86-1.56-7-2.51-1.63-.73,1-5-1.39-7.12-.62-.56-1-1.54-1.74-1.78C242.86,68.12,238.43,65.36,235.67,60.36Zm9.9,96.35c4.77-.51,9.53.19,12-4.62.94-1.86,1.78-3.85-.35-5.41-2.78-2-13.68,2-13.79,5.27-.09,3.06,0,5-3.89,3.5-.5-.19-1.39.93-2.16,1.06-6.53,1.13-10.77,7.32-17.54,7.88-.75.07-1.43.55-1.22,1.23a4,4,0,0,0,1.45,1.93c2.89,2.09,9.68,1.17,11.28-2,1.49-3,2.48-2.91,5-1.24,3.11,2.05,6.4,1.35,9.36-.88C248.38,161.36,247.19,159.12,245.57,156.71Zm27.07-37.53c-.8-2.24-.62-5.4-3.34-6.67-3.69-1.72-4.62,5.21-8.87,3.3-.45-.2-1.67,1.93-1.66,3.32,0,3,5.16,7.14,8.78,6.81C271.37,125.58,272,122.51,272.64,119.18ZM88.36,44.34c-2.83.24-7,.75-6.91,3.41s4.63,3,7.26,3.59c3.3.67,2.46-3,3-4.74C92.5,43.9,89.9,44.61,88.36,44.34ZM262.15,92.13a2.15,2.15,0,0,0-.61,1.45c-.17,2.22-.32,4.76,1.87,5.83,1.28.62,3.38,2.22,4.84.21C269.21,98.3,265,92.37,262.15,92.13Z"/><path class="cls-2" d="M59.82,56.73l.9,1.79C58,64,52.9,67.86,50.58,73.54c-1.51,3.72-3.35,7.85-1.45,11.66,2.8,5.62-5.49,5.62-4.48,10.06a16.53,16.53,0,0,1,0,3.52c-.79.15-1.64-2.14-1.91-.55-.47,2.78-2.37,4-4.14,5.56,1.78-2.56,3.46-5.16,2.72-8.53a1.26,1.26,0,0,1,.12-1c5.28-5.67,2.45-13.46,5.26-19.83A52.74,52.74,0,0,1,59.82,56.73Z"/><path class="cls-2" d="M69.81,53.47c-1.35,1.77-3.27.9-5,1.06Z"/><path class="cls-2" d="M64.78,54.54c-.7,1.05-1.79,1-2.87,1A2.92,2.92,0,0,1,64.78,54.54Z"/><path class="cls-3" d="M150.66,167.28c-.07-.57-.13-1.14-.2-1.72a6.73,6.73,0,0,0,.77-5.75c-1.6-4.37.73-6.73,4.07-9,3.59-2.42,7.16-1.46,10.53-.28,4.6,1.62,5.76-.52,5.9-4.39,0-1.33,0-2.67,0-4h0l3.95.06c-.4,8.8,1.69,17.4,2.23,26.12,2.4,21.33,6.6,42.38,10.22,63.51a14.44,14.44,0,0,0,3.41,6.85c3.28,4,3.88,9.41,2.71,14.62-.83,3.71-4.65,4.28-7.29,6.07-1.79,1.36-3.88.51-5.82.81-7.39-.31-7.73-.53-9.41-7.68-1.3-5.58-1.36-11.44-3.92-16.73a44.06,44.06,0,0,0-.69-7.46c-4.12-17.67-9-35.18-12-53.08C154.47,172,153.73,169.05,150.66,167.28Z"/><path class="cls-4" d="M102,101.81c.74-1.81,1.58-3.3.26-5.55-2.42-4.16-1.07-9,3.34-11.05,4-1.84,4.12-4.42,2.79-7.6-1.6-3.87-2.19-7.58,1.19-10.62s7.46-5.34,12.31-3.11c2.06.95,3.26.73,4.53-1.28,2.79-4.41,6.88-5.71,11.73-3.83a6,6,0,0,0,6.82-1c5.38-4.35,10.95-3.89,16.32.8,1.24,1.09,2.2,2.29,4.29,1.92,9.27-1.62,9.28-1.55,12.13,7.32-.17,2.61,1.55,2.78,3.56,3,2.4.27,3,2.1,2.24,4.09S181,77,179.29,76.25c-.92-.37-1.69-1.14-2.62-1.42a2.77,2.77,0,0,0-3.49,1.2c-.92,1.63.13,2.47,1.44,3.11,2.17,1.07,4,2.3,4.26,5.08.12,1.59,1.53,1.5,2.69,1.61.05,1,.11,2.07.17,3.11l-.09,1.51c-3.64,2-6.5,3.8-3.52,8.87,2,3.35.66,6.85-3.36,8.6-3.73-.2-7.48.66-10.66-2.81-2.2-2.4-2.56.36-2.43,2,.29,3.56-.66,6.26-4.32,7.47-3.5,1.16-6-.75-7.74-3.19s-2.53-1.85-4.3.09c-5,5.51-10,4.81-13.83-1.67-.55-1-1.15-2.15-2.05-1.16-3.61,4-6.82,3.59-10.36-.12-.71-.74-2.54-.42-3.85-.59-1.28-2.45-2.51-1.56-4.28-.3-3.85,2.74-6.91,1.41-7.85-3.18C102.9,103.43,102.94,102.42,102,101.81ZM150.39,71.1c.66-4.69-1.72-6.52-4.86-7.29A4.64,4.64,0,0,0,139.67,68c-.63,5.51-3.08,3.15-4.95,1.33-2.43-2.36-4.94-3.91-8-1.79s-5.05,2.44-7.83-.3c-1.43-1.4-3.84-.92-5.48.72-.93.94-2.42,1.83-2,3.28.77,2.53,3.1,1.18,4.76,1.43,1.5.24,3.73.16,2.21,2.41-4,6-.38,11.38,1.11,16.74,1.62,5.79,9.2,8.84,12,5,3.38-4.66,6.2-5.35,10.69-2.22,1.17.82,2.73-.18,3.69-1,1.82-1.61,3.38-1.3,5.45-.41,3.42,1.49,8.11-.55,9.08-3.81,1.28-4.26,2.14-8.65,3.47-12.89.93-3-.55-4.08-2.92-4.66a9.13,9.13,0,0,0-6.34,1.08C151.5,74.48,148.59,76.47,150.39,71.1Z"/><path class="cls-4" d="M150.66,167.28c3.07,1.77,3.81,4.68,4.37,7.95,3.08,17.9,7.92,35.41,12,53.08a44.06,44.06,0,0,1,.69,7.46c-1.7,1.46-1.12,3.45-1,5.2.16,3.15.69,6.29.91,9.44.09,1.24.51,3-1.28,3.37-1.52.36-2.55-.86-3.2-2-2-3.58-2.48-7.53-2.58-11.61,0-1.87,1-4.19-1.51-6.07-1.24,7.3.79,14.52-2.53,21.93-2.65-8.35-3.08-16.16-4.33-23.86s-2.24-15.72-8.76-23c.33,8.36,3.88,15,2.73,22.31-2-.49-2.26-1.73-2.59-2.79-4.93-16.18-15.84-28.1-27.94-39.18-1.67-1.53-5.67-2.25-3.75-5.35s5.15-.86,7.71.12a13.58,13.58,0,0,1,2.88,2q5.86,4.29,11.7,8.58c.72.53,1.57,1,2.31.49,1.2-.78.5-1.94-.09-2.6-2.72-3-4.17-6.78-6.09-10.25-2.19-5.5-5.92-10-9.23-14.82,3.37-4.94,6-10.05,5.2-16.38-.53-4.32,1.62-4.91,5-3,1.68,5.68,5.71,10.16,7.92,15.58s3.92,11.25,10.19,13.66l.18,1.74c-.12,1.22-.28,2.45.9,3.32a1.48,1.48,0,0,1,.06.75c0,.8-.42,1.91.47,2.26,1.1.43,1.41-.78,1.39-1.46-.05-2.26.88-4.67-.84-6.73Z"/><path class="cls-2" d="M235.68,60.36c2.75,5,7.18,7.76,12.43,9.52.7.24,1.12,1.22,1.74,1.78,2.42,2.16-.24,6.39,1.39,7.12,2.12,1,4.69.52,7,2.51,3.65,3.2,3.7,6.1.61,9.29a4.18,4.18,0,0,0-1.32,3.56c.24,2.5-.12,4.46-2.79,5.75-2.46,1.18-2.32,3.37-1,5.54,1.72,2.86-.4,4.38-2.23,5.8s-3.41.12-4.9-1c-1.1-.86-.8-4-3.35-2.42-1.75,1.06-3.26,3.1-2.62,5,1,3.06-.64,4.48-2.64,5.69s-3.82,0-5.27-1.54c-1.82-2-3.49-2.59-6-.69a10.34,10.34,0,0,1-6.19,1.57c-3-.11-5.41-1.49-3.49-5.17.74-1.41,1.89-3.31-.14-3.63-3-.47-4.37-5.87-8-3.12-3.42,2.61-5.37,1.9-7-1.58a3.22,3.22,0,0,0-2.14-2c-3.57-.9-3.29-3.53-2.46-5.94,1.46-4.27-.07-7.71-2.88-10.5a5.77,5.77,0,0,1-1.75-6.14,11.13,11.13,0,0,0-1.58-8.68c-1.3-2-2-4,.51-5.67,3.69,2.58,2.65,7.1,4.22,10.58,2.44,5.44,7,9.4,12.86,9.68,1.69.08,3.79-.12,4.1,2,.84,5.63,4.2,5.59,8.39,4.11,2.16-.46,4.07-1.55,6,1.24,2.3,3.3,5,1.72,5.85-1.34,1.14-4,3.24-6.14,7.22-7.22,2.71-.74,4.29-2.91,4.22-6.07s0-6.18-4.06-6.83c-.07-1.89-1.4-3-2.68-4.07A6.07,6.07,0,0,1,235.68,60.36Zm-23.1,33.43c-2,.73-3.75,1.81-3.31,3.9.6,2.85,2,5.39,5.63,5.18a3,3,0,0,0,3-3.75C217.23,96.49,215.13,94.74,212.58,93.79Zm-4.51-2.48c.05-2.49-1.19-3.64-3.64-3.6-2.18,0-3.57,1-3.39,3.27a3.8,3.8,0,0,0,3.83,3.79C207.17,94.89,208.06,93.43,208.07,91.31Zm35,1.64a3.66,3.66,0,0,0-3.38-3.1c-1.94-.2-3.24.69-3.33,2.77a2.7,2.7,0,0,0,3,3.14C241.21,95.77,242.36,94.67,243.05,93Z"/><path class="cls-4" d="M44.68,98.78a16.53,16.53,0,0,0,0-3.52c-1-4.44,7.28-4.44,4.48-10.06-1.9-3.81-.06-7.94,1.45-11.66,2.32-5.68,7.4-9.57,10.14-15,1.1-.37,2.21-1.08,3.3-1.06,4,.08,7.5,0,10.3-3.82,1.38-1.88,4.86-2.25,7-1.25,4.3,2,9.23,1.4,13.31,3.85-1.5.57-1.65,1.64-.82,2.78,2.46,3.36,3.18,5.68-2.23,6.83-2.9.62-1.7,4.58-3.2,6.82-1.25,1.85,1.7,1.61,2.84,2.26A4.3,4.3,0,0,1,92.05,82c-1.44,1.26-3.52,2.73-2.85,4.36,1.91,4.6-1.59,7.93-2,11.87-.34,3.26-1.84,3.6-4.55,3.75-2.34.12-5.4-2-6.7-.26-4.52,5.92-10.89,3.39-16.45,4.67a10.43,10.43,0,0,1-10-2.58C52,98.2,45.59,101.1,44.68,98.78ZM69.07,69.44c-8.6-1-8.64-1-9.76,8.5-.12,1-.41,1.53-1.33,1.68-2.38.39-4.62,1.53-4,4.1.71,2.79,1.66,5.84,4.59,7.47a2.89,2.89,0,0,0,3.68-.43c4.17-3.87,10-4.05,14.85-6.65s6-2.69,4-7.77c-.93-2.4-1.09-3.32,1.88-4a7.68,7.68,0,0,0,5.18-5.09c.52-1.73-1.88-2.93-3.29-4a4.66,4.66,0,0,0-5.23,0c-2,1.11-3.48,1.21-5.33-.53-2.13-2-4.7-1.74-6.6.56S66.47,67.6,69.07,69.44Zm8.26-8a3.35,3.35,0,0,0,3.18-2.66c.26-1.66-1.16-2.2-2.61-2.22s-2.64.6-2.84,2.17S75.82,61.17,77.33,61.46Z"/><path class="cls-5" d="M39.43,151.21c-1.4-4.42.46-7.21,4.45-9C47.7,144.37,53,141.13,56.3,146c.79,1.16,2.75-.78,3.78-2.26,1.44-2.09,2.33-5.06,5.82-4.67l1.87.16c.51,4.13,4.2,5.9,6.91,7.71s4.32-2,6.29-3.61c1.46-1.2,3.55-2,5-.28,2,2.28-1.22,2.45-2,3.59-.91,1.33-2.7,2.29-1,4.18,1.52,1.65,3.1,3.26,5.59,2a4.6,4.6,0,0,0,2.43-3.57c.42-2.3.55-4.74,4.39-2.74,1.49.78,5.52-.39,3.77-4-1-2-.11-2.4,1.11-2.87,2.17-.82,4.36-1.75,6.78-1.52l.09,2.06c-2.2-.11-4.34.58-4.61,2.84s2,2.09,3.65,2.27c-.17,4.55,2.75,9.85-3.16,13h-1.92a14.32,14.32,0,0,1-3.27-4.38c-.48-1-1-3.24-2.66-1.92-1.43,1.11-3,3.75-1.07,5,3.28,2.12,2.83,4,1.09,6.58-2.18,3.24-4.31,2.32-7.17.65-2.63-1.54-5.67-2.41-6.37,2.69-.49,3.5-5.87,5.19-8.42,2.56s-4-2-6.22,0a4.84,4.84,0,0,1-6.1.24c-1.65-1.17-2.78-3-1-5.14,1.15-1.4,0-2.07-1.13-2.63-1.38-.68-2.31-.64-3.24,1-1.11,2-10.4,3.25-11.89,1.74-1.65-1.66-1.89-4.31-.12-5.35,5-2.9,2.2-4-.88-5.06C41.08,153.65,40.8,151.89,39.43,151.21Z"/><path class="cls-5" d="M217,138.09c-1.22,2.42-2.11,5.23,0,7.25,2.76,2.68,5.37-1,8.16-1.05l.06,2c-5.47,5.13-11.49,9.68-15,16.65-7.63,15.17-8.57,31-5.81,47.47,2.42,14.42,7.85,28,11.11,42.2,1.44,6.28,1.26,6.43-5,5.7-3.16-.36-6.37-.23-9.56-.32.9-1,2.11-.85,3.27-.91,5.39-.28,5.62-.48,2.62-4.7a83.22,83.22,0,0,1-14.63-38.92c-.47-4-2.77-8.16-.46-12.39,2,.89.33,3.51,3.17,4.28,0-5.33.05-10.29,0-15.25-.13-11.35,3.33-21.6,9-31.31,2.53-4.29,6-8,7.49-13,.82-2.69.53-4.23-2.44-4.68a33,33,0,0,1,3.67-3.88C214.24,136,216.16,134.91,217,138.09Z"/><path class="cls-4" d="M209,141.1c3,.45,3.26,2,2.44,4.68-1.52,4.93-5,8.69-7.49,13-5.71,9.71-9.17,20-9,31.31.06,5,0,9.92,0,15.25-2.84-.77-1.19-3.39-3.17-4.28-2.31,4.23,0,8.44.46,12.39a83.22,83.22,0,0,0,14.63,38.92c3,4.22,2.77,4.42-2.62,4.7-1.16.06-2.37-.08-3.27.91l-14,1.41c2.64-1.79,6.46-2.36,7.29-6.07,1.17-5.21.57-10.66-2.71-14.62a14.44,14.44,0,0,1-3.41-6.85c-3.62-21.13-7.82-42.18-10.22-63.51,6.64,2.92,6.79,9.93,9.28,15.49,2.05-12.14,6.29-23.4,9.15-35,.55-2.26,1.83-4.39,4.69-4.59C204.71,145.91,206.49,142.6,209,141.1Z"/><path class="cls-5" d="M130.31,182.43c1.92,3.47,3.37,7.22,6.09,10.25.59.66,1.29,1.82.09,2.6-.74.48-1.59,0-2.31-.49q-5.84-4.31-11.7-8.58a13.58,13.58,0,0,0-2.88-2c-2.56-1-5.78-3.23-7.71-.12s2.08,3.82,3.75,5.35c12.1,11.08,23,23,27.94,39.18.33,1.06.56,2.3,2.59,2.79,1.15-7.29-2.4-13.95-2.73-22.31,6.52,7.3,7.54,15.42,8.76,23s1.68,15.51,4.33,23.86c3.32-7.41,1.29-14.63,2.53-21.93,2.52,1.88,1.47,4.2,1.51,6.07.1,4.08.54,8,2.58,11.61.65,1.15,1.68,2.37,3.2,2,1.79-.42,1.37-2.13,1.28-3.37-.22-3.15-.75-6.29-.91-9.44-.08-1.75-.66-3.74,1-5.2,2.56,5.29,2.62,11.15,3.92,16.73,1.68,7.15,2,7.37,9.41,7.68-9.47,3.22-19.48,4.75-28.49,9.45-2.83,1.47-3.27-1.62-3.94-3.26a110.52,110.52,0,0,1-6-21.26,113.64,113.64,0,0,0-8.91-27.66c-4.72-10-12.58-17.67-22.61-22.83.34-2.52-.74-4.33-2.47-6.13a7.35,7.35,0,0,1-1.94-7.68c1-2.65,3.5-.25,5.29-.54.43-.07.8-.53,1.19-.81l1.9.32,1.12.69c3.48,1.42,7,2.73,10.44,4.28C129.34,186,130.38,185.17,130.31,182.43Z"/><path class="cls-4" d="M221.17,91.82c-4.19,1.48-7.55,1.52-8.39-4.11-.31-2.09-2.41-1.89-4.1-2-5.89-.28-10.42-4.24-12.86-9.68-1.57-3.48-.53-8-4.22-10.58,2.16-3.61,5.4-3.72,8.71-2.23,2.29,1,3.2,1.45,4-1.67,1.62-6,7.88-8.28,13.18-4.95,2,1.25,3.08,1.48,5.17,0,4-2.82,8.22-1.38,13,3.73a6.07,6.07,0,0,0,2,7.17c1.28,1,2.61,2.18,2.68,4.07-2.89,2.5-6.34,4.05-8.26,8-1.18,2.45-5,5.55-8.57,1.18a1.94,1.94,0,0,0-2.64-.68c-.8.51-.73,1.44-.4,2.26C221.76,85.48,220.85,88.69,221.17,91.82Z"/><path class="cls-2" d="M39.43,151.21c1.37.68,1.65,2.44,3.27,3,3.08,1.07,5.86,2.16.88,5.06-1.77,1-1.53,3.69.12,5.35,1.49,1.51,10.78.24,11.89-1.74.93-1.64,1.86-1.68,3.24-1,1.11.56,2.28,1.23,1.13,2.63-1.78,2.18-.65,4,1,5.14a4.84,4.84,0,0,0,6.1-.24c2.25-2,3.69-2.6,6.22,0s7.93.94,8.42-2.56c.7-5.1,3.74-4.23,6.37-2.69,2.86,1.67,5,2.59,7.17-.65C97,161,97.43,159.08,94.15,157c-1.94-1.25-.36-3.89,1.07-5,1.7-1.32,2.18.9,2.66,1.92a14.32,14.32,0,0,0,3.27,4.38,27.31,27.31,0,0,1-7.85,11.36c-.51.44-1.18,1.34-1.5,1.23-5-1.71-5.83,2.78-8.07,5.25-2.4,2.66-5.12,3.71-8.73,1.79-1.35-.73-4.19-1.84-3.56,2.24a3,3,0,0,1-3.6,3.22c-2.41-.41-5.28-.08-6.52-3.45-2.15-5.85-2.32-5.77-7.22-1.76-2.51,2.05-4.77,1.6-6.14-1.24-.78-1.62-1.15-2.28-3.21-1.56-4.65,1.62-6.67.08-6.11-4.88.38-3.43.39-5.72-3.5-7.25-2.27-.9-2.89-3.87-2.58-6.59C33,152.44,36.66,152.39,39.43,151.21Z"/><path class="cls-4" d="M107.1,138.09c-2.42-.23-4.61.7-6.78,1.52-1.22.47-2.09.84-1.11,2.87,1.75,3.61-2.28,4.78-3.77,4-3.84-2-4,.44-4.39,2.74a4.6,4.6,0,0,1-2.43,3.57c-2.49,1.26-4.07-.35-5.59-2-1.75-1.89,0-2.85,1-4.18.77-1.14,3.94-1.31,2-3.59-1.45-1.69-3.54-.92-5,.28-2,1.63-3.6,5.4-6.29,3.61s-6.4-3.58-6.91-7.71a19.53,19.53,0,0,1,9.86,1.34c1.34.58,2.65.8,3.63-.51a3.13,3.13,0,0,0,.07-3.77c-.63-1-1.47-1.85-1.44-3.13l0,0c1.5-.15,3.22,1.85,4.51-.3,1-1.69-.07-2.77-1.4-3.71s-1.41-2.61-.1-2.63c2.81,0,4.87-5.59,8.35-1,1.06,1.41,2.87.18,3.78-1.11,1.91-2.7.9-4.9-1.22-7.07s-4-3.23-6.18-.43c-1.76,2.25-3.7,2.15-6.19,1.25-3.07-1.11-7.19-1.8-9.4-.23a12.62,12.62,0,0,1-10.4,2c-5.16-1-6.56,1.53-7.22,5.63-2.2-.31-3.49-1-2.19-3.61,2.48-5,5.71-6.92,10.92-5.61,2.27.56,3.18.1,4.41-1.74,2.79-4.18,7.68-5.15,11.17-1.79,3,2.87,5.08,3.93,7.9.11.56-.75,2.12-.75,3.22-1.1,1.3,1.94,3.66,2.2,5.42,3.41,2.08,1.45,4.39,3,3.68,6-1.35,5.48,2.29,7.22,6.16,8.94v0c0,2,1.06,2.91,2.94,3.09A7.18,7.18,0,0,1,107.1,138.09Z"/><path class="cls-2" d="M174.77,107.92c4-1.75,5.32-5.25,3.36-8.6-3-5.07-.12-6.91,3.52-8.87,1.13.39,2.2.9,2.13,2.3-.27,5.21,3.17,5.19,6.83,4.92a9.15,9.15,0,0,0,1.27,3.73c2.9,5,.22,10.55-5.55,11.43-2,.3-3.38.26-3.67,2.9-1.1,9.87-7.81,12.67-16,6.83-.4-.28-.82-.52-1.67-1.07-.91,2.69.43,5.78-2.11,7.9a9.75,9.75,0,0,1-7.79,2.65c-3.43-.43-6.78-1.6-8.36-4.77-1.41-2.82-2.48-2.54-4.71-1.09-7.2,4.68-11,3.47-14.83-4.39a22.44,22.44,0,0,0-2-2.84l-.21-.21c1.61-3.22,3.11-1.19,4.64.09,5.47,4.59,10.23,4.58,15.5,0,1.23-1.06,2.15-2.5,4.22-1,6.37,4.65,10.17,4.17,15.22-1.93,1.64-2,3-2.7,4.76-.42a2.46,2.46,0,0,0,3.43.92,3.06,3.06,0,0,0,1.84-3.7C174.41,111.08,173.51,109.49,174.77,107.92Zm13.1-4.25c0-2.23-.74-4.25-3.11-4.37s-3.71,1.82-3.69,4,.9,4.44,3.68,4.54S187.9,105.87,187.87,103.67Z"/><path class="cls-3" d="M54.47,125.47c.66-4.1,2.06-6.66,7.22-5.63a12.62,12.62,0,0,0,10.4-2c2.21-1.57,6.33-.88,9.4.23,2.49.9,4.43,1,6.19-1.25,2.21-2.8,4.13-1.67,6.18.43s3.13,4.37,1.22,7.07c-.91,1.29-2.72,2.52-3.78,1.11-3.48-4.6-5.54,1-8.35,1-1.31,0-1.1,1.78.1,2.63s2.41,2,1.4,3.71c-1.29,2.15-3,.15-4.51.3l-.45-.39.4.44c0,1.28.81,2.14,1.44,3.13a3.13,3.13,0,0,1-.07,3.77c-1,1.31-2.29,1.09-3.63.51a19.53,19.53,0,0,0-9.86-1.34L65.9,139c-.4-1.69.51-3.57-.85-5.47-1,.85-1.76,1.64-2.64,2.34-1.89,1.48-4,2.16-5.63-.08a4.79,4.79,0,0,1,.19-6.41c1.26-1.45,2.94-1.29,4.61-1.37,1.05-.05,2.72.46,2.7-1.22,0-1-1-2.12-1.75-2.9-1.1-1.08-1.67.13-2.28.85-1.57,1.85-3.68,1.07-5.62,1.17A.65.65,0,0,1,54.47,125.47Z"/><path class="cls-5" d="M49.45,103.8a10.43,10.43,0,0,0,10,2.58c5.56-1.28,11.93,1.25,16.45-4.67,1.3-1.7,4.36.38,6.7.26,2.71-.15,4.21-.49,4.55-3.75.41-3.94,3.91-7.27,2-11.87-.67-1.63,1.41-3.1,2.85-4.36a4.3,4.3,0,0,0-.79-7.06c-1.14-.65-4.09-.41-2.84-2.26,1.5-2.24.3-6.2,3.2-6.82C97,64.7,96.31,62.38,93.85,59c-.83-1.14-.68-2.21.82-2.78,1.51.87,2.61,2.12,4.75,2.2,8.1.29,9.42,3.27,4.88,10.32-3-.37-7,.68-6.08,3.39a9.38,9.38,0,0,1-1,8.88C94,85.85,93.74,91,94.05,96.33c.25,4.33-.06,8.53-2.13,12.45-5.34-.39-10.68,1.94-16.12-.67a8,8,0,0,0-8.16,1.23c-3.78,3.58-8.11,2.51-12.29,2.52C50.71,111.86,48.69,108.83,49.45,103.8Z"/><path class="cls-5" d="M142.48,24.11c4.73-.15,8.82.57,9.29,6.52.12,1.6,1.43,1.78,2.61,1.59,5.63-.95,7.35,2.51,8.13,7.07a15.78,15.78,0,0,1-3.84.92c-3.74,0-6.28.7-6.44,5.37-.09,2.33-2.76,3.5-5,2.79-5.84-1.79-8.38,1.94-10.87,6l-6.91.4c-3-2-6-2-8.41.7-3.51,3.86-7.18,4.28-11.46,1.44-.61-.41-1.62-.22-2.44-.31-1.33-1.5-3.12-1-4.74-1-3.71,0-6.74-1.38-7.83-5.06-1-3.47,2.93-3.43,4.35-5.23,1,1.85-2.11,4.4.86,5.85,2.34,1.14,3.44-1,5.1-2,2.07-1.3,5-1.3,6.28,1,3,5.45,6.08,1.86,9,.33,1.07-.57,1.74-2,3.25-2l2,.05c2.57,2.29,4.11.2,5.86-1.29,1.19-1,1.91-2.52,4-2.39,8.92.53,10.53-1.65,7.27-9.45l1-1c4-1,3.91-3.47,1.58-5.79A9.93,9.93,0,0,1,142.48,24.11Z"/><path class="cls-4" d="M168.62,41.36c-1.52-2-3.36-4.08-.92-6.57,2.17-2.21,4.82-2.27,7.29-.67,1.61,1,2.68,1.24,4.44.13,4.12-2.61,8.09-1.83,11.41,1.91.77.86,1.38,2.48,2.55,2,6-2.22,8,1.78,9.91,6-1.37.77-2.5,1.34-1.6,3.46,1.2,2.83-1.59,6.61-4.22,5.5-5.2-2.21-9.56,1-14.33,1.11-2.76.06-5.86.87-4.93-3.72.26-1.27,0-2-1.33-2.06-3.55,0-5.15-1.83-5.26-5.31C171.57,41.33,170,41.47,168.62,41.36Z"/><path class="cls-3" d="M125.31,48.49l-2-.05c-.48-2.58-1.54-3.8-3.94-1.61-2.12,1.94-4.59,2.64-6.58.37s-4-2-6.3-1.36c-1.84.51-3.62,1.15-4.9-.83a3.12,3.12,0,0,1,.27-3.73A3.48,3.48,0,0,1,106.66,40a3.11,3.11,0,0,0,3.71-.56c1.17-1.2.78-2.41-.15-3.56-2-2.44-.45-3.94,1.44-5.3,1.31-.94,3.25-1.08,3.69-3.06l1.56-.37a6.88,6.88,0,0,0,1.5,0c3.7-.79,7.86-2.88,8.17,3.85.08,1.55,1.93,1.47,2.74.53,2.17-2.52,5.06-2.06,7.84-2.46,6.25-.9,6.24-1,6.35,5.24l-1,1c-1.46-.21-2.91-.52-4.38-.59-1.83-.1-4.76.39-4.75,1.64C133.38,42.45,128.43,44.8,125.31,48.49Z"/><path class="cls-2" d="M145.42,145.32c-2.07-3.16-2-7-3.54-10.39a2.45,2.45,0,0,1,.6-3.19c1.32-1.06,2.48-.48,3.57.5a15.78,15.78,0,0,0,11.09,3.93c2.31,0,4.52-.51,6-2.17a12.88,12.88,0,0,1,10.61-4.63c3.4,0,4.24.66,3.93,3.65-.21,2-.46,4-.69,6l-.28.23-.88-.11-1.09-.93c-1.66.83-2.95,2-3,4h0c-1.62,5.47-5.27,5.94-9.94,4.08a90.78,90.78,0,0,0-9.72-3.59C149.4,141.92,146.21,141,145.42,145.32Z"/><path class="cls-5" d="M168.62,41.36c1.33.11,2.95,0,3,1.86.11,3.48,1.71,5.27,5.26,5.31,1.3,0,1.59.79,1.33,2.06-.93,4.59,2.17,3.78,4.93,3.72,4.77-.12,9.13-3.32,14.33-1.11,2.63,1.11,5.42-2.67,4.22-5.5-.9-2.12.23-2.69,1.6-3.46,4.16,0,7.9.88,10.53,4.48.58.81,1.39,1.52,1.11,2.62-.32,1.27-1.45,1.19-2.43,1.19-4.62,0-8.52,1.29-10.66,5.82a2.12,2.12,0,0,1-2.5,1.15c-3.89-.64-7.54.74-11.29,1.27-2.4-3.6-5.66-.47-8.44-1.1a14.58,14.58,0,0,1-1.89-1.59c-2.53-3-8-2-9.2-4.72s.55-6.55-1.89-9.69C164.72,41.2,167.52,41.79,168.62,41.36Z"/><path class="cls-5" d="M201,144.21c-2.86.2-4.14,2.33-4.69,4.59-2.86,11.61-7.1,22.87-9.15,35-2.49-5.56-2.64-12.57-9.28-15.49-.54-8.72-2.63-17.32-2.23-26.12l1.1,0a4,4,0,0,1,.83.12c.94,6.07,1.58,12.22,4.12,17.92.75,1.69,1.51,3.38,3.86,3.3,2.15-.08,2.68-1.76,3.36-3.24a110.77,110.77,0,0,0,7.16-22c1.7-.4,3.08.6,4.59,1.07.11.27.23.54.35.81C201,141.48,201,142.84,201,144.21Z"/><path class="cls-2" d="M159.39,269.8c3-2.59,6.77-3.56,10.5-4.26,9.3-1.76,18.4-4.81,28-4.52a2.94,2.94,0,0,0,2.68,3.07c.77.13,1.85,0,1.89,1.16s-1,1.63-1.9,2a40.14,40.14,0,0,1-4.2,1.58A124.56,124.56,0,0,1,172,273C167.68,273.37,162.45,275.14,159.39,269.8Z"/><path class="cls-2" d="M245.57,156.71c1.62,2.41,2.81,4.65.1,6.69-3,2.23-6.25,2.93-9.36.88-2.52-1.67-3.51-1.72-5,1.24-1.6,3.2-8.39,4.12-11.28,2a4,4,0,0,1-1.45-1.93c-.21-.68.47-1.16,1.22-1.23,6.77-.56,11-6.75,17.54-7.88.77-.13,1.66-1.25,2.16-1.06,3.87,1.52,3.8-.44,3.89-3.5.11-3.29,11-7.3,13.79-5.27,2.13,1.56,1.29,3.55.35,5.41C255.1,156.9,250.34,156.2,245.57,156.71Z"/><path class="cls-2" d="M131.32,148.27c-3.42-2-5.57-1.36-5,3,.78,6.33-1.83,11.44-5.2,16.38-3.51-1-4.07-5.19-8.08-6.53,6.21-2.82,7.62-6.71,4.76-12a3.28,3.28,0,0,1,.41-4.17c3-2.93,2.55-6.21,1.19-9.66-.5-1.27-2.08-2.9,0-3.82,1.9-.84,3.77-.4,5,1.83,2.91,5.05,6.06,10,9.11,14.91Z"/><path class="cls-4" d="M54.63,126c1.94-.1,4,.68,5.62-1.17.61-.72,1.18-1.93,2.28-.85.8.78,1.74,1.91,1.75,2.9,0,1.68-1.65,1.17-2.7,1.22-1.67.08-3.35-.08-4.61,1.37a4.79,4.79,0,0,0-.19,6.41c1.64,2.24,3.74,1.56,5.63.08.88-.7,1.68-1.49,2.64-2.34,1.36,1.9.45,3.78.85,5.47-3.49-.39-4.38,2.58-5.82,4.67-1,1.48-3,3.42-3.78,2.26-3.3-4.84-8.6-1.6-12.42-3.71-2.54-7.15-1.19-10,6.17-11.92C52.59,129.66,54.24,128.61,54.63,126Z"/><path class="cls-5" d="M159.39,269.8c3.06,5.34,8.29,3.57,12.56,3.2a124.56,124.56,0,0,0,24.44-4.16,40.14,40.14,0,0,0,4.2-1.58c.9-.38,1.94-.82,1.9-2s-1.12-1-1.89-1.16a2.94,2.94,0,0,1-2.68-3.07c3.5,0,6.93-1.64,10.45-.63,1.65.48,4.12.28,4.41,2.6.24,1.89-1.74,2.6-3.12,3.52-5.69,3.8-12.26,5.16-18.7,7a93,93,0,0,1-29.84,2.86,5.3,5.3,0,0,1-1.5-.09c-2-.8-5.63.1-5.84-2.6C153.55,270.58,157.05,270.48,159.39,269.8Z"/><path class="cls-5" d="M190.61,97.67c-3.66.27-7.1.29-6.83-4.92.07-1.4-1-1.91-2.13-2.3l.09-1.52c1.94-.35,2.52-1.6,1.77-3.26-.52-1.15-1.33-.41-1.94.16-1.16-.11-2.57,0-2.69-1.61-.21-2.78-2.09-4-4.26-5.08-1.31-.64-2.36-1.48-1.44-3.11a2.77,2.77,0,0,1,3.49-1.2c.93.28,1.7,1,2.62,1.42,1.74.71,3.47.58,4.19-1.38s.16-3.82-2.24-4.09c-2-.23-3.73-.4-3.56-3,7.52.28,11.48,3.66,11.23,9.7,0,1.12-.12,2.73-.83,3.25-4.2,3.12-2,4.62,1.2,6.37C194.43,89.92,192.45,93.85,190.61,97.67Z"/><path class="cls-2" d="M113.25,179.46c-.39.28-.76.74-1.19.81-1.79.29-4.26-2.11-5.29.54a7.35,7.35,0,0,0,1.94,7.68c1.73,1.8,2.81,3.61,2.47,6.13-7.35-2.88-15.56-2.07-22.85-5.23a4,4,0,0,1-2.23-1.84H96.63c1.39,0,3.12-.14,3.61-1.31.63-1.51-1.2-2.08-2.21-2.86-1.31-1-2.62-2.07-4.42-3.49,4.27-.8,7.88-2.15,10.16-5.64.51-.8.71-1.09,1.73-.25C107.94,176,110.65,177.66,113.25,179.46Z"/><path class="cls-4" d="M115.35,27.56c-.44,2-2.38,2.12-3.69,3.06-1.89,1.36-3.43,2.86-1.44,5.3.93,1.15,1.32,2.36.15,3.56a3.11,3.11,0,0,1-3.71.56,3.48,3.48,0,0,0-4.79,1.24A3.12,3.12,0,0,0,101.6,45c1.28,2,3.06,1.34,4.9.83,2.25-.62,4.34-.88,6.3,1.36s4.46,1.57,6.58-.37c2.4-2.19,3.46-1,3.94,1.61-1.51,0-2.18,1.46-3.25,2-2.88,1.53-6,5.12-9-.33-1.28-2.35-4.21-2.35-6.28-1-1.66,1-2.76,3.19-5.1,2-3-1.45.19-4-.86-5.85l0,.05.58-.49-.75-.27c-1-1.17-1.86-2.42-1.66-4,.16-1.38.74-2.87,2-3.27C105.35,35.36,105.47,23.3,115.35,27.56Z"/><path class="cls-5" d="M47.58,123.08c1.44,6-4.17,7-6.95,10.06-3.26-2-7.07,1.23-10.3-1.08a16.37,16.37,0,0,0,1.3-9.76c-.68-3.76,1.16-7.15,5.91-7.39C40.38,118.26,42.55,122.42,47.58,123.08Z"/><path class="cls-2" d="M136.31,54.34c2.49-4,5-7.76,10.87-6,2.29.71,5-.46,5-2.79.16-4.67,2.7-5.39,6.44-5.37a15.78,15.78,0,0,0,3.84-.92c-1.82,2.32-1.89,4.35.75,6.22,2,1.39,2.84,3.17,1.18,5.5-1.42,2-2.9,2.77-5.49,1.88-5.74-2-11.39-2.22-16.5,2C140.39,56.64,138.34,54.77,136.31,54.34Z"/><path class="cls-2" d="M107.1,138.09a7.18,7.18,0,0,0,1-4.93,2.76,2.76,0,0,0-2.94-3.09v0l-.06-2.92c4.29-1.07,7.59,1.49,7.43,6,0,1.21-.47,2.3.8,3,4.35,2.56,2.9,5.41.27,8.08-1.87,1.88-2.71,3.14-.55,5.73,2.79,3.34,1.38,6.71-3,7.75-2.24.54-4.58,1.9-7,.56,5.91-3.16,3-8.46,3.16-13,1.69-1.45,4.58-2.67,1-5.11Z"/><path class="cls-4" d="M145.42,145.32c.79-4.33,4-3.4,6.61-2.68a90.78,90.78,0,0,1,9.72,3.59c4.67,1.86,8.32,1.39,9.94-4.08,0,1.33.08,2.67,0,4-.14,3.87-1.3,6-5.9,4.39-3.37-1.18-6.94-2.14-10.53.28-3.34,2.26-5.67,4.62-4.07,9a6.73,6.73,0,0,1-.77,5.75A120.53,120.53,0,0,1,145.42,145.32Z"/><path class="cls-2" d="M102,101.81c1,.61.93,1.62,1.13,2.6.94,4.59,4,5.92,7.85,3.18,1.77-1.26,3-2.15,4.28.3-.06,2.16,0,4.2-1.39,6.22a2.88,2.88,0,0,0,2,4.64c3,.28,6.2,1.89,9.26,0l.21.21c-.74,4.26-2.31,7.92-7.41,7.91-4,0-7.64-4.6-7.68-9.64,0-2.71-.27-4.09-3.66-4.39C100.64,112.32,98.76,107.21,102,101.81Z"/><path class="cls-2" d="M201,144.21c0-1.37,0-2.73,0-4.09,2.86.56,4.35-1.4,5.71-3.3a34,34,0,0,0,6-12.56c3.24,2.72,6.68,3.86,11,2.43-3,3.52-4,7.93-6.72,11.4-.88-3.18-2.8-2.12-4.4-.87A33,33,0,0,0,209,141.1C206.49,142.6,204.71,145.91,201,144.21Z"/><path class="cls-5" d="M131.32,148.27l2.21-.13c9.67,7.43,14.21,17.63,15.9,29.37-6.27-2.41-8-8.24-10.19-13.66S133,154,131.32,148.27Z"/><path class="cls-2" d="M91.92,108.78c2.07-3.92,2.38-8.12,2.13-12.45C93.74,91,94,85.85,97.22,81a9.38,9.38,0,0,0,1-8.88c-1-2.71,3.09-3.76,6.08-3.39-1.07,4.16-4.17,8-1.35,12.71.73,1.22-.74,2.29-1.77,3.26-3.83,3.63-6.4,7.44-3.75,13.24C99.31,102.09,95.6,108.54,91.92,108.78Z"/><path class="cls-2" d="M30.33,132.06c3.23,2.31,7-.92,10.3,1.08a62.6,62.6,0,0,1-4.05,12.25c-1.52,3.11-3.09,2.8-5.34,1.11C26.63,143,26.13,135.38,30.33,132.06Z"/><path class="cls-2" d="M47.58,123.08c-5-.66-7.2-4.82-10-8.17,1.93-1.1,3.47-2.33,3-5a6.65,6.65,0,0,1,1.69-5.09c.59-.77,1.25-1.74,2.39-1.5,1.33.29.82,1.58,1.09,2.46.42,1.42.55,3.35,1.53,4.12C52.93,114.29,50.48,118.63,47.58,123.08Z"/><path class="cls-2" d="M272.64,119.18c-.65,3.33-1.27,6.4-5.09,6.76-3.62.33-8.78-3.77-8.78-6.81,0-1.39,1.21-3.52,1.66-3.32,4.25,1.91,5.18-5,8.87-3.3C272,113.78,271.84,116.94,272.64,119.18Z"/><path class="cls-4" d="M143.51,34.38c-.11-6.23-.1-6.14-6.35-5.24-2.78.4-5.67-.06-7.84,2.46-.81.94-2.66,1-2.74-.53-.31-6.73-4.47-4.64-8.17-3.85a6.88,6.88,0,0,1-1.5,0c2.39-3.85,9.33-6.37,12.84-3.55,3.9,3.13,7,2.68,10.77.62a5,5,0,0,1,2-.15,9.93,9.93,0,0,0,2.61,4.48C147.42,30.91,147.48,33.39,143.51,34.38Z"/><path class="cls-5" d="M105.1,127.13l.06,2.92c-3.87-1.72-7.51-3.46-6.16-8.94.71-2.92-1.6-4.52-3.68-6-1.76-1.21-4.12-1.47-5.42-3.41,5.63-.47,9.81,2.71,13.78,5.92,1.64,1.33,1.86,3.77.39,5.9C103,125,102.35,126.64,105.1,127.13Z"/><path class="cls-2" d="M107.09,56.57c.82.09,1.83-.1,2.44.31,4.28,2.84,8,2.42,11.46-1.44,2.43-2.68,5.41-2.73,8.41-.7-4.4,5.82-10.86,6.06-17.29,6.47C108.71,61.43,108.36,58.54,107.09,56.57Z"/><path class="cls-5" d="M88.36,44.34c1.54.27,4.14-.44,3.33,2.26-.52,1.7.32,5.41-3,4.74-2.63-.54-7.19-.82-7.26-3.59S85.53,44.58,88.36,44.34Z"/><path class="cls-2" d="M200.65,139.31c-1.51-.47-2.89-1.47-4.59-1.07-.24-3,.38-6-.79-8.92-.35-.86-.7-2.2.47-2.6,1.49-.51,1.93,1,2.41,2C199.74,132.05,200.11,135.7,200.65,139.31Z"/><path class="cls-2" d="M262.15,92.13c2.82.24,7.06,6.17,6.1,7.49-1.46,2-3.56.41-4.84-.21-2.19-1.07-2-3.61-1.87-5.83A2.15,2.15,0,0,1,262.15,92.13Z"/><path class="cls-2" d="M179.62,59.67c2.78.63,6-2.5,8.44,1.1-.17,1.81,0,3.65-2.75,3.88C181.51,65,180.47,62.52,179.62,59.67Z"/><path class="cls-2" d="M225.21,146.26l-.06-2c3.13-2.33,6.43-4.27,10.6-4.36C232.83,143,229.88,146,225.21,146.26Z"/><path class="cls-5" d="M151.59,177.39c1.72,2.06.79,4.47.84,6.73,0,.68-.29,1.89-1.39,1.46-.89-.35-.44-1.46-.47-2.26C152.34,181.59,151,179.33,151.59,177.39Z"/><path class="cls-5" d="M150.51,182.57c-1.18-.87-1-2.1-.9-3.32C150.67,180.15,150.64,181.35,150.51,182.57Z"/><path class="cls-2" d="M177.56,142.29a4,4,0,0,0-.83-.12l0-3L177,139A3.7,3.7,0,0,1,177.56,142.29Z"/><path class="cls-5" d="M98.75,44.58l.75.27-.58.49C98.86,45.09,98.8,44.83,98.75,44.58Z"/><path class="cls-2" d="M116.27,180.47l-1.12-.69Z"/><path class="cls-4" d="M176.7,139.21l0,3-1.1,0-3.95-.06c.1-2,1.39-3.14,3-4l1.09.93Z"/><path class="cls-3" d="M150.39,71.1c-1.8,5.37,1.11,3.38,4.27,1.71A9.13,9.13,0,0,1,161,71.73c2.37.58,3.85,1.7,2.92,4.66-1.33,4.24-2.19,8.63-3.47,12.89-1,3.26-5.66,5.3-9.08,3.81-2.07-.89-3.63-1.2-5.45.41-1,.85-2.52,1.85-3.69,1-4.49-3.13-7.31-2.44-10.69,2.22-2.79,3.86-10.37.81-12-5C118.06,86.41,114.41,81,118.44,75c1.52-2.25-.71-2.17-2.21-2.41-1.66-.25-4,1.1-4.76-1.43-.44-1.45,1-2.34,2-3.28,1.64-1.64,4-2.12,5.48-.72,2.78,2.74,4.93,2.33,7.83.3s5.53-.57,8,1.79c1.87,1.82,4.32,4.18,4.95-1.33a4.64,4.64,0,0,1,5.86-4.14C148.67,64.58,151.05,66.41,150.39,71.1Z"/><path class="cls-5" d="M125.06,118.74c-3.06,1.9-6.23.29-9.26,0a2.88,2.88,0,0,1-2-4.64c1.36-2,1.33-4.06,1.39-6.22,1.31.17,3.14-.15,3.85.59,3.54,3.71,6.75,4.1,10.36.12.9-1,1.5.2,2.05,1.16,3.79,6.48,8.81,7.18,13.83,1.67,1.77-1.94,2.5-2.54,4.3-.09s4.24,4.35,7.74,3.19c3.66-1.21,4.61-3.91,4.32-7.47-.13-1.59.23-4.35,2.43-2,3.18,3.47,6.93,2.61,10.66,2.81-1.26,1.57-.36,3.16-.1,4.77a3.06,3.06,0,0,1-1.84,3.7,2.46,2.46,0,0,1-3.43-.92c-1.72-2.28-3.12-1.56-4.76.42-5,6.1-8.85,6.58-15.22,1.93-2.07-1.52-3-.08-4.22,1-5.27,4.61-10,4.62-15.5,0C128.17,117.55,126.67,115.52,125.06,118.74Z"/><path class="cls-2" d="M181.57,85.83c.61-.57,1.42-1.31,1.94-.16.75,1.66.17,2.91-1.77,3.26C181.68,87.9,181.62,86.87,181.57,85.83Z"/><path class="cls-5" d="M221.17,91.82c-.32-3.13.59-6.34-.64-9.42-.33-.82-.4-1.75.4-2.26a1.94,1.94,0,0,1,2.64.68c3.53,4.37,7.39,1.27,8.57-1.18,1.92-4,5.37-5.54,8.26-8,4.11.65,4,3.71,4.06,6.83s-1.51,5.33-4.22,6.07c-4,1.08-6.08,3.26-7.22,7.22-.88,3.06-3.55,4.64-5.85,1.34C225.24,90.27,223.33,91.36,221.17,91.82Z"/><path class="cls-5" d="M212.58,93.79c2.55.95,4.65,2.7,5.28,5.33a3,3,0,0,1-3,3.75c-3.62.21-5-2.33-5.63-5.18C208.83,95.6,210.59,94.52,212.58,93.79Z"/><path class="cls-5" d="M208.07,91.31c0,2.12-.9,3.58-3.2,3.46A3.8,3.8,0,0,1,201,91c-.18-2.29,1.21-3.23,3.39-3.27C206.88,87.67,208.12,88.82,208.07,91.31Z"/><path class="cls-5" d="M243.05,93c-.69,1.72-1.84,2.82-3.72,2.81a2.7,2.7,0,0,1-3-3.14c.09-2.08,1.39-3,3.33-2.77A3.66,3.66,0,0,1,243.05,93Z"/><path class="cls-3" d="M69.07,69.44c-2.6-1.84-3.13-4-1.32-6.18s4.47-2.57,6.6-.56c1.85,1.74,3.36,1.64,5.33.53a4.66,4.66,0,0,1,5.23,0c1.41,1.06,3.81,2.26,3.29,4A7.68,7.68,0,0,1,83,72.32c-3,.7-2.81,1.62-1.88,4,2,5.08.72,5.24-4,7.77s-10.68,2.78-14.85,6.65a2.89,2.89,0,0,1-3.68.43c-2.93-1.63-3.88-4.68-4.59-7.47-.65-2.57,1.59-3.71,4-4.1.92-.15,1.21-.64,1.33-1.68C60.43,68.43,60.47,68.44,69.07,69.44Z"/><path class="cls-3" d="M77.33,61.46c-1.51-.29-2.47-1.11-2.27-2.71s1.36-2.19,2.84-2.17,2.87.56,2.61,2.22A3.35,3.35,0,0,1,77.33,61.46Z"/><path class="cls-4" d="M107.19,140.15c3.62,2.44.73,3.66-1,5.11-1.61-.18-3.93.06-3.65-2.27S105,140,107.19,140.15Z"/><path class="cls-5" d="M105.17,130.07a2.76,2.76,0,0,1,2.94,3.09C106.23,133,105.17,132,105.17,130.07Z"/><path class="cls-5" d="M187.86,103.68c0,2.19-.32,4.22-3.11,4.12s-3.65-2.35-3.68-4.54,1.39-4.07,3.69-4S187.92,101.44,187.86,103.68Z"/><path class="cls-4" d="M79.89,133.13l-.4-.44.45.39Z"/><path class="cls-4" d="M125.31,48.49c3.12-3.69,8.07-6,8-12.08,0-1.25,2.92-1.74,4.75-1.64,1.47.07,2.92.38,4.38.59,3.26,7.8,1.65,10-7.27,9.45-2.12-.13-2.84,1.38-4,2.39C129.42,48.69,127.88,50.78,125.31,48.49Z"/><path class="cls-5" d="M175.82,139.1l-1.09-.93Z"/></g></svg>