<svg width="19" height="14" viewBox="0 0 19 14" fill="none" xmlns="http://www.w3.org/2000/svg">
<path d="M17.6561 5.6665H0.629638C0.281899 5.6665 0 5.97483 0 6.35517V7.6445C0 8.02484 0.281899 8.33317 0.629638 8.33317H17.6561C18.0038 8.33317 18.2857 8.02484 18.2857 7.6445V6.35517C18.2857 5.97483 18.0038 5.6665 17.6561 5.6665Z" fill="#E8E8E8"/>
<path d="M17.6561 10.3999H0.629638C0.281899 10.3999 0 10.7082 0 11.0886V12.3779C0 12.7582 0.281899 13.0666 0.629638 13.0666H17.6561C18.0038 13.0666 18.2857 12.7582 18.2857 12.3779V11.0886C18.2857 10.7082 18.0038 10.3999 17.6561 10.3999Z" fill="#E8E8E8"/>
<path d="M17.6561 0.933105H0.629638C0.281899 0.933105 0 1.24143 0 1.62177V2.91111C0 3.29145 0.281899 3.59977 0.629638 3.59977H17.6561C18.0038 3.59977 18.2857 3.29145 18.2857 2.91111V1.62177C18.2857 1.24143 18.0038 0.933105 17.6561 0.933105Z" fill="#E8E8E8"/>
</svg>
