<svg xmlns="http://www.w3.org/2000/svg" viewBox="0 0 300 300"><defs><style>.cls-1{fill:#466f41;}.cls-2{fill:#b9322f;}.cls-3{fill:#51944f;}.cls-4{fill:#83b952;}.cls-5{fill:#69ab53;}.cls-6{fill:#a2c64e;}.cls-7{fill:#fefdfd;}.cls-8{fill:#dd8a37;}.cls-9{fill:#d14f38;}.cls-10{fill:#e4b536;}.cls-11{fill:#f5eb66;}</style></defs><title>fp</title><g id="морковь"><path class="cls-1" d="M192.07,78.69a5.33,5.33,0,0,1,1.76,4.07c0,1.32-.45,2.74.61,4.2,2.21-1,2.95-3.26,4.19-5,2.89-4,5.76-7.94,10.36-10.14,3-1.43,6.18-2.51,8.91.32s1.19,5.73-.28,8.49c-.85,1.58-1.91,3-2.94,4.67,2.2,0,4.2,0,6.2,0a13.89,13.89,0,0,1,6.51,1.33c2.31,1.18,4.39,2.66,4.46,5.58.08,3.58-2.52,5-5.93,6.26,3.46,1.8,6.77,2.75,9.54,4.75,5.57,4,5.22,9-1.11,11.7s-12.92,3.61-19.52.53a7.17,7.17,0,0,0-2-.63,17.41,17.41,0,0,0-2.47,0c1.85,2.63,4.46,4.21,5.68,6.93,1.46,3.26,2.14,6.6-.48,9.39s-5.75,1.83-8.58.43c-3.26-1.61-6.59-3-10-4.33-4.06-1.6-6.82-4.63-9-8.33-3.25-5.48-6.34-6.63-12.25-4.5-4.46,1.62-8.8,3.52-11.59,7.69-12.89-4.77-24.73-11.9-37.55-16.82-1.53-13.11-7.82-18.86-21.08-19.77-6.36-.43-12.85-.07-19-2.36-3.15-1.17-6.14-2.58-6-6.53s2.93-5.39,6.19-6.45a43,43,0,0,1,13.72-1.79c-6.72-4.1-15.12-3.12-21.8-7.2a3.2,3.2,0,0,1,1.75-1.84c3.24.64,6.48,1.32,9.73,1.92,6.46,1.18,12.73,2.81,17.19,8.15.58.7,2.67,1.73,0,2.51a21.19,21.19,0,0,0-6.78-.58c-2.86,0-5.78-.81-8.54.59A10.21,10.21,0,0,0,86,73.28c-2,1.12-3.54,2.37-1.55,4.78a5.9,5.9,0,0,0,3.32,1.78C93.62,81.6,99.45,83.2,105.63,83c13-.51,20.82,6.31,23.52,19.26.32,1.52.75,3.83,2.14,3.6,2-.34.75-2.41.56-3.79a20,20,0,0,0-.36-2.46c-1.43-5-1.11-10.54-4.61-14.9a75,75,0,0,0-9.25-19.41c-.3-.62-.62-1.23-.9-1.86-2.16-4.9-6.29-8.71-7.81-14l3.29,2.95c4,6.7,9.18,12.65,12.62,19.71,1.47,2.1,0,5.63,3.31,6.82.25.56.51,1.12.77,1.69.68,2.53,1.2,5.13,2.12,7.58.41,1.07.11,3.33,2.16,2.88,1.56-.35.94-2.13.9-3.27-.16-4.84.29-9.52,3.9-13.15A14.76,14.76,0,0,0,142.35,61a17.75,17.75,0,0,0,0-7.33c1.51-.9,2.82-1,3.61.9-1.94,3.13-2.58,6.5-1,9.87a80.52,80.52,0,0,0,5.43,9.84,13.71,13.71,0,0,1,1.4,12.37c-1.42,4.36-3,8.68-4.44,13-2.17,2.49-2.24,5.89-3.73,8.7-.43.8-.62,2.4.8,2.85s1.48-1,1.73-1.8c.85-2.9,2.81-5.5,2.35-8.74,5.08-8.62,8.59-18.1,14.67-26.18,2.83-3.76,5.44-7.69,8.15-11.55,2.68-1.7,3.82-5.27,7.31-6,0,1.27-.9,2-1.61,2.8-6.86,7.89-12.4,16.68-17.61,25.7-3.58,4.61-5.17,10.13-7,15.72,4.24-6.57,10.43-10.53,17.09-13.9,1.37,0,2.75-.14,4.12-.14,5.45,0,6.83,1.51,6.78,6.9a20.26,20.26,0,0,1-1,4.8c-5.79,4.62-13.2,6.68-18.63,11.9-1.37,1.32-2.86,2.42-2.74,5.42a87.09,87.09,0,0,1,15.72-9.86c3-1.47,6.5-1.74,9.15-4,5.94-.77,11.24-4.81,17.6-3.44l13.31.06.06.84a85.28,85.28,0,0,0-15,1.84c-5,.22-9.6,1.8-14.29,3.19a57.92,57.92,0,0,0-18.13,9.2,74.59,74.59,0,0,0,9.12-2.71c6.85-2.12,11.55,0,15.09,6.24,1.94,3.42,4.44,6.31,8.65,7.19,3.72.77,7,2.59,10.33,4.41,1.35,1.12,2.32,1.1,2.64-.88l0,.06c3-1.21,1.59-3.51,1.08-5.27-1.15-4-4.47-5.79-7.9-7.56-1.77-.91-4.28-2.26-3-4.7,1.05-2,3.39-1.8,5.59-1,3.91,1.44,7.84,3.1,11.91,3.76,5.87,1,12,1.55,16.56-3.79.45-2.16-1-3.19-2.48-4.26-3.77-2.68-8.22-3.63-12.5-5-.07-1.1-.06-2.24-1.45-2.6.56-2.39,2.71-1.84,4.29-2.25,2-.52,4.51-.54,4.73-3.21s-2.34-3.11-4.17-4c-1.43-.71-3-.52-4.52-.53-3.29,0-6.16,1.6-9.22,2.47-.89.25-2.11.63-2.58-.46a2.88,2.88,0,0,1,.62-2.27c1.8-2.47,3.89-4.74,5.54-7.29,1.24-1.89,3.11-4.26.92-6.39s-4.72-.63-6.77.88a26.65,26.65,0,0,0-8.66,10.42c-2.24,2.58-4.39,5.3-7.72,6.59-1.2.47-2.51.59-3.38-.63s.19-1.82.89-2.42c1.37-1.18,1.26-2.66,1.06-4.2l.1.07c.65-.13,1.34-.25,1.44-1.08.13-1.09-.65-1.3-1.47-1.45-3.05-3.91-7.33-4.51-11.87-4.44.89-2.29,2.89-1.18,4.44-1.45l1.63.12c1.21,1.13,2.71.62,4.1.73l.94.2ZM144.78,71.1c-9.25,10.91-9.56,12.19-6.4,25.74.47,2,.83,4.09,1.33,6.12.22.85-.33,2.21.95,2.45s1.33-1.14,1.67-2c1.78-4.38,3.2-8.94,5.36-13.12C151.45,83.06,149.29,77,144.78,71.1Zm6.72,43.28a87.92,87.92,0,0,1,22.29-15,5.55,5.55,0,0,0,2.73-7.5c-1.18-2.77-4.21-1.57-6.36-1C161.53,93,152.32,104.49,151.5,114.38Z"/><path class="cls-2" d="M126.66,105.28c12.82,4.92,24.66,12,37.55,16.82,9.34,6.66,16.95,14.56,19.11,26.43,2,10.75-1.17,20.48-6,29.8-7.34,14.06-17,26.61-26.94,38.83-15.69,19.23-33.16,36.69-53.21,51.46a94,94,0,0,1-14.28,8.72c-9.88,4.87-19.12.29-21.07-10.66-1.85-10.39-1.15-20.93-.41-31.35,2.28-32.24,6.86-64.12,15.81-95.26,1.82-6.33,4.09-12.54,7.82-18,9.22-13.49,22.11-19.12,38.34-17.15C124.45,105.07,125.55,105.16,126.66,105.28Zm-63,144.94c0,2.52-.11,5,0,7.54s.46,5.26.79,7.88c.86,6.83,5.42,10.56,12.32,10.22a16.36,16.36,0,0,0,6.75-2.06c11.61-6.07,21.44-14.6,30.91-23.42,11-10.25,21.79-20.74,31.23-32.57C156.13,204.74,167,192,174.6,177c4-7.94,7.39-16.22,6.18-25.19-1.6-11.88-8.44-20.92-18.39-27.25a135.71,135.71,0,0,0-33.47-15.19c-19.23-5.85-35.22,1.23-44.24,19.26a91.56,91.56,0,0,0-6.88,19.7,459.06,459.06,0,0,0-10.19,56.2C65.91,219.72,64.22,234.92,63.67,250.22Z"/><path class="cls-3" d="M80.42,59.34a3.2,3.2,0,0,0-1.75,1.84c-3.41-1.62-4.49-4.57-3.85-8s3.57-3.94,6.46-4.3c4.74-.6,9.42.45,14.27.88-.38-2.42-2.27-3.38-3.49-4.81-2.8-3.3-5.79-6.48-6.89-10.84-.68-2.67-.73-5.37,1.46-7.41s4.68-1.45,7.15-.75c2.75.78,4.92,2.57,7.15,4.25,1.29,1,2.22,2.47,4.23,2.82.39-2.09.69-4.12,1.18-6.11.78-3.16,2.31-5.88,5.92-6.2s5.67,1.92,7.25,4.76c2,3.67,1.4,7.84,2.16,12.52,2.08-2.9,3.22-5.76,5.55-7.73s5-3.22,8.06-1.86c2.94,1.31,3.76,3.95,3.82,6.9a22.51,22.51,0,0,1-2.74,10.41c-1.94,4-4,7.89-4.68,12.38,1.5-1.76,2.75-3.67,4.27-5.37s3.68-2.92,5.27-2.28c4.23,1.7,5.28-1.33,7-3.72a56.58,56.58,0,0,1,4.47-5.51c1.82-1.92,4.13-3.11,6.8-2.12s4,3.36,4.14,6.23c.09,1.39.14,2.78.21,4.4a11.74,11.74,0,0,0,2-6.5c.21-4,2.26-7.19,4.08-10.47,1.73-3.12,4.5-4.72,8-3.88s4.37,3.95,4.6,7.16c.08,1.11,0,2.22,0,3.61,2.88-.77,4.53-3,6.71-4.33,2.86-1.76,5.67-3.63,8.95-4.48,2.52-.65,5.1-.7,7,1.43s1.3,4.4.58,6.74c-1.37,4.39-4.57,7.58-7.21,11.14-.23.22-.69.56-.66.63.34.59.78.26,1.18,0,2.63-.06,5.23-.88,7.88-.33,4.68,1,6.33,4.63,3.9,8.74A18.81,18.81,0,0,1,205,65a74.27,74.27,0,0,1-17.55,8.6c-1.44.51-3.43.42-3.72,2.63-1.55.27-3.55-.84-4.44,1.45-2.32.51-3.07-.27-1.33-2.07a32.49,32.49,0,0,1,4.83-3.55c8.73-2.87,17.09-6.45,24-12.72,1.09-1,3.05-2,1.27-4.05-.78-1.43-2.08-1.58-3.55-1.67A18.68,18.68,0,0,0,196,55.39c-1.68.72-4.05,2.57-5.26.85-1.37-2,1.2-3.61,2.52-5.13,1.09-1.26,2.37-2.36,3.48-3.6,2.33-2.58,4.59-5.25,5.85-8.54.57-1.48,1.7-3.2.13-4.65s-3.27-1.16-4.94-.07a18.44,18.44,0,0,0-6.73,3.24c-3.24,2.39-6.28,5-9.38,7.61-.9.75-1.84,1.43-3,.85-1.44-.71-.61-1.89-.37-2.91.62-2.7,1.49-5.38,1.06-8.21-.21-1.41-.68-3-2.09-3.38a4,4,0,0,0-4.1,1.46,15.59,15.59,0,0,0-3.69,7.39,99.52,99.52,0,0,1-5.16,17.52c-3.49.4-3.65-1.86-3.17-4.25a14.38,14.38,0,0,0,.07-7c-.56-2-.43-4.63-2.79-5.19s-3.66,1.8-5.29,3.32c-3.07,2.85-3.16,7.78-7.21,9.83-.79-1.92-2.1-1.8-3.6-.9-5.12-.25-6.37,4.26-8.86,7.23-.86,1-1.33,2.86-3,2.48-1.94-.46-1.39-2.43-1.56-3.89-.68-6,2.46-10.76,5.07-15.64a14.13,14.13,0,0,0,1.67-9.28c-.67-3.83-3.85-4.76-6.8-2.18a11.59,11.59,0,0,0-3,4c-1.13,2.55-2.23,5.11-3.37,7.65-.46,1.05-1.06,2.14-2.41,1.92s-1.09-1.43-1.23-2.37c-.48-3.29-1-6.58-1.47-9.87v-.16a2.36,2.36,0,0,0,0-3.42c0-3.23-1-6.44-4.5-6.39-3.79,0-3.86,3.67-4.08,6.64a40.53,40.53,0,0,1-.53,4.13c-.62,3.54-1.66,4-4.47,1.66-2.57-2.15-4.94-4.75-8-5.92-2.08-.78-4.7-3.81-7-.1-1.92,3,.06,5.36,1.48,7.61,2.44,3.88,5.66,7.17,8.69,10.62,2.53,2.88,2,4-1.73,4.52A35.1,35.1,0,0,1,87,51.53a10.44,10.44,0,0,0-7.63.68c-1.12.55-3.17,1.19-1.53,3.26l.71.71.07.1C78.63,57.66,79.85,58.31,80.42,59.34Z"/><path class="cls-3" d="M189.45,77.09c-1.39-.11-2.89.4-4.1-.73A6.5,6.5,0,0,1,189.45,77.09Z"/><path class="cls-3" d="M192.07,78.69l-1.68-1.4A1.76,1.76,0,0,1,192.07,78.69Z"/><path class="cls-4" d="M182.78,72.07A32.49,32.49,0,0,0,178,75.62c-1.74,1.8-1,2.58,1.33,2.07,4.54-.07,8.82.53,11.87,4.44l0,2.53-.1-.07a12.69,12.69,0,0,1-6.06-1,23.11,23.11,0,0,0-16.5.2c-3.18-.14-5.63,3.76-9.16,1.63,5.21-9,10.75-17.8,17.61-25.69.71-.82,1.66-1.53,1.61-2.8l0,0a.88.88,0,0,0,.87-.87l0,0c.3-.29.59-.59.88-.88l0,0,.88-.87,0,0,.89-.88-.05,0a5.83,5.83,0,0,0,2.58-2.57l-.06.07c.09-.09.28-.19.26-.26a2.23,2.23,0,0,0-.24-.58c.52-1.21,1.63-1.81,2.58-2.62q5.66-4.84,11.14-9.89c1.27-1.18,2.62-2.67-.37-3.54,1.67-1.09,3.44-1.34,4.94.07s.44,3.17-.13,4.65c-1.26,3.29-3.52,6-5.85,8.54-1.11,1.24-2.39,2.34-3.48,3.6-1.32,1.52-3.89,3.15-2.52,5.13,1.21,1.72,3.58-.13,5.26-.85a18.68,18.68,0,0,1,8.48-1.76c1.47.09,2.77.24,3.55,1.67-1.82,1-3.87,1.24-5.75,2.28-5.58,3.09-11.33,5.91-17.17,8.5C180.23,68.26,180.13,68.05,182.78,72.07Z"/><path class="cls-4" d="M117.44,33.69c.49,3.29,1,6.58,1.47,9.87.14.94,0,2.16,1.23,2.37s2-.87,2.41-1.92c1.14-2.54,2.24-5.1,3.37-7.65a11.59,11.59,0,0,1,3-4c3-2.58,6.13-1.65,6.8,2.18A14.13,14.13,0,0,1,134,43.82c-2.61,4.88-5.75,9.66-5.07,15.64.17,1.46-.38,3.43,1.56,3.89,1.64.38,2.11-1.45,3-2.48,2.49-3,3.74-7.48,8.86-7.23a17.92,17.92,0,0,1,0,7.33c-6.24.6-6.3,6.64-9,10.31-2,2.77-1.44,6.91-4.43,9.31-.26-.57-.52-1.13-.77-1.69,1.7-3.72,1-7.21-.72-10.85-1.52,1.26,0,3.92-2.59,4-3.44-7.06-8.61-13-12.62-19.71.59-5.56,1.45-11.1,1.67-16.67C114,32.34,115.47,33,117.44,33.69Z"/><path class="cls-4" d="M145.94,54.54c4.05-2,4.14-7,7.21-9.83,1.63-1.52,2.83-3.9,5.29-3.32s2.23,3.22,2.79,5.19a14.38,14.38,0,0,1-.07,7c-.48,2.39-.32,4.65,3.17,4.25a20.38,20.38,0,0,1,2.1,7.78c1.66-1.78,2.84-3.21,4.84-2.67-2.71,3.86-5.32,7.79-8.15,11.55C157,82.56,153.53,92,148.45,100.66l-1.15-1c1.48-4.35,3-8.67,4.44-13a13.71,13.71,0,0,0-1.4-12.37,80.52,80.52,0,0,1-5.43-9.84C143.36,61,144,57.67,145.94,54.54Z"/><path class="cls-5" d="M236.48,109.77c-4.58,5.34-10.69,4.74-16.56,3.79-4.07-.66-8-2.32-11.91-3.76-2.2-.8-4.54-1-5.59,1-1.29,2.44,1.22,3.79,3,4.7,3.43,1.77,6.75,3.6,7.9,7.56.51,1.76,1.87,4.06-1.08,5.27-1-4.18-5.37-4.43-8.06-6.54-5.92-4.64-10-11.61-17.68-14.06a2.9,2.9,0,0,1-2-2.91c4.69-1.39,9.34-3,14.29-3.19-.21,2.72,1.76,2.34,3.37,2.28C214,103.5,225.5,105.13,236.48,109.77Z"/><path class="cls-6" d="M171.27,62.93c-2-.54-3.18.89-4.84,2.67a20.38,20.38,0,0,0-2.1-7.78,99.52,99.52,0,0,0,5.16-17.52,15.59,15.59,0,0,1,3.69-7.39,4,4,0,0,1,4.1-1.46c1.41.4,1.88,2,2.09,3.38.43,2.83-.44,5.51-1.06,8.21-.24,1-1.07,2.2.37,2.91,1.17.58,2.11-.1,3-.85,3.1-2.57,6.14-5.22,9.38-7.61a18.44,18.44,0,0,1,6.73-3.24c3,.87,1.64,2.36.37,3.54Q192.7,42.85,187,47.68c-.95.81-2.06,1.41-2.58,2.62,0,.28,0,.56,0,.84l.06-.07c-1.75,0-2.83.61-2.58,2.57l.05,0c-.64-.05-.94.23-.89.88l0,0c-.64-.07-.94.22-.88.87l0,0c-.65-.07-1,.22-.88.88l0,0q-1-.11-.87.87l0,0C175.09,57.66,174,61.23,171.27,62.93Z"/><path class="cls-4" d="M200.23,85.25a26.65,26.65,0,0,1,8.66-10.42c2.05-1.51,4.53-3.06,6.77-.88s.32,4.5-.92,6.39c-1.65,2.55-3.74,4.82-5.54,7.29a2.88,2.88,0,0,0-.62,2.27c.47,1.09,1.69.71,2.58.46,3.06-.87,5.93-2.48,9.22-2.47,1.53,0,3.09-.18,4.52.53,1.83.9,4.38,1.36,4.17,4s-2.73,2.69-4.73,3.21c-1.58.41-3.73-.14-4.29,2.25-1.83,2-4.22.56-6.29,1.06l-13.31-.06c.41-2.84,2.78-5.66,0-8.54-.25-.26-.08-1.13.14-1.59A3.34,3.34,0,0,0,200.23,85.25Z"/><path class="cls-5" d="M80.42,59.34c-.57-1-1.79-1.68-1.76-3.06C85,55.46,90.94,58,97.16,58c5.51,2.67,11,5.38,16.55,8,1.39.65,2.67-.18,3.92-.76a75,75,0,0,1,9.25,19.41c-3.65.58-5-3.13-7.89-4.18-7.13-2.6-14.46-2.62-21.86-2.56-1.48,0-3.52.93-4.18-1.54,3.35-2,7-.66,10.52-.86,2.55-.15,4-.85,3.84-3.6,2.7-.78.61-1.81,0-2.51-4.46-5.34-10.73-7-17.19-8.15C86.9,60.66,83.66,60,80.42,59.34Z"/><path class="cls-5" d="M200.23,85.25a3.34,3.34,0,0,1,.36,3.51c-.22.46-.39,1.33-.14,1.59,2.78,2.88.41,5.7,0,8.54-6.36-1.37-11.66,2.67-17.6,3.44a9.19,9.19,0,0,0-3.5-3.5,20.26,20.26,0,0,0,1-4.8c0-5.39-1.33-6.88-6.78-6.9-1.37,0-2.75.09-4.12.14-1.24-.91-.81-2.26-.91-3.46a23.11,23.11,0,0,1,16.5-.2,12.69,12.69,0,0,0,6.06,1c.2,1.54.31,3-1.06,4.2-.7.6-1.66,1.32-.89,2.42s2.18,1.1,3.38.63C195.84,90.55,198,87.83,200.23,85.25Z"/><path class="cls-4" d="M117.63,65.25c-1.25.58-2.53,1.41-3.92.76-5.54-2.62-11-5.33-16.55-8,0-1.71,0-3.42,0-5.13,3.72-.52,4.26-1.64,1.73-4.52-3-3.45-6.25-6.74-8.69-10.62-1.42-2.25-3.4-4.62-1.48-7.61,5.38,4.06,9.09,10.1,15.55,12.91,1.59.7,2,2.59,2.4,4.22l1.26.3a1.82,1.82,0,0,1,.15.69c0,.58.22,1.07.87,1.2l0,0c1.52,5.26,5.65,9.07,7.81,14C117,64,117.33,64.63,117.63,65.25Z"/><path class="cls-6" d="M108.09,48.25a1.82,1.82,0,0,0-.15-.69l-1.26-.3c-.42-1.63-.81-3.52-2.4-4.22-6.46-2.81-10.17-8.85-15.55-12.91,2.35-3.71,5-.68,7,.1,3.1,1.17,5.47,3.77,8,5.92,2.81,2.36,3.85,1.88,4.47-1.66a40.53,40.53,0,0,0,.53-4.13c.22-3,.29-6.6,4.08-6.64,3.54,0,4.51,3.16,4.49,6.39l.06,3.42v.16c-2-.74-3.43-1.35-3.56,2-.22,5.57-1.08,11.11-1.67,16.67l-3.29-2.95,0,0Z"/><path class="cls-7" d="M144.78,71.1c4.51,5.9,6.67,12,2.91,19.22-2.16,4.18-3.58,8.74-5.36,13.12-.34.83-.32,2.22-1.67,2s-.73-1.6-.95-2.45c-.5-2-.86-4.09-1.33-6.12C135.22,83.29,135.53,82,144.78,71.1Z"/><path class="cls-3" d="M93,76.38c.66,2.47,2.7,1.55,4.18,1.54,7.4-.06,14.73,0,21.86,2.56,2.89,1,4.24,4.76,7.89,4.18,3.5,4.36,3.18,9.9,4.61,14.9a20,20,0,0,1,.36,2.46c.19,1.38,1.44,3.45-.56,3.79-1.39.23-1.82-2.08-2.14-3.6-2.7-12.95-10.52-19.77-23.52-19.26-6.18.25-12-1.35-17.82-3.12,1.29-.83,2.48-1.74,2.79-3.38Z"/><path class="cls-7" d="M151.5,114.38c.82-9.89,10-21.39,18.66-23.55,2.15-.54,5.18-1.74,6.36,1a5.55,5.55,0,0,1-2.73,7.5A87.92,87.92,0,0,0,151.5,114.38Z"/><path class="cls-3" d="M184.51,104.82a2.9,2.9,0,0,0,2,2.91c7.67,2.45,11.76,9.42,17.68,14.06,2.69,2.11,7.06,2.36,8.06,6.54l0-.06c-1,0-2-.14-2.64.88-3.29-1.82-6.61-3.64-10.33-4.41-4.21-.88-6.71-3.77-8.65-7.19-3.54-6.26-8.24-8.36-15.09-6.24a74.59,74.59,0,0,1-9.12,2.71A57.92,57.92,0,0,1,184.51,104.82Z"/><path class="cls-3" d="M128.91,80.59c3-2.4,2.39-6.54,4.43-9.31,2.71-3.67,2.77-9.71,9-10.31A14.76,14.76,0,0,1,138,74.63c-3.61,3.63-4.06,8.31-3.9,13.15,0,1.14.66,2.92-.9,3.27-2.05.45-1.75-1.81-2.16-2.88C130.11,85.72,129.59,83.12,128.91,80.59Z"/><path class="cls-4" d="M236.48,109.77c-11-4.64-22.47-6.27-34.31-5.86-1.61.06-3.58.44-3.37-2.28a85.28,85.28,0,0,1,15-1.84c2.45,1.42,5.11.55,7.68.7,4.28,1.39,8.73,2.34,12.5,5C235.52,106.58,236.93,107.61,236.48,109.77Z"/><path class="cls-3" d="M179.35,98.83a9.19,9.19,0,0,1,3.5,3.5c-2.65,2.22-6.15,2.49-9.15,4A87.09,87.09,0,0,0,158,116.15c-.12-3,1.37-4.1,2.74-5.42C166.15,105.51,173.56,103.45,179.35,98.83Z"/><path class="cls-4" d="M93,76.38l-2.35.07a17.51,17.51,0,0,0-6.11,1.61c-2-2.41-.43-3.66,1.55-4.78A10.21,10.21,0,0,1,92,71.93c2.85-.11,5.78.82,8.54-.59a21.19,21.19,0,0,1,6.78.58c.17,2.75-1.28,3.45-3.83,3.6C100,75.72,96.3,74.38,93,76.38Z"/><path class="cls-3" d="M168.52,83.81c.1,1.2-.33,2.55.91,3.46-6.66,3.37-12.85,7.33-17.09,13.9,1.85-5.59,3.44-11.11,7-15.72C162.89,87.57,165.34,83.67,168.52,83.81Z"/><path class="cls-3" d="M147.3,99.65l1.15,1c.46,3.24-1.5,5.84-2.35,8.74-.25.85-.33,2.24-1.73,1.8s-1.23-2-.8-2.85C145.06,105.54,145.13,102.14,147.3,99.65Z"/><path class="cls-3" d="M124.83,72.08c2.64-.11,1.07-2.77,2.59-4,1.73,3.64,2.42,7.13.72,10.85C124.79,77.71,126.3,74.18,124.83,72.08Z"/><path class="cls-3" d="M221.5,100.49c-2.57-.15-5.23.72-7.68-.7l-.06-.84c2.07-.5,4.46.89,6.29-1.06C221.44,98.25,221.43,99.39,221.5,100.49Z"/><path class="cls-5" d="M84.49,78.06a17.51,17.51,0,0,1,6.11-1.61c-.31,1.64-1.5,2.55-2.79,3.38A5.82,5.82,0,0,1,84.49,78.06Z"/><path class="cls-5" d="M100.52,71.34c-2.76,1.41-5.69.48-8.54.59C94.74,70.53,97.66,71.36,100.52,71.34Z"/><path class="cls-3" d="M191.18,84.66l0-2.53c.82.15,1.6.36,1.47,1.45C192.52,84.41,191.83,84.53,191.18,84.66Z"/><path class="cls-5" d="M209.57,129.15c.63-1,1.65-.89,2.64-.88C211.89,130.25,210.92,130.27,209.57,129.15Z"/><path class="cls-8" d="M63.67,250.22c.55-15.3,2.24-30.5,3.94-45.72A459.06,459.06,0,0,1,77.8,148.3a91.56,91.56,0,0,1,6.88-19.7c9-18,25-25.11,44.24-19.26a135.71,135.71,0,0,1,33.47,15.19c10,6.33,16.79,15.37,18.39,27.25,1.21,9-2.15,17.25-6.18,25.19-7.64,15-18.47,27.77-28.9,40.84-9.44,11.83-20.23,22.32-31.23,32.57-9.47,8.82-19.3,17.35-30.91,23.42a16.36,16.36,0,0,1-6.75,2.06c-6.9.34-11.46-3.39-12.32-10.22-.33-2.62-.65-5.24-.79-7.88S63.67,252.74,63.67,250.22Zm51.24-119.69c3.21,3,6,2.08,8.31-1.11,1.07-1.44,1.93-3,2.93-4.53,2.23-3.33,1.14-5.8-2.1-7.5-7-3.66-15.14-2.37-20.76,5.49-.89,1.26-2.65,2.6-1.62,4.4s3,.7,4.58.87C108.82,130.1,112,129.68,114.91,130.53ZM72,272.46c5.52,1.74,8.8-.69,12.06-2.46,11.92-6.48,20.79-16.71,30.63-25.68a290.82,290.82,0,0,0,31.13-33.26c11-13.7,22-27.33,27.78-44.24,2.83-8.23,4.27-16.49,0-24.7-2.79-5.37-6.18-10.22-12.34-12.48,4.44,4.78,4,10.56,3.9,16.27,0,.93.43,2.13-.54,2.71-1.14.68-1.61-.71-2.42-1.12-4.93-2.52-9.5-6.12-15.74-5.16,5.19,2.49,9.36,6.32,14,9.5,3,2.09,3.45,4.32,2.17,7.86-2.45,6.74-6.59,12.49-9.89,18.73-1.25,2.34-2,2.78-4.16.85a28.17,28.17,0,0,0-17.35-7.12c-.05,2,1.36,2.45,2.48,3.23,4,2.76,8.42,4.88,12.15,8.09,1.63,1.41,2,2.33.72,4.12a105.2,105.2,0,0,1-7.81,10.3c-2.27,2.51-4.34,3-7.25,1.07s-9.91-1.53-11.82.36c-1.6,1.59-1.81,2.72.74,3.51,2.76.85,5.45,1.13,8.12-.17a2.31,2.31,0,0,1,3,.57c1.06,1,.69,2.09,0,3-5.06,6.81-9.91,13.77-15.51,20.16-1.46,1.67-2.47,1.36-4.14.08-3.88-3-8.39-4.67-13.81-5.95a12.87,12.87,0,0,0,4.19,3.79c2.22,1.41,4.29,3.07,6.37,4.7,1.91,1.5,2.55,2.95.54,5.17-3.17,3.5-5.85,7.42-8.92,11-4.52,5.29-8.93,10.71-13.88,15.57C82.19,264.87,78.57,269.66,72,272.46Zm23.31-94.75a4.57,4.57,0,0,0,1.68-.42c4.7-3.12,7.38-7.73,9.24-12.87a3.31,3.31,0,0,0-.54-2.33c-1.38-2.4-8.81-4.62-12.29-3.56s-4.28,4.11-4.53,7.25c-.21,2.75.09,5.53-.77,8.25-.36,1.17-.24,2.56,1.57,2.81S93.16,177.38,95.26,177.71Zm11.32-43.43c-4.62-.51-6.51,1.67-7.76,4.74s-1.09,5.94,1.85,8.18c2.7,2.05,6.92.9,9.73-2.75,1.76-2.29,4.21-4.83,2.81-7.7C111.89,134.05,108.35,134.67,106.58,134.28ZM94.66,184.69c-.07-2.73-2.79-6-5-5.9s-4.33,4-4.33,7.68c0,2.76.91,4.63,4,4.64C92,191.12,94.73,187.68,94.66,184.69Z"/><path class="cls-5" d="M182.78,72.07c-2.65-4-2.55-3.81,2.35-6,5.84-2.59,11.59-5.41,17.17-8.5,1.88-1,3.93-1.3,5.75-2.28,1.78,2-.18,3.06-1.27,4.05C199.87,65.62,191.51,69.2,182.78,72.07Z"/><path class="cls-6" d="M97.17,52.88c0,1.71,0,3.42,0,5.13-6.22,0-12.2-2.55-18.5-1.73l-.07-.1-.71-.71c-1.64-2.07.41-2.71,1.53-3.26A10.44,10.44,0,0,1,87,51.53,35.1,35.1,0,0,0,97.17,52.88Z"/><path class="cls-4" d="M117.45,33.53l-.06-3.42A2.35,2.35,0,0,1,117.45,33.53Z"/><path class="cls-5" d="M77.88,55.47l.71.71Z"/><path class="cls-7" d="M199.15,50.83c-.4.24-.84.57-1.18,0,0-.07.43-.41.66-.63Z"/><path class="cls-1" d="M181.91,53.64c-.25-2,.83-2.6,2.58-2.57A5.83,5.83,0,0,1,181.91,53.64Z"/><path class="cls-1" d="M181.07,54.48c0-.65.25-.93.89-.88Z"/><path class="cls-1" d="M179.39,56.15c-.07-.66.23-.95.88-.88Z"/><path class="cls-1" d="M178.56,57q-.12-1,.87-.87A.88.88,0,0,1,178.56,57Z"/><path class="cls-1" d="M180.23,55.31c-.06-.65.24-.94.88-.87Z"/><path class="cls-1" d="M184.43,51.14c0-.28,0-.56,0-.84a2.23,2.23,0,0,1,.24.58C184.71,51,184.52,51.05,184.43,51.14Z"/><path class="cls-1" d="M106.68,47.26l1.26.3Z"/><path class="cls-1" d="M108.09,48.25l.87,1.2C108.31,49.32,108.14,48.83,108.09,48.25Z"/><path class="cls-9" d="M72,272.46c6.62-2.8,10.24-7.59,14.41-11.69,5-4.86,9.36-10.28,13.88-15.57,3.07-3.59,5.75-7.51,8.92-11,2-2.22,1.37-3.67-.54-5.17-2.08-1.63-4.15-3.29-6.37-4.7a12.87,12.87,0,0,1-4.19-3.79c5.42,1.28,9.93,3,13.81,5.95,1.67,1.28,2.68,1.59,4.14-.08,5.6-6.39,10.45-13.35,15.51-20.16.68-.91,1-2,0-3a2.31,2.31,0,0,0-3-.57c-2.67,1.3-5.36,1-8.12.17-2.55-.79-2.34-1.92-.74-3.51,1.91-1.89,8.8-2.33,11.82-.36s5,1.44,7.25-1.07a105.2,105.2,0,0,0,7.81-10.3c1.26-1.79.91-2.71-.72-4.12-3.73-3.21-8.15-5.33-12.15-8.09-1.12-.78-2.53-1.26-2.48-3.23a28.17,28.17,0,0,1,17.35,7.12c2.18,1.93,2.91,1.49,4.16-.85,3.3-6.24,7.44-12,9.89-18.73,1.28-3.54.86-5.77-2.17-7.86-4.63-3.18-8.8-7-14-9.5,6.24-1,10.81,2.64,15.74,5.16.81.41,1.28,1.8,2.42,1.12,1-.58.52-1.78.54-2.71.13-5.71.54-11.49-3.9-16.27,6.16,2.26,9.55,7.11,12.34,12.48,4.25,8.21,2.81,16.47,0,24.7-5.82,16.91-16.79,30.54-27.78,44.24a290.82,290.82,0,0,1-31.13,33.26c-9.84,9-18.71,19.2-30.63,25.68C80.75,271.77,77.47,274.2,72,272.46Z"/><path class="cls-10" d="M95.26,177.71c-2.1-.33-3.86-.64-5.64-.87s-1.93-1.64-1.57-2.81c.86-2.72.56-5.5.77-8.25.25-3.14,1-6.18,4.53-7.25s10.91,1.16,12.29,3.56a3.31,3.31,0,0,1,.54,2.33c-1.86,5.14-4.54,9.75-9.24,12.87A4.57,4.57,0,0,1,95.26,177.71Z"/><path class="cls-11" d="M106.58,134.28c1.77.39,5.31-.23,6.63,2.47,1.4,2.87-1,5.41-2.81,7.7-2.81,3.65-7,4.8-9.73,2.75-2.94-2.24-3.13-5-1.85-8.18S102,133.77,106.58,134.28Z"/><path class="cls-10" d="M106.25,128.15c-1.57-.17-3.56.92-4.58-.87s.73-3.14,1.62-4.4c5.62-7.86,13.78-9.15,20.76-5.49,3.24,1.7,4.33,4.17,2.1,7.5-1,1.5-1.86,3.09-2.93,4.53-2.36,3.19-5.1,4.07-8.32,1.11,2.51-1.2,5-2.38,6.8-4.64,2.36-3,1.5-5.8-2.16-7.09C113.58,116.69,107.13,121.23,106.25,128.15Z"/><path class="cls-11" d="M106.25,128.15c.88-6.92,7.33-11.46,13.29-9.35,3.66,1.29,4.52,4,2.16,7.09-1.76,2.26-4.29,3.44-6.8,4.64C112,129.68,108.82,130.1,106.25,128.15Z"/><path class="cls-10" d="M94.66,184.69c.07,3-2.71,6.43-5.31,6.42-3.06,0-4-1.88-4-4.64,0-3.67,2.13-7.6,4.33-7.68S94.59,182,94.66,184.69Z"/></g></svg>