<svg width="18" height="13" viewBox="0 0 18 13" fill="none" xmlns="http://www.w3.org/2000/svg">
<path d="M7.21596 8.07832L2.05596 2.87006C1.99884 2.81229 1.93099 2.76645 1.85629 2.73518C1.7816 2.70391 1.70153 2.68781 1.62066 2.68781C1.5398 2.68781 1.45973 2.70391 1.38503 2.73518C1.31034 2.76645 1.24249 2.81229 1.18536 2.87006L0.180362 3.89051C0.0648746 4.00715 0 4.16529 0 4.33019C0 4.49508 0.0648746 4.65323 0.180362 4.76986L7.21596 11.8719C7.33159 11.9883 7.48824 12.0537 7.65156 12.0537C7.81488 12.0537 7.97153 11.9883 8.08716 11.8719L17.7904 2.07792C17.8476 2.02026 17.893 1.95177 17.924 1.87638C17.955 1.80099 17.9709 1.72017 17.9709 1.63855C17.9709 1.55692 17.955 1.4761 17.924 1.40071C17.893 1.32532 17.8476 1.25683 17.7904 1.19917L16.7824 0.181746C16.6668 0.0653643 16.5103 0 16.3471 0C16.1838 0 16.0273 0.0653643 15.9118 0.181746L8.08716 8.07832C7.97161 8.19489 7.81493 8.26037 7.65156 8.26037C7.48819 8.26037 7.33151 8.19489 7.21596 8.07832Z" fill="#0F1111"/>
</svg>
