<svg xmlns="http://www.w3.org/2000/svg" viewBox="0 0 300 300"><defs><style>.cls-1{fill:#e4b536;}.cls-2{fill:#466f41;}.cls-3{fill:#51944f;}.cls-4{fill:#dd8a37;}.cls-5{fill:#985e30;}.cls-6{fill:#f2d93b;}.cls-7{fill:#f5eb66;}.cls-8{fill:#a2c64e;}.cls-9{fill:#69ab53;}.cls-10{fill:#83b952;}</style></defs><title>fp</title><g id="кукуруза"><path class="cls-1" d="M129.73,45a19,19,0,0,0,7.11-7.08c1-1.72,19.68-15,21.68-15.42,5.83-1.26,11.69-3.11,17.56-3.2,5.37-.09,10.69,1.82,16.34,1.52a8.7,8.7,0,0,1,8.42,6.3,25.24,25.24,0,0,0,6.46,10.7l-1.7,1c-1.43-1-2.73-2.48-4.55-2.54-2.26-.07-5.39-1.37-5.84,2.59-.36,3.21.59,5.34,4.46,5.45,2.86.09,5.13-1.43,7.73-2,1.86,1.83,1.52,4.17.51,5.94-1.43,2.52-2.83-.73-4.38-.57a8.22,8.22,0,0,1-1.3-.07c-5.65-2-6.2-1.6-9,5.73-.61,1.56-1.39,3,.54,4.25,1.72,1.11,3,.45,4.29-.8,1.89-1.78,3.5-4,6.21-4.71,2.14,3,1.77,8.71-1,9.53s-2.47,1.67-1.53,3.62a16.72,16.72,0,0,1,1.22,4.25c1,5.31-2,9.87-6.72,10.16.41,1,.86,1.91,1.18,2.86,2.34,7-.09,12.09-6.92,14.25-2.1.67-1.11,1.85-.55,2.68,3.16,4.66,1.27,8.79-1.24,12.85-1.47,2.38-3.55,3.11-6.08,1.68-1.53-.87-2.95-1.94-4.41-2.93,3.4-3.14,8-5.63,7.06-11.34-.37-2.27-.15-5.24-3.75-5.61-3.36-.34-4.75,1.66-5.82,4.32-.83,2.08-.81,4.78-3.72,5.45a9.88,9.88,0,0,1,.39-2.59c3.88-8.79.12-15.27-9.44-18.77l-2.47-.17c-.53-1.72-1.43-2.18-2.83-.79l-3.51,0c-4.57-1.39-6.77,2-8.59,4.89-3.31,5.28-1.35,9,4.63,10.43a29.26,29.26,0,0,1,15.53,9.68c-.93,4.18-.41,8.37,0,12.56a1.77,1.77,0,0,1-.82,1.8c-.4-.51-1.15-.87-1.43-.32-1.8,3.63-5.28,4.62-8.69,5.73a30.89,30.89,0,0,0-15.16-8.54c-3.53-.81-7-.8-9.64,2.28l-1.73,1.73c-5.94,5.93-5,12.37,2.45,15.94,4.49,2.17,9.55,3.06,13.66,6.06-.76.76-.91,1.43.14,2.11,3.55,2.26,2.72,5.43,1.83,8.65-1,3.67-3,6.78-6.9,7.23s-7.93.79-11.82-.65c-1.24-.46-2.65-1.76-4,0-1.66-.18-2.49-2.32-4.43-1.85l-.88-.82c-2-2.88-4.25-2.38-6.31-.33a30.7,30.7,0,0,0-3.28,4.69,3.54,3.54,0,0,0-2,2.21c-2.41,5.72-5.52,7-11.5,5.27-3.06-.88-5.39-3-8.22-4.19,1.68-12.73,5.88-24.81,9.56-37,2-.4,4.13.41,6.38-.78-2.71-3.82-1.07-7.8-.79-11.85.37-5.34,3.91-7,7.91-8.64.12,0,.19-.22.28-.34,4.48.26,8.06,2.85,11.93,4.66,2.56,1.19,5,1.73,7.58.12,2.15-1.37,6.06-9.73,5.17-11.9-1.62-3.94-4.15-7.19-8.85-7.79l-2.46-.26c-1.37-3.21-4.22-1.07-6.29-1.75,0-1-.15-2.09,1-2.7,5.28,1.46,10.45,3,15.12,6.15,4.43,3,7,1.89,8.66-3.09.33-1,.66-2,1-3,2.3-6.84-.46-11.25-7.88-12.6l-1.77,0c-.21-1.54-1.31-1.64-2.57-1.74-5.91-.47-9.52,2.3-12.67,9.83-1,.06-1.46.59-1.86,1.53-2.53,5.77-3,5.89-8.46,2.69,1-4.46,1.61-9,3.84-13.14l2.15.27c-.79,2.65-1.58,5.29-2.38,7.94-.3,1-.77,2.18.24,2.8s2-.54,2.57-1.19a14.71,14.71,0,0,0,3.86-9.42c-.35-3.08-2.57-5.78-1.9-9.08-.06-2.91,3.08-4,3.67-6.59l0,0,1-.1,1.8.2c0,1.68-1.33,2.55-2.31,3.61-1.85,2-1.7,4.46-.86,6.63.56,1.44,2,3.44,4,1.17a32,32,0,0,0,3.69-5.45c1.88-3.42,1-5.13-3-6.15.92-.83,1.81-1.39,1.24-3.12s-.43-4,2.09-4.83c2,.3,1.69,4,3.62,3.16,2.62-1.11,5.72-1.71,7.57-4.33a3.3,3.3,0,0,0,.84-2.86c-.45-1.53-1.83-1.23-3-1.23-1.63,0-3.26.06-4.88.09Zm31.48-10.87c-.36-.45-.69-.43-1,0l-3.46,1-4.43,2.06c0-4.36-2.72-4.41-5.51-3.71a14.13,14.13,0,0,0-7.28,4.85c-1,1.17-1.95,2.31-1.38,4,.63,1.81,2.24,1.63,3.72,1.67,3,.1,6,.23,7-3.71.39-1.46,1.43-2.26,2.56,0,2.58,5.14,8.94,4.58,12.73,8,.57.51,1.65-.09,2.48-.52,6.37-3.29,6.33-8.18-.13-12.74-.06-.24-.13-.47-.21-.7,2-2,3.14.26,4.54.95,2.56,1.24,5,1,5.92-1.69a4.54,4.54,0,0,1,3.82-3.45,3.35,3.35,0,0,0,2.87-3.45,4.38,4.38,0,0,0-2.42-3.94c-4.25-2.63-10.59-1-12.68,3.59-.89,1.95-2.26,1.5-3.65,1.59,1.1-2.15.57-3.27-2-3.58-3.25-.39-5.75,1.07-8.15,2.88-1.28,1-3,2-1.92,3.91,1,1.76,2.8,1.06,4.42,1,3.26-.18,4.55-3.76,7.62-4.18-.62,2.05-1.25,4.1-1.87,6.15Zm-59,121.45a10.16,10.16,0,0,0-3.73-3.46c-2.12-1.08-3.9-1.38-4.36,1.71-2.48,3.06-1.85,6.68-1.71,10.16a3.43,3.43,0,0,0,3.14,3.23c3.92.76,9.7-4.7,9.31-8.69C104.71,156.78,104,155.75,102.23,155.56ZM175.41,40.4c-2,.4-2.49,2-2.53,3.64,0,2.28,2.08,1.92,3.29,2.08a20.68,20.68,0,0,1,11.46,5.3c2.42,2.21,3.59.92,4.75-1.1,2.38-4.15,1-9.08-3.59-12.54C183.12,34.17,176.93,35.39,175.41,40.4ZM108.5,111a3.2,3.2,0,0,0-2.71,1.29c-4.47,5.41-.89,15.25,6,16.54,4.29.81,10.29-2.94,11.51-7.72,1-3.86-2.09-5.36-5-6.63A12.06,12.06,0,0,0,108.5,111Zm48.15-64.26h0c-6.48-2.52-13-.82-15.91,4.16-2,3.34-1.13,5,2.7,5.65,2.89.52,5.62,1.45,7,4.44-1.37-.54-2.76-1-4.1-1.62A13.14,13.14,0,0,0,130.21,64c-2.77,4.28-1.28,7.54,3.74,8.64a22.11,22.11,0,0,1,10,4.48c1.15,1,2.57,2.39,4.33,1.15,5.64-4,6.55-11.56,2.14-17.27,2.7-.4,5.23,2.69,7.54,1.25,3.25-2,4.67-5.91,4.63-9.51C162.55,49.62,160.25,47.15,156.65,46.75Zm-47.52,86c-2.78-1.41-5.51-3.18-8.76-1.24-3.61,2.24-3.36,6-3.48,9.45-.26,7.45,5.11,12.12,12.49,11,2.3-.33,4.43-1.27,5.12-3.65C116.91,140.09,118.88,137.68,109.13,132.72ZM166.53,52c-2.7,1.24-3.07,3.83-3.49,6.29-.3,1.79.29,3.43,2.43,3.46,6.53.11,11.5,3.48,16.07,7.57,2,1.78,3.05,1,4.27-.66,5.25-7.16,3.91-12.92-4.27-18.24-1.72-.41-3.46-.75-5.16-1.26C172.47,48,169.08,48.55,166.53,52Zm-17.8,48.17c-3.48-3.91-6.91-1.28-9.67.67a10.74,10.74,0,0,0-4.56,9.21c.12,2.63,2.92,4,5.11,4.19,3.2.31,5.94,1.69,8.64,2.94,4.5,2.09,7.32,0,10.13-2.94,2.42-2.58,4.06-6,2.27-8.85a10.73,10.73,0,0,0-10.26-5.15Zm9.8-33.84a15.59,15.59,0,0,0-3,2.61c-2.64,4-2,8.42,1.49,8.78,6.86.74,11.72,4.6,16.22,9.18,2.44,2.49,4.11,1.67,5.59-.83a33.15,33.15,0,0,0,2.19-4.38c1.7-4.25.7-10.08-2.65-12.65-4.62-3.53-9.55-6.67-15.87-4.83-.28.08-.38.76-.56,1.16C160.79,65.6,159.42,65.13,158.53,66.37ZM129.3,157.44c4.57.05,8-2.75,10.72-7.26,1.79-2.92.79-4.41-1.4-5.71a102.68,102.68,0,0,0-11.33-6.06c-5-2.17-9.67,1.07-9.93,6.52C117.07,151.05,123.11,157.39,129.3,157.44Zm64.63-125.5c1.65-.41,3.14,2.68,4.7.63s-.14-4-1.07-5.68a8.47,8.47,0,0,0-6.6-4.05c-2.06-.29-5,.59-4.52,3,.52,3-.92,4.37-3.2,6.22,3.34,1.14,6.2,1.8,8.32,4.12,1.07,1.17,2.22.23,2.3-1.29C193.91,33.92,192.9,33,193.93,31.94Zm-2.3,49.55c.56-3.61-2.1-4.67-4.51-5-2.88-.4-3.63,1.94-3.59,4.41a10.38,10.38,0,0,1-1.15,5.57c-.6,1.06-1,2.17.33,3.11a3.17,3.17,0,0,0,3.31.13C189.9,88.23,190.71,84.83,191.63,81.49Zm5.25-15.18c-.74-1.67,1.63-4.67-2.07-5.26-3.3-.52-4.36,1.62-5.13,4.24-.49,1.68-1.24,3.3-1.87,4.94-.42,1.09-1.14,2.22.21,3.16s2.81,1.53,4.12.54C194.62,72.05,198.15,70.68,196.88,66.31Z"/><path class="cls-2" d="M238.87,112.66c-21.19,18.56-34.27,42.67-46.29,67.51-7.63,15.77-14.53,32-26.19,45.4-14.42,16.62-31.22,30-53.2,34.64-7.74,1.63-12.23,5.56-16.26,11.52-8.36,12.39-27.23,11.86-35.55-.87a10.07,10.07,0,0,1-1.06-8.17c.55-2.31,1.42-4.55,1.87-6.88,1-5,1.48-9.8-2.25-14.23a19,19,0,0,1-4.19-8.73c-.54-2.82-1.07-5.64-1.73-9.12,1.18,1.49,1.88,2.37,2.59,3.25,2.45,6.77,4.53,13.74,10.27,18.7-2.17.93-1,2.32-.51,3.62-.1,1.44-.21,2.87-.31,4.31q-1.31,5.46-2.6,10.91c-1,2.1.12,3.8,1.34,5.2a21.74,21.74,0,0,0,15.13,7.43c1.79,1,3.57.75,5.53.36,3.72-.73,5.84-3.31,7.7-6.14,2.69-4.08,7.11-7,8.12-12.22a80.78,80.78,0,0,0,9.21-1.36c28.72-7.55,49.73-25.23,64.45-50.46,6.7-11.49,12.06-23.77,18.05-35.68,10.59-21,23.08-40.78,39.75-57.63,1.39-.36,1.75-2.31,3.44-2.2C237.14,111.91,238.21,111.63,238.87,112.66Z"/><path class="cls-3" d="M56.61,227c-.71-.88-1.41-1.76-2.59-3.25.66,3.48,1.19,6.3,1.73,9.12-2.8-6.83-3.79-14-4.26-21.3-2-30.08,2.8-59.3,11.75-87.91A324,324,0,0,1,93.41,54.8a73.61,73.61,0,0,1,9.66-13.34c2.54-2.67,5.69-4.87,9.5-3.46,4.06,1.5,4.18,5.41,4.13,9.06,0,2.52-.27,5-.43,7.83,1.87-.13,3.42-2,5.36-1,1.3,1.89-.09,3.18-1,4.58l-.63.68,0,0c-2.41,0-3.14,3.27-5.88,3.31.37-2.47.7-4.6,1-6.74.08-.62.61-1.65-.75-1.32-.43.11-.71.87-1.06,1.33.23-3.53.48-7.06.68-10.59a4.32,4.32,0,0,0-2.29-4.48c-1.87-.94-3.55-.06-4.93,1.08a33.29,33.29,0,0,0-6,6.49C89.77,63.6,82.26,80.73,75.31,98.08A309.49,309.49,0,0,0,56.24,168.2c-2.49,17-3.17,33.86-.52,50.83C56,221.68,56.31,224.33,56.61,227Z"/><path class="cls-4" d="M205.6,38.75l1.7-1a.65.65,0,0,1,.44.69,5,5,0,0,0,1.53,2.8l.24.87c.52,3.6-1.57,7.54,1.4,10.83a12.19,12.19,0,0,1,1.73,10.22,45.27,45.27,0,0,0-1.15,13.11,19,19,0,0,1-2.66,9.74c-2,3.68-1.7,7.49-.21,11.27l-1.9-.2c0-2.5,0-5,0-7.48,0-1.36-.66-1.44-1.66-.89-3.15-2.94-4.59-1.54-5.47,2A24.46,24.46,0,0,1,197,97.23c-2.47,4.23-1.25,6.35,3.57,6.68-2.13,1.48-2.15,3.45-1.29,5.62-2.73,6-8.43,8.62-13.6,11.83-1.44-.9-2.07-2.39-2.89-3.78a8.94,8.94,0,0,0-7.3-4.79c-7.24-.2-7.24-.2-9.83,6.25-.42-4.19-.94-8.38,0-12.56,1.94.48,3.14-.87,4.49-1.83l1.26.92c-.6,2.52-.35,4.43,2.89,4.63a26.78,26.78,0,0,1,3.88.81c1.46,1,2.88,2.06,4.41,2.93,2.53,1.43,4.61.7,6.08-1.68,2.51-4.06,4.4-8.19,1.24-12.85-.56-.83-1.55-2,.55-2.68,6.83-2.16,9.26-7.26,6.92-14.25-.32-1-.77-1.87-1.18-2.86,4.77-.29,7.73-4.85,6.72-10.16a16.72,16.72,0,0,0-1.22-4.25c-.94-1.95-1.2-2.83,1.53-3.62s3.19-6.49,1-9.53c0-1.8-1.08-3.09-2-4.47a8.22,8.22,0,0,0,1.3.07c1.55-.16,2.95,3.09,4.38.57,1-1.77,1.35-4.11-.51-5.94A4.31,4.31,0,0,0,205.6,38.75Zm3.79,36.83c0-.66,0-1.11,0-1.55.15-1.79-.27-3.45-2.22-3.75-2.15-.33-1.91,1.63-2.37,3-.84,2.48-1.87,4.9-2.83,7.34-.61,1.53-1.43,3.35.49,4.22,1.74.78,3.87.73,5-1.41A13.68,13.68,0,0,0,209.39,75.58Zm1.88-14.45a21.7,21.7,0,0,0-.19-3.43c-.4-1.58-1-3.84-2.51-3.84-2.08,0-.63,2.33-1.12,3.55-.75,1.91-1.12,4-1.93,5.84a2.44,2.44,0,0,0,1.11,3.37c1.59,1.08,2.45-.23,3.22-1.27A6.59,6.59,0,0,0,211.27,61.13Z"/><path class="cls-3" d="M238.87,112.66c-.66-1-1.73-.75-2.69-.84,1.45-2.42,4.2-3.22,6.2-4.95,1.16-1,3.7-1.13,3.27-3.14s-2.8-2.38-4.74-2.57a45.65,45.65,0,0,0-23.07,3.71c-6.71,2.92-12.67,7.1-19,10.65,0-2.18,2.52-3.61,1.73-6,.09-.35.19-.7.28-1.05l1.5-.16c2.7,1,4.06-1.64,6.17-2.29,2.86-.89,3.38-2.91,1.86-5.46.35-.91,1.14-1,2-1.14,2.37,3.45,5.23,2.63,8.54,1.38,6.32-2.4,12.89-3.7,19.69-2.45a19.64,19.64,0,0,1,5.47,1.8c3.74,2,3.85,4.69.45,7.15C244,109.11,241.42,110.87,238.87,112.66Z"/><path class="cls-5" d="M120.62,58.45c.92-1.4,2.31-2.69,1-4.58,3.14-2.56,4.35-6.88,8.1-8.89l2,.94-1.92,1.54c-.29.34-.59.67-.89,1h0a1.67,1.67,0,0,0-1.16,1.72l-.2.91c-2.52.82-2.72,3-2.09,4.83s-.32,2.29-1.24,3.12l-1.47.19L121,59A1,1,0,0,0,120.62,58.45Z"/><path class="cls-2" d="M212.35,99.41c-.83.09-1.62.23-2,1.14-2.24-1-3.79.6-5.54,1.47-.54-2.08,1.57-3.14,1.88-4.9l1.9.21A6.2,6.2,0,0,1,212.35,99.41Z"/><path class="cls-1" d="M210.91,53c-3-3.29-.88-7.23-1.4-10.83C211.8,45.53,209.27,49.53,210.91,53Z"/><path class="cls-1" d="M209.27,41.29a5,5,0,0,1-1.53-2.8A3,3,0,0,1,209.27,41.29Z"/><path class="cls-2" d="M200.57,109.52c.79,2.39-1.76,3.82-1.74,6l-2.17,1.74a1,1,0,0,0-.65.52,198.6,198.6,0,0,0-22.8,19.88c-14.8,14.65-27.57,31.07-41,46.93-11.8,14-25,26.59-37.18,40.16-5.1,5.67-10.75,11.19-12.62,19.09l-.87,1-2.18,1.08a109.45,109.45,0,0,1-2.86-43.59c2.89-21.19,7.78-42,13.51-62.55,2.66-9.56,5.16-19.17,7.73-28.76,5.35-18.38,11.43-36.56,15.5-55.29.35-.46.63-1.22,1.06-1.33,1.36-.33.83.7.75,1.32-.3,2.14-.63,4.27-1,6.74,2.74,0,3.47-3.29,5.88-3.31-.59,2.55-3.73,3.68-3.67,6.59-3.68,1.76-4.48,5-4.54,8.68-2.23,4.1-2.82,8.68-3.84,13.14-1.81,5.78-4.07,11.47-5.33,17.38-1.73,8.1-5.28,15.73-6.06,24.06-3.68,12.21-7.88,24.29-9.56,37-2.8,7.09-4,14.58-5.16,22-2.27,14.06-4.87,28.13-2.84,42.47.37,2.61.35,5.47,2.17,7.89,1.9-1.48,2.37-3.4,3.2-5.1l8.35-10.61.66-.79a80.46,80.46,0,0,0,9.87-10l1.59-2.24c5-3,8.14-7.75,11.9-11.93l3.41-3.66a42.33,42.33,0,0,0,8.21-9.35c2-1.94,3.89-3.9,4.89-6.55v0a1.39,1.39,0,0,0,1.22-1.18,12.09,12.09,0,0,0,3.63-4.55c3.4-3,6.69-6.18,8.69-10.38.7,0,1-.35,1.07-1l0,0c3.58-2.68,6-6.41,8.78-9.78l2.05-2.42,13.5-14.53a22.65,22.65,0,0,0,5.31-5,8,8,0,0,0,3.17-2.81,4.09,4.09,0,0,0,2.2-2,5.48,5.48,0,0,0,2.84-3.12c5.17-3.21,10.87-5.81,13.59-11.83Z"/><path class="cls-4" d="M120.11,194.06l-3.41,3.66a19.35,19.35,0,0,0-7.15-1.17l-7.4-4.44c-1.37-2.42-2.9-1.71-4.47-.24-.42-.42-.92-.57-1.36-.12s-.3.95.14,1.37c0,.21-.08.42-.13.64-3.12.4-2.1,2.82-2.27,4.65,0,1.22,0,2.43.08,3.64.11,3,1.78,4.66,4.54,5.51,2.06.63,4.08,1.39,6.12,2.09l-1.59,2.24-6.29-2.82c-1.68-2.25-4.07-1.79-6.38-1.7-2.66.21-3.18,2.28-3.53,4.3-.79,4.53.92,7.18,6.33,10.23l-.66.79a33.16,33.16,0,0,1-4.43-1.81c-2.91-1.69-4.9-.72-5.83,2.13-1.19,3.66-1.87,7.45,1.91,10.29-.83,1.7-1.3,3.62-3.2,5.1-1.82-2.42-1.8-5.28-2.17-7.89-2-14.34.57-28.41,2.84-42.47,1.2-7.44,2.36-14.93,5.16-22,2.83,1.22,5.16,3.31,8.22,4.19,6,1.73,9.09.45,11.5-5.27a3.55,3.55,0,0,1,1.95-2.21c-.69,2.77.33,5.38.73,8.05a16.47,16.47,0,0,0,10,7.42c4.66,1.42,9.27.56,13.9,0-1,2.65-2.94,4.61-4.89,6.55-.75-4.85-4.64-2.69-7.3-3.26l-9-3.65c-1.83-2.73-4.17-3.42-7.1-1.77l-.08-.2c-.4-.46-.71-.29-1,.15-2.09,2-2.41,4.62-2.56,7.3-.5,4.58,2.37,7,5.74,9.22C111.16,195.14,115.73,193.78,120.11,194.06ZM95,172.65c-2.07.76-4.68-3.23-6.38.73-2.8,3-3.51,11.45-1.18,14.23.27.33.64.74,1,.79,2.46.39,5,1,7.2-.77a12.35,12.35,0,0,0,4.7-11.34C100.05,173.37,97.25,173.18,95,172.65Zm-11.65,24h0v3.56c0,1.81,0,3.28,2.47,3.91,2.34.58,3.77,0,4.9-1.75a13.14,13.14,0,0,0,1.78-7.64c0-4.59-3.77-4.65-6.61-4.91-3.17-.28-2.33,2.69-2.5,4.61C83.28,195.16,83.34,195.9,83.34,196.64Z"/><path class="cls-6" d="M144.26,143.72c-4.11-3-9.17-3.89-13.66-6.06-7.4-3.57-8.39-10-2.45-15.94.09,5,.3,5.26,4.44,3,3.55-1.92,7-2.92,11-1.42a2.09,2.09,0,0,0,2.8-.68c-.79-1.63-2.49-1.92-3.9-2.49-4.16-1.7-8.39-.87-12.6-.17,2.66-3.08,6.11-3.09,9.64-2.28a30.89,30.89,0,0,1,15.16,8.54C158.89,136,153.69,144.68,144.26,143.72Z"/><path class="cls-6" d="M170.1,104.65c-1.35,1-2.55,2.31-4.49,1.83a29.26,29.26,0,0,0-15.53-9.68c-6-1.42-7.94-5.15-4.63-10.43,1.82-2.91,4-6.28,8.59-4.89-2,1.22-4.1,2.23-5.49,4.21-.73,1-1.28,2.28-.32,3.2s1.75-.4,2.51-.94c3.13-2.23,6.19-4.54,10.46-3.32,2,.59,1.56-1.09,1.65-2.16,9.56,3.5,13.32,10,9.44,18.77a9.88,9.88,0,0,0-.39,2.59l0,0A1.52,1.52,0,0,0,170.1,104.65Z"/><path class="cls-6" d="M126.13,92.48c4.7.6,7.23,3.85,8.85,7.79.89,2.17-3,10.53-5.17,11.9-2.53,1.61-5,1.07-7.58-.12-3.87-1.81-7.45-4.4-11.93-4.66a2.63,2.63,0,0,1-2.7-2.37c-1.27-5.87,3.77-13.44,9.78-14.55,2.07.68,4.92-1.46,6.29,1.75-2.57.16-6.12-.53-6.62,2.7-.36,2.28,3,2.2,4.86,2.65,2.18.52,4.91,2.32,6.55.1C130,95.63,126.18,94.61,126.13,92.48Z"/><path class="cls-6" d="M162,65.41c.18-.4.28-1.08.56-1.16,6.32-1.84,11.25,1.3,15.87,4.83,3.35,2.57,4.35,8.4,2.65,12.65a33.15,33.15,0,0,1-2.19,4.38c-1.48,2.5-3.15,3.32-5.59.83-4.5-4.58-9.36-8.44-16.22-9.18-3.46-.36-4.13-4.79-1.49-8.78a15.59,15.59,0,0,1,3-2.61c-.26,1.14-.56,2.28-.76,3.43-.23,1.35.48,2.18,1.73,1.66,2.17-.9,4.15-2.23,6.3-3.18s4.39,1.06,7,0C169.7,64.13,165.54,65.93,162,65.41Z"/><path class="cls-6" d="M135.24,75.28c7.42,1.35,10.18,5.76,7.88,12.6-.32,1-.65,2-1,3-1.71,5-4.23,6.08-8.66,3.09-4.67-3.15-9.84-4.69-15.12-6.15,0-1.48-.09-3-.13-4.43,3.15-7.53,6.76-10.3,12.67-9.83,1.26.1,2.36.2,2.57,1.74l-.45,0c-2.37.2-6-.81-6.15,2.5-.15,2.59,3.51,2.07,5.45,2.55s4.5,2.07,5.72.21C139.67,78.08,135.75,77.33,135.24,75.28Z"/><path class="cls-6" d="M150.39,100.28a10.73,10.73,0,0,1,10.26,5.15c1.79,2.86.15,6.27-2.27,8.85-2.81,3-5.63,5-10.13,2.94-2.7-1.25-5.44-2.63-8.64-2.94-2.19-.22-5-1.56-5.11-4.19a10.74,10.74,0,0,1,4.56-9.21c2.76-1.95,6.19-4.58,9.67-.67-3.86.08-7.76.1-10.27,3.77-.61.88-.9,2.07,0,2.83s1.59-.23,2.19-.8c2.3-2.16,5.23-2.74,8.14-2.76,1.86,0,3.7,1.15,5.84.94C154.07,101.58,151.35,101.94,150.39,100.28Z"/><path class="cls-4" d="M144.26,143.72c9.43,1,14.63-7.76,10.42-17.47,3.41-1.11,6.89-2.1,8.69-5.73.28-.55,1-.19,1.43.32l-1.11,4.45c-1.26,1.64-1.24,3.12,1,3.63,3.43.79,6.93,2.89,10.36-.06,1-.86,1.84-.83,2.4.48a22.65,22.65,0,0,1-5.31,5,9.2,9.2,0,0,1-2.06-.76c-6.83-4.64-10.31-3.59-13.24,4-.37,1-.71,1.95-1.09,2.91-1.15,2.87-3.53,6.09,2.17,6.83.3,0,.48,1,.72,1.53-.68.81-1.37,1.61-2,2.42-6.54-.26-7.57.45-8.69,6.3a20.16,20.16,0,0,0-.1,3.48l0,0-1.07,1c-2,4.2-5.29,7.34-8.69,10.37-.23-8.14-.47-8.42-7.33-8.65a13.21,13.21,0,0,1-7.18-2.69c1.32-1.74,2.73-.44,4,0,3.89,1.44,7.93,1.09,11.82.65s5.87-3.56,6.9-7.23c.89-3.22,1.72-6.39-1.83-8.65C143.35,145.15,143.5,144.48,144.26,143.72Z"/><path class="cls-6" d="M181.54,50.46c8.18,5.32,9.52,11.08,4.27,18.24-1.22,1.66-2.3,2.44-4.27.66C177,65.27,172,61.9,165.47,61.79c-2.14,0-2.73-1.67-2.43-3.46.42-2.46.79-5,3.49-6.29.29,1.36-.79,3.23.85,4,1.19.56,1.87-1.14,2.84-1.73,2.72-1.63,5.5-3,8.78-1.78C181,53.27,181.78,52.49,181.54,50.46Z"/><path class="cls-6" d="M150.42,61c4.41,5.71,3.5,13.3-2.14,17.27-1.76,1.24-3.18-.17-4.33-1.15a22.11,22.11,0,0,0-10-4.48c-5-1.1-6.51-4.36-3.74-8.64a13.14,13.14,0,0,1,16.12-4.61c1.34.6,2.73,1.08,4.1,1.62Zm-7.65-.85c-3.33-.15-6-.07-6.09,2.42-.11,2.09,2.51,1.85,4.2,2.12a25.31,25.31,0,0,0,3,.7c1.36,0,3.22.76,3.74-1.25s-1-3-2.58-3.53A8.86,8.86,0,0,0,142.77,60.15Z"/><path class="cls-6" d="M129.3,157.44c-6.19-.05-12.23-6.39-11.94-12.51.26-5.45,5-8.69,9.93-6.52a102.68,102.68,0,0,1,11.33,6.06c2.19,1.3,3.19,2.79,1.4,5.71C137.27,154.69,133.87,157.49,129.3,157.44Zm.76-13.76c-.35-1.72-1.67-2.55-2.79-3.39a4.67,4.67,0,0,0-5.07-.26,4.42,4.42,0,0,0-2,3.76c-.08.91.36,2.24,1.37,1.45C124.14,143.18,127.27,144.65,130.06,143.68Z"/><path class="cls-6" d="M109.13,132.72c9.75,5,7.78,7.37,5.37,15.61-.69,2.38-2.82,3.32-5.12,3.65-7.38,1.07-12.75-3.6-12.49-11,.12-3.45-.13-7.21,3.48-9.45.31,2.47,2.12,3.7,4.07,4.72,1.52.79,3.2,2.29,4.83,1.24C111.33,136.12,108.81,134.34,109.13,132.72Z"/><path class="cls-6" d="M166.53,35.08c6.46,4.56,6.5,9.45.13,12.74-.83.43-1.91,1-2.48.52-3.79-3.44-10.15-2.88-12.73-8-1.13-2.27-2.17-1.47-2.56,0-1.06,3.94-4,3.81-7,3.71-1.48,0-3.09.14-3.72-1.67-.57-1.64.39-2.78,1.38-4a14.13,14.13,0,0,1,7.28-4.85c2.79-.7,5.53-.65,5.51,3.71l4.43-2.06c.06,1.9-.95,4.43,2.52,4.37C162.59,39.52,166.5,40.42,166.53,35.08Z"/><path class="cls-6" d="M123.54,161a13.21,13.21,0,0,0,7.18,2.69c.82,5.75-2.94,8.83-7.22,10.86-3.72,1.77-7.74,1.4-10.61-2.39a3.91,3.91,0,0,0-3.53-1.42c-.4-2.67-1.42-5.28-.73-8.05a31.48,31.48,0,0,1,3.29-4.69c2.06-2,4.36-2.55,6.31.33-1.32.07-2.77-.19-3.91.29-1.73.73-3.36,2.88-1.76,4,1.37,1,4.24.41,6.26-.14s0-2.23.29-3.37C121.05,158.72,121.88,160.86,123.54,161Z"/><path class="cls-6" d="M156.65,46.75c3.6.4,5.9,2.87,5.94,6,0,3.6-1.38,7.49-4.63,9.51-2.31,1.44-4.84-1.65-7.54-1.25h0c-1.37-3-4.1-3.92-7-4.44-3.83-.69-4.67-2.31-2.7-5.65,2.95-5,9.43-6.68,15.91-4.17a51.66,51.66,0,0,0-6.59.1c-1.53.2-3.81,1.43-2.39,3,2.25,2.5,5.89,1.73,8.76,1C158.78,50.33,156.46,48.18,156.65,46.75Z"/><path class="cls-6" d="M118.31,114.49c2.92,1.27,6,2.77,5,6.63-1.22,4.78-7.22,8.53-11.51,7.72-6.91-1.29-10.49-11.13-6-16.54A3.2,3.2,0,0,1,108.5,111a6.61,6.61,0,0,0,5.52,7C116.85,118.6,118.8,118,118.31,114.49Z"/><path class="cls-4" d="M118.23,83.34c0,1.48.08,3,.13,4.43-1.13.61-1,1.69-1,2.7-6,1.11-11,8.68-9.78,14.55a2.63,2.63,0,0,0,2.7,2.37c-.09.12-.16.29-.28.34-4,1.62-7.54,3.3-7.91,8.64-.28,4-1.92,8,.79,11.85-2.25,1.19-4.38.38-6.38.78.78-8.33,4.33-16,6.06-24.06,1.26-5.91,3.52-11.6,5.33-17.38,5.48,3.2,5.93,3.08,8.46-2.69C116.77,83.93,117.24,83.4,118.23,83.34Z"/><path class="cls-6" d="M164.72,28c1.39-.09,2.76.36,3.65-1.59,2.09-4.57,8.43-6.22,12.68-3.59a4.38,4.38,0,0,1,2.42,3.94,3.35,3.35,0,0,1-2.87,3.45,4.54,4.54,0,0,0-3.82,3.45c-.89,2.68-3.36,2.93-5.92,1.69-1.4-.69-2.56-2.93-4.54-.95l-3.46-.26L164.73,28Z"/><path class="cls-6" d="M188.79,37.78c4.54,3.46,6,8.39,3.59,12.54-1.16,2-2.33,3.31-4.75,1.1a20.68,20.68,0,0,0-11.46-5.3c-1.21-.16-3.33.2-3.29-2.08,0-1.68.51-3.24,2.53-3.64C180.32,41.82,184.39,39,188.79,37.78Z"/><path class="cls-6" d="M178.13,111a26.78,26.78,0,0,0-3.88-.81c-3.24-.2-3.49-2.11-2.89-4.62a1.63,1.63,0,0,0,.5-1.7l0,0c2.91-.67,2.89-3.37,3.72-5.45,1.07-2.66,2.46-4.66,5.82-4.32,3.6.37,3.38,3.34,3.75,5.61C186.14,105.38,181.53,107.87,178.13,111Z"/><path class="cls-6" d="M193.93,31.94c-1,1,0,2-.07,2.94-.08,1.52-1.23,2.46-2.3,1.29-2.12-2.32-5-3-8.32-4.12,2.28-1.85,3.72-3.26,3.2-6.22-.43-2.4,2.46-3.28,4.52-3a8.47,8.47,0,0,1,6.6,4.05c.93,1.72,2.55,3.71,1.07,5.68S195.58,31.53,193.93,31.94Z"/><path class="cls-6" d="M102.23,155.56c1.77.19,2.48,1.22,2.65,2.95.39,4-5.39,9.45-9.31,8.69A3.43,3.43,0,0,1,92.43,164c-.14-3.48-.77-7.1,1.71-10.16C96.74,154.85,98.49,159.79,102.23,155.56Z"/><path class="cls-6" d="M163.69,125.29l1.11-4.45a1.77,1.77,0,0,0,.82-1.8c2.59-6.45,2.59-6.45,9.83-6.25,1.6,4,1,7.32-2.56,10.23C170.05,125.33,167.38,127,163.69,125.29Z"/><path class="cls-6" d="M191.63,81.49c-.92,3.34-1.73,6.74-5.61,8.22a3.17,3.17,0,0,1-3.31-.13c-1.34-.94-.93-2-.33-3.11a10.38,10.38,0,0,0,1.15-5.57c0-2.47.71-4.81,3.59-4.41C189.53,76.82,192.19,77.88,191.63,81.49Z"/><path class="cls-6" d="M196.88,66.31c1.27,4.37-2.26,5.74-4.74,7.62-1.31,1-2.85.35-4.12-.54s-.63-2.07-.21-3.16c.63-1.64,1.38-3.26,1.87-4.94.77-2.62,1.83-4.76,5.13-4.24C198.51,61.64,196.14,64.64,196.88,66.31Z"/><path class="cls-6" d="M202.23,47.59c.92,1.38,2,2.67,2,4.47-2.71.73-4.32,2.93-6.21,4.71-1.32,1.25-2.57,1.91-4.29.8-1.93-1.23-1.15-2.69-.54-4.25C196,46,196.58,45.63,202.23,47.59Z"/><path class="cls-6" d="M205.6,38.75a4.31,4.31,0,0,1,1.8,3.54c-2.6.53-4.87,2.05-7.73,2-3.87-.11-4.82-2.24-4.46-5.45.45-4,3.58-2.66,5.84-2.59C202.87,36.27,204.17,37.73,205.6,38.75Z"/><path class="cls-6" d="M122.76,59.23l1.47-.19c4,1,4.9,2.73,3,6.15a32,32,0,0,1-3.69,5.45c-1.94,2.27-3.41.27-4-1.17-.84-2.17-1-4.61.86-6.63C121.43,61.78,122.75,60.91,122.76,59.23Z"/><path class="cls-7" d="M129.88,120c4.21-.7,8.44-1.53,12.6.17,1.41.57,3.11.86,3.9,2.49a2.09,2.09,0,0,1-2.8.68c-4-1.5-7.44-.5-11,1.42-4.14,2.23-4.35,2-4.44-3Z"/><path class="cls-6" d="M164.73,28c-3.07.42-4.36,4-7.62,4.18-1.62.1-3.44.8-4.42-1-1.08-1.94.64-2.94,1.92-3.91,2.4-1.81,4.9-3.27,8.15-2.88,2.53.31,3.06,1.43,2,3.58Z"/><path class="cls-6" d="M129.82,47.46l1.92-1.54c1.62,0,3.25-.11,4.88-.09,1.14,0,2.52-.3,3,1.23a3.3,3.3,0,0,1-.84,2.86c-1.85,2.62-4.95,3.22-7.57,4.33-1.93.83-1.66-2.86-3.62-3.16.06-.31.13-.61.2-.91,1-.16,1.21-.85,1.16-1.72h0C129.23,48.13,129.53,47.8,129.82,47.46Z"/><path class="cls-7" d="M181.54,50.46c.24,2-.5,2.81-2.54,2.06-3.28-1.22-6.06.15-8.78,1.78-1,.59-1.65,2.29-2.84,1.73-1.64-.76-.56-2.63-.85-4,2.55-3.49,5.94-4,9.85-2.84C178.08,49.71,179.82,50.05,181.54,50.46Z"/><path class="cls-7" d="M126.13,92.48c.05,2.13,3.85,3.15,2.33,5.19-1.64,2.22-4.37.42-6.55-.1-1.87-.45-5.22-.37-4.86-2.65.5-3.23,4-2.54,6.62-2.7Z"/><path class="cls-7" d="M150.39,100.28c1,1.66,3.68,1.3,4.23,3.91-2.14.21-4-1-5.84-.94-2.91,0-5.84.6-8.14,2.76-.6.57-1.31,1.56-2.19.8s-.6-2,0-2.83c2.51-3.67,6.41-3.69,10.27-3.77Z"/><path class="cls-7" d="M162,65.41c3.56.52,7.72-1.28,10.81,2.88-2.6,1-4.88-.94-7,0s-4.13,2.28-6.3,3.18c-1.25.52-2-.31-1.73-1.66.2-1.15.5-2.29.76-3.43C159.42,65.13,160.79,65.6,162,65.41Z"/><path class="cls-7" d="M118.31,114.49c.49,3.49-1.46,4.11-4.29,3.55a6.61,6.61,0,0,1-5.52-7A12.06,12.06,0,0,1,118.31,114.49Z"/><path class="cls-7" d="M135.24,75.28c.51,2,4.43,2.8,2.8,5.26-1.22,1.86-3.9.23-5.72-.21s-5.6,0-5.45-2.55c.2-3.31,3.78-2.3,6.15-2.5l.45,0Z"/><path class="cls-6" d="M118.19,74.82a14.71,14.71,0,0,1-3.86,9.42c-.61.65-1.49,1.84-2.57,1.19s-.54-1.82-.24-2.8c.8-2.65,1.59-5.29,2.38-7.94Z"/><path class="cls-7" d="M162.85,82.47c-.09,1.07.39,2.75-1.65,2.16-4.27-1.22-7.33,1.09-10.46,3.32-.76.54-1.45,2-2.51.94s-.41-2.17.32-3.2c1.39-2,3.51-3,5.49-4.21l3.51,0c.72,1.08,1.78.91,2.83.79Z"/><path class="cls-7" d="M162.86,34.12l3.46.26c.08.23.15.46.21.7,0,5.34-3.94,4.44-7.25,4.49-3.47.06-2.46-2.47-2.52-4.37l3.46-1,1,0Z"/><path class="cls-7" d="M188.79,37.78c-4.4,1.17-8.47,4-13.38,2.62C176.93,35.39,183.12,34.17,188.79,37.78Z"/><path class="cls-7" d="M109.13,132.72c-.32,1.62,2.2,3.4.14,4.72-1.63,1.05-3.31-.45-4.83-1.24-2-1-3.76-2.25-4.07-4.72C103.62,129.54,106.35,131.31,109.13,132.72Z"/><path class="cls-4" d="M118.19,74.82l-4.29-.13-2.15-.27c.06-3.65.86-6.92,4.54-8.68C115.62,69,117.84,71.74,118.19,74.82Z"/><path class="cls-7" d="M119.11,159.19c-.33,1.14,1.78,2.81-.29,3.37s-4.89,1.14-6.26.14c-1.6-1.16,0-3.31,1.76-4,1.14-.48,2.59-.22,3.91-.29Z"/><path class="cls-7" d="M102.23,155.56c-3.74,4.23-5.49-.71-8.09-1.75.46-3.09,2.24-2.79,4.36-1.71A10.16,10.16,0,0,1,102.23,155.56Z"/><path class="cls-6" d="M160.38,82.3c-1,.12-2.11.29-2.83-.79C159,80.12,159.85,80.58,160.38,82.3Z"/><path class="cls-2" d="M120.62,58.45A1,1,0,0,1,121,59l-1,.1Z"/><path class="cls-6" d="M161.21,34.11l-1,0C160.52,33.68,160.85,33.66,161.21,34.11Z"/><path class="cls-8" d="M196.66,117.26l2.17-1.74c6.34-3.55,12.3-7.73,19-10.65a45.65,45.65,0,0,1,23.07-3.71c1.94.19,4.26.42,4.74,2.57s-2.11,2.14-3.27,3.14c-2,1.73-4.75,2.53-6.2,4.95-1.69-.11-2.05,1.84-3.44,2.19-1.53-1.67-3.21-2.7-5.32-1-5.26,4.27-11.53,7.19-16.26,12.18v1l0,0a1.55,1.55,0,0,0-1.81.91h0l-.91.91v0c-4.45,1.68-6.56,6-9.94,8.86-1.19,1.12-2.43,2.18-3.57,3.35-12.85,13.22-24.8,27.25-36.75,41.28-1.62.33-1.63,1.55-1.57,2.81l-1.84,1.69c-2.45-.18-3.71,1.51-5,3.15-2,2.53-3.8,5.33-6.12,7.55-8.37,8-15.07,17.37-22.22,26.4-7.89,10-16.11,19.76-28.7,24.31-4.89,1.77-7.5,1-10.32-3.49,1.87-7.89,7.52-13.41,12.62-19.08,12.19-13.57,25.38-26.2,37.18-40.16,13.4-15.86,26.17-32.28,41-46.93A198.6,198.6,0,0,1,196,117.78Z"/><path class="cls-9" d="M211.16,125.21c4.73-5,11-7.91,16.26-12.18,2.11-1.72,3.79-.69,5.32,1-16.67,16.86-29.16,36.6-39.75,57.64-6,11.91-11.35,24.19-18.05,35.68-14.72,25.23-35.73,42.91-64.45,50.46a80.78,80.78,0,0,1-9.21,1.36c-1-1.23-2.38-.67-3.6-.87.48-2.46,2.1-3.78,4.36-4.54s4.78-1.59,7.11-2.54c18.53-7.57,31.28-21.87,43.3-37.06,3.75-4.74,6.1-10.46,10.45-14.77,2.47-.5,4.35.87,6.06,2.24,2,1.57,3,1.13,4-1,2-4,4.18-7.85,6.33-11.75,8.19-14.88,14.38-30.89,25.19-44.3,2-2.49,1.08-4.1-2.23-4.12-1.3,0-2.72.34-3.71-.94l1-.86c3.13-3.45,7.13-6.18,8.92-10.74v0c.3-.3.6-.61.91-.91h0a1.66,1.66,0,0,0,1.81-.91l0,0C211.88,125.85,211.72,125.53,211.16,125.21Z"/><path class="cls-10" d="M97.77,111c-2.57,9.59-5.07,19.2-7.73,28.76-5.73,20.59-10.62,41.36-13.51,62.55a109.45,109.45,0,0,0,2.86,43.59c-1,3.91-3.38,4.12-6.66,2.65-2-.9-3.48-2.78-5.85-2.89-5.74-5-7.82-11.93-10.27-18.7-.3-2.65-.59-5.3-.89-7.95,3.29,0,5.06,1.4,5.69,4.82a14,14,0,0,0,3.88,7.82c.75.71.95,2.64,2.5,1.84A3,3,0,0,0,69,230.36c-.4-2.75-1.07-5.47-1.41-8.23a17.46,17.46,0,0,1,4.17-13.84,3.16,3.16,0,0,0,2.39,2.94c-3-8.76-.62-17-.52-25.3,1.57.12,2.29-.42,2.61-2.17,2.59-14.08,5.3-28.13,8-42.17.64-3.26,1-6.69,2.39-9.64,2.8-6,6.2-11.72,7.57-18.32C94.65,111.86,95.73,110.71,97.77,111Z"/><path class="cls-3" d="M66.88,245.68c2.37.11,3.86,2,5.85,2.89,3.28,1.47,5.65,1.26,6.66-2.65l2.18-1.07c-.39,5.13.66,9.53,6.16,11.48,3.21,1.14,6.43,2.35,10,1.95,1.22.2,2.63-.36,3.6.87-1,5.2-5.43,8.14-8.12,12.22-1.86,2.83-4,5.41-7.7,6.14-2,.39-3.74.68-5.53-.36,0-1.18,0-2.36,0-3.54l1.67-.13c6.29-1.67,6.64-9.35,12.75-11.71l-28-12.47C65.85,248,64.71,246.61,66.88,245.68Z"/><path class="cls-10" d="M81.61,273.48l-1.67.13c-5.55-2.93-11.78-4.62-16.48-9.09q1.3-5.44,2.6-10.91c6.9,2,8.55,7.06,7.87,13.67a34.35,34.35,0,0,0,2.28-6.87c.25-1.11.37-2,1.82-2,4.06.08,7.07,4.59,6.57,8.75C84.28,269.81,81.74,271,81.61,273.48Z"/><path class="cls-9" d="M81.61,273.48c.13-2.47,2.67-3.67,3-6.29.5-4.16-2.51-8.67-6.57-8.75-1.45,0-1.57.86-1.82,2a34.35,34.35,0,0,1-2.28,6.87c.68-6.61-1-11.7-7.87-13.67.1-1.44.21-2.87.31-4.31l28,12.47C88.25,264.13,87.9,271.81,81.61,273.48Z"/><path class="cls-9" d="M63.46,264.52c4.7,4.47,10.93,6.16,16.48,9.09,0,1.18,0,2.36,0,3.54a21.74,21.74,0,0,1-15.13-7.43C63.58,268.32,62.49,266.62,63.46,264.52Z"/><path class="cls-8" d="M71.8,208.29a17.46,17.46,0,0,0-4.17,13.84c.34,2.76,1,5.48,1.41,8.23a3,3,0,0,1-1.25,3.15c-1.55.8-1.75-1.13-2.5-1.84a14,14,0,0,1-3.88-7.82c-.63-3.42-2.4-4.84-5.69-4.82-2.65-17-2-33.86.52-50.83A309.49,309.49,0,0,1,75.31,98.08c7-17.35,14.46-34.48,25.38-49.85a33.29,33.29,0,0,1,6-6.49c1.38-1.14,3.06-2,4.93-1.08A4.32,4.32,0,0,1,114,45.14c-.2,3.53-.45,7.06-.68,10.59C109.2,74.46,103.12,92.64,97.77,111c-2-.31-3.12.84-3.49,2.61-1.37,6.6-4.77,12.31-7.57,18.32-1.37,3-1.75,6.38-2.39,9.64-2.74,14-5.45,28.09-8,42.17-.32,1.75-1,2.29-2.61,2.17,0-.57,0-1.14,0-1.71,1.33-1.34.67-3,.73-4.55-.12-3.14.55-6.2.81-9.29a331.36,331.36,0,0,1,8.94-52.06,25,25,0,0,0,.91-4.79c.05-1.45,1.69-2.75.08-4.77C75.68,141.54,70.29,174.44,71.8,208.29ZM86.49,106.8a2,2,0,0,0,.31-.73c0-.15-.25-.3-.39-.46-.06.13-.18.26-.16.38A6.5,6.5,0,0,0,86.49,106.8Z"/><path class="cls-1" d="M163.69,125.29c3.69,1.74,6.36,0,9.2-2.27,3.57-2.91,4.16-6.21,2.56-10.23a8.94,8.94,0,0,1,7.3,4.79c.82,1.39,1.45,2.88,2.89,3.78a5.48,5.48,0,0,1-2.84,3.12c-1.13-.24-2.31-1.72-3.37-.2-.74,1.07.24,1.76,1.17,2.25a8,8,0,0,1-3.17,2.81c-.56-1.31-1.4-1.34-2.4-.48-3.43,2.95-6.93.85-10.36.06C162.45,128.41,162.43,126.93,163.69,125.29Z"/><path class="cls-1" d="M200.53,103.91c-4.82-.33-6-2.45-3.57-6.68a24.46,24.46,0,0,0,2.63-6.47c.88-3.54,2.32-4.94,5.47-2C205.15,94.29,205.24,99.81,200.53,103.91Z"/><path class="cls-1" d="M209.39,75.58a13.68,13.68,0,0,1-1.9,7.83c-1.15,2.14-3.28,2.19-5,1.41-1.92-.87-1.1-2.69-.49-4.22,1-2.44,2-4.86,2.83-7.34.46-1.35.22-3.31,2.37-3,1.95.3,2.37,2,2.22,3.75C209.36,74.47,209.39,74.92,209.39,75.58Z"/><path class="cls-1" d="M211.27,61.13a6.59,6.59,0,0,1-1.42,4.22c-.77,1-1.63,2.35-3.22,1.27a2.44,2.44,0,0,1-1.11-3.37c.81-1.87,1.18-3.93,1.93-5.84.49-1.22-1-3.55,1.12-3.55,1.51,0,2.11,2.26,2.51,3.84A21.7,21.7,0,0,1,211.27,61.13Z"/><path class="cls-5" d="M200.53,103.91c4.71-4.1,4.62-9.62,4.53-15.15,1-.55,1.66-.47,1.66.89,0,2.49,0,5,0,7.48-.31,1.75-2.42,2.81-1.88,4.89l.06,0-.92,1a.86.86,0,0,0-.14.56l-.74,1.27a.87.87,0,0,0-.09.55l-.77,1.15,0,0c-1.27.06-1.83.64-1.42,1.94-.1.35-.2.7-.29,1.05l-1.34,0C198.38,107.36,198.4,105.39,200.53,103.91Z"/><path class="cls-1" d="M171.86,103.88a1.63,1.63,0,0,1-.5,1.7l-1.26-.93A1.52,1.52,0,0,1,171.86,103.88Z"/><path class="cls-9" d="M203.84,103.59A.86.86,0,0,1,204,103c.31-.35.62-.69.92-1l-.06,0c1.75-.87,3.3-2.46,5.54-1.47,1.52,2.55,1,4.57-1.86,5.46-2.11.65-3.47,3.3-6.17,2.29,0-.59,0-1.19-.07-1.78l0,0a1,1,0,0,0,.77-1.15.82.82,0,0,1,.1-.55C203.35,104.43,203.6,104,203.84,103.59Z"/><path class="cls-2" d="M202.28,106.52c0,.59.05,1.19.07,1.78l-1.5.16C200.45,107.16,201,106.58,202.28,106.52Z"/><path class="cls-1" d="M128.92,48.46c.05.87-.16,1.56-1.16,1.72A1.67,1.67,0,0,1,128.92,48.46Z"/><path class="cls-1" d="M129.82,47.46c-.29.34-.59.67-.89,1C129.23,48.13,129.53,47.8,129.82,47.46Z"/><path class="cls-10" d="M97.68,258.28c-3.52.4-6.74-.81-10-1.95-5.5-1.95-6.55-6.35-6.16-11.48l.87-1c2.82,4.43,5.43,5.25,10.32,3.48,12.59-4.55,20.81-14.35,28.7-24.31,7.15-9,13.85-18.39,22.22-26.4,2.32-2.22,4.1-5,6.12-7.55,1.3-1.64,2.56-3.33,5-3.15-7.73,9.74-15.57,19.4-23.13,29.27-5.84,7.63-12.82,14.35-17.88,22.6a1.08,1.08,0,0,0-.3.16s0,.15-.06.23l.33-.42c2.06-.06,2.8-2.06,4.32-2.92a1.29,1.29,0,0,0,2.18.44c2.47-1.87,5.16-3.4,7.47-5.56,10.41-9.75,19.59-20.64,29.26-31.07,1.46-1.58,2.53-3.29,2.33-5.56,2.1-2.63,3.9-5.5,6.49-7.72,1.44-1.23,2.4-1.18,2.47.95s.18,4.28-1.35,6.26a61.51,61.51,0,0,0-4,6.8c-4.35,4.31-6.7,10-10.45,14.77-12,15.19-24.77,29.49-43.3,37.06-2.33,1-4.72,1.74-7.11,2.54S98.16,255.82,97.68,258.28Z"/><path class="cls-1" d="M109.36,170.78a3.91,3.91,0,0,1,3.53,1.42c2.87,3.79,6.89,4.16,10.61,2.39,4.28-2,8-5.11,7.22-10.86,6.86.23,7.1.51,7.33,8.65a12,12,0,0,1-3.63,4.56c-.4.4-.81.79-1.22,1.18v0c-4.63.6-9.24,1.46-13.9,0A16.47,16.47,0,0,1,109.36,170.78Z"/><path class="cls-1" d="M121,181.45c2.66.57,6.55-1.59,7.3,3.26a42.33,42.33,0,0,1-8.21,9.35c-4.38-.28-9,1.08-13-1.56-3.37-2.18-6.24-4.64-5.74-9.22,2.07.15,1.77,2.12,2.44,3.29,2.21,3.85,6.36,6.05,9.54,4.39C117.15,189,120.26,186.08,121,181.45Z"/><path class="cls-1" d="M158.62,148.85c-.24-.53-.42-1.49-.72-1.53-5.7-.74-3.32-4-2.17-6.83.38-1,.72-1.94,1.09-2.91,2.93-7.61,6.41-8.66,13.24-4a9.2,9.2,0,0,0,2.06.76Zm6-13.73c-.11-1.47-.85-1.88-1.83-1.78-3.06.32-3.45,2.87-4,5.12a1.28,1.28,0,0,0,1.53,1.63C162.84,139.29,163.34,136.69,164.66,135.12Z"/><path class="cls-1" d="M93.34,221.9c-5.41-3.05-7.12-5.7-6.33-10.23.35-2,.87-4.09,3.53-4.3a27.3,27.3,0,0,0-.77,4.69c0,1.37.91,3,2.44,1.82,1.73-1.35,4.4-2,4.71-4.81l6.29,2.82A80.46,80.46,0,0,1,93.34,221.9Z"/><path class="cls-1" d="M109.55,196.55a19.35,19.35,0,0,1,7.15,1.17c-3.76,4.18-6.91,9-11.9,11.93-2-.7-4.06-1.46-6.12-2.09-2.76-.85-4.43-2.51-4.54-5.51a5.69,5.69,0,0,1,1.65.52C102.73,207.46,108.4,205,109.55,196.55Z"/><path class="cls-1" d="M84.33,233.3c-3.78-2.84-3.1-6.63-1.91-10.29.93-2.85,2.92-3.82,5.83-2.13a33.16,33.16,0,0,0,4.43,1.81Z"/><path class="cls-1" d="M147.79,161.05a20.16,20.16,0,0,1,.1-3.48c1.12-5.85,2.15-6.56,8.69-6.3C153.77,154.64,151.37,158.37,147.79,161.05Z"/><path class="cls-4" d="M180.6,126.53c-.93-.49-1.91-1.18-1.17-2.25,1.06-1.52,2.24,0,3.37.2A4.09,4.09,0,0,1,180.6,126.53Z"/><path class="cls-3" d="M196.66,117.26l-.65.52A1,1,0,0,1,196.66,117.26Z"/><path class="cls-1" d="M146.74,162l1.07-1C147.75,161.66,147.44,162.05,146.74,162Z"/><path class="cls-4" d="M133.2,178.12c.41-.39.82-.78,1.22-1.18A1.39,1.39,0,0,1,133.2,178.12Z"/><path class="cls-6" d="M121,181.45c-.76,4.63-3.87,7.51-7.72,9.51-3.18,1.66-7.33-.54-9.54-4.39-.67-1.17-.37-3.14-2.44-3.29.15-2.68.47-5.3,2.56-7.3l1-.15.08.2c-.68,2.94,1.07,3.67,3.5,4.21s3.3-.29,3.6-2.44Z"/><path class="cls-6" d="M109.55,196.55c-1.15,8.44-6.82,10.91-13.76,6a5.69,5.69,0,0,0-1.65-.52c0-1.21,0-2.42-.08-3.63,2,.26,1.52-1.94,2.58-2.62,4.35,1.29,5.15.75,5.51-3.69Z"/><path class="cls-1" d="M83.34,196.64c0-.74-.06-1.48,0-2.22.17-1.92-.67-4.89,2.5-4.61,2.84.26,6.56.32,6.61,4.91a13.14,13.14,0,0,1-1.78,7.64c-1.13,1.73-2.56,2.33-4.9,1.75-2.52-.63-2.47-2.1-2.47-3.91v-3.56Z"/><path class="cls-1" d="M95,172.65c2.26.53,5.06.72,5.35,3.64a12.35,12.35,0,0,1-4.7,11.34c-2.2,1.77-4.74,1.16-7.2.77-.37-.05-.74-.46-1-.79-2.33-2.78-1.62-11.2,1.18-14.23a14,14,0,0,1-.47,5.22c-.56,2.27-1,5.34,1.73,6.11,2.3.65,4.47-1,6.2-3.25C98.84,177.9,96,175.48,95,172.65Z"/><path class="cls-6" d="M95,172.65c1,2.83,3.85,5.25,1.08,8.81-1.73,2.23-3.9,3.9-6.2,3.25-2.71-.77-2.29-3.84-1.73-6.11a14,14,0,0,0,.47-5.22C90.31,169.42,92.92,173.41,95,172.65Z"/><path class="cls-7" d="M96.92,209.07c-.31,2.8-3,3.46-4.71,4.81-1.53,1.19-2.44-.45-2.44-1.82a27.3,27.3,0,0,1,.77-4.69C92.85,207.28,95.24,206.82,96.92,209.07Z"/><path class="cls-7" d="M112,177.8c-.3,2.15-1.28,3-3.6,2.44s-4.18-1.27-3.5-4.21C107.87,174.38,110.21,175.07,112,177.8Z"/><path class="cls-7" d="M102.15,192.11c-.36,4.44-1.16,5-5.51,3.69-.1-.68-.21-1.36-.31-2,0-.22.09-.43.13-.64a1.51,1.51,0,0,0,1.22-1.25C99.25,190.4,100.78,189.69,102.15,192.11Z"/><path class="cls-1" d="M96.33,193.76c.1.68.21,1.36.31,2-1.06.68-.56,2.88-2.58,2.62C94.23,196.58,93.21,194.16,96.33,193.76Z"/><path class="cls-1" d="M97.68,191.87a1.51,1.51,0,0,1-1.22,1.25c-.44-.42-.58-.92-.14-1.37S97.26,191.45,97.68,191.87Z"/><path class="cls-1" d="M104.86,175.83l-1,.15C104.15,175.54,104.46,175.37,104.86,175.83Z"/><path class="cls-7" d="M142.77,60.15a8.86,8.86,0,0,1,2.26.46c1.6.56,3.09,1.55,2.58,3.53s-2.38,1.3-3.74,1.25a25.31,25.31,0,0,1-3-.7c-1.69-.27-4.31,0-4.2-2.12C136.81,60.08,139.44,60,142.77,60.15Z"/><path class="cls-7" d="M130.06,143.68c-2.79,1-5.92-.5-8.54,1.56-1,.79-1.45-.54-1.37-1.45a4.42,4.42,0,0,1,2-3.76,4.67,4.67,0,0,1,5.07.26C128.39,141.13,129.71,142,130.06,143.68Z"/><path class="cls-7" d="M156.65,46.75c-.19,1.43,2.13,3.58-.22,4.15-2.87.68-6.51,1.45-8.76-1-1.42-1.57.86-2.8,2.39-3a51.66,51.66,0,0,1,6.59-.1Z"/><path class="cls-2" d="M118.09,234.83c-1.52.86-2.26,2.86-4.32,2.92l0,0c5.06-8.25,12-15,17.88-22.6,7.56-9.87,15.4-19.53,23.13-29.27l1.84-1.69a2.25,2.25,0,0,0,1.57-2.81c11.95-14,23.9-28.06,36.75-41.28,1.14-1.17,2.38-2.23,3.57-3.35a1.78,1.78,0,0,1,1,1.88l-1,.86c-4,4.54-8.13,9-12,13.63-10.87,13-21.62,26.16-32.45,39.23-6.22,7.52-12.56,15-18.13,23Z"/><path class="cls-3" d="M199.56,138.66a1.78,1.78,0,0,0-1-1.88c3.38-2.88,5.49-7.18,9.94-8.86C206.69,132.48,202.69,135.21,199.56,138.66Z"/><path class="cls-10" d="M158.22,181.41a2.25,2.25,0,0,1-1.57,2.81C156.59,183,156.6,181.74,158.22,181.41Z"/><path class="cls-3" d="M211.19,126.13a1.66,1.66,0,0,1-1.81.91A1.55,1.55,0,0,1,211.19,126.13Z"/><path class="cls-3" d="M211.16,125.21c.56.32.72.64,0,1C211.16,125.84,211.16,125.53,211.16,125.21Z"/><path class="cls-3" d="M209.4,127c-.31.3-.61.61-.91.91C208.79,127.64,209.09,127.33,209.4,127Z"/><path class="cls-3" d="M136,215.37c5.57-8,11.91-15.47,18.13-23,10.83-13.07,21.58-26.2,32.45-39.23,3.87-4.65,8-9.09,12-13.63,1,1.28,2.41.94,3.71.94,3.31,0,4.24,1.63,2.23,4.12-10.81,13.41-17,29.42-25.19,44.3-2.15,3.9-4.33,7.78-6.33,11.75-1.07,2.11-2.08,2.55-4,1-1.71-1.37-3.59-2.74-6.06-2.24a61.51,61.51,0,0,1,4-6.8c1.53-2,1.43-4.08,1.35-6.26s-1-2.18-2.47-.95c-2.59,2.22-4.39,5.09-6.49,7.73-6.18,6.32-12.33,12.68-18.58,18.95C139.4,213.4,138.78,216,136,215.37Z"/><path class="cls-3" d="M73.68,184.22c0,.57,0,1.14,0,1.71-.1,8.28-2.47,16.54.52,25.3a3.16,3.16,0,0,1-2.39-2.94c-1.51-33.85,3.88-66.75,13.35-99.53,1.61,2,0,3.32-.08,4.77a25,25,0,0,1-.91,4.79,331.36,331.36,0,0,0-8.94,52.06c-.26,3.09-.93,6.15-.81,9.29C73.09,181,73.67,182.66,73.68,184.22Z"/><path class="cls-10" d="M73.68,184.22c0-1.56-.59-3.21.73-4.55C74.35,181.21,75,182.88,73.68,184.22Z"/><path class="cls-3" d="M86.49,106.8a6.5,6.5,0,0,1-.24-.81c0-.12.1-.25.16-.38.14.16.4.31.39.46A2,2,0,0,1,86.49,106.8Z"/><path class="cls-2" d="M203,105.41a1,1,0,0,1-.77,1.15Z"/><path class="cls-2" d="M203.84,103.59c-.24.42-.49.84-.73,1.27Z"/><path class="cls-2" d="M204.9,102c-.3.35-.61.69-.92,1C204.29,102.69,204.6,102.34,204.9,102Z"/><path class="cls-9" d="M136,215.37c2.77.61,3.39-2,4.74-3.33,6.25-6.27,12.4-12.63,18.58-18.95.2,2.26-.87,4-2.33,5.55-9.67,10.43-18.85,21.32-29.26,31.07-2.31,2.16-5,3.69-7.47,5.56a1.29,1.29,0,0,1-2.18-.44Z"/><path class="cls-2" d="M113.77,237.75l-.33.42c0-.08,0-.19.06-.23a1.08,1.08,0,0,1,.3-.16Z"/><path class="cls-7" d="M164.66,135.12c-1.32,1.57-1.82,4.17-4.32,5a1.28,1.28,0,0,1-1.53-1.63c.57-2.25,1-4.8,4-5.12C163.81,133.24,164.55,133.65,164.66,135.12Z"/></g></svg>