<svg xmlns="http://www.w3.org/2000/svg" viewBox="0 0 300 300"><defs><style>.cls-1{fill:#466f41;}.cls-2{fill:#69ab53;}.cls-3{fill:#51944f;}.cls-4{fill:#83b952;}.cls-5{fill:#a2c64e;}</style></defs><title>fp</title><g id="огурец"><path class="cls-1" d="M233.21,37.32c-4,7.36,1.14,11.4,6.93,16.34,9.8,8.38,13.17,20.21,14,32.77.45,7.15.28,14.32,2.27,21.35a12.43,12.43,0,0,1-2,10.54c-5.29,7.68-6.49,16.56-7.28,25.46-.43,4.73-1.52,8.93-5.24,12a11.72,11.72,0,0,0-4.34,7.13c-1,7.19-4.32,12.87-8.56,18.66-4.7,6.42-8.27,13.7-12.88,20.27a20.15,20.15,0,0,0-3.71,8,12.86,12.86,0,0,1-8.14,10.1c-6.41,2.48-10.45,7.6-13.83,13.09-2.84,4.62-5.89,8.45-11.5,9.51-2,.38-3.61,1.67-5.26,2.82-7.8,5.45-15.68,10.81-24.18,15.15a21.52,21.52,0,0,0-5.58,4.15c-2.37,2.4-5.18,4.72-8.61,4.75-10.33.1-19.78,4.51-29.87,5.65-9.33,1.05-18.62,1.55-27.94-.47-27.19-5.91-39.64-26.37-32.07-53.14,3.68-13,11.36-23.71,20.13-33.71,1.87-2.13,3.93-4.1,5.94-6.11,3-3,6.1-5.82,7.67-10.21,2-5.45,6.44-9,12.18-10.2a13.65,13.65,0,0,0,6.47-3.38c6-5.32,11.88-10.78,17.42-16.6,3.5-3.7,7.17-6.9,7.46-12.87.24-4.88,4.33-8.2,8.65-10.36a14.38,14.38,0,0,0,5.58-5.44c8.18-12.3,14.2-25.7,20.42-39,10.46-22.4,28.13-33.21,52.8-32.29,5.47.2,6.73-1.39,5.28-6.63-2-7.09-1-8.92,5.3-10.21,7.4-1.51,11.31,1,12.21,7.86C233.07,33.62,233.07,35,233.21,37.32Zm8.59,103.56c-1.44,3.18-2.89,6.37-4.31,9.56-.34.76-.74,1.69.16,2.21a2.44,2.44,0,0,0,1.87-.15c4.24-1.85,5.41-7.9,2.29-11.63,4-10.63,3.39-22.19,6.26-33.06a41.72,41.72,0,0,1-.2,7.43c-.07,1,0,2.14,1.27,2.38a2.26,2.26,0,0,0,2.43-1.41c1.42-2.83,3.11-5.71,1.58-9-2.85-6.13-3.56-12.55-3.57-19.24a45,45,0,0,0-1.81-10.77c-4.35-17.29-15.35-27.63-31.16-30.53-5.71-.43-11.4-2.3-17.15-.33-13.16.45-23.07,6.93-30.79,17-6.93,9.07-11,19.66-15.33,30.1-2.36,4.16-4.58,8.4-7.12,12.46-3.21,5.13-5.6,10.93-11,14.45-5.54.54-8.14,4.08-9.29,9.1,1.06,4.81,1.09,4.83-.64,7.11-7.31,9.64-16.72,17.22-25.35,25.57-1.15,1.11-2.49,2.74-4.76,2.12-4.57-1.25-7.57,1.54-10.44,4.4s-2.28,5,2.26,6.13c-8.81,5.62-15.29,12.8-21.5,20.23C56.6,205.77,50,217.72,48.34,231.71c-1.88,15.78,7.27,32.85,28.25,37.46A75.38,75.38,0,0,0,131.15,261c3.52-2,7-3.88,11.23-3.84a8.27,8.27,0,0,0,4.2-1.39c11.53-6.37,22.72-13,32-22.77,4.84-5.07,11.53-8.36,16.37-13.77,3.68-4.1,5.73-9.24,9.83-13.16,7.39-7.07,12.68-15.8,17.09-25,2.17-1.38,2.65-3.71,3.35-5.91,1.11-3.5,2.2-7.19,4.82-9.71,3.53-3.4,4.43-7.31,5-12C235.57,148.68,235.65,143,241.8,140.88ZM228.86,36.41c0-2.12,0-3.28,0-4.44,0-2.32-.49-4.58-3-5.08-3.05-.59-5.82.84-8.46,2.24-.67.35-.36,1.2.1,1.72,2.12,2.43,1.55,5.42,1.29,8.1-.46,4.78,3,5,6,5.5,3.53.64,3.32-2.51,3.88-4.54A13.39,13.39,0,0,0,228.86,36.41ZM134.41,266.35c3-1.06,6.4-1.72,7.76-5.29.44-1.17-.62-1.91-1.77-1.61-3.42.9-6.9,2.13-8.55,5.42C131,266.5,133.24,266,134.41,266.35Zm75-59.84c-3.87,2.43-5.31,5.53-7.53,7.89-.55.58-1.3,1.25-.6,2.08s1.51.35,2.28,0C207.63,214.85,208.8,211.46,209.42,206.51Zm-32.7,32.14c6,.16,9.05-2.59,9.26-7.44C182.54,232.83,180.71,236,176.72,238.65ZM233,165.58c-2.68,2.91-4.38,5.39-5,8.45-.11.57.86.92,1.53.49C232.44,172.65,233.37,169.87,233,165.58Z"/><path class="cls-2" d="M135.26,120.4c5.36-3.52,7.75-9.32,11-14.45,2.54-4.06,4.76-8.3,7.12-12.46,1.26,2.42.22,4.91.23,7.36a16.49,16.49,0,0,1-3.46,7c-1.25,1.38-2.71,3.39.26,4.82l.16.15c-.66,1.79-2.34,4.12-.1,5.25,1.65.82,2.95-1.73,4.08-3.07.76-.91,1-2.23,1.67-3.66.48,6-1.3,9.13-5.66,9.89-5.42.93-1.53-4.94-4.69-6.28-3.17,4.75-6.76,9.23-9.77,14.22a8.88,8.88,0,0,0,.51,9.93c1.79,2,3.82-2.48,5.94-3.83.28-.18.57-.34.86-.51l.12.11c0,4.19-4.54,6.08-5.1,10-.78-6.08-4.56-1.75-7-2,0-.68,0-1.35,0-2,.71-.16,1.58-.11,1.52-1.21a.44.44,0,0,0-.32-.3c-1.08,0-1.06.81-1.16,1.54-2.16-.06-3.46,1.52-4.39,3-3.33,5.18-8.28,8.65-12.78,12.58-2.63,2.29-5.57,4.21-7.72,7a52.13,52.13,0,0,1-14.7,13.35c-5.65,3.42-10.29,7.94-10.59,15.23-.13,3.07-1.27,5.49-4.06,7l0,0c-.06-2.32-.12-4.57,2.29-6.08a1.56,1.56,0,0,0-.06-2.57,1.68,1.68,0,0,0-2.26.29A49.1,49.1,0,0,0,72,196.53c-1.28,1.9-3.31,4.27.9,5.72,2.24.77.95,2.25.09,3.5-2,2.82-4,5.64-3.82,9.34-.71.17-1.84.12-1.47,1.23s1.56.7,2.44.8c2,2.78,4,2.82,6-.05,1.79.24,3-1,4.42-1.65,3.36-1.43,6.74-4.13,10.71-1.43-.1,3.81,2.4,4.37,5.26,3.82a7.3,7.3,0,0,0,5.67-8.88c.25-2.5-3.31-1.07-3.41-2.67,3.88-4.11,9.49-5.74,11.5-11.22,5.4.3,10.25-.88,14-5.1,2.72,2.4,3.95.05,4.82-1.82s.91-3.83,1.4-5.75c.44-1.75,2.14-3.84,3.24-3.11,5.23,3.46,6.41-1,8.61-4.37,1.93,4.08,4.33,3.18,6.62,1,2.79-2.62,6.18-4.22,9.47-6,.89,3.72,3,5,6.61,3.32,4.79-2.25,7.46-7.26,5.75-10.72a2.46,2.46,0,0,0-2.33-1.55c-1.15-.38-2.33,1.55-3.81-.38,3.48-1,4.89-3,4.19-6.71-.31-1.6,1.39-3.29,2.8-4.55,2-1.77,4.29-3.28,5.81-5.38,5.62-7.78,11.27-15.56,15.8-24.07.64-1.2,1.54-1.9,0-3.31-2.78-2.53-.53-4.78,1-6.83,1.17-1.55,2.88-2.62,4.8-1.52,2.91,1.67.77,3.72.1,5.62-.27.79-.75,1.7,0,2.3,1.1.86,1.84-.21,2.45-.9a7.72,7.72,0,0,0,2-6,21,21,0,0,1,1-7.38c2,.48,3.63,3,6.28.82,4.7-3.87,7.57-12.35,5.66-18-.34-1-.93-1.84-2.14-.84-2.49.33-4.66.74-2.9-3.2s2.51-8.52,3.83-12.78c2.93-9.49-.68-15.68-10.11-18.91-2-.68-4.28-.75-5.78-2.56,5.76-2,11.45-.09,17.16.34a5.58,5.58,0,0,0,2,3.35c7,7.13,10.65,15.51,10.17,25.66-.17,3.67-.9,7.3-.95,10.91-.2,15.25-8,28-13.48,41.46a13.14,13.14,0,0,1-6.7,6.53c-2.51,1.15-3.52-2.12-5.59-2.56a22.62,22.62,0,0,0-2.61-.21c3.65,5.1-.38,16.77-6,18.59-2.54.82-2.92-.53-2.87-2.51,5.9-.82,7-5.9,8.89-10.17a2.51,2.51,0,0,0-.41-2.26c-.68-.67-1.47.05-2.12.58s-1.55,1.21-2.33,1.81c-.34-.59-.67-.56-1,0l0,0a3,3,0,0,0-2,3h0a12.37,12.37,0,0,0-4,9.23,9.59,9.59,0,0,1-3.11,7.46c-5.66,5.88-13.08,10.5-14.61,19.49a3.23,3.23,0,0,1-1,1.73q-10.14,9.27-20.36,18.44c-1,.85-2.48,2.13-3.51,1.21-2.17-1.93-3.87-.21-6,.12,2.59.58,3,2.45,1.84,3.89a17.36,17.36,0,0,1-8.72,6.34c-2.26.65-1.26-2.17-2.7-3-.65,1.41-2.11,3.06-1.74,4,1.76,4.62-1.79,5.31-4.47,6.79-9.06,5-17.65,11.47-27.32,14.43-6.36,2-7.61,12.41-16.3,8.62-.12,0-.46.43-.7.67-1.37,1.41-3.4,1.24-5,2-5.07,2.33-10.15-.15-15.25.25-5.42.42-3.35,2.46-2.54,4.58,1,2.55,3.3,4.13,5.36,5.82,6.64,5.46,14.39,8.17,22.85,9.06a104.58,104.58,0,0,0,21.73-.73c1.93,1.67,4,1,6.14.47,17.2-4,32.64-12.08,47.8-20.71a121.66,121.66,0,0,0,29.2-23.85c10.17-11.1,19.87-22.77,27.31-36,1.87-3.32,3.45-3.41,5.26-.08-4.41,9.22-9.7,17.95-17.09,25-4.1,3.92-6.15,9.06-9.83,13.16-4.84,5.41-11.53,8.7-16.37,13.77-9.29,9.76-20.48,16.4-32,22.77a8.27,8.27,0,0,1-4.2,1.39c-4.18,0-7.71,1.86-11.23,3.84a75.38,75.38,0,0,1-54.56,8.14c-21-4.61-30.13-21.68-28.25-37.46,1.67-14,8.26-25.94,17.2-36.65,6.21-7.43,12.69-14.61,21.5-20.23-4.54-1.13-5.11-3.27-2.26-6.13s5.87-5.65,10.44-4.4c2.27.62,3.61-1,4.76-2.12,8.63-8.35,18-15.93,25.35-25.57,1.73-2.28,1.7-2.3.65-7.11C130,128.56,134,124.65,135.26,120.4ZM89.19,173l.93-.2-.21-.39-.69.62-.24.35Zm-26,60.89c.27,4.41.94,5.53,2.85,5.21,3.15-.51,5.57-7.25,3.64-10.16C68.2,235.23,66.46,236.69,63.16,233.84Z"/><path class="cls-3" d="M84.44,262c-8.46-.89-16.21-3.6-22.85-9.06-2.06-1.69-4.38-3.27-5.36-5.82-.81-2.12-2.88-4.16,2.54-4.58,5.1-.4,10.18,2.08,15.25-.25,1.56-.73,3.59-.56,5-2,.24-.24.58-.72.7-.67C88.37,243.45,89.62,233,96,231c9.67-3,18.26-9.46,27.32-14.43,2.68-1.48,6.23-2.17,4.47-6.79-.37-1,1.09-2.61,1.74-4,1.44.85.44,3.67,2.7,3a17.36,17.36,0,0,0,8.72-6.34c1.14-1.44.75-3.31-1.84-3.89,2.14-.33,3.84-2.05,6-.12,1,.92,2.56-.36,3.51-1.21q10.24-9.15,20.36-18.44a3.23,3.23,0,0,0,1-1.73c1.53-9,8.95-13.61,14.61-19.49a9.59,9.59,0,0,0,3.11-7.46,12.37,12.37,0,0,1,4-9.23l-1.08,7c0,2,.33,3.33,2.87,2.51,5.66-1.82,9.69-13.49,6-18.59a22.62,22.62,0,0,1,2.61.21c2.07.44,3.08,3.71,5.59,2.56a13.14,13.14,0,0,0,6.7-6.53c5.45-13.49,13.28-26.21,13.48-41.46,0-3.61.78-7.24.95-10.91.48-10.15-3.18-18.53-10.17-25.66a5.58,5.58,0,0,1-2-3.35c15.81,2.9,26.81,13.24,31.16,30.53A45,45,0,0,1,249.58,88c0,6.69.72,13.11,3.57,19.24,1.53,3.27-.16,6.15-1.58,9a2.26,2.26,0,0,1-2.43,1.41c-1.26-.24-1.34-1.39-1.27-2.38a41.72,41.72,0,0,0,.2-7.43c-2.87,10.87-2.26,22.43-6.26,33.06h0c-6.15,2.09-6.23,7.8-6.78,12.62-.54,4.65-1.44,8.56-5,12-2.62,2.52-3.71,6.21-4.82,9.71-.7,2.2-1.18,4.53-3.35,5.91-1.81-3.33-3.39-3.24-5.26.08-7.44,13.26-17.14,24.93-27.31,36A121.66,121.66,0,0,1,160.11,241c-15.16,8.63-30.6,16.73-47.8,20.71-2.1.49-4.21,1.2-6.14-.48a6.15,6.15,0,0,1,1.66-1c26.9-5.76,49.88-19,70.61-36.64,20.12-17.11,34.06-39.27,47.51-61.28a129.67,129.67,0,0,0,18.71-77.47A51.07,51.07,0,0,0,241,70.44c-.4-1-.83-2.45-2.32-2.18-1.33.24-1.7,1.66-1.77,2.74-.19,2.82-.57,5.71.35,8.45a7.93,7.93,0,0,1-1.56,8.36c-5.16,1.33-3.53,5.69-4.08,9.09-3.52,1.92-2.35,4.95-.42,6.44a6.8,6.8,0,0,1,2.41,8c-1.2,3.84.74,8.58-4.92,11.55-2.39,1.25-6.28,3-7.84,5.73-2.16,3.75-5.16,7-6.91,10.91-4.61,10.41-10.9,19.8-17.58,28.92-2.83,3.87-5.39,8.18-11.32,11.07,2.15-4.15.25-6-2.07-7-2.61-1.12-4.81.25-6.4,2.51h0c-.13.07-.37.18-.36.22a4.72,4.72,0,0,0,.27.61c-2.35,3.57-6.05,6.42-6,11.27a5.87,5.87,0,0,0-1.14-.94c-.63-.29-.71.2-.78.69-.61,3.79,1.29,5.82,4.83,6,4,.2,3.07,2.15,1.61,4.06a60.27,60.27,0,0,1-11.27,11.81c-4.09,3.1-9.74,4.72-11.39,10.51-2.86,2.43-6.07,4.5-7.92,7.94-5.48,1.94-9.69,6-14.82,8.65-2.82,1.43-3.45.53-4.14-1.66-.24-.78-.17-1.67-.47-2.41s-1-1.36-1.85-.47c-6.9-.21-9.73,1.68-12,8.07-4.5.18-3,2.59-1.37,4.38,1.36,1.46,1.32,2.19-.36,2.85-6.48,2.54-12.8,6.06-19.52,7.21C83.86,254.83,84,257.78,84.44,262Z"/><path class="cls-4" d="M204.61,101.83a21,21,0,0,0-1,7.38,7.72,7.72,0,0,1-2,6c-.61.69-1.35,1.76-2.45.9-.78-.6-.3-1.51,0-2.3.67-1.9,2.81-4-.1-5.62-1.92-1.1-3.63,0-4.8,1.52-1.56,2.05-3.81,4.3-1,6.83,1.54,1.41.64,2.11,0,3.31-4.53,8.51-10.18,16.29-15.8,24.07-1.52,2.1-3.84,3.61-5.81,5.38-1.41,1.26-3.11,2.95-2.8,4.55.7,3.69-.71,5.7-4.19,6.71,1.48,1.93,2.66,0,3.81.38.07,3.66-1.77,6.18-4.67,8.23-3.29,2.33-3.48.47-3.28-2.2a2.11,2.11,0,0,0,1-2l.39-.46-.45.4a1.81,1.81,0,0,0-2,2.07l-1.08,2.91c-3.29,1.79-6.68,3.39-9.47,6-2.29,2.17-4.69,3.07-6.62-1-2.2,3.35-3.38,7.83-8.61,4.37-1.1-.73-2.8,1.36-3.24,3.11-.49,1.92-.58,4-1.4,5.75s-2.1,4.22-4.82,1.82c-.1-1.34.61-2.78-.49-4.19-2.83,4.49-6.43,7.43-12,7.25-1.13,0-3.09-.18-1.55,2-2,5.48-7.62,7.11-11.5,11.22.1,1.6,3.66.17,3.41,2.67l-1,1.08c-3.46.32-5.44,3.9-9,4.06a8.09,8.09,0,0,0-1-.08c-4-2.7-7.35,0-10.71,1.43-1.46.63-2.63,1.89-4.42,1.65,0-1.36,0-2.78,1.35-3.56,6.18-3.54,10.8-8.82,16-13.49,7.72-6.93,16-13.42,24.14-20,5.8-4.67,11.59-9.29,16.55-15,4.35-5,8.49-10.2,12.42-15.55,2.53-3.44,6.91-5,9-8.53,4-6.6,9.36-12.08,13.76-18.32,1-1.5,2.95-2.82,2.76-4.61-.78-7.57,1-12.83,10-12.64a.6.6,0,0,0,.43-.23c3.53-5.45,11-8.84,9-17.19,5.19-1.31,7.6-5.16,6.38-10.2-1,1.87-2,3.77-3.07,5.6-.4.68-1.06,1.64-1.64,1.67-1.21.07-1.47-1.09-1.55-2.12a2.53,2.53,0,0,0-1-2.17c4.26-6.55,9.35-12.47,10.27-21,.45-4.13-.07-5.06-3.82-5.13-8.72-.14-20.75,9.94-21.27,18a2.19,2.19,0,0,0,.63,1.7c.74.49,1.57.11,2.29-.43,1.89-1.39,2.38-3.73,3.66-6.13.67,4.31-2.73,10.17-5.74,10.74a2.22,2.22,0,0,1-2.6-1c-2.79-6.36-4.51-2.76-6.4.58-1.07,1.88-2.34,3.64-3.49,5.46s-1.84,3.64.22,5.73c2.5,2.52.81,5.27-.49,7.82s-3.13,4.14-6,3.3c-1.69-.5-2.9.42-4.34.49,0-2.45,1-4.94-.23-7.36,4.31-10.44,8.4-21,15.33-30.1,7.72-10.1,17.63-16.58,30.79-17,1.49,1.81,3.78,1.88,5.77,2.56,9.43,3.23,13,9.42,10.11,18.91-1.32,4.26-2,8.73-3.83,12.78s.41,3.53,2.9,3.2c.59,4.45.36,8.8-1.81,12.86-1.31,2.46-3,3.94-5.84,2-1.09-4.41,1.36-8.27,2.38-12.35-5.1,5.61-6.34,10.34-4.55,15.51Zm-33.1,35.05c-1.45.1-2.23.88-1.73,2.28s1,3.5,3,3.52c2.9,0,5-1.84,6.27-4.19.86-1.59,1.64-3.93-1.48-4.61-.5-2.52-2-2.38-3.4-1A23.5,23.5,0,0,0,171.51,136.88ZM160,145.28c-2.79,3.07-4.7,6.78-9.08,7.59-.9.17-1.9-2.53-2.35,0-.33,1.8,1.21,2.06,2.67,2.06C155.89,154.91,159.58,151,160,145.28Zm13-27.35c7,.18,9.25-3.19,8-10.27C180.73,112.37,178.38,115.57,172.92,117.93ZM139.79,173.5l-.76-.07c.12.1.23.26.35.27S139.65,173.57,139.79,173.5Z"/><path class="cls-2" d="M228.86,36.41a13.39,13.39,0,0,1-.25,3.5c-.56,2-.35,5.18-3.88,4.54-3-.54-6.42-.72-6-5.5.26-2.68.83-5.67-1.29-8.1-.46-.52-.77-1.37-.1-1.72,2.64-1.4,5.41-2.83,8.46-2.24,2.54.5,3,2.76,3,5.08C228.85,33.13,228.86,34.29,228.86,36.41Z"/><path class="cls-3" d="M241.81,140.87c3.12,3.73,1.95,9.78-2.29,11.63a2.44,2.44,0,0,1-1.87.15c-.9-.52-.5-1.45-.16-2.21,1.42-3.19,2.87-6.38,4.31-9.56Z"/><path class="cls-3" d="M134.41,266.35c-1.17-.33-3.38.15-2.56-1.48,1.65-3.29,5.13-4.52,8.55-5.42,1.15-.3,2.21.44,1.77,1.61C140.81,264.63,137.37,265.29,134.41,266.35Z"/><path class="cls-2" d="M209.42,206.51c-.62,5-1.79,8.34-5.85,10-.77.32-1.65.73-2.28,0s.05-1.5.6-2.08C204.11,212,205.55,208.94,209.42,206.51Z"/><path class="cls-4" d="M135.26,120.4c-1.25,4.25-5.23,8.16-9.28,9.1C127.12,124.48,129.72,120.94,135.26,120.4Z"/><path class="cls-3" d="M176.72,238.65c4-2.61,5.82-5.82,9.26-7.44C185.77,236.06,182.75,238.81,176.72,238.65Z"/><path class="cls-3" d="M233,165.58c.38,4.29-.55,7.07-3.48,8.94-.67.43-1.64.08-1.53-.49C228.61,171,230.31,168.49,233,165.58Z"/><path class="cls-1" d="M152.36,219.24c1.65-5.79,7.3-7.41,11.39-10.51A60.27,60.27,0,0,0,175,196.92c1.46-1.91,2.39-3.86-1.61-4.06-3.54-.18-5.44-2.21-4.83-6,.07-.49.15-1,.78-.69a5.87,5.87,0,0,1,1.14.94c1.71,1.65,3,.51,4.22-.69,1.66-1.61,3.24-3.32,4.94-4.88s3.1-3.71,2.32-5.62c-.86-2.1-3.51-.71-5.37-.9,1.59-2.26,3.79-3.63,6.4-2.51,2.32,1,4.22,2.84,2.07,7,5.93-2.89,8.49-7.2,11.32-11.07,6.68-9.12,13-18.51,17.58-28.92,1.75-3.94,4.75-7.16,6.91-10.91,1.56-2.69,5.45-4.48,7.84-5.73,5.66-3,3.72-7.71,4.92-11.55a6.8,6.8,0,0,0-2.41-8c-1.93-1.49-3.1-4.52.42-6.44.17.91-.17,2.13,1.07,2.47.94.26,1.5-.57,1.88-1.29,1.7-3.27,3-6.61,1.13-10.27a7.93,7.93,0,0,0,1.56-8.36c-.92-2.74-.54-5.63-.35-8.45.07-1.08.44-2.5,1.77-2.74,1.49-.27,1.92,1.14,2.32,2.18a51.07,51.07,0,0,1,3.62,14.47A129.67,129.67,0,0,1,226,162.38c-13.45,22-27.39,44.17-47.51,61.28-20.73,17.64-43.71,30.88-70.61,36.64a6.15,6.15,0,0,0-1.66,1,103.9,103.9,0,0,1-21.73.74c-.47-4.23-.58-7.18,5.43-8.21,6.72-1.15,13-4.67,19.52-7.21,1.68-.66,1.72-1.39.36-2.85-1.67-1.79-3.13-4.2,1.37-4.39.18,1.19.8,1.83,2.06,1.69,5-.6,8.47-3.12,10-8l0-1.72c.88-.89,1.52-.35,1.85.47s.23,1.63.47,2.41c.69,2.19,1.32,3.09,4.14,1.66,5.13-2.61,9.34-6.71,14.82-8.65,1.28,2.5,3.21,2.5,4.69.58,1.91-2.46,6.51-3.57,4.61-8.15C153.63,219.34,152.84,219.36,152.36,219.24Zm68.34-79.62c.12,1-.38,2.35,1,2.93,1.55.65,2.47-.55,3.37-1.49,2.34-2.41,2.49-5.69,3.29-8.69A1.88,1.88,0,0,0,227,130a1.92,1.92,0,0,0-2.22.65C222.64,133.27,220.8,136,220.7,139.62ZM187.62,204c-.18-1.06-.5-2-1.82-1.78-3,.53-4.34,2.8-5.19,5.38-.3.91-.11,2.33,1.24,2.14C185.07,209.26,186.1,206.4,187.62,204Zm13.74-20c2.78-1,4.25-3.25,5.13-6,.34-1.08-.23-2.17-1.46-1.93-3.31.64-3.75,3.79-5,6.19C199.58,183.24,200.26,183.78,201.36,184Zm12.2-20c.09-1.28-.32-2.24-1.61-2a3.84,3.84,0,0,0-3.29,3.82c-.09,1.1.38,2.1,1.63,2C212.56,167.6,212.91,165.59,213.56,164Z"/><path class="cls-5" d="M153.57,100.85c1.44-.07,2.65-1,4.34-.49,2.83.84,4.71-.86,6-3.3s3-5.3.49-7.82c-2.06-2.09-1.45-3.78-.22-5.73s2.42-3.58,3.49-5.46c1.89-3.34,3.61-6.94,6.4-.58a2.22,2.22,0,0,0,2.6,1c3-.57,6.41-6.43,5.74-10.74-1.28,2.4-1.77,4.74-3.66,6.13-.72.54-1.55.92-2.29.43a2.19,2.19,0,0,1-.63-1.7c.52-8.08,12.55-18.16,21.27-18,3.75.07,4.27,1,3.82,5.13-.92,8.48-6,14.4-10.27,21-.35,2.49-2.51,5.19.87,7.22,2,8.35-5.44,11.74-9,17.19a.6.6,0,0,1-.43.23c-8.94-.19-10.73,5.07-10,12.64.19,1.79-1.71,3.11-2.76,4.61-4.4,6.24-9.77,11.72-13.76,18.32-2.11,3.49-6.49,5.09-9,8.53-3.93,5.35-8.07,10.51-12.42,15.55-5,5.76-10.75,10.38-16.55,15-8.13,6.56-16.42,13.05-24.14,20-5.22,4.67-9.84,9.95-16,13.49-1.36.78-1.35,2.2-1.35,3.56-2,2.87-4,2.83-6,.05a2,2,0,0,0-1-2c-.17-3.7,1.85-6.52,3.82-9.34.86-1.25,2.15-2.73-.09-3.5-4.21-1.45-2.18-3.82-.9-5.72a49.1,49.1,0,0,1,5.17-5.84,1.68,1.68,0,0,1,2.26-.29,1.56,1.56,0,0,1,.06,2.57c-2.41,1.51-2.35,3.76-2.29,6.08l-.42.43c.09,0,.21,0,.26-.09a1.92,1.92,0,0,0,.14-.36c2.79-1.48,3.93-3.9,4.06-7,.3-7.29,4.94-11.81,10.59-15.23a52.13,52.13,0,0,0,14.7-13.35c2.15-2.84,5.09-4.76,7.72-7,4.5-3.93,9.45-7.4,12.78-12.58.93-1.44,2.23-3,4.39-3l0,0c0,.67,0,1.34,0,2h0a5.44,5.44,0,0,0-1.72,6.27,2.55,2.55,0,0,0,3.25,1.64c2.51-.58,4.7-1.71,5.51-4.44a5.25,5.25,0,0,0,0-1.48h0c.56-3.9,5.09-5.79,5.09-10,.13-.16.26-.33.38-.5l-.49.39c-.29.17-.58.33-.86.51-2.12,1.35-4.15,5.86-5.94,3.83a8.88,8.88,0,0,1-.51-9.93c3-5,6.6-9.47,9.77-14.22,3.16,1.34-.73,7.21,4.69,6.28,4.36-.76,6.14-3.92,5.66-9.89-.63,1.43-.91,2.75-1.67,3.66-1.13,1.34-2.43,3.89-4.08,3.07-2.24-1.13-.56-3.46.09-5.25l.94-1,1-1,.22-.42-.21.44-1,1-1.06.94c-3-1.43-1.51-3.44-.26-4.82A16.49,16.49,0,0,0,153.57,100.85ZM97.32,184.09l1-1,.42-.52-.52.41-1,1-1,1c-3.21.61-4.27-.93-3.91-3.9.14-.14.27-.29.41-.44l-.45.4c-1.89,1-3.31,2.28-2.94,4.63a2.73,2.73,0,0,0,2.52,2.1c2.12.37,4-.14,4.55-2.61Zm14-20.11,1-1,1.35-.4-.27-.39-1.1.77-1,1-1,1c-1.86,1.11-3.06,2.73-2.34,4.88a3.17,3.17,0,0,0,3.62,2.07c3.52-.58,6.67-1.94,8.82-5a4.26,4.26,0,0,0-.09-5.12c-.84-1.31-1.85-2.26-4.28-.56,2.7.56,3.66,1.72,2.29,3.82s-3.33,3.84-6,3.8-1.6-2.35-1.89-3.81Z"/><path class="cls-3" d="M158.41,169.89l1.08-2.91h1c-.2,2.67,0,4.53,3.28,2.2,2.9-2,4.74-4.57,4.67-8.23a2.46,2.46,0,0,1,2.33,1.55c1.71,3.46-1,8.47-5.75,10.72C161.39,174.92,159.3,173.61,158.41,169.89Z"/><path class="cls-3" d="M206.76,98.61c2.83,2,4.53.51,5.84-2,2.17-4.06,2.4-8.41,1.81-12.86,1.21-1,1.8-.17,2.14.84,1.91,5.66-1,14.14-5.66,18-2.65,2.18-4.23-.34-6.28-.82l0-.06A3.29,3.29,0,0,1,206.76,98.61Z"/><path class="cls-4" d="M190.57,147.91l1.08-7h0a3,3,0,0,0,2-3l0,0h.49l.48,0c.78-.6,1.58-1.18,2.33-1.81s1.44-1.25,2.12-.58a2.51,2.51,0,0,1,.41,2.26C197.53,142,196.47,147.09,190.57,147.91Z"/><path class="cls-3" d="M110.26,195c-1.54-2.22.42-2.08,1.55-2,5.52.18,9.12-2.76,12-7.25,1.1,1.41.39,2.85.49,4.19C120.51,194.16,115.66,195.34,110.26,195Z"/><path class="cls-3" d="M101.19,210l1-1.08a7.3,7.3,0,0,1-5.67,8.88c-2.86.55-5.36,0-5.26-3.82a8.09,8.09,0,0,1,1,.08C95.42,216.65,99.2,214.94,101.19,210Z"/><path class="cls-3" d="M63.16,233.84c3.3,2.85,5,1.39,6.49-5,1.93,2.91-.49,9.65-3.64,10.16C64.1,239.37,63.43,238.25,63.16,233.84Z"/><path class="cls-5" d="M131.37,142.88c2.46.26,6.24-4.07,7,2h0c-2.06.81-3.56,3.56-6.07,2.52-1.82-.75-.48-3-1-4.51Z"/><path class="cls-4" d="M69.14,215.09a2,2,0,0,1,1,2c-.88-.1-2.09.29-2.44-.8S68.43,215.26,69.14,215.09Z"/><path class="cls-3" d="M193.65,137.88a3,3,0,0,1-2,3A3,3,0,0,1,193.65,137.88Z"/><path class="cls-5" d="M131.39,140.89c.1-.73.08-1.56,1.16-1.54a.44.44,0,0,1,.32.3c.06,1.1-.81,1-1.52,1.21Z"/><path class="cls-1" d="M89.22,173l.69-.62.21.39-.93.2Z"/><path class="cls-1" d="M89.19,173l-.21.38.24-.35Z"/><path class="cls-3" d="M194.6,137.87l-.48,0h-.49C193.93,137.31,194.26,137.28,194.6,137.87Z"/><path class="cls-2" d="M176.61,175c1.86.19,4.51-1.2,5.37.9.78,1.91-.63,4.07-2.32,5.62s-3.28,3.27-4.94,4.88c-1.23,1.2-2.51,2.34-4.22.69-.06-4.85,3.64-7.7,6-11.27a1.81,1.81,0,0,0,.09-.83Z"/><path class="cls-2" d="M123.16,231.29c0,.57,0,1.14,0,1.72a43.53,43.53,0,0,0-10,8c-1.26.14-1.88-.5-2.06-1.69C113.43,233,116.26,231.08,123.16,231.29Z"/><path class="cls-2" d="M152.36,219.24c.48.12,1.27.1,1.38.37,1.9,4.58-2.7,5.69-4.61,8.15-1.48,1.92-3.41,1.92-4.69-.58C146.29,223.74,149.5,221.67,152.36,219.24Z"/><path class="cls-2" d="M235.74,87.81c1.86,3.66.57,7-1.13,10.27-.38.72-.94,1.55-1.88,1.29-1.24-.34-.9-1.56-1.07-2.47C232.21,93.5,230.58,89.14,235.74,87.81Z"/><path class="cls-1" d="M176.58,175a1.81,1.81,0,0,1-.09.83,4.72,4.72,0,0,1-.27-.61S176.45,175.08,176.58,175Z"/><path class="cls-2" d="M191.48,87.92c-3.38-2-1.22-4.73-.87-7.22a2.53,2.53,0,0,1,1,2.17c.08,1,.34,2.19,1.55,2.12.58,0,1.24-1,1.64-1.67,1.09-1.83,2.06-3.73,3.07-5.6C199.08,82.76,196.67,86.61,191.48,87.92Z"/><path class="cls-5" d="M171.51,136.88a23.5,23.5,0,0,1,2.66-4c1.41-1.41,2.9-1.55,3.4,1,.17,2-.91,3.43-2.31,4.66-.83.73-1.47,2.15-2.73,1.76C170.83,139.77,171.75,138.07,171.51,136.88Z"/><path class="cls-3" d="M160,145.28c-.38,5.73-4.07,9.63-8.76,9.64-1.46,0-3-.26-2.67-2.06.45-2.52,1.45.18,2.35,0C155.26,152.06,157.17,148.35,160,145.28Z"/><path class="cls-2" d="M171.51,136.88c.24,1.19-.68,2.89,1,3.42,1.26.39,1.9-1,2.73-1.76,1.4-1.23,2.48-2.65,2.31-4.66,3.12.68,2.34,3,1.48,4.61-1.27,2.35-3.37,4.23-6.27,4.19-2,0-2.46-2-3-3.52S170.06,137,171.51,136.88Z"/><path class="cls-2" d="M206.76,98.61a3.29,3.29,0,0,0-2.17,3.16c-1.79-5.17-.55-9.9,4.55-15.51C208.12,90.34,205.67,94.2,206.76,98.61Z"/><path class="cls-2" d="M172.92,117.93c5.46-2.36,7.81-5.56,8-10.27C182.17,114.74,179.94,118.11,172.92,117.93Z"/><path class="cls-2" d="M101.19,210c-2,4.93-5.77,6.64-9,4.06C95.75,213.91,97.73,210.33,101.19,210Z"/><path class="cls-2" d="M160.49,167h-1a1.81,1.81,0,0,1,2-2.07l.06.06A2.11,2.11,0,0,1,160.49,167Z"/><path class="cls-2" d="M139.79,173.5c-.14.07-.28.21-.41.2s-.23-.17-.35-.27Z"/><path class="cls-2" d="M161.46,164.91l.45-.4-.39.46Z"/><path class="cls-2" d="M220.7,139.62c.1-3.64,1.94-6.35,4.07-8.93A1.92,1.92,0,0,1,227,130a1.88,1.88,0,0,1,1.37,2.33c-.8,3-1,6.28-3.29,8.69-.9.94-1.82,2.14-3.37,1.49C220.32,142,220.82,140.59,220.7,139.62Z"/><path class="cls-3" d="M187.62,204c-1.52,2.43-2.55,5.29-5.77,5.74-1.35.19-1.54-1.23-1.24-2.14.85-2.58,2.2-4.85,5.19-5.38C187.12,202,187.44,202.91,187.62,204Z"/><path class="cls-3" d="M201.36,184c-1.1-.22-1.78-.76-1.29-1.71,1.21-2.4,1.65-5.55,5-6.19,1.23-.24,1.8.85,1.46,1.93C205.61,180.75,204.14,183,201.36,184Z"/><path class="cls-3" d="M113.18,241a43.53,43.53,0,0,1,10-8C121.65,237.92,118.19,240.44,113.18,241Z"/><path class="cls-3" d="M213.56,164c-.65,1.57-1,3.58-3.27,3.8-1.25.12-1.72-.88-1.63-2A3.84,3.84,0,0,1,212,162C213.24,161.78,213.65,162.74,213.56,164Z"/><path class="cls-2" d="M110.35,165c.29,1.46-.76,3.76,1.89,3.81s4.57-1.58,6-3.8.41-3.26-2.29-3.82c2.43-1.7,3.44-.75,4.28.56a4.26,4.26,0,0,1,.09,5.12c-2.15,3-5.3,4.39-8.82,5a3.17,3.17,0,0,1-3.62-2.07c-.72-2.15.48-3.77,2.34-4.88Z"/><path class="cls-2" d="M131.37,142.89c.48,1.5-.86,3.76,1,4.51,2.51,1,4-1.71,6.07-2.52a5.25,5.25,0,0,1,0,1.48c-.81,2.73-3,3.86-5.51,4.44a2.55,2.55,0,0,1-3.25-1.64A5.44,5.44,0,0,1,131.37,142.89Z"/><path class="cls-2" d="M92.24,181c-.36,3,.7,4.51,3.91,3.9l.19.19c-.61,2.46-2.44,3-4.56,2.6a2.73,2.73,0,0,1-2.52-2.1c-.37-2.35,1-3.66,2.94-4.63Z"/><path class="cls-2" d="M112.28,162.93l1.1-.77.27.39-1.35.4Z"/><path class="cls-2" d="M111.25,163.91l1-1,0,0-1,1Z"/><path class="cls-2" d="M111.33,164l-1,1-.11-.11,1-1Z"/><path class="cls-2" d="M92.2,181l.45-.4c-.14.15-.27.3-.41.44Z"/><path class="cls-2" d="M98.18,183l.53-.41-.42.52Z"/><path class="cls-2" d="M98.29,183.06l-1,1-.16-.16,1-1Z"/><path class="cls-2" d="M96.15,184.91l1-1,.16.16-1,1Z"/><path class="cls-2" d="M152.46,110.8l.21-.44-.22.42Z"/><path class="cls-2" d="M152.45,110.78l-1,1,0,0,1-1Z"/><path class="cls-2" d="M151.46,111.81l-.94,1-.15-.15,1.06-.94Z"/><path class="cls-2" d="M77.15,199a1.92,1.92,0,0,1-.14.36c-.05.06-.17.06-.26.09l.42-.43Z"/><path class="cls-2" d="M143.37,134.8l.49-.39c-.12.17-.25.34-.38.5Z"/></g></svg>