<svg width="53" height="74" viewBox="0 0 53 74" fill="none" xmlns="http://www.w3.org/2000/svg">
<path d="M48.476 67.3279H8.64205C7.96222 67.3279 7.31023 67.0548 6.82951 66.5687C6.3488 66.0825 6.07874 65.4232 6.07874 64.7357V3.80129C6.07874 3.1138 6.3488 2.45447 6.82951 1.96834C7.31023 1.48221 7.96222 1.20911 8.64205 1.20911H41.4833L51.0393 10.8728V64.7357C51.0393 65.4232 50.7693 66.0825 50.2885 66.5687C49.8078 67.0548 49.1558 67.3279 48.476 67.3279Z" stroke="#90ABF1" stroke-width="2" stroke-miterlimit="10"/>
<path d="M46.228 67.328V69.7646C46.228 70.4521 45.958 71.1114 45.4773 71.5976C44.9965 72.0837 44.3446 72.3568 43.6647 72.3568H3.83077C3.15094 72.3568 2.49895 72.0837 2.01823 71.5976C1.53752 71.1114 1.26746 70.4521 1.26746 69.7646V9.42897C1.26746 8.74148 1.53752 8.08215 2.01823 7.59602C2.49895 7.1099 3.15094 6.83679 3.83077 6.83679H6.0788" stroke="#90ABF1" stroke-width="2" stroke-miterlimit="10"/>
<path d="M51.0394 10.8728L43.9826 10.8287C43.646 10.8263 43.3131 10.7569 43.003 10.6245C42.6929 10.492 42.4116 10.2991 42.1753 10.0567C41.9389 9.81426 41.7521 9.52716 41.6254 9.21175C41.4988 8.89634 41.4348 8.55879 41.4372 8.21837L41.4833 1.21948L51.0394 10.8728Z" stroke="#90ABF1" stroke-width="2" stroke-linecap="round" stroke-linejoin="round"/>
<path d="M28.5591 30.0601C33.8 30.0601 38.0485 25.7637 38.0485 20.4638C38.0485 15.1639 33.8 10.8676 28.5591 10.8676C23.3183 10.8676 19.0697 15.1639 19.0697 20.4638C19.0697 25.7637 23.3183 30.0601 28.5591 30.0601Z" stroke="#90ABF1" stroke-width="2" stroke-miterlimit="10"/>
<path d="M28.6077 21.9258C30.3787 21.9258 31.8144 20.474 31.8144 18.683C31.8144 16.892 30.3787 15.4402 28.6077 15.4402C26.8367 15.4402 25.401 16.892 25.401 18.683C25.401 20.474 26.8367 21.9258 28.6077 21.9258Z" stroke="#90ABF1" stroke-width="2" stroke-miterlimit="10"/>
<path d="M30.4816 21.3115C33.1628 22.0322 35.1827 24.2666 35.4723 26.991" stroke="#90ABF1" stroke-width="2" stroke-miterlimit="10"/>
<path d="M21.7303 27.1284C21.9662 24.3444 24.0066 22.0451 26.7339 21.3115" stroke="#90ABF1" stroke-width="2" stroke-miterlimit="10"/>
<path d="M15.2196 37.0123H42.096" stroke="#90ABF1" stroke-width="2" stroke-miterlimit="10"/>
<path d="M15.2196 41.9375H42.096" stroke="#90ABF1" stroke-width="2" stroke-miterlimit="10"/>
<path d="M15.2196 46.8627H42.096" stroke="#90ABF1" stroke-width="2" stroke-miterlimit="10"/>
<path d="M15.2196 51.7878H42.096" stroke="#90ABF1" stroke-width="2" stroke-miterlimit="10"/>
<path d="M15.2196 56.7129H42.096" stroke="#90ABF1" stroke-width="2" stroke-miterlimit="10"/>
</svg>
