<svg width="21" height="24" viewBox="0 0 21 24" fill="none" xmlns="http://www.w3.org/2000/svg">
<path d="M15.6758 24.0001H5.32575C4.87716 23.9972 4.44681 23.8222 4.12352 23.5111C3.80024 23.2001 3.60872 22.7769 3.58849 22.3287L2.85095 8.00586H18.149L17.413 22.3287C17.3928 22.7769 17.2013 23.2001 16.878 23.5111C16.5547 23.8222 16.1243 23.9972 15.6758 24.0001V24.0001Z" fill="#E8E8E8"/>
<path d="M2.84941 3.45337H18.1505C18.6589 3.45337 19.1464 3.6553 19.5058 4.01475C19.8653 4.37419 20.0672 4.8617 20.0672 5.37004V6.6795C20.0672 6.72017 20.0511 6.75917 20.0223 6.78793C19.9935 6.81668 19.9545 6.83284 19.9139 6.83284H1.08607C1.04541 6.83284 1.00641 6.81668 0.97765 6.78793C0.948894 6.75917 0.932739 6.72017 0.932739 6.6795V5.37004C0.932739 4.8617 1.13467 4.37419 1.49412 4.01475C1.85356 3.6553 2.34107 3.45337 2.84941 3.45337V3.45337Z" fill="#E8E8E8"/>
<path d="M8.61167 0.977051H12.3875C12.844 0.977051 13.2818 1.15839 13.6046 1.48117C13.9273 1.80395 14.1087 2.24174 14.1087 2.69822V3.45338H6.8905V2.69822C6.8905 2.24174 7.07184 1.80395 7.39462 1.48117C7.7174 1.15839 8.15519 0.977051 8.61167 0.977051V0.977051Z" fill="#E8E8E8"/>
</svg>
