<svg xmlns="http://www.w3.org/2000/svg" viewBox="0 0 300 300"><defs><style>.cls-1{fill:#623380;}.cls-2{fill:#466f41;}.cls-3{fill:#9b5ea1;}.cls-4{fill:#69ab53;}.cls-5{fill:#a2c64e;}.cls-6{fill:#83b952;}.cls-7{fill:#51944f;}.cls-8{fill:#fefdfd;}</style></defs><title>fp</title><g id="баклажан"><path class="cls-1" d="M192.17,127c-.39,21.88,8.93,40.19,20.79,57.72A75.11,75.11,0,0,1,226,224.83c1.1,31.42-17,49.59-45.68,53.84-32.37,4.8-59.12-7.42-80.4-31.12-25.37-28.26-30.52-62-22.56-98A124.39,124.39,0,0,1,104.3,94.85c8.85,1.64,17.4,1,25.46-3.34,2.25-1.21,3.15,0,3,2a19.28,19.28,0,0,0,1.75,9,32.7,32.7,0,0,0,20,19.14c6.65,2.33,7.91,1,8.3-5.9.29-5.18.91-10.36,3.61-15,.61-1,1.4-2.42,2.67-2.27,1.44.17,1.41,1.79,1.59,3C172.65,114.41,179.2,123.42,192.17,127Zm-100,17.48c1.28,11.07,2.25,22.18,3.9,33.2,1.82,12.19,6.06,23.35,15.66,31.9,2.11,1.88,4.07,3.23,6.87,2.51s2-3.24,2-5.14,1.13-2.23,2.68-2.2c3.1.06,5.72-1.65,8.6-2.41,2.17-.56,3.33-2.1,2.42-4.32s-.07-3.62,1.81-4.72c6.32-3.73,11-8.91,11.59-16.38.49-6.52,3.22-13-.2-19.78-3.69-7.35-1-15.51-1.18-23.32a2.3,2.3,0,0,1,.65-1.48c3.58-3.58,1.49-6.07-1.33-8.85-5.88-5.82-12.24-11.28-15.1-19.5-.61-1.73-1.78-3.65-4-3.76-6.85-.33-13.21.49-18.09,6.34-3.11,3.73-5,8.07-7.53,12.11C96.1,126.63,90.91,134.42,92.18,144.51ZM80.74,163.74c-.89,11.08-1.54,22.26.5,33.3,5.84,31.61,22.52,55.46,51.67,69.77,18.49,9.07,37.85,12.13,57.65,4.57,24.38-9.31,33.18-28.36,30.63-51.88-1.56-14.45-8.05-26.89-15.72-38.83-6.78-10.53-12.83-21.32-15.31-33.81a88.3,88.3,0,0,1-2.13-15,3.4,3.4,0,0,0-3.17-3.66c-1.47-.15-1.49,1.42-1.55,2.42a75.48,75.48,0,0,0,3,24.67c2.36,8.39,6.94,16,11.91,23.28,9,13.21,17.58,26.48,20.24,42.91,2.11,13-.58,24.2-10.07,32.93-14.49,13.35-32.43,15.9-51.1,13.08-22.39-3.38-40.26-15.08-54.46-32.44-12.29-15-18.69-32.48-21-51.67C81.12,176.86,81.61,170.32,80.74,163.74Zm130.14,51.4a25.55,25.55,0,0,0-4.3-12c-.78-1.11-1.46-2.58-3.09-2.2-1.89.45-1.87,2.4-1.76,3.7.4,4.86.89,9.74,2.77,14.3.68,1.63,1.72,3.66,3.63,3.35,2.11-.34,2.47-2.64,2.74-4.56C210.94,217.24,210.88,216.69,210.88,215.14Z"/><path class="cls-2" d="M192.17,127c-13-3.61-19.52-12.62-21.51-25.49-.18-1.18-.15-2.8-1.59-3-1.27-.15-2.06,1.23-2.67,2.27-2.7,4.61-3.32,9.79-3.61,15-.39,6.93-1.65,8.23-8.3,5.9a32.7,32.7,0,0,1-20-19.14,19.28,19.28,0,0,1-1.75-9c.16-2.08-.74-3.25-3-2-8.06,4.35-16.61,5-25.46,3.34-2.22-1.49-4.49-2.91-6.64-4.5A7.82,7.82,0,0,1,94.18,85c-.2-1.83-.4-3.7,2.46-3.52,6.63.42,11-3.3,14.88-8.06a12.41,12.41,0,0,0,2.06-3.05c6.38-16.29,21.15-20.28,35.8-24.3a18.42,18.42,0,0,1,13.23,1.5c2.26,1.12,3,.59,3.47-1.83,1-5.52-.17-10.68-2.43-15.57C162.2,27,163,25.26,166,24c1.51-.63,3-1.4,4.44-2.08,6.82-3.15,9.35-1.92,11,5.35a51.84,51.84,0,0,1-.22,24.82c-.42,1.59-.7,2.7,1.36,3.46,15.93,5.9,19.69,24.72,17.6,37.45-.64,3.91-1.51,7.8-1.89,11.74-.49,5.18,1.46,9.62,4.9,13.49,3.73,4.2,2.94,6.31-2.53,7.92C197.85,127,195,126.29,192.17,127Zm-24.49-75.1L166,53.62,162.12,51a16.83,16.83,0,0,0-13.82-1.68c-3.27,1-6.46,2.35-9.78,3.14-10.19,2.41-17.1,8.43-21.69,17.82-2.91,6-7.3,10.91-14,13.24-1.72.6-4.76.27-4.88,2-.15,2.14,2.77,3,4.5,4.25a11.31,11.31,0,0,0,2.66,1,11.41,11.41,0,0,0,4.64,1.49c11.56.61,21.52-1.81,26.71-13.67.31-.71.52-3.08,2.38-1.14-7.93,13.25-.62,34.29,13.82,39.82,5.85,3.27,6.68,2.91,6.45-3.48a22.44,22.44,0,0,1,5.53-16.22,71.77,71.77,0,0,0,5.78-8c3.52-5.35,5.95-11,5.42-17.67-.23-3-.31-5.92-.46-8.89,3.56,7,5.08,14.16,1.41,21.45-6.36,12.61-.87,27.05,6.67,33.83,4.37,3.92,9.69,6.15,15.87,4.55,1.59-.42,2.73-1.18,1.31-2.8-6.74-7.75-5.35-16.52-3.92-25.64,1.64-10.46,1-20.75-6.21-29.55-3.46-4.25-7.42-7.21-13.31-6.46-1.88.24-3.84.35-5.57-.78l-3.4-2.47a1.43,1.43,0,0,1,1.79-.4c5.58,1.88,6.77,1.22,8.18-4.58.39-1.58,1.11-3.12.77-4.82,1.33-6.27.4-12.47-.83-18.61-.51-2.52-1.54-5-5-3.1-1.48.66-2.94,1.39-4.45,2-2.22.84-2.89,2.28-2,4.46,3,6.91,2.79,13.94.86,21A1,1,0,0,0,167.68,51.93Z"/><path class="cls-3" d="M92.18,144.51c-1.27-10.09,3.92-17.88,8.81-25.8,2.5-4,4.42-8.38,7.53-12.11,4.88-5.85,11.24-6.67,18.09-6.34,2.21.11,3.38,2,4,3.76,2.86,8.22,9.22,13.68,15.1,19.5,2.82,2.78,4.91,5.27,1.33,8.85a2.3,2.3,0,0,0-.65,1.48c.17,7.81-2.51,16,1.18,23.32,3.42,6.82.69,13.26.2,19.78-.57,7.47-5.27,12.65-11.59,16.38-1.88,1.1-2.76,2.41-1.81,4.72s-.25,3.76-2.42,4.32c-2.88.76-5.5,2.47-8.6,2.41-1.55,0-2.6.29-2.68,2.2s.82,4.4-2,5.14-4.76-.63-6.87-2.51c-9.6-8.55-13.84-19.71-15.66-31.9C94.43,166.69,93.46,155.58,92.18,144.51Zm11.38-10.33a25.78,25.78,0,0,0,0,3.29c.84,6.75,5.27,8.76,10.9,5a17.28,17.28,0,0,0,4.6-4.62,48.44,48.44,0,0,0,8.71-23.13c.31-2.94-.35-6-2.85-7.77s-5.46-1.08-8.16.25a15,15,0,0,0-5.27,4.51A40.11,40.11,0,0,0,103.56,134.18Zm5.1,26.26c2.39-.32,4.38-1.61,4.3-4.61a4,4,0,0,0-4.16-4.19c-2.84,0-4.51,1.85-4.57,4.76C104.17,159,105.55,160.45,108.66,160.44Z"/><path class="cls-3" d="M80.74,163.74c.87,6.58.38,13.12,1.15,19.65,2.28,19.19,8.68,36.64,21,51.67,14.2,17.36,32.07,29.06,54.46,32.44,18.67,2.82,36.61.27,51.1-13.08,9.49-8.73,12.18-19.9,10.07-32.93-2.66-16.43-11.21-29.7-20.24-42.91-5-7.27-9.55-14.89-11.91-23.28a75.48,75.48,0,0,1-3-24.67c.06-1,.08-2.57,1.55-2.42a3.4,3.4,0,0,1,3.17,3.66,88.3,88.3,0,0,0,2.13,15c2.48,12.49,8.53,23.28,15.31,33.81,7.67,11.94,14.16,24.38,15.72,38.83,2.55,23.52-6.25,42.57-30.63,51.88-19.8,7.56-39.16,4.5-57.65-4.57C103.76,252.5,87.08,228.65,81.24,197,79.2,186,79.85,174.82,80.74,163.74Z"/><path class="cls-3" d="M210.88,215.14c0,1.55.06,2.1,0,2.63-.27,1.92-.63,4.22-2.74,4.56-1.91.31-2.95-1.72-3.63-3.35-1.88-4.56-2.37-9.44-2.77-14.3-.11-1.3-.13-3.25,1.76-3.7,1.63-.38,2.31,1.09,3.09,2.2A25.55,25.55,0,0,1,210.88,215.14Z"/><path class="cls-4" d="M171.68,57.65c1.73,1.13,3.69,1,5.57.78,5.89-.75,9.85,2.21,13.31,6.46,7.18,8.8,7.85,19.09,6.21,29.55-1.43,9.12-2.82,17.89,3.92,25.64,1.42,1.62.28,2.38-1.31,2.8-6.18,1.6-11.5-.63-15.87-4.55-7.54-6.78-13-21.22-6.67-33.83,3.67-7.29,2.15-14.43-1.41-21.45.15,3,.23,5.93.46,8.89.53,6.62-1.9,12.32-5.42,17.67a71.77,71.77,0,0,1-5.78,8,22.44,22.44,0,0,0-5.53,16.22c.23,6.39-.6,6.75-6.45,3.48.57-4.37-1.37-8.58-.63-13a47.88,47.88,0,0,1,9.41-21.41,37.69,37.69,0,0,0,7.75-18.62C172.29,62.86,172.38,60.4,171.68,57.65ZM184,100.49a48,48,0,0,0,.06,7.11c.77,5,1.94,10,6.94,12.72,1,.54,2.2,1.16,3,.26,1.14-1.22-.44-1.88-1.07-2.58a14.47,14.47,0,0,1-3.91-8.83,59.32,59.32,0,0,1,1.11-17c2.32-9.75,1.16-18.88-5.89-26.66-.84-.93-1.72-2.22-2.94-1.55s-.57,2.18-.32,3.37c.88,4.25,2.26,8.35,3.11,12.64C185.51,86.92,183.41,93.74,184,100.49Z"/><path class="cls-5" d="M169.24,64.23a37.69,37.69,0,0,1-7.75,18.62,47.88,47.88,0,0,0-9.41,21.41c-.74,4.43,1.2,8.64.63,13C138.27,111.74,131,90.7,138.89,77.45c.25-.55.49-1.1.74-1.66,0-.43,0-.86,0-1.3a10.27,10.27,0,0,0,4.12-5.34c3.11-2.58,6-5.44,9.52-7.49C161.76,56.72,166.51,57.44,169.24,64.23Z"/><path class="cls-5" d="M105.16,90.77a11.31,11.31,0,0,1-2.66-1c-1.73-1.24-4.65-2.11-4.5-4.25.12-1.71,3.16-1.38,4.88-2,6.65-2.33,11-7.29,14-13.24,4.59-9.39,11.5-15.41,21.69-17.82,3.32-.79,6.51-2.12,9.78-3.14A16.83,16.83,0,0,1,162.12,51c-4.2.82-5.7,5.34-9.54,6.8-4.51,1.72-8.06,5.12-11.68,8.16-2.42,2-5.34,3.91-6.26,7.33-4.88,4-8.79,9.1-15,11.52A75.17,75.17,0,0,1,107.52,88C105.69,88.36,104.75,88.81,105.16,90.77Z"/><path class="cls-4" d="M105.16,90.77c-.41-2,.53-2.41,2.36-2.79a75.17,75.17,0,0,0,12.1-3.18c6.23-2.42,10.14-7.53,15-11.52a6.06,6.06,0,0,0,6.05-2.34,3.77,3.77,0,0,1,3-1.79,10.27,10.27,0,0,1-4.12,5.34c-.36.45-.8.89,0,1.3-.25.56-.49,1.11-.74,1.66-1.86-1.94-2.07.43-2.38,1.14-5.19,11.86-15.15,14.28-26.71,13.67A11.41,11.41,0,0,1,105.16,90.77Z"/><path class="cls-6" d="M143.71,69.15a3.77,3.77,0,0,0-3,1.79,6.06,6.06,0,0,1-6.05,2.34c.92-3.42,3.84-5.3,6.26-7.33,3.62-3,7.17-6.44,11.68-8.16,3.84-1.46,5.34-6,9.54-6.8L166,53.62a2.49,2.49,0,0,0,2.29,1.56l3.41,2.47c.7,2.75.61,5.21-2.44,6.58-2.73-6.79-7.48-7.51-16-2.57C149.68,63.71,146.82,66.57,143.71,69.15Z"/><path class="cls-5" d="M167.64,51.14c1.93-7.11,2.11-14.14-.86-21-.93-2.18-.26-3.62,2-4.46,1.51-.57,3-1.3,4.45-2,1.93,2.22.82,5,1.17,7.44.7,5,1.95,10-1.42,14.81-1,1.48-2.34,3.64-2.07,5.94l-2.57-.1Z"/><path class="cls-6" d="M170.87,51.86c-.27-2.3,1-4.46,2.07-5.94,3.37-4.84,2.12-9.86,1.42-14.81-.35-2.47.76-5.22-1.17-7.44,3.46-1.86,4.49.58,5,3.1,1.23,6.14,2.16,12.34.83,18.61-2-1.56-3.26-1.32-3.92,1.38C174.55,49.06,174,51.56,170.87,51.86Z"/><path class="cls-7" d="M170.87,51.86c3.09-.3,3.68-2.8,4.23-5.1.66-2.7,1.9-2.94,3.92-1.38.34,1.7-.38,3.24-.77,4.82-1.41,5.8-2.6,6.46-8.18,4.58a1.45,1.45,0,0,0-1.8.4A2.49,2.49,0,0,1,166,53.62l1.7-1.69a3.35,3.35,0,0,0,.62-.17Z"/><path class="cls-6" d="M168.3,51.76a3.35,3.35,0,0,1-.62.17,1,1,0,0,1,0-.79Z"/><path class="cls-8" d="M103.56,134.18a40.11,40.11,0,0,1,8-22.46,15,15,0,0,1,5.27-4.51c2.7-1.33,5.58-2.14,8.16-.25s3.16,4.83,2.85,7.77a48.44,48.44,0,0,1-8.71,23.13,17.28,17.28,0,0,1-4.6,4.62c-5.63,3.75-10.06,1.74-10.9-5A25.78,25.78,0,0,1,103.56,134.18Z"/><path class="cls-8" d="M108.66,160.44c-3.11,0-4.49-1.4-4.43-4,.06-2.91,1.73-4.73,4.57-4.76a4,4,0,0,1,4.16,4.19C113,158.83,111.05,160.12,108.66,160.44Z"/><path class="cls-6" d="M184,100.49c-.58-6.75,1.52-13.57.13-20.57-.85-4.29-2.23-8.39-3.11-12.64-.25-1.19-.89-2.7.32-3.37s2.1.62,2.94,1.55c7,7.78,8.21,16.91,5.89,26.66a59.32,59.32,0,0,0-1.11,17A14.47,14.47,0,0,0,193,118c.63.7,2.21,1.36,1.07,2.58-.84.9-2.06.28-3-.26-5-2.76-6.17-7.7-6.94-12.72A48,48,0,0,1,184,100.49Z"/><path class="cls-2" d="M139.63,75.79c-.84-.41-.4-.85,0-1.3C139.6,74.93,139.61,75.36,139.63,75.79Z"/></g></svg>