<svg id="Слой_1" data-name="Слой 1" xmlns="http://www.w3.org/2000/svg" viewBox="0 0 300 297.99"><defs><style>.cls-1{fill:#c24462;}.cls-2{fill:#fff;}</style></defs><title>failure-icon</title><g id="Слой_4" data-name="Слой 4"><circle class="cls-1" cx="150.24" cy="148.97" r="149.76"/><path class="cls-2" d="M106.54,81.52,146.73,122a5,5,0,0,0,7.06,0L194.2,82a5,5,0,0,1,7,0l16.57,16.23a5,5,0,0,1,0,7.12l-40.53,40.13a5,5,0,0,0,0,7.09l40.07,40a5,5,0,0,1,0,7.07L200.7,216.32a5,5,0,0,1-7.09,0l-39.83-40.17a5,5,0,0,0-7.09,0l-40.15,40.2a5,5,0,0,1-7.09,0L83.2,199.92a5,5,0,0,1,0-7.07l40.56-40.34a5,5,0,0,0,0-7.08L83.21,105a5,5,0,0,1,0-7.06l16.25-16.4A5,5,0,0,1,106.54,81.52Z"/></g></svg>