<svg id="Слой_1" data-name="Слой 1" xmlns="http://www.w3.org/2000/svg" viewBox="0 0 300 300"><defs><style>.cls-1{fill:#d7d5a3;}.cls-2{fill:#808888;}.cls-3{fill:#a1cebd;}.cls-4{fill:#7cbea7;}.cls-5{fill:#cae3da;}.cls-6{fill:#5bb29a;}.cls-7{fill:#f3f3c4;}.cls-8{fill:#fbfaeb;}.cls-9{fill:#e5afb7;}.cls-10{fill:#e8d1db;}.cls-11{fill:#fff;}.cls-12{fill:#90cce5;}</style></defs><title>find-pair-logo-19</title><path class="cls-1" d="M281.19,127.35c-6.89-5.06-23.65-11.86-43.78-17.38-18.75-5.14-37.4-7.51-46.49-7.18l3.35,9.9c8.47,4.5,22.41,9.74,38.52,14.16,16.63,4.56,31.73,7.19,41.28,7.49Z"/><path class="cls-2" d="M278.21,130.05c-7.78-4.89-23.41-11-41.89-16.1-17.65-4.84-33.58-7.51-43-7.52L195,117.59c8.56,4.29,21.69,9.12,36.7,13.23,14.83,4.07,28.44,6.6,38,7.31Z"/><path class="cls-3" d="M228.06,90.34s9.6-10.53.93-14.88-11.76,4.76-11.76,4.76-1.54,6.08,6.19,8.39S228.06,90.34,228.06,90.34Z"/><path class="cls-4" d="M225.54,88.66c-3.86-1.16-5.41-3.25-6-5.06a6.28,6.28,0,0,1,.69-5.15,7.91,7.91,0,0,1,5.59-4.06c-4.15-.67-6.58,2.1-7.74,4.06a6.27,6.27,0,0,0-.67,5.1c.59,1.81,2.13,3.91,6,5.06,2.81.84,4.18,1.3,4.8,1.54.11-.12.26-.3.44-.53C227.9,89.38,226.89,89.06,225.54,88.66Z"/><path class="cls-5" d="M230.63,76.54c2.72,4.5-2.61,11-3.63,12.21,1.26.51,1,2.12,0,0-.62-.24.6,1.16,1.22,1.4C229.35,88.85,235.79,80.93,230.63,76.54Z"/><path class="cls-4" d="M262.64,77.57s12.57-19.5-4.84-22.4-18,25.39-7.57,27.52Z"/><path class="cls-6" d="M254.2,55c-13.83,1.32-13.62,25.7-4,27.67l1.56-.64C243.37,79.24,243,58.54,254.2,55Z"/><path class="cls-3" d="M261.71,56.3c8.3,5.92-.92,20.23-.92,20.23l1.85,1S273.1,61.34,261.71,56.3Z"/><path class="cls-3" d="M263,132s21.42-15.19,19.31-40.49S252.5,75.7,245,81.64c-8.19,6.5-13.54,16.48-13.54,16.48l.59,28.24Z"/><path class="cls-4" d="M236.32,126.46l-.6-28.25s5.36-10,13.55-16.48c3.47-2.75,11.3-6.28,18.91-6.73-8.75-1-19,3.36-23.16,6.64-8.19,6.5-13.54,16.48-13.54,16.48l.59,28.24Z"/><path class="cls-5" d="M282.33,91.49c-.53-6.24-2.61-10.36-5.55-12.94a21.47,21.47,0,0,1,3.11,10.14c2.11,25.3-19.31,40.49-19.31,40.49L263,132S284.44,116.79,282.33,91.49Z"/><path class="cls-4" d="M211.49,118.4s-11.67-20.69,6.62-30.18,24.35,19.13,18.46,23.47l4.12,14.72Z"/><path class="cls-6" d="M214.74,118.23S203.07,97.53,221.37,88a17.48,17.48,0,0,1,4.71-1.69,14.53,14.53,0,0,0-8,1.87c-18.29,9.49-6.62,30.18-6.62,30.18Z"/><path class="cls-3" d="M236.57,111.69c4.51-3.33,2-20.89-7.62-24.67,6.94,5.91,8.47,19.13,5.25,23.23Z"/><path class="cls-3" d="M236.59,126.64S223.45,107.1,245.37,98s22.47,17.2,18.63,22l-3.84,4.83-6.07,5.19Z"/><path class="cls-4" d="M240,126s-13.14-19.55,8.78-28.61A26.9,26.9,0,0,1,252,96.24a23.68,23.68,0,0,0-6.6,1.79c-21.92,9.07-8.78,28.61-8.78,28.61Z"/><path class="cls-5" d="M258.42,97.13c6,5.6,5.88,16.48,2.88,21.12-3.38,5.06-6.75,7.33-9.92,10l2.71,1.81,4.12-3.52a26.35,26.35,0,0,0,3.55-3.69l2.24-2.81C267.77,115.54,267.28,101.17,258.42,97.13Z"/><path class="cls-2" d="M247,90.49A5.63,5.63,0,0,1,243.66,93C244,91,245.12,90.27,247,90.49Z"/><path class="cls-2" d="M261.66,90.73c.58-1.79,1.66-2.3,3.19-3.19C264.42,90.21,263.37,90.71,261.66,90.73Z"/><path class="cls-2" d="M269.4,120.74a3.87,3.87,0,0,1-1.06.19c.6-1.61,1.76-1.86,2.85-2.22C271.33,118.92,270.62,120.87,269.4,120.74Z"/><path class="cls-2" d="M274.56,86.26A3.66,3.66,0,0,1,271.85,89C271.69,87,271.73,87,274.56,86.26Z"/><path class="cls-2" d="M277.62,100.26c-.53-.66-.92-1.87.93-3.38C279.1,99.1,279.1,99.1,277.62,100.26Z"/><path class="cls-2" d="M268,97.26c1.36,0,3.1-.11,3.22,1.14C270,98.86,268.66,98.93,268,97.26Z"/><path class="cls-2" d="M252.61,82.41c.48.73.8,2.56.14,3.21-.27-.35-.75-.61-.92-1a6.45,6.45,0,0,1,.42-2.16A.21.21,0,0,1,252.61,82.41Z"/><path class="cls-2" d="M263.47,82.14a5.39,5.39,0,0,1-2-2.49C263.41,79.49,264.05,80.35,263.47,82.14Z"/><path class="cls-2" d="M273.85,110.61c-.62-.7-.31-2.53.52-3.41C275.39,107.58,274.41,110.71,273.85,110.61Z"/><path class="cls-2" d="M257.65,121.56c-2-1.55-1.52-2.91-.42-4.36A5.8,5.8,0,0,1,257.65,121.56Z"/><path class="cls-2" d="M248.13,103.07a4.31,4.31,0,0,1-2.84,3.12C245.52,103.78,245.71,103.56,248.13,103.07Z"/><path class="cls-2" d="M250.21,117c.16,1.52-.24,2.33-1.19,2.79C248.42,117.87,248.42,117.87,250.21,117Z"/><path class="cls-2" d="M248.79,110.41c1.67-1.46,2.73-.57,3.83-.34A4.1,4.1,0,0,1,248.79,110.41Z"/><path class="cls-2" d="M262.78,114.49a5,5,0,0,1-4.07-.21C260.5,113.15,260.5,113.15,262.78,114.49Z"/><path class="cls-2" d="M242,113.32c-1.42.47-2.81-1.06-2.95-2A3.37,3.37,0,0,1,242,113.32Z"/><path class="cls-2" d="M258.08,106.45c-.06-2.19,1.11-2.28,2-2.69A2.52,2.52,0,0,1,258.08,106.45Z"/><path class="cls-2" d="M230.65,96.15a6.77,6.77,0,0,1-2.05,3.65C228.5,97.76,229.49,96,230.65,96.15Z"/><path class="cls-2" d="M221.28,106.92c.67-1.81,2.3-2.42,4-3.15C225,105.32,223.71,106.32,221.28,106.92Z"/><path class="cls-2" d="M218.14,95.5c1.43,1.07,2.41,2.28,1.57,4.09C218.64,98.65,217.68,95.83,218.14,95.5Z"/><path class="cls-2" d="M211.69,105.56c1.09-.64,2.15-1.45,3.88-.84A3.3,3.3,0,0,1,211.69,105.56Z"/><path class="cls-2" d="M227.24,114.29c-1.28-1.37-1.25-2.56-.59-4.15C227.81,111.51,227.74,112.7,227.24,114.29Z"/><path class="cls-2" d="M256.84,71.31c-1.11-2.46-1.29-2.5.23-3.67C257.42,69.22,257.66,70,256.84,71.31Z"/><path class="cls-2" d="M258.83,62c-.14-1.89.33-2.89,2.07-3.36C261,60.29,260.1,61,258.83,62Z"/><path class="cls-2" d="M248,64.38c1.84-1.34,2.86-.57,3.86.36A3.21,3.21,0,0,1,248,64.38Z"/><path class="cls-2" d="M228.85,80c-1.79-.4-1.91-1.39-2.26-2.2C227.36,77.26,228.57,78.64,228.85,80Z"/><path class="cls-2" d="M219.53,81.61a2.41,2.41,0,0,1,2.65-1.88C222,80.78,221.43,81.28,219.53,81.61Z"/><path class="cls-7" d="M281.07,127.5c-7.85,28.65-32.63,39.88-57.52,33.06s-40.48-29.12-32.63-57.77C218.48,120.92,248.59,129.08,281.07,127.5Z"/><path class="cls-1" d="M196.39,106.24c-1.83-1.11-3.66-2.26-5.47-3.45-7.25,26.45,5.48,47.48,27.06,55.92C200.13,149.12,190.25,129.89,196.39,106.24Z"/><path class="cls-8" d="M274.6,127.68c-6.78,23.48-25.08,35-45.33,34.13,22.88,3.74,44.55-7.86,51.8-34.31C278.9,127.61,276.75,127.66,274.6,127.68Z"/><path class="cls-2" d="M208.09,101.17s-3.42-1-3.59-2c0,0,3.09.11,3.88.63Z"/><path class="cls-2" d="M211.79,93.09s-2.33-1.69-2.13-3a8.41,8.41,0,0,1,2.86,2Z"/><path class="cls-2" d="M223.17,86.46a4.43,4.43,0,0,1,.82-2.74s.9,1.72.64,2.6Z"/><path class="cls-2" d="M232.54,89.41s2.38-1.6,3-1.29c0,0-1.06,1.95-1.93,2.21Z"/><path class="cls-2" d="M217.33,80.55s-2.52-.18-2.93-1.32a9,9,0,0,1,3.29,0Z"/><path class="cls-2" d="M221.31,75.14s-.95-1.7-.47-2.8c0,0,1.4,1.6,1.42,2.35Z"/><path class="cls-2" d="M225.9,74.35s.46-2.42,1.62-2.65a9,9,0,0,1-.3,3Z"/><path class="cls-2" d="M231.81,77.89a2.64,2.64,0,0,1,2.53.13s-1.05,1.36-1.91,1.3Z"/><path class="cls-2" d="M234,108s-2.44-.74-2-2.65a3.39,3.39,0,0,1,2.61,1Z"/><path class="cls-2" d="M245.6,97.93a3.31,3.31,0,0,1,.24-2.71A4.94,4.94,0,0,1,247,97.49Z"/><path class="cls-2" d="M255.09,96.22s.75-2.1,1.55-2.55c0,0,.41,2.17-.09,2.72Z"/><path class="cls-2" d="M264.4,103a3.05,3.05,0,0,1,2.74,0s-1.48,1.66-2.17,1.43Z"/><path class="cls-2" d="M266.22,111.21s2.21.47,2.64,1.59c0,0-1.69.77-2.66.1Z"/><path class="cls-2" d="M263.69,120.44a2.83,2.83,0,0,1,2.08,1.34s-2.3.56-2.9-.3Z"/><path class="cls-2" d="M241.38,84.9a2.31,2.31,0,0,1-1.14-2.19s1.88.65,1.87,1.45Z"/><path class="cls-2" d="M250.94,78.33s-1.39-1.61-.85-3.12a12.28,12.28,0,0,1,2.48,2.34Z"/><path class="cls-2" d="M259.83,75.22a2.6,2.6,0,0,1,.69-2.44s1.53.9,1.24,2.29Z"/><path class="cls-2" d="M273.63,76.49s1.9-1.48,2.75-1.45c0,0-.51,2.33-1.14,2.35Z"/><path class="cls-2" d="M280.76,84.31s2-1.17,3.29-.87c0,0-2.16,2.39-2.76,2.43Z"/><path class="cls-2" d="M282.42,97.2a6,6,0,0,1,2.61.31s-1.55,1.74-2.66,1.22Z"/><path class="cls-2" d="M279.35,111.24a4.84,4.84,0,0,1,2.13,1.12s-2.05.94-3.07.38Z"/><path class="cls-2" d="M274.93,119.33s2.46,1.51,2.56,2.16c0,0-3.32,0-3.6-1Z"/><path class="cls-2" d="M243.6,73.28a5.45,5.45,0,0,1-2.69.21,8.35,8.35,0,0,1,2.4-2Z"/><path class="cls-2" d="M244.53,63s-2.45-.65-2.87-2c0,0,3-.32,3.57.6Z"/><path class="cls-2" d="M250.3,56.05a5.61,5.61,0,0,1,0-2.87s2,1.45,1.95,2Z"/><path class="cls-2" d="M259.14,55.56s.93-1.76,1.67-2.07a6.9,6.9,0,0,1,.2,2.61Z"/><path class="cls-2" d="M266.49,61.3s2.8.06,2.92.43c0,0-1.46,1.63-2.46,1.56Z"/><path class="cls-9" d="M123.48,188.8c-6.11-1.66-19.44-1.84-34.73-.18-14.25,1.55-27.68,5-33.82,7.74l5,6c7,.85,18,.7,30.25-.63,12.64-1.37,23.7-3.67,30.32-6.09Z"/><path class="cls-2" d="M120.17,190.91c-6.11-.86-17.54-.66-30.52.75-12.41,1.34-23.19,3.45-29.18,5.52l3.72,5.55a173.78,173.78,0,0,0,26.54-1.12,174.85,174.85,0,0,0,25.94-4.53Z"/><path class="cls-10" d="M111,224.45a82.64,82.64,0,0,1-36.52,4L64,201.32l51.43-5.57Z"/><path class="cls-9" d="M69.81,200.69l-5.82.63,9.76,25.24a3.19,3.19,0,0,0,2.71,2l1.63.13Z"/><path class="cls-11" d="M109.6,196.38l-2.09,29.16,1.67-.5a3.06,3.06,0,0,0,2.09-2.45l4.15-26.84Z"/><path class="cls-3" d="M108.16,120.75a13.31,13.31,0,0,1,1.65,7.81c-.21,1.75-4.66,4.77-6,4.28-2.11-.76-4.41-2.77-7-5.27-3-2.85-1.86-8.41,1.28-10.29S106.05,117.22,108.16,120.75Z"/><path class="cls-5" d="M108.16,120.75c-2.11-3.53-7-5.36-10.11-3.47A5.91,5.91,0,0,0,96,119.54c2.94.18,8.26,1.79,10.73,10.68,0,0,2.9.05,3.11-1.66A13.31,13.31,0,0,0,108.16,120.75Z"/><path class="cls-5" d="M68.53,153.76l-4.82,10a12.58,12.58,0,0,1-4.84,1.6C52.92,166,48,160,47.36,154.23s3.3-9.06,9.26-9.71S67.6,151.49,68.53,153.76Z"/><path class="cls-3" d="M64.94,159.29c-7.37-9.07-13.9-9.94-17.31-8.63,0,.58-.34,2.93-.27,3.57C48,160,52.92,166,58.87,165.34a12.58,12.58,0,0,0,4.84-1.6Z"/><path class="cls-4" d="M47.63,150.66a9.39,9.39,0,0,0-.27,3.57C48,160,52.92,166,58.87,165.34a12.58,12.58,0,0,0,4.84-1.6l.08-.17L64,162C53.18,162.26,49,154.16,47.63,150.66Z"/><path class="cls-3" d="M123.33,145.87c-2.91,6.06-10.14,11.38-16.29,12.55l-9.22-13.73a50.27,50.27,0,0,1,2-7.12c2.93-8.31,10.57-13.19,17.07-10.9S128.24,135.68,123.33,145.87Z"/><path class="cls-5" d="M116.88,126.67c-.39-.14,1.36.47,1,.38,1.85,4.45.49,8.43-1.11,12.67-3.33,8.84-9,12.76-12.56,14.41l2.87,4.29c6.15-1.17,13.38-6.49,16.29-12.55C128.24,135.68,123.38,129,116.88,126.67Z"/><path class="cls-4" d="M117.84,127.05a10.09,10.09,0,0,0-1-.38c-6.5-2.29-14.14,2.59-17.07,10.9a50.27,50.27,0,0,0-2,7.12l4.39,6.53C102.39,146.38,104.54,136.18,117.84,127.05Z"/><path class="cls-4" d="M110.4,166.58c1.13,10.42-5.36,21.81-8.56,29.31C99.61,201.12,82.76,198,82.76,198,72.5,191.86,63.15,182.09,62,171.82c-1.92-17.68,11.79-35.2,25.22-35.12C101.17,136.78,108.49,148.9,110.4,166.58Z"/><path class="cls-3" d="M101.84,195.89c3.2-7.5,9.69-18.89,8.56-29.31-1.91-17.68-9.23-29.8-23.14-29.88a15.18,15.18,0,0,0-2.6.2l-.45.32S70.94,167.59,92,198.9C96.29,199,100.77,198.41,101.84,195.89Z"/><path class="cls-6" d="M69.66,164.17A37.41,37.41,0,0,1,84.33,137C71.92,139.18,60.26,155.43,62,171.82c1.11,10.27,10.46,20,20.72,26.14,0,0,1.49.28,3.63.53C81.9,194.71,68.31,181.73,69.66,164.17Z"/><path class="cls-5" d="M87.26,136.7a16.46,16.46,0,0,0-3,.28c.83,1,13.35,16.57,13.12,32.74-.17,11.82-1.2,23.33-1.79,29.06,3-.27,5.52-1.08,6.29-2.89,3.2-7.5,9.69-18.89,8.56-29.31C108.49,148.9,101.17,136.78,87.26,136.7Z"/><polygon class="cls-2" points="70.44 187.51 68.82 189.68 68.6 187.59 66.56 186.85 69.47 186.17 70.44 187.51"/><polygon class="cls-2" points="63.24 175.18 60.67 176.98 61.26 174.77 60.26 173.19 63.09 173.8 63.24 175.18"/><polygon class="cls-2" points="48.55 157.03 45.79 158.54 47 156.27 45.36 154.59 48.07 155.3 48.55 157.03"/><polygon class="cls-2" points="56.92 142.35 58.07 144.43 60.09 144.79 61.18 142.67 59.17 143.6 56.92 142.35"/><polygon class="cls-2" points="73.26 143.2 70.24 142.96 73.17 142.29 74.03 140 74.7 141.92 73.26 143.2"/><polygon class="cls-2" points="88.72 137.05 87.87 134.44 89.66 135.59 91.88 134.23 90.66 136.84 88.72 137.05"/><polygon class="cls-2" points="97.31 127.51 94.63 129.44 95.56 127.05 93.25 126.11 96.05 125.4 97.31 127.51"/><polygon class="cls-2" points="101.35 114.66 102.07 116.51 104.43 116.94 106.02 114.15 103.83 115.7 101.35 114.66"/><polygon class="cls-2" points="116.65 123.62 116.97 126.52 118.96 127.26 120.76 124.29 118.23 125.64 116.65 123.62"/><polygon class="cls-2" points="127.82 142.91 124.69 143.65 123.86 145.76 126.03 147.41 125.21 144.9 127.82 142.91"/><polygon class="cls-2" points="113.74 156.01 115.78 154.75 119.03 156.14 115.59 155.94 114.95 158.62 113.74 156.01"/><polygon class="cls-2" points="111.06 167.68 113.79 166.1 112.42 168.25 114.01 170.21 111.2 169 111.06 167.68"/><polygon class="cls-2" points="108.02 182.95 110.42 183.29 108.57 184.4 108.96 185.94 107.28 184.4 108.02 182.95"/><polygon class="cls-2" points="81.84 188.03 78.32 189.26 77.18 187.67 79.24 184.49 78.95 187.14 81.84 188.03"/><polygon class="cls-2" points="74.21 182.7 71.84 184.31 72.81 182.71 70.45 182.28 73.5 181.25 74.21 182.7"/><polygon class="cls-2" points="72.49 169.21 70.38 170.8 70.71 172.84 73.48 172.88 71.91 171.6 72.49 169.21"/><polygon class="cls-2" points="67.34 159.76 70.41 161.11 70.14 163.48 67.35 163.56 68.86 162.08 67.34 159.76"/><path class="cls-2" d="M75.23,154.6c-.36.14-2.75-1.24-2.75-1.24l.85-1.89,2.35.12-1.58,1Z"/><polygon class="cls-2" points="59.53 157.32 61.2 154.56 60.02 153.62 57.01 155.11 59.07 155.41 59.53 157.32"/><polygon class="cls-2" points="52.13 157.08 52.97 155.32 53.53 156.88 55.45 157.16 53.45 158.28 52.13 157.08"/><polygon class="cls-2" points="54.31 148.79 55.27 151.24 57.41 151.88 59.18 149.65 56.6 150.55 54.31 148.79"/><polygon class="cls-2" points="81.88 147.2 79.53 145.56 79.73 147.43 78.44 148.5 81.63 148.53 81.88 147.2"/><polygon class="cls-2" points="83.51 163.11 80.66 164.58 80.84 166.29 84.51 167.18 82.52 165.31 83.51 163.11"/><polygon class="cls-2" points="79.09 176.19 82.47 176.27 82.95 178.13 80.38 179.42 81.36 177.63 79.09 176.19"/><polygon class="cls-2" points="97.28 185.99 97.32 184.37 94.4 182.85 95.74 185.09 94.29 186.7 97.28 185.99"/><path class="cls-2" d="M100.17,180.25l-2.48-1.14s0,0,0,0l-.12-1.16s0,0,0,0l2.84-1a0,0,0,0,1,0,.08l-1.26,1.43s0,0,0,.06l1,1.71A.05.05,0,0,1,100.17,180.25Z"/><polygon class="cls-2" points="97.75 170.93 94.83 169.24 96.78 171.97 95.28 173.43 97.95 172.83 97.75 170.93"/><polygon class="cls-2" points="97.05 161.07 99.83 159.61 98.63 161.62 100.83 162.86 97.2 162.47 97.05 161.07"/><polygon class="cls-2" points="90.86 152.45 94.22 152.88 94.77 154.42 92.28 155.72 92.84 153.71 90.86 152.45"/><polygon class="cls-2" points="91.87 143.11 90.22 144.88 91.06 146.42 93.69 146.14 91.89 145.09 91.87 143.11"/><polygon class="cls-2" points="106.51 149.35 109.03 149 107.56 148.36 107.81 145.58 106.13 148.49 106.51 149.35"/><polygon class="cls-2" points="115.13 144.29 111.65 143.84 113.8 143.25 114.06 141.1 115.66 143.25 115.13 144.29"/><polygon class="cls-2" points="118.63 135.13 118.37 136.75 121.26 137.59 120.07 135.85 121.35 134.4 118.63 135.13"/><polygon class="cls-2" points="105.63 140.4 104.88 142.43 102.22 141.74 104.22 141.07 103.19 137.3 105.63 140.4"/><polygon class="cls-2" points="107.89 131.39 111.12 133.1 112.18 132.03 110.83 129.43 110.32 131.61 107.89 131.39"/><polygon class="cls-2" points="105.58 126.27 103.33 127.71 104.19 126.42 102.02 126.01 105.22 125.19 105.58 126.27"/><polygon class="cls-2" points="102.71 118.83 102.11 121.61 103.37 122.76 105.53 121.61 103.3 121.58 102.71 118.83"/><path class="cls-10" d="M122.9,196.7a219.35,219.35,0,0,1-66,7.15,1.69,1.69,0,0,1-1.6-1.5l-.63-5.82a299.65,299.65,0,0,0,68.84-7.46l.63,5.82A1.69,1.69,0,0,1,122.9,196.7Z"/><path class="cls-9" d="M59.14,196.53H54.66l.64,5.85a1.63,1.63,0,0,0,1.55,1.47l3.09.11Z"/><path class="cls-11" d="M119.13,190l.81,7.43,3.1-.8a1.52,1.52,0,0,0,1.11-1.63l-.65-6C122.05,189.4,120.59,189.72,119.13,190Z"/><path class="cls-12" d="M270.94,221.94c-.69-2.23-1.38-4.63-2-7a27.69,27.69,0,0,0,6.25.14c5.62-.47,11.16-2.64,14.23-7,4.89-7,4-17.6-3.06-23.4-3.49-2.86-6.89-5.81-10.37-8.68-4.47-3.7-9.36-3.31-13.29,1.08-2.1,2.34-4.2,4.69-6.08,7.2-1,1.31-4.44,5.45-5.13,6.24-3.66,4.17-7.22,8.43-10.72,12.74a6.15,6.15,0,0,0,.42,8.08c2.9,3.1,9.17,4.08,12.47.11a10.17,10.17,0,0,1,1.6-1.62l2,8.17c-.52,12.15,9.7,11.91,9.7,11.91S273.7,230.91,270.94,221.94Zm1.32-29.46c2.37,1.78,5.19,3.05,4.77,6.6a5.66,5.66,0,0,1-3.29,4.12c-3.34,1.26-5.57-.86-7.95-3.17a1.52,1.52,0,0,1-.11-2.08l4.35-5.2A1.63,1.63,0,0,1,272.26,192.48Z"/><path class="cls-12" d="M221.32,196.57c.16-.61.31-1.21.42-1.83,1.06-5.46,1.95-11,3.33-16.33,1.19-4.63,4.82-6.55,9-5.51,3.95,1,5.9,4.43,5,9-.72,3.71-6.23,20.72-6.45,21.59-.77,3.1-1.37,6.23-2.06,9.35-.76,3.46-3.36,5.35-6.45,4.72-3.95-.8-6.49-3.75-5.9-7.14C219,206.32,220.74,198.69,221.32,196.57Z"/><path class="cls-12" d="M214,188c1.56-7.85-1.64-13.3-6.27-16.26a12.55,12.55,0,0,0-2.87-1.29,21.36,21.36,0,0,0-3.27-1c-4.76-1.29-9.92-1.08-13.16,3.11-2,2.61-13.49,24.55-15.34,32.27a7.7,7.7,0,0,0,4.88,9.13c3.36,1,7-.92,8.86-4.84,1-2.1,1.48-4.43,2.56-6.47.53-1,2-2.29,2.84-2.14A4.21,4.21,0,0,1,195,203.2a38.77,38.77,0,0,1,.51,8.81c-.13,2.71.28,5,2.52,6.7,4.47,3.42,10.82,2.29,12.92-3.36C212.06,212.38,213.43,190.68,214,188Zm-17,4.93c-5.47-1.57-4.71-4.19-3.78-7.43a5.91,5.91,0,0,1,7.14-4.29c3,.87,3.51,3.85,2.58,7.09S201.18,194.18,196.93,193Z"/><path class="cls-12" d="M144,172.7c-.21-5.4-.48-10.8-.61-16.2-.15-6.56,3.4-10.29,9.93-10.53,4.14-.15,8.27-.27,12.4-.39,10.52-.31,16.27,7.24,17.1,15.83a20.51,20.51,0,0,1-2.3,11.17c-3.81,6.67-10,10.25-17.54,11.14-2.66.32-4,.82-3.54,4.06s-3.94,7.76-7.31,7.88a7,7,0,0,1-7.57-7.07l-.6-15.88Zm15.52-3.61a2,2,0,0,0,2,1.88c3.18,0,6.18.19,7.64-3.27a6.22,6.22,0,0,0-.42-5.21c-2.07-2.75-4.88-1.93-7.72-1.57a1.93,1.93,0,0,0-1.69,2Z"/><path class="cls-9" d="M138.9,112.31a70.55,70.55,0,0,1,1.69-9.36c.74-5.7,1.5-11.42,2.56-17.07A8.33,8.33,0,0,1,152.56,79a99.44,99.44,0,0,1,12.14,1.88c8.47,1.94,15.33,11,15,19.65-.06,1.35-.73,11.18-7.18,16-6.2,4.63-15.5,7.34-28,4.81C138.76,120.12,138.61,115.89,138.9,112.31Zm15.57-4.26A1.69,1.69,0,0,0,155.9,110l2.21.32c3.32.47,5.34-1.42,6.83-4a8.47,8.47,0,0,0,1.05-6.06c-1.05-5-4.45-6.13-8.1-6a2.35,2.35,0,0,0-1.58,1.59C155.63,99.83,155.08,103.81,154.47,108.05Z"/><path class="cls-9" d="M115.11,95.38a1.48,1.48,0,0,0-2.49,1.24v0c.51,4-.17,7.13-3.67,9.33-1.63,1-9.63,1.76-11-6-.51-9.25-.84-18.51-1.15-27.78a9,9,0,0,1,3.59-7.93c3.61-2.67,8.65-1.36,11.63,3,2.27,3.28,4.61,6.52,6.95,9.75l0,0a1.46,1.46,0,0,0,2.61-1,43.29,43.29,0,0,1-.08-4.83,17,17,0,0,1,1.27-5.88A5.93,5.93,0,0,1,129,61.73c2.87.2,5.26,1.32,6.53,4.16,1.16,2.61-1.4,18.89-.81,26.37.14,1.94.32,3.89.46,5.83.26,3.73-1.57,7.37-6.31,6.84C125.22,104.53,116.86,97,115.11,95.38Z"/><path class="cls-9" d="M87,88.91c-.71,4-3.62,6.36-7.25,6.31S73.18,93,72.6,89.58a17.2,17.2,0,0,1-.18-5.21c1.25-9.07,2.64-18.12,4-27.18a15.61,15.61,0,0,1,.49-2c1.29-4.38,4.77-6.84,8.64-6.1A7.81,7.81,0,0,1,91.75,58C91.12,63.24,87.89,83.83,87,88.91Z"/><path class="cls-9" d="M46.29,82.19c2.12-.54,4.3-1.17,6.52-1.64a39.18,39.18,0,0,1,6.43-1c4-.17,6.38,1.67,7.17,5.25.65,2.92-1.41,6.53-4.69,7.76s-6.59,2.17-9.89,3.26c-.56.18-1.09.43-2.12.85.48,1.89,1,3.76,1.44,5.67.8,3.79-.76,7.14-3.84,8.42-3.72,1.54-7.07.64-9.36-2.73a15.16,15.16,0,0,1-2.23-4.48C33.44,95,31.2,86.42,29.19,77.83c-1.82-7.75.62-11.28,8.42-13.07,5.51-1.26,11-2.66,16.49-4,2.69-.64,5.35-.78,7.6,1.21,3.73,3.28,2.58,9.1-2.34,11-3.59,1.41-7.35,2.39-11,3.5C44.45,77.68,44.22,78.18,46.29,82.19Z"/></svg>