<svg width="67" height="64" viewBox="0 0 67 64" fill="none" xmlns="http://www.w3.org/2000/svg">
<path d="M4.79429 42.1487C2.53156 35.6966 2.48675 28.662 4.68227 22.165" stroke="#90ABF1" stroke-miterlimit="10"/>
<path d="M62.5724 41.4766C58.3829 53.4175 47.0469 62.6252 33.6946 62.6252C23.1874 62.6252 13.4196 57.2485 7.79639 48.3768" stroke="#90ABF1" stroke-miterlimit="10"/>
<path d="M11.7617 10.6049C23.5682 -1.51522 42.9695 -1.73925 55.0896 10.0673C56.8371 11.7699 58.3605 13.6518 59.6375 15.7129" stroke="#90ABF1" stroke-miterlimit="10"/>
<path d="M8.28931 14.8839C8.9614 13.8757 9.72312 12.89 10.5072 11.9714" stroke="#90ABF1" stroke-miterlimit="10"/>
<path d="M33.6945 54.8736C46.2778 54.8736 56.4786 44.6729 56.4786 32.0895C56.4786 19.5062 46.2778 9.30542 33.6945 9.30542C21.1112 9.30542 10.9104 19.5062 10.9104 32.0895C10.9104 44.6729 21.1112 54.8736 33.6945 54.8736Z" stroke="#90ABF1" stroke-miterlimit="10"/>
<path d="M10.5071 5.04892V14.9064H6.83296V5.04892C6.83296 4.69047 6.54172 4.42163 6.20567 4.42163C5.84721 4.42163 5.57838 4.71287 5.57838 5.04892V14.9064H1.90424V5.04892C1.90424 4.69047 1.613 4.42163 1.27695 4.42163C0.940901 4.42163 0.649658 4.71287 0.649658 5.04892V15.5561V16.9675C0.649658 19.1406 2.64355 20.9328 4.79426 21.0897V58.4359C4.79426 59.2872 5.44396 59.9817 6.29528 60.0265C7.30343 60.0265 7.8187 59.22 7.8187 58.2119V21.0673C9.8798 20.8208 11.7841 19.0734 11.7841 16.9675V5.04892C11.7841 4.71287 11.5152 4.42163 11.1568 4.42163C10.7983 4.42163 10.5071 4.69047 10.5071 5.04892Z" stroke="#90ABF1" stroke-miterlimit="10"/>
<path d="M59.6599 15.4217V30.7903C59.6599 31.2832 59.8615 31.7761 60.1976 32.1121L62.5723 34.2628V58.1671C62.5723 59.1977 63.0876 60.0266 64.1182 60.0266C65.1487 60.0266 65.664 59.1977 65.664 58.1671V4.35449C61.4746 4.35449 59.6599 11.2099 59.6599 15.4217Z" stroke="#90ABF1" stroke-miterlimit="10"/>
</svg>
