<svg width="100" height="100" viewBox="0 0 100 100" fill="none" xmlns="http://www.w3.org/2000/svg">
<path d="M29.1734 24.16C29.1734 20.8006 30.5079 17.5788 32.8833 15.2033C35.2588 12.8278 38.4806 11.4933 41.84 11.4933C45.1994 11.4933 48.4213 12.8278 50.7967 15.2033C53.1722 17.5788 54.5067 20.8006 54.5067 24.16V36.98H66.7334V25.2167C66.7338 21.9468 66.0897 18.709 64.8379 15.6883C63.5861 12.6676 61.7511 9.92328 59.4379 7.61225C57.1247 5.30123 54.3787 3.46884 51.3568 2.21986C48.3349 0.970887 45.0965 0.329823 41.8267 0.333327C35.2272 0.333327 28.898 2.95496 24.2315 7.62149C19.565 12.288 16.9434 18.6172 16.9434 25.2167V36.98H29.1734V24.16Z" fill="#BAC7CA"/>
<path d="M61.1531 25.2167V36.98H66.7065V25.2167C66.7069 21.9491 66.0637 18.7134 64.8136 15.6945C63.5634 12.6755 61.7308 9.93237 59.4205 7.62169C57.1101 5.31102 54.3672 3.47807 51.3484 2.22752C48.3296 0.976979 45.094 0.333328 41.8265 0.333328C40.8988 0.334823 39.9718 0.387124 39.0498 0.489995C45.1295 1.1735 50.7442 4.07279 54.8215 8.63402C58.8989 13.1953 61.1529 19.0987 61.1531 25.2167Z" fill="#9AA3A3"/>
<path d="M72.9267 36.98H10.7233C8.9402 36.98 7.23009 37.6883 5.96922 38.9492C4.70835 40.2101 4 41.9202 4 43.7033V57.0367C3.99869 62.005 4.97613 66.9249 6.87651 71.5154C8.77689 76.1059 11.563 80.277 15.0756 83.7906C18.5883 87.3042 22.7587 90.0914 27.3487 91.993C31.9387 93.8946 36.8584 94.8733 41.8267 94.8733C46.795 94.8751 51.715 93.8981 56.3056 91.9981C60.8963 90.0981 65.0677 87.3124 68.5816 83.8001C72.0955 80.2877 74.8831 76.1175 76.785 71.5277C78.687 66.9379 79.6662 62.0183 79.6667 57.05V43.7167C79.6684 42.8312 79.4953 41.9541 79.1571 41.1358C78.819 40.3175 78.3225 39.574 77.6963 38.948C77.07 38.3221 76.3263 37.826 75.5078 37.4883C74.6893 37.1505 73.8121 36.9778 72.9267 36.98Z" fill="#E6B262"/>
<path d="M72.9265 36.98H67.3731C69.1563 36.98 70.8664 37.6883 72.1273 38.9492C73.3881 40.2101 74.0965 41.9202 74.0965 43.7033V57.0367C74.0978 66.5883 70.4853 75.7868 63.9844 82.7848C57.4835 89.7828 48.5757 94.0621 39.0498 94.7633C39.9665 94.83 40.8898 94.8733 41.8265 94.8733C46.7948 94.8751 51.7148 93.8981 56.3054 91.9981C60.8961 90.0981 65.0675 87.3124 68.5814 83.8001C72.0953 80.2877 74.8829 76.1175 76.7849 71.5277C78.6869 66.9379 79.666 62.0183 79.6665 57.05V43.7167C79.6682 42.8312 79.4951 41.9541 79.1569 41.1358C78.8188 40.3175 78.3223 39.574 77.6961 38.948C77.0698 38.3221 76.3261 37.826 75.5076 37.4883C74.6891 37.1505 73.8119 36.9778 72.9265 36.98Z" fill="#D28A34"/>
<path d="M44.7099 65.9633C46.6381 65.2827 48.2634 63.9421 49.2987 62.1788C50.334 60.4155 50.7124 58.3428 50.3671 56.3274C50.0218 54.312 48.975 52.4836 47.4118 51.1654C45.8486 49.8473 43.8697 49.1243 41.8249 49.1243C39.7801 49.1243 37.8012 49.8473 36.238 51.1654C34.6748 52.4836 33.628 54.312 33.2827 56.3274C32.9374 58.3428 33.3158 60.4155 34.3511 62.1788C35.3863 63.9421 37.0117 65.2827 38.9399 65.9633L34.2532 79.2367C34.2201 79.3299 34.2098 79.4297 34.2234 79.5278C34.2369 79.6258 34.2738 79.7191 34.3311 79.7998C34.3883 79.8806 34.464 79.9464 34.552 79.9916C34.64 80.0369 34.7376 80.0604 34.8366 80.06H48.8166C48.9152 80.0596 49.0124 80.0357 49.1 79.9902C49.1876 79.9447 49.263 79.879 49.3201 79.7984C49.3771 79.7179 49.4141 79.6249 49.428 79.5272C49.4419 79.4295 49.4323 79.3299 49.3999 79.2367L44.7099 65.9633Z" fill="#555A77"/>
<path d="M44.7101 65.9633C46.7098 65.2491 48.3778 63.8255 49.3973 61.9627C50.4168 60.1 50.717 57.9278 50.2409 55.8584C49.7647 53.789 48.5454 51.9664 46.8143 50.7366C45.0833 49.5067 42.9609 48.9552 40.8501 49.1867C42.7954 49.4105 44.6075 50.2865 45.9913 51.672C47.3751 53.0574 48.2489 54.8706 48.4704 56.8162C48.6919 58.7617 48.248 60.725 47.2111 62.386C46.1742 64.047 44.6053 65.3079 42.7601 65.9633L47.4501 79.2367C47.4825 79.3299 47.4921 79.4295 47.4782 79.5272C47.4643 79.6249 47.4273 79.7179 47.3703 79.7984C47.3132 79.879 47.2378 79.9447 47.1502 79.9902C47.0626 80.0357 46.9655 80.0596 46.8668 80.06H48.8168C48.9155 80.0596 49.0126 80.0357 49.1002 79.9902C49.1878 79.9447 49.2632 79.879 49.3203 79.7984C49.3773 79.7179 49.4143 79.6249 49.4282 79.5272C49.4421 79.4295 49.4325 79.3299 49.4001 79.2367L44.7101 65.9633Z" fill="#3F425E"/>
<path d="M74.9865 99.6633C86.5918 99.6633 95.9998 90.2553 95.9998 78.65C95.9998 67.0447 86.5918 57.6367 74.9865 57.6367C63.3811 57.6367 53.9731 67.0447 53.9731 78.65C53.9731 90.2553 63.3811 99.6633 74.9865 99.6633Z" fill="#3AB3E1"/>
<path d="M81.4568 63.89C83.1023 64.5578 84.5209 65.6849 85.5435 67.1367C86.5234 68.5741 87.0324 70.2806 87.0002 72.02C87.0198 73.121 86.7545 74.2084 86.2302 75.1767C85.7548 76.0476 85.1413 76.8356 84.4135 77.51C83.5771 78.2572 82.6978 78.9551 81.7802 79.6C81.1077 80.095 80.4623 80.6257 79.8468 81.19C79.6664 81.3416 79.5191 81.5288 79.4142 81.7398C79.3092 81.9509 79.2488 82.1813 79.2368 82.4167C79.2359 82.6698 79.1348 82.9123 78.9555 83.091C78.7761 83.2697 78.5333 83.37 78.2802 83.37H72.4202C72.295 83.37 72.171 83.3453 72.0553 83.2974C71.9397 83.2495 71.8346 83.1793 71.746 83.0908C71.6575 83.0022 71.5873 82.8972 71.5394 82.7815C71.4915 82.6658 71.4668 82.5419 71.4668 82.4167V81.1C71.4594 80.3847 71.6944 79.688 72.1335 79.1233C72.7865 78.3214 73.4997 77.5703 74.2668 76.8767C75.1055 76.1645 75.8735 75.3731 76.5602 74.5133C77.0823 73.8482 77.3632 73.0255 77.3568 72.18C77.3756 71.3553 77.0842 70.5535 76.5402 69.9333C76.2685 69.6263 75.932 69.3836 75.5549 69.2227C75.1779 69.0619 74.7698 68.9869 74.3602 69.0033C72.389 69.0033 71.4046 70.2744 71.4068 72.8167V73.0867C71.4077 73.2123 71.3837 73.3368 71.3361 73.453C71.2886 73.5693 71.2184 73.6749 71.1298 73.7639C71.0411 73.8529 70.9357 73.9234 70.8196 73.9713C70.7035 74.0193 70.5791 74.0438 70.4535 74.0433H63.1102C63.0802 73.83 63.0468 73.59 63.0168 73.3167C62.9847 72.9843 62.9702 72.6505 62.9735 72.3167C62.9356 70.5004 63.4941 68.7218 64.5635 67.2533C65.7037 65.7555 67.2356 64.6019 68.9902 63.92C71.017 63.1052 73.186 62.7029 75.3702 62.7367C77.4566 62.701 79.5281 63.0935 81.4568 63.89ZM70.9202 93.59V87.0967C70.9202 86.9715 70.9448 86.8475 70.9927 86.7318C71.0406 86.6162 71.1109 86.5111 71.1994 86.4226C71.2879 86.334 71.393 86.2638 71.5087 86.2159C71.6243 86.168 71.7483 86.1433 71.8735 86.1433H78.9602C79.0854 86.1433 79.2093 86.168 79.325 86.2159C79.4406 86.2638 79.5457 86.334 79.6343 86.4226C79.7228 86.5111 79.793 86.6162 79.8409 86.7318C79.8888 86.8475 79.9135 86.9715 79.9135 87.0967V93.59C79.9139 93.7155 79.8896 93.8398 79.8419 93.9558C79.7942 94.0719 79.724 94.1774 79.6354 94.2663C79.5469 94.3551 79.4416 94.4257 79.3258 94.4738C79.2099 94.5219 79.0856 94.5467 78.9602 94.5467H71.8735C71.748 94.5467 71.6238 94.5219 71.5079 94.4738C71.392 94.4257 71.2868 94.3551 71.1982 94.2663C71.1096 94.1774 71.0395 94.0719 70.9918 93.9558C70.9441 93.8398 70.9197 93.7155 70.9202 93.59Z" fill="white"/>
</svg>
