<svg width="162" height="94" viewBox="0 0 162 94" fill="none" xmlns="http://www.w3.org/2000/svg">
<path d="M124.374 7.11931L124.265 6.90121L123.066 4.22949C122.63 3.08447 121.485 2.37565 120.285 2.37565L104.418 2.10303C103.164 2.10303 102.019 2.9209 101.583 4.06592L101.092 5.37452" stroke="#90ABF1" stroke-width="2" stroke-miterlimit="10"/>
<path d="M60.4713 5.48361L59.7625 3.90239C59.3263 2.75737 58.1813 2.04854 56.9817 2.04854L41.115 1.83044C39.8609 1.83044 38.7159 2.64832 38.2797 3.79334L37.1347 7.06483" stroke="#90ABF1" stroke-width="2" stroke-miterlimit="10"/>
<path d="M62.1616 61.5351H100.111C108.508 61.5351 116.032 66.824 118.867 74.7301L119.413 76.3114C122.848 85.9077 131.953 92.3417 142.204 92.3417H149.51C157.198 92.3417 162.433 84.5446 159.543 77.4564L135.225 17.7517C132.226 10.3363 124.974 5.48364 116.959 5.48364H45.0408C37.0256 5.48364 29.8284 10.3363 26.775 17.7517L2.51144 77.4019C-0.37837 84.5446 4.85601 92.2871 12.544 92.2871H20.0684C30.2646 92.2871 39.3702 85.8532 42.8598 76.2568L43.405 74.6756C46.2403 66.8241 53.7102 61.5351 62.1616 61.5351Z" stroke="#90ABF1" stroke-width="2" stroke-miterlimit="10"/>
<path d="M96.8939 53.2473C101.411 53.2473 105.073 49.5856 105.073 45.0686C105.073 40.5516 101.411 36.8899 96.8939 36.8899C92.3769 36.8899 88.7151 40.5516 88.7151 45.0686C88.7151 49.5856 92.3769 53.2473 96.8939 53.2473Z" stroke="#90ABF1" stroke-width="2" stroke-miterlimit="10"/>
<path d="M47.6035 33.4549C52.1204 33.4549 55.7822 29.7931 55.7822 25.2761C55.7822 20.7592 52.1204 17.0974 47.6035 17.0974C43.0865 17.0974 39.4247 20.7592 39.4247 25.2761C39.4247 29.7931 43.0865 33.4549 47.6035 33.4549Z" stroke="#90ABF1" stroke-width="2" stroke-miterlimit="10"/>
<path d="M122.63 29.529C125.189 29.529 127.264 27.454 127.264 24.8944C127.264 22.3348 125.189 20.2598 122.63 20.2598C120.07 20.2598 117.995 22.3348 117.995 24.8944C117.995 27.454 120.07 29.529 122.63 29.529Z" stroke="#90ABF1" stroke-width="2" stroke-miterlimit="10"/>
<path d="M114.505 37.7623C117.065 37.7623 119.14 35.6873 119.14 33.1277C119.14 30.568 117.065 28.493 114.505 28.493C111.946 28.493 109.871 30.568 109.871 33.1277C109.871 35.6873 111.946 37.7623 114.505 37.7623Z" stroke="#90ABF1" stroke-width="2" stroke-miterlimit="10"/>
<path d="M106.054 29.529C108.614 29.529 110.689 27.454 110.689 24.8944C110.689 22.3348 108.614 20.2598 106.054 20.2598C103.494 20.2598 101.419 22.3348 101.419 24.8944C101.419 27.454 103.494 29.529 106.054 29.529Z" stroke="#90ABF1" stroke-width="2" stroke-miterlimit="10"/>
<path d="M114.505 21.2413C117.065 21.2413 119.14 19.1663 119.14 16.6067C119.14 14.047 117.065 11.972 114.505 11.972C111.946 11.972 109.871 14.047 109.871 16.6067C109.871 19.1663 111.946 21.2413 114.505 21.2413Z" stroke="#90ABF1" stroke-width="2" stroke-miterlimit="10"/>
<path d="M71.5398 42.0698H69.1407C68.1593 42.0698 67.3959 41.3064 67.3959 40.325V37.9804C67.3959 36.9989 66.6326 36.2356 65.6512 36.2356H63.1975C62.2161 36.2356 61.4527 36.9989 61.4527 37.9804V40.325C61.4527 41.3064 60.6894 42.0698 59.708 42.0698H57.0362C56.0548 42.0698 55.2914 42.8331 55.2914 43.8145V46.2682C55.2914 47.2496 56.0548 48.013 57.0362 48.013H59.708C60.6894 48.013 61.4527 48.7763 61.4527 49.7577V52.484C61.4527 53.4654 62.2161 54.2288 63.1975 54.2288H65.6512C66.6326 54.2288 67.3959 53.4654 67.3959 52.484V49.7577C67.3959 48.7763 68.1593 48.013 69.1407 48.013H71.5398C72.5213 48.013 73.2846 47.2496 73.2846 46.2682V43.8145C73.3392 42.8876 72.5213 42.0698 71.5398 42.0698Z" stroke="#90ABF1" stroke-width="2" stroke-miterlimit="10"/>
</svg>
