<svg width="40" height="40" viewBox="0 0 40 40" fill="none" xmlns="http://www.w3.org/2000/svg">
<g clip-path="url(#clip0_718_1096)">
<path d="M39.9467 21.4147C39.8733 22.0427 39.8133 22.672 39.724 23.2973C39.3433 26.0822 38.3625 28.7513 36.8493 31.12C35.0157 34.0562 32.4372 36.4544 29.376 38.0707C28.4173 38.5605 27.4302 38.9929 26.42 39.3653C25.5507 39.7013 24.9373 39.232 24.9373 38.2813C24.9373 36.568 24.9533 34.8547 24.9573 33.1413C24.9573 32.1867 24.8547 31.2453 24.412 30.3813C24.1931 29.998 23.955 29.626 23.6987 29.2667C24.3987 29.1413 25.1173 29.0453 25.8213 28.8827C27.804 28.424 29.572 27.5853 30.8587 25.9347C31.792 24.7347 32.2827 23.3507 32.52 21.8747C32.7332 20.6587 32.7682 19.4181 32.624 18.192C32.4476 16.7663 31.856 15.424 30.9227 14.332C30.8315 14.2376 30.7703 14.1185 30.7466 13.9894C30.7229 13.8604 30.7377 13.7273 30.7893 13.6067C31.2707 12.0067 31.0907 10.4253 30.504 8.884C30.4627 8.77466 30.208 8.664 30.072 8.68533C29.4347 8.78666 28.764 8.83733 28.1813 9.08533C27.184 9.512 26.2493 10.084 25.276 10.5693C25.0782 10.6713 24.8526 10.7059 24.6333 10.668C21.5683 9.91045 18.365 9.91045 15.3 10.668C15.0929 10.7072 14.8785 10.6708 14.696 10.5653C13.5467 9.85066 12.384 9.16399 11.0547 8.832C10.6361 8.7466 10.2119 8.69135 9.78533 8.66666C9.58533 8.64799 9.46933 8.75066 9.39867 8.96C8.856 10.5467 8.696 12.1427 9.212 13.7707C9.22808 13.839 9.2295 13.91 9.21617 13.9789C9.20284 14.0479 9.17507 14.1132 9.13467 14.1707C7.44 16.128 7.05733 18.4373 7.31733 20.9133C7.45067 22.1453 7.69867 23.3427 8.22533 24.4733C9.092 26.34 10.5253 27.576 12.4093 28.34C13.5209 28.7712 14.6826 29.0602 15.8667 29.2C16 29.2173 16.1187 29.2453 16.212 29.2627C15.9453 29.7267 15.6627 30.1707 15.4267 30.636C15.2938 30.8887 15.2075 31.1633 15.172 31.4467C15.1293 31.86 14.9133 32.044 14.5387 32.1587C13.2933 32.54 12.068 32.652 10.8787 31.9813C10.2467 31.6128 9.72155 31.0862 9.35467 30.4533C8.91333 29.7347 8.38 29.1053 7.63467 28.688C7.072 28.372 6.476 28.1413 5.81467 28.2667C5.632 28.3027 5.39467 28.416 5.324 28.5613C5.276 28.6627 5.45733 28.8947 5.56667 29.0413C5.66796 29.1602 5.78936 29.2604 5.92533 29.3373C7.07733 30.044 7.74933 31.1213 8.248 32.3293C9.048 34.2507 10.5573 35.1387 12.5573 35.252C13.3413 35.296 14.1347 35.1787 14.9573 35.132C14.972 35.2068 14.9809 35.2825 14.984 35.3587C14.9973 36.3053 15.0107 37.2533 15.0173 38.2013C15.0173 39.252 14.3987 39.6813 13.4093 39.328C8.99778 37.7493 5.54 34.9804 3.036 31.0213C1.45374 28.5233 0.466995 25.6948 0.152 22.7547C0.102667 22.3107 0.0506667 21.8667 0 21.4147V19.2333C0.0293821 19.1351 0.0512234 19.0348 0.0653333 18.9333C0.181436 16.8304 0.66802 14.7644 1.50267 12.8307C4.60933 5.78933 9.97067 1.61733 17.6227 0.570662C22.1053 -0.0413375 26.352 0.895996 30.216 3.26C35.3827 6.41866 38.5213 11.0133 39.636 16.9667C39.776 17.7147 39.8453 18.4773 39.9467 19.2333V21.4147Z" fill="#90ABF1"/>
</g>
<defs>
<clipPath id="clip0_718_1096">
<rect width="40" height="40" fill="white"/>
</clipPath>
</defs>
</svg>
