<svg xmlns="http://www.w3.org/2000/svg" viewBox="0 0 300 300"><defs><style>.cls-1{fill:#623380;}.cls-2{fill:#466f41;}.cls-3{fill:#a2c64e;}.cls-4{fill:#9b5ea1;}.cls-5{fill:#fefdfd;}.cls-6{fill:#83b952;}.cls-7{fill:#69ab53;}.cls-8{fill:#51944f;}</style></defs><title>fp</title><g id="виноград"><path class="cls-1" d="M193.24,73.21C200,75.53,203.53,81,206.24,87c1.51,3.29,3.24,4.11,6.64,4.13,14.37.07,24.43,7.48,31.13,19.65,6.41,11.64,7.13,23.76-.71,34.86-3.39,4.81-3,6.34,1.6,9.55,11,7.72,14.93,27.46,6.39,37.43-2,2.33.42,2.71,1.57,3.55,7.67,5.63,12.34,13,12.76,22.62s-3.53,17.17-12.2,21.69c-2.43,1.27-3.25,2.5-3.2,5.26.21,12.83-6.18,22.87-17,27.35-10.5,4.34-21,1.68-30.05-8.11-2.06-2.23-3.27-1.1-5-.22-13.2,6.67-26.66,5.74-35.85-4.26-5.15-5.61-9.33-8.94-17.64-8.43-8.81.54-15.44-5.54-19.77-13.21-1.42-2.51-2.62-3.43-5.68-3-17.17,2.62-30.54-9.75-29.25-27.05.26-3.5.1-5.08-4.12-5.64-13.61-1.83-24.24-14-25.36-28.16-.15-1.82-.15-3.65-.22-5.48,2.54-5.27,6.69-9.5,9.56-14.54,1.55-2.72,3.15-4,6.39-2.58,3.49,1.56,6.25-.28,8.21-2.94a27.3,27.3,0,0,0,4-8.54c2.74-9.42,6-18.62,12.74-26.07a49.27,49.27,0,0,0,7.13-10.7c1.59-3.11,3.29-2.77,5.43-.83,1,.89,1.88,1.9,3,2.69a3.5,3.5,0,0,0,4.6.11c1.61-1.33.37-2.73-.27-4s-1.39-2.27-2-3.46c-.78-1.6-2.43-3.26-1.27-5,1.36-2.1,3.31-.51,5,0,10.59,3,21.43,2.55,32.21,2,3.19-.15,7.52-.08,8.57-4.83l0,0c1.15-5.05,4.81-5.49,9.17-5.35,6.53.2,12-2.1,15.33-8.11A7.74,7.74,0,0,1,193.24,73.21Zm50.36,85.4-1-1-1.07-.93c-1-.49-2-1-3.08-1.48-7.69-3.27-9.72-1.86-10,6.52-.12,3.24.89,6.62-1,9.73-1.78,2.88-.8,5.57,1.35,7.66s4.36,4.49,7.78,3.35c3-1,3.18-4,3.84-6.51a10.48,10.48,0,0,0,.07-1.49c.08-.79-.18-1.81.73-2.19,1.16-.48,1.79.57,2.46,1.25,2.67,2.71,3,6.09,2.87,9.69,0,1.59-1.12,4.1,1.67,4.42,2.56.3,2.57-2.29,3-3.85,2.84-9.39-.46-17.19-6.6-24.18Zm2.06,41c-8.2,1.69-8.78,2.59-7.42,10.58a24.14,24.14,0,0,1,.26,5.94c-.4,4.69,2.43,6.62,6.32,7.32,4.61.82,4.8-2.91,5.49-6,.21-.89-.26-2.19,1.07-2.45s2.18.85,2.79,1.75c3.15,4.7,2.34,9.37-.38,13.91-.78,1.31-2,2.67-.46,3.94,2,1.68,3-.64,3.91-1.67,6.19-6.88,6.53-17.42,1-26.22-1.1-1.41-2-3.1-3.35-4.18C252.24,200.53,249.83,197.18,245.66,199.65Zm-84.33-96.77-2.61-.23c-.2-.45-.31-1.23-.6-1.29a47.33,47.33,0,0,0-16.78-.35c-2.89.37-3.7,4.82-1.24,6.2,7.22,4.05,12.66,10,18.1,16,1.65,1.83,3.41,3.07,6.08,2.56a15,15,0,0,0,12.36-14.33c.07-1.56,0-3.13,0-5.14,3.19,1.81,3.47,4.72,4.88,6.87.46.69,1,1.49,1.9,1.31s.91-1.2,1-2c.72-5.71-6.22-17.39-11.45-19.35-1.81-.68-3.74-.68-4,1.44C168.53,99.47,165.89,102,161.33,102.88Zm-8.47,63.81c-19.24.18-32.55,12.67-32.34,30.34a28.52,28.52,0,0,0,28.71,28.32c16.52-.24,31.08-14,30.91-29.63C179.94,178,165.24,165.4,152.86,166.69Zm-4.21-15.44c3.63-5.57,8.14-9.4,6.53-15.8-.44-1.76-1.32-3.43-1.61-5.2-2.3-13.81-15.7-22.31-27.85-22.49-18-.25-32.51,14.67-33,33.12s18.43,29.75,31.29,28.68c1.36-.11,2.9-.11,3.14-1.76s-1.39-2.09-2.58-2.55a6.4,6.4,0,0,0-2.9-.52c-5.26.59-9.29-1.22-13.49-4.62-9.69-7.85-13.45-22.91-7.67-34.12.46-.89.83-2.1,2-1.77,1.62.45,1,1.92.69,2.91-2.41,6.66,0,12.41,3.43,17.88,3.83,6.07,12,9,19,8.13,10.18-1.3,16.85-7.55,23.12-15.35C150.6,142.12,148.65,146.1,148.65,151.25Zm65.89,15.3c4.07-4.39,6.67-7.94,6.6-12.64-.14-9-4.16-16.16-10.92-22-7.56-6.48-21.32-7-29.84-1.14-9.71,6.73-12.26,16.1-8.17,27.28,2.71,7.39,9,7.85,15.1,9.18a19.11,19.11,0,0,0,22.22-11.39,25.46,25.46,0,0,0,2.47-8.25C218.33,153.07,216.06,159.26,214.54,166.55Zm-13,81.08c-.08,9.2,2.53,14.61,7.68,18.62,9.82,7.65,22.38,7,30.73-1.83a23.87,23.87,0,0,0,1.61-31.07c-5.1-6.9-12.17-8.27-19.59-4.33a67.43,67.43,0,0,1-8.2,3.63C205.12,235.88,201.54,241,201.57,247.63Zm27.21-137.9a25.53,25.53,0,0,1,9.85,16.86c.64,6-1.72,11-4.45,16-.66,1.22-1.11,2.72.19,3.62s2.64.17,3.54-.94c3.06-3.76,5.76-7.69,6.46-12.7,1.63-11.61-2.57-21.25-10.25-29.5-6-6.45-13.69-9.16-22.59-8.35-2.09.19-3.06.93-2.93,3,.31,4.72-1.67,8.69-4,12.6-2.19,3.63-1.69,7,1.67,9.72a65.56,65.56,0,0,0,12.2,7.71c5.9,2.94,8.83,1.49,11.25-4.81C231.42,118.54,228.79,114.62,228.78,109.73Zm-4.64,104c11.5-7.77,3.48-27.13-4.7-30.53a5.31,5.31,0,0,0-3.86-.22c-6.31,2.05-12.57,4.3-19,6-5.82,1.5-7.93,9.06-8,14.66-.11,5.25,4.29,10.73,9,12,10.76,2.93,20.77-3.25,23.12-14.25.26-1.24.4-2.64,2.12-3.11C226.2,202.8,225,207.93,224.14,213.73ZM203.45,94.18c.77-7.13-3.47-11.55-8.17-15.66-2.36-2.07-4.44-1.64-4.67,1.73-.28,4.14-1.72,7.44-5.06,10-1.34,1-.72,2.32-.15,3.59a20.15,20.15,0,0,0,4.35,6c3.08,3.1,6.56,2.37,10.15,1.38C203.72,100.08,203.85,97.2,203.45,94.18Zm-21.2,171.28c5.25,0,11.41-2,14-4.24,1.83-1.53,1.49-3.2.77-4.87-1-2.27-2.13-.38-3.1.12-15.9,8.16-28.48,1.65-31.55-16.37-.14-.8,0-1.71-1-2.06s-1.87.29-2.63,1c-1.27,1.12-1.2,2.62-1.25,4.12C157.17,254.44,169.38,265.49,182.25,265.46Zm-1.61-17.84a9.73,9.73,0,0,0,6.36-1.83c2.6-1.67,4.34-3.86,2.81-7-2.21-4.61-9.47-8-14.44-7-4.41.87-7,6.21-4.7,10.07C172.82,245.37,175.85,247.83,180.64,247.62ZM64.83,174.26c.07,11.21,9.12,22.72,19.3,24.9,1.55.34,4,1.12,4.53-.42.77-2.06-1.13-3.57-3.13-4.31-10.35-3.79-14-12.45-16.15-22.17-.33-1.52.28-3.86-1.94-3.88s-1.71,2.48-2.32,3.9A6.15,6.15,0,0,0,64.83,174.26Zm48.83,58.36a12.92,12.92,0,0,0,2.49,0c1.61-.33,4.44.86,4.41-1.67,0-1.95-2.71-1.19-4.27-1.27a19.71,19.71,0,0,1-12.63-5.18c-6.45-5.89-5.67-13.34-4.57-20.86.23-1.57,1.4-3.73-.54-4.37-1.79-.59-2.49,1.75-3.25,3.15C88.18,215.51,98.53,232.54,113.66,232.62Zm-5.49-45c.83,0,1.66,0,2.49,0,1.66-.1,3.92-.19,4.1-2,.23-2.33-2.37-1.66-3.78-2.16-3.57-1.26-7.5-1.34-10.82-3.48-6-3.86-8.44-10-10.73-16.26-.38-1.05-.25-2.58-1.84-2.42-1.38.13-1.64,1.56-1.79,2.67a14.66,14.66,0,0,0,0,4C87.22,178.64,97.36,187.52,108.17,187.58Zm1.38,31.27c3.49-.28,6.63,0,5.86-3.85a29.73,29.73,0,0,0-4-10.62c-2.3-3.51-5.5-3.53-8.07-.22a8.19,8.19,0,0,0-.92,9.31C104.09,216.69,106.44,219.17,109.55,218.85Zm37.53,29.61a19.87,19.87,0,0,0,2.75,0c1.22-.13,3,.08,2.78-1.89-.17-1.66-1.65-1.79-3.06-1.8-9.11-.11-15.31-4.54-19-12.74-.56-1.24-.91-3.5-2.73-2.92-2,.65-1.09,2.87-.89,4.37C127.74,239.92,136.41,249.72,147.08,248.46Z"/><path class="cls-2" d="M193.24,73.21A7.74,7.74,0,0,0,188,77.33c-3.32,6-8.8,8.31-15.33,8.11-4.36-.14-8,.3-9.17,5.35-.27-.42-.53-.84-.81-1.26-1-1.45-3.49-2.3-2.68-4.37.89-2.27,3.45-1.69,5.32-1.59,5.42.3,10.39-1.48,15.3-3.25,1.71-.61,4.39-1.59,4.37-3.61,0-4.22,3.16-5,5.77-6.44,5-2.67,10-5.27,15.12-7.61,3-1.38,2.8-2.67.62-4.55-5.17-4.46-11.51-6.42-17.84-8.39-2.18-1.73-4.93-2.64-6.75-4.94-3.36-4.26-8-6.22-13.27-7-2.77-.41-5.54-.88-8.27-1.5-1.14-.26-3-.3-2.32-2.36,1.28-3.85-1.68-3.65-3.82-4-4.74-.7-9.15.74-13.57,2.27-3.55,1.23-7,3.15-11,2.46-4.29-6-5.27-6.13-11.62-1.57-3,2.17-4.93,5.31-7.31,8.06-1.38,1.6-2.4,5.14-5.4,3.71s-3.21,0-4,2.17c-2.48,7.26-1.85,14.74-1.82,22.17,0,2-.81,4.69,2.08,5.47s4-1.59,5.34-3.51c4.52-6.46,6.3-14.21,10-21.06.87-1.63,1-4.06,3.62-4.26-.1,1-.21,1.92-.31,2.88-2,3.84-4,7.7-4.82,12.06q-2.55,5.92-5.12,11.84c-.11.22-.23.42-.34.63l.64-.33c4.74-1.5,8.68-4.5,12.93-6.91a36,36,0,0,0,11.86-8.36c3.64-3.67,6.09-8.6,11.13-10.82-1.24,4.16-5.32,6.18-7.36,9.74-.65,1.13-2.06,2.3-1.36,3.53.87,1.52,2.36.26,3.54-.07a95.61,95.61,0,0,1,46.9-1.45A108.58,108.58,0,0,0,135,65.75c13.44,3.8,16.24,5,19.41,8.52-12.33-4.48-24.12-10.85-35.75,0,2.53,2.9,6.89,2.35,8.88,5.58-2.44.26-4.49-1-6.55-1.9-4.93-2.23-9.51-2-14.38,1.78,5.71,2.68,9.76,7.49,15.78,9.18,13.52,4.58,27.11,7.6,41.1,1.89-1,4.75-5.38,4.68-8.57,4.83-10.78.5-21.62,1-32.21-2-1.65-.46-3.6-2.05-5,0-1.16,1.79.49,3.45,1.27,5,.58,1.19,1.39,2.27,2,3.46s1.88,2.68.27,4a3.5,3.5,0,0,1-4.6-.11c-1.07-.79-2-1.8-3-2.69-2.14-1.94-3.84-2.28-5.43.83a49.27,49.27,0,0,1-7.13,10.7c-6.73,7.45-10,16.65-12.74,26.07a27.3,27.3,0,0,1-4,8.54c-2,2.66-4.72,4.5-8.21,2.94-3.24-1.45-4.84-.14-6.39,2.58-2.87,5-7,9.27-9.56,14.54-3.89,2.23-5.34,6.55-8.29,9.61-2.77,2.86-5.22,6-7.89,9-3,3.29-4,3.11-5.6-1.25A62.66,62.66,0,0,1,36,153c3.37-17.28,10.38-32.92,22.23-46.13,2.39-2.67,3.48-4.75,1-8A13.46,13.46,0,0,1,56.36,90c.18-3.5-1.56-4.11-4.54-4.1-9.07,0-15.08,6-15.2,15.38.08.47,0,1,.26,1.41,1.29,1.85.46,5.4,3.88,5.43,1.48,0,2.47-1.43,2.73-3.09.68-4.28-3.57-2.32-5-4,2.59-2.82,4.86-1.62,6.44.93,2,3.29.88,6-2.34,8-2.9,1.75-4.65.21-6.08-2.19C30.28,97.21,38.11,84,51.1,83.87c4.48,0,5.82-1.43,6.8-5.44a26.29,26.29,0,0,1,9.88-14.6c2-1.55,2.52-3.1,1.57-5.52-4.47-11.36,2-17.41,12-21.78,5.73-2.51,9.78.58,10,6.93.12,4.8-1.07,9.64.26,14.39.59,2.15,1.22,5.66,3.1,5.57,3.09-.14,2.55-3.72,2.69-6.06.29-4.68.77-9.3,2.83-13.56.86-1.77,1.52-4.48,4.62-2.2,1.63,1.19,2.26-.42,3-1.54,6.27-10.33,16-14.41,27.74-15.12-.14,2.88-4.35,3.24-3.89,6.58,3.8.43,6.92-1.74,10.22-2.95,5.69-2.09,11.4-2.6,17-.34,1.67.68,5.83.56,3.19,4.79-.84,1.36,1.14,1.27,1.86,1.29,9.27.32,16.95,3.95,23.53,10.47,2.73,2.7,6.7,3.59,10.29,4.88,4.52,1.63,8.82,3.69,12,7.39s2.64,5.69-1.92,7.77C202.65,67.14,197.14,68.79,193.24,73.21ZM74.5,110.82l1.22-1.06a5.85,5.85,0,0,0,2.74-3l.33-.77c1.65-.9,4.25-1.18,2.73-4.16,3-2.85,7.52-3.08,10.51-6,1.31-1.27,4.43-1.84,3.16-4.23a4.37,4.37,0,0,0-6.65-1.66c-4.69,1.14-9.17,2.56-13.29,5.35C64,102.92,55.61,113,49,124.79c-9.19,16.37-12.26,33.94-10.34,52.42.26,2.42,0,6.35,2.68,6.95,2.48.57,3.84-3,5.59-4.9,8.19-8.93,14.85-19.08,22.79-28.19,3.8-4.37,4.68-4.18,8.48.22,2.5-3.55,5.41-6.86,6.71-11,3.45-10.91,7.12-21.66,14.57-30.65,3-3.82,4.33-8.49,6.3-12.83.52-1.14,2-2.45,1-3.52-1.27-1.33-3.22-.7-4.62.21-5,3.24-10.51,5.73-14.83,10-1.88.52-3,1.9-4,3.44-4.38,6.57-5.79,14.09-7,21.68l-1.55-.2,0-1.45v-.14c1.14-1.19.71-2.66.73-4a16.81,16.81,0,0,0-.06-2.46c-.21-1.4.82-3.42-.62-4.08-1.85-.85-2.72,1.35-3.79,2.43-6.39,6.5-11.32,14.06-15.87,21.9l-.82-.9c2.66-6.92,7.75-12.42,11-19l9.12-9.92ZM86.67,39.65c-1.65-1.59-3.37-.91-5,0-3.52,1.84-6.85,4-9.22,7.26-2.2,4.17,0,8.06.93,12,.53,2.36.77,3.68-1.76,5.1C62,69.34,56.36,81.85,58.76,92.46c.7,3.13,1.92,6.22,5.35,7.82.92-2.18-.41-3.52-1-5-3.78-9.75.68-23,9.62-28.46,1.68-1,2.86-2,4,.92,2.52,6.34,7.43,10.91,12.67,15.1,4.72,4.4,10.36,5.7,16.63,5,3-.34,2.23-1.6.88-3.13-2.36-2.67-5.7-3.92-8.51-5.94-5.11-6.87-9-14.25-10.09-22.91,0-2.05.63-4.17-.65-6.08,0-1.64.05-3.28.07-4.91C88.69,43.2,89,41.55,87.5,40A2.26,2.26,0,0,0,86.67,39.65ZM71.3,86.53a23.13,23.13,0,0,0,2.4-.3c8.18-1.62,9-3.69,4.08-10.16-5.52-7.25-6.66-7.13-11.22,1.13-.32.57-.66,1.13-.92,1.72C62.79,85.47,63.47,86.49,71.3,86.53Zm-7.76,1.91c.45,2,.7,3.28,1,4.55,1,3.65,2.33,5.15,6,2.05a37.35,37.35,0,0,1,14-7.42c.91-.25,2.71-.41,1.8-2.16a1.94,1.94,0,0,0-3.27-.68C77.51,89.29,71,89.55,63.54,88.44Z"/><path class="cls-3" d="M38.52,101c1.4,1.65,5.65-.31,5,4-.26,1.66-1.25,3.1-2.73,3.09-3.42,0-2.59-3.58-3.88-5.43-.25-.36-.18-.94-.26-1.41Z"/><path class="cls-4" d="M152.86,166.69c12.38-1.29,27.08,11.29,27.28,29,.17,15.62-14.39,29.39-30.91,29.63A28.52,28.52,0,0,1,120.52,197C120.31,179.36,133.62,166.87,152.86,166.69Zm-23,38.33c2.79,3.82,3.62,8.62,8.11,10.94,9.45,4.88,18.45,4.24,27.17-1.65,8.17-5.51,11.19-17.07,6.55-25-.54-.94-.82-2.49-2.36-2-1.14.39-.68,1.7-.78,2.64a21.9,21.9,0,0,1-21.62,20C140.73,210.14,135,209.16,129.87,205ZM146,176.85c-5.56,0-13.75,9.35-12.88,14.93.31,2,1.29,3.87,3.43,4.54a4.31,4.31,0,0,0,5.2-1.95,19.12,19.12,0,0,1,7.65-6.8c2.17-1.16,4-3.25,3-6.14S149.34,176.72,146,176.85Z"/><path class="cls-4" d="M148.65,151.25c0-5.15,1.95-9.13.08-13.46-6.27,7.8-12.94,14.05-23.12,15.35-7,.9-15.18-2.06-19-8.13-3.45-5.47-5.84-11.22-3.43-17.88.35-1,.93-2.46-.69-2.91-1.16-.33-1.53.88-2,1.77-5.78,11.21-2,26.27,7.67,34.12,4.2,3.4,8.23,5.21,13.49,4.62a6.4,6.4,0,0,1,2.9.52c1.19.46,2.83.84,2.58,2.55s-1.78,1.65-3.14,1.76c-12.86,1.07-31.8-10.37-31.29-28.68s15-33.37,33-33.12c12.15.18,25.55,8.68,27.85,22.49.29,1.77,1.17,3.44,1.61,5.2C156.79,141.85,152.28,145.68,148.65,151.25Zm-25.74-33.43c-4.89,0-9,3.06-9,6.76.05,3.52,3.78,6.74,7.89,6.83,4.37.09,9.18-3.38,9.28-6.7C131.24,121,127.54,117.86,122.91,117.82Z"/><path class="cls-4" d="M214.54,166.55c1.52-7.29,3.79-13.48-2.54-18.92a25.46,25.46,0,0,1-2.47,8.25,19.11,19.11,0,0,1-22.22,11.39c-6.1-1.33-12.39-1.79-15.1-9.18-4.09-11.18-1.54-20.55,8.17-27.28,8.52-5.91,22.28-5.34,29.84,1.14,6.76,5.8,10.78,13,10.92,22C221.21,158.61,218.61,162.16,214.54,166.55ZM189.4,148.39c5.06,0,8.78-3,8.85-6.28A6.25,6.25,0,0,0,191.7,136c-4.08.12-8.09,3.59-7.76,7C184.31,146.82,186.85,148.34,189.4,148.39Z"/><path class="cls-4" d="M201.57,247.63c0-6.68,3.55-11.75,12.23-15A67.43,67.43,0,0,0,222,229c7.42-3.94,14.49-2.57,19.59,4.33A23.87,23.87,0,0,1,240,264.42c-8.35,8.82-20.91,9.48-30.73,1.83C204.1,262.24,201.49,256.83,201.57,247.63Zm6.2,6.3c.76,5.87,2.17,9.09,5.35,10.48,6.84,3,13.81,3.72,20.51-.48,7-4.36,7.72-11.07,6.76-18.39-.29-2.23-1.69-4.17-3.57-4.29-2.14-.13-1.47,2.6-1.92,4C230.54,258.6,218.73,262.68,207.77,253.93ZM222,233.82c-4.68.21-9.37,4.11-9,7,.3,2.66,1.89,4.1,4.77,3.83,3.52-.33,7.46-3.92,7.37-6.92C225,235.13,223.63,233.79,222,233.82Z"/><path class="cls-4" d="M228.78,109.73c0,4.89,2.64,8.81.92,13.27-2.42,6.3-5.35,7.75-11.25,4.81a65.56,65.56,0,0,1-12.2-7.71c-3.36-2.74-3.86-6.09-1.67-9.72,2.35-3.91,4.33-7.88,4-12.6-.13-2.11.84-2.85,2.93-3,8.9-.81,16.57,1.9,22.59,8.35,7.68,8.25,11.88,17.89,10.25,29.5-.7,5-3.4,8.94-6.46,12.7-.9,1.11-2.3,1.79-3.54.94s-.85-2.4-.19-3.62c2.73-5,5.09-10,4.45-16A25.53,25.53,0,0,0,228.78,109.73Zm-10.8.12c-.41-2.44-1.77-4.31-4.33-4.58-2.28-.23-3.72,1.32-3.91,3.57-.24,2.82,1.32,4.31,4.07,4.47C216.15,113.45,217.5,112.23,218,109.85Z"/><path class="cls-4" d="M224.14,213.73c.89-5.8,2.06-10.93-1.36-15.49-1.72.47-1.86,1.87-2.12,3.11-2.35,11-12.36,17.18-23.12,14.25-4.69-1.28-9.09-6.76-9-12,.11-5.6,2.22-13.16,8-14.66,6.41-1.65,12.67-3.9,19-6a5.31,5.31,0,0,1,3.86.22C227.62,186.6,235.64,206,224.14,213.73ZM205,188.94c-4.18.08-8.16,2.85-7.85,5.59.37,3.24,2.34,5,5.75,4.8,3.72-.19,7.33-3.33,7-6.37S207.83,188.59,205,188.94Z"/><path class="cls-4" d="M161.33,102.88c4.56-.92,7.2-3.41,7.71-8.28.21-2.12,2.14-2.12,4-1.44,5.23,2,12.17,13.64,11.45,19.35-.1.8.05,1.81-1,2s-1.44-.62-1.9-1.31c-1.41-2.15-1.69-5.06-4.88-6.87,0,2,.06,3.58,0,5.14a15,15,0,0,1-12.36,14.33c-2.67.51-4.43-.73-6.08-2.56-5.44-6-10.88-12-18.1-16-2.46-1.38-1.65-5.83,1.24-6.2a47.33,47.33,0,0,1,16.78.35c.29.06.4.84.6,1.29-2.27.29-4.55.5-6.8.9-1.77.32-3.29,1.28-2.69,3.34a5.89,5.89,0,0,0,5.14,4.09c2.94.36,6,.08,8.1-2.48C164.19,106.37,162.76,104.55,161.33,102.88Z"/><path class="cls-4" d="M244.59,159.61c6.14,7,9.44,14.79,6.6,24.18-.47,1.56-.48,4.15-3,3.85-2.79-.32-1.72-2.83-1.67-4.42.12-3.6-.2-7-2.87-9.69-.67-.68-1.3-1.73-2.46-1.25-.91.38-.65,1.4-.73,2.19a10.48,10.48,0,0,1-.07,1.49c-.66,2.54-.86,5.51-3.84,6.51-3.42,1.14-5.68-1.33-7.78-3.35s-3.13-4.78-1.35-7.66c1.92-3.11.91-6.49,1-9.73.31-8.38,2.34-9.79,10-6.52,1,.45,2.05,1,3.08,1.48l-.39.46c-2.5-.08-5.9-2-7.2.78-1.61,3.39,2.43,4.48,4.46,6.06s4.46,5,7,3.16-1.33-4.54-1.33-7.07Z"/><path class="cls-4" d="M258.23,206.8c5.54,8.8,5.2,19.34-1,26.22-.94,1-1.88,3.35-3.91,1.67-1.54-1.27-.32-2.63.46-3.94,2.72-4.54,3.53-9.21.38-13.91-.61-.9-1.46-2-2.79-1.75s-.86,1.56-1.07,2.45c-.69,3-.88,6.77-5.49,6-3.89-.7-6.72-2.63-6.32-7.32a24.14,24.14,0,0,0-.26-5.94c-1.36-8-.78-8.89,7.42-10.58-1.43,6.27,4,7.43,7.49,10C256.92,212.4,258.34,211,258.23,206.8Z"/><path class="cls-4" d="M203.45,94.18c.4,3,.27,5.9-3.55,7-3.59,1-7.07,1.72-10.15-1.38a20.15,20.15,0,0,1-4.35-6c-.57-1.27-1.19-2.58.15-3.59,3.34-2.51,4.78-5.81,5.06-10,.23-3.37,2.31-3.8,4.67-1.73C200,82.63,204.22,87.05,203.45,94.18Z"/><path class="cls-4" d="M182.25,265.46c-12.87,0-25.08-11-24.73-22.34,0-1.5,0-3,1.25-4.12.76-.67,1.52-1.35,2.63-1s.86,1.26,1,2.06c3.07,18,15.65,24.53,31.55,16.37,1-.5,2.13-2.39,3.1-.12.72,1.67,1.06,3.34-.77,4.87C193.66,263.41,187.5,265.45,182.25,265.46Z"/><path class="cls-4" d="M180.64,247.62c-4.79.21-7.82-2.25-10-5.85-2.31-3.86.29-9.2,4.7-10.07,5-1,12.23,2.43,14.44,7,1.53,3.19-.21,5.38-2.81,7A9.73,9.73,0,0,1,180.64,247.62Z"/><path class="cls-4" d="M64.83,174.26a6.15,6.15,0,0,1,.29-2c.61-1.42.22-3.93,2.32-3.9s1.61,2.36,1.94,3.88c2.15,9.72,5.8,18.38,16.15,22.17,2,.74,3.9,2.25,3.13,4.31-.58,1.54-3,.76-4.53.42C74,197,64.9,185.47,64.83,174.26Z"/><path class="cls-4" d="M113.66,232.62c-15.13-.08-25.48-17.11-18.36-30.23.76-1.4,1.46-3.74,3.25-3.15,1.94.64.77,2.8.54,4.37-1.1,7.52-1.88,15,4.57,20.86a19.71,19.71,0,0,0,12.63,5.18c1.56.08,4.24-.68,4.27,1.27,0,2.53-2.8,1.34-4.41,1.67A12.92,12.92,0,0,1,113.66,232.62Z"/><path class="cls-4" d="M108.17,187.58c-10.81-.06-21-8.94-22.39-19.67a14.66,14.66,0,0,1,0-4c.15-1.11.41-2.54,1.79-2.67,1.59-.16,1.46,1.37,1.84,2.42,2.29,6.26,4.73,12.4,10.73,16.26,3.32,2.14,7.25,2.22,10.82,3.48,1.41.5,4-.17,3.78,2.16-.18,1.79-2.44,1.88-4.1,2C109.83,187.62,109,187.58,108.17,187.58Z"/><path class="cls-4" d="M109.55,218.85c-3.11.32-5.46-2.16-7.14-5.38a8.19,8.19,0,0,1,.92-9.31c2.57-3.31,5.77-3.29,8.07.22a29.73,29.73,0,0,1,4,10.62C116.18,218.83,113,218.57,109.55,218.85Z"/><path class="cls-4" d="M147.08,248.46c-10.67,1.26-19.34-8.54-20.18-15-.2-1.5-1.15-3.72.89-4.37,1.82-.58,2.17,1.68,2.73,2.92,3.72,8.2,9.92,12.63,19,12.74,1.41,0,2.89.14,3.06,1.8.22,2-1.56,1.76-2.78,1.89A19.87,19.87,0,0,1,147.08,248.46Z"/><path class="cls-5" d="M258.23,206.8c.11,4.18-1.31,5.6-5.08,2.84-3.52-2.56-8.92-3.72-7.49-10,4.17-2.47,6.58.88,9.22,3C256.24,203.7,257.13,205.39,258.23,206.8Z"/><path class="cls-5" d="M161.33,102.88c1.43,1.67,2.86,3.49,1.14,5.62-2.06,2.56-5.16,2.84-8.1,2.48a5.89,5.89,0,0,1-5.14-4.09c-.6-2.06.92-3,2.69-3.34,2.25-.4,4.53-.61,6.8-.9Z"/><path class="cls-4" d="M241.52,156.69l1.07.93-.46.46-1-.93Z"/><path class="cls-4" d="M242.59,157.62l1,1-.47.46-1-1Z"/><path class="cls-4" d="M243.6,158.61l1,1-.52.47-.94-1Z"/><path class="cls-3" d="M188.63,49.72c6.33,2,12.67,3.93,17.84,8.39,2.18,1.88,2.41,3.17-.62,4.55-5.13,2.34-10.15,4.94-15.12,7.61-2.61,1.4-5.8,2.22-5.77,6.44,0,2-2.66,3-4.37,3.61-4.91,1.77-9.88,3.55-15.3,3.25-1.87-.1-4.43-.68-5.32,1.59-.81,2.07,1.72,2.92,2.68,4.37.28.42.54.84.81,1.26l0,0c-14,5.71-27.58,2.69-41.1-1.89,3.47-2.28,5.36-7.5,10.93-5.89a2.16,2.16,0,0,0,2.11,1.92l.54.35-.35-.54a2.09,2.09,0,0,0-2-2.07c-.93-1.72-3.21-1.34-4.34-2.77l-1.82-.1,0,0c-2-3.23-6.35-2.68-8.88-5.58,11.63-10.81,23.42-4.44,35.75,0-3.17-3.53-6-4.72-19.41-8.52a108.58,108.58,0,0,1,53.26-7.15,95.61,95.61,0,0,0-46.9,1.45c-1.18.33-2.67,1.59-3.54.07-.7-1.23.71-2.4,1.36-3.53,2-3.56,6.12-5.58,7.36-9.74l0,0a.92.92,0,0,0,1-1l0,0a.92.92,0,0,0,1-1l-.05,0a1.75,1.75,0,0,0,2.06-1l0,0,.7-.85c3.62,0,7.38-.69,10.83.08,2.7.61,8.38-1.21,6.89,5.36-.22,1,.81,1.4,1.66,1.32,4.77-.43,9,1.83,13.43,2.78C186.55,53.13,188.24,52.53,188.63,49.72ZM156.2,74l-.34.36a4.85,4.85,0,0,0,.87.33c.09,0,.23-.21.34-.33Z"/><path class="cls-6" d="M74.83,127c0,.48,0,1,0,1.45a53.2,53.2,0,0,0-1,5.67c-.11,1.41.72,1.63,1.76.67,2.57,0,3.1-2.14,4-3.85a191.89,191.89,0,0,0,9.07-22.14c2.06-1,2.49-3.37,4.11-4.77,1.26-1.1,1.55-3.73,3.92-3s2.78,3,2.94,5.2c.09,1.14,0,2.29,0,3.43-7.45,9-11.12,19.74-14.57,30.65-1.3,4.11-4.21,7.42-6.71,11-3.8-4.4-4.68-4.59-8.48-.22-7.94,9.11-14.6,19.26-22.79,28.19-1.75,1.91-3.11,5.47-5.59,4.9-2.65-.6-2.42-4.53-2.68-6.95-1.92-18.48,1.15-36.05,10.34-52.42C55.61,113,64,102.92,75.25,95.28c4.12-2.79,8.6-4.21,13.29-5.35,3.6,4,.07,5.32-2.67,6.55-2.53,1.15-5.64,1.4-5.39,5.27-2.41,1.09-5.34,1.16-7.75,4l5.82-1.1.24,1.35-.33.77c-3.31.65-6.73,1.07-9,4.07l0,0-1,1,0,0-1,1,0,0c-3.9.36-6.89,1.91-8,6l0,0a1.89,1.89,0,0,0-2,1l0-.05a2.18,2.18,0,0,0-1,2.06l0,0a2.24,2.24,0,0,0-2.07,1l.07-.07c-.12.1-.36.2-.35.27a3.61,3.61,0,0,0,.26.69C42.52,138.21,40.6,161.27,43.7,174.81c5.88-13.59,13-25.68,20.59-37.47C67,133.13,69.2,128.27,74.83,127Z"/><path class="cls-7" d="M188.63,49.72c-.39,2.81-2.08,3.41-4.62,2.86-4.47-.95-8.66-3.21-13.43-2.78-.85.08-1.88-.33-1.66-1.32,1.49-6.57-4.19-4.75-6.89-5.36-3.45-.77-7.21-.12-10.83-.08a2.48,2.48,0,0,1-.61,0c-2-2-4.12-1.33-6.33-.41-4.5,1.89-8.75,4.47-13.73,5-3.43.36-6.93,0-10.28,1.11.1-1,.21-1.92.31-2.88l0,0a2.24,2.24,0,0,0,1-2,3,3,0,0,0,1.89-2.61c.31-3.85,2.94-5.49,6.19-6.56,4,.69,7.44-1.23,11-2.46,4.42-1.53,8.83-3,13.57-2.27,2.14.31,5.1.11,3.82,4-.69,2.06,1.18,2.1,2.32,2.36,2.73.62,5.5,1.09,8.27,1.5,5.26.79,9.91,2.75,13.27,7C183.7,47.08,186.45,48,188.63,49.72Z"/><path class="cls-3" d="M74.83,127c-5.63,1.3-7.82,6.16-10.54,10.37-7.61,11.79-14.71,23.88-20.59,37.47-3.1-13.54-1.18-36.6,10.76-51.12a3.86,3.86,0,0,0,.09-1l-.07.07a2.18,2.18,0,0,0,2.07-1l0,0a2,2,0,0,0,1-2.06l0,.05h2c1.46,1.66,2.6,0,3.77-.47,1.53-.55,2.09-.08,2.16,1.4-3.29,6.54-8.38,12-11,19-3.8,4.67-5.35,10.25-6.16,16.14q3.48-7.62,7-15.24c4.55-7.84,9.48-15.4,15.87-21.9,1.07-1.08,1.94-3.28,3.79-2.43,1.44.66.41,2.68.62,4.08a16.81,16.81,0,0,1,.06,2.46c-1.36,1.15-1,2.6-.73,4Z"/><path class="cls-8" d="M129.64,34.68c-3.25,1.07-5.88,2.71-6.19,6.56a3,3,0,0,1-1.89,2.61,2,2,0,0,0-1,2l0,0c-2.63.2-2.75,2.63-3.62,4.26-3.68,6.85-5.46,14.6-10,21.06-1.34,1.92-2.46,4.3-5.34,3.51s-2.07-3.45-2.08-5.47c0-7.43-.66-14.91,1.82-22.17.74-2.17.94-3.61,4-2.17s4-2.11,5.4-3.71c2.38-2.75,4.28-5.89,7.31-8.06C124.37,28.55,125.35,28.68,129.64,34.68Z"/><path class="cls-6" d="M87.78,44.89c0,1.63,0,3.27-.07,4.91-.1,2.06-.72,4.17.65,6.08,1,8.66,5,16,10.09,22.91a21.45,21.45,0,0,1-9,4.06c-5.24-4.19-10.15-8.76-12.67-15.1-1.17-3-2.35-2-4-.92-8.94,5.46-13.4,18.71-9.62,28.46.57,1.47,1.9,2.81,1,5-3.43-1.6-4.65-4.69-5.35-7.82C56.36,81.85,62,69.34,71.61,63.91c2.53-1.42,2.29-2.74,1.76-5.1-.88-3.89-3.13-7.78-.93-12,.17.47.3,1.32.51,1.34,4.81.38,5,3.91,5.77,7.57,1.37,6.44,3.73,12.59,8,17.79.75.93,1.27,2.86,2.94,1.83,1.52-.93,1.12-2.73.48-4A80.57,80.57,0,0,0,86.06,64c-4.86-7.82-4.66-17.24.61-24.38a2.26,2.26,0,0,1,.83.35C87.59,41.63,87.69,43.26,87.78,44.89Z"/><path class="cls-6" d="M120.25,48.74c3.35-1.07,6.85-.75,10.28-1.11,5-.52,9.23-3.1,13.73-5,2.21-.92,4.34-1.59,6.33.41a4,4,0,0,0-.09.84l0,0a2,2,0,0,0-2.06,1l.05,0-1,1,0,0-1,1,0,0c-5,2.22-7.49,7.15-11.13,10.82A36,36,0,0,1,123.54,66c-1.76-3.19-5-4.13-8.11-5.23C116.2,56.44,118.2,52.58,120.25,48.74Z"/><path class="cls-3" d="M86.67,39.65C81.4,46.79,81.2,56.21,86.06,64a80.57,80.57,0,0,1,4.07,7.32c.64,1.31,1,3.11-.48,4-1.67,1-2.19-.9-2.94-1.83-4.26-5.2-6.62-11.35-8-17.79-.77-3.66-1-7.19-5.77-7.57-.21,0-.34-.87-.51-1.34,2.37-3.3,5.7-5.42,9.22-7.26C83.3,38.74,85,38.06,86.67,39.65Z"/><path class="cls-5" d="M71.3,86.53c-7.83,0-8.51-1.06-5.66-7.61.26-.59.6-1.15.92-1.72,4.56-8.26,5.7-8.38,11.22-1.13,4.93,6.47,4.1,8.54-4.08,10.16A23.13,23.13,0,0,1,71.3,86.53Z"/><path class="cls-6" d="M129.31,79.87c1.13,1.43,3.41,1,4.34,2.78l-.34.33c-5.57-1.61-7.46,3.61-10.93,5.89-6-1.69-10.07-6.5-15.78-9.18,4.87-3.77,9.45-4,14.38-1.78,2.06.94,4.11,2.16,6.55,1.9l0,0C128,81,128.64,81.06,129.31,79.87Z"/><path class="cls-3" d="M88.52,108.77a191.89,191.89,0,0,1-9.07,22.14c-.85,1.71-1.38,3.85-4,3.85l.84-6.14c1.2-7.59,2.61-15.11,7-21.68,1-1.54,2.13-2.92,4-3.44C89.25,104.92,88.25,107,88.52,108.77Z"/><path class="cls-7" d="M88.52,108.77c-.27-1.78.73-3.85-1.18-5.27,4.32-4.24,9.83-6.73,14.83-10,1.4-.91,3.35-1.54,4.62-.21,1,1.07-.49,2.38-1,3.52-2,4.34-3.28,9-6.3,12.83,0-1.14.1-2.29,0-3.43-.16-2.19-.62-4.44-2.94-5.2s-2.66,1.86-3.92,3C91,105.4,90.58,107.78,88.52,108.77Z"/><path class="cls-5" d="M63.54,88.44c7.42,1.11,14,.85,19.61-3.66a1.94,1.94,0,0,1,3.27.68c.91,1.75-.89,1.91-1.8,2.16a37.35,37.35,0,0,0-14,7.42c-3.71,3.1-5.05,1.6-6-2.05C64.24,91.72,64,90.43,63.54,88.44Z"/><path class="cls-8" d="M89.45,82.85a21.45,21.45,0,0,0,9-4.06c2.81,2,6.15,3.27,8.51,5.94,1.35,1.53,2.17,2.79-.88,3.13C99.81,88.55,94.17,87.25,89.45,82.85Z"/><path class="cls-7" d="M115.43,60.8c3.12,1.1,6.35,2,8.11,5.23-4.25,2.41-8.19,5.41-12.93,6.91l-.3-.3Q112.88,66.72,115.43,60.8Z"/><path class="cls-7" d="M80.48,101.75c-.25-3.87,2.86-4.12,5.39-5.27,2.74-1.23,6.27-2.57,2.67-6.55a4.37,4.37,0,0,1,6.65,1.66c1.27,2.39-1.85,3-3.16,4.23-3,2.89-7.5,3.12-10.51,6h0Z"/><path class="cls-6" d="M65.45,120.71c-.07-1.48-.63-1.95-2.16-1.4-1.17.43-2.31,2.13-3.77.47a8.29,8.29,0,0,0,0-1l0,0a18.69,18.69,0,0,0,8-6l0,0,1-1,0,0,1-1,0,0h5.08Z"/><path class="cls-8" d="M55.23,140.57q-3.49,7.62-7,15.24c.81-5.89,2.36-11.47,6.16-16.14Z"/><path class="cls-8" d="M74.57,110.79H69.49c2.24-3,5.66-3.42,9-4.07a5.85,5.85,0,0,1-2.74,3l-1.22,1.06Z"/><path class="cls-7" d="M76.34,128.62l-.84,6.14c-1,1-1.87.74-1.76-.67a53.2,53.2,0,0,1,1-5.67Z"/><path class="cls-8" d="M78.79,106c-.08-.45-.16-.9-.25-1.35l3-2.8h0C83,104.77,80.44,105.05,78.79,106Z"/><path class="cls-8" d="M88.36,55.88c-1.37-1.91-.75-4-.65-6.08C89,51.71,88.35,53.83,88.36,55.88Z"/><path class="cls-8" d="M87.78,44.89c-.09-1.63-.19-3.26-.28-4.89C89,41.55,88.69,43.2,87.78,44.89Z"/><path class="cls-7" d="M74.84,126.83c-.29-1.45-.63-2.9.73-4C75.55,124.17,76,125.64,74.84,126.83Z"/><path class="cls-7" d="M110.61,72.94l-.64.33c.11-.21.23-.41.34-.63Z"/><path class="cls-6" d="M74.5,110.82l1.22-1.06Z"/><path class="cls-1" d="M129.87,205c5.15,4.14,10.86,5.12,17.07,4.93a21.9,21.9,0,0,0,21.62-20c.1-.94-.36-2.25.78-2.64,1.54-.53,1.82,1,2.36,2,4.64,8,1.62,19.52-6.55,25-8.72,5.89-17.72,6.53-27.17,1.65C133.49,213.64,132.66,208.84,129.87,205Z"/><path class="cls-5" d="M146,176.85c3.31-.13,5.33,1.72,6.37,4.58s-.8,5-3,6.14a19.12,19.12,0,0,0-7.65,6.8,4.31,4.31,0,0,1-5.2,1.95c-2.14-.67-3.12-2.55-3.43-4.54C132.28,186.2,140.47,176.82,146,176.85Z"/><path class="cls-5" d="M122.91,117.82c4.63,0,8.33,3.14,8.22,6.89-.1,3.32-4.91,6.79-9.28,6.7-4.11-.09-7.84-3.31-7.89-6.83C113.9,120.88,118,117.77,122.91,117.82Z"/><path class="cls-5" d="M189.4,148.39c-2.55,0-5.09-1.57-5.46-5.39-.33-3.37,3.68-6.84,7.76-7a6.25,6.25,0,0,1,6.55,6.07C198.18,145.34,194.46,148.34,189.4,148.39Z"/><path class="cls-1" d="M207.77,253.93c11,8.75,22.77,4.67,27.13-8.69.45-1.39-.22-4.12,1.92-4,1.88.12,3.28,2.06,3.57,4.29,1,7.32.2,14-6.76,18.39-6.7,4.2-13.67,3.46-20.51.48C209.94,263,208.53,259.8,207.77,253.93Z"/><path class="cls-5" d="M222,233.82c1.62,0,3,1.31,3.1,3.89.09,3-3.85,6.59-7.37,6.92-2.88.27-4.47-1.17-4.77-3.83C212.64,237.93,217.33,234,222,233.82Z"/><path class="cls-5" d="M218,109.85c-.48,2.38-1.83,3.6-4.17,3.46-2.75-.16-4.31-1.65-4.07-4.47.19-2.25,1.63-3.8,3.91-3.57C216.21,105.54,217.57,107.41,218,109.85Z"/><path class="cls-5" d="M205,188.94c2.83-.35,4.6,1.08,4.91,4s-3.29,6.18-7,6.37c-3.41.17-5.38-1.56-5.75-4.8C196.84,191.79,200.82,189,205,188.94Z"/><path class="cls-5" d="M243.13,159.07l.94,1c0,2.53,3.81,5.24,1.33,7.07s-4.94-1.54-7-3.16-6.07-2.67-4.46-6.06c1.3-2.73,4.7-.86,7.2-.78l1,.93Z"/><path class="cls-6" d="M135.42,84.9A2.16,2.16,0,0,1,133.31,83l.34-.33a2.07,2.07,0,0,1,2,2.06Z"/><path class="cls-2" d="M148.48,44.88a2,2,0,0,1,2.06-1A1.75,1.75,0,0,1,148.48,44.88Z"/><path class="cls-2" d="M156.21,74l.86.35c-.11.12-.25.35-.34.33a4.85,4.85,0,0,1-.87-.33C156,74.19,156.09,74.07,156.21,74Z"/><path class="cls-2" d="M129.31,79.87c-.67,1.19-1.28,1.1-1.82-.1Z"/><path class="cls-6" d="M135.61,84.71l.35.54-.54-.35Z"/><path class="cls-2" d="M146.49,46.88l1-1A.92.92,0,0,1,146.49,46.88Z"/><path class="cls-2" d="M147.49,45.89l1-1A.92.92,0,0,1,147.49,45.89Z"/><path class="cls-2" d="M150.5,43.89a4,4,0,0,1,.09-.84,2.48,2.48,0,0,0,.61,0Z"/><path class="cls-8" d="M67.52,112.76a18.69,18.69,0,0,1-8,6C60.63,114.67,63.62,113.12,67.52,112.76Z"/><path class="cls-2" d="M81.5,101.8l-3,2.8-5.81,1.1c2.41-2.79,5.34-2.86,7.75-4Z"/><path class="cls-8" d="M59.49,118.78a8.29,8.29,0,0,1,0,1h-2A1.89,1.89,0,0,1,59.49,118.78Z"/><path class="cls-8" d="M57.54,119.74a2,2,0,0,1-1,2.06A2.18,2.18,0,0,1,57.54,119.74Z"/><path class="cls-8" d="M56.55,121.75a2.18,2.18,0,0,1-2.07,1A2.24,2.24,0,0,1,56.55,121.75Z"/><path class="cls-8" d="M69.53,110.75l-1,1Z"/><path class="cls-8" d="M68.53,111.76l-1,1Z"/><path class="cls-8" d="M54.55,122.73a3.86,3.86,0,0,1-.09,1,3.61,3.61,0,0,1-.26-.69C54.19,122.93,54.43,122.83,54.55,122.73Z"/><path class="cls-2" d="M120.51,45.89a2,2,0,0,1,1-2A2.24,2.24,0,0,1,120.51,45.89Z"/></g></svg>