<svg id="Слой_1" data-name="Слой 1" xmlns="http://www.w3.org/2000/svg" viewBox="0 0 600 600"><defs><style>.cls-1,.cls-4,.cls-6{fill:none;}.cls-1,.cls-2,.cls-3,.cls-4{stroke:#d9d9d9;stroke-width:6px;}.cls-1,.cls-3,.cls-4{stroke-miterlimit:10;}.cls-2,.cls-3,.cls-5{fill:#d9d9d9;}.cls-2{stroke-linejoin:round;}.cls-4{stroke-linecap:round;}</style></defs><title>image-error</title><path class="cls-1" d="M406.38,247.87v-110a10.08,10.08,0,0,0-10.08-10.08H197.91a10.08,10.08,0,0,0-10.09,10.07h0v146.9a10.08,10.08,0,0,0,10.08,10.08H359.41S361.23,251.46,406.38,247.87Z"/><circle class="cls-2" cx="359.41" cy="166.61" r="18.97"/><path class="cls-2" d="M345,294.84l-69-88.46a10.09,10.09,0,0,0-14.15-1.76,10.93,10.93,0,0,0-1.61,1.58l-69.72,85.38,7.42,3.26Z"/><path class="cls-3" d="M380,256l-38.32-42.16a10.07,10.07,0,0,0-14.24-.64,9.2,9.2,0,0,0-.76.77l-71.13,80.92H359.41A46.92,46.92,0,0,1,380,256Z"/><circle class="cls-1" cx="406.38" cy="294.84" r="46.97"/><line class="cls-4" x1="429.31" y1="271.92" x2="382.92" y2="318.31"/><line class="cls-4" x1="429.31" y1="318.31" x2="382.63" y2="271.36"/><path class="cls-5" d="M61.39,386.27h2.38V395H74.23v-8.74h2.38v19.62H74.23v-8.77H63.77v8.77H61.39Z"/><path class="cls-5" d="M80.38,398.65C80.38,394.13,83,391,87,391c3.06,0,6.32,1.88,6.32,7.36v1H82.65c.1,3.15,1.93,4.87,4.59,4.87a3.61,3.61,0,0,0,3.68-2.3l2.18.61c-.69,2.23-2.87,3.72-5.86,3.72C83,406.2,80.38,403.17,80.38,398.65ZM91,397.35c0-2.5-1.57-4.34-4-4.34a4.4,4.4,0,0,0-4.36,4.34Z"/><path class="cls-5" d="M104.19,411.14l.58-2c1.65.42,2.66.21,3.48-2l.43-1.15-5.45-14.8h2.46l4.06,11.73h.15l4.1-11.75h2.45L110.17,408c-.85,2.29-2.29,3.37-4.33,3.37A4.4,4.4,0,0,1,104.19,411.14Z"/><path class="cls-5" d="M116.62,403.79h1.23c1.18-1.25,1.71-2.67,2.07-6.79l.49-5.83h9.36v12.62H132v6.32h-2.26v-4.22H118.88v4.22h-2.26Zm10.88,0V393.28h-5l-.38,3.72c-.32,3.08-.69,5.42-1.73,6.79Z"/><path class="cls-5" d="M134.34,401.72c0-3.38,3-4,5.71-4.34s3.79-.24,3.79-1.34v0c0-1.89-1-3-3.1-3a4,4,0,0,0-3.84,2.22l-2.14-.77c1.15-2.68,3.68-3.45,5.9-3.45,1.88,0,5.44.54,5.44,5.22v9.69h-2.26v-2h-.11a4.63,4.63,0,0,1-4.37,2.34C136.56,406.24,134.34,404.59,134.34,401.72Zm9.5-1.15V398.5c-.38.46-3,.72-3.91.84-1.76.23-3.33.77-3.33,2.49s1.3,2.38,3.1,2.38C142.39,404.21,143.84,402.41,143.84,400.57Z"/><path class="cls-5" d="M149,403.79h.53c1.77,0,2.27-1.15,2.46-6.1l.27-6.52H162v14.72h-2.26V393.28h-5.41l-.23,5.25c-.21,4.83-1.15,7.36-4.41,7.36H149Z"/><path class="cls-5" d="M165.48,398.61c0-4.6,2.68-7.63,6.67-7.63s6.67,3,6.67,7.63-2.69,7.59-6.67,7.59S165.48,403.17,165.48,398.61Zm11.07,0c0-2.95-1.38-5.6-4.4-5.6s-4.41,2.65-4.41,5.6,1.38,5.56,4.41,5.56,4.4-2.61,4.4-5.56Z"/><path class="cls-5" d="M181.58,398.61c0-4.48,2.65-7.63,6.63-7.63,3.11,0,5.45,1.84,5.83,4.6h-2.26a3.46,3.46,0,0,0-3.53-2.57c-2.64,0-4.41,2.19-4.41,5.52s1.73,5.64,4.41,5.64a3.43,3.43,0,0,0,3.53-2.57H194c-.38,2.61-2.53,4.6-5.79,4.6C184.11,406.2,181.58,403,181.58,398.61Z"/><path class="cls-5" d="M203.52,396.5c3.45,0,5.32,2,5.32,4.64s-1.87,4.75-5.32,4.75h-6.17V391.17h2.26v5.33Zm-3.91,7.29h3.91c1.79,0,3.06-1.05,3.06-2.53a2.75,2.75,0,0,0-2.85-2.66h-4.12Z"/><path class="cls-5" d="M221.39,402.14c.11,1.33,1.29,2,3.07,2s3.29-.7,3.29-2.38c0-1.46-1.15-2.45-2.95-2.45h-2.53v-2h2.53c1.8,0,2.65-.92,2.65-2.15s-1-2.18-2.69-2.18-3,.85-3.06,2.07h-2.38c.08-2.38,2.26-4.07,5.33-4.07s5.1,1.78,5.1,4.1a3.16,3.16,0,0,1-2.46,3.11v.15a3.18,3.18,0,0,1,2.76,3.45c0,2.69-2.34,4.41-5.55,4.41s-5.45-1.65-5.52-4.06Z"/><path class="cls-5" d="M232.55,401.72c0-3.38,3-4,5.71-4.34s3.8-.24,3.8-1.34v0c0-1.89-1-3-3.11-3a4,4,0,0,0-3.83,2.22l-2.15-.77c1.15-2.68,3.68-3.45,5.91-3.45,1.87,0,5.44.54,5.44,5.22v9.69h-2.26v-2h-.12a4.63,4.63,0,0,1-4.37,2.34C234.77,406.24,232.55,404.59,232.55,401.72Zm9.51-1.15V398.5c-.39.46-2.95.72-3.91.84-1.77.23-3.34.77-3.34,2.49s1.31,2.38,3.11,2.38C240.6,404.21,242.06,402.41,242.06,400.57Z"/><path class="cls-5" d="M257.55,393.28h-6.82v12.61h-2.26V391.17h9.08Z"/><path class="cls-5" d="M260.85,391.17H263v2.34h.27a4.47,4.47,0,0,1,4.25-2.53c3.72,0,6.29,2.95,6.29,7.59s-2.57,7.63-6.25,7.63a4.52,4.52,0,0,1-4.29-2.57h-.19v7.78h-2.27Zm6.44,13c2.84,0,4.3-2.49,4.3-5.64s-1.42-5.52-4.3-5.52-4.21,2.23-4.21,5.52S264.57,404.17,267.29,404.17Z"/><path class="cls-5" d="M276.58,411.14l.57-2c1.65.42,2.67.21,3.49-2l.42-1.15-5.44-14.8h2.45l4.07,11.73h.15l4.06-11.73h2.45L282.56,408c-.86,2.29-2.29,3.37-4.33,3.37A4.4,4.4,0,0,1,276.58,411.14Z"/><path class="cls-5" d="M293.3,402.14c.1,1.33,1.29,2,3.06,2s3.3-.7,3.3-2.38c0-1.46-1.15-2.45-3-2.45h-2.53v-2h2.53c1.8,0,2.64-.92,2.64-2.15s-1-2.18-2.68-2.18-3,.85-3.07,2.07h-2.37c.07-2.38,2.26-4.07,5.33-4.07s5.09,1.78,5.09,4.1a3.16,3.16,0,0,1-2.45,3.11v.15a3.18,3.18,0,0,1,2.76,3.45c0,2.69-2.34,4.41-5.56,4.41s-5.44-1.65-5.52-4.06Z"/><path class="cls-5" d="M314.5,391.17h2.61v14.72h-2.26V394.51l-7.06,11.38h-2.64V391.17h2.26v11.39Z"/><path class="cls-5" d="M319.26,391.17h12v2.11h-4.83v12.61h-2.26V393.28H319.3Z"/><path class="cls-5" d="M340.7,396.5c3.45,0,5.32,2,5.32,4.64s-1.87,4.75-5.32,4.75h-6.17V391.17h2.26v5.33Zm-3.91,7.29h3.91c1.79,0,3.06-1.05,3.06-2.53a2.75,2.75,0,0,0-2.85-2.66h-4.12Z"/><path class="cls-5" d="M366.43,391.17H369v14.72h-2.26V394.51l-7,11.38H357.1V391.17h2.26v11.39Z"/><path class="cls-5" d="M374.68,402.14c.1,1.33,1.29,2,3.06,2s3.3-.7,3.3-2.38c0-1.46-1.15-2.45-3-2.45h-2.53v-2H378c1.8,0,2.64-.92,2.64-2.15s-1-2.18-2.68-2.18-3,.85-3.07,2.07h-2.37c.07-2.38,2.26-4.07,5.33-4.07s5.09,1.78,5.09,4.1a3.16,3.16,0,0,1-2.45,3.11v.15a3.18,3.18,0,0,1,2.76,3.45c0,2.69-2.34,4.41-5.56,4.41s-5.44-1.65-5.52-4.06Z"/><path class="cls-5" d="M385.84,398.61c0-4.6,2.68-7.63,6.67-7.63s6.67,3,6.67,7.63-2.69,7.59-6.67,7.59S385.84,403.17,385.84,398.61Zm11.08,0c0-2.95-1.38-5.6-4.41-5.6s-4.41,2.65-4.41,5.6,1.38,5.56,4.41,5.56,4.41-2.61,4.41-5.56Z"/><path class="cls-5" d="M414.71,387c-1.34,1.3-3.3,1.22-6,1.34-3.06.11-4.48,2.14-4.79,5.94h.19a5.35,5.35,0,0,1,4.91-2.69c3.44,0,6.09,2.46,6.09,7.1s-2.61,7.47-6.55,7.47-6.59-2.84-6.59-8.28v-1.57c0-6.56,2.22-10,6.7-10.08h1.61c1.51,0,2.58,0,3.3-.59Zm-1.88,11.69c0-3.22-1.64-5.06-4.33-5.06s-4.25,1.84-4.29,5.06,1.64,5.44,4.33,5.44,4.29-2.13,4.29-5.4Z"/><path class="cls-5" d="M418.55,391.17h2.19v2.34H421a4.51,4.51,0,0,1,4.26-2.53c3.72,0,6.28,2.95,6.28,7.59s-2.56,7.63-6.24,7.63a4.55,4.55,0,0,1-4.3-2.57h-.19v7.78h-2.26Zm6.44,13c2.84,0,4.29-2.49,4.29-5.64S427.87,393,425,393s-4.22,2.23-4.22,5.52,1.49,5.65,4.22,5.65Z"/><path class="cls-5" d="M434.31,401.72c0-3.38,3-4,5.71-4.34s3.8-.24,3.8-1.34v0c0-1.89-1-3-3.11-3a4,4,0,0,0-3.83,2.22l-2.14-.77c1.14-2.68,3.68-3.45,5.9-3.45,1.88,0,5.44.54,5.44,5.22v9.69h-2.26v-2h-.12a4.63,4.63,0,0,1-4.37,2.34C436.54,406.24,434.31,404.59,434.31,401.72Zm9.51-1.15V398.5c-.38.46-2.95.72-3.91.84-1.76.23-3.33.77-3.33,2.49s1.3,2.38,3.1,2.38C442.36,404.21,443.82,402.41,443.82,400.57Z"/><path class="cls-5" d="M455.29,398.42l-5.91-7.25h2.69l4.9,6.29h1.23v-6.29h2.26v6.29h1.19l4.91-6.29h2.68l-5.86,7.25,5.94,7.47h-2.73l-5-6.32h-1.15v6.32H458.2v-6.32h-1.15l-5,6.32h-2.72Z"/><path class="cls-5" d="M471.25,398.65c0-4.52,2.64-7.67,6.63-7.67,3.06,0,6.32,1.88,6.32,7.36v1H473.52c.1,3.15,1.93,4.87,4.59,4.87a3.61,3.61,0,0,0,3.68-2.3l2.18.61c-.69,2.23-2.87,3.72-5.86,3.72C473.85,406.2,471.25,403.17,471.25,398.65Zm10.65-1.3c0-2.5-1.57-4.34-4-4.34a4.4,4.4,0,0,0-4.36,4.34Z"/><path class="cls-5" d="M489.92,397.5H497v-6.33h2.26v14.72H497v-6.28H490v6.28h-2.26V391.17H490Z"/><path class="cls-5" d="M512.74,391.17h2.6v14.72h-2.26V394.51L506,405.89h-2.65V391.17h2.26v11.39Z"/><path class="cls-5" d="M518.8,398.65c0-4.52,2.64-7.67,6.63-7.67,3.07,0,6.33,1.88,6.33,7.36v1H521.07c.11,3.15,1.94,4.87,4.59,4.87a3.61,3.61,0,0,0,3.68-2.3l2.19.61c-.69,2.23-2.88,3.72-5.87,3.72C521.41,406.2,518.8,403.17,518.8,398.65Zm10.66-1.3c0-2.5-1.58-4.34-4-4.34a4.4,4.4,0,0,0-4.36,4.34Z"/><path class="cls-5" d="M535.14,404.32a1.73,1.73,0,1,1,1.73,1.73h0a1.72,1.72,0,0,1-1.72-1.72Z"/><path class="cls-5" d="M170.12,431.27h11.76v2.11h-9.39V440H181v2.11h-8.51v8.77h-2.37Z"/><path class="cls-5" d="M185,446.72c0-3.38,3-4,5.71-4.34s3.8-.24,3.8-1.34v0c0-1.89-1-3-3.11-3a4,4,0,0,0-3.83,2.22l-2.15-.77c1.15-2.68,3.68-3.45,5.9-3.45,1.88,0,5.45.54,5.45,5.22v9.69h-2.26v-2h-.12a4.63,4.63,0,0,1-4.37,2.34C187.18,451.24,185,449.59,185,446.72Zm9.51-1.15V443.5c-.39.46-3,.72-3.91.84-1.77.23-3.34.77-3.34,2.49s1.3,2.38,3.11,2.38a3.77,3.77,0,0,0,4.1-3.64Z"/><path class="cls-5" d="M200.41,432.19a1.61,1.61,0,1,1,1.69,1.53H202A1.58,1.58,0,0,1,200.41,432.19Zm.46,4h2.27v14.72h-2.27Z"/><path class="cls-5" d="M209.54,450.89h-2.26V431.27h2.26Z"/><path class="cls-5" d="M213,443.65c0-4.52,2.65-7.67,6.63-7.67,3.07,0,6.33,1.88,6.33,7.36v1h-10.7c.11,3.15,1.94,4.87,4.59,4.87a3.6,3.6,0,0,0,3.68-2.3l2.19.61c-.69,2.23-2.88,3.72-5.87,3.72C215.6,451.2,213,448.17,213,443.65Zm10.66-1.3c0-2.5-1.57-4.34-4-4.34a4.41,4.41,0,0,0-4.36,4.34Z"/><path class="cls-5" d="M228.72,443.57c0-4.64,2.57-7.59,6.28-7.59a4.51,4.51,0,0,1,4.26,2.53h.19v-7.24h2.26v19.62h-2.18v-2.26h-.27a4.55,4.55,0,0,1-4.3,2.57C231.29,451.2,228.72,448.25,228.72,443.57Zm10.77,0c0-3.29-1.46-5.52-4.22-5.52s-4.29,2.42-4.29,5.52,1.45,5.64,4.29,5.64,4.22-2.34,4.22-5.68Z"/><path class="cls-5" d="M260.16,438.09H257v8.59c0,1.91,1,2.22,2,2.22a4.79,4.79,0,0,0,1-.11l.46,2a4.86,4.86,0,0,1-1.69.26,3.76,3.76,0,0,1-4-3.51,2.62,2.62,0,0,1,0-.28v-9.2h-2.23v-1.92h2.23v-3.52H257v3.52h3.14Z"/><path class="cls-5" d="M262.73,443.61c0-4.6,2.69-7.63,6.67-7.63s6.67,3,6.67,7.63-2.68,7.59-6.67,7.59S262.73,448.17,262.73,443.61Zm11.08,0c0-2.95-1.38-5.6-4.41-5.6s-4.4,2.65-4.4,5.6,1.38,5.56,4.4,5.56S273.81,446.56,273.81,443.61Z"/><path class="cls-5" d="M289.39,450.89h-2.27V431.27h2.27Z"/><path class="cls-5" d="M292.84,443.61c0-4.6,2.68-7.63,6.67-7.63s6.67,3,6.67,7.63-2.69,7.59-6.67,7.59S292.84,448.17,292.84,443.61Zm11.08,0c0-2.95-1.38-5.6-4.41-5.6s-4.41,2.65-4.41,5.6,1.38,5.56,4.41,5.56,4.41-2.61,4.41-5.56Z"/><path class="cls-5" d="M309,446.72c0-3.38,3-4,5.71-4.34s3.79-.24,3.79-1.34v0c0-1.89-1-3-3.1-3a4,4,0,0,0-3.84,2.22l-2.14-.77c1.15-2.68,3.68-3.45,5.9-3.45,1.88,0,5.44.54,5.44,5.22v9.69H318.5v-2h-.11a4.63,4.63,0,0,1-4.37,2.34C311.17,451.24,309,449.59,309,446.72Zm9.5-1.15V443.5c-.38.46-2.95.72-3.91.84-1.76.23-3.33.77-3.33,2.49s1.3,2.38,3.1,2.38a3.76,3.76,0,0,0,4.09-3.64Z"/><path class="cls-5" d="M324.17,443.57c0-4.64,2.57-7.59,6.29-7.59a4.48,4.48,0,0,1,4.25,2.53h.19v-7.24h2.27v19.62H335v-2.26h-.27a4.54,4.54,0,0,1-4.29,2.57C326.74,451.2,324.17,448.25,324.17,443.57Zm10.77,0c0-3.29-1.45-5.52-4.21-5.52s-4.3,2.42-4.3,5.52,1.46,5.64,4.3,5.64,4.21-2.34,4.21-5.68Z"/><path class="cls-5" d="M348.75,432.19a1.61,1.61,0,1,1,1.69,1.53h-.08A1.58,1.58,0,0,1,348.75,432.19Zm.46,4h2.26v14.72h-2.26Z"/><path class="cls-5" d="M355.62,436.17h2.18v2.3h.2a4.38,4.38,0,0,1,7.9,0h.1a4.66,4.66,0,0,1,4.41-2.49c2.63,0,4.49,1.6,4.49,5.06v9.85h-2.27V441a2.76,2.76,0,0,0-2.5-3,2.09,2.09,0,0,0-.5,0,3.08,3.08,0,0,0-3.25,2.9,2.67,2.67,0,0,0,0,.4v9.58h-2.3V440.81a2.74,2.74,0,0,0-2.65-2.81h-.27a3.5,3.5,0,0,0-3.33,3.66v9.22h-2.26Z"/><path class="cls-5" d="M378.4,446.72c0-3.38,3-4,5.71-4.34s3.79-.24,3.79-1.34v0c0-1.89-1-3-3.1-3a4,4,0,0,0-3.8,2.2l-2.15-.77c1.15-2.68,3.68-3.45,5.9-3.45,1.88,0,5.45.54,5.45,5.22v9.69h-2.3v-2h-.11a4.63,4.63,0,0,1-4.37,2.34C380.62,451.24,378.4,449.59,378.4,446.72Zm9.5-1.15V443.5c-.38.46-2.95.72-3.91.84-1.76.23-3.33.77-3.33,2.49s1.3,2.38,3.1,2.38C386.45,449.21,387.9,447.41,387.9,445.57Z"/><path class="cls-5" d="M394.24,453.77l1.8-1.27a4.59,4.59,0,0,0,4.21,2.23c2.38,0,4.11-1.11,4.11-3.57v-3h-.2a4.44,4.44,0,0,1-4.29,2.49c-3.56,0-6.25-2.6-6.25-7.2s2.57-7.48,6.29-7.48a4.56,4.56,0,0,1,4.29,2.53h.23v-2.34h2.19v15.15c0,3.79-2.84,5.4-6.37,5.4C397,456.72,395.16,455.31,394.24,453.77Zm10.15-10.35c0-3.18-1.45-5.41-4.21-5.41s-4.3,2.42-4.3,5.41,1.46,5.21,4.3,5.21,4.21-1.95,4.21-5.21Z"/><path class="cls-5" d="M410.08,443.65c0-4.52,2.64-7.67,6.63-7.67,3.06,0,6.32,1.88,6.32,7.36v1H412.35c.1,3.15,1.93,4.87,4.59,4.87a3.61,3.61,0,0,0,3.68-2.3l2.18.61c-.69,2.23-2.87,3.72-5.86,3.72C412.68,451.2,410.08,448.17,410.08,443.65Zm10.65-1.3c0-2.5-1.57-4.34-4-4.34a4.4,4.4,0,0,0-4.36,4.34Z"/><path class="cls-5" d="M426.41,449.32a1.73,1.73,0,1,1,1.73,1.73,1.72,1.72,0,0,1-1.73-1.73Z"/><rect class="cls-6" width="600" height="600"/></svg>