<svg width="18" height="17" viewBox="0 0 18 17" fill="none" xmlns="http://www.w3.org/2000/svg">
<g clip-path="url(#clip0_17_7)">
<path d="M14.5322 0H2.49772C1.83528 0 1.19998 0.26269 0.731564 0.73028C0.263151 1.19787 0 1.83206 0 2.49333L0 14.5067C0 15.1679 0.263151 15.8021 0.731564 16.2697C1.19998 16.7373 1.83528 17 2.49772 17H14.5322C15.1946 17 15.8299 16.7373 16.2983 16.2697C16.7667 15.8021 17.0299 15.1679 17.0299 14.5067V2.49333C17.0299 1.83206 16.7667 1.19787 16.2983 0.73028C15.8299 0.26269 15.1946 0 14.5322 0V0ZM8.51494 12.8922C7.64471 12.8922 6.79402 12.6346 6.07046 12.152C5.34689 11.6694 4.78293 10.9834 4.44991 10.1808C4.11689 9.37826 4.02976 8.49513 4.19953 7.64312C4.3693 6.79111 4.78836 6.00849 5.4037 5.39422C6.01905 4.77996 6.80304 4.36164 7.65655 4.19216C8.51006 4.02269 9.39474 4.10967 10.1987 4.44211C11.0027 4.77454 11.6899 5.33751 12.1734 6.05981C12.6568 6.78211 12.9149 7.6313 12.9149 8.5C12.9149 9.66489 12.4513 10.7821 11.6262 11.6058C10.801 12.4295 9.68188 12.8922 8.51494 12.8922V12.8922ZM13.6239 4.68633C13.369 4.68633 13.1199 4.61089 12.908 4.46955C12.6961 4.3282 12.5309 4.12731 12.4334 3.89226C12.3359 3.65721 12.3103 3.39857 12.3601 3.14905C12.4098 2.89952 12.5325 2.67032 12.7127 2.49043C12.8929 2.31053 13.1225 2.18802 13.3725 2.13838C13.6225 2.08875 13.8816 2.11422 14.117 2.21158C14.3525 2.30894 14.5537 2.47382 14.6953 2.68535C14.8369 2.89689 14.9125 3.14559 14.9125 3.4C14.9125 3.74116 14.7767 4.06834 14.5351 4.30958C14.2934 4.55081 13.9657 4.68633 13.6239 4.68633V4.68633Z" fill="#E8E8E8"/>
<path d="M8.51504 12.2411C10.5848 12.2411 12.2628 10.5661 12.2628 8.49992C12.2628 6.43375 10.5848 4.75879 8.51504 4.75879C6.44524 4.75879 4.76733 6.43375 4.76733 8.49992C4.76733 10.5661 6.44524 12.2411 8.51504 12.2411Z" fill="#E8E8E8"/>
<path d="M13.6238 4.10767C14.0154 4.10767 14.3328 3.79079 14.3328 3.39991C14.3328 3.00902 14.0154 2.69214 13.6238 2.69214C13.2322 2.69214 12.9148 3.00902 12.9148 3.39991C12.9148 3.79079 13.2322 4.10767 13.6238 4.10767Z" fill="#E8E8E8"/>
</g>
<defs>
<clipPath id="clip0_17_7">
<rect width="17.0299" height="17" fill="white"/>
</clipPath>
</defs>
</svg>
