<svg width="67" height="64" viewBox="0 0 67 64" fill="none" xmlns="http://www.w3.org/2000/svg">
<path d="M1.48419 0.799072H64.9431C65.3254 0.799072 65.6177 1.09141 65.6177 1.47369V14.8761C65.6177 15.2584 65.3254 15.5507 64.9431 15.5507H1.48419C1.1019 15.5507 0.80957 15.2584 0.80957 14.8761V1.47369C0.80957 1.11389 1.12439 0.799072 1.48419 0.799072Z" stroke="#90ABF1" stroke-miterlimit="10"/>
<path d="M8.32035 5.8811H40.9043C41.1517 5.8811 41.3541 6.08349 41.3541 6.33085V10.2661C41.3541 10.5135 41.1517 10.7159 40.9043 10.7159H8.32035C8.07299 10.7159 7.87061 10.5135 7.87061 10.2661V6.33085C7.87061 6.08349 8.0505 5.8811 8.32035 5.8811Z" stroke="#90ABF1" stroke-miterlimit="10"/>
<path d="M44.4798 5.8811H48.415C48.6624 5.8811 48.8648 6.08349 48.8648 6.33085V10.2661C48.8648 10.5135 48.6624 10.7159 48.415 10.7159H44.4798C44.2324 10.7159 44.03 10.5135 44.03 10.2661V6.33085C44.03 6.08349 44.2324 5.8811 44.4798 5.8811Z" stroke="#90ABF1" stroke-miterlimit="10"/>
<path d="M55.5209 9.99621C56.8746 9.99621 57.972 8.89881 57.972 7.5451C57.972 6.19139 56.8746 5.09399 55.5209 5.09399C54.1672 5.09399 53.0698 6.19139 53.0698 7.5451C53.0698 8.89881 54.1672 9.99621 55.5209 9.99621Z" stroke="#90ABF1" stroke-miterlimit="10"/>
<path d="M59.0738 11.2779L57.3198 9.52393" stroke="#90ABF1" stroke-miterlimit="10"/>
<path d="M1.3941 48.4495H22.8694C23.2517 48.4495 23.544 48.7418 23.544 49.1241V62.5265C23.544 62.9087 23.2517 63.2011 22.8694 63.2011H1.3941C1.01182 63.2011 0.719482 62.9087 0.719482 62.5265V49.1241C0.719482 48.7418 1.01182 48.4495 1.3941 48.4495Z" stroke="#90ABF1" stroke-miterlimit="10"/>
<path d="M6.07157 53.3965H10.0068C10.2542 53.3965 10.4566 53.5989 10.4566 53.8462V57.7815C10.4566 58.0289 10.2542 58.2312 10.0068 58.2312H6.07157C5.82421 58.2312 5.62183 58.0289 5.62183 57.7815V53.8462C5.62183 53.5989 5.82421 53.3965 6.07157 53.3965Z" stroke="#90ABF1" stroke-miterlimit="10"/>
<path d="M13.9422 53.4417H17.8774C18.1248 53.4417 18.3272 53.644 18.3272 53.8914V57.8267C18.3272 58.074 18.1248 58.2764 17.8774 58.2764H13.9422C13.6948 58.2764 13.4924 58.074 13.4924 57.8267V53.8914C13.4924 53.644 13.6948 53.4417 13.9422 53.4417Z" stroke="#90ABF1" stroke-miterlimit="10"/>
<path d="M26.8948 48.4495H64.8533C65.2355 48.4495 65.5279 48.7418 65.5279 49.1241V62.5265C65.5279 62.9087 65.2355 63.2011 64.8533 63.2011H26.8948C26.5125 63.2011 26.2202 62.9087 26.2202 62.5265V49.1241C26.2202 48.7418 26.5125 48.4495 26.8948 48.4495Z" stroke="#90ABF1" stroke-miterlimit="10"/>
<path d="M31.2122 53.3516H60.603" stroke="#90ABF1" stroke-miterlimit="10"/>
<path d="M31.2122 58.2314H60.603" stroke="#90ABF1" stroke-miterlimit="10"/>
<path d="M1.3941 19.261H39.2401C39.6224 19.261 39.9147 19.5533 39.9147 19.9356V43.907C39.9147 44.2893 39.6224 44.5816 39.2401 44.5816H1.3941C1.01182 44.5816 0.719482 44.2893 0.719482 43.907V19.9356C0.719482 19.5533 1.01182 19.261 1.3941 19.261Z" stroke="#90ABF1" stroke-miterlimit="10"/>
<path d="M0.719482 41.1186L11.7832 30.0549C12.2554 29.5826 13.0425 29.5826 13.5147 30.0549L28.0415 44.5816" stroke="#90ABF1" stroke-miterlimit="10"/>
<path d="M23.1843 39.7243L29.6382 33.2704C30.1104 32.7982 30.8974 32.7982 31.3697 33.2704L39.9148 41.8156" stroke="#90ABF1" stroke-miterlimit="10"/>
<path d="M21.7453 28.3682C23.1983 28.3682 24.3763 27.1903 24.3763 25.7372C24.3763 24.2841 23.1983 23.1062 21.7453 23.1062C20.2922 23.1062 19.1143 24.2841 19.1143 25.7372C19.1143 27.1903 20.2922 28.3682 21.7453 28.3682Z" stroke="#90ABF1" stroke-miterlimit="10"/>
<path d="M44.2549 19.261H64.8757C65.258 19.261 65.5503 19.5533 65.5503 19.9356V43.907C65.5503 44.2893 65.258 44.5816 64.8757 44.5816H44.2549C43.8727 44.5816 43.5803 44.2893 43.5803 43.907V19.9356C43.5803 19.5533 43.8951 19.261 44.2549 19.261Z" stroke="#90ABF1" stroke-miterlimit="10"/>
<path d="M60.6031 23.781H48.595" stroke="#90ABF1" stroke-miterlimit="10"/>
<path d="M60.6031 29.043H48.595" stroke="#90ABF1" stroke-miterlimit="10"/>
<path d="M60.558 34.5298H48.5273" stroke="#90ABF1" stroke-miterlimit="10"/>
<path d="M56.6904 40.0391H48.595" stroke="#90ABF1" stroke-miterlimit="10"/>
</svg>
