<svg width="588" height="150" viewBox="0 0 588 150" fill="none" xmlns="http://www.w3.org/2000/svg">
<path d="M26.661 79.0976C27.715 78.7704 28.8349 78.3777 29.8888 77.9195C30.9428 77.4614 32.0627 77.0032 33.0508 76.4796C35.093 75.4324 37.0692 74.1888 38.7161 72.6835C40.2971 71.2436 41.5487 69.4764 41.8781 67.7092C41.9439 67.5129 41.9439 67.2511 42.0098 67.0547C42.0757 66.8584 42.0757 66.5966 42.0098 66.4002V66.073L41.9439 65.6148L41.8781 64.7639C41.7463 63.6513 41.6146 62.4732 41.3511 61.426C40.8241 59.2661 39.9018 57.3026 38.6502 56.5172C38.0573 56.1245 37.2668 55.9281 36.4105 55.9936C35.5541 56.059 34.566 56.3208 33.7096 56.779H33.6437L33.7755 56.7135C33.8413 56.6481 33.8413 56.5826 33.7096 56.779L33.512 56.9753C33.3143 57.1717 33.1826 57.3026 32.985 57.4335C32.7215 57.7607 32.5238 58.0225 32.3921 58.3498C32.1286 58.9388 32.1945 59.6588 32.5238 60.5097C32.8532 61.3605 33.4461 62.2114 34.1048 63.0622C34.8295 63.9131 35.62 64.6985 36.4763 65.4839C39.9677 68.5601 44.1178 71.1781 48.3338 73.5998L49.9148 74.5161C50.1783 74.647 50.4418 74.7779 50.7053 74.9088L51.4299 75.236L51.8252 75.4324L52.2204 75.5633L53.0109 75.8906C53.5379 76.0869 54.1308 76.2833 54.6578 76.4142C56.8975 77.1341 59.269 77.5923 61.6405 77.985C66.4494 78.8358 71.3241 79.294 76.1989 79.5558C78.6362 79.6867 81.0736 79.7521 83.4451 79.6867C83.7086 79.6867 84.038 79.6867 84.3015 79.6212L85.0261 79.5558C85.5531 79.4249 86.146 79.294 86.673 79.1631C87.7929 78.8358 88.8469 78.5086 89.835 77.985C91.8771 77.0687 93.7875 75.7597 95.2367 74.1888C96.0272 73.4034 96.6201 72.4871 97.1471 71.5708C97.6741 70.6545 98.0693 69.6727 98.267 68.6255C98.7281 66.5966 98.3328 64.5676 97.2788 62.8659C96.159 61.1642 94.4462 59.8552 92.4041 58.9388C90.362 58.0225 88.1222 57.4335 85.7507 57.1062C85.1579 57.0408 84.565 56.9753 83.9721 56.9099L82.1935 56.779C81.1395 56.7135 80.0196 56.8444 78.8997 56.9753C74.3544 57.7607 70.1384 59.9206 66.647 63.0622C63.1557 66.1384 60.3889 70.0655 58.2809 74.3197C56.1729 78.574 54.6578 83.1556 53.5379 87.868C52.4181 92.5805 51.5617 97.3584 51.2323 102.136C51.1664 103.314 51.1006 104.558 51.1664 105.736C51.1664 106.325 51.1664 106.914 51.1664 107.503L51.2982 109.27C51.2982 109.598 51.3641 109.859 51.3641 110.187L51.4958 111.038L51.7593 112.805L52.1546 114.506L52.3522 115.357L52.6157 116.208L53.1427 117.91L53.8014 119.546L54.1308 120.332L54.526 121.117L55.3165 122.688C56.5682 124.651 57.9515 126.549 59.5984 128.251L60.85 129.495L62.2334 130.673C62.6945 131.065 63.1557 131.458 63.6168 131.851L65.0002 133.029C66.8446 134.534 68.8868 135.974 70.863 137.283C74.9473 139.901 79.295 142.061 83.8404 143.632C88.3857 145.137 93.1946 146.119 98.0035 146.381C107.621 146.905 117.305 144.417 125.803 139.77C130.019 137.414 133.971 134.6 137.594 131.327C139.439 129.756 141.02 127.989 142.403 126.091C143.721 124.193 144.709 122.033 144.906 119.873C145.17 117.714 144.577 115.488 143.259 113.786C142.008 112.019 140.032 110.71 137.924 110.252C136.87 109.99 135.816 109.99 134.893 110.318C133.971 110.579 133.247 111.234 132.785 112.019C132.324 112.87 132.127 113.917 132.193 115.03C132.193 116.143 132.39 117.255 132.72 118.368C133.839 122.95 136.672 126.877 140.295 129.953C142.074 131.524 144.116 132.767 146.224 133.945C148.332 135.123 150.572 136.105 152.811 136.956C157.357 138.658 162.166 139.836 166.974 140.687C171.783 141.538 176.724 142.061 181.599 142.192C184.036 142.258 186.473 142.258 188.911 142.127C190.162 142.061 191.348 141.93 192.534 141.799C193.72 141.603 194.905 141.407 196.157 141.145C200.9 140.163 205.577 138.592 209.925 136.367C218.62 131.982 226.13 125.371 231.532 117.255L232.52 115.75L233.442 114.179C233.772 113.656 234.035 113.132 234.364 112.608L235.155 110.972C235.682 109.925 236.209 108.812 236.736 107.634L238.317 104.296L244.575 90.8788L250.833 77.4614C252.875 73.0107 255.049 68.5601 256.96 64.044C259.002 59.5279 261.241 55.0773 263.942 50.8884C266.643 46.6996 269.937 42.838 274.021 39.7618C278.039 36.6856 282.782 34.5912 287.657 33.4131C290.095 32.824 292.598 32.4313 295.101 32.1695C297.604 31.9732 300.108 31.8423 302.611 31.9077C303.862 31.9077 305.114 31.9732 306.366 32.1041C307.617 32.1695 308.869 32.3004 310.121 32.4968C312.624 32.8895 315.061 33.4785 317.498 34.1985C319.87 34.9839 322.241 35.9657 324.481 37.2747C325.601 37.9292 326.655 38.7146 327.643 39.5C328.631 40.3509 329.554 41.2672 330.344 42.3144C331.135 43.3616 331.793 44.4742 332.32 45.7178C332.452 46.0451 332.584 46.3069 332.65 46.6341C332.781 46.9614 332.847 47.2232 332.979 47.5504L333.243 48.4667C333.308 48.794 333.374 49.1212 333.374 49.5139C333.506 50.8884 333.243 52.3938 332.452 53.6373C331.662 54.8809 330.542 55.7972 329.356 56.3863C326.919 57.6298 324.152 57.8916 321.583 57.6298C318.948 57.368 316.379 56.5172 314.073 54.9463C312.953 54.1609 311.899 53.1792 311.109 52.0011C310.252 50.823 309.659 49.5139 309.33 48.1395C308.605 45.3251 308.869 42.4453 309.528 39.7618C310.186 37.0783 311.306 34.6567 312.624 32.3659C313.283 31.1878 314.007 30.1406 314.732 29.0933C315.127 28.5697 315.522 28.0461 315.918 27.5225C316.313 26.9989 316.774 26.5408 317.235 26.0172C320.792 21.9592 325.403 18.7521 330.476 16.985L332.386 16.3959C333.045 16.1996 333.638 16.0032 334.297 15.8723C335.614 15.6105 336.932 15.2833 338.183 15.2178L340.159 15.0215C340.818 14.956 341.477 14.956 342.136 14.956C342.794 14.956 343.453 14.8906 344.112 14.8906L346.022 14.956C351.161 15.2178 356.167 16.1996 361.042 17.4431C363.479 18.0976 365.851 18.7521 368.288 19.5376C370.659 20.2575 373.031 21.1084 375.337 21.8938C380.014 23.53 384.625 25.3627 389.302 27.1298C393.913 28.897 398.59 30.4678 403.333 31.9732C408.011 33.4785 412.754 34.9839 417.431 36.2275C418.616 36.5547 419.802 36.8165 420.988 37.0783C422.174 37.3401 423.359 37.6019 424.545 37.7983L431.857 39.0418C436.732 39.8273 441.607 40.6127 446.481 41.2017C451.356 41.7908 456.297 42.1835 461.237 42.5107C471.053 43.0998 480.934 43.2307 490.683 42.3798C495.558 41.9217 500.433 41.2672 505.11 40.2854C509.853 39.2382 514.464 37.8637 518.812 35.9002C523.16 33.9367 527.112 31.3841 530.274 28.0461C533.436 24.7736 535.676 20.7811 536.796 16.3959C537.125 15.0215 538.575 14.1706 540.024 14.4979C541.407 14.8251 542.263 16.265 541.934 17.7049V17.7704V17.8358C540.419 22.941 537.521 27.7189 533.7 31.4496C529.879 35.1803 525.334 37.8637 520.591 39.8927C515.848 41.9217 510.907 43.2307 505.966 44.147C501.026 45.0633 496.019 45.5869 491.013 45.9142C481 46.5032 470.987 46.176 461.106 45.3251C456.165 44.9324 451.224 44.3433 446.284 43.7543C441.343 43.0998 436.403 42.5107 431.528 41.7253C429.09 41.3326 426.653 40.9399 424.216 40.4818C422.964 40.2854 421.713 40.0236 420.527 39.6964C419.341 39.3691 418.089 39.1073 416.904 38.7146C412.095 37.3401 407.418 35.573 402.806 33.7403C398.195 31.8423 393.65 29.9442 388.973 28.3079C384.296 26.6062 379.618 25.1009 374.875 23.7264C372.504 23.0719 370.133 22.4174 367.761 21.8283C365.39 21.3047 362.952 20.7811 360.581 20.3884C355.772 19.603 350.897 19.1448 346.154 19.3412L344.375 19.4067C343.783 19.4721 343.19 19.5376 342.597 19.603C342.004 19.6685 341.411 19.7339 340.818 19.7994L339.105 20.1266C336.8 20.5193 334.626 21.2393 332.518 22.0247C328.368 23.7264 324.745 26.4753 321.78 29.8788L320.661 31.1878C320.331 31.6459 319.936 32.1041 319.606 32.5622C318.882 33.4785 318.223 34.4603 317.564 35.3766C316.247 37.2747 315.127 39.2382 314.205 41.2672C313.348 43.2961 312.821 45.3906 312.953 47.485C313.019 48.5322 313.283 49.5139 313.744 50.4303C314.205 51.3466 314.864 52.1974 315.72 52.9174C319.014 55.8627 324.547 56.5172 328.565 54.6191C329.554 54.1609 330.41 53.441 330.937 52.5901C331.464 51.7393 331.662 50.6921 331.596 49.6448C331.596 49.383 331.53 49.1212 331.464 48.8594L331.266 48.0086C331.2 47.7468 331.135 47.485 331.003 47.1577C330.871 46.8959 330.805 46.6341 330.673 46.3723C330.212 45.3251 329.619 44.3433 328.961 43.3616C328.236 42.4453 327.446 41.5944 326.523 40.809C325.601 40.0236 324.679 39.3691 323.625 38.7146C321.583 37.471 319.343 36.5547 317.037 35.7693C314.732 35.0494 312.36 34.4603 309.989 34.0676C308.803 33.8712 307.617 33.7403 306.366 33.6749C305.114 33.6094 303.928 33.4785 302.677 33.4785C300.239 33.4131 297.802 33.4785 295.365 33.6749C292.927 33.8712 290.49 34.2639 288.184 34.7876C283.441 35.9002 278.962 37.9292 275.075 40.809C271.188 43.6888 267.961 47.4195 265.326 51.4775C262.691 55.5354 260.451 59.9206 258.475 64.4367C256.564 68.9528 254.39 73.4034 252.348 77.9195L246.156 91.3369L239.964 104.754L238.383 108.092C237.856 109.205 237.329 110.318 236.802 111.43L235.945 113.132C235.616 113.656 235.353 114.245 235.023 114.768L234.101 116.405L233.047 117.975C227.513 126.288 219.806 133.225 210.847 137.741C206.368 140.032 201.559 141.668 196.684 142.716C195.432 142.912 194.181 143.239 192.995 143.37C191.743 143.567 190.492 143.697 189.24 143.763C186.737 143.894 184.234 143.959 181.73 143.894C176.724 143.763 171.783 143.239 166.843 142.454C161.902 141.603 157.027 140.425 152.284 138.723C149.913 137.872 147.607 136.825 145.367 135.647C143.128 134.469 140.954 133.094 139.043 131.458C137.067 129.822 135.289 127.924 133.839 125.764C133.51 125.24 133.115 124.717 132.785 124.128C132.456 123.539 132.193 122.95 131.929 122.426L131.204 120.593C131.007 120.004 130.809 119.35 130.612 118.761C130.282 117.517 130.019 116.208 130.019 114.834C130.019 113.459 130.216 112.019 130.875 110.71C131.534 109.336 132.851 108.289 134.301 107.83C135.75 107.372 137.265 107.372 138.582 107.7C141.349 108.289 143.721 109.925 145.367 112.15C147.014 114.376 147.805 117.255 147.475 119.939C147.212 122.688 146.026 125.175 144.577 127.335C143.128 129.495 141.283 131.393 139.439 133.029C135.75 136.432 131.6 139.378 127.186 141.865C124.946 143.043 122.707 144.156 120.335 145.137C117.964 146.054 115.592 146.905 113.089 147.494C110.651 148.083 108.148 148.541 105.579 148.803L104.657 148.933L103.735 148.999C103.076 149.064 102.483 149.064 101.824 149.13C100.573 149.13 99.2551 149.195 98.0035 149.064C92.9311 148.868 87.8587 147.821 83.0499 146.25C78.241 144.614 73.6956 142.388 69.4138 139.639C67.3058 138.265 65.2637 136.825 63.2874 135.254L61.8382 134.076C61.377 133.683 60.9159 133.225 60.3889 132.833L58.9397 131.589L57.5563 130.215C55.7118 128.382 54.1967 126.288 52.8133 124.128L51.8911 122.426L51.4299 121.575L51.0347 120.659L50.3101 118.892L49.7172 117.059L49.4537 116.143L49.2561 115.226L48.7949 113.328L48.5314 111.43L48.3997 110.448C48.3338 110.121 48.3338 109.794 48.3338 109.467L48.2021 107.569C48.2021 106.914 48.2021 106.325 48.1362 105.671C48.0703 104.427 48.2021 103.118 48.2021 101.874C48.4656 96.8348 49.3878 91.8605 50.5077 87.0172C51.6276 82.1084 53.2085 77.3305 55.4483 72.7489C57.688 68.1674 60.6524 63.8476 64.539 60.3788C68.4256 56.9099 73.2345 54.3573 78.5045 53.441C79.822 53.2446 81.1395 53.0483 82.5887 53.1792L84.3674 53.5064C85.0261 53.5719 85.6849 53.6373 86.2777 53.7028C88.8469 54.03 91.416 54.6845 93.9192 55.7972C96.3566 56.9099 98.794 58.6116 100.375 61.0333C101.956 63.5204 102.549 66.662 101.89 69.4764C101.627 70.8509 101.1 72.2253 100.441 73.4689C99.7821 74.7124 98.9257 75.8251 98.0035 76.8069C96.159 78.8358 93.8533 80.3412 91.416 81.5193C90.2302 82.1084 88.9127 82.5011 87.6611 82.8938C87.0024 83.0901 86.3436 83.221 85.6849 83.3519C85.3555 83.4174 84.9602 83.4828 84.565 83.4828C84.2356 83.5483 83.9062 83.5483 83.5769 83.5483C80.9419 83.6792 78.5045 83.6137 75.9354 83.4828C70.9289 83.221 65.9224 82.7629 60.9159 81.912C58.4127 81.4539 55.9094 80.9957 53.472 80.2758C52.8792 80.0794 52.2204 79.9485 51.6276 79.6867L50.7053 79.3594L50.2442 79.1631L49.7831 78.9667L48.8608 78.5086C48.5314 78.3777 48.2021 78.2468 47.9386 78.0504L46.2917 77.1341C41.9439 74.647 37.5962 72.029 33.7096 68.5601C31.7992 66.7929 29.823 64.8949 28.6372 61.9496C28.3737 61.2296 28.1761 60.3788 28.1102 59.5279C28.0444 58.677 28.1761 57.6953 28.5055 56.8444C28.8349 55.9936 29.296 55.2082 29.8888 54.6191C30.1523 54.2918 30.4817 54.03 30.6793 53.7682L31.0746 53.441C31.2063 53.3101 31.404 53.1792 31.6016 53.0483L31.8651 52.9174C33.1826 52.1974 34.6318 51.7393 36.2128 51.6084C37.7938 51.4775 39.6383 51.8047 41.0876 52.7865C42.5368 53.7028 43.5249 55.0118 44.2496 56.3208C44.9742 57.6298 45.3694 58.9388 45.6988 60.2479C46.0282 61.5569 46.2258 62.8659 46.3576 64.1749L46.4234 65.1567L46.4893 65.6148V66.2039C46.4893 66.5966 46.4893 66.9893 46.4234 67.382C46.4234 67.7747 46.3576 68.1674 46.2917 68.5601C45.9623 70.0655 45.3694 71.5054 44.5789 72.6835C43.7884 73.927 42.8662 74.9742 41.8122 75.8906C39.7701 77.7886 37.5303 79.2285 35.2247 80.4067C34.039 80.9957 32.9191 81.5848 31.6675 82.0429C30.4817 82.5665 29.296 83.0247 27.9785 83.4174C26.7927 83.8101 25.4752 83.1556 25.08 81.912C24.6847 80.7339 25.3435 79.4249 26.5951 79.0322L26.661 79.0976Z" fill="#90ABF1"/>
<path d="M54.7086 103.803C54.9368 103.677 55.1254 103.49 55.2532 103.263C55.381 103.035 55.4429 102.777 55.4319 102.517C55.421 102.256 55.3377 102.004 55.1913 101.789C55.0449 101.573 54.8413 101.402 54.6033 101.296L48.4983 98.5923C48.2906 98.501 48.1084 98.3604 47.9674 98.1827C47.8264 98.005 47.7309 97.7956 47.6891 97.5726L46.4523 90.9941C46.4014 90.7385 46.2802 90.5022 46.1023 90.3117C45.9245 90.1211 45.697 89.984 45.4455 89.9157C45.194 89.8473 44.9284 89.8505 44.6786 89.9248C44.4287 89.9991 44.2046 90.1416 44.0313 90.3362L39.5775 95.3096C39.4257 95.4789 39.2349 95.6086 39.0218 95.6877C38.8086 95.7668 38.5794 95.7928 38.3539 95.7635L31.7357 94.9149C31.477 94.8806 31.2138 94.9195 30.9761 95.0273C30.7384 95.1351 30.5358 95.3074 30.3911 95.5247C30.2465 95.7419 30.1658 95.9954 30.1581 96.2562C30.1504 96.5171 30.216 96.7749 30.3475 97.0003L33.6961 102.776C33.8142 102.974 33.8814 103.197 33.8917 103.427C33.902 103.656 33.8552 103.885 33.7553 104.092L30.9002 110.124C30.7846 110.361 30.7381 110.625 30.7662 110.886C30.7942 111.148 30.8955 111.396 31.0585 111.602C31.2215 111.808 31.4395 111.964 31.6874 112.052C31.9352 112.14 32.2028 112.156 32.4593 112.098L38.9854 110.697C39.2064 110.648 39.4359 110.654 39.6539 110.715C39.8718 110.776 40.0715 110.889 40.2354 111.045L45.0971 115.65C45.2864 115.83 45.5225 115.953 45.7784 116.006C46.0343 116.058 46.2998 116.037 46.5445 115.946C46.7893 115.855 47.0036 115.697 47.1629 115.49C47.3222 115.283 47.4202 115.035 47.4457 114.776L48.1035 108.138C48.1254 107.911 48.2029 107.694 48.3292 107.504C48.4554 107.315 48.6265 107.16 48.8272 107.052L54.6823 103.849" fill="#E5DA17"/>
<path d="M42.6892 110.697C42.6892 110.697 44.0049 111.874 44.9983 112.947C45.7549 113.756 45.9654 112.519 45.9654 112.519C45.9654 112.519 46.5115 107.184 46.5378 106.677C46.5641 106.171 47.2285 105.592 47.2285 105.592C47.2285 105.592 52.156 103.224 52.452 102.816C52.7481 102.408 51.9586 102.158 51.9586 102.158L47.0312 99.862C46.777 99.7643 46.5541 99.5995 46.3862 99.3852C46.2182 99.1709 46.1114 98.9151 46.0773 98.645L45.2483 92.8558" stroke="#F4F2D9" stroke-width="2" stroke-linecap="round" stroke-linejoin="round"/>
<path d="M62.3198 78.2466L69.1278 86.0426C69.3591 86.3074 69.5223 86.6246 69.6035 86.9667C69.6846 87.3088 69.6812 87.6655 69.5935 88.006L67.0366 98.0322C66.9327 98.4246 66.9413 98.8383 67.0615 99.2261C67.1816 99.6138 67.4083 99.96 67.7158 100.225C68.0233 100.49 68.3991 100.663 68.8003 100.725C69.2016 100.787 69.6121 100.734 69.9849 100.574L79.4967 96.5047C79.8209 96.3667 80.1739 96.3096 80.5251 96.3384C80.8764 96.3673 81.2153 96.4812 81.5126 96.6704L90.2574 102.197C90.5989 102.414 90.9944 102.531 91.3991 102.535C91.8037 102.539 92.2013 102.429 92.5467 102.218C92.8921 102.007 93.1715 101.704 93.353 101.342C93.5346 100.98 93.6112 100.575 93.574 100.172L92.6445 89.8669C92.6136 89.5162 92.6685 89.1633 92.8044 88.8386C92.9403 88.5138 93.1531 88.227 93.4245 88.0028L101.38 81.4245C101.692 81.1667 101.926 80.8264 102.055 80.4422C102.183 80.0581 102.201 79.6456 102.107 79.2516C102.013 78.8576 101.81 78.498 101.522 78.2136C101.233 77.9292 100.871 77.7315 100.475 77.643L90.3888 75.3425C90.0463 75.2629 89.728 75.1018 89.4611 74.8729C89.1942 74.644 88.9865 74.354 88.8557 74.0276L85.0325 64.4137C84.8825 64.0387 84.631 63.713 84.3061 63.4732C83.9811 63.2333 83.5958 63.0889 83.1933 63.0561C82.7908 63.0232 82.3871 63.1033 82.0276 63.2873C81.6681 63.4713 81.3671 63.7519 81.1583 64.0976L75.8533 72.9827C75.671 73.2795 75.4196 73.5277 75.1205 73.7063C74.8214 73.8848 74.4836 73.9883 74.1358 74.0079L63.8115 74.673C63.4103 74.7003 63.0247 74.8387 62.6978 75.0729C62.3709 75.307 62.1157 75.6276 61.9609 75.9986C61.806 76.3697 61.7575 76.7766 61.8209 77.1736C61.8843 77.5707 62.0571 77.9422 62.3198 78.2466Z" fill="#E5DA17"/>
<path d="M82.7047 94.8944C82.7047 94.8944 88.0769 98.7054 90.1637 100.174C91.7473 101.284 91.6934 99.115 91.6934 99.115C91.6934 99.115 90.7059 89.829 90.5939 88.9729C90.482 88.1167 91.3386 86.8616 91.3386 86.8616C91.3386 86.8616 98.886 81.0918 99.2224 80.2704C99.5589 79.4489 98.1625 79.3691 98.1625 79.3691L88.9611 77.2027C88.4967 77.1273 88.0611 76.9289 87.6994 76.628C87.3378 76.3271 87.0634 75.9348 86.9049 75.4919L83.4465 65.9308C83.4465 65.9308 82.7291 64.7641 81.4543 66.9596" stroke="#F4F2D9" stroke-width="2" stroke-linecap="round" stroke-linejoin="round"/>
<path d="M58.2084 134.866L61.4977 137.498C61.61 137.586 61.6988 137.701 61.7562 137.832C61.8135 137.962 61.8378 138.105 61.8267 138.248L61.5306 142.438C61.5201 142.602 61.5554 142.766 61.6326 142.912C61.7098 143.057 61.8257 143.178 61.9676 143.261C62.1095 143.344 62.2717 143.386 62.4362 143.383C62.6006 143.379 62.7609 143.33 62.899 143.241L66.4055 140.919C66.5249 140.84 66.6615 140.792 66.8036 140.779C66.9457 140.765 67.089 140.786 67.2213 140.84L71.1224 142.419C71.2749 142.48 71.4413 142.497 71.603 142.468C71.7647 142.44 71.9152 142.367 72.0377 142.257C72.1601 142.148 72.2495 142.007 72.2958 141.849C72.3422 141.692 72.3437 141.524 72.3 141.366L71.1816 137.314C71.1444 137.175 71.1411 137.03 71.172 136.89C71.2029 136.751 71.2672 136.621 71.3593 136.511L74.0631 133.288C74.1698 133.16 74.2383 133.005 74.2607 132.84C74.2832 132.676 74.2585 132.508 74.1898 132.357C74.121 132.205 74.0108 132.077 73.872 131.985C73.7332 131.894 73.5714 131.844 73.4053 131.84L69.208 131.656C69.0649 131.649 68.9256 131.608 68.8019 131.536C68.6782 131.464 68.5738 131.363 68.4975 131.242L66.2739 127.669C66.1857 127.531 66.0606 127.419 65.9126 127.347C65.7646 127.275 65.5996 127.245 65.4358 127.262C65.2721 127.278 65.1161 127.34 64.9853 127.44C64.8545 127.539 64.754 127.674 64.695 127.827L63.2214 131.774C63.1703 131.908 63.0881 132.027 62.9817 132.122C62.8753 132.217 62.7477 132.285 62.6096 132.32L58.5242 133.334C58.3688 133.377 58.2284 133.463 58.1184 133.581C58.0084 133.7 57.933 133.846 57.9005 134.004C57.8679 134.162 57.8793 134.326 57.9336 134.478C57.9879 134.63 58.083 134.765 58.2084 134.866Z" fill="#E5DA17"/>
<path d="M67.5303 139.603C67.5303 139.603 69.7013 140.471 70.517 140.84C71.1749 141.116 70.9644 140.366 70.9644 140.366C70.9644 140.366 70.0171 137.222 69.9118 136.925C69.8754 136.659 69.9213 136.388 70.0434 136.149C70.8631 135.259 71.6318 134.324 72.3459 133.347C72.4183 133.044 71.9183 133.103 71.9183 133.103L68.5895 132.965C68.4225 132.971 68.2572 132.931 68.1112 132.85C67.9652 132.769 67.844 132.649 67.7605 132.505L65.9382 129.459" stroke="#F4F2D9" stroke-width="1.5" stroke-linecap="round" stroke-linejoin="round"/>
<path d="M5.6573 73.2914C8.4259 73.2914 10.6703 71.0471 10.6703 68.2786C10.6703 65.5101 8.4259 63.2657 5.6573 63.2657C2.8887 63.2657 0.644287 65.5101 0.644287 68.2786C0.644287 71.0471 2.8887 73.2914 5.6573 73.2914Z" fill="#E5DA17"/>
<path d="M8.00581 65.7524C8.00581 65.7524 10.2821 68.8246 7.61108 71.2455" stroke="#F4F2D9" stroke-width="2" stroke-linecap="round" stroke-linejoin="round"/>
<path d="M115.075 135.675C116.924 135.675 118.423 134.176 118.423 132.327C118.423 130.478 116.924 128.978 115.075 128.978C113.226 128.978 111.726 130.478 111.726 132.327C111.726 134.176 113.226 135.675 115.075 135.675Z" fill="#E5DA17"/>
<path d="M116.752 130.511C116.752 130.511 118.252 132.544 116.489 134.143" stroke="#F4F2D9" stroke-linecap="round" stroke-linejoin="round"/>
<path d="M67.4512 44.813C71.5715 44.813 74.9115 41.473 74.9115 37.3529C74.9115 33.2328 71.5715 29.8928 67.4512 29.8928C63.331 29.8928 59.991 33.2328 59.991 37.3529C59.991 41.473 63.331 44.813 67.4512 44.813Z" fill="#E5DA17"/>
<path d="M70.6025 32.7808C70.6025 32.7808 75.0563 37.9055 70.6025 41.9315" stroke="#F4F2D9" stroke-width="2" stroke-linecap="round" stroke-linejoin="round"/>
<path d="M571.725 8.2889L575.014 10.9203C575.125 11.0115 575.212 11.1276 575.269 11.2591C575.326 11.3906 575.352 11.5337 575.343 11.6768L575.047 15.8674C575.035 16.0314 575.069 16.1954 575.145 16.3411C575.221 16.4868 575.337 16.6082 575.478 16.6917C575.62 16.7752 575.782 16.8174 575.947 16.8136C576.111 16.8097 576.271 16.76 576.409 16.67L579.922 14.3477C580.041 14.269 580.177 14.2206 580.32 14.2068C580.462 14.1931 580.605 14.2143 580.737 14.2688L584.639 15.8476C584.791 15.9087 584.957 15.9259 585.119 15.8975C585.281 15.869 585.431 15.7959 585.554 15.6865C585.676 15.5771 585.766 15.4357 585.812 15.2782C585.858 15.1207 585.86 14.9534 585.816 14.7951L584.698 10.7361C584.659 10.5996 584.654 10.4556 584.684 10.3168C584.714 10.1781 584.777 10.0487 584.869 9.94011L587.573 6.71663C587.679 6.58921 587.748 6.43422 587.77 6.26954C587.793 6.10487 587.768 5.93721 587.699 5.78591C587.631 5.63461 587.52 5.50584 587.382 5.41444C587.243 5.32304 587.081 5.27275 586.915 5.26935L582.711 5.08515C582.568 5.0774 582.429 5.03577 582.306 4.9637C582.182 4.89164 582.078 4.7912 582.001 4.6707L579.777 1.09856C579.69 0.959293 579.565 0.847174 579.418 0.774873C579.27 0.702572 579.105 0.672959 578.942 0.689379C578.778 0.705798 578.623 0.767596 578.492 0.867795C578.362 0.967995 578.262 1.10261 578.205 1.25644L576.724 5.20356C576.674 5.33733 576.592 5.45693 576.486 5.55204C576.379 5.64716 576.251 5.71495 576.113 5.74958L572.034 6.76267C571.88 6.80816 571.742 6.89457 571.634 7.01263C571.526 7.13069 571.452 7.27595 571.42 7.43282C571.388 7.58969 571.4 7.75227 571.454 7.90309C571.507 8.0539 571.601 8.18727 571.725 8.2889Z" fill="#E5DA17"/>
<path d="M581.04 13.0189C581.04 13.0189 583.211 13.8938 584.033 14.2622C584.652 14.5385 584.481 13.7886 584.481 13.7886C584.481 13.7886 583.527 10.6374 583.421 10.348C583.387 10.0812 583.435 9.81027 583.56 9.57172C584.379 8.68168 585.148 7.74604 585.862 6.76926C585.935 6.46665 585.428 6.52586 585.428 6.52586L582.099 6.38771C581.933 6.39357 581.769 6.35373 581.624 6.27253C581.479 6.19133 581.359 6.07188 581.277 5.92721L579.441 2.84845" stroke="#F4F2D9" stroke-width="1.5" stroke-linecap="round" stroke-linejoin="round"/>
<path d="M356.383 45.8655C359.151 45.8655 361.396 43.6212 361.396 40.8527C361.396 38.0842 359.151 35.8398 356.383 35.8398C353.614 35.8398 351.37 38.0842 351.37 40.8527C351.37 43.6212 353.614 45.8655 356.383 45.8655Z" fill="#E5DA17"/>
<path d="M358.731 38.3265C358.731 38.3265 361.008 41.3987 358.337 43.8196" stroke="#F4F2D9" stroke-width="2" stroke-linecap="round" stroke-linejoin="round"/>
<path d="M404.079 26.1102C405.928 26.1102 407.427 24.611 407.427 22.7617C407.427 20.9124 405.928 19.4132 404.079 19.4132C402.229 19.4132 400.73 20.9124 400.73 22.7617C400.73 24.611 402.229 26.1102 404.079 26.1102Z" fill="#E5DA17"/>
<path d="M405.756 20.946C405.756 20.946 407.263 22.9788 405.5 24.5774" stroke="#F4F2D9" stroke-linecap="round" stroke-linejoin="round"/>
</svg>
