<svg width="49" height="66" viewBox="0 0 49 66" fill="none" xmlns="http://www.w3.org/2000/svg">
<path d="M47.7032 24.086C47.7032 11.0751 37.1684 0.540283 24.1575 0.540283C11.1691 0.540283 0.634277 11.0751 0.634277 24.086C0.634277 28.7681 2.36757 32.9325 4.34847 36.8043L19.0026 62.4659C20.6234 65.3247 24.2475 66.3152 27.1063 64.6719C28.0292 64.1542 28.7946 63.3888 29.3123 62.4659L43.9665 36.8043C45.9699 33 47.7032 28.7681 47.7032 24.086Z" stroke="#90ABF1" stroke-miterlimit="10"/>
<path d="M24.1576 42.4319C34.1032 42.4319 42.1658 34.3694 42.1658 24.4237C42.1658 14.4781 34.1032 6.41553 24.1576 6.41553C14.212 6.41553 6.14941 14.4781 6.14941 24.4237C6.14941 34.3694 14.212 42.4319 24.1576 42.4319Z" stroke="#90ABF1" stroke-miterlimit="10"/>
<path d="M7.88257 32.1221L17.3819 22.6228C17.8321 22.1726 18.5299 22.1726 18.9801 22.6228L35.0974 38.7401" stroke="#90ABF1" stroke-miterlimit="10"/>
<path d="M26.7463 30.3887L31.9012 25.2339C32.3514 24.7837 33.0492 24.7837 33.4994 25.2339L40.4326 32.167" stroke="#90ABF1" stroke-miterlimit="10"/>
<path d="M27.2864 14.6542V12.6958" stroke="#90ABF1" stroke-miterlimit="10"/>
<path d="M27.2864 24.0183V22.0149" stroke="#90ABF1" stroke-miterlimit="10"/>
<path d="M30.9556 18.3459H32.8239" stroke="#90ABF1" stroke-miterlimit="10"/>
<path d="M21.5015 18.3459H23.5949" stroke="#90ABF1" stroke-miterlimit="10"/>
<path d="M29.8752 20.957L31.2934 22.3752" stroke="#90ABF1" stroke-miterlimit="10"/>
<path d="M23.2798 14.3616L24.6754 15.7347" stroke="#90ABF1" stroke-miterlimit="10"/>
<path d="M29.8977 15.7347L31.2933 14.3616" stroke="#90ABF1" stroke-miterlimit="10"/>
<path d="M23.2798 22.3752L24.6979 20.957" stroke="#90ABF1" stroke-miterlimit="10"/>
<path d="M27.1964 20.7994C28.5267 20.7994 29.605 19.721 29.605 18.3908C29.605 17.0605 28.5267 15.9822 27.1964 15.9822C25.8662 15.9822 24.7878 17.0605 24.7878 18.3908C24.7878 19.721 25.8662 20.7994 27.1964 20.7994Z" stroke="#90ABF1" stroke-miterlimit="10"/>
</svg>
