<svg xmlns="http://www.w3.org/2000/svg" viewBox="0 0 300 300"><defs><style>.cls-1{fill:#82342a;}.cls-2{fill:#79aadc;}.cls-3{fill:#2e517e;}.cls-4{fill:#272626;}.cls-5{fill:#dd893a;}.cls-6{fill:#f0c768;}.cls-7{fill:#c47b35;}.cls-8{fill:#efcba6;}.cls-9{fill:#d56c31;}.cls-10{fill:#5ea85f;}.cls-11{fill:#f9eacc;}.cls-12{fill:#3b5fa8;}.cls-13{fill:#fcfcfc;}.cls-14{fill:#4573b7;}.cls-15{fill:#4c83c3;}.cls-16{fill:#ababab;}</style></defs><title>not-found</title><g id="_404" data-name="404"><path class="cls-1" d="M102.71,176.63c-3.47-1.56-7.06-2.86-10.42-4.69a38.54,38.54,0,0,1-14.17-12.66,1.31,1.31,0,0,0-1.91-.56c-1.71.7-3.45,1.34-5.16,2-.54.22-1.06.46-1.57,0s-.29-1.11,0-1.68c1-2.24,2.08-4.47,3.11-6.72a8.23,8.23,0,0,0,.89-3.78,56.26,56.26,0,0,1-11,1.17c-.65,0-1.52.14-1.7-.7s.63-1,1.15-1.26a39.26,39.26,0,0,0,8-5.75,85.24,85.24,0,0,1-8.79-1.26,36.32,36.32,0,0,1-9-3.21c-9.74-5.11-12.32-13.81-7-23.46,4-7.34,9.85-13,16.28-18.21,1.23-1,2.48-1.93,3.83-3-1.06-.73-2.07-1.4-3.06-2.1-9.07-6.43-13.93-15.56-16.74-26a58.87,58.87,0,0,1-1.68-16.19c0-3.25-1-3.84-4-2.37a2.1,2.1,0,0,1-.3.15c-.74.24-1.19,1.39-2.2.69a3.07,3.07,0,0,1-1.14-2.84,5.09,5.09,0,0,1,2.2-4,11.5,11.5,0,0,1,3.29-1.8c-.47-.64-1.08-.39-1.58-.52-.83-.21-1.67-.45-2-1.38a2.14,2.14,0,0,1,.9-2.22,7.25,7.25,0,0,1,7.34-1.7c.59.17,1.16.4,1.76.6.3-.58,0-1.1-.08-1.63a6.36,6.36,0,0,1,5.81-7.12c.54,0,1.15-.14,1.57.37s-.07,1-.31,1.49a4.52,4.52,0,0,0,1.15,5.49,17.08,17.08,0,0,0,6.73,3.71c5.27,1.73,10.61,3.26,15.84,5.1C86.89,43.5,93.94,48,99,55.23c.61.86.91.75,1.58.1C111.29,45,124.47,40.32,139,38.86a78.74,78.74,0,0,1,40.89,6.66c2.49,1.12,4.83,2.59,7.24,3.9l.93.93c2.64.95,4.73,2.76,6.83,4.54.56.47.94.69,1.48,0,5.77-7.73,14-11.5,22.91-14.19,3.38-1,6.76-2.05,10.09-3.21A17.39,17.39,0,0,0,236,33.68c2.12-2,2.22-3.63.46-6-.23-.31-.6-.61-.28-1a1.47,1.47,0,0,1,1.38-.47c3.69.32,7.18,2.28,6.78,7.07,0,.39-.09.78-.15,1.16s-.23.67.35.41a10.8,10.8,0,0,1,6-.58,6.51,6.51,0,0,1,3.36,1.8c.5.52,1.17,1,.94,1.86a2.23,2.23,0,0,1-1.93,1.42c-.65.14-1.3.24-2.28.42a11.15,11.15,0,0,1,5,3.21c1,1.28,1.73,2.68,1,4.33-.48,1-1.24,1.63-2.41.79a3.36,3.36,0,0,0-.57-.35c-1.12-.53-2.31-1.19-3.51-.5s-.58,2-.51,2.94a54.84,54.84,0,0,1-9.41,35.73c-.57.84-.4,1.15.34,1.69a47,47,0,0,1,11,10.36c6.69,9.27,5,18.2-4.56,24.46a46.64,46.64,0,0,1-11.69,5.07,26.75,26.75,0,0,0,7.25,3.74c.55.2,1.38.2,1.35,1s-.92.82-1.55.93a50.38,50.38,0,0,1-9.33.57,7.14,7.14,0,0,0,1.74,3.3c1.87,2,3.79,4,5.64,6,.44.48,1.39.85.86,1.76s-1.33.4-2,.31c-1.78-.25-3.55-.56-5.32-.89-.62-.11-1-.15-1.21.65-2.51,10.2-9.67,16.52-18.2,21.69a117.77,117.77,0,0,1-16.55,7.79,5.81,5.81,0,0,0-2.43,1.18,3.48,3.48,0,0,0-2,.54,4.45,4.45,0,0,0-2.35.78l-2.1.59a1.21,1.21,0,0,0-1.34,1,2.1,2.1,0,0,0-1.91-.26c-1.25.27-2.48.6-3.72.9a.64.64,0,0,0-.91-.4c-.88.32-1.79.54-2.68.8l.14-.63a185.84,185.84,0,0,0,27.79-9.95c6.83-3.21,13.24-7,18.32-12.73a27.18,27.18,0,0,0,6.19-11.6c.21-.83.19-1.27-.86-1.49-2.06-.45-4.07-1.12-6.1-1.7,1.79-.57,3.46.4,5.2.43a1.23,1.23,0,0,0,1.09.23l.68.07a55.23,55.23,0,0,0,7,1.3c-.12-.93-.76-1.28-1.2-1.74a23.7,23.7,0,0,1-4.95-6.3c-.92-2-2.43-2.56-4.34-2.74l-2.64-1c.09-.38.43-.33.7-.41a37.78,37.78,0,0,0,13.33.51c-6.74-3.79-12.6-8.66-18.4-13.6,1.19-.18.63-.94.48-1.53a106.32,106.32,0,0,0-4.83-14.33,123.94,123.94,0,0,0-9.24-17.74,2.42,2.42,0,0,0-1.67-1c-4.65-1.2-9.3-2.38-14-3.29a138.44,138.44,0,0,0-20.42-2.79,224.12,224.12,0,0,0-26.43.27c-2.07.16-4.12.45-6.18.67-1.33.14-1.45.68-.71,1.73,1.5,2.15,3.71,2.17,5.9,1.9a2,2,0,0,1,2,.62c1.8,1.84,2.74,1.85,4.74.16.6-.5,1.16-1.24,2-1a1.3,1.3,0,0,0,1.46-.46,1.57,1.57,0,0,1,1.48-.63h0c-.23,1.22-1.12,2.37-.43,3.7.25,2.14,2.13,2.18,3.91,2.71a5.44,5.44,0,0,1-6.11-2.31c-.49-.9-.85-1.26-1.88-.58a5.36,5.36,0,0,1-6.44-.13,3.46,3.46,0,0,0-3.17-.47c2.6,2.65,5.27,4.71,9,4.89.57.57,1.48,0,2,.59a16.79,16.79,0,0,1-5.61.21,19.94,19.94,0,0,1-10.94-9.22,1.67,1.67,0,0,0-2-1c-3.88.54-7.71,1.33-11.53,2.22A169,169,0,0,0,89,92.5a3,3,0,0,0-1.61,1.74c-5,11.73-6.33,24.19-7.47,36.7,0,.47-.18,1.09.66,1a2.47,2.47,0,0,1-.74,1.47c-2.22,2.73-4.37,5.51-6.86,8A51.81,51.81,0,0,1,65,148a33.32,33.32,0,0,0,13.32-2.49l.36,0c.37.14.89-.21,1.12.36l-.36.27-3.32,1.59a1.41,1.41,0,0,0-1,1.22c-.18,2.53-1.37,4.7-2.45,6.91-.43.87-.78,1.78-1.3,3a35.87,35.87,0,0,0,6.77-2.16l2.39-.78c.37.19.86-.17,1.24.31A12.6,12.6,0,0,1,80,157c-.94.28-1.23.42-.51,1.46,5.13,7.36,12.15,12.14,20.39,15.33,8.67,3.35,17.71,5.27,26.85,6.76-.23.4-.65.22-1,.33l-.73.29c-2-.14-4-1-6.08-.34-1.44-.12-2.7-1.1-4.21-.83a.53.53,0,0,0-.67,0,52,52,0,0,0-6.16-1.45c-.21-.22-.26-.77-.77-.41l-.45-.08C105.48,177.17,103.86,177.57,102.71,176.63ZM70.37,91.47l-.46.31a86.18,86.18,0,0,0-11.9,9c-5.13,4.67-9.81,9.72-12.58,16.2-2.08,4.85-2.45,9.8.92,14.2,3.93,5.15,9.67,7.19,15.86,8.14a26.06,26.06,0,0,0,4.94.92c2.55.39,5.07.63,6.54-2.24a5.37,5.37,0,0,1,1-1.11c2.6-2.61,4.11-5.63,3.81-9.44a24.49,24.49,0,0,1,.26-4.35,105.85,105.85,0,0,1,5.45-26.23c.26-.7.4-1.44.66-2.41-.65.28-1,.41-1.36.58a145.26,145.26,0,0,0-14.19,8,103.18,103.18,0,0,0-14.41,10.69c-.95.88-1.74,2.05-3.12,2.41.16-.64.69-1,1.1-1.45a73,73,0,0,1,10.31-9.18,142.71,142.71,0,0,1,36.7-19.27,168.68,168.68,0,0,1,54.12-10.59c5.56-.14,11.1-.06,16.66.3,4.26.28,8.51.62,12.73,1.23a163.13,163.13,0,0,1,34,8.67c9.56,3.58,18.68,8,26.6,14.53.66.55,1.55.94,1.71,1.94a4.56,4.56,0,0,1-.88-.45,65.48,65.48,0,0,0-13.29-8.37,124.57,124.57,0,0,0-15.83-6.59,32,32,0,0,0-6.11-1.82,123.72,123.72,0,0,1,13.47,32.49A2.68,2.68,0,0,0,224.2,119c2.26,1.84,4.58,3.6,6.79,5.5a4.77,4.77,0,0,0,5.71.78,30.87,30.87,0,0,0,13.05-7.06,12.32,12.32,0,0,0,3.81-12.54,20.72,20.72,0,0,0-5.2-9.12c-8.73-9.45-20-14.8-31.66-19.54a11.71,11.71,0,0,1-1.56-.47A36.69,36.69,0,0,0,207.68,74c-.84-.31-1.67-.65-2.52-.9a164.39,164.39,0,0,0-32.55-6,180.28,180.28,0,0,0-29.3,0A157.1,157.1,0,0,0,115.51,72a159.2,159.2,0,0,0-34.3,13.17,85.64,85.64,0,0,0-10.85,6.31ZM203.15,70.56c-.24-2.32-1.56-4.17-2.71-6.07a39.39,39.39,0,0,0-14.78-13.87C181,48,176.39,45.42,171.2,44c-.66.15-1.11-.37-1.68-.53a77.39,77.39,0,0,0-39.73-1.44,59.48,59.48,0,0,0-17.53,6.67,8.27,8.27,0,0,0-.91.42A45.54,45.54,0,0,0,91.62,72.26a17.9,17.9,0,0,0-1.31,3.9c-.2.4-.43.79-.6,1.21s-.59,1.14-.22,1.59,1-.12,1.46-.3c5.12-2,10.21-4.11,15.47-5.73a168.66,168.66,0,0,1,37.42-7.4c15.59-1.11,31.09-.64,46.46,2.42l.68.3h.31c3.64.94,7.39,1.44,11,2.61C202.6,71,203,71.22,203.15,70.56Zm-151-26.22,0,.38c.41.17.8.38,1.22.52,7.09,2.36,12.94,6.67,18.11,11.9A82.94,82.94,0,0,1,84,73.76c1,1.77,1.87,3.69,3.47,5.22a9.61,9.61,0,0,0,.65-1.27,57.81,57.81,0,0,1,9.59-19,1.91,1.91,0,0,0-.18-2.61c-3.93-5-8.49-9.23-14.5-11.67-4-2.33-8.46-3.54-12.85-4.89-4.65-1.43-9.49-2.38-13.51-5.39-2.31-1.72-4.08-3.73-3.59-6.9.14-.9-.2-.94-.92-.7-2.31.77-3.4,3.45-2.47,6.35.34,1.08.87,2.09,1.4,3.33-1.58-.71-2.88-1.37-4.24-1.88-2-.77-4-1-5.94.37-.46.32-1.13.58-1,1.21s.86.53,1.38.63c2.38.47,4.8.81,7.11,2.21-2.27.27-4.37.15-6.28,1.07-2.31.55-4.19,2.2-4.38,3.85-.17,1.49.12,1.73,1.49,1.17,1.85-.75,3.68-1.42,5.56-.13a5.4,5.4,0,0,1,.39,2.29c0,1.91-.38,3.79-.27,5.71a58.08,58.08,0,0,0,5,20.94c3.19,7,7.76,12.81,14.39,16.86,2.57,1.57,3.88,1.28,5.87-1.22,2.56-.92,4.7-2.61,7.06-3.89,2.84-1.44,5.66-2.91,8.52-4.3,1-.47.44-.94.15-1.44-2.06-3.6-4.14-7.19-6.53-10.58C73.86,61.44,67.64,54.52,59.6,49.4a55.45,55.45,0,0,0-10.14-4.69l1.06-.11a.86.86,0,0,0,.8-.17.82.82,0,0,0,.79,0Zm192.69,2.14-.44.11a22.21,22.21,0,0,0-7.92,3.1,57,57,0,0,0-11.09,9.22,79.29,79.29,0,0,0-11.22,14c-.3.48-1.06,1,.19,1.47,4.37,1.55,8.59,3.49,12.81,5.41l7.71,4a20,20,0,0,1,2.26,1.42c1,.83,1.48.45,2.1-.45a43.55,43.55,0,0,0,6-11.75c2.12-6.7,3.71-13.46,2.9-20.57-.15-1.34-.29-2.67-.34-4-.07-2,.56-2.74,2.62-3.21a8.1,8.1,0,0,1,3.67,1.08c.86.57,1.17.09,1-.7a3.83,3.83,0,0,0-2.29-3.09c-2.22-1.65-5-1.58-7.61-2.17.87-.85,2-1,2.86-1.45,1.25-.26,2.51-.48,3.75-.78.39-.1.95-.18,1-.76,0-.42-.37-.65-.71-.86a6.35,6.35,0,0,0-5.72-.68c-1.57.07-2.75,1.38-4.35,1.37h0c.3-1,.66-1.91.89-2.88a5,5,0,0,0-2.78-6c-.41-.18-.86-.46-1.26-.14s0,.74.1,1.07a3.61,3.61,0,0,1-.08,2.47,8.9,8.9,0,0,1-3.84,4.74c-3.41,2.15-7.28,3.19-11,4.44-5.58,1.86-11.3,3.36-16.38,6.47a32.9,32.9,0,0,0-8.81,6.93c-2,2.23-2.07,2.84-.19,5.1A28.82,28.82,0,0,1,204,67.79c1.11,3.09,3.1,4.53,6.16,5.24a2.4,2.4,0,0,0,3.11-1.2,81.3,81.3,0,0,1,15.53-18c1-.84,2.28-1.44,2.91-2.7,1.74-.94,3.45-1.93,5.22-2.81a28.66,28.66,0,0,1,6.63-2.19c.52-.12,1.31-.53,1.71.36Z"/><path class="cls-1" d="M209.49,178.82a12.4,12.4,0,0,1,6.74,4.15c4.08,4.4,6.11,9.85,8,15.39l1.95,5.7c.88-1.82,1.59-3.22,2.24-4.64,1.71-3.72,3.41-7.43,5.07-11.17a16,16,0,0,1,10-9.14,24.82,24.82,0,0,0,10.19-6.33,5.86,5.86,0,0,1,7.23-1c2,1.3,2.73,4.09,1.83,6.81-.72,2.19-2.3,3.77-4.06,5.52a21.07,21.07,0,0,0,14.62-2.34c2.47-1.32,4.8-2.9,7.63-3.43a8.44,8.44,0,0,1,4.15.28c2.86.94,4,3.73,2.81,6.89-.24.64-.59,1.09.15,1.72,2.2,1.86,2.32,4.24,1.3,6.73a15,15,0,0,1-7.58,7.59c-8.13,4-16.63,7-25.78,7.69-1.62.11-2,.72-2.11,2.2-.52,7.15-.59,14.35-1.65,21.46-.92,6.15-2.5,12.1-5.83,17.42-3.67,5.86-8.67,10.08-15.46,12a15.72,15.72,0,0,1-8.47,0c-.63-.17-1.21-.62-1.92-.4-1-.61-1.16-1.72-1.6-2.67-2.63-5.56-2.88-11.9-5.7-17.39.31-.12.37-.32.34-.65-.43-3.83-.83-7.67-1.24-11.5-.08-1.78-.19-3.56-.26-5.34a110.6,110.6,0,0,1,1-19.16l.36-.07,0,1.67,0,5.09v.63a176.56,176.56,0,0,0,.91,21.81,117.21,117.21,0,0,0,4.95,23.45,1.81,1.81,0,0,0,.89,1.34,13,13,0,0,0,7.47,1.45c9-1.34,14.75-6.83,18.55-14.68s4.63-16.53,5-25.18q.22-4.69.63-9.38c.12-1.35-.1-2.12-1.69-2.17a18,18,0,0,1-3.27-.64c-4.26-.92-7.57-3-8.85-7.46,0-.32,0-.64.09-1.38.83,1.91,1.17,3.7,2.81,4.63a10.45,10.45,0,0,0,7.06,3.37,46.34,46.34,0,0,0,14.84-.92c4.63-1,9-2.65,11.83-6.74,1.52-2.19,3-4.55,1.48-7.43a4.51,4.51,0,0,0-5.17-1.73,20.4,20.4,0,0,0-7,3.4c-2.81,2-5.69,3.51-9.29,2.67,0-.18-1-.61,0-.5,3.52.36,6.23-1.36,8.95-3.19s5.57-3.59,9.07-3.6a1.91,1.91,0,0,0,1.06-.43c3.08-2.11,6.39-3.43,10.22-3a1.93,1.93,0,0,0,2.11-1.29,3.17,3.17,0,0,0-2.5-4.75,7.42,7.42,0,0,0-5.91,1.26,8.79,8.79,0,0,0-2.37,1.24c-8.52,5.37-17.15,3.9-25.88.47l2.05.1c1.16.24,2.36.83,3.46.68,3.87-.56,6.85-4.47,6.75-8.51-.52-2.26-1.64-3.15-3.87-3.1a5.35,5.35,0,0,0-4,2,19.86,19.86,0,0,1-9.11,5.83c-5.4,1.68-8.78,5.36-11,10.4-3,6.88-6.19,13.7-9.22,20.58-4.11,9.35-7.62,18.86-6.1,29.39l.28.5v.39c-1.36-1.27-1-3-1.19-4.58a40.09,40.09,0,0,1,1.93-16.19c1.46-4.43,3.36-8.67,5.2-12.94a2.59,2.59,0,0,0,.25-1.9,104.49,104.49,0,0,0-3.6-10.67c-1.06-2.51-1.86-5.18-3.75-7.27a13.28,13.28,0,0,0-5.22-6,5.4,5.4,0,0,0-3.66-1.35l0-1.4.53-.33A1,1,0,0,1,209.49,178.82Zm77.78,10.74A2.73,2.73,0,0,0,286,188.1c-2.91-1.59-8.72-.67-11.14,1.85,1.18.47,1.66,1.62,2.52,2.4,1.44,3.93-.38,7-3,10.18,4.94-1.51,9-3.67,11.94-7.49C287.51,193.45,288.22,191.61,287.27,189.56Z"/><path class="cls-1" d="M86.64,259.78a22.69,22.69,0,0,1-18.86-1.52c-5.72-3.11-9.68-7.92-12.48-13.73-3.88-8-5.73-16.72-7.87-25.31-.7-2.83-1.6-5.6-2.35-8.42a1.09,1.09,0,0,0-1.31-.93c-6.06.3-11.45-1.7-16.6-4.68-2-1.18-4.26-2-6.32-3.16a22.37,22.37,0,0,1-8.34-7.68c-1.22-1.94-2.08-4-.95-6.34.36-.74-.2-1.16-.44-1.68-1.12-2.34-1.64-4.67-.09-7a5.26,5.26,0,0,1,5.7-2.32,8.27,8.27,0,0,1,5,2.93c3.65,4.83,8.63,5.37,14.06,4.76l2-.24c-2.33-2-4.3-4-5-7-.49-2.22-.13-4.16,1.72-5.6a4.94,4.94,0,0,1,6.13.2c3.72,3.46,8.22,5.12,13,6.46,5,1.4,7.88,5.17,10.36,9.34,4.28,7.23,8.5,14.49,12.82,21.86a19,19,0,0,0,1.65-4.06c2.1-6,3.95-12,7.67-17.32,3-4.26,6.78-7.45,11.91-8.83l.3.34.33.46.12.54c0,.18,0,.36,0,.54a2.74,2.74,0,0,0-2.39.35,19.3,19.3,0,0,0-8.45,6.84c-.63.93-1.32,1.82-1.87,2.79-3.41,6-5.16,12.64-7.54,19.05-.71,1.9,0,3.09.7,4.51.28.55.65,1.05.91,1.61a71.48,71.48,0,0,1,4.74,13.26,33.16,33.16,0,0,1,.78,7A41,41,0,0,0,84,231a63.59,63.59,0,0,0-5.62-15.2c-4.76-9.6-10.69-18.53-15.91-27.86a17.13,17.13,0,0,0-11.11-8.57c-1.56-.41-3.06-1.08-4.6-1.59-2.53-.84-4.29-2.8-6.39-4.28-2.41-1.71-4.63-1.32-6,.95-1.06,2.69.45,4.66,2,6.52,1.67,2,3.71,3.38,6.58,2.87,1.15-.2,2.29-1,3.52-.29-3.21.95-6.21,2.5-9.59,2.95-5.87.79-11.31.48-15.51-4.51a10,10,0,0,0-3.9-2.87c-2.13-.87-5.19.1-5.61,2.39a5.44,5.44,0,0,0,.59,4c.32.51.69.95,1.33.71a14.73,14.73,0,0,1,3.8-.37,23.16,23.16,0,0,1,2.74.77c1.26.52,2.67.89,3.29,2.33a26.78,26.78,0,0,0-3.69-1.52c-2.21-.59-4.49-1-6.43.82-1.22,1-1,2.47-.52,3.57,1.78,4.41,5.28,7.13,9.53,9.11-1.2-2.56-2.5-5-1.94-8A4.58,4.58,0,0,1,23,190.09c.52-.24,1.08-.44.52-1.16,1.07,1,2.42.56,3.65.76,2.76.44,4.8,2.26,7,3.69a10.45,10.45,0,0,0,7.14,3.08,6.23,6.23,0,0,1,2.94.2c-4,1.24-7.57.19-10.78-2.42a17.2,17.2,0,0,0-6.14-3.42c-2.26-.63-4.15-.15-5.27,1.37a3.48,3.48,0,0,0-.53,3,11.94,11.94,0,0,0,5.39,8,27.71,27.71,0,0,0,25.76,3.7c3.31-1.11,6-3.35,6.48-7.25l.09-.91c.88,2.28.06,4.22-1.46,5.83-2.58,2.74-6,4-9.55,4.88-1.17.28-1.52.64-1.11,1.91,1.75,5.5,2.86,11.17,4.35,16.74,2.14,8,4.56,16,10.09,22.5s15,10.51,24.07,7.13a2.47,2.47,0,0,0,1.82-1.95c.8-3.89,1.79-7.75,2.4-11.67a255.6,255.6,0,0,0,3.15-32.91c0-1.44.22-2.88.33-4.33a1.39,1.39,0,0,1,.21.11s.05.1.06.15l0,.64.06,1.36.06,1.31q.18,6.1-.09,12.2c-.3,6.48-1.07,12.9-1.95,19.31-.13,1-.49,2,.17,2.91,0,.17.07.33.11.5a5.66,5.66,0,0,0-1.2,2.12c-.12.17-.33.33-.37.52-.73,3-1.44,6-2.15,9.07C88.09,258.19,87.84,259.28,86.64,259.78Z"/><path class="cls-2" d="M221.89,268.73c.61,1.21-.34,1.56-1.13,1.74a166.65,166.65,0,0,1-17.62,3.15c-5.9.67-11.8,1.08-17.72,1.36-3.34.15-6.66.28-10,.34-11.55.21-23.1.27-34.66.25-2.47,0-4.87-.87-7.34-.62-7.4.74-14.75-.4-22.12-.53a112.2,112.2,0,0,1-22.22-3c-1-.21-1.93-.56-2.89-.81s-1.56-.83-1-1.93l.73-.1c.72,1.35,2.17,1.25,3.33,1.48a159.35,159.35,0,0,0,19.16,3,49.1,49.1,0,0,0,9.92-.12l2.58.39c2,.33,3.93-.12,5.92.12a11.5,11.5,0,0,0,4.81-.19c.56-.18,1.13-.35.12-.76.33-.74.9-.72,1.52-.44a18.83,18.83,0,0,0,3.85.8c.39,1.13,1.15.83,2,.66,1.87-.37,3.62.61,5.46.62,4.7,0,9.4.08,14.11,0,2.08,0,4.15.25,6.27-.19,1.21-.25,2.66-1,4,0,.43.31.6-.47.82-.83l1.34-.12a.51.51,0,0,0,.68-.23c.82.19,1.65-.75,2.47,0-.58.82-1.7.63-2.12,1,2.35,0,4.95,0,7.55,0a24.79,24.79,0,0,0,7.27-.95c.24.37.49.34.74,0a.5.5,0,0,0,.27-.05,5.31,5.31,0,0,0,3.41-.06c1.18.94,2.4.07,3.57,0,3-.17,6.09-.61,9.14-.87a98.85,98.85,0,0,0,10.68-1.83c2-.4,4.12-.4,6-1.4C221.2,269.27,221.55,268.57,221.89,268.73Zm-66.26,6.35a6.27,6.27,0,0,0-2.8,0A6.6,6.6,0,0,0,155.63,275.08Z"/><path class="cls-3" d="M98.31,179.83l-.3-.34c.24-1.57,1.5-2,2.75-2.34.64-.2,1.3-.35,1.95-.52,1.15.94,2.77.54,4,1.36l-4.06.59h0c-1.09.32-2.85.09-2.76,1.67a29.3,29.3,0,0,0,1.23,7.76c0,.55.06,1.12.11,1.67.54,6.41,1.14,12.82,1.59,19.24.25,3.55,0,3,3.06,2.3h.37c3.3,0,6.6,0,9.89-.06.87,0,1.79.26,2.61-.28l.15,0H119l.63.13,1.32.17c1.39.2,1.8-.18,1.53-1.72-.74-4.27-1.18-8.6-1.92-12.87-.46-2.67-.55-5.43-1.62-8a31.52,31.52,0,0,0-.92-5.38c-.47-2.52-.52-2.62-3.15-3l-.12-.31c1.51-.27,2.77.71,4.2.82l.06.57a.48.48,0,0,0,.29.68s-.06.08-.06.11a2,2,0,0,0,.08.22,1.47,1.47,0,0,0,.31,1.66c.15.63-.32,1.41.43,1.9a4.6,4.6,0,0,0,.52,3l.13.66c0,.39,0,.78.09,1.16q1.14,7.85,2.3,15.7a20.75,20.75,0,0,0,.29,4.17c.09,1-.29,1.34-1.25,1.26a42.36,42.36,0,0,0-4.35-.29c-3.8.06-7.6.21-11.39.31a4.78,4.78,0,0,0-2.25.59c-1.72.37-2-.73-2.05-2-.41-7.69-1-15.37-2-23-.31-2.24-.07-4.6-1.27-6.67l-.12-.55A.35.35,0,0,0,98.31,179.83Z"/><path class="cls-3" d="M209.18,178.71l-.53.33a2.55,2.55,0,0,0-.65,1.83c-.61,6.13-.69,12.28-1.07,18.41-.24,3.85,0,7.71-.5,11.55-.17,1.28-.68,1.7-1.86,1.38a13.2,13.2,0,0,0-3.81-.32c-.89,0-1.93.4-2.66-.53,1.38-.42,2.8,0,4.19-.22h.58a7.24,7.24,0,0,1,1.33.21c1,.33,1.4.08,1.45-1.05.31-7.55.69-15.1,1-22.66.2-2.48.46-5,.6-7.45.1-1.84-.35-2.23-2.34-2.4h0a3.66,3.66,0,0,0-1.86-.68l-7.66-1.61a5.81,5.81,0,0,1,2.43-1.18c2.78.62,5.57,1.18,8.34,1.86,1.24.31,2.53.73,2.75,2.32Z"/><path class="cls-3" d="M221.89,268.73c-.34-.16-.69.54-1,0-.09-.21-.19-.42-.29-.63s0-.42-.07-.62a31.53,31.53,0,0,0-1.22-5.36c-1.27-3.86-2.59-7.71-3.89-11.56.51-.49-.07-.64-.28-.9a6.32,6.32,0,0,0-.9-4c-1-1.33-1.94-2.72-2.84-4.12a74.83,74.83,0,0,1-3.58-10.91,6.51,6.51,0,0,1-.41-3.27c.63-.14.52.84,1.12.74,0,.2,0,.41,0,.61-.17.17-.17.31.07.41l0,.09c0,.52-.13,1.1.36,1.52l.18.73c-.19.52-.07.89.5,1a.19.19,0,0,0,.07.28,35.93,35.93,0,0,0,3.5,9.1c2.82,5.49,3.07,11.83,5.7,17.39.44.95.58,2.06,1.6,2.67l1.29,4.68c0,.31.07.61.1.92Z"/><path class="cls-3" d="M85.94,268.61l-.73.1c0-.29,0-.58,0-.87a.16.16,0,0,0,0-.27c-.14-1.86.54-3.59.84-5.38.13-.82.4-1.61.6-2.41,1.2-.5,1.45-1.59,1.71-2.68.71-3,1.42-6.05,2.15-9.07,0-.19.25-.35.37-.52l.19.15q-1.17,5.72-2.68,11.36c-.71,2.68-1.18,5.42-1.76,8.14l0,1Z"/><path class="cls-2" d="M221.91,267.5c0-.31-.07-.61-.1-.92A.66.66,0,0,1,221.91,267.5Z"/><path class="cls-4" d="M209.18,178.71l-.21-.19.52.3A1,1,0,0,0,209.18,178.71Z"/><path class="cls-2" d="M85.2,267.57a.16.16,0,0,1,0,.27,1.72,1.72,0,0,1-.07-.21S85.16,267.59,85.2,267.57Z"/><path class="cls-5" d="M146.33,89.34a16.79,16.79,0,0,0,5.61-.21,1.44,1.44,0,0,0,1.51-.59h-3.54c-3.72-.18-6.39-2.24-9-4.89a3.46,3.46,0,0,1,3.17.47,5.36,5.36,0,0,0,6.44.13c1-.68,1.39-.32,1.88.58a5.44,5.44,0,0,0,6.11,2.31c-1.78-.53-3.66-.57-3.91-2.71a25.24,25.24,0,0,0,4.16-.38c3.88-.27,7.63,1.09,11.5.74-.24,1.46.54,2.24,1.73,2.91,3.71,2.1,7.81,2.92,11.9,3.74a18.32,18.32,0,0,0,9.41-.7,48.7,48.7,0,0,1-11.95-4.33c.27-.31.58-.23.92-.16a80.85,80.85,0,0,1,10.91,3.34c5.88,2.23,11.25,5.32,14.85,10.69.67,1,1.73,1.3,2.44,2.17a33.63,33.63,0,0,1,5.2,9.92c.34.94.59,1.82,1.86,1.77a.67.67,0,0,1,.77.85c-.33,1.62,1,2.16,1.93,2.9l.22.26h0c5.8,4.94,11.66,9.81,18.4,13.6a37.78,37.78,0,0,1-13.33-.51c0-.13,0-.27,0-.4a3.56,3.56,0,0,1,.7-.41c1.93-.6,2.13-1.12.71-2.63a13.27,13.27,0,0,0-4.66-3.34l0,0c-.14-.43-.54-.55-.88-.73a21.06,21.06,0,0,0-15.88-2c-1.22.33-1.62,0-1.57-1.22a19.18,19.18,0,0,0-2-9.41,5.81,5.81,0,0,0-.25-1.13c-3.2-7-10.83-13.76-20.07-13.11-6.86.47-13.88,7-14.34,14l-.07.57c-.47.42-.35.94-.25,1.45v4.23a.92.92,0,0,0,.24,1.11l.42,2.26a.62.62,0,0,0,.25.78,17.73,17.73,0,0,0,1.72,4.51c.2.31.56.67.2,1s-.74,0-1.08-.13a20.94,20.94,0,0,0-5.26-1.55l-.67-.14a.46.46,0,0,0-.68-.14l-1-.21a.46.46,0,0,0-.68-.16l-.69-.12a.42.42,0,0,0-.67-.16,3.43,3.43,0,0,0-1.68-.21.72.72,0,0,0-1-.14,19.27,19.27,0,0,0-6.69,0,.42.42,0,0,0-.67.09c-6.29.69-11.9,3.17-17.2,6.47-1.24-.25-.65-1.07-.52-1.71,1.53-7.2,1.23-14-3.92-19.91-2.85-4.66-10.12-7.59-15.73-6.31A18.87,18.87,0,0,0,99,112a21.83,21.83,0,0,0-3.17,10.63,21.58,21.58,0,0,0,.77,8.28c.46,1.47,0,1.56-1.25,1.51-2-.07-4.12-.32-6.07.62l-1.35.42A11.4,11.4,0,0,0,82.18,137l-2,2c-1.29.86-2,2.23-2.91,3.39-1.31,1.68-1,2.36,1.11,3.06A33.32,33.32,0,0,1,65,148a51.81,51.81,0,0,0,7.91-6.48c2.49-2.52,4.64-5.3,6.86-8a2.47,2.47,0,0,0,.74-1.47h.3c1.28-1.52,3-2.91,3-5a32.19,32.19,0,0,1,1.82-9.15c1.56-4.93,4.66-9,7.93-12.87,1.85-2.2,3.51-4.68,6.77-5,.71-.08.73-.75.74-1.32,4.43.39,8.51-1,12.41-2.78,3.17-1.41,6.33-3,8.53-5.94a2.18,2.18,0,0,1,1.76-1.69c4-.83,8-1.77,12.09-2.64a2.54,2.54,0,0,1,2.6.72,15.23,15.23,0,0,0,4.18,3C143.75,89.84,145.1,90.3,146.33,89.34Z"/><path class="cls-6" d="M245.78,102.3c-.16-1-1.05-1.39-1.71-1.94-7.92-6.57-17-11-26.6-14.53a163.13,163.13,0,0,0-34-8.67c-4.22-.61-8.47-1-12.73-1.23-5.56-.36-11.1-.44-16.66-.3A168.68,168.68,0,0,0,99.93,86.22a142.71,142.71,0,0,0-36.7,19.27,73,73,0,0,0-10.31,9.18c-.41.45-.94.81-1.1,1.45h0c-.32.13-.54.31-.36.69l0,0c-.73,0-.83.54-1,1h0l-.31.33c-1.93,2.53-3.43,5.17-2.8,8.59.67,3.68,2.91,6.15,5.77,8.31s6,2.86,9.05,4.32c-6.19-1-11.93-3-15.86-8.14-3.37-4.4-3-9.35-.92-14.2,2.77-6.48,7.45-11.53,12.58-16.2a86.18,86.18,0,0,1,11.9-9l.46-.31h0a10.33,10.33,0,0,0,4.39-1.32c2.91-1.49,5.85-2.91,8.77-4.36l1.06-.39A1.29,1.29,0,0,0,86,84.54a9.75,9.75,0,0,0,1.46-.37c4.18-1.8,8.35-3.56,12.66-5.07a188.52,188.52,0,0,1,35.25-8.91,179.85,179.85,0,0,1,20.06-1.55,138.73,138.73,0,0,1,23.3,1.22c4.76.64,9.51,1.41,14.23,2.26,4,.71,7.83,1.88,11.74,2.85,1.23,1,2.86.77,4.21,1.44,2,1,4.23.86,6.29,1.57.73.26,1.26-.24,1.54-1,11.65,4.74,22.93,10.09,31.66,19.54a20.72,20.72,0,0,1,5.2,9.12,12.32,12.32,0,0,1-3.81,12.54,30.87,30.87,0,0,1-13.05,7.06c1-1.31,2.63-1.6,4-2.37,3.9-2.24,7.48-4.86,9.4-9.07,1.7-3.75,1-7.34-2.7-10.25l-.91-1h0c-.17-.24-.35-.46-.7-.35Z"/><path class="cls-6" d="M112.26,48.73a59.48,59.48,0,0,1,17.53-6.67,77.39,77.39,0,0,1,39.73,1.44c.57.16,1,.68,1.68.53,0,2.06,1.65,2.76,3.11,3.26a72.46,72.46,0,0,1,9.57,4.37c1.46.74,1.47,1.17.17,2.13-.73.54-.76.93.12,1.26a29.45,29.45,0,0,1,6.65,3.82,6.23,6.23,0,0,1,2.57,3.93c-1.39-.55-2.55-1.08-3.76-1.47-.44-.14-1.07-.8-1.45,0s.28,1.14.75,1.53c.29.25.71.36,1,.63.77.8,2.15,1.07,2.19,2.5l-8.43-2.42a9.23,9.23,0,0,0-1.54-.63c-4.32-1-8.58-2.13-12.94-2.93a110.17,110.17,0,0,0-53.68,3.42,88.43,88.43,0,0,0-25.2,12.77,17.9,17.9,0,0,1,1.31-3.9c1.59.08,3-.07,3.61-2a1,1,0,0,1,.46-.48c2.7-1.45,4.84-3.79,7.73-5a30.44,30.44,0,0,0,4-2.52c.42-.25,1-.66.62-1.2s-.87-.19-1.34,0c-1.42.69-2.87,1.33-4.55,2.1.34-1.6.68-2.88,1.75-3.68,1.92-1.44,3.93-2.78,5.93-4.11.66-.43,2.1-.43,1.89-1.27-.27-1.07-1.55,0-2.35-.3.37-1,.35-1,2.59-2.6C113,50.55,113.26,49.74,112.26,48.73Z"/><path class="cls-7" d="M62.21,139.34c-3-1.46-6.31-2.25-9.05-4.32s-5.1-4.63-5.77-8.31c-.63-3.42.87-6.06,2.8-8.59.4.16.2-.24.31-.33h0a1.08,1.08,0,0,0,1-1l0,0a.54.54,0,0,0,.36-.69h0c1.38-.36,2.17-1.53,3.12-2.41A103.18,103.18,0,0,1,69.35,103a145.26,145.26,0,0,1,14.19-8c.34-.17.71-.3,1.36-.58-.26,1-.4,1.71-.66,2.41a105.85,105.85,0,0,0-5.45,26.23,24.49,24.49,0,0,0-.26,4.35c.3,3.81-1.21,6.83-3.81,9.44a5.37,5.37,0,0,0-1,1.11c-1.47,2.87-4,2.63-6.54,2.24A26.06,26.06,0,0,1,62.21,139.34Z"/><path class="cls-5" d="M42.05,39.88c1.91-.92,4-.8,6.28-1.07-2.31-1.4-4.73-1.74-7.11-2.21-.52-.1-1.28.1-1.38-.63s.58-.89,1-1.21c1.9-1.33,3.92-1.14,5.94-.37,1.36.51,2.66,1.17,4.24,1.88C50.53,35,50,34,49.66,32.94c-.93-2.9.16-5.58,2.47-6.35.72-.24,1.06-.2.92.7-.49,3.17,1.28,5.18,3.59,6.9,4,3,8.86,4,13.51,5.39C74.54,40.93,79,42.14,83,44.47a2.08,2.08,0,0,0,1.19,2.21c2.38.75,3.15,2.78,4.23,4.61a4.29,4.29,0,0,0,.67.75c3.32,3.23,2.81,6.77,1.08,9.93a5,5,0,0,1-4.59,2.62c-3.54,0-6.27-1.73-8.62-4-3.66-3.52-7.11-7.25-11.19-10.33-3.27-2.47-6.53-4.93-10.54-6-.94-.26-2.14-1-3.12.14a.82.82,0,0,1-.79,0,.67.67,0,0,0-.8.17l-1.06.11C47.38,44.43,48,46,47.89,47A47.1,47.1,0,0,0,51,68.5c3.61,8.89,9.28,16,18.11,20.19a8.62,8.62,0,0,1,1,.66c-2,2.5-3.3,2.79-5.87,1.22-6.63-4-11.2-9.86-14.39-16.86a58.08,58.08,0,0,1-5-20.94c-.11-1.92.22-3.8.27-5.71a5.4,5.4,0,0,0-.39-2.29c0-.47.28-1.21-.31-1.32C42.33,43.05,42.53,41.26,42.05,39.88Z"/><path class="cls-7" d="M247.36,103.6c3.68,2.91,4.4,6.5,2.7,10.25-1.92,4.21-5.5,6.83-9.4,9.07-1.33.77-2.95,1.06-4,2.37a4.77,4.77,0,0,1-5.71-.78c-2.21-1.9-4.53-3.66-6.79-5.5a2.68,2.68,0,0,1-1.06-1.45,123.72,123.72,0,0,0-13.47-32.49,32,32,0,0,1,6.11,1.82,124.57,124.57,0,0,1,15.83,6.59,65.48,65.48,0,0,1,13.29,8.37,4.56,4.56,0,0,0,.88.45l0,0,.7.35h0C246.44,103.23,246.67,103.63,247.36,103.6Z"/><path class="cls-5" d="M207.67,47.4c5.08-3.11,10.8-4.61,16.38-6.47,3.76-1.25,7.63-2.29,11-4.44a8.9,8.9,0,0,0,3.84-4.74,3.61,3.61,0,0,0,.08-2.47c-.12-.33-.5-.74-.1-1.07s.85,0,1.26.14a5,5,0,0,1,2.78,6c-.23,1-.59,1.92-.89,2.88l-.07.14,0-.15c1.6,0,2.78-1.3,4.35-1.37,2.26.21,2.64.88,1.72,3.08-.9.49-2,.6-2.86,1.45,2.66.59,5.39.52,7.61,2.17.19,1.1.25,2.09-1.41,1.76-.69-.14-1,.27-1,1-2.06.47-2.69,1.19-2.62,3.21.05,1.34.19,2.67.34,4,.81,7.11-.78,13.87-2.9,20.57a43.55,43.55,0,0,1-6,11.75c-.62.9-1.12,1.28-2.1.45a20,20,0,0,0-2.26-1.42,36.39,36.39,0,0,0,6.49-9.78c3.85-8.4,4.73-17.24,3.91-26.33a1.94,1.94,0,0,0-.06-1.28c-.4-.89-1.19-.48-1.71-.36a28.66,28.66,0,0,0-6.63,2.19c-1.77.88-3.48,1.87-5.22,2.81-1.12-.52-2.5-.8-3.37-.09a64.39,64.39,0,0,0-5.87,5.22c-2.74,2.87-5.25,6-8.69,8.1-5.19,3.18-9.69-.1-10.68-4a10.65,10.65,0,0,1,2.66-9.89C206.48,49.53,207.61,48.79,207.67,47.4Z"/><path class="cls-8" d="M224,141.38c2,.58,4,1.25,6.1,1.7,1.05.22,1.07.66.86,1.49a27.18,27.18,0,0,1-6.19,11.6c-5.08,5.71-11.49,9.52-18.32,12.73a185.84,185.84,0,0,1-27.79,9.95,22.45,22.45,0,0,0-6,2.1l5.81-1.47c.89-.26,1.8-.48,2.68-.8a.64.64,0,0,1,.91.4l1,5.14c0,.45,0,.9-.05,1.35-.67-1.43-2-1.68-3.34-1.68-5.25,0-10.22,1.55-15.21,2.88a91.81,91.81,0,0,1-16.73,3.11,61,61,0,0,1-14.81-1.14c-1.44-.24-3.17-1.33-4.45.52a8.86,8.86,0,0,0-2.28,1c-1.54,1.26-1.93.33-2.23-1l0-2.35,0-.34c.33-1.81.65-3.63,1-5.44l.73-.29a68,68,0,0,0,8.89.91,68.11,68.11,0,0,0-7.91-1.24c-9.14-1.49-18.18-3.41-26.85-6.76-8.24-3.19-15.26-8-20.39-15.33-.72-1-.43-1.18.51-1.46a12.6,12.6,0,0,0,1.8-.84c-.38-.48-.87-.12-1.24-.31a2.53,2.53,0,0,0-.59-.26c-1.42-.19-3-.09-3-2.28a.82.82,0,0,0-.93-.76,12.53,12.53,0,0,1,1.84-3.74,6.73,6.73,0,0,0,1.56-2.72l.36-.27,1.72-.67c-.48,1.57-1.85,2.63-2.32,4.21-.19.63-.58,1.17.53,1.2s1.14.63.71,1.46c-.62,1.19-.16,1.62,1.09,1.57a9.43,9.43,0,0,1,4,.67c-.78.79-2,.44-3,1,1.1.92,2-.24,2.91,0,.12.76-.59.68-1,.94-2,1.39-2.17,2.24-.8,4.16a35.05,35.05,0,0,0,11,9.45c5.6,3.31,11.9,4.79,18,6.63a59.5,59.5,0,0,0,8.58,2.06c4.92.69,9.81,1.52,14.72,2.25,6.75,1,13.53,1.06,20.3,1.46,1.5.08,3-.74,4.56-.92a99.27,99.27,0,0,0,15.72-2.86c5-1.44,10-3.18,14.85-5,7.59-2.84,15.1-5.82,22-10.21a41.41,41.41,0,0,0,13.11-13.36c1.36-2.19.56-5.09-1.39-6.82-.67-.6-1.78-.5-2.14-1.48Z"/><path class="cls-9" d="M220.24,117.89c-1-.74-2.26-1.28-1.93-2.9a.67.67,0,0,0-.77-.85c-1.27,0-1.52-.83-1.86-1.77a33.63,33.63,0,0,0-5.2-9.92c-.71-.87-1.77-1.16-2.44-2.17-3.6-5.37-9-8.46-14.85-10.69a80.85,80.85,0,0,0-10.91-3.34c-.34-.07-.65-.15-.92.16-2.36-.94-4.47-2.46-7-3a3.62,3.62,0,0,0-4.09,1.42c-3.87.35-7.62-1-11.5-.74a25.24,25.24,0,0,1-4.16.38c-.69-1.33.2-2.48.43-3.7l.07-.14-.06.15a1.57,1.57,0,0,0-1.48.63,1.3,1.3,0,0,1-1.46.46c-.86-.25-1.42.49-2,1-2,1.69-2.94,1.68-4.74-.16a2,2,0,0,0-2-.62c-2.19.27-4.4.25-5.9-1.9-.74-1-.62-1.59.71-1.73,2.06-.22,4.11-.51,6.18-.67a224.12,224.12,0,0,1,26.43-.27,138.44,138.44,0,0,1,20.42,2.79c4.74.91,9.39,2.09,14,3.29a2.42,2.42,0,0,1,1.67,1,123.94,123.94,0,0,1,9.24,17.74,106.32,106.32,0,0,1,4.83,14.33c.15.59.71,1.35-.48,1.53h0Z"/><path class="cls-9" d="M101.1,98.56c0,.57,0,1.24-.74,1.32-3.26.36-4.92,2.84-6.77,5-3.27,3.9-6.37,7.94-7.93,12.87a32.19,32.19,0,0,0-1.82,9.15c0,2.12-1.73,3.51-3,5-.12-.19-.22-.12-.32,0h0c-.84.06-.7-.56-.66-1,1.14-12.51,2.49-25,7.47-36.7A3,3,0,0,1,89,92.5a169,169,0,0,1,32.9-11.11c3.82-.89,7.65-1.68,11.53-2.22a1.67,1.67,0,0,1,2,1,19.94,19.94,0,0,0,10.94,9.22c-1.23,1-2.58.5-3.66-.06a15.23,15.23,0,0,1-4.18-3,2.54,2.54,0,0,0-2.6-.72c-4,.87-8,1.81-12.09,2.64A2.18,2.18,0,0,0,122,89.84c.31-1.91-1-2.45-2.56-2.39a7.1,7.1,0,0,0-2.56.72,22.32,22.32,0,0,0-4.3,2.89c-3.61,2.64-7.22,5.28-11.47,6.83C100.56,98.11,100.2,98.27,101.1,98.56Z"/><path class="cls-10" d="M90.31,76.16a88.43,88.43,0,0,1,25.2-12.77A110.17,110.17,0,0,1,169.19,60c4.36.8,8.62,2,12.94,2.93a9.23,9.23,0,0,1,1.54.63,3.43,3.43,0,0,0-.34.06c-.24.06-.4,0,0,.28,1.66,1.13,3.6,1.42,5.45,2,1.18.37,2.61.64,2.55,2.39H191a.59.59,0,0,0-.68-.3c-15.37-3.06-30.87-3.53-46.46-2.42a168.66,168.66,0,0,0-37.42,7.4c-5.26,1.62-10.35,3.71-15.47,5.73-.46.18-1,.89-1.46.3s0-1.08.22-1.59S90.11,76.56,90.31,76.16Z"/><path class="cls-11" d="M70.09,89.35a8.62,8.62,0,0,0-1-.66C60.3,84.46,54.63,77.39,51,68.5A47.24,47.24,0,0,1,47.88,47c.7-.53,1.18-.17,1.76.3A63.33,63.33,0,0,1,55.35,53C59.2,56.89,62.3,61.43,66,65.44c.65.7.88,1.39-.26,2a2.32,2.32,0,0,0-1.1,2,8.4,8.4,0,0,0,1.06,4.83c1.91,3.51,4.75,6.14,7.79,8.66,1.16,1,2.86,1.11,3.63,2.57C74.79,86.74,72.65,88.43,70.09,89.35Z"/><path class="cls-8" d="M77.15,85.46c-.77-1.46-2.47-1.61-3.63-2.57-3-2.52-5.88-5.15-7.79-8.66a8.4,8.4,0,0,1-1.06-4.83,2.32,2.32,0,0,1,1.1-2c1.14-.59.91-1.28.26-2-3.73-4-6.83-8.55-10.68-12.47a63.33,63.33,0,0,0-5.71-5.64c-.58-.47-1.06-.83-1.76-.3.1-1.06-.5-2.6,1.58-2.32A55.45,55.45,0,0,1,59.6,49.4c8,5.12,14.26,12,19.69,19.74,2.39,3.39,4.47,7,6.53,10.58.29.5.82,1-.15,1.44C82.81,82.55,80,84,77.15,85.46Z"/><path class="cls-11" d="M245.28,47.74c.82,9.09-.06,17.93-3.91,26.33a36.39,36.39,0,0,1-6.49,9.78l-7.71-4a12.06,12.06,0,0,1,2.89-5.48c1-1.2,2-5,.87-6.08-1.3-1.24-.58-2.15,0-3.16a90.34,90.34,0,0,1,10-13.65A12.79,12.79,0,0,1,245.28,47.74Z"/><path class="cls-8" d="M245.28,47.74a12.79,12.79,0,0,0-4.37,3.69,90.34,90.34,0,0,0-10,13.65c-.57,1-1.29,1.92,0,3.16,1.1,1.06.11,4.88-.87,6.08a12.06,12.06,0,0,0-2.89,5.48c-4.22-1.92-8.44-3.86-12.81-5.41-1.25-.44-.49-1-.19-1.47a79.29,79.29,0,0,1,11.22-14,57,57,0,0,1,11.09-9.22,22.21,22.21,0,0,1,7.92-3.1l.44-.11.38,0A1.94,1.94,0,0,1,245.28,47.74Z"/><path class="cls-11" d="M84.58,85.39l-1.06.39c-.62-.75-1.67.08-2.31-.63A159.2,159.2,0,0,1,115.51,72,157.1,157.1,0,0,1,143.31,67a180.28,180.28,0,0,1,29.3,0,164.39,164.39,0,0,1,32.55,6c.85.25,1.68.59,2.52.9-.66,1.38-2.18.19-3,1-3.91-1-7.78-2.14-11.74-2.85-4.72-.85-9.47-1.62-14.23-2.26a138.73,138.73,0,0,0-23.3-1.22,179.85,179.85,0,0,0-20.06,1.55,188.52,188.52,0,0,0-35.25,8.91c-4.31,1.51-8.48,3.27-12.66,5.07a8.65,8.65,0,0,1-1.46.36C85.3,84.49,84.75,84.62,84.58,85.39Z"/><path class="cls-9" d="M52.11,44.38c1-1.16,2.18-.4,3.12-.14,4,1.1,7.27,3.56,10.54,6C69.85,53.35,73.3,57.08,77,60.6c2.35,2.26,5.08,4,8.62,4A5,5,0,0,0,90.17,62c1.73-3.16,2.24-6.7-1.08-9.93a4.29,4.29,0,0,1-.67-.75c-1.08-1.83-1.85-3.86-4.23-4.61A2.08,2.08,0,0,1,83,44.47c6,2.44,10.57,6.67,14.5,11.67a1.91,1.91,0,0,1,.18,2.61,57.81,57.81,0,0,0-9.59,19A9.61,9.61,0,0,1,87.44,79C85.84,77.45,85,75.53,84,73.76A82.94,82.94,0,0,0,71.44,57.14c-5.17-5.23-11-9.54-18.11-11.9-.42-.14-.81-.35-1.22-.52.19-.11.4-.22,0-.38Z"/><path class="cls-9" d="M207.67,47.4c-.06,1.39-1.19,2.13-2,3a10.65,10.65,0,0,0-2.66,9.89c1,3.93,5.49,7.21,10.68,4,3.44-2.1,6-5.23,8.69-8.1A64.39,64.39,0,0,1,228.29,51c.87-.71,2.25-.43,3.37.09-.63,1.26-1.9,1.86-2.91,2.7a81.3,81.3,0,0,0-15.53,18,2.4,2.4,0,0,1-3.11,1.2c-3.06-.71-5.05-2.15-6.16-5.24a28.82,28.82,0,0,0-5.28-8.36c-1.88-2.26-1.84-2.87.19-5.1A32.9,32.9,0,0,1,207.67,47.4Z"/><path class="cls-12" d="M195.45,175.52l7.66,1.61a3.66,3.66,0,0,1,1.86.68c-1.3.72-.62,2-.89,3.05a.6.6,0,0,0,.39.22c.33,0,.45-.3.45-.6,0-.89,0-1.78,0-2.68,2,.17,2.44.56,2.34,2.4-.14,2.49-.4,5-.6,7.45-.85-.74-1.86-.29-2.79-.36h-.59l-1-.06,0-.65a5.74,5.74,0,0,0-8.76,0c-.51.64-.87,1.44-1.77,1.65a5.57,5.57,0,0,0,0-1c-.06-.43.31-1.2-.44-1.18s-.37.8-.5,1.25l-2.66,0c.21-2,.43-4.1.62-6.16.1-1,.61-2.06.16-3.13l.12-.57,2.1-.59c.13.25.37.26.61.26l.14,2.43a4.82,4.82,0,0,0,.54-2.72l1.06-.75A3.48,3.48,0,0,1,195.45,175.52Zm8.84,7.2c-.22,1-.85,2-.21,3.44A4.28,4.28,0,0,0,204.29,182.72Zm-12.55,1.71c0-1,.51-1.85.09-2.77,0,0-.26-.07-.28,0a3.68,3.68,0,0,0-.21,2.67S191.43,184.33,191.74,184.43Z"/><path class="cls-5" d="M192.1,66c0-1.43-1.42-1.7-2.19-2.5-.27-.27-.69-.38-1-.63-.47-.39-1.09-.85-.75-1.53s1-.1,1.45,0c1.21.39,2.37.92,3.76,1.47a6.23,6.23,0,0,0-2.57-3.93,29.45,29.45,0,0,0-6.65-3.82c-.88-.33-.85-.72-.12-1.26,1.3-1,1.29-1.39-.17-2.13a72.46,72.46,0,0,0-9.57-4.37c-1.46-.5-3.1-1.2-3.11-3.26,5.19,1.39,9.82,4,14.46,6.59a39.39,39.39,0,0,1,14.78,13.87c1.15,1.9,2.47,3.75,2.71,6.07-.58-.22-1.16-.42-1.73-.65A61.29,61.29,0,0,1,193,66.25a.71.71,0,0,0-.85-.33Z"/><path class="cls-12" d="M101.05,188a29.3,29.3,0,0,1-1.23-7.76c-.09-1.58,1.67-1.35,2.76-1.67-.86,1-.23,1.89.2,2.8.41-1,0-1.87-.17-2.8l4.06-.59.45.08a.69.69,0,0,0,.77.41,52,52,0,0,1,6.16,1.45,11.35,11.35,0,0,0,1.17,4.11c.39-1.33-.3-2.51-.38-3.76,2.63.35,2.68.45,3.15,3a31.52,31.52,0,0,1,.92,5.38c-1-.25-1.47.74-2.27,1-.56-.51-.65-.09-.73.36-.68,0-1-.25-1.38-.9a6.08,6.08,0,0,0-5.28-3.46,4.33,4.33,0,0,0-4.34,2.44c-.23.62.15,1.36-.4,1.91-.25-.89.08-2-1-2.59C102.7,187.58,101.34,185.8,101.05,188ZM103,183c-.23,1.39-.28,2.32.55,3.08A3.28,3.28,0,0,0,103,183ZM116.08,188a4.49,4.49,0,0,0-.57-3C115.13,186.41,115.3,187.27,116.08,188Z"/><path class="cls-5" d="M112.26,48.73c1,1,.76,1.82-.34,2.6-2.24,1.59-2.22,1.61-2.59,2.6.8.27,2.08-.77,2.35.3.21.84-1.23.84-1.89,1.27-2,1.33-4,2.67-5.93,4.11-1.07.8-1.41,2.08-1.75,3.68,1.68-.77,3.13-1.41,4.55-2.1.47-.23,1-.56,1.34,0s-.2,1-.62,1.2a30.44,30.44,0,0,1-4,2.52c-2.89,1.17-5,3.51-7.73,5a1,1,0,0,0-.46.48c-.56,1.88-2,2-3.61,2a45.54,45.54,0,0,1,19.73-23.11A8.27,8.27,0,0,1,112.26,48.73Z"/><path class="cls-4" d="M189,177.43l-.12.57a1.19,1.19,0,0,0-.8,1.15c-.35,3.83-.72,7.66-1.08,11.5-.32,3.5-.64,7-.93,10.5-.27,3.17-.47,6.34-.75,9.51-.11,1.22.49,1.5,1.51,1.25a15.11,15.11,0,0,1,3.8-.34c1.65,0,3.33.43,5-.23l2.48,0c.73.93,1.77.55,2.66.53a13.2,13.2,0,0,1,3.81.32c1.18.32,1.69-.1,1.86-1.38.52-3.84.26-7.7.5-11.55.38-6.13.46-12.28,1.07-18.41a2.55,2.55,0,0,1,.65-1.83c0,.46,0,.93,0,1.4l-.12.76s-.1.05-.1.08a1,1,0,0,0,0,.24l-.1,1.07a.14.14,0,0,0,0,.21c-.15,2-.38,3.91-.44,5.86-.31,9.52-1.63,19-.51,28.58.42,3.58.21,7.26,1.08,10.82-.6.1-.49-.88-1.12-.74h0l-.09-.32c0-.19-.06-.37-.08-.56.47-2.18-.45-4.27-.37-6.43-.25,1.56-.31,3.12-.57,4.65-.15.94,0,2-1,2.72a14.06,14.06,0,0,0,.46-2.12c.22-3.35.44-6.7.55-10a2.7,2.7,0,0,0-2.95-2.76c-5.2-.1-10.41-.19-15.62-.24-2.22,0-3.24,1-3.3,3.31-.1,3.19-.15,6.38-.24,9.57a5.53,5.53,0,0,0,.54,2.6c-1-.37-1-1.27-1-2.1,0-2.8.05-5.6.06-8.4,0-.63.27-1.38-.53-1.79l-.57-.31c-.44-.29-.62,0-.76.36l-.65.12c-.26-.32-.9.22-1-.46l.45-.47a4.41,4.41,0,0,0,4.31-4.39c0-5.44.74-10.83,1.11-16.24.24-3.49.67-7,.91-10.5l.6-5.07A1.21,1.21,0,0,1,189,177.43Z"/><path class="cls-9" d="M125,181.14c-.33,1.81-.65,3.63-1,5.44,0,0-.13.06-.13.08a1.29,1.29,0,0,0,.08.26c0,.78,0,1.56,0,2.35-1,.86-2,1.52-3.28.36l-.13-.66c.69-1.16,0-2.09-.52-3-.75-.49-.28-1.27-.43-1.9a1.93,1.93,0,0,0-.31-1.66,2,2,0,0,1-.08-.22s0-.07.06-.11a.61.61,0,0,0-.29-.68l-.06-.57C121,180.17,123,181,125,181.14Z"/><path class="cls-5" d="M79.46,146.06a6.73,6.73,0,0,1-1.56,2.72,12.53,12.53,0,0,0-1.84,3.74,2.18,2.18,0,0,0-1.25,2.31C75,155.92,76,156,76.92,156a1.25,1.25,0,0,1,1.24.65,35.87,35.87,0,0,1-6.77,2.16c.52-1.2.87-2.11,1.3-3,1.08-2.21,2.27-4.38,2.45-6.91a1.41,1.41,0,0,1,1-1.22Z"/><path class="cls-8" d="M224.83,131.66l2.64,1a4.59,4.59,0,0,0,.91,1.75c1.12,1.28,2.21,2.6,3.32,3.9-1.23,2.58-1.61,2.73-4.86,2,.33-1.2,1.37-.06,2-.64-.72-.65-1.41-1.26-2.07-1.9-.35-.33-.89-.76-.4-1.25.82-.82.21-1.26-.29-1.79l-3.3-3.45Z"/><path class="cls-9" d="M187.7,178.44l-.6,5.07c-1.07,1.81-2.59,1.05-4,.71l-1-5.14c1.24-.3,2.47-.63,3.72-.9A2.1,2.1,0,0,1,187.7,178.44Z"/><path class="cls-5" d="M231.7,138.28c-1.11-1.3-2.2-2.62-3.32-3.9a4.59,4.59,0,0,1-.91-1.75c1.91.18,3.42.78,4.34,2.74a23.7,23.7,0,0,0,4.95,6.3c.44.46,1.08.81,1.2,1.74a55.23,55.23,0,0,1-7-1.3c.15-1,1.07-.6,1.6-.9s1.05-.06,1.11-.78a1.2,1.2,0,0,0-.85-1.43A5.41,5.41,0,0,1,231.7,138.28Z"/><path class="cls-4" d="M193,66.25a61.29,61.29,0,0,0,8.44,3.66c.57.23,1.15.43,1.73.65-.11.66-.55.41-.88.3-3.59-1.17-7.34-1.67-11-2.61.06-1.75-1.37-2-2.55-2.39-1.85-.57-3.79-.86-5.45-2-.36-.24-.2-.22,0-.28a3.43,3.43,0,0,1,.34-.06L192.1,66l0,0C192.28,66.37,192.62,66.32,193,66.25Z"/><path class="cls-9" d="M42.05,39.88c.48,1.38.28,3.17,2.36,3.57.59.11.3.85.31,1.32-1.88-1.29-3.71-.62-5.56.13-1.37.56-1.66.32-1.49-1.17C37.86,42.08,39.74,40.43,42.05,39.88Z"/><path class="cls-8" d="M204.66,75c.84-.83,2.36.36,3-1a36.69,36.69,0,0,1,7.46,2.61,11.71,11.71,0,0,0,1.56.47c-.28.71-.81,1.21-1.54,1-2.06-.71-4.32-.59-6.29-1.57C207.52,75.74,205.89,76,204.66,75Z"/><path class="cls-8" d="M81.21,85.15c.64.71,1.69-.12,2.31.63-2.92,1.45-5.86,2.87-8.77,4.36a10.33,10.33,0,0,1-4.39,1.32A85.64,85.64,0,0,1,81.21,85.15Z"/><path class="cls-6" d="M231.7,138.28a5.41,5.41,0,0,0,1.09.72,1.2,1.2,0,0,1,.85,1.43c-.06.72-.7.55-1.11.78s-1.45-.07-1.6.9l-.68-.07a1,1,0,0,0-1.09-.23c-1.74,0-3.41-1-5.2-.43l-.84.08a7.43,7.43,0,0,1-2.78-1c2.44-.13,4.44-.69,6.49-.18C230.09,141,230.47,140.86,231.7,138.28Z"/><path class="cls-8" d="M78.34,145.46c-2.11-.7-2.42-1.38-1.11-3.06.91-1.16,1.62-2.53,2.91-3.39,0,1.37-1.36,2-1.72,3.2-.13.44-.38.83,0,1.24a.94.94,0,0,0,1.09.15,4.58,4.58,0,0,1,2.49-.06c.3.07.74.16.76.56s-.38.63-.8.71c-1.29-.84-2.2.29-3.26.62Z"/><path class="cls-9" d="M248.11,39c.92-2.2.54-2.87-1.72-3.08a6.35,6.35,0,0,1,5.72.68c.34.21.71.44.71.86,0,.58-.57.66-1,.76C250.62,38.47,249.36,38.69,248.11,39Z"/><path class="cls-6" d="M78.16,156.6a1.25,1.25,0,0,0-1.24-.65c-.93.05-1.88,0-2.11-1.12a2.18,2.18,0,0,1,1.25-2.31.82.82,0,0,1,.93.76c-.06,2.19,1.55,2.09,3,2.28a2.53,2.53,0,0,1,.59.26Z"/><path class="cls-9" d="M250.44,45.28c0-.68.32-1.09,1-1,1.66.33,1.6-.66,1.41-1.76a3.83,3.83,0,0,1,2.29,3.09c.13.79-.18,1.27-1,.7A8.1,8.1,0,0,0,250.44,45.28Z"/><path class="cls-7" d="M126.72,180.52a68.11,68.11,0,0,1,7.91,1.24,68,68,0,0,1-8.89-.91C126.07,180.74,126.49,180.92,126.72,180.52Z"/><path class="cls-2" d="M114.84,180.28c.08,1.25.77,2.43.38,3.76a11.35,11.35,0,0,1-1.17-4.11.53.53,0,0,1,.67,0Z"/><path class="cls-6" d="M178.48,179.48,172.67,181a22.45,22.45,0,0,1,6-2.1C178.57,179.06,178.52,179.27,178.48,179.48Z"/><path class="cls-7" d="M224.83,131.66l-2-.37h0c0-.2-.17-.25-.35-.22l-1.27-.64c1.47-.36,2.83.51,4.28.42l0,.4C225.26,131.33,224.92,131.28,224.83,131.66Z"/><path class="cls-7" d="M78.7,145.43c1.06-.33,2-1.46,3.26-.62l-.07,0-.35.27h0l-1.72.67C79.59,145.22,79.07,145.57,78.7,145.43Z"/><path class="cls-9" d="M149.91,88.54h3.54a1.44,1.44,0,0,1-1.51.59C151.39,88.5,150.48,89.11,149.91,88.54Z"/><path class="cls-3" d="M191.75,177.1c-.24,0-.48,0-.61-.26a4.45,4.45,0,0,1,2.35-.78l-1.06.75A.6.6,0,0,0,191.75,177.1Z"/><path class="cls-3" d="M107.89,178.48a.69.69,0,0,1-.77-.41C107.63,177.71,107.68,178.26,107.89,178.48Z"/><path class="cls-5" d="M229.16,141.81a1,1,0,0,1,1.09.23A1.23,1.23,0,0,1,229.16,141.81Z"/><path class="cls-9" d="M50.52,44.6a.67.67,0,0,1,.8-.17A.86.86,0,0,1,50.52,44.6Z"/><path class="cls-5" d="M244.84,46.48l-.44.11Z"/><path class="cls-5" d="M52.15,44.34c.36.16.15.27,0,.38C52.12,44.59,52.14,44.47,52.15,44.34Z"/><path class="cls-13" d="M244.57,34.8c-.58.26-.49,0-.35-.41C244.34,34.53,244.46,34.66,244.57,34.8Z"/><path class="cls-8" d="M70.37,91.47l-.46.31Z"/><path class="cls-4" d="M190.3,68a.59.59,0,0,1,.68.3Z"/><path class="cls-5" d="M218.72,241.38c0-.13,0-.26,0-.39l-.28-.5c-1.52-10.53,2-20,6.1-29.39,3-6.88,6.2-13.7,9.22-20.58,2.21-5,5.59-8.72,11-10.4a19.86,19.86,0,0,0,9.11-5.83,5.35,5.35,0,0,1,4-2c2.23-.05,3.35.84,3.87,3.1a1,1,0,0,0-1,.69c-1.16,4.19-4.32,5.81-8.25,6.41-.5.07-.88.15-.92.73l-2.05-.1c8.73,3.43,17.36,4.9,25.88-.47a8.79,8.79,0,0,1,2.37-1.24c.53.46,1.67.22,1.69,1.14s-1,1.07-1.62,1.48a23.6,23.6,0,0,1-7.7,3.2c-3.29.8-6.52,1.72-10,1.4-.84-.08-2.19-.17-2.21,1.54,0,2.6-1.6,4-4.24,4.13a6,6,0,0,0-2.65.26c-.73.35-1.07.89-.67,1.62.67,1.23,3.25,1.61,4.34.7,3.6.84,6.48-.68,9.29-2.67a20.4,20.4,0,0,1,7-3.4,4.51,4.51,0,0,1,5.17,1.73c-.38.75-.78,1.49-1.12,2.26-1.26,2.89-2.71,5.43-5.81,7-6.77,3.37-13.78,4.81-21.25,3.57-2.09-.35-4.43.24-6.24-1.41-.32-.29-.63,0-.79.33-1.64-.93-2-2.72-2.81-4.63-.05.74-.07,1.06-.09,1.38-1.19.62-1,1.81-.94,2.76.19,4.89,2.59,8.79,5.71,12.36a5.59,5.59,0,0,1,1.57,3.11,85.76,85.76,0,0,1,.35,10.14c0,.42-.09.89-.59,1.07l-2.87-2.08c-.32-.23-.66-.54-1-.17s-.08.75.12,1.07a4.85,4.85,0,0,0,2.92,2.36c.5.14,1.45.39.91,1-1.58,1.76-1.43,4.22-2.73,6.08a5.36,5.36,0,0,0-1.13,2,15.4,15.4,0,0,1-1.72,5.16c-2.59,4-8.89,6.47-13.3,3.69C222.26,247.66,219.19,245.48,218.72,241.38Z"/><path class="cls-9" d="M218.72,241.38c.47,4.1,3.54,6.28,6.57,8.2,4.41,2.78,10.71.26,13.3-3.69a15.4,15.4,0,0,0,1.72-5.16,5.36,5.36,0,0,1,1.13-2c1.3-1.86,1.15-4.32,2.73-6.08.54-.59-.41-.84-.91-1a4.85,4.85,0,0,1-2.92-2.36c-.2-.32-.48-.72-.12-1.07s.72-.06,1,.17l2.87,2.08c.5-.18.57-.65.59-1.07a85.76,85.76,0,0,0-.35-10.14,5.59,5.59,0,0,0-1.57-3.11c-3.12-3.57-5.52-7.47-5.71-12.36,0-.95-.25-2.14.94-2.76,1.28,4.47,4.59,6.54,8.85,7.46a18,18,0,0,0,3.27.64c1.59,0,1.81.82,1.69,2.17q-.41,4.68-.63,9.38c-.41,8.65-1.2,17.24-5,25.18s-9.57,13.34-18.55,14.68a13,13,0,0,1-7.47-1.45,1.81,1.81,0,0,1-.89-1.34,117.21,117.21,0,0,1-4.95-23.45,176.56,176.56,0,0,1-.91-21.81c1,.13,1,.87,1,1.63A26.87,26.87,0,0,0,215,221c.18.81.34,1.69,1.33,1.6.76-.06,1.72-.18,1.8-1.37.07-.88.65-.92,1.33-.57a40.09,40.09,0,0,0-1.93,16.19C217.68,238.35,217.36,240.11,218.72,241.38Z"/><path class="cls-5" d="M219.46,220.61c-.68-.35-1.26-.31-1.33.57-.08,1.19-1,1.31-1.8,1.37-1,.09-1.15-.79-1.33-1.6a26.87,26.87,0,0,1-.6-6.81c0-.76,0-1.5-1-1.63v-.63a9,9,0,0,0,0-5.09c0-.56,0-1.11,0-1.67.52-.65.29-1.35.2-2.12-.79.63-.56,1.44-.56,2.19a110.6,110.6,0,0,0-1,19.16c.07,1.78.18,3.56.26,5.34-1.31.1-2.12,1.14-3.17,1.73l-.18-.73.15-.06.1-.08-.13-.06-.48-1.32,0-.09-.07-.41c0-.2,0-.41,0-.61-.87-3.56-.66-7.24-1.08-10.82-1.12-9.58.2-19.06.51-28.58.06-1.95.29-3.9.44-5.86h.12l.11-.06c.32,2.41-.22,4.79-.25,7.19,0,.4-.24,1.06.34,1.15s.77-.6.88-1.05a11.49,11.49,0,0,1,1-2.84c1.32-2.47,3.51-2.65,5.14-.38.49.68.92,1.28,1.88,1,1.89,2.09,2.69,4.76,3.75,7.27a104.49,104.49,0,0,1,3.6,10.67,2.59,2.59,0,0,1-.25,1.9C222.82,211.94,220.92,216.18,219.46,220.61Z"/><path class="cls-9" d="M254.65,196.92c-1.09.91-3.67.53-4.34-.7-.4-.73-.06-1.27.67-1.62a6,6,0,0,1,2.65-.26c2.64-.1,4.22-1.53,4.24-4.13,0-1.71,1.37-1.62,2.21-1.54,3.46.32,6.69-.6,10-1.4a23.6,23.6,0,0,0,7.7-3.2c.62-.41,1.64-.57,1.62-1.48s-1.16-.68-1.69-1.14a7.42,7.42,0,0,1,5.91-1.26,3.17,3.17,0,0,1,2.5,4.75,1.93,1.93,0,0,1-2.11,1.29c-3.83-.46-7.14.86-10.22,3a1.91,1.91,0,0,1-1.06.43c-3.5,0-6.32,1.74-9.07,3.6s-5.43,3.55-8.95,3.19C253.66,196.31,254.61,196.74,254.65,196.92Z"/><path class="cls-9" d="M240.93,204.3c.16-.35.47-.62.79-.33,1.81,1.65,4.15,1.06,6.24,1.41,7.47,1.24,14.48-.2,21.25-3.57,3.1-1.54,4.55-4.08,5.81-7,.34-.77.74-1.51,1.12-2.26,1.54,2.88,0,5.24-1.48,7.43-2.83,4.09-7.2,5.72-11.83,6.74a46.34,46.34,0,0,1-14.84.92A10.45,10.45,0,0,1,240.93,204.3Z"/><path class="cls-5" d="M277.33,192.35c-.86-.78-1.34-1.93-2.52-2.4,2.42-2.52,8.23-3.44,11.14-1.85a2.68,2.68,0,0,1,1.31,1.46,15.64,15.64,0,0,1-4.18,5.36c-1.8,1.53-2.73,1.35-3.8-.67-.21-.39-.43-.79-.6-1.2A1.07,1.07,0,0,0,277.33,192.35Z"/><path class="cls-9" d="M277.33,192.35a1.07,1.07,0,0,1,1.35.7c.17.41.39.81.6,1.2,1.07,2,2,2.2,3.8.67a15.64,15.64,0,0,0,4.18-5.36c1,2.05.25,3.89-1,5.48-2.94,3.82-7,6-11.94,7.49C277,199.35,278.77,196.28,277.33,192.35Z"/><path class="cls-9" d="M217.56,187.83c-1,.27-1.39-.33-1.88-1-1.63-2.27-3.82-2.09-5.14.38a11.49,11.49,0,0,0-1,2.84c-.11.45-.27,1.15-.88,1.05s-.35-.75-.34-1.15c0-2.4.57-4.78.25-7.19a.31.31,0,0,0-.21-.16c0-.36.06-.72.1-1.07l.06-.32.12-.76a5.41,5.41,0,0,1,3.67,1.35A13.28,13.28,0,0,1,217.56,187.83Z"/><path class="cls-9" d="M209.15,231.42c1-.59,1.86-1.63,3.17-1.73.41,3.83.81,7.67,1.24,11.5,0,.33,0,.53-.34.65a35.93,35.93,0,0,1-3.5-9.1c.18-.11.33-.22.13-.44l-.2.16C209.08,232.31,209,231.94,209.15,231.42Z"/><path class="cls-9" d="M251.49,183.26c0-.58.42-.66.92-.73,3.93-.6,7.09-2.22,8.25-6.41a1,1,0,0,1,1-.69c.1,4-2.88,7.95-6.75,8.51C253.85,184.09,252.65,183.5,251.49,183.26Z"/><path class="cls-9" d="M213.45,206.79a9,9,0,0,1,0,5.09C213.42,210.18,213.43,208.49,213.45,206.79Z"/><path class="cls-9" d="M213.07,205.19c0-.75-.23-1.56.56-2.19.09.77.32,1.47-.2,2.12Z"/><path class="cls-9" d="M218.45,240.49l.28.5C218.63,240.83,218.54,240.66,218.45,240.49Z"/><path class="cls-5" d="M34.32,174.42c1.38-2.27,3.6-2.66,6-.95,2.1,1.48,3.86,3.44,6.39,4.28,1.54.51,3,1.18,4.6,1.59a17.13,17.13,0,0,1,11.11,8.57c5.22,9.33,11.15,18.26,15.91,27.86A63.59,63.59,0,0,1,84,231c-.11.37-.39.77-.31,1.1a18.87,18.87,0,0,1,.41,5.08c-.11,2.08-.26,4.18-1.62,5.85-1.18,1.44-2.15,2.93-4.56,3.14-1.58.14-2-.15-2.62-1.26a4.63,4.63,0,0,0-3.43-2.67,1.1,1.1,0,0,0-1.21.38c-.33.55.21.78.45,1.13s1,.61.82,1.44A16.92,16.92,0,0,1,65.72,241a30.29,30.29,0,0,1-5.82-7.94c-1-2-1.1-2,1-3a3.16,3.16,0,0,0,1.67-2.17.8.8,0,0,0-.32-1c-.38-.22-.62.08-.88.28a13.08,13.08,0,0,0-3.46,3.18c-1.27-3.24-1-6.45-1-9.63a11.11,11.11,0,0,1,1.31-5c1.73-3.6,3.42-7.15,3.19-11.41-.13-2.17-1.34-4-1.39-6.06,0-.32-.32-.92-.74-.71-.59.28-.41.8,0,1.21l-.09.91c-.58,0-.85.38-1.21.76a11.35,11.35,0,0,1-3.17,2.71,22.23,22.23,0,0,1-13.26,1.65A30.47,30.47,0,0,1,26,197.93c-1.82-1.52-3.42-3.27-3.88-5.74,1.12-1.52,3-2,5.27-1.37a17.2,17.2,0,0,1,6.14,3.42c3.21,2.61,6.73,3.66,10.78,2.42h.17c1,0,2.39-.09,2.41-1.15s-1.35-.8-2.22-.86c-4.23-.31-5.53-1.21-6.27-4.32-.09-.34.12-.9-.46-.91s-.6.48-.73.84c-.51,1.51-1.13,2.9-3,3.11-2.25-1.43-4.29-3.25-7-3.69-1.23-.2-2.58.21-3.65-.76h0c-.62-1.44-2-1.81-3.29-2.33a21.36,21.36,0,0,0-2.74-.76,1,1,0,0,0-.94-1.19c-1.51-.13-2.36-1.18-3.31-2.12-.43-.43-.78-1-1.47-1.06.42-2.29,3.48-3.26,5.61-2.39a10,10,0,0,1,3.9,2.87c4.2,5,9.64,5.3,15.51,4.51,3.38-.45,6.38-2,9.59-2.95a2.89,2.89,0,0,0,1.94-.8c-.78-.3-1.21-.91-2.18-.75C40.58,182.87,36.12,179.84,34.32,174.42Z"/><path class="cls-9" d="M59.3,198.77c-.42-.41-.6-.93,0-1.21.42-.21.73.39.74.71,0,2.11,1.26,3.89,1.39,6.06.23,4.26-1.46,7.81-3.19,11.41a11.11,11.11,0,0,0-1.31,5c0,3.18-.31,6.39,1,9.63a13.08,13.08,0,0,1,3.46-3.18c.26-.2.5-.5.88-.28a.8.8,0,0,1,.32,1,3.16,3.16,0,0,1-1.67,2.17c-2.07,1-2,1-1,3A30.29,30.29,0,0,0,65.72,241a16.92,16.92,0,0,0,6.17,4.16c.16-.83-.52-1-.82-1.44s-.78-.58-.45-1.13a1.1,1.1,0,0,1,1.21-.38,4.63,4.63,0,0,1,3.43,2.67c.6,1.11,1,1.4,2.62,1.26,2.41-.21,3.38-1.7,4.56-3.14,1.36-1.67,1.51-3.77,1.62-5.85a18.87,18.87,0,0,0-.41-5.08c-.08-.33.2-.73.31-1.1a41,41,0,0,1,1.64,5.85,33.16,33.16,0,0,0-.78-7c.79-.94,1.47-.82,2.07.2.28.48.54,1.12,1.22.93s.73-.73.88-1.31a100.62,100.62,0,0,0,3-19c.15-2.39,1.14-4.61,1.35-7a12,12,0,0,0,.91,2.3.78.78,0,0,1-.58,1.27s0-.12-.06-.15a1.39,1.39,0,0,0-.21-.11c-.11,1.45-.29,2.89-.33,4.33a255.6,255.6,0,0,1-3.15,32.91c-.61,3.92-1.6,7.78-2.4,11.67a2.47,2.47,0,0,1-1.82,1.95c-9,3.38-18.46-.52-24.07-7.13s-7.95-14.46-10.09-22.5c-1.49-5.57-2.6-11.24-4.35-16.74-.41-1.27-.06-1.63,1.11-1.91,3.58-.84,7-2.14,9.55-4.88C59.36,203,60.18,201.05,59.3,198.77Zm28.62,34.72c-.53-.52-.41-1.59-1.27-1.93-.42-.17-.72.27-.6.74.2.79.28,1.72,1.26,2C87.69,234.37,87.85,234,87.92,233.49Z"/><path class="cls-5" d="M93.66,207.16a.78.78,0,0,0,.58-1.27,12,12,0,0,1-.91-2.3c-.21,2.44-1.2,4.66-1.35,7a100.62,100.62,0,0,1-3,19c-.15.58-.31,1.16-.88,1.31s-.94-.45-1.22-.93c-.6-1-1.28-1.14-2.07-.2a71.48,71.48,0,0,0-4.74-13.26c-.26-.56-.63-1.06-.91-1.61-.72-1.42-1.41-2.61-.7-4.51C80.85,204,82.6,197.35,86,191.35c.55-1,1.24-1.86,1.87-2.79.76.53,1.09.09,1.57-.52,2.39-3.08,6.15-2.81,8.07.5a4.29,4.29,0,0,0,.64,1c.52.49,1.08.76,1.23-.32,0-.33,0-.67.28-.93a3.88,3.88,0,0,1,.14.66c.64,8.68,2.26,17.27,1.5,26.08-.46,5.43-.83,10.83-2.4,16.09-.73-1-.78.09-1.07.35s-.61.7-1.14.57a.88.88,0,0,1-.65-.87,97.21,97.21,0,0,1-1.1-10c-.06-3.18-.29-6.36-.26-9.55,0-.63-.09-1.13-.86-1.16l-.06-1.31a1,1,0,0,0-.06-1.36Z"/><path class="cls-9" d="M22.11,192.19c.46,2.47,2.06,4.22,3.88,5.74a30.47,30.47,0,0,0,15.58,6.87,22.23,22.23,0,0,0,13.26-1.65A11.35,11.35,0,0,0,58,200.44c.36-.38.63-.79,1.21-.76-.5,3.9-3.17,6.14-6.48,7.25A27.71,27.71,0,0,1,27,203.23a11.94,11.94,0,0,1-5.39-8A3.48,3.48,0,0,1,22.11,192.19Z"/><path class="cls-9" d="M93.83,210.47c.77,0,.86.53.86,1.16,0,3.19.2,6.37.26,9.55a97.21,97.21,0,0,0,1.1,10,.88.88,0,0,0,.65.87c.53.13.8-.27,1.14-.57s.34-1.37,1.07-.36c-.53,1.76-1,3.53-1.57,5.29l-.07.08-.34,1,.11,0-.11,0a.78.78,0,0,0-.29.71h0a2.19,2.19,0,0,0-.69,1.43l0,.08a12.9,12.9,0,0,0-2,3.59l0,0c-.25,0-.36.12-.35.36h0c-.24,0-.37.1-.35.35h0c-.25,0-.37.09-.35.35v0c-.25,0-.37.1-.35.36l0,0c-.26,0-.38.1-.35.35H92c-.66-.93-.3-1.94-.17-2.91.88-6.41,1.65-12.83,1.95-19.31Q94,216.57,93.83,210.47Z"/><path class="cls-4" d="M97.34,236.37c.52-1.76,1-3.53,1.57-5.29,1.57-5.25,1.94-10.65,2.4-16.08.76-8.81-.86-17.4-1.5-26.08a3.88,3.88,0,0,0-.14-.66,51.65,51.65,0,0,0-1-6.89c0-.18,0-.36,0-.54,1.2,2.07,1,4.43,1.27,6.67,1.07,7.63,1.63,15.31,2,23,.07,1.3.33,2.4,2.05,2v0c-1.67,1.08-1.59,2.67-1.22,4.33a62.38,62.38,0,0,0,.78,8.18,3.9,3.9,0,0,0,.78,3l0,0-1.17-.53a48.44,48.44,0,0,1-.77-6.81c0-.44-.07-1-.64-1s-.41.56-.46.92c-.23,1.6-.38,3.22-.68,4.8A37.43,37.43,0,0,1,97.34,236.37Z"/><path class="cls-5" d="M23.52,188.93c.56.72,0,.92-.52,1.16A4.58,4.58,0,0,0,20.48,193c-.58.09-1.21-.13-1.73.4s-1,.33-1.49-.09c-1.57-1.46-3.43-2.7-3.85-5,1.94-1.86,4.22-1.41,6.43-.82a26.78,26.78,0,0,1,3.69,1.52Z"/><path class="cls-9" d="M13.41,188.24c.42,2.33,2.28,3.57,3.85,5,.47.42,1,.57,1.49.09s1.15-.31,1.73-.4c-.56,2.92.74,5.4,1.94,8-4.25-2-7.75-4.7-9.53-9.11C12.45,190.71,12.19,189.27,13.41,188.24Z"/><path class="cls-9" d="M98.72,181.37a51.65,51.65,0,0,1,1,6.89c-.27.26-.24.6-.28.93-.15,1.08-.71.81-1.23.32a4.29,4.29,0,0,1-.64-1c-1.92-3.31-5.68-3.58-8.07-.5-.48.61-.81,1.05-1.57.52a19.3,19.3,0,0,1,8.45-6.84A2.74,2.74,0,0,1,98.72,181.37Z"/><path class="cls-9" d="M34.22,193.38c1.85-.21,2.47-1.6,3-3.11.13-.36.29-.84.73-.84s.37.57.46.91c.74,3.11,2,4,6.27,4.32.87.06,2.24-.18,2.22.86s-1.39,1.16-2.41,1.15H44.3a6.23,6.23,0,0,0-2.94-.2A10.45,10.45,0,0,1,34.22,193.38Z"/><path class="cls-9" d="M34.32,174.42c1.8,5.42,6.26,8.45,11.83,7.55,1-.16,1.4.45,2.18.75a2.89,2.89,0,0,1-1.94.8c-1.23-.72-2.37.09-3.52.29-2.87.51-4.91-.84-6.58-2.87C34.77,179.08,33.26,177.11,34.32,174.42Z"/><path class="cls-3" d="M97.34,236.37a37.43,37.43,0,0,0,3.38-10.92c.3-1.58.45-3.2.68-4.8,0-.36-.1-.92.46-.92s.64.56.64,1a48.44,48.44,0,0,0,.77,6.81l-.21.21c-1-1.06-.3-2.65-1.13-3.84-.63,2.59-1.22,5.14-1.88,7.66a36.43,36.43,0,0,1-5.7,13l-3.29,3.12-.19-.15a5.66,5.66,0,0,1,1.2-2.12.42.42,0,0,0,.26-.5h0c.25,0,.37-.09.35-.35l0,0c.26,0,.37-.1.35-.36v0c.25,0,.36-.11.35-.35h0a.3.3,0,0,0,.35-.35h0c.25,0,.36-.11.35-.36l0,0c1.36-.81,1.7-2.18,2-3.59l0-.08a1.15,1.15,0,0,0,.69-1.43h0c.38-.12.4-.39.29-.71l.11,0-.11,0c.52-.17.45-.56.34-1Z"/><path class="cls-9" d="M11.78,181.48c.69.08,1,.63,1.47,1.06.95.94,1.8,2,3.31,2.12a1,1,0,0,1,.94,1.19,14.29,14.29,0,0,0-3.8.36c-.64.24-1-.2-1.33-.71A5.44,5.44,0,0,1,11.78,181.48Z"/><path class="cls-9" d="M93.71,207.8a1,1,0,0,1,.06,1.36Z"/><path class="cls-4" d="M92.33,244.89a.42.42,0,0,1-.26.5c0-.17-.07-.33-.11-.5Z"/><path class="cls-4" d="M98.31,179.83a.35.35,0,0,1,.33.45Z"/><path class="cls-14" d="M171.21,273.07l-1.34.12a7.72,7.72,0,0,0-4.23-.44c-5.92.35-11.83-.06-17.75.22-3.57.18-7.16,0-10.74-.07a18.83,18.83,0,0,1-3.85-.8c-.62-.28-1.19-.3-1.52.44a23.57,23.57,0,0,1-6.28.07,25,25,0,0,0-4.58,0,13.58,13.58,0,0,1-5.63-2.77,40.68,40.68,0,0,1-.35-7.48c1-.16.88-1,.94-1.68a138.21,138.21,0,0,0,.31-15.23c0-1.44.09-3-1-4.26.31-1.22-.47-2.67.76-3.69.62.73,1.67.46,2.36,1,0,.64,0,1.29,0,1.94s-.19,1.37.78,1.48a21.42,21.42,0,0,0,0,4.93.83.83,0,0,0,.53-.87c.21-3.27.2-3.25,3.46-2.59.56.12,1.36.65,1.58-.48.9.16,1.92-.42,2.72.41-.41,0-.89-.26-1.31.41,1.26.47,2.41,1.05,3.77.54h1.66a3.16,3.16,0,0,0,4.3.65c.45.05,1-.14,1.33.27.67,1.27,3.09,1.5,4.38.41h1.41c-.06.67.14,1,.92,1,.94,0,1.89,0,2.83,0,.48,0,.91,0,.92-.67H149c.8,1.27,4.33,1.5,5.28.33.06-.07,0-.21,0-.32h1.75c-.12.84.33,1,1.07,1.05,1.36.13,2.63-.47,4-.38a1.64,1.64,0,0,1,2-1c.87,1.06,3.92,1,4.67-.15,0,0,0-.11,0-.17a2.73,2.73,0,0,1,1.51-.34c-.07.55,0,1.17.7.92a23.62,23.62,0,0,1,2.47-.34c.5-.11,1.18-.11,1.14-.93a5.44,5.44,0,0,1,4.78-2.27c1.64,0,3.45-.24,4.34-2.08,1.93-.79,4-1.06,5.88-2.07h0l.45-.31c3.2-1.29,3.5-1.13,4,2.24a1.54,1.54,0,0,1,0,.47c-.93.5-.78,1.4-.78,2.21a107.8,107.8,0,0,0,1.12,14.14c.16,1.16-.46,2.82,1.23,3.53a31.39,31.39,0,0,1,.34,6.35c0,1.5.24,3.06-1.49,3.93-.19.09-.16.6-.23.92-.32.73-1.38.41-1.67,1.18a5.31,5.31,0,0,1-3.41.06c.18-.2.54-.44.51-.6-.1-.54-.48-.15-.76-.15-2.53,0-5.07.43-7.57-.28-.81-1-3.81-.31-4.36,1l-1.53,0c-.82-.77-1.65.17-2.47,0C171.49,272.39,171.34,272.68,171.21,273.07Zm18.42-25.75c.36-1.9-.43-3.41-.58-5-.05-.51-.56-.54-.94-.44a3.51,3.51,0,0,0-2.14.92c2.59-.58,2.64,1.07,2.82,2.64A2.64,2.64,0,0,0,189.63,247.32Zm-14.13-2.68a5,5,0,0,0,4-.83C178.12,243.82,176.72,243.75,175.5,244.64Zm-49,26.1a11.18,11.18,0,0,0,3.28,1.37.43.43,0,0,0,.56-.23.37.37,0,0,0-.22-.54C129,271.17,128.07,270.43,126.48,270.74Zm55.36.18a4.92,4.92,0,0,0,3.41-1.25A4.44,4.44,0,0,0,181.84,270.92Zm5.21-1.86c1.19-.38,2.62-.41,2.94-1.95C189,267.68,187.74,268,187.05,269.06Zm3.11-3.32a1.8,1.8,0,0,0,.55-1.44c0-.5.31-1.36-.39-1.41s-.47.81-.49,1.29A1.72,1.72,0,0,0,190.16,265.74Zm-64.91,4.36a5.06,5.06,0,0,0-3.12-1.06C123.25,269.93,124,270.72,125.25,270.1Zm65-11.93c-.11.81-.25,1.62-.33,2.43a.55.55,0,0,0,.42.64c.38.05.45-.29.43-.56C190.7,259.86,190.94,259,190.22,258.17Zm-9-14.52a4.63,4.63,0,0,0,3.52-.69A4.54,4.54,0,0,0,181.23,243.65Zm-61.26,23c-.44,1.33.3,1.78,1.58,2.09C121.31,267.73,120.47,267.34,120,266.69Zm-.65-10.24a4,4,0,0,0-.1-3.29A4.75,4.75,0,0,0,119.32,256.45Zm0-7.92a3.4,3.4,0,0,0,.07,3.23A5.39,5.39,0,0,0,119.32,248.53Zm70.34,0c-.27,1.26-.41,2.2.4,3a9,9,0,0,0,0-2.48C190.06,248.93,189.94,248.85,189.66,248.51Zm.57,4.76c-.61,1.62-.57,2,.24,3.16A10.82,10.82,0,0,0,190.23,253.27Zm-70.78,8.26a4.72,4.72,0,0,0-.1-2.95A3.16,3.16,0,0,0,119.45,261.53Zm.12,1.47a3.18,3.18,0,0,0,.14,2.61A2.82,2.82,0,0,0,119.57,263Z"/><path class="cls-15" d="M85.94,268.61l.64-.48a120.54,120.54,0,0,0,15.22,2.79c2.6.33,5.2.49,7.79.74a16.68,16.68,0,0,0,5.64-.12l3.12,1.44a49.1,49.1,0,0,1-9.92.12,159.35,159.35,0,0,1-19.16-3C88.11,269.86,86.66,270,85.94,268.61Z"/><path class="cls-15" d="M137.15,272.9c3.58,0,7.17.25,10.74.07,5.92-.28,11.83.13,17.75-.22a7.72,7.72,0,0,1,4.23.44c-.22.36-.39,1.14-.82.83-1.38-1-2.83-.29-4,0-2.12.44-4.19.15-6.27.19-4.71.09-9.41.05-14.11,0-1.84,0-3.59-1-5.46-.62C138.3,273.73,137.54,274,137.15,272.9Z"/><path class="cls-15" d="M191.48,272.81c.29-.77,1.35-.45,1.67-1.18l1.95-.57c1.59,1,3.21.31,4.84.16,6.94-.63,13.79-1.89,20.64-3.13l.28.63c-1.87,1-4,1-6,1.4A98.85,98.85,0,0,1,204.19,272c-3.05.26-6.09.7-9.14.87C193.88,272.88,192.66,273.75,191.48,272.81Z"/><path class="cls-15" d="M180.25,271.84c2.5.71,5,.27,7.57.28.28,0,.66-.39.76.15,0,.16-.33.4-.51.6a.5.5,0,0,1-.27.05l-.74,0a24.79,24.79,0,0,1-7.27.95c-2.6.06-5.2,0-7.55,0,.42-.36,1.54-.17,2.12-1l1.54,0C177.43,272.87,178.71,271.82,180.25,271.84Z"/><path class="cls-15" d="M120.92,272.57a25,25,0,0,1,4.58,0,23.57,23.57,0,0,0,6.28-.07c1,.41.44.58-.12.76a11.5,11.5,0,0,1-4.81.19c-2-.24-3.95.21-5.92-.12C120.93,273.1,120.92,272.84,120.92,272.57Z"/><path class="cls-12" d="M120.92,272.57c0,.27,0,.53,0,.8l-2.58-.39-3.12-1.44-.33-.6.39-1.14A13.58,13.58,0,0,0,120.92,272.57Z"/><path class="cls-13" d="M155.63,275.08a6.6,6.6,0,0,1-2.8,0A6.27,6.27,0,0,1,155.63,275.08Z"/><path class="cls-15" d="M171.21,273.07c.13-.39.28-.68.68-.23A.51.51,0,0,1,171.21,273.07Z"/><path class="cls-14" d="M187.06,272.89l.74,0C187.55,273.23,187.3,273.26,187.06,272.89Z"/><path class="cls-15" d="M116.64,189.58c.8-.21,1.27-1.2,2.27-1,1.07,2.55,1.16,5.31,1.62,8,.74,4.27,1.18,8.6,1.92,12.87.27,1.54-.14,1.92-1.53,1.72L119.6,211a5.87,5.87,0,0,0-.65-3.32c-.59,1.25.25,2.22,0,3.19h-.14l-.15,0a2.51,2.51,0,0,1-2.19-1,9.38,9.38,0,0,0-2-1.69c-4.16-2.57-8.16-5.29-8-11,0-.84-.22-1.7-1.31-1.85,0-.22-.05-.43-.07-.65.45-1.12.92-2.24,1.35-3.37a3.13,3.13,0,0,1,3-2.13c1.65-.16,2.8,1.1,4.3,1.07,1,0,1.42.49,1.49,1.4a2.36,2.36,0,0,0,1.15,2.1,8.85,8.85,0,0,0,1,3.14c.54-1.22-.3-2.21-.15-3.26a2,2,0,0,0-.33-1.3Zm1.27,11.64c.57-1.07.06-2-.26-3.34C117,199.31,117.79,200.23,117.91,201.22Zm.36,2c-.43,1,0,1.84.35,3.11C119.21,205,118.63,204.13,118.27,203.25Z"/><path class="cls-5" d="M120.68,189.63c1.24,1.16,2.27.5,3.28-.36.3,1.32.69,2.25,2.23,1a8.86,8.86,0,0,1,2.28-1c-.59,1.44-1.22,2.87-1.78,4.33a13.65,13.65,0,0,0-.3,9.22c.31,1,.69,1.23,1.39.23s1.36-2.18,2.91-2.54c-.17.77-.29,1.42-.45,2.06a19.34,19.34,0,0,0-.46,9c.24,1.13,1,2.15.81,3.38-1.54.25-3.5.14-4.22-.89-1.09-1.56-3.25-2.64-2.94-5.1a9.18,9.18,0,0,0-.36-2.44q-1.16-7.85-2.3-15.7C120.72,190.41,120.71,190,120.68,189.63Z"/><path class="cls-14" d="M105.15,195.35c1.09.15,1.33,1,1.31,1.85-.18,5.74,3.82,8.46,8,11a9.38,9.38,0,0,1,2,1.69,2.51,2.51,0,0,0,2.19,1c-.82.54-1.74.27-2.61.28-3.29.05-6.59,0-9.89.06a15.76,15.76,0,0,0,0-1.82c-.07-.56.4-1.41-.67-1.56,0-.55,0-1.1,0-1.66.43-1.17.92-2.35-.32-3.37v-1.35c.73-1.24.27-2.48,0-3.72,0-.46,0-.93,0-1.4Z"/><path class="cls-15" d="M105.13,196.34c0,.47,0,.94,0,1.4a4.55,4.55,0,0,0,0,3.72c0,.45,0,.9,0,1.35a12.73,12.73,0,0,0,.32,3.37c0,.56,0,1.11,0,1.66a9.41,9.41,0,0,0,.33,3.38c-3.08.68-2.81,1.25-3.06-2.3-.45-6.42-1-12.83-1.59-19.24,0-.55-.07-1.12-.11-1.67.29-2.21,1.65-.43,2.47-.67a11.84,11.84,0,0,0,.62,4c0,.54,0,1.07,0,1.6C104.24,194.15,103.83,195.5,105.13,196.34Z"/><path class="cls-4" d="M123.07,206.49a9.18,9.18,0,0,1,.36,2.44c-.31,2.46,1.85,3.54,2.94,5.1.72,1,2.68,1.14,4.22.89.45.78,1.28.55,2,.73a11.48,11.48,0,0,1-5.57-.79c-1.62-.51-1.86,0-1.69,1.4a72.79,72.79,0,0,1,.7,8.85c0,3-1,3.94-3.92,4.13-5.29.35-10.63.09-16,.08a1.47,1.47,0,0,1-1.69-1.25l0,0a7.58,7.58,0,0,0,3.73.76c4.09-.06,8.18,0,12.27-.12,4.94-.12,5.6-1,4.92-5.91a2,2,0,0,0-.12-.31c-.13-2.51-.19-5-.42-7.52a2.75,2.75,0,0,0-3.06-2.69c-5.42-.06-10.84-.05-16.26.33l-1.4,0v0a4.78,4.78,0,0,1,2.25-.59c3.79-.1,7.59-.25,11.39-.31a42.36,42.36,0,0,1,4.35.29c1,.08,1.34-.3,1.25-1.26A20.75,20.75,0,0,1,123.07,206.49Z"/><path class="cls-2" d="M102.61,178.58c.12.93.58,1.84.17,2.8-.43-.91-1.06-1.81-.2-2.8Z"/><path class="cls-2" d="M119,210.9c.23-1-.61-1.94,0-3.19a5.87,5.87,0,0,1,.65,3.32Z"/><path class="cls-2" d="M105.81,211.22a9.41,9.41,0,0,1-.33-3.38c1.07.15.6,1,.67,1.56a15.76,15.76,0,0,1,0,1.82Z"/><path class="cls-5" d="M120,185.93c.56.95,1.21,1.88.52,3A4.6,4.6,0,0,1,120,185.93Z"/><path class="cls-1" d="M119.29,182.37a1.93,1.93,0,0,1,.31,1.66A1.47,1.47,0,0,1,119.29,182.37Z"/><path class="cls-1" d="M119,181.36a.61.61,0,0,1,.29.68A.48.48,0,0,1,119,181.36Z"/><path class="cls-15" d="M198.1,211.36l-2.48,0c-2.33-.78-4.75-.3-7.13-.46-1.64.24-2.42-.38-2.09-2.11a4.79,4.79,0,0,0,0-1c0-.67,0-1.34,0-2,.38-5.5,1.2-11,1.38-16.47.9.33,2.42-.91,2.67,1.05.08,1-.24,2.13.2,3.25.7-.53.35-1.15.52-1.64a5.76,5.76,0,0,0,1.59-2.72c.81-2.51,2.48-3.13,4.25-2.34a9.92,9.92,0,0,1,2.55,1.58c.88.76,1.34.4,1.81-.46.26-.49-.07-1.36.87-1.43l0,.65a21.6,21.6,0,0,0,.66,5.13c.14,1-.28,2.13.38,3.47a11,11,0,0,0,.28-3.59,1.83,1.83,0,0,0,.32-1.32c0-1.21,0-2.42,0-3.63.93.07,1.94-.38,2.79.36-.36,7.56-.74,15.11-1,22.66-.05,1.13-.45,1.38-1.45,1.05a7.24,7.24,0,0,0-1.33-.21c-.07-1.26.33-2.56-.35-4.16a13.77,13.77,0,0,0-.23,4.15C200.9,211.36,199.48,210.94,198.1,211.36Zm-7.51-13.53a5.77,5.77,0,0,0,.22-2.71s-.39-.05-.42,0a3.29,3.29,0,0,0-.08,2.66S190.41,197.81,190.59,197.83Zm12.36-.29a4.23,4.23,0,0,0,.11,3.49A5.34,5.34,0,0,0,203,197.54Zm-13.35,9a2.92,2.92,0,0,0,.25-2.87A3.55,3.55,0,0,0,189.6,206.52Zm.53-7.3a3.45,3.45,0,0,0,0,3A3.49,3.49,0,0,0,190.13,199.22Z"/><path class="cls-2" d="M202.29,211.14a13.77,13.77,0,0,1,.23-4.15c.68,1.6.28,2.9.35,4.16Z"/><path class="cls-12" d="M215.39,250.55c1.3,3.85,2.62,7.7,3.89,11.56a31.53,31.53,0,0,1,1.22,5.36c-3.19-.08-6.24.78-9.36,1.2a75.24,75.24,0,0,1-8,.84c-2.46.07-4.93-.23-7.36.35a35.31,35.31,0,0,0,.37-4.82,176.33,176.33,0,0,0-2.36-27.92,3.92,3.92,0,0,1,1.37,2.58c.41,2.91.81,5.82,1.4,8.69.24,1.17,0,2.53,1,3.48.35.33.63.86,1.24.67s.31-.64.39-1,.13-.72.26-.74c1.72-.31,2.37-2,3.67-2.82,2.1-1.33,2.2-2.31,1.85-4.74-.28-1.89-.14-3.78-1.35-5.46-.29-.39-.09-1.22.07-1.8a1.24,1.24,0,0,0-.28-1.39c-1.17-.78-2.14-1.84-3.79-1.88-3.34-.09-6.69-.33-10-.7a6.94,6.94,0,0,1-3.53-.91c-.55-.41-1.07-.75-.32-1.42,1.06,0,2.12.08,3.17.15a94.15,94.15,0,0,0,15-.08c.25,1.07-.4,2.53,1.29,3l.35,1.36c-.66.75-.2,3,.7,3.24.2.06.24-.3.22-.53.75.55.3,1.35.43,2a2.3,2.3,0,0,0,1.29,3c1,.08,2.25,1.56,3.1-.32.9,1.4,1.82,2.79,2.84,4.12a6.32,6.32,0,0,1,.9,4c-1.3-.24-1.88-1.66-3.2-1.88A7.6,7.6,0,0,0,215.39,250.55Zm-4.27-4.14c-1-1-1-2.76-2.85-3.69A6.22,6.22,0,0,0,211.12,246.41Z"/><path class="cls-14" d="M207,238.83c-.13-.68.32-1.48-.43-2-.3-.9-.61-1.8-.92-2.71-.12-.45-.23-.9-.35-1.36-.41-1-.09-2.26-1.06-3.07,1.52-.58,1.91-2.21,3-3.22,0,.19.05.37.08.56-.22.17-.21.29.09.32h0a6.51,6.51,0,0,0,.41,3.27,74.83,74.83,0,0,0,3.58,10.91c-.85,1.88-2.05.4-3.1.32A6,6,0,0,0,207,238.83Z"/><path class="cls-14" d="M195.81,269.86c2.43-.58,4.9-.28,7.36-.35a75.24,75.24,0,0,0,8-.84c3.12-.42,6.17-1.28,9.36-1.2,0,.2.05.41.07.62-6.84,1.24-13.69,2.5-20.63,3.13-1.63.15-3.25.82-4.84-.16Z"/><path class="cls-2" d="M215.39,250.55a7.6,7.6,0,0,1-3.48-2.78c1.32.22,1.9,1.64,3.2,1.88C215.32,249.91,215.9,250.06,215.39,250.55Z"/><path class="cls-4" d="M208.61,229.17l.48,1.32,0,.08.06.06-.15.06C208.48,230.27,208.66,229.69,208.61,229.17Z"/><path class="cls-5" d="M209.65,232.46l.2-.16c.2.22.05.33-.13.44A.19.19,0,0,1,209.65,232.46Z"/><path class="cls-4" d="M208.52,228.67l.07.41C208.35,229,208.35,228.84,208.52,228.67Z"/><path class="cls-12" d="M91.06,247.66l3.29-3.12c.36.78.44,1.8,1.64,1.8-.16.44-.62.79-.44,1.36,1.39-.73,1.43-.79,1.83-2.12,0-.64.56-1,.72-1.5,1.35-.17,1.47-1.24,1.66-2.26,0-.54-.2-1.21.68-1.32.76-.32.77-1.19,1.26-1.72a2.5,2.5,0,0,1,.48,2.32,23.4,23.4,0,0,0-.81,6.61c0,1.51,1,2.57,1.1,4,.08,2.6,1.19,4.37,4.1,3.36.61-.21,1.53-.38,1.61.82,0,.55-.28,1.32.69,1.45.79.1,1.2-.38,1.65-.94.86-1.07,1.4-2.42,2.69-3.12a145.17,145.17,0,0,0,.75,16.55c-1.22.7-2.48-.34-3.76.13a5.82,5.82,0,0,1-3.8,0,26.42,26.42,0,0,0-6.06-.89c-1.69-.14-3.53-.18-5.21-.47-2.84-.47-5.67-1-8.51-1.45.58-2.72,1-5.46,1.76-8.14Q89.88,253.38,91.06,247.66Zm.24,2.94c2-.19,3-1,3.08-2.29A21.93,21.93,0,0,1,91.3,250.6Z"/><path class="cls-14" d="M86.62,267.16c2.84.45,5.67,1,8.51,1.45,1.68.29,3.52.33,5.21.47a26.42,26.42,0,0,1,6.06.89,5.82,5.82,0,0,0,3.8,0c1.28-.47,2.54.57,3.76-.13l.94,1.1.33.6a16.68,16.68,0,0,1-5.64.12c-2.59-.25-5.19-.41-7.79-.74a120.54,120.54,0,0,1-15.22-2.79C86.59,267.81,86.6,267.48,86.62,267.16Z"/><path class="cls-11" d="M221.21,130.43l1.27.64.35.22h0l3.3,3.45c.5.53,1.11,1,.29,1.79-.49.49.05.92.4,1.25.66.64,1.35,1.25,2.07,1.9-.68.58-1.72-.56-2,.64-2.06-.51-4.06.05-6.5.18a7.43,7.43,0,0,0,2.78,1c.36,1,1.47.88,2.14,1.48,2,1.73,2.75,4.63,1.39,6.82a41.41,41.41,0,0,1-13.11,13.36c-6.9,4.39-14.41,7.37-22,10.21-4.89,1.84-9.83,3.58-14.85,5A99.27,99.27,0,0,1,161,181.21c-1.54.18-3.06,1-4.56.92-6.77-.4-13.55-.46-20.3-1.46-4.91-.73-9.8-1.56-14.72-2.25a59.5,59.5,0,0,1-8.58-2.06c-6.14-1.84-12.44-3.32-18-6.63a35.05,35.05,0,0,1-11-9.45c-1.37-1.92-1.16-2.77.8-4.16.37-.26,1.08-.18,1-.94h0l.38-.26.86-.43c.29,0,.71-.19.56-.41-.3-.44-.74-.27-1.09.09l-.67,0a9.43,9.43,0,0,0-4-.67c-1.25.05-1.71-.38-1.09-1.57.43-.83.41-1.43-.71-1.46s-.72-.57-.53-1.2c.47-1.58,1.84-2.64,2.32-4.21h0l.35-.27.07,0c.42-.08.81-.24.8-.71s-.46-.49-.76-.56a4.58,4.58,0,0,0-2.49.06.94.94,0,0,1-1.09-.15c-.38-.41-.13-.8,0-1.24.36-1.19,1.72-1.83,1.72-3.2l2-2A21.86,21.86,0,0,0,88,133.45l1.35-.42c2.53,0,5.06,0,7.58-.12.9,0,.88-.83.67-1.55-.28-1-.62-1.9-.81-2.88-.36-1.8-.08-2,1.63-1.65a5,5,0,0,0,1.16,0c1,1.8,1.39,3.94,3.26,5.16l0,0c0,.24.13.33.34.35a4,4,0,0,0,.84.55c6,2.11,12,3,18.26,1.25,2.46-.68,5-1.12,5.86-4,.06-.21.41-.33.63-.49.13.51-.6,1.25.37,1.53s2.08.52,2.74-.69c5.3-3.3,10.91-5.78,17.2-6.47.27.38.49.24.67-.09a19.27,19.27,0,0,1,6.69,0c.28.49.62.55,1,.14a3.43,3.43,0,0,1,1.68.21c.16.32.35.53.67.16l.69.12c.14.38.33.59.68.16l1,.21c.16.36.36.54.68.14l.67.14a15.17,15.17,0,0,0,7.84,2.54c1.26,0,1.21-.53,1-1.38,1.38,1.9,3.52,2.42,5.6,2.63a28.6,28.6,0,0,0,20-5.22c1.68-2.23,1.78-4.91,2.08-7.53a2.45,2.45,0,0,0,1.57,1.14c1.57.21,1.74,1.48,1.68,2.64-.15,2.71.15,3,2.84,2.43a23.72,23.72,0,0,1,9.75,0c2.29.44,4.24,1.65,6.46,2.16l0,0c.16,1,1.25,1,1.73,1.71s1.51.95,1.09,1.86a2.52,2.52,0,0,1-2.17,1.61C222.28,129.69,221.53,129.68,221.21,130.43Zm-67.85,13.72a21.71,21.71,0,0,0,2.3,5.55,37.16,37.16,0,0,0-1.93-6.48c0-.82-1.27-1.76-.29-2.37a42.93,42.93,0,0,0,7.6-6.57c3.09-3.07,2.42-6.55-1.76-7.84-4.88-1.5-9.76-1-14.59.36a8.49,8.49,0,0,0-3.94,1.91c-1.94,1.87-2.1,3.73-.16,5.64a28,28,0,0,0,8.75,5.88C151.33,141.08,152.89,141.93,153.36,144.15Zm25.11,9.3a1.44,1.44,0,0,0-.6-1.15c-3.36-2.34-6.88-4.28-11.17-4a23.56,23.56,0,0,0-9.35,3.1c-3.84,2.05-7.7,4.08-11.49,6.23-1.75,1-3.37,2.23-5,3.38a1.45,1.45,0,0,0-.6,2c.59.94,1.37.34,2-.06.38-.24.72-.54,1.08-.8A74.21,74.21,0,0,1,162,151.67a13.18,13.18,0,0,1,12.21,1.13c.81.51,1.57,1.08,2.38,1.58C177.57,155,178.48,154.49,178.47,153.45Z"/><path class="cls-1" d="M170.27,84.79a3.62,3.62,0,0,1,4.09-1.42c2.53.58,4.64,2.1,7,3a48.7,48.7,0,0,0,11.95,4.33,18.32,18.32,0,0,1-9.41.7c-4.09-.82-8.19-1.64-11.9-3.74C170.81,87,170,86.25,170.27,84.79Z"/><path class="cls-6" d="M167.27,110.81c.46-6.94,7.48-13.48,14.34-14,9.24-.65,16.87,6.12,20.07,13.11a5.81,5.81,0,0,1,.25,1.13c-1.47-.28-2.34-1.48-3.49-2.25l0,0c.08-.33.08-.63-.34-.72l0,0c0-.31,0-.6-.34-.69h0c0-.26.05-.54-.31-.61l-.79-1.07A16,16,0,0,0,177.77,100c-2.47,1-4.28,2.76-6.11,4.56l-.39.55,0,0a.33.33,0,0,0-.33.41l0,0c-.45,0-.48.29-.37.63a.1.1,0,0,1-.07.14c-.48,0-.34.25-.26.5l-.08.46c-.83-.17-.67.41-.67.88l-.13,1C168.74,109.6,168.38,110.65,167.27,110.81Z"/><path class="cls-1" d="M101.1,98.56c-.9-.29-.54-.45.05-.67,4.25-1.55,7.86-4.19,11.47-6.83a22.32,22.32,0,0,1,4.3-2.89,7.1,7.1,0,0,1,2.56-.72c1.56-.06,2.87.48,2.56,2.39-2.2,2.91-5.36,4.53-8.53,5.94C109.61,97.52,105.53,99,101.1,98.56Z"/><path class="cls-6" d="M95.86,122.62A21.83,21.83,0,0,1,99,112a18.87,18.87,0,0,1,12.6-9.52c5.61-1.28,12.88,1.65,15.73,6.31a1.73,1.73,0,0,1-1.44-.68c-.61-.76-1.24-.82-1.91-.09a15.67,15.67,0,0,0-13.4-3.21c-6.31,1.39-10.69,6.4-12,13.59a3.28,3.28,0,0,0-2.27,3.1C96.33,121.93,96.35,122.39,95.86,122.62Z"/><path class="cls-8" d="M124,108c.67-.73,1.3-.67,1.91.09a1.73,1.73,0,0,0,1.44.68c5.15,5.88,5.45,12.71,3.92,19.91-.13.64-.72,1.46.52,1.71-.66,1.21-1.71,1-2.74.69s-.24-1-.37-1.53c.22-.77.45-1.53.67-2.29,1.22-2.73,1.1-5.63,1-8.51,0-.13-.1-.35-.28-.12a2.07,2.07,0,0,0-.21.45,11.6,11.6,0,0,0-1.31-3.9c-.83-1.36-1.73-2.66-2.6-4a2,2,0,0,0-1-1.51C125.28,108.78,124.36,108.56,124,108Z"/><path class="cls-8" d="M198.44,108.85c1.15.77,2,2,3.49,2.25a19.18,19.18,0,0,1,2,9.41c0,1.26.35,1.55,1.57,1.22a21.06,21.06,0,0,1,15.88,2c.34.18.74.3.88.73-2.22-.52-4.17-1.73-6.46-2.17a23.72,23.72,0,0,0-9.75,0c-2.69.6-3,.28-2.84-2.43.06-1.16-.11-2.43-1.68-2.64a2.45,2.45,0,0,1-1.57-1.14A23.77,23.77,0,0,0,198.44,108.85Z"/><path class="cls-8" d="M167.27,110.81c1.11-.16,1.47-1.21,2.18-1.83-.42,2.14-1.4,4.21-.73,6.46l.06,1.39a5.57,5.57,0,0,0,1.17,4.34l0,0c0,.31,0,.59.36.72l0,0c0,.31,0,.59.38.7l0,0a3.71,3.71,0,0,0,1.64,3.76h0c.25.85.3,1.4-1,1.38a15.17,15.17,0,0,1-7.84-2.54,20.94,20.94,0,0,1,5.26,1.55c.34.13.73.48,1.08.13s0-.73-.2-1a17.73,17.73,0,0,1-1.72-4.51c.48-.44.14-.62-.25-.78l-.42-2.26c.49-.49.35-.85-.24-1.11,0-1.41,0-2.82,0-4.23.74-.37.73-.87.25-1.45Z"/><path class="cls-8" d="M95.86,122.62c.49-.23.47-.69.51-1.13a3.28,3.28,0,0,1,2.27-3.1l-.16.57a5.5,5.5,0,0,0,.08,2.52,32.37,32.37,0,0,0,1,5.34,5,5,0,0,1-1.16,0c-1.71-.38-2-.15-1.63,1.65.19,1,.53,1.93.81,2.88.21.72.23,1.51-.67,1.55-2.52.12-5,.09-7.58.12,2-.94,4-.69,6.07-.62,1.2.05,1.71,0,1.25-1.51A21.58,21.58,0,0,1,95.86,122.62Z"/><path class="cls-8" d="M221.21,130.43c.32-.75,1.07-.74,1.68-.78a2.52,2.52,0,0,0,2.17-1.61c.42-.91-.66-1.27-1.09-1.86s-1.57-.72-1.73-1.71a13.27,13.27,0,0,1,4.66,3.34c1.42,1.51,1.22,2-.71,2.63a3.56,3.56,0,0,0-.7.41C224,130.94,222.68,130.07,221.21,130.43Z"/><path class="cls-8" d="M88,133.45A21.86,21.86,0,0,1,82.18,137,11.4,11.4,0,0,1,88,133.45Z"/><path class="cls-6" d="M167.2,111.38c.48.58.49,1.08-.25,1.45C166.85,112.32,166.73,111.8,167.2,111.38Z"/><path class="cls-6" d="M167,117.06c.59.26.73.62.24,1.11A.92.92,0,0,1,167,117.06Z"/><path class="cls-8" d="M157.38,123.94c-.4.41-.74.35-1-.14A.72.72,0,0,1,157.38,123.94Z"/><path class="cls-8" d="M159.73,124.31c-.32.37-.51.16-.67-.16A.42.42,0,0,1,159.73,124.31Z"/><path class="cls-8" d="M149.67,123.84c-.18.33-.4.47-.67.09A.42.42,0,0,1,149.67,123.84Z"/><path class="cls-8" d="M161.1,124.59c-.35.43-.54.22-.68-.16A.46.46,0,0,1,161.1,124.59Z"/><path class="cls-6" d="M167.62,120.43c.39.16.73.34.25.78A.62.62,0,0,1,167.62,120.43Z"/><path class="cls-8" d="M162.78,124.94c-.32.4-.52.22-.68-.14A.46.46,0,0,1,162.78,124.94Z"/><path class="cls-1" d="M80.51,132c.1-.13.2-.2.32,0h-.32Z"/><path class="cls-1" d="M220.24,117.89l.22.26Z"/><path class="cls-8" d="M84.58,85.39c.17-.77.72-.9,1.38-.86A1.29,1.29,0,0,1,84.58,85.39Z"/><path class="cls-1" d="M51.51,116.78a1.08,1.08,0,0,1-1,1C50.68,117.32,50.78,116.73,51.51,116.78Z"/><path class="cls-1" d="M247.36,103.6c-.69,0-.92-.37-.91-1Z"/><path class="cls-1" d="M51.85,116.11a.54.54,0,0,1-.36.69C51.31,116.42,51.53,116.24,51.85,116.11Z"/><path class="cls-1" d="M50.5,117.79c-.11.09.09.49-.31.33Z"/><path class="cls-1" d="M246.45,102.63l-.7-.35C246.1,102.17,246.28,102.39,246.45,102.63Z"/><path class="cls-1" d="M242,37.24l0,.15.07-.14Z"/><path class="cls-11" d="M132.56,215.65c-.69-.18-1.52,0-2-.73.15-1.23-.57-2.25-.81-3.38a19.34,19.34,0,0,1,.46-9c.16-.64.28-1.29.45-2.06-1.55.36-2.2,1.51-2.91,2.54s-1.08.74-1.39-.23a13.65,13.65,0,0,1,.3-9.22c.56-1.46,1.19-2.89,1.78-4.33,1.28-1.85,3-.76,4.45-.52a61,61,0,0,0,14.81,1.14,91.81,91.81,0,0,0,16.73-3.11c5-1.33,10-2.9,15.21-2.88,1.38,0,2.67.25,3.34,1.68,0,.45,0,.89,0,1.34a1,1,0,0,0-1,.72l-.72-.29c0-.26-.11-.34-.28-.08l-.34,0c-.33-.9-1.14-.87-1.88-.92-.31,0-.46.27-.44.57a1.33,1.33,0,0,0,1.32,1.38h0c0,.5,0,1,.65,1v0a.56.56,0,0,0,.37.63h0c0,.76,0,1.48,1,1.71l.32.7a1.38,1.38,0,0,0-.06,1.71,13.25,13.25,0,0,1,.72,2.73,1.58,1.58,0,0,1-.42,1.71c-.61.55-.95-.16-1.41-.4a11.88,11.88,0,0,0-1.7-.63c-.44-.15-.92-.7-1.33-.12a1.15,1.15,0,0,0,.13,1.41,14.35,14.35,0,0,1,1.83,3.93c.94,2.61,1.78,5.27,1,8.13-.32,1.1-.71,2.25-.08,3.39l.14.45-.45.47c-.78.06-1.57.06-2.34.18a167.37,167.37,0,0,1-23.45,1.89A177.32,177.32,0,0,1,132.56,215.65Z"/><path class="cls-5" d="M180.77,214.64c-.05-.15-.09-.3-.14-.45,2.24-5.79.51-11.07-2.48-16.42a9.64,9.64,0,0,1,3.69,2.14c.67.62,1.07.56,1.29-.47a11.35,11.35,0,0,0-1.14-7.11l-.32-.7a2.61,2.61,0,0,0-1-1.71h0a.64.64,0,0,0-.37-.63v0a1.22,1.22,0,0,0-.65-1h0c.06-.49-.61-.75-.42-1.27.55-.24.94.29,1.42.24l.34,0a.32.32,0,0,0,.28.08l.72.29c1,.73,1,0,1-.72,0-.45,0-.89,0-1.34s0-.9.05-1.35c1.45.34,3,1.1,4-.71-.24,3.51-.67,7-.91,10.5-.37,5.41-1.09,10.8-1.11,16.24A4.41,4.41,0,0,1,180.77,214.64Z"/><path class="cls-5" d="M86.78,154.5l-.86.43-.38.26h0c-.93-.2-1.81,1-2.91,0,1-.55,2.18-.2,3-1l.67,0Z"/><path class="cls-5" d="M124,186.92a1.29,1.29,0,0,1-.08-.26s.08,0,.13-.08Z"/><path class="cls-1" d="M155.05,80.74l.06-.15-.07.14Z"/><path class="cls-14" d="M190.47,190.34c-.25-2-1.77-.72-2.67-1.05.11-.67.23-1.34.34-2l2.66,0-.06,1-.1.07c0,.07.07.13.1.2.66.73.69-.19,1-.38.9-.21,1.26-1,1.77-1.65a5.74,5.74,0,0,1,8.76,0c-.94.07-.61.94-.87,1.43-.47.86-.93,1.22-1.81.46a9.92,9.92,0,0,0-2.55-1.58c-1.77-.79-3.44-.17-4.25,2.34a5.76,5.76,0,0,1-1.59,2.72C190.92,191.43,191.71,190.43,190.47,190.34Z"/><path class="cls-3" d="M188.14,187.29c-.11.66-.23,1.33-.34,2-.18,5.51-1,11-1.38,16.47,0,.67,0,1.34,0,2a3.33,3.33,0,0,0-.12,3.12c.38.66,1.47.39,2.23,0,2.38.16,4.8-.32,7.13.46-1.62.66-3.3.23-5,.23a15.11,15.11,0,0,0-3.8.34c-1,.25-1.62,0-1.51-1.25.28-3.17.48-6.34.75-9.51.29-3.5.61-7,.93-10.5.36-3.84.73-7.67,1.08-11.5a1.19,1.19,0,0,1,.8-1.15c.45,1.07-.06,2.09-.16,3.13C188.57,183.19,188.35,185.24,188.14,187.29Z"/><path class="cls-14" d="M203.93,190.92a1.83,1.83,0,0,1-.32,1.32l-.66.12a21.6,21.6,0,0,1-.66-5.13l1,.06c0,.21,0,.43,0,.64v.41C203.62,189.17,202.59,190.34,203.93,190.92Z"/><path class="cls-2" d="M191.73,188.19c-.3.19-.33,1.11-1,.38a.82.82,0,0,0,0-.27l.06-1c.13-.45-.13-1.24.5-1.25s.38.75.44,1.18A5.57,5.57,0,0,1,191.73,188.19Z"/><path class="cls-15" d="M205,177.8c0,.9,0,1.79,0,2.68,0,.3-.12.57-.45.6a.6.6,0,0,1-.39-.22c.27-1-.41-2.33.89-3.05Z"/><path class="cls-2" d="M204.29,182.72a4.28,4.28,0,0,1-.21,3.44C203.44,184.74,204.07,183.74,204.29,182.72Z"/><path class="cls-2" d="M191.74,184.43c-.31-.1-.4-.11-.4-.13a3.68,3.68,0,0,1,.21-2.67s.26,0,.28,0C192.25,182.58,191.71,183.44,191.74,184.43Z"/><path class="cls-2" d="M203.27,187.93c0-.21,0-.43,0-.64h.59c0,1.21,0,2.42,0,3.63-1.34-.58-.31-1.75-.65-2.58C203.5,188.19,203.54,188.06,203.27,187.93Z"/><path class="cls-2" d="M191.75,177.1a.6.6,0,0,1,.68-.29,4.82,4.82,0,0,1-.54,2.72Z"/><path class="cls-6" d="M193,66.25c-.36.07-.7.12-.85-.33A.71.71,0,0,1,193,66.25Z"/><path class="cls-14" d="M104.13,193c0-.53,0-1.06,0-1.6.54-.36.24-.95.37-1.42.55-.55.17-1.29.4-1.91a4.33,4.33,0,0,1,4.34-2.44,6.08,6.08,0,0,1,5.28,3.46c.35.65.7.94,1.38.9.25.85,0,1.9,1,2.41a2,2,0,0,1,.33,1.3l-.88.12a2.36,2.36,0,0,1-1.15-2.1c-.07-.91-.47-1.42-1.49-1.4-1.5,0-2.65-1.23-4.3-1.07a3.13,3.13,0,0,0-3,2.13c-.43,1.13-.9,2.25-1.35,3.37C104.5,194.26,105.32,193.06,104.13,193Z"/><path class="cls-2" d="M104.51,189.93c-.13.47.17,1.06-.37,1.42a11.84,11.84,0,0,1-.62-4C104.59,187.92,104.26,189,104.51,189.93Z"/><path class="cls-2" d="M103,183a3.28,3.28,0,0,1,.55,3.08C102.69,185.27,102.74,184.34,103,183Z"/><path class="cls-2" d="M116.94,192.35c-1-.51-.78-1.56-1-2.41.08-.45.17-.87.73-.36Z"/><path class="cls-2" d="M116.08,188c-.78-.73-1-1.59-.57-3A4.49,4.49,0,0,1,116.08,188Z"/><path class="cls-15" d="M182.72,215.09l.57.31a11,11,0,0,0-.19,3.14,8.54,8.54,0,0,0-3.47.78c1.07.62,1.89-.15,2.74,0a8.17,8.17,0,0,0-.54,3.75c0,1.95-.36,4.17.75,5.84a33.21,33.21,0,0,0,3,4.14c1.08,1.19,1.68,2.27,1.15,3.83a42.6,42.6,0,0,1-7.06,1.48,142.43,142.43,0,0,1-21.2,2.2l-9.6,0a139,139,0,0,1-22.83-2.45.72.72,0,0,0-.78-.25.6.6,0,0,1-.23,0,1.26,1.26,0,0,0-.66-1.25,1.22,1.22,0,0,1-.67-1.25c.3-1.8.58-3.56,2.45-4.62a4.29,4.29,0,0,0,2.17-4.23c-.19-2.42-.62-4.82-.94-7.23.7.06,1.5.82,2.11-.32a12.4,12.4,0,0,0-3.12-.65c-.08-.61-.18-1.22-.24-1.83s.21-.91.9-.78A146.11,146.11,0,0,0,146.17,218a149.8,149.8,0,0,0,26.28-.89,54.58,54.58,0,0,0,8.86-1.54l.65-.12C182.29,215.48,182.59,215.47,182.72,215.09Zm-28.19,6.59a16.13,16.13,0,0,0,4.7.23.63.63,0,0,0,.45-.39c.07-.33-.21-.48-.51-.5A8.84,8.84,0,0,0,154.53,221.68Zm12.82-.51a9.73,9.73,0,0,0,4.27-.21c.28-.1.54-.17.53-.52a.33.33,0,0,0-.45-.33C170.41,220.53,168.91,219.93,167.35,221.17Zm-26.67-.5a6.36,6.36,0,0,0-3.18-.71c-.31,0-.75-.1-.8.38s.31.59.67.59A8.49,8.49,0,0,0,140.68,220.67Zm6.12.59a6.53,6.53,0,0,0-4.59-.45A5,5,0,0,0,146.8,221.26Zm14.82-.14a7.14,7.14,0,0,0,3.85.46.55.55,0,0,0,.56-.52c0-.37-.33-.43-.6-.4C164.16,220.8,162.89,221,161.62,221.12Zm16.17-1.63c-1.17.21-2.33.07-3.47.22a.54.54,0,0,0-.54.53.37.37,0,0,0,.48.33C175.44,220.25,176.78,220.53,177.79,219.49Zm-46.79,0c1.85.94,2.9,1,4,.27A6.28,6.28,0,0,0,131,219.52Z"/><path class="cls-6" d="M184.74,227.69a5.53,5.53,0,0,1-.54-2.6c.09-3.19.14-6.38.24-9.57.06-2.3,1.08-3.33,3.3-3.31,5.21,0,10.42.14,15.62.24a2.7,2.7,0,0,1,2.95,2.76c-.11,3.35-.33,6.7-.55,10a14.06,14.06,0,0,1-.46,2.12v0a.62.62,0,0,0-.42.67l.06-.07a.64.64,0,0,0-.66.43h0a88.63,88.63,0,0,1-15,.13c-1.54-.06-3.15.14-4.54-.82Zm10.33-3.15v.14c1.74,0,3.47,0,5.21,0,1,0,1.59-.35,1.64-1.43.07-1.79.16-3.58.28-5.37.08-1.15-.46-1.63-1.57-1.66-3.53-.07-7.06-.15-10.58-.28-1.07,0-1.56.37-1.57,1.44,0,1.9-.07,3.81-.16,5.71,0,1,.4,1.45,1.37,1.45Z"/><path class="cls-3" d="M181.31,215.57a54.58,54.58,0,0,1-8.86,1.54,149.8,149.8,0,0,1-26.28.89,146.11,146.11,0,0,1-19.12-2.31c-.69-.13-1,.13-.9.78s.16,1.22.24,1.83c0,.2,0,.39,0,.59.09,2.4.23,4.8.27,7.19,0,2.12-.93,3.39-3,3.58a94.34,94.34,0,0,1-19.23,0l-.67-.6-.74-1.32.21-.21,1.17.53a1.47,1.47,0,0,0,1.69,1.25c5.32,0,10.66.27,16-.08,2.88-.19,3.93-1.09,3.92-4.13a72.79,72.79,0,0,0-.7-8.85c-.17-1.36.07-1.91,1.69-1.4a11.48,11.48,0,0,0,5.57.79,177.32,177.32,0,0,0,22,1.53A167.37,167.37,0,0,0,178,215.29c.77-.12,1.56-.12,2.34-.18C180.41,215.79,181.05,215.25,181.31,215.57Z"/><path class="cls-3" d="M183.1,218.53a11,11,0,0,1,.19-3.13c.8.41.53,1.16.53,1.79,0,2.8-.06,5.6-.06,8.4,0,.83,0,1.73,1,2.1h0a2.22,2.22,0,0,0,1.9,1.42c5.37.11,10.74.16,16.1.22.71,0,1.35-.13,1.56-1h0a.63.63,0,0,0,.66-.43l-.06.07a.63.63,0,0,0,.42-.67v0c.94-.68.81-1.78,1-2.72.26-1.53.32-3.09.57-4.65-.08,2.16.84,4.25.37,6.43-1.07,1-1.46,2.64-3,3.22a1.09,1.09,0,0,1-.23.09,94.15,94.15,0,0,1-15,.08c-1.05-.07-2.11-.1-3.17-.15a4.14,4.14,0,0,1-2.78-4.44c.1-2,0-4-.05-6Z"/><path class="cls-3" d="M182.72,215.09c-.13.38-.43.39-.76.36C182.1,215.09,182.28,214.8,182.72,215.09Z"/><path class="cls-3" d="M207.37,227.32c-.3,0-.31-.15-.09-.32Z"/><path class="cls-1" d="M208.39,182.59a.31.31,0,0,1,.21.16l-.11.06h-.12A.14.14,0,0,1,208.39,182.59Z"/><path class="cls-1" d="M208.55,181.2l-.06.32a1,1,0,0,1,0-.24S208.52,181.23,208.55,181.2Z"/><path class="cls-8" d="M222.83,131.29l-.35-.22C222.66,131,222.8,131.09,222.83,131.29Z"/><path class="cls-8" d="M81.89,144.85l-.35.27Z"/><polygon class="cls-9" points="209.12 230.63 209.06 230.57 209.09 230.49 209.22 230.55 209.12 230.63"/><path class="cls-5" d="M87.92,233.49c-.07.47-.23.88-.61.78-1-.25-1.06-1.18-1.26-2-.12-.47.18-.91.6-.74C87.51,231.9,87.39,233,87.92,233.49Z"/><path class="cls-4" d="M95.94,239.62c-.25,1.41-.59,2.78-2,3.59A12.9,12.9,0,0,1,95.94,239.62Z"/><path class="cls-4" d="M96.65,238.11a1.15,1.15,0,0,1-.69,1.43A2.19,2.19,0,0,1,96.65,238.11Z"/><path class="cls-4" d="M97.27,236.45c.11.39.18.78-.34,1C97.05,237.08,97.16,236.77,97.27,236.45Z"/><path class="cls-4" d="M96.93,237.41c.11.32.09.59-.29.71A.78.78,0,0,1,96.93,237.41Z"/><path class="cls-4" d="M92.67,244.55c0,.26-.1.37-.35.35C92.29,244.65,92.41,244.53,92.67,244.55Z"/><path class="cls-4" d="M94,243.19c0,.25-.1.37-.35.36C93.65,243.31,93.76,243.19,94,243.19Z"/><path class="cls-4" d="M93.68,243.54a.3.3,0,0,1-.35.35C93.31,243.64,93.44,243.53,93.68,243.54Z"/><path class="cls-4" d="M93,244.21c0,.26-.09.38-.35.36C92.63,244.31,92.75,244.19,93,244.21Z"/><path class="cls-4" d="M93.34,243.88c0,.24-.1.37-.35.35C93,244,93.09,243.86,93.34,243.88Z"/><path class="cls-6" d="M125.27,222.45a2,2,0,0,1,.12.31c.68,5,0,5.79-4.92,5.91-4.09.1-8.18.06-12.27.12a7.58,7.58,0,0,1-3.73-.76,3.9,3.9,0,0,1-.78-3,13.15,13.15,0,0,0,0-3,15.88,15.88,0,0,1,.07-4.82,4.59,4.59,0,0,1,3.72-3.75c3.29-.14,6.57-.43,9.88-.36a11.06,11.06,0,0,1,4.86,1.07,3.81,3.81,0,0,1,2.31,2.83C124.83,218.83,124.6,220.7,125.27,222.45Zm-11.44-6.37v.15c-1.85,0-3.7,0-5.55,0-1,0-1.51.29-1.41,1.36.19,2,.35,4,.53,6a1.27,1.27,0,0,0,1.46,1.27c3.7-.08,7.4-.17,11.1-.24,1,0,1.42-.46,1.34-1.47-.14-1.78-.27-3.57-.34-5.36,0-1.3-.66-1.78-1.92-1.74C117.31,216.12,115.57,216.08,113.83,216.08Z"/><path class="cls-8" d="M125.27,222.45c-.67-1.75-.44-3.62-.76-5.43a3.81,3.81,0,0,0-2.31-2.83,11.06,11.06,0,0,0-4.86-1.07c-3.31-.07-6.59.22-9.88.36a4.59,4.59,0,0,0-3.72,3.75,15.88,15.88,0,0,0-.07,4.82,13.15,13.15,0,0,1,0,3,62.38,62.38,0,0,1-.78-8.18,8.3,8.3,0,0,1,2.62-4.31c5.42-.38,10.84-.39,16.26-.33a2.75,2.75,0,0,1,3.06,2.69C125.08,217.43,125.14,219.94,125.27,222.45Z"/><path class="cls-11" d="M105.53,212.57a8.3,8.3,0,0,0-2.62,4.31c-.37-1.66-.45-3.25,1.22-4.33Z"/><path class="cls-14" d="M103.06,227.75c.24.44.49.88.74,1.32-.46.79-1,2.17-.39,2.41.85.32.53-1.25,1.06-1.81a94.34,94.34,0,0,0,19.23,0c2-.19,3-1.46,3-3.58,0-2.39-.18-4.79-.27-7.19l1,.38c.32,2.41.75,4.81.94,7.23a4.29,4.29,0,0,1-2.17,4.23c-1.87,1.06-2.15,2.82-2.45,4.62a1.22,1.22,0,0,0,.67,1.25,1.26,1.26,0,0,1,.66,1.25c-2.74-.57-5.47-1.15-8.21-1.68-1.72-.33-2.29.2-2.56,1.92a145.91,145.91,0,0,0-1.07,15.2c-1.29.7-1.83,2.05-2.69,3.12-.45.56-.86,1-1.65.94-1-.13-.65-.9-.69-1.45-.08-1.2-1-1-1.61-.82-2.91,1-4-.76-4.1-3.36,0-1.44-1.13-2.5-1.1-4a23.4,23.4,0,0,1,.81-6.61,2.5,2.5,0,0,0-.48-2.32c0-.25,0-.62-.11-.75-.3-.26-.46.09-.55.32a4.06,4.06,0,0,0-.6,2.15c-.88.11-.66.78-.68,1.32-1.21.27-1.24,1.4-1.66,2.26-.16.53-.76.86-.72,1.5-.63-.05-.85.64-1.39.76-1.2,0-1.28-1-1.64-1.8a36.43,36.43,0,0,0,5.7-13c.66-2.52,1.25-5.07,1.88-7.66C102.76,225.1,102,226.69,103.06,227.75Zm.27,5.49c-1.08,1.37-1.21,1.89-.88,3.08A6.6,6.6,0,0,0,103.33,233.24Z"/><path class="cls-3" d="M113.21,253.29a145.91,145.91,0,0,1,1.07-15.2c.27-1.72.84-2.25,2.56-1.92,2.74.53,5.47,1.11,8.21,1.68a.6.6,0,0,0,.23,0,.72.72,0,0,0,.78.25,139,139,0,0,0,22.83,2.45,32.52,32.52,0,0,0,9.6,0,142.43,142.43,0,0,0,21.2-2.2,42.6,42.6,0,0,0,7.06-1.48,18.89,18.89,0,0,0,4.52-.91c1.16-.25,2.1-.09,2.55,1.17A176.33,176.33,0,0,1,196.18,265a35.31,35.31,0,0,1-.37,4.82l-.71,1.2-1.95.57c.07-.32,0-.83.23-.92,1.73-.87,1.54-2.43,1.49-3.93a31.39,31.39,0,0,0-.34-6.35v0a1,1,0,0,0,0-1.43A118.59,118.59,0,0,0,193,240.55a1.54,1.54,0,0,0,0-.47c-.48-3.37-.78-3.53-4-2.24l-.45.31h0a4.31,4.31,0,0,0-1.82.14c-11.7,2.14-23.42,3.95-35.39,3.66a141.07,141.07,0,0,1-27-3c-2.78-.61-5.52-1.5-8.42-1.5-1.23,1-.45,2.47-.76,3.69a31.12,31.12,0,0,0-.51,5.93c-.25,3.95,0,7.94,0,11.9,0,1-.33,1.94.25,2.85l0,.49a40.68,40.68,0,0,0,.35,7.48l-.39,1.14-.94-1.1A145.17,145.17,0,0,1,113.21,253.29Z"/><path class="cls-15" d="M119.08,241.89c-1-.11-.77-.86-.78-1.48s0-1.3,0-1.94c21.32,6.4,42.8,6.55,64.42,1.74-.89,1.84-2.7,2-4.34,2.08a5.44,5.44,0,0,0-4.78,2.27,17.85,17.85,0,0,1-4.31.35,2.73,2.73,0,0,0-1.51.34,21.47,21.47,0,0,1-4.67.32,1.64,1.64,0,0,0-2,1c0-.87-.7-.69-1.22-.69-1.27,0-2.55,0-3.82,0h-8.47l-4.67-.33h-1.41a21.45,21.45,0,0,0-4.38-.41c-.38-.41-.88-.22-1.33-.27a17.34,17.34,0,0,0-4.3-.65h-1.66c-.62-.84-1.71-.45-2.46-1-.8-.83-1.82-.25-2.72-.41C122.78,242.71,121,241.7,119.08,241.89Z"/><path class="cls-2" d="M182.72,240.21c-21.62,4.81-43.1,4.66-64.42-1.74-.69-.55-1.74-.28-2.36-1,2.9,0,5.64.89,8.42,1.5a141.07,141.07,0,0,0,27,3c12,.29,23.69-1.52,35.39-3.66a4.31,4.31,0,0,1,1.82-.14C186.76,239.15,184.65,239.42,182.72,240.21Z"/><path class="cls-2" d="M114.94,262.32l0-.49a5.32,5.32,0,0,0-.25-2.85c0-4-.24-8,0-11.9a31.12,31.12,0,0,1,.51-5.93c1.1,1.24,1,2.82,1,4.26a138.21,138.21,0,0,1-.31,15.23C115.82,261.32,116,262.16,114.94,262.32Z"/><path class="cls-2" d="M193,240.55A118.59,118.59,0,0,1,194.55,259l0,1.43v0c-1.69-.71-1.07-2.37-1.23-3.53a107.8,107.8,0,0,1-1.12-14.14C192.18,242,192,241.05,193,240.55Z"/><path class="cls-2" d="M119.08,241.89c2-.19,3.7.82,5.6,1-.22,1.13-1,.6-1.58.48-3.26-.66-3.25-.68-3.46,2.59a.83.83,0,0,1-.53.87A21.42,21.42,0,0,1,119.08,241.89Z"/><path class="cls-2" d="M189.63,247.32a2.64,2.64,0,0,1-.84-1.87c-.18-1.57-.23-3.22-2.82-2.64a3.51,3.51,0,0,1,2.14-.92c.38-.1.89-.07.94.44C189.2,243.91,190,245.42,189.63,247.32Z"/><path class="cls-2" d="M149,245.91h5.32c0,.11,0,.25,0,.32C153.34,247.41,149.81,247.18,149,245.91Z"/><path class="cls-2" d="M156.08,245.91c1.27,0,2.55,0,3.82,0,.52,0,1.18-.18,1.22.69-1.34-.09-2.61.51-4,.38C156.41,246.89,156,246.75,156.08,245.91Z"/><path class="cls-2" d="M131.52,244.24a17.34,17.34,0,0,1,4.3.65A3.16,3.16,0,0,1,131.52,244.24Z"/><path class="cls-2" d="M142.94,245.58l4.67.33c0,.63-.44.68-.92.67-.94,0-1.89,0-2.83,0C143.08,246.63,142.88,246.25,142.94,245.58Z"/><path class="cls-2" d="M180.25,271.84c-1.54,0-2.82,1-4.35,1C176.44,271.53,179.44,270.82,180.25,271.84Z"/><path class="cls-2" d="M137.15,245.16a21.45,21.45,0,0,1,4.38.41C140.24,246.66,137.82,246.43,137.15,245.16Z"/><path class="cls-2" d="M175.5,244.64c1.22-.89,2.62-.82,4-.83A5,5,0,0,1,175.5,244.64Z"/><path class="cls-2" d="M169.29,244.91a17.85,17.85,0,0,0,4.31-.35c0,.82-.64.82-1.14.93a23.62,23.62,0,0,0-2.47.34C169.25,246.08,169.22,245.46,169.29,244.91Z"/><path class="cls-2" d="M163.11,245.57a21.47,21.47,0,0,0,4.67-.32c0,.06,0,.13,0,.17C167,246.54,164,246.63,163.11,245.57Z"/><path class="cls-2" d="M126.48,270.74c1.59-.31,2.55.43,3.62.6a.37.37,0,0,1,.22.54.43.43,0,0,1-.56.23A11.18,11.18,0,0,1,126.48,270.74Z"/><path class="cls-2" d="M181.84,270.92a4.44,4.44,0,0,1,3.41-1.25A4.92,4.92,0,0,1,181.84,270.92Z"/><path class="cls-2" d="M187.05,269.06c.69-1.06,1.9-1.38,2.94-1.95C189.67,268.65,188.24,268.68,187.05,269.06Z"/><path class="cls-2" d="M127.4,243.29c.75.5,1.84.11,2.46,1-1.36.51-2.51-.07-3.77-.54C126.51,243,127,243.32,127.4,243.29Z"/><path class="cls-2" d="M190.16,265.74a1.72,1.72,0,0,1-.33-1.56c0-.48-.31-1.35.49-1.29s.35.91.39,1.41A1.8,1.8,0,0,1,190.16,265.74Z"/><path class="cls-2" d="M125.25,270.1c-1.26.62-2-.17-3.12-1.06A5.06,5.06,0,0,1,125.25,270.1Z"/><path class="cls-2" d="M190.22,258.17c.72.85.48,1.69.52,2.51,0,.27-.05.61-.43.56a.55.55,0,0,1-.42-.64C190,259.79,190.11,259,190.22,258.17Z"/><path class="cls-2" d="M181.23,243.65a4.54,4.54,0,0,1,3.52-.69A4.63,4.63,0,0,1,181.23,243.65Z"/><path class="cls-2" d="M120,266.69c.5.65,1.34,1,1.58,2.09C120.27,268.47,119.53,268,120,266.69Z"/><path class="cls-2" d="M119.32,256.45a4.75,4.75,0,0,1-.1-3.29A4,4,0,0,1,119.32,256.45Z"/><path class="cls-2" d="M119.32,248.53a5.39,5.39,0,0,1,.07,3.23A3.4,3.4,0,0,1,119.32,248.53Z"/><path class="cls-2" d="M189.66,248.51c.28.34.4.42.41.5a9,9,0,0,1,0,2.48C189.25,250.71,189.39,249.77,189.66,248.51Z"/><path class="cls-2" d="M190.23,253.27a10.82,10.82,0,0,1,.24,3.16C189.66,255.31,189.62,254.89,190.23,253.27Z"/><path class="cls-2" d="M119.45,261.53a3.16,3.16,0,0,1-.1-2.95A4.72,4.72,0,0,1,119.45,261.53Z"/><path class="cls-2" d="M119.57,263a2.82,2.82,0,0,1,.14,2.61A3.18,3.18,0,0,1,119.57,263Z"/><path class="cls-2" d="M188.58,238.15l.45-.31Z"/><path class="cls-2" d="M116.39,193.77l.88-.12c-.15,1,.69,2,.15,3.26A8.85,8.85,0,0,1,116.39,193.77Z"/><path class="cls-2" d="M104.13,193c1.19.11.37,1.31,1,1.75,0,.22,0,.43.07.65s0,.66,0,1C103.83,195.5,104.24,194.15,104.13,193Z"/><path class="cls-2" d="M117.91,201.22c-.12-1-.93-1.91-.26-3.34C118,199.21,118.48,200.15,117.91,201.22Z"/><path class="cls-2" d="M118.27,203.25c.36.88.94,1.71.35,3.11C118.28,205.09,117.84,204.24,118.27,203.25Z"/><path class="cls-2" d="M105.14,201.46a4.55,4.55,0,0,1,0-3.72C105.41,199,105.87,200.22,105.14,201.46Z"/><path class="cls-2" d="M105.47,206.18a12.73,12.73,0,0,1-.32-3.37C106.39,203.83,105.9,205,105.47,206.18Z"/><path class="cls-2" d="M190.59,197.83c-.18,0-.27,0-.28,0a3.29,3.29,0,0,1,.08-2.66c0-.07.42,0,.42,0A5.77,5.77,0,0,1,190.59,197.83Z"/><path class="cls-2" d="M203,192.36l.66-.12a11,11,0,0,1-.28,3.59C202.67,194.49,203.09,193.39,203,192.36Z"/><path class="cls-2" d="M190.47,190.34c1.24.09.45,1.09.72,1.61-.17.49.18,1.11-.52,1.64C190.23,192.47,190.55,191.38,190.47,190.34Z"/><path class="cls-2" d="M203,197.54a5.34,5.34,0,0,1,.11,3.49A4.23,4.23,0,0,1,203,197.54Z"/><path class="cls-2" d="M189.6,206.52a3.55,3.55,0,0,1,.25-2.87A2.92,2.92,0,0,1,189.6,206.52Z"/><path class="cls-14" d="M188.49,210.88c-.76.4-1.85.67-2.23,0a3.33,3.33,0,0,1,.12-3.12,4.79,4.79,0,0,1,0,1C186.07,210.5,186.85,211.12,188.49,210.88Z"/><path class="cls-2" d="M190.13,199.22a3.49,3.49,0,0,1,0,3A3.45,3.45,0,0,1,190.13,199.22Z"/><path class="cls-14" d="M193.82,237.12c-.45-1.26-1.39-1.42-2.55-1.17a18.89,18.89,0,0,1-4.52.91c.53-1.56-.07-2.64-1.15-3.83a33.21,33.21,0,0,1-3-4.14c-1.11-1.67-.7-3.89-.75-5.84a8.17,8.17,0,0,1,.54-3.75l.6-.08c0,2,.15,4,.05,6a4.14,4.14,0,0,0,2.78,4.44c-.75.67-.23,1,.32,1.42a6.94,6.94,0,0,0,3.53.91c3.33.37,6.68.61,10,.7,1.65,0,2.62,1.1,3.79,1.88a1.24,1.24,0,0,1,.28,1.39c-.16.58-.36,1.41-.07,1.8,1.21,1.68,1.07,3.57,1.35,5.46.35,2.43.25,3.41-1.85,4.74-1.3.83-1.95,2.51-3.67,2.82-.13,0-.21.47-.26.74s.11.85-.39,1-.89-.34-1.24-.67c-1-1-.78-2.31-1-3.48-.59-2.87-1-5.78-1.4-8.69A3.92,3.92,0,0,0,193.82,237.12Z"/><path class="cls-2" d="M211.12,246.41a6.22,6.22,0,0,1-2.85-3.69C210.1,243.65,210.15,245.4,211.12,246.41Z"/><path class="cls-2" d="M205.63,234.09c.31.91.62,1.81.92,2.71,0,.23,0,.59-.22.53C205.43,237.07,205,234.84,205.63,234.09Z"/><path class="cls-2" d="M204,229.75a1.09,1.09,0,0,0,.23-.09c1,.81.65,2.07,1.06,3.07C203.59,232.28,204.24,230.82,204,229.75Z"/><path class="cls-2" d="M207,238.83a6,6,0,0,1,1.29,3A2.3,2.3,0,0,1,207,238.83Z"/><path class="cls-2" d="M91.3,250.6a21.93,21.93,0,0,0,3.08-2.29C94.33,249.63,93.28,250.41,91.3,250.6Z"/><path class="cls-2" d="M96,246.34c.54-.12.76-.81,1.39-.76-.4,1.33-.44,1.39-1.83,2.12C95.37,247.13,95.83,246.78,96,246.34Z"/><path class="cls-2" d="M98.1,244.08c.42-.86.45-2,1.66-2.26C99.57,242.84,99.45,243.91,98.1,244.08Z"/><path class="cls-2" d="M100.44,240.5a4.06,4.06,0,0,1,.6-2.15c.09-.23.25-.58.55-.32.15.13.08.5.11.75C101.21,239.31,101.2,240.18,100.44,240.5Z"/><path class="cls-13" d="M125,109.69a2,2,0,0,1,1,1.51c-.34.21-.57.07-.85-.17a9.35,9.35,0,0,0-4.84-2,11.25,11.25,0,0,0-12.8,10.37,12.14,12.14,0,0,0,11.52,13c4.41.1,7.54-2,9.73-5.75l.6.69c-.22.76-.45,1.52-.67,2.29-.22.16-.57.28-.63.49-.88,2.92-3.4,3.36-5.86,4-6.25,1.72-12.29.86-18.26-1.25a4,4,0,0,1-.84-.55c0-.18-.06-.39-.34-.35l0,0c.16-.56-.26-.95-.44-1.4a21.45,21.45,0,0,1-1.59-11.47c1.52-10.76,13.66-16.36,22.62-10.41C123.91,109,124.18,109.85,125,109.69Z"/><path class="cls-13" d="M197.84,123.65a28.6,28.6,0,0,1-20,5.22c-2.08-.21-4.22-.73-5.6-2.63h0c-.11-.75-.22-1.51-.34-2.26l1.3,1.06c4.22,3.27,10.6,3,14.16-.7A12,12,0,0,0,188,108a11.27,11.27,0,0,0-16.32-.62c-.44-.22-.37-.64-.38-1a15.09,15.09,0,0,1,18.58-3.61c6.1,3.41,9.63,11.64,8.16,18.86C197.86,122.27,197.21,122.94,197.84,123.65Z"/><path class="cls-4" d="M153.36,144.15c-.47-2.22-2-3.07-4-3.92a28,28,0,0,1-8.75-5.88c-1.94-1.91-1.78-3.77.16-5.64a8.49,8.49,0,0,1,3.94-1.91c4.83-1.37,9.71-1.86,14.59-.36,4.18,1.29,4.85,4.77,1.76,7.84a42.93,42.93,0,0,1-7.6,6.57c-1,.61.26,1.55.29,2.37C153.66,143.55,153.83,144,153.36,144.15Zm-3.77-13.47a14.62,14.62,0,0,0,7.28-1.63c.39-.23.82-.53.81-1s-.5-.58-.87-.65a21.8,21.8,0,0,0-12.22,1.08c-.35.13-.77.31-.76.79s.49.7.93.82A19.14,19.14,0,0,0,149.59,130.68Z"/><path class="cls-4" d="M178.47,153.45c0,1-.9,1.51-1.88.93-.81-.5-1.57-1.07-2.38-1.58A13.18,13.18,0,0,0,162,151.67a74.21,74.21,0,0,0-18.66,10.54c-.36.26-.7.56-1.08.8-.66.4-1.44,1-2,.06a1.45,1.45,0,0,1,.6-2c1.66-1.15,3.28-2.39,5-3.38,3.79-2.15,7.65-4.18,11.49-6.23a23.56,23.56,0,0,1,9.35-3.1c4.29-.3,7.81,1.64,11.17,4A1.44,1.44,0,0,1,178.47,153.45Z"/><path class="cls-4" d="M197.84,123.65c-.63-.71,0-1.38.15-2,1.47-7.22-2.06-15.45-8.16-18.86a15.09,15.09,0,0,0-18.58,3.61c-.28,0-.56.1-.56-.33l.34-.64,0,0,.33-.4,0,0,.39-.55c1.83-1.8,3.64-3.61,6.11-4.56a16,16,0,0,1,18.94,5.76l.79,1.07.31.61h0l.34.69,0,0,.34.72,0,0a23.77,23.77,0,0,1,1.48,7.27C199.62,118.74,199.52,121.42,197.84,123.65Z"/><path class="cls-4" d="M125,109.69c-.83.16-1.1-.65-1.62-1-9-6-21.1-.35-22.62,10.41a21.45,21.45,0,0,0,1.59,11.47c.18.45.6.84.44,1.4-1.87-1.22-2.3-3.36-3.26-5.16a32.37,32.37,0,0,1-1-5.34,6.12,6.12,0,0,0-.08-2.52l.16-.57c1.28-7.19,5.66-12.2,12-13.59A15.67,15.67,0,0,1,124,108C124.36,108.56,125.28,108.78,125,109.69Z"/><path class="cls-1" d="M153.36,144.15c.47-.17.3-.6.37-.93a37.16,37.16,0,0,1,1.93,6.48A21.71,21.71,0,0,1,153.36,144.15Z"/><path class="cls-8" d="M86.78,154.5l-.53-.32c.35-.36.79-.53,1.09-.09C87.49,154.31,87.07,154.48,86.78,154.5Z"/><path class="cls-8" d="M85.54,155.19l.38-.26Z"/><path class="cls-4" d="M102.76,131.94c.28,0,.3.17.34.35C102.89,132.27,102.75,132.18,102.76,131.94Z"/><path class="cls-11" d="M170.69,106.06c0,.43.28.38.56.33,0,.38-.06.8.38,1a12.54,12.54,0,0,0-2.91,8c-.67-2.25.31-4.32.73-6.46,0-.31.09-.63.13-1a1.06,1.06,0,0,0,.67-.88c0-.16.05-.31.07-.46.21-.1.36-.24.27-.5a.1.1,0,0,0,.07-.14Z"/><path class="cls-8" d="M170.25,107.15a1.06,1.06,0,0,1-.67.88C169.58,107.56,169.42,107,170.25,107.15Z"/><path class="cls-8" d="M198.46,108.8l-.34-.72C198.54,108.17,198.54,108.47,198.46,108.8Z"/><path class="cls-8" d="M198.15,108.11l-.34-.69C198.2,107.51,198.19,107.8,198.15,108.11Z"/><path class="cls-8" d="M197.81,107.41l-.31-.61C197.86,106.87,197.82,107.15,197.81,107.41Z"/><path class="cls-8" d="M170.59,106.19c.09.26-.06.4-.27.5C170.25,106.44,170.11,106.15,170.59,106.19Z"/><path class="cls-8" d="M170.69,106.06h0c-.11-.34-.08-.6.37-.63C170.91,105.63,170.8,105.85,170.69,106.06Z"/><path class="cls-8" d="M171.32,105.05l-.33.4A.33.33,0,0,1,171.32,105.05Z"/><path class="cls-8" d="M171.66,104.53l-.39.55Z"/><path class="cls-4" d="M128.76,126.58c-2.19,3.71-5.32,5.85-9.73,5.75a12.14,12.14,0,0,1-11.52-13A11.25,11.25,0,0,1,120.31,109a9.35,9.35,0,0,1,4.84,2c.28.24.51.38.85.17.87,1.33,1.77,2.63,2.6,4a11.6,11.6,0,0,1,1.31,3.9A14.68,14.68,0,0,1,128.76,126.58Zm-5-12.16a3.69,3.69,0,0,0-3.56-3.57,3.55,3.55,0,0,0-3.41,3.32,3.65,3.65,0,0,0,3.67,3.61A3.39,3.39,0,0,0,123.73,114.42Z"/><path class="cls-11" d="M128.76,126.58a14.68,14.68,0,0,0,1.15-7.49,2.07,2.07,0,0,1,.21-.45c.18-.23.27,0,.28.12.06,2.88.18,5.78-1,8.51Z"/><path class="cls-4" d="M168.72,115.44a12.54,12.54,0,0,1,2.91-8A11.27,11.27,0,0,1,188,108a12,12,0,0,1-.59,16.3c-3.56,3.65-9.94,4-14.16.7L171.9,124l-.06-.07-.58-.39a1,1,0,0,0-.66-1l0,0c-.06-.27,0-.6-.38-.7l0,0c-.06-.27,0-.6-.36-.72l0,0-1.17-4.34Zm13.72-9.5a3.58,3.58,0,0,0-3.73,3.36,3.66,3.66,0,0,0,3.41,3.53,3.45,3.45,0,1,0,.32-6.89Z"/><path class="cls-11" d="M170.6,122.47a1,1,0,0,1,.66,1c.09.28.34.32.58.39l.06.07c.12.75.23,1.51.34,2.26A3.71,3.71,0,0,1,170.6,122.47Z"/><path class="cls-11" d="M168.78,116.83l1.17,4.34A5.57,5.57,0,0,1,168.78,116.83Z"/><path class="cls-11" d="M169.92,121.13c.36.12.3.45.36.72C169.93,121.72,169.9,121.44,169.92,121.13Z"/><path class="cls-11" d="M170.25,121.81c.37.1.32.43.38.7C170.27,122.4,170.23,122.12,170.25,121.81Z"/><path class="cls-6" d="M98.48,119a6.12,6.12,0,0,1,.08,2.52A5.5,5.5,0,0,1,98.48,119Z"/><path class="cls-8" d="M182,192.33a11.35,11.35,0,0,1,1.14,7.11c-.22,1-.62,1.09-1.29.47a9.64,9.64,0,0,0-3.69-2.14c3,5.35,4.72,10.63,2.48,16.42-.63-1.14-.24-2.29.08-3.39.82-2.86,0-5.52-1-8.13a14.35,14.35,0,0,0-1.83-3.93,1.15,1.15,0,0,1-.13-1.41c.41-.58.89,0,1.33.12a11.88,11.88,0,0,1,1.7.63c.46.24.8.95,1.41.4a1.58,1.58,0,0,0,.42-1.71,13.25,13.25,0,0,0-.72-2.73A1.38,1.38,0,0,1,182,192.33Z"/><path class="cls-8" d="M180.68,187.22c-.48.05-.87-.48-1.42-.24-.19.52.48.78.42,1.27a1.33,1.33,0,0,1-1.32-1.38c0-.3.13-.6.44-.57C179.54,186.35,180.35,186.32,180.68,187.22Z"/><path class="cls-8" d="M180.71,189.92a2.61,2.61,0,0,1,1,1.71C180.75,191.4,180.69,190.68,180.71,189.92Z"/><path class="cls-8" d="M183,186.91c0,.68.07,1.45-1,.72A1,1,0,0,1,183,186.91Z"/><path class="cls-8" d="M179.68,188.25a1.22,1.22,0,0,1,.65,1C179.65,189.22,179.65,188.75,179.68,188.25Z"/><path class="cls-8" d="M180.34,189.29a.64.64,0,0,1,.37.63A.56.56,0,0,1,180.34,189.29Z"/><path class="cls-8" d="M181.3,187.34a.32.32,0,0,1-.28-.08C181.19,187,181.27,187.08,181.3,187.34Z"/><path class="cls-12" d="M190.74,188.3a.82.82,0,0,1,0,.27,2,2,0,0,1-.11-.2Z"/><path class="cls-12" d="M203.27,187.93c.27.13.23.26,0,.41Z"/><path class="cls-2" d="M154.53,221.68a8.84,8.84,0,0,1,4.64-.66c.3,0,.58.17.51.5a.63.63,0,0,1-.45.39A16.13,16.13,0,0,1,154.53,221.68Z"/><path class="cls-2" d="M167.35,221.17c1.56-1.24,3.06-.64,4.35-1.06a.33.33,0,0,1,.45.33c0,.35-.25.42-.53.52A9.73,9.73,0,0,1,167.35,221.17Z"/><path class="cls-2" d="M140.68,220.67a8.49,8.49,0,0,1-3.31.26c-.36,0-.7-.19-.67-.59s.49-.36.8-.38A6.36,6.36,0,0,1,140.68,220.67Z"/><path class="cls-2" d="M146.8,221.26a5,5,0,0,1-4.59-.45A6.53,6.53,0,0,1,146.8,221.26Z"/><path class="cls-2" d="M161.62,221.12c1.27-.15,2.54-.32,3.81-.46.27,0,.6,0,.6.4a.55.55,0,0,1-.56.52A7.14,7.14,0,0,1,161.62,221.12Z"/><path class="cls-2" d="M177.79,219.49c-1,1-2.35.76-3.53,1.08a.37.37,0,0,1-.48-.33.54.54,0,0,1,.54-.53C175.46,219.56,176.62,219.7,177.79,219.49Z"/><path class="cls-2" d="M131,219.52a6.28,6.28,0,0,1,4,.27C133.9,220.51,132.85,220.46,131,219.52Z"/><path class="cls-14" d="M158.49,240.54a32.52,32.52,0,0,1-9.6,0Z"/><path class="cls-2" d="M127.4,219.27l-1-.38c0-.2,0-.39,0-.59a12.4,12.4,0,0,1,3.12.65C128.9,220.09,128.1,219.33,127.4,219.27Z"/><path class="cls-2" d="M183,219.22l-.6.08c-.85-.13-1.67.64-2.74,0a8.54,8.54,0,0,1,3.47-.78C183.06,218.76,183,219,183,219.22Z"/><path class="cls-14" d="M126.06,238.11a.72.72,0,0,1-.78-.25A.72.72,0,0,1,126.06,238.11Z"/><path class="cls-3" d="M195.07,224.54h-5.38c-1,0-1.42-.44-1.37-1.45.09-1.9.13-3.81.16-5.71,0-1.07.5-1.48,1.57-1.44,3.52.13,7,.21,10.58.28,1.11,0,1.65.51,1.57,1.66-.12,1.79-.21,3.58-.28,5.37,0,1.08-.62,1.45-1.64,1.43-1.74,0-3.47,0-5.21,0Zm.44-7.29v0c-.5,0-1,0-1.51,0-5.33.16-4.46-1.17-4.57,4.95,0,.84.28,1.11,1.13,1.23,3.07.46,6.14.18,9.21.26.6,0,1.13,0,1.15-.84,0-1.4.39-2.76.34-4.17,0-1-.37-1.44-1.38-1.41C198.42,217.27,197,217.25,195.51,217.25Z"/><path class="cls-4" d="M204.29,228.38c-.21.82-.85,1-1.56,1-5.36-.06-10.73-.11-16.1-.22a2.22,2.22,0,0,1-1.9-1.42c1.39,1,3,.76,4.54.82A88.63,88.63,0,0,0,204.29,228.38Z"/><path class="cls-4" d="M205.3,227.36a.63.63,0,0,1-.42.67A.62.62,0,0,1,205.3,227.36Z"/><path class="cls-4" d="M204.94,228a.63.63,0,0,1-.66.43A.64.64,0,0,1,204.94,228Z"/><path class="cls-2" d="M104.47,229.67c-.53.56-.21,2.13-1.06,1.81-.66-.24-.07-1.62.39-2.41Z"/><path class="cls-3" d="M113.83,216.08c1.74,0,3.48,0,5.21,0,1.26,0,1.87.44,1.92,1.74.07,1.79.2,3.58.34,5.36.08,1-.35,1.45-1.34,1.47-3.7.07-7.4.16-11.1.24a1.27,1.27,0,0,1-1.46-1.27c-.18-2-.34-4-.53-6-.1-1.07.46-1.37,1.41-1.36,1.85,0,3.7,0,5.55,0Zm.16,1.14v.05c-1.63,0-3.26,0-4.89,0-.84,0-1.29.34-1.21,1.2.11,1.34.23,2.67.41,4,.09.69.34,1.25,1.27,1.24,3.2,0,6.41,0,9.61,0,.6,0,1.14-.09,1.13-.89,0-1.4,0-2.8-.09-4.21,0-1-.62-1.41-1.68-1.36C117,217.29,115.51,217.22,114,217.22Z"/><path class="cls-2" d="M103.33,233.24a6.6,6.6,0,0,1-.88,3.08C102.12,235.13,102.25,234.61,103.33,233.24Z"/><path class="cls-14" d="M114.66,259a5.32,5.32,0,0,1,.25,2.85C114.33,260.92,114.64,259.94,114.66,259Z"/><path class="cls-14" d="M194.52,260.41l0-1.43A1,1,0,0,1,194.52,260.41Z"/><path class="cls-16" d="M149.59,130.68a19.14,19.14,0,0,1-4.83-.6c-.44-.12-.91-.25-.93-.82s.41-.66.76-.79a21.8,21.8,0,0,1,12.22-1.08c.37.07.86.19.87.65s-.42.78-.81,1A14.62,14.62,0,0,1,149.59,130.68Z"/><path class="cls-13" d="M123.73,114.42a3.39,3.39,0,0,1-3.3,3.36,3.65,3.65,0,0,1-3.67-3.61,3.55,3.55,0,0,1,3.41-3.32A3.69,3.69,0,0,1,123.73,114.42Z"/><path class="cls-13" d="M182.44,105.94a3.45,3.45,0,1,1-.32,6.89,3.66,3.66,0,0,1-3.41-3.53A3.58,3.58,0,0,1,182.44,105.94Z"/><path class="cls-13" d="M171.84,123.9c-.24-.07-.49-.11-.58-.39Z"/><path class="cls-14" d="M195.51,217.25c1.46,0,2.91,0,4.37,0,1,0,1.34.43,1.38,1.41.05,1.41-.3,2.77-.34,4.17,0,.8-.55.85-1.15.84-3.07-.08-6.14.2-9.21-.26-.85-.12-1.15-.39-1.13-1.23.11-6.12-.76-4.79,4.57-4.95.51,0,1,0,1.51,0Z"/></g></svg>