<svg width="100" height="100" viewBox="0 0 100 100" fill="none" xmlns="http://www.w3.org/2000/svg">
<path d="M31.1665 24.1599C31.1665 20.8005 32.501 17.5787 34.8765 15.2032C37.252 12.8278 40.4738 11.4933 43.8332 11.4933C47.1926 11.4933 50.4144 12.8278 52.7899 15.2032C55.1653 17.5787 56.4999 20.8005 56.4999 24.1599V36.9799H68.6999V25.2166C68.7003 21.949 68.0571 18.7134 66.8069 15.6944C65.5568 12.6754 63.7242 9.93229 61.4139 7.62161C59.1035 5.31094 56.3606 3.47799 53.3418 2.22745C50.323 0.976902 47.0874 0.333252 43.8199 0.333252C37.2204 0.333252 30.8912 2.95488 26.2247 7.62141C21.5582 12.2879 18.9365 18.6171 18.9365 25.2166V36.9799H31.1665V24.1599Z" fill="#BAC7CA"/>
<path d="M63.1467 25.2166V36.9799H68.7V25.2166C68.7005 21.949 68.0573 18.7134 66.8071 15.6944C65.557 12.6754 63.7244 9.93229 61.414 7.62161C59.1037 5.31094 56.3608 3.47799 53.342 2.22745C50.3232 0.976902 47.0876 0.333252 43.82 0.333252C42.8912 0.334845 41.9632 0.387145 41.04 0.489919C47.1203 1.17266 52.7359 4.07162 56.8139 8.63293C60.8919 13.1942 63.1464 19.0981 63.1467 25.2166Z" fill="#9AA3A3"/>
<path d="M74.92 36.98H12.7167C10.9347 36.9817 9.22629 37.6909 7.96686 38.9516C6.70744 40.2122 6 41.9213 6 43.7033V57.0366C5.99825 62.0045 6.97518 66.9241 8.87499 71.5143C10.7748 76.1046 13.5603 80.2756 17.0723 83.7892C20.5843 87.3028 24.7542 90.0901 29.3436 91.992C33.933 93.8938 38.8521 94.8729 43.82 94.8733C53.8517 94.8733 63.4725 90.8885 70.5663 83.7953C77.6601 76.7022 81.6458 67.0817 81.6467 57.05V43.7166C81.648 42.8324 81.475 41.9567 81.1375 41.1394C80.8 40.3221 80.3048 39.5794 79.68 38.9537C79.0553 38.328 78.3133 37.8316 77.4965 37.493C76.6797 37.1543 75.8042 36.98 74.92 36.98Z" fill="#E6B262"/>
<path d="M74.92 36.98H69.3634C70.2466 36.9795 71.1212 37.1531 71.9373 37.4908C72.7534 37.8285 73.495 38.3237 74.1196 38.948C74.7443 39.5724 75.2398 40.3137 75.5779 41.1296C75.916 41.9456 76.09 42.8201 76.09 43.7033V57.0366C76.0913 66.5888 72.4784 75.7878 65.9768 82.7859C59.4752 89.784 50.5665 94.0629 41.04 94.7633C41.96 94.83 42.8834 94.8733 43.82 94.8733C53.8517 94.8733 63.4726 90.8885 70.5664 83.7953C77.6601 76.7022 81.6458 67.0817 81.6467 57.05V43.7166C81.648 42.8324 81.475 41.9567 81.1375 41.1394C80.8001 40.3221 80.3048 39.5794 79.6801 38.9537C79.0553 38.328 78.3133 37.8316 77.4965 37.493C76.6798 37.1543 75.8042 36.98 74.92 36.98Z" fill="#D28A34"/>
<path d="M46.7035 65.9633C48.6317 65.2826 50.2571 63.9421 51.2924 62.1788C52.3276 60.4154 52.706 58.3428 52.3607 56.3274C52.0154 54.312 50.9687 52.4836 49.4055 51.1654C47.8423 49.8473 45.8633 49.1243 43.8185 49.1243C41.7738 49.1243 39.7948 49.8473 38.2316 51.1654C36.6684 52.4836 35.6216 54.312 35.2763 56.3274C34.931 58.3428 35.3095 60.4154 36.3447 62.1788C37.38 63.9421 39.0054 65.2826 40.9335 65.9633L36.2469 79.2367C36.2137 79.3299 36.2035 79.4297 36.217 79.5277C36.2306 79.6258 36.2675 79.7191 36.3247 79.7998C36.3819 79.8806 36.4577 79.9464 36.5457 79.9916C36.6337 80.0369 36.7313 80.0604 36.8302 80.06H50.8102C50.9089 80.0596 51.0061 80.0357 51.0936 79.9902C51.1812 79.9447 51.2567 79.8789 51.3137 79.7984C51.3708 79.7179 51.4078 79.6249 51.4217 79.5272C51.4356 79.4295 51.4259 79.3299 51.3935 79.2367L46.7035 65.9633Z" fill="#555A77"/>
<path d="M46.7033 65.9633C48.703 65.2491 50.3709 63.8255 51.3904 61.9628C52.41 60.1 52.7102 57.9278 52.234 55.8584C51.7579 53.789 50.5386 51.9664 48.8075 50.7366C47.0764 49.5067 44.9541 48.9552 42.8433 49.1867C44.7886 49.4105 46.6007 50.2865 47.9845 51.672C49.3683 53.0574 50.2421 54.8706 50.4636 56.8162C50.6851 58.7617 50.2412 60.725 49.2043 62.386C48.1673 64.047 46.5985 65.308 44.7533 65.9633L49.4399 79.2367C49.473 79.3296 49.4833 79.4292 49.4699 79.5269C49.4565 79.6247 49.4199 79.7178 49.3631 79.7985C49.3062 79.8792 49.2309 79.945 49.1433 79.9905C49.0558 80.036 48.9586 80.0599 48.8599 80.06H50.8099C50.9086 80.0596 51.0058 80.0357 51.0934 79.9902C51.1809 79.9447 51.2564 79.879 51.3135 79.7984C51.3705 79.7179 51.4075 79.6249 51.4214 79.5272C51.4353 79.4295 51.4256 79.3299 51.3933 79.2367L46.7033 65.9633Z" fill="#3F425E"/>
<path d="M76.9767 99.6634C88.5821 99.6634 97.99 90.2554 97.99 78.65C97.99 67.0447 88.5821 57.6367 76.9767 57.6367C65.3714 57.6367 55.9634 67.0447 55.9634 78.65C55.9634 90.2554 65.3714 99.6634 76.9767 99.6634Z" fill="#79B753"/>
<path d="M73.86 79.7332L66.44 72.3132C66.3393 72.2119 66.2196 72.1316 66.0877 72.0767C65.9559 72.0219 65.8145 71.9936 65.6717 71.9936C65.5289 71.9936 65.3875 72.0219 65.2556 72.0767C65.1237 72.1316 65.004 72.2119 64.9033 72.3132L61.4633 75.7532C61.2604 75.9575 61.1465 76.2337 61.1465 76.5216C61.1465 76.8095 61.2604 77.0857 61.4633 77.2899L73.86 89.6866C74.0642 89.8895 74.3404 90.0034 74.6283 90.0034C74.9162 90.0034 75.1925 89.8895 75.3967 89.6866L92.4933 72.5899C92.6963 72.3857 92.8102 72.1095 92.8102 71.8216C92.8102 71.5337 92.6963 71.2575 92.4933 71.0532L89.0533 67.6132C88.8491 67.4103 88.5729 67.2964 88.285 67.2964C87.9971 67.2964 87.7209 67.4103 87.5167 67.6132L75.3967 79.7332C75.1925 79.9362 74.9162 80.0501 74.6283 80.0501C74.3404 80.0501 74.0642 79.9362 73.86 79.7332Z" fill="white"/>
</svg>
