<svg xmlns="http://www.w3.org/2000/svg" viewBox="0 0 300 300"><defs><style>.cls-1{fill:#985e30;}.cls-2{fill:#466f41;}.cls-3{fill:#dd8a37;}.cls-4{fill:#f2d93b;}.cls-5{fill:#e4b536;}.cls-6{fill:#fefdfd;}.cls-7{fill:#d97a60;}.cls-8{fill:#83b952;}.cls-9{fill:#51944f;}.cls-10{fill:#69ab53;}.cls-11{fill:#a2c64e;}.cls-12{fill:#f5eb66;}</style></defs><title>fp</title><g id="груша"><path class="cls-1" d="M182.29,77.41c-1.32,1-.16,1.73.36,2.31,6.83,7.62,9.78,17.06,12.62,26.57,2,6.83,4.08,13.67,6.21,20.48,3.34,10.68,9.17,20,16.11,28.67,7.78,9.76,15.64,19.48,20.7,31.09,15.4,35.28-1.28,72.64-37.88,84.64-14.91,4.89-30,5.66-45,1.05A34.9,34.9,0,0,0,135.8,272c-23.89,6-45,.65-63-16.27a56.18,56.18,0,0,1-14.24-21.71c-.57-3.05,1.31-2.37,3-2,1.32,2.59,2.58,5.22,4,7.77a58.59,58.59,0,0,0,26.94,25c15.25,7.23,30.73,6.89,46.47,2.34a22.12,22.12,0,0,1,14.24.2c17.86,6.5,35.38,4.73,52.56-2.6a56,56,0,0,0,34.19-52.1c0-13.42-4.51-25.31-11.58-36.52-5.82-9.23-13.25-17.18-19.58-26-9.47-13.17-13.31-28.7-17.39-44a62,62,0,0,0-11.71-23.64C175.15,74,159.91,70,154.36,73.66c.36,1.59,2.83.29,2.89,1.92.09,2-2,1.65-3.14,2.39l-2,1.32-9.82.21a1.08,1.08,0,0,0-.82-.17L139.81,79l-1.24-.6c-1.09-1.09-3.14-1.19-3.72-3.66,2.63.78,4.92,1.25,5.07-2.15.51-1.52.06-3.29,1.27-4.62,1.11-10.43-.9-19.36-11.54-24.25-2.66-1.22-3.69-3.45-3.26-6.4a17.44,17.44,0,0,1,5.22-10.19c3.6-3.48,8.72-3.18,12.61.62,4.07,4,6.09,9.13,7.83,14.36a61.23,61.23,0,0,1,2.86,13.76c-2.75,3.31-2.56,6.79-.63,10.38.35.95.1,2.34,1.83,2.22,5.47-.38,10.67,1.27,16,2.17,2.89,1.44,5.17,3.66,7.55,5.77.6,1.18,1.24,2.29,2.76,1ZM140.44,32.75c-.24-1.81-.54-3.87-3.42-3.93-2.44-.05-3.54,1.2-3.51,3.5,0,2.63,1.35,4.27,4.05,4.32C139.84,36.67,140.47,35.06,140.44,32.75Z"/><path class="cls-2" d="M154.28,66.26c-1.93-3.59-2.12-7.07.63-10.38,3.85-2.66,6.14-6.82,9.78-9.78,19-15.46,45.31-13.69,61.85,4.37a79.86,79.86,0,0,1,8.57,11.18,21.05,21.05,0,0,0,8,7.61c3.6,1.87,2.6,3.32,0,5-12.84,8.29-26.81,11-41.87,8.73-6.6-1-12.71-3.5-19-5.61l.1,0c-.44-1.63-1.9-.54-2.76-1-2.38-2.11-4.66-4.33-7.55-5.77-2-1.26-4-2.65-6.13-3.73C162.2,65,158.34,63.39,154.28,66.26ZM175.6,54.18l-2.17.77a28.19,28.19,0,0,0-17,7.17c7.46-.4,13.7,2.12,19.18,6.34,12.57,9.71,26.88,13.13,42.4,11.83a53,53,0,0,0,21-6.83c1.11-.61,3.19-1.62.28-2.85C233.76,65.5,230,59,225.37,53.19c-8.9-11.33-27-17.54-40.12-13.66-2.66.81-5.68.61-7.81,2.86-7.52,1.42-12.28,6.53-17.55,12.59l15.76-4,4.7-.24,1-.49,6.87.77c1.54.38,3.07.83,4.63,1.11,8.61,1.52,16.94,3.69,23.61,9.84a8.26,8.26,0,0,1-2.75-.57c-7.24-4.42-15.26-6.27-23.51-7.4a1.26,1.26,0,0,0-2.12,0l-2.76.15c-1.9-1.37-4-.56-6-.44C178,53.24,176.69,52.9,175.6,54.18Z"/><path class="cls-3" d="M141.19,68c-1.21,1.33-.76,3.1-1.27,4.62-13.46-1.08-24.92,8.11-30,20.4-4,9.75-6.44,20-9.43,30.05-4.76,16-14.32,29.14-24.06,42.35-10.68,14.49-18.78,30.2-17.91,49.06.27,6,2.22,11.71,3,17.62-1.7-.4-3.58-1.08-3,2-7.11-18.71-4.28-36.64,4.34-54.06a113.32,113.32,0,0,1,12.54-19.66,134.11,134.11,0,0,0,25.68-53c.88-3.78,2.26-7.44,3.48-11.13C110.41,78.6,122.43,68.93,141.19,68Z"/><path class="cls-4" d="M61.55,232.08c-.83-5.91-2.78-11.6-3-17.62-.87-18.86,7.23-34.57,17.91-49.06,9.74-13.21,19.3-26.36,24.06-42.35,3-10.06,5.39-20.3,9.43-30,5.1-12.29,16.56-21.48,30-20.4-.15,3.4-2.44,2.93-5.07,2.15.58,2.47,2.63,2.57,3.72,3.66a1,1,0,0,0,1.24.6l1.67.32c.17.56.42.72.82.17l9.82-.21c.22.23.43.65.66.66,10.24.72,15.35,7.59,19.29,15.93s5,17.39,4.19,26.36c-.58,6.31-.28,12.25,2.26,17.86,3.8,8.37,4.36,17.75,9.2,25.89,2.87,4.83,7.22,9,7.78,15.36s1.59,12.45,1.47,18.78c-.2,10.67-5.57,18.62-13,25.56-6.33,5.89-14.66,8.21-21.92,12.42-5.48,3.17-11.92,4-17.73,4.28-12.88.52-25.83-.76-38.76-1.32a7.79,7.79,0,0,1-1.9-.37c-5.87-1.88-10.82-6.45-17.94-4.88-2.9.64-4.6-3.88-7.34-5.12s-6-5.31-9.09-2.2-.29,6.74,1.61,9.71c10.67,16.72,26.53,24,45.83,25.42,14.79,1.12,29.42-3.87,44.31-.27,8.82,2.13,17.81,1.1,26.91-.51,13.67-2.43,24.32-9.53,33-19.4,11.22-12.84,12.72-28.34,9.6-44.69-2.71-14.16-11.71-24.41-20.57-34.83-9.67-11.38-16.8-24-20-38.76-2.8-13-4.05-26.56-10.79-38.51-.91-1.61.16-2.78.54-4.12a62,62,0,0,1,11.71,23.64c4.08,15.34,7.92,30.87,17.39,44,6.33,8.8,13.76,16.75,19.58,26,7.07,11.21,11.56,23.1,11.58,36.52a56,56,0,0,1-34.19,52.1c-17.18,7.33-34.7,9.1-52.56,2.6a22.12,22.12,0,0,0-14.24-.2c-15.74,4.55-31.22,4.89-46.47-2.34a58.59,58.59,0,0,1-26.94-25C64.13,237.3,62.87,234.67,61.55,232.08ZM130.4,79.45c-3.24-.49-5.93.5-8.68,2.3-5.11,3.33-7.29,8.54-9.54,13.7-5.65,13-6.46,27.26-10.79,40.6a33,33,0,0,0-1.9,13.33,5.28,5.28,0,0,1-2.84,5.27c-5.33,3.09-8.17,8.11-10.81,13.31-4.31,8.48-6,17.44-3.62,26.7,4.86,18.81,28,29.84,47.17,17.78,2.72-1.71,4.14-4.11,2.71-7.43-.51-1.18-.47-2.19.77-2.92,1.06-.64,2.2-1,3,.16,2.47,3.62,4.23,1,5.59-.82,5-6.53,6.12-13.5,2.64-21.3-4.22-9.49-13.26-14.12-20.21-20.83-1.5-1.45-2.81-2.68-2.79-4.7a2.8,2.8,0,0,1,2.13-2.92c1.39-.27,3.29-.82,4.06.62,2.93,5.53,3.46,2,4.37-1a25.85,25.85,0,0,1,1.47-3c3.64-7.87,10.6-13.23,15.35-20.39,5.75-8.63,8.6-16.44,6.94-27.16C153.09,85.61,143.56,81.56,130.4,79.45Zm60.72,121.48c.07-4-2-7.3-4.7-7.5-3-.21-6.13,3.41-6,7.55.13,3.18.28,6.89,4.29,7.78C187.76,209.43,191,205.1,191.12,200.93Z"/><path class="cls-5" d="M179.68,82.54c-.38,1.34-1.45,2.51-.54,4.12,6.74,12,8,25.46,10.79,38.51,3.18,14.76,10.31,27.38,20,38.76,8.86,10.42,17.86,20.67,20.57,34.83,3.12,16.35,1.62,31.85-9.6,44.69-8.64,9.87-19.29,17-33,19.4-9.1,1.61-18.09,2.64-26.91.51-14.89-3.6-29.52,1.39-44.31.27-19.3-1.46-35.16-8.7-45.83-25.42-1.9-3-4.59-6.71-1.61-9.71s6.21.9,9.09,2.2,4.44,5.76,7.34,5.12c7.12-1.57,12.07,3,17.94,4.88a7.79,7.79,0,0,0,1.9.37c12.93.56,25.88,1.84,38.76,1.32,5.81-.24,12.25-1.11,17.73-4.28,7.26-4.21,15.59-6.53,21.92-12.42,7.46-6.94,12.83-14.89,13-25.56.12-6.33-.91-12.53-1.47-18.78s-4.91-10.53-7.78-15.36c-4.84-8.14-5.4-17.52-9.2-25.89-2.54-5.61-2.84-11.55-2.26-17.86.82-9-.23-18-4.19-26.36S163,80.67,152.78,80c-.23,0-.44-.43-.66-.66l2-1.32c1.11-.74,3.23-.39,3.14-2.39-.06-1.63-2.53-.33-2.89-1.92C159.91,70,175.15,74,179.68,82.54Z"/><path class="cls-6" d="M154.28,66.26c4.06-2.87,7.92-1.27,11.67.66,2.12,1.08,4.09,2.47,6.13,3.73-5.3-.9-10.5-2.55-16-2.17C154.38,68.6,154.63,67.21,154.28,66.26Z"/><path class="cls-7" d="M140.44,32.75c0,2.31-.6,3.92-2.88,3.89-2.7,0-4-1.69-4.05-4.32,0-2.3,1.07-3.55,3.51-3.5C139.9,28.88,140.2,30.94,140.44,32.75Z"/><path class="cls-6" d="M179.63,76.42c.86.49,2.32-.6,2.76,1C180.87,78.71,180.23,77.6,179.63,76.42Z"/><path class="cls-5" d="M142.3,79.5c-.4.55-.65.39-.82-.17A1.08,1.08,0,0,1,142.3,79.5Z"/><path class="cls-5" d="M139.81,79a1,1,0,0,1-1.24-.6Z"/><path class="cls-8" d="M216.47,61.92c-6.67-6.15-15-8.32-23.61-9.84-1.56-.28-3.09-.73-4.63-1.11.37-2.2,2.15-2.4,3.86-2.7.12,1.09.7,2.12,1.78,1.81,6.31-1.85,12.38-.13,18.5,1,.88.17,2.12.41,2.55-.71.52-1.35-.78-2-1.6-2.64-4-3.29-8.87-2.26-13.47-2.47l-.06-1.72c1.75-.46,3.76.39,5.36-.77-.06-1.17-.79-1.13-1.35-1.36-6.18-2.48-12.35.38-18.53,0,0-.64,0-1.27,0-1.91,13.11-3.88,31.22,2.33,40.12,13.66C230,59,233.76,65.5,239.27,70.61A20.89,20.89,0,0,0,228,72.81c-7.73,3.76-16.14,2.43-23.21,0-6.87-2.33-11.45-9.48-15.76-15.74,1.85.55,4,.68,5.49,1.73,6.22,4.35,13.86,4.09,20.62,6.63,2.1.79,3.76.33,2.25-2.53l-1-1.07Z"/><path class="cls-9" d="M189,57.11c4.31,6.26,8.89,13.41,15.76,15.74,7.07,2.39,15.48,3.72,23.21,0a20.89,20.89,0,0,1,11.27-2.2c2.91,1.23.83,2.24-.28,2.85a53,53,0,0,1-21,6.83c-15.52,1.3-29.83-2.12-42.4-11.83-5.48-4.22-11.72-6.74-19.18-6.34a28.19,28.19,0,0,1,17-7.17c.16.46.2,1.23.48,1.32,6.61,2.29,11.41,7,16.13,11.83A18,18,0,0,0,192.79,70a2.31,2.31,0,0,0,3.1-.4c1.21-1.33-.47-2-1.13-2.6-3.43-3.39-7-6.67-10.48-10-.47-.46-1.81-.6-.89-1.64.31-.36,1.21-.2,1.84-.28C186.58,55.61,187.4,57.12,189,57.11Z"/><path class="cls-10" d="M185.25,39.53c0,.64,0,1.27,0,1.91,0,.31-.08.61-.11.92-.72.18-1.77.25-1.35,1.31.31.78,1,.37,1.43-.18l7.73,0c.15.62.26,1.37,1.06,1.37s.91-.75,1.06-1.36l4.7,0,.06,1.71c-3,0-5.23,1.85-7.76,3-1.71.3-3.49.5-3.86,2.7l-6.87-.77-1,.49-4.71.24c-.4-3,2.67-5.38,1.8-8.54C179.57,40.14,182.59,40.34,185.25,39.53Z"/><path class="cls-11" d="M189,57.11c-1.63,0-2.45-1.5-3.8-2,0-.34.07-.69.1-1l2.76-.15,2.12,0c8.25,1.13,16.27,3,23.51,7.4a8.26,8.26,0,0,0,2.75.57l-.06-.05,1,1.07c1.51,2.86-.15,3.32-2.25,2.53-6.76-2.54-14.4-2.28-20.62-6.63C193,57.79,190.88,57.66,189,57.11Z"/><path class="cls-10" d="M185.33,54.07c0,.34-.07.69-.1,1-.63.08-1.53-.08-1.84.28-.92,1,.42,1.18.89,1.64,3.5,3.33,7.05,6.61,10.48,10,.66.65,2.34,1.27,1.13,2.6a2.31,2.31,0,0,1-3.1.4A18,18,0,0,1,190,68.1c-4.72-4.84-9.52-9.54-16.13-11.83-.28-.09-.32-.86-.48-1.32l2.17-.78c1.26-.08,2.59.27,3.75-.54C181.36,53.51,183.43,52.7,185.33,54.07Z"/><path class="cls-9" d="M177.44,42.39c.87,3.16-2.2,5.49-1.8,8.54l-15.75,4C165.16,48.92,169.92,43.81,177.44,42.39Z"/><path class="cls-9" d="M179.35,53.63c-1.16.81-2.49.46-3.75.54C176.69,52.9,178,53.24,179.35,53.63Z"/><path class="cls-9" d="M190.21,54l-2.12,0A1.26,1.26,0,0,1,190.21,54Z"/><path class="cls-9" d="M180.35,50.69l1-.49Z"/><path class="cls-12" d="M130.4,79.45c13.16,2.11,22.69,6.16,25,21.32,1.66,10.72-1.19,18.53-6.94,27.16-4.75,7.16-11.71,12.52-15.35,20.39a25.85,25.85,0,0,0-1.47,3c-.91,2.95-1.44,6.52-4.37,1-.77-1.44-2.67-.89-4.06-.62a2.8,2.8,0,0,0-2.13,2.92c0,2,1.29,3.25,2.79,4.7,6.95,6.71,16,11.34,20.21,20.83,3.48,7.8,2.33,14.77-2.64,21.3-1.36,1.79-3.12,4.44-5.59.82-.81-1.19-1.95-.8-3-.16-1.24.73-1.28,1.74-.77,2.92,1.43,3.32,0,5.72-2.71,7.43-19.17,12.06-42.31,1-47.17-17.78-2.39-9.26-.69-18.22,3.62-26.7,2.64-5.2,5.48-10.22,10.81-13.31a5.28,5.28,0,0,0,2.84-5.27,33,33,0,0,1,1.9-13.33c4.33-13.34,5.14-27.63,10.79-40.6,2.25-5.16,4.43-10.37,9.54-13.7C124.47,80,127.16,79,130.4,79.45ZM113.06,186.14a15.07,15.07,0,0,0-9.18-13.44c-5.37-2.23-9.54.63-9.21,6.47a16.87,16.87,0,0,0,6,12.23c2.6,2.29,5.41,2.75,8,1.48S113.59,189.45,113.06,186.14Zm21.43-85.27c.11-4.07-.25-8.78-4.9-9.24-4.08-.41-5.83,3.91-6.89,7.59a44.83,44.83,0,0,0-1.87,12.41c0,1.87-1.2,3.85,1.13,5.15s4.42.06,6.18-1.39A17.19,17.19,0,0,0,134.49,100.87Z"/><path class="cls-5" d="M191.12,200.93c-.08,4.17-3.36,8.5-6.38,7.83-4-.89-4.16-4.6-4.29-7.78-.16-4.14,2.92-7.76,6-7.55C189.13,193.63,191.19,196.92,191.12,200.93Z"/><path class="cls-11" d="M192.09,48.27c2.53-1.14,4.78-3,7.76-3,4.6.21,9.45-.82,13.47,2.47.82.67,2.12,1.29,1.6,2.64-.43,1.12-1.67.88-2.55.71-6.12-1.15-12.19-2.87-18.5-1C192.79,50.39,192.21,49.36,192.09,48.27Z"/><path class="cls-11" d="M193,43.54l-7.73-.06c0-.37-.05-.75-.08-1.12s.07-.61.11-.92c6.18.37,12.35-2.49,18.53,0,.56.23,1.29.19,1.35,1.36-1.6,1.16-3.61.31-5.36.77l-4.7,0Z"/><path class="cls-2" d="M217.39,62.94l-1-1.07C216.74,62.22,217.06,62.58,217.39,62.94Z"/><path class="cls-8" d="M185.16,42.36c0,.37.05.75.08,1.12-.43.56-1.12,1-1.43.19C183.39,42.61,184.44,42.54,185.16,42.36Z"/><path class="cls-8" d="M193,43.54h2.12c-.15.62-.26,1.37-1.06,1.37S193.12,44.16,193,43.54Z"/><path class="cls-6" d="M113.06,186.14c.53,3.31-1.76,5.51-4.31,6.74s-5.43.81-8-1.48a16.87,16.87,0,0,1-6-12.23c-.33-5.84,3.84-8.7,9.21-6.47A15.07,15.07,0,0,1,113.06,186.14Z"/><path class="cls-6" d="M134.49,100.87a17.19,17.19,0,0,1-6.35,14.52c-1.76,1.45-3.73,2.75-6.18,1.39s-1.12-3.28-1.13-5.15a44.83,44.83,0,0,1,1.87-12.41c1.06-3.68,2.81-8,6.89-7.59C134.24,92.09,134.6,96.8,134.49,100.87Z"/></g></svg>