<svg id="Слой_1" data-name="Слой 1" xmlns="http://www.w3.org/2000/svg" viewBox="0 0 300 300"><defs><style>.cls-1{fill:#e6b262;}.cls-2{fill:#d28a34;}.cls-3{fill:#c24462;}.cls-4{fill:#ac2b4d;}.cls-5{fill:#94cde2;}.cls-6{fill:#3ab3e1;}.cls-7{fill:#fff;}</style></defs><title>photos-not-found-icon</title><g id="Слой_8" data-name="Слой 8"><path class="cls-1" d="M49.33,144.14H87.72a0,0,0,0,1,0,0V301.22a10,10,0,0,1-10,10H59.33a10,10,0,0,1-10-10V144.14a0,0,0,0,1,0,0Z" transform="translate(181.07 18.23) rotate(45)"/><path class="cls-2" d="M134.17,175.19,23.1,286.26a10,10,0,0,1-14.14,0l-6-6H3l13,13a10,10,0,0,0,14.14,0L141.17,182.19Z"/><path class="cls-3" d="M29.55,191.89H67.95a0,0,0,0,1,0,0V293a10,10,0,0,1-10,10H39.55a10,10,0,0,1-10-10V191.89a0,0,0,0,1,0,0Z" transform="translate(189.26 38.01) rotate(45)"/><path class="cls-4" d="M94.62,214.74,23.1,286.26a10,10,0,0,1-14.14,0l-6-6H3l13,13a10,10,0,0,0,14.14,0l71.52-71.52Z"/><path class="cls-5" d="M128.15,61a14.94,14.94,0,0,0-14.94-14.94H113a17.44,17.44,0,0,0-21.29-14.5A26.95,26.95,0,0,0,39.94,42c0,.67.05,1.33.1,2a16.2,16.2,0,0,0,.78,31.91v0h.1a16.3,16.3,0,0,0,2.34.18A17,17,0,0,0,45.62,76l66.14-.07a13.94,13.94,0,0,0,1.45.08,15.11,15.11,0,0,0,1.51-.08h0A14.94,14.94,0,0,0,128.15,61Z"/><path class="cls-6" d="M121.75,48.75a14.9,14.9,0,0,1-12,21.13h0a15.11,15.11,0,0,1-1.51.08,13.94,13.94,0,0,1-1.45-.08L40.62,70a17,17,0,0,1-2.37.19A16.3,16.3,0,0,1,35.91,70h-.1v0a16.14,16.14,0,0,1-7.32-3.09,16.25,16.25,0,0,0,12.17,9v0h.09A16.42,16.42,0,0,0,43.1,76a15.47,15.47,0,0,0,2.37-.19l66.14-.07a13.94,13.94,0,0,0,1.45.08,15,15,0,0,0,1.51-.08h0a14.92,14.92,0,0,0,7.18-27Z"/><circle class="cls-6" cx="184.94" cy="106.05" r="93.49"/><path class="cls-3" d="M185.67,3.41a103,103,0,1,0,103,103A103,103,0,0,0,185.67,3.41Zm0,187.22a84.24,84.24,0,1,1,84.24-84.24A84.24,84.24,0,0,1,185.67,190.63Z"/><path class="cls-4" d="M182.67,19.41a84.22,84.22,0,0,0-58,145.27A84.21,84.21,0,0,1,243.7,45.62,84,84,0,0,0,182.67,19.41Z"/><path class="cls-4" d="M288.65,106.65A102.69,102.69,0,0,0,257,32.35,103,103,0,0,1,111.37,178a103,103,0,0,0,177.28-71.3Z"/><path class="cls-5" d="M300,181.88a14.94,14.94,0,0,0-14.94-14.94h-.2a17.44,17.44,0,0,0-21.29-14.5,26.95,26.95,0,0,0-51.78,10.45c0,.67.05,1.33.1,2a16.2,16.2,0,0,0,.78,31.91v0h.09a16.42,16.42,0,0,0,2.34.18,15.47,15.47,0,0,0,2.37-.19l66.14-.07a13.94,13.94,0,0,0,1.45.08,15,15,0,0,0,1.51-.08h0A14.94,14.94,0,0,0,300,181.88Z"/><path class="cls-6" d="M293.75,169.75a14.9,14.9,0,0,1-12,21.13h0a15.11,15.11,0,0,1-1.51.08,13.94,13.94,0,0,1-1.45-.08l-66.14.07a17,17,0,0,1-2.37.19,16.3,16.3,0,0,1-2.34-.18h-.1v0a16.14,16.14,0,0,1-7.32-3.09,16.25,16.25,0,0,0,12.17,9v0h.09a16.42,16.42,0,0,0,2.34.18,15.47,15.47,0,0,0,2.37-.19l66.14-.07a13.94,13.94,0,0,0,1.45.08,15,15,0,0,0,1.51-.08h0a14.92,14.92,0,0,0,7.18-27Z"/><circle class="cls-7" cx="153.79" cy="107.9" r="4.89"/><circle class="cls-7" cx="182.78" cy="107.9" r="4.89"/><circle class="cls-7" cx="211.76" cy="107.9" r="4.89"/></g></svg>