<svg id="Слой_1" data-name="Слой 1" xmlns="http://www.w3.org/2000/svg" viewBox="0 0 300 234.51"><defs><style>.cls-1{fill:#fff;}.cls-2{fill:#a7cc83;}.cls-3{fill:#e8e8e8;}.cls-4{fill:#79b753;}.cls-5{fill:#6f9a53;}.cls-6{fill:#e6b262;}.cls-7{fill:#d28a34;}</style></defs><title>photo-upload-icon</title><g id="Слой_6" data-name="Слой 6"><rect class="cls-1" y="60.71" width="239.39" height="173.79" rx="16.07"/><path class="cls-2" d="M239.39,219.06V176.5a71,71,0,0,0-126.47,58h111A15.45,15.45,0,0,0,239.39,219.06Z"/><path class="cls-3" d="M0,199.16V100.48s9.36,31.18,32.28,68.94Z"/><path class="cls-4" d="M193.33,199.16c-26.18,0-50.54-12.44-66.79-33A58.43,58.43,0,0,0,78.8,144c-19.24.58-29.56,10.5-46.47,25.55l0-.08L0,199.16v19.9a15.45,15.45,0,0,0,15.45,15.45H223.94a15.45,15.45,0,0,0,15.45-15.45v-19.9Z"/><path class="cls-5" d="M32.28,169.42c16.8,27.66,38.24,65.09,81.83,65.09H15.45A15.45,15.45,0,0,1,0,219.06v-19.9Z"/><circle class="cls-6" cx="111.02" cy="98.38" r="15.93"/><path class="cls-7" d="M116.78,112.38A15.91,15.91,0,0,1,109,82.61a15.92,15.92,0,0,0,2.06,31.7,15.74,15.74,0,0,0,7.84-2.08A15.63,15.63,0,0,1,116.78,112.38Z"/><circle class="cls-3" cx="239.39" cy="60.61" r="60.61"/><path class="cls-4" d="M271.76,47.75l-28.3-28.3a5.75,5.75,0,0,0-8.14,0L207,47.75a5.74,5.74,0,0,0,0,8.13l4.81,4.81a5.74,5.74,0,0,0,8.13,0L230.7,50V97.71a5.75,5.75,0,0,0,5.76,5.75h5.61a5.75,5.75,0,0,0,5.76-5.75v-48l11,11a5.75,5.75,0,0,0,8.14,0l4.81-4.81A5.76,5.76,0,0,0,271.76,47.75Z"/></g></svg>