<svg xmlns="http://www.w3.org/2000/svg" viewBox="0 0 300 300"><defs><style>.cls-1{fill:#985e30;}.cls-2{fill:#466f41;}.cls-3{fill:#dd8a37;}.cls-4{fill:#d14f38;}.cls-5{fill:#e4b536;}.cls-6{fill:#b9322f;}.cls-7{fill:#a2c64e;}.cls-8{fill:#51944f;}.cls-9{fill:#83b952;}.cls-10{fill:#69ab53;}.cls-11{fill:#f5eb66;}</style></defs><title>fp</title><g id="тыква"><path class="cls-1" d="M167.41,73.4c4.06,0,7.68-2.06,11.73-2.4C194,69.76,207.81,72.56,220,81.46c2.85,2.07,6,2.85,9.26,3.81,16,4.73,29.18,13.79,38.37,27.83,18.57,28.37,19,58.51,7.11,89.22-6.44,16.61-18.1,29-35.1,35.19-5.74,2.11-10.53,5.23-15.49,8.58-13.13,8.88-27.53,13-43.45,9.52a3.12,3.12,0,0,0-3.09.66c-11.75,9-31.11,9.75-43.67,1.59a13.54,13.54,0,0,0-10.34-2.12c-17.45,2.57-32.78-3.09-46.74-13.24-1.42-1-2.58-2.39-4.48-2.84C44.83,233.1,29.16,214.55,22,188.3c-6.39-23.4-4.55-46.56,6.89-68.1,9.37-17.65,24.29-29.41,43.6-35.26a24,24,0,0,0,7.32-3.3c16.44-11.89,34.49-13.42,53.57-8.3-1.28.92-.47,2.38-.91,3.52a7.15,7.15,0,0,1-1.32-.24c-15-5.68-29.31-3.66-43.22,3.51-1,.5-2.56.74-2.1,2.39.23.82,1.24.61,2,.56,10.64-.77,20.35,1.72,29,8.13,2,1.52,4.13,3,6.89,2.86-2.05,1.5-4.73,2-6.54,3.87-.36-.8-.52-1.86-1.13-2.34C108.8,89.92,100.92,86,91.49,86l-5.87,0a62.45,62.45,0,0,0-40.14,17.7c-13.15,12.51-20.56,28-22.63,46.11-2.41,20.93.06,40.89,11.63,59C41,219,49.55,226.92,60.85,231.62c2,.56,3.28,2.49,5.47,2.55,2,0,3.32-2.43,5.56-1.49l3.42,2.65c5.42,5.39,11.3,10.07,18.59,12.8,8.06,3,16.29,5.33,24.91,4.13,6-.85,6.08-1.95,3.61-6-1.07-1.78-1.91-3.69-2.86-5.54l4-.95C133.37,258,147.1,262,164.14,258.65c9.36-1.86,14.61-8.64,19.34-16.06a5,5,0,0,1,3.69.82,16.23,16.23,0,0,1-1.53,3.13c-1,1.36-3.12,2.85-2.38,4.27s3.27,1.6,5.21,1.62c.44,0,.88.08,1.32.12,1.47,1.1,3.21.77,4.76.56C212.31,250.69,227,243,237.38,228a3.34,3.34,0,0,1,2.22,2.9c-.09,1.86,1,1.94,2.26,1.33,1.95-1,3.82-2.11,5.72-3.18,6.69-3.13,11.47-8.39,15.85-14.11,10-13,14.21-28.09,15.46-44.09A72.74,72.74,0,0,0,277.21,147l-.11-1.5c.13-1.37.36-2.77-.8-3.87a6.43,6.43,0,0,1-.79-1.6c-2.66-16.38-10.94-29.49-23.92-39.49-17.93-13.81-37.72-18.64-59.69-10.89-4.46,1-7.09,4.54-10.22,7.38a4.1,4.1,0,0,0-2.1-3.44c9.59-9.65,21.92-11.09,35-11.36-3.35-3.48-7.55-4.34-11.41-5.43-12.27-3.47-24.59-5.58-36,2.66C166.43,77.37,168.92,75.47,167.41,73.4Z"/><path class="cls-2" d="M167.41,73.4c1.51,2.07-1,4-.26,6v.11c-1.06.16-1,1-1.17,1.79-1.64,9.09-1.17,9.84,7.32,11.58.57.12,1.16.18,1.75.26.74.94,1.57,1.22,2.57.36l2,0a4.1,4.1,0,0,1,2.1,3.44c.06.37.13.74.19,1.12a1.07,1.07,0,0,0,.82,1.2l.05.06.83,1.2a1,1,0,0,0,.56.62c.57,3.42-2.14,3.53-4.27,4.39s-5.47.21-6.24,3.64l0,0c-2.16-.07-4.05,1.22-6.5.42-10.37-3.41-20.84-3.66-31.18.26a8.05,8.05,0,0,1-7.64-.53c-2.81-1.69-5.82-3.48-9.11-3.61-3.6-.13-4.28-1.88-4-4.82.81-.91,1.78-1.71,2-3,1.81-1.92,4.49-2.37,6.53-3.87,2.44-.81,4.7-1.86,5.79-4.43.33-1,1.41-1.75.88-3,.37-3.35,2.45-6.31,2.16-9.8.44-1.14-.37-2.6.91-3.52,2.09-1.79,2.16-4.52,3.09-6.82,3.28-8.1,7.42-15.58,13.52-22,10.75-11.29,22.4-9.56,33.13-2,5.4,3.8,5.5,8.2,0,11.91A43.11,43.11,0,0,0,167.41,73.4ZM119.59,103c-.07.13-.2.27-.19.4a.44.44,0,0,0,.27.31c4,.61,7.59,2.49,11.3,4,2.15.86,11.17-1.92,11.77-3.81,2-6.2,4.15-12.36,4.78-18.9l2.6-7.3c1.57,1.2.74,2.62.49,4.07a68.09,68.09,0,0,0-1.23,16.43c.26,3.59,2.87,6,5.82,5.32,3.63-.84,3.51-3.38,2.58-6.3-2.77-8.72-.5-17,2.23-25.29,2.52-7.57,7.1-13.95,11.85-20.21,2.25-1.14,4.51-2.25,6.73-3.42,1-.54,2.73-.76,2.73-2,0-1.57-1.44-2.44-3-2.81-9.53-5.46-14.67-5.81-23.09.28a32.84,32.84,0,0,0-6.61,6.71C139.19,62.71,135.29,77,132.91,92a12.36,12.36,0,0,1-7.82,5.49C122.29,98.2,119.6,99.33,119.59,103Zm50.76-7.21a17.78,17.78,0,0,0-2.39.51,2.32,2.32,0,0,0,.26,1.53,42.65,42.65,0,0,0,5.83,5.51,3.41,3.41,0,0,0,4.81-.93c1.2-1.69-.67-2.83-1.45-3.7C175.68,96.74,173,96.33,170.35,95.77Z"/><path class="cls-3" d="M183.48,242.6c-4.73,7.41-10,14.19-19.34,16-17,3.38-30.77-.69-40.55-18.88a125.51,125.51,0,0,1-6.68-18c-3.33-12-4.76-24.27-5.33-36.61-.52-11.29-.41-22.62,2.48-33.71a47.44,47.44,0,0,1,1.07,12.46c-.37,5.41.81,10.71,1.33,16,.13,1.33-.33,4.28,2.55,3.84,2.36-.36,1.37-2.66,1.43-4.13.14-3.47,0-7,0-11,2.87,1.54,2.61,3.4,2.73,5.13.32,4.72,2,6.46,6.7,6.56,6.28.14,12.61.34,18.77-1,8.06-1.75,16.56-1.69,23.14-8.56,3.08-3.22,7-5.26,7.25-10.33,0-1.2.39-2.6,1.59-3,1.41-.47,2,.94,2.71,1.88.51.72.86,1.82,1.87,1.66,1.43-.21.94-1.67,1.21-2.58A7.72,7.72,0,0,0,187,155c-1.34-6.25-1.67-12.7-3.64-18.83-2-6.38-5-12.17-10.45-16.32-2.08-1.56-4.07-3.35-7-3-.16,1.9,1.18,2.63,2.13,3.45,5.77,5,8.12,12.08,11.07,18.76.47,1.07,1.68,2.6-.42,3.33-1.49.52-2.6-.29-3.26-1.67-1.22-2.57-2.28-5.22-3.66-7.7a31.28,31.28,0,0,0-16.6-14.76c-4.93-1.85-10.14-.71-15.88-.31,2.1-3.07,5.56-1.95,7.38-3.92.87-.93,2.64-1.57,2.07-3.11-.49-1.29-2.17-.44-3.26-.79,1.11-1,2.5-.74,3.81-.81,9.92-.49,19.08,1.6,27,8,11,11.43,14.47,26.19,17,41A133.43,133.43,0,0,1,194.58,194C193,210.74,190.87,227.23,183.48,242.6Zm-61.84-24.25c-1.07.73-1,1.29-.92,1.89,1.67,7.83,4.54,15.39,9.27,21.65,3.8,5,7.36,11,14.51,12.67,2.71.64,5.37.19,8,.61,7.58,1.19,14-1.19,19.62-6.23,9.33-8.42,13.43-19.56,15.69-31.43.45-2.36,1.92-5.19.33-8.14-5.67,14.52-14.44,25.35-30.33,27.58C141.71,239.22,130.13,231.31,121.64,218.35Z"/><path class="cls-3" d="M237.37,228C227,243,212.31,250.69,194.55,253.11c-1.55.21-3.29.54-4.76-.56.1-1.31.64-2.69,2-2.67,4.11.06,7.7-2.54,11.88-2.07,1.44.16,3,.32,4.36-.62,8.48-5.78,17.26-11.09,24-19.2a59.86,59.86,0,0,0,12.68-27.75c.17-.88.36-1.9-.62-2.39-1.2-.6-2,.19-2.56,1.15s-.66,2-1.2,2.89c-2.72,4.4-4.47,9.41-8.58,12.93-2,1.68-4.34,2.6-6,.94s.36-3.67,1.74-4.89c4-3.54,5.46-9,9.53-12.43a1.86,1.86,0,0,0-.34-3.09c-1.21-.83-2,.19-2.6,1-.93,1.18-1.64,2.52-2.56,3.69-4.19,5.36-8.86,10.22-15.4,12.68-8,3-14.78-.91-16.3-9.4-.31-1.74-.42-3.56-1.87-4.86q0-9.84.11-19.69c.11-14.86-1.93-29.38-7.15-43.34-2.65-7.09-5.21-14.31-11.49-19.27-1-3-5.31-3.36-5.74-6.89l0,0c3.12-.58,5.78-2.64,9-2.77,1,3.25,5.81.46,7.18,4.16-5.74-.57-5.83-.49-4.43,4.81a14.67,14.67,0,0,0,1.61,4.14,122.64,122.64,0,0,1,15.9,37.25c.8,3.33,3.44,5.43,6.44,5.29,8.16-.38,19-5.36,21.24-15.21a32.54,32.54,0,0,1,1.93-5,12.09,12.09,0,0,0-2-13.19,81.09,81.09,0,0,0-12.28-12.36c-1.49-1.19-3.85-1.93-4-4.46,8.16,3.45,13.67,10,19,16.61,9.59,11.86,13.46,26.2,15.8,40.79C252.48,190.12,249.74,210.1,237.37,228Z"/><path class="cls-3" d="M117.11,97.94c-.17,1.32-1.14,2.12-2,3-1.43.79-2.53,2.33-4.47,2-3.13.18-6.26-.2-9.38.6C81.25,108.68,68.08,121.85,59.54,140c-7.37,15.61-9.15,32.37-8.41,49.47-9.28,1.46-18.81-5.31-21-14.51-.8-3.38-.13-7.12-2.38-10.39-1.82,1.27-2,3-1.66,4.78,1.47,8.62,2.85,17.23,5.93,25.53a72.35,72.35,0,0,0,22.84,31.43c2,1.66,5.76,1.67,6,5.35C49.55,226.92,41,219,34.48,208.83c-11.57-18.13-14-38.09-11.63-59,2.07-18.08,9.48-33.6,22.63-46.11A62.45,62.45,0,0,1,85.61,86c0,.92,0,1.84-.08,2.76-8,1.33-15.75,3.33-22.71,7.61-4.42,2.71-9.26,5.08-11.58,11.12,4.41-1.45,7-4.76,10.76-5.76,0,1.6,0,3.21,0,4.81-5.32,2.57-9.49,6.29-11.94,11.76-3.07,1.76-5,6.53-3.94,9.76,1.54,4.68,3.37,5.32,7.41,2.46a21.94,21.94,0,0,0,3.27-3.05c4-4.35,8.56-8.27,12.9-12.25a130.14,130.14,0,0,1,13-10.74c5.27-3.69,8.5-10.63,16.2-10.7a1.85,1.85,0,0,0,1.61-1.9,2,2,0,0,0-1.76-2.24,23.55,23.55,0,0,0-3.57-.07l-1.9-.83c.38-1.57-1-1.93-1.84-2.72,9.44,0,17.32,3.9,24.5,9.58C116.59,96.08,116.75,97.14,117.11,97.94Z"/><path class="cls-3" d="M181.87,98.11c-.06-.38-.13-.75-.19-1.12,3.13-2.84,5.76-6.37,10.21-7.38,0,2.37,1.61,2.67,3.32,2.51A23.46,23.46,0,0,0,201.73,91c2.35-.94,4-.31,5.56,1.21.17,5.19,4.68,5.47,8,7.08-.25,1.43.64,2.08,1.69,2.82,9.55,6.84,17.61,15.27,25.49,23.91a68.13,68.13,0,0,1,9.89,14.29c.84,1.59,2.12,3.66,4.51,2.83a3.27,3.27,0,0,0,2.21-4.35c-2.35-5.1-1.49-10.58-2.21-15.84-.63-4.59-1.23-9.06-3.34-13.38,5.16,3.76,8.54,8.83,11.82,13.87,2.57,4,4.73,8.3,4.71,13.29-.4,1.43-1.12,2.76-.69,4.36,3.32,12.35,2.91,24.81.56,37.23-1.36,7.14-2.22,14.49-6.19,20.89-.9,1.46-1.83,2.77-3.79,2.71s-2.29-1.53-2.78-3c-.64-2-1.69-3.56-4.16-3.27l0-15.25c.76-.63.79-1.21-.1-1.74-.58-20.48-6.36-39.19-19.79-54.94-6.7-7.86-14.24-15-24.46-18.33a49.67,49.67,0,0,0-24.58-4.19,1,1,0,0,1-.56-.63c.11-.66-.12-1.1-.83-1.19l-.05-.06Z"/><path class="cls-4" d="M119.55,240.72c1,1.85,1.79,3.76,2.86,5.54,2.47,4.05,2.43,5.15-3.61,6-8.62,1.2-16.85-1.1-24.91-4.13-7.29-2.73-13.17-7.41-18.59-12.8,2.1-4.5-3-10.76-8.89-10.86l0,.05c1.53-8.52-5.6-15.39-4.62-23.94,3.24,5.35,6.46,10.42,12,13.69,2,1.21,3.54,4.67,6.19,2.13,2.39-2.3,0-4.61-1.63-6.57a3.29,3.29,0,0,0-1-.91c-4-2-5.83-5.89-8-9.42-.58-.92-1.8-2.32-.53-3.17s2.35.54,3.18,1.6c2.77,3.52,6.08,6.57,9.07,9.82,2.19,2.39,5.83,5.14,4.48,10-.84,3,2.91,5.42,5.19,3.32,4.63-4.25,11.79-5.41,14.47-12.11a4.88,4.88,0,0,1,4.5-3.26c1.31,2.75,1.14,5.81,1.76,8.71C113.41,223.4,115,232.51,119.55,240.72Z"/><path class="cls-4" d="M197.85,198.44c1.45,1.3,1.56,3.12,1.87,4.86,1.52,8.49,8.26,12.43,16.3,9.4,6.54-2.46,11.21-7.32,15.4-12.68.92-1.17,1.63-2.51,2.56-3.69.62-.79,1.39-1.81,2.6-1a1.86,1.86,0,0,1,.34,3.09c-4.07,3.48-5.55,8.89-9.53,12.43-1.38,1.22-3.38,3.25-1.74,4.89s4,.74,6-.94c4.11-3.52,5.86-8.53,8.58-12.93.54-.88.71-2,1.2-2.89s1.36-1.75,2.56-1.15c1,.49.79,1.51.62,2.39A59.86,59.86,0,0,1,231.93,228c-6.69,8.11-15.47,13.42-24,19.2-1.37.94-2.92.78-4.36.62-4.18-.47-7.77,2.13-11.88,2.07-1.31,0-1.85,1.36-2,2.67-.44,0-.88-.11-1.32-.12-1.94,0-4.41-.09-5.21-1.62s1.34-2.91,2.38-4.27a16.23,16.23,0,0,0,1.53-3.13c4.82-8.06,6.67-17.06,8.06-26.17C196.18,211,197,204.71,197.85,198.44Z"/><path class="cls-5" d="M207.29,92.2c-1.6-1.52-3.21-2.15-5.56-1.21a23.46,23.46,0,0,1-6.52,1.13c-1.71.16-3.37-.14-3.32-2.51,22-7.75,41.77-2.92,59.7,10.89,13,10,21.26,23.11,23.92,39.49a6.43,6.43,0,0,0,.79,1.6c0,1.34-.33,2.76.8,3.87,0,.5.07,1,.11,1.5.17,2.5-1.2,3.06-3.33,2.66-.49-4.53-1.27-9-3.81-12.9,0-5-2.14-9.33-4.71-13.29-3.28-5-6.66-10.11-11.82-13.87,2.11,4.32,2.71,8.79,3.34,13.38.72,5.26-.14,10.74,2.21,15.84a3.27,3.27,0,0,1-2.21,4.35c-2.39.83-3.67-1.24-4.51-2.83A68.13,68.13,0,0,0,242.48,126c-7.88-8.64-15.94-17.07-25.49-23.91-1.05-.74-1.94-1.39-1.69-2.82,3.52,1.15,7,2.49,10.6,3.35,1.67.39,4.25,1.41,5.09-1.08a4.61,4.61,0,0,0-2.59-5.66C221.76,92.53,214.91,90.12,207.29,92.2Z"/><path class="cls-4" d="M60.85,231.62c-.23-3.68-4-3.69-6-5.35A72.35,72.35,0,0,1,32,194.84c-3.08-8.3-4.46-16.91-5.93-25.53-.3-1.78-.16-3.51,1.66-4.78,2.25,3.27,1.58,7,2.38,10.39,2.19,9.2,11.72,16,21,14.51C52,202,54.82,214,61.51,224.89c1.79,2.93,4.74,5.42,4.81,9.28C64.13,234.11,62.81,232.18,60.85,231.62Z"/><path class="cls-3" d="M179.58,93.55l-2,0-2.57-.36c-.59-.08-1.18-.14-1.75-.26-8.49-1.74-9-2.49-7.32-11.58a1.36,1.36,0,0,0,1.17-1.79v-.11c11.46-8.24,23.78-6.13,36-2.66,3.86,1.09,8.06,1.95,11.41,5.43C201.5,82.46,189.17,83.9,179.58,93.55Z"/><path class="cls-6" d="M66.32,234.17c-.07-3.86-3-6.35-4.81-9.28C54.82,214,52,202,51.13,189.43c-.74-17.1,1-33.86,8.41-49.47,8.54-18.11,21.71-31.28,41.77-36.43,3.12-.8,6.25-.42,9.37-.6l0,3c-1.33.19-2.65.46-4,.58-16,1.43-27.86,9.53-36.87,22.38a21.86,21.86,0,0,0-1.76,2c-9.53,13.84-13.23,29.51-14.23,46-.53,8.68.81,17.2,2.56,25.72a53.77,53.77,0,0,0,10,22l0-.05,5.47,8.21C69.64,231.74,68.3,234.16,66.32,234.17Z"/><path class="cls-4" d="M270.07,136.72c2.54,3.93,3.32,8.37,3.81,12.9.66,9.68,1.31,19.34-.22,29a87.22,87.22,0,0,1-16.29,38.41c-3.06,4.19-8,6.83-9.79,12-1.9,1.07-3.77,2.21-5.72,3.18-1.23.61-2.35.53-2.26-1.33,1.57-1,2.35-2.61,3.24-4.17,5.57-9.65,8.28-20.22,10.18-31.07,2.47-.29,3.52,1.3,4.16,3.27.49,1.47.83,3,2.78,3s2.89-1.25,3.79-2.71c4-6.4,4.83-13.75,6.19-20.89,2.35-12.42,2.76-24.88-.56-37.23C269,139.48,269.67,138.15,270.07,136.72Z"/><path class="cls-6" d="M253,195.64c-1.9,10.85-4.61,21.42-10.18,31.07-.89,1.56-1.67,3.16-3.24,4.17a3.34,3.34,0,0,0-2.22-2.9c12.36-17.88,15.1-37.86,11.75-58.71-2.34-14.59-6.21-28.93-15.8-40.79-5.34-6.59-10.85-13.16-19-16.61h-.06a8.92,8.92,0,0,0-6.44-3.4l-.46-.81a2.23,2.23,0,0,0,1.35-2.29c10.22,3.35,17.76,10.47,24.46,18.33,13.43,15.75,19.21,34.46,19.79,54.94,0,.58.07,1.16.1,1.74Z"/><path class="cls-6" d="M197.85,198.44c-.87,6.27-1.67,12.54-2.62,18.8-1.39,9.11-3.24,18.11-8.06,26.17a5,5,0,0,0-3.69-.82c7.39-15.36,9.5-31.85,11.1-48.6a133.43,133.43,0,0,0-1.27-35.68c-2.57-14.8-6-29.56-17-41a5.25,5.25,0,0,0,3.05-1.18c6.27,5,8.83,12.18,11.48,19.27,5.22,14,7.26,28.48,7.15,43.34Q197.89,188.59,197.85,198.44Z"/><path class="cls-3" d="M132.47,76.86c.29,3.49-1.79,6.45-2.16,9.8-1.55-.55-2.14-2-3-3.17a10,10,0,0,0-7.9-4.3A27,27,0,0,1,125.77,86c.93,1.43,1.49,3.38,3.66,3.62-1.09,2.57-3.35,3.62-5.79,4.43-2.75.16-4.84-1.34-6.88-2.86-8.62-6.41-18.33-8.9-29-8.13-.72,0-1.73.26-2-.56-.46-1.65,1.13-1.89,2.1-2.39,13.91-7.17,28.26-9.19,43.22-3.51A7.15,7.15,0,0,0,132.47,76.86Zm-24.61,0c-1.21,0-2.11,0-3,0-1.35.07-3,.08-2.88,1.93.08,1.47,1.52,1.59,2.74,1.65,3,.14,5.78,1.35,8.8.92.87-.12,1.89,0,2.2-1.06s-.62-1.51-1.35-2A10,10,0,0,0,107.86,76.89Z"/><path class="cls-6" d="M119.55,240.72c-4.57-8.21-6.14-17.32-8.07-26.34-.62-2.9-.45-6-1.76-8.71l-.09-6.41-.66-.9q-.09-10.34-.18-20.67c-.1-12.44.38-24.83,3.72-36.9,2.55-9.22,5.11-18.5,12.5-25.38a5.71,5.71,0,0,0,1.29,3.17,63,63,0,0,0-12.24,32.83c-2.89,11.09-3,22.42-2.48,33.71.57,12.34,2,24.62,5.33,36.61a125.51,125.51,0,0,0,6.68,18Z"/><path class="cls-3" d="M247.58,229c1.82-5.15,6.73-7.79,9.79-12a87.22,87.22,0,0,0,16.29-38.41c1.53-9.68.88-19.34.22-29,2.13.4,3.5-.16,3.33-2.66a72.74,72.74,0,0,1,1.68,23.87c-1.25,16-5.5,31.08-15.46,44.09C259.05,220.64,254.27,225.9,247.58,229Z"/><path class="cls-3" d="M71.88,232.68l-5.47-8.21c5.86.1,11,6.36,8.89,10.86Z"/><path class="cls-5" d="M85.54,88.76c0-.92,0-1.84.07-2.76l5.88,0c.78.79,2.21,1.15,1.83,2.72Z"/><path class="cls-3" d="M277.1,145.46c-1.13-1.11-.8-2.53-.8-3.87C277.46,142.69,277.23,144.09,277.1,145.46Z"/><path class="cls-7" d="M132.91,92c2.38-14.91,6.28-29.24,15.72-41.47a32.84,32.84,0,0,1,6.61-6.71c8.42-6.09,13.56-5.74,23.09-.28-4.82,4-10.78,6.22-16.28,8.56-9.42,4-15.76,10-19,19.46-.76,1.78-1.62,3.53-2.27,5.35-1.89,5.31-5.05,10.24-5.05,16.14h0C134.63,93.07,133.56,93.07,132.91,92Z"/><path class="cls-8" d="M171.86,51.67c-4.75,6.26-9.33,12.64-11.85,20.21-2.73,8.24-5,16.57-2.23,25.29.93,2.92,1.05,5.46-2.58,6.3-2.95.69-5.56-1.73-5.82-5.32a68.09,68.09,0,0,1,1.23-16.43c.25-1.45,1.08-2.87-.49-4.07a6,6,0,0,1,2.16-5.09,7.35,7.35,0,0,0,2.55-5.48c.28-.33.56-.67.86-1C160.58,60.72,164.14,53.86,171.86,51.67Z"/><path class="cls-9" d="M171.86,51.67c-7.72,2.19-11.28,9-16.17,14.42-.3.32-.58.66-.86,1-4.52-.1-7.56,3.73-11.78,4.43,3.24-9.5,9.58-15.45,19-19.46,5.5-2.34,11.46-4.57,16.28-8.56,1.55.37,3,1.24,3,2.81,0,1.19-1.71,1.41-2.73,2C176.37,49.42,174.11,50.53,171.86,51.67Z"/><path class="cls-8" d="M147.52,85c-.63,6.54-2.81,12.7-4.78,18.9-.6,1.89-9.62,4.67-11.77,3.81-3.71-1.48-7.29-3.36-11.3-4a.44.44,0,0,1-.27-.31c0-.13.12-.27.19-.4a12.26,12.26,0,0,1,6-1.4c6.76.38,9.23-1.63,10.14-8.57h0c3.59,1.77,5.78.63,7.15-3.09C143.69,87.73,144.57,85.28,147.52,85Z"/><path class="cls-10" d="M147.52,85c-3,.33-3.83,2.78-4.63,5-1.37,3.72-3.56,4.86-7.15,3.09,0-5.9,3.15-10.83,5-16.14.65-1.82,1.51-3.57,2.27-5.35,4.22-.7,7.26-4.53,11.78-4.43a7.35,7.35,0,0,1-2.55,5.48,6,6,0,0,0-2.16,5.09C149.25,80.09,148.39,82.52,147.52,85Z"/><path class="cls-1" d="M126.3,118.58a5.71,5.71,0,0,1-1.29-3.17c3.48-4.09,3.48-4.14-1.47-6.43-1.58-.74-3.12-1.62-5-1.44-1.93-1.23-4.24-.66-6.29-1.3l-1.2-.51-.37.17,0-3c1.95.37,3-1.17,4.48-2-.29,2.94.39,4.69,4,4.82,3.29.13,6.3,1.92,9.11,3.61a8.05,8.05,0,0,0,7.64.53c10.34-3.92,20.81-3.67,31.18-.26,2.45.8,4.34-.49,6.5-.42.43,3.53,4.72,3.86,5.74,6.89a5.19,5.19,0,0,1-3,1.18c-7.89-6.39-17.05-8.48-27-8-1.31.07-2.7-.21-3.81.81l-3.24.27a2,2,0,0,0-2.16.63A28,28,0,0,0,126.3,118.58Z"/><path class="cls-1" d="M208.71,105.38a2.23,2.23,0,0,1-1.34,2.29l-.21.09-2.16-.14c-7.33-2.78-14.72-4.12-22.34-1.17-3.26.13-5.92,2.19-9,2.77.77-3.43,4-2.75,6.24-3.64s4.84-1,4.27-4.39A49.67,49.67,0,0,1,208.71,105.38Z"/><path class="cls-10" d="M135.73,93c-.91,6.94-3.38,8.95-10.14,8.57a12.26,12.26,0,0,0-6,1.4c0-3.65,2.7-4.78,5.5-5.54A12.36,12.36,0,0,0,132.91,92C133.56,93.07,134.63,93.07,135.73,93Z"/><path class="cls-8" d="M170.35,95.77c2.69.56,5.33,1,7.06,2.92.78.87,2.65,2,1.45,3.7a3.41,3.41,0,0,1-4.81.93,42.65,42.65,0,0,1-5.83-5.51,2.32,2.32,0,0,1-.26-1.53A17.78,17.78,0,0,1,170.35,95.77Z"/><path class="cls-4" d="M129.43,89.64c-2.17-.24-2.73-2.19-3.66-3.62a27,27,0,0,0-6.38-6.83,10,10,0,0,1,7.9,4.3c.88,1.19,1.47,2.62,3,3.17C130.84,87.89,129.76,88.66,129.43,89.64Z"/><path class="cls-1" d="M167.15,79.53A1.36,1.36,0,0,1,166,81.32C166.12,80.57,166.09,79.69,167.15,79.53Z"/><path class="cls-1" d="M175.05,93.16l2.57.36C176.62,94.38,175.79,94.1,175.05,93.16Z"/><path class="cls-1" d="M182.74,99.37c.71.09.94.53.83,1.19Z"/><path class="cls-1" d="M181.87,98.11l.82,1.2A1.07,1.07,0,0,1,181.87,98.11Z"/><path class="cls-5" d="M142.26,110.41l3.24-.27c1.09.35,2.77-.5,3.26.79.57,1.54-1.2,2.18-2.07,3.11-1.82,2-5.28.85-7.38,3.92,5.74-.4,10.95-1.54,15.88.31A31.28,31.28,0,0,1,171.79,133c1.38,2.48,2.44,5.13,3.66,7.7.66,1.38,1.77,2.19,3.26,1.67,2.1-.73.89-2.26.42-3.33-2.95-6.68-5.3-13.72-11.07-18.76-.95-.82-2.29-1.55-2.13-3.45,2.95-.4,4.94,1.39,7,3,5.5,4.15,8.41,9.94,10.45,16.32,2,6.13,2.3,12.58,3.64,18.83a7.72,7.72,0,0,1-.58,3.48c-.27.91.22,2.37-1.21,2.58-1,.16-1.36-.94-1.87-1.66-.68-.94-1.3-2.35-2.71-1.88-1.2.4-1.54,1.8-1.59,3-.22,5.07-4.17,7.11-7.25,10.33-6.58,6.87-15.08,6.81-23.14,8.56-6.16,1.33-12.49,1.13-18.77,1-4.65-.1-6.38-1.84-6.7-6.56-.12-1.73.14-3.59-2.73-5.13,0,4,.09,7.48,0,11-.06,1.47.93,3.77-1.43,4.13-2.88.44-2.42-2.51-2.55-3.84-.52-5.33-1.7-10.63-1.33-16a47.44,47.44,0,0,0-1.07-12.46,63,63,0,0,1,12.24-32.83A28,28,0,0,1,140.1,111,2.28,2.28,0,0,0,142.26,110.41Zm-6,30.27c3,.6,6.2-.42,9.38-1.1,6-1.26,10.15-7.49,9-12.65-.92-4-7.62-7.27-12.33-5.67a18.26,18.26,0,0,0-11.67,11C128.35,138.16,126.15,141.39,136.28,140.68Zm-17.53,5.94c0,.74,0,1.49,0,2.24s-.26,2,.91,2.22a2.11,2.11,0,0,0,2.4-1.55c.4-1.28.6-2.62,1-3.89,2.31-7.18,3.55-14.74,7.82-21.24,1.09-1.67,4.26-3.93,2.2-5.41s-4.24,1.72-6.11,3.33a3,3,0,0,0-.58.69A58.91,58.91,0,0,0,118.75,146.62Z"/><path class="cls-4" d="M121.64,218.35c8.49,13,20.07,20.87,36.19,18.6,15.89-2.23,24.66-13.06,30.33-27.58,1.59,2.95.12,5.78-.33,8.14-2.26,11.87-6.36,23-15.69,31.43-5.59,5-12,7.42-19.62,6.23-2.65-.42-5.31,0-8-.61-7.15-1.67-10.71-7.66-14.51-12.67-4.73-6.26-7.6-13.82-9.27-21.65C120.59,219.64,120.57,219.08,121.64,218.35Z"/><path class="cls-5" d="M182.66,106.45c7.62-3,15-1.61,22.34,1.17.67.74,1.39.92,2.16.14l.21-.09.45.81c1.32,2.71,3.66,3.47,6.44,3.4h.06c.12,2.53,2.48,3.27,4,4.46a81.09,81.09,0,0,1,12.28,12.36,12.09,12.09,0,0,1,2,13.19,32.54,32.54,0,0,0-1.93,5c-2.21,9.85-13.08,14.83-21.24,15.21-3,.14-5.64-2-6.44-5.29A122.64,122.64,0,0,0,187,119.56a14.67,14.67,0,0,1-1.61-4.14c-1.4-5.3-1.31-5.38,4.43-4.81C188.47,106.91,183.69,109.7,182.66,106.45Zm9.91,10.85c.07,3.87,4.34,8.41,7.75,8.2,2.21-.13,4.71-.52,4.74-3.58,0-4.67-3.55-8-8.31-8.11C194.06,113.75,192.33,114.51,192.57,117.3Zm.62-7.67c0,.09,0,.24.07.28a.78.78,0,0,0,.35.08l-.1-.49Z"/><path class="cls-5" d="M62,106.54c0-1.6,0-3.21,0-4.81a70.26,70.26,0,0,1,14.27-6.36c5.64-1.86,11.43-2.09,17.15-3.11,1.69-.3,3.07-.53,1.8-2.69a23.55,23.55,0,0,1,3.57.07,2,2,0,0,1,1.76,2.24,1.85,1.85,0,0,1-1.61,1.9c-7.7.07-10.93,7-16.2,10.7a130.14,130.14,0,0,0-13,10.74c-4.34,4-8.86,7.9-12.9,12.25a21.94,21.94,0,0,1-3.27,3.05c-4,2.86-5.87,2.22-7.41-2.46-1.06-3.23.87-8,3.94-9.76.77,2.29,1.8,4.18,4.77,3.06a21.84,21.84,0,0,0,10.37-8C67.8,109.68,66.47,107.11,62,106.54Z"/><path class="cls-11" d="M95.22,89.57c1.27,2.16-.11,2.39-1.8,2.69-5.72,1-11.51,1.25-17.15,3.11A70.26,70.26,0,0,0,62,101.73c-3.77,1-6.35,4.31-10.76,5.76,2.32-6,7.16-8.41,11.58-11.12,7-4.28,14.73-6.28,22.71-7.61l7.79,0Z"/><path class="cls-11" d="M62,106.54c4.46.57,5.79,3.14,3.2,6.79a21.84,21.84,0,0,1-10.37,8c-3,1.12-4-.77-4.77-3.06C52.52,112.83,56.69,109.11,62,106.54Z"/><path class="cls-11" d="M207.29,92.2c7.62-2.08,14.47.33,21.11,3.69a4.61,4.61,0,0,1,2.59,5.66c-.84,2.49-3.42,1.47-5.09,1.08-3.6-.86-7.08-2.2-10.6-3.35C212,97.67,207.46,97.39,207.29,92.2Z"/><path class="cls-4" d="M253.06,180.39c0-.58-.07-1.16-.1-1.74C253.85,179.18,253.82,179.76,253.06,180.39Z"/><path class="cls-3" d="M118.57,107.54c1.85-.18,3.39.7,5,1.44,5,2.29,5,2.34,1.47,6.43-7.39,6.88-10,16.16-12.5,25.38-3.34,12.07-3.82,24.46-3.72,36.9q.08,10.34.18,20.67l.66.9.09,6.41a4.88,4.88,0,0,0-4.5,3.26c-2.68,6.7-9.84,7.86-14.47,12.11-2.28,2.1-6-.3-5.19-3.32,1.35-4.83-2.29-7.58-4.48-10-3-3.25-6.3-6.3-9.07-9.82-.83-1.06-1.82-2.51-3.18-1.6s0,2.25.53,3.17c2.19,3.53,4,7.44,8,9.42a3.29,3.29,0,0,1,1,.91c1.61,2,4,4.27,1.63,6.57-2.65,2.54-4.14-.92-6.19-2.13-5.51-3.27-8.73-8.34-12-13.69-1,8.55,6.15,15.42,4.62,23.94a53.77,53.77,0,0,1-10-22c-1.75-8.52-3.09-17-2.56-25.72,1-16.45,4.7-32.12,14.23-46a21.86,21.86,0,0,1,1.76-2,6.77,6.77,0,0,1-.92,5.17c-.91,1.64-.32,3.42,1.12,3.73,2.38.51,2.57,1.87,2.86,3.77.26,1.69,1.72,2.77,3.2,3.55,5.28,2.78,11.11,3.27,16.88,3.72,2.52.19,5.19-.6,5.83-3.76.91-4.45,3.43-8.26,4.92-12.44,1.71-4.78,4.82-9.5,2.29-15-.92-2-2.3-3.06-4.53-2.91s-4.67-.36-5.18,2.82l-4.7,1.09c-.21-2.27.94-3.54,2.93-4.45,3.41-1.57,7-2.23,10.64-3.14C109.66,109.87,114.71,111,118.57,107.54Zm-15.86,48.13c3.93-11.12,6.91-22.54,12.76-33.66C108.86,124.78,100.45,147.39,102.71,155.67Z"/><path class="cls-5" d="M96.33,117.49c.51-3.18,3-2.67,5.18-2.82s3.61.88,4.53,2.91c2.53,5.52-.58,10.24-2.29,15-1.49,4.18-4,8-4.92,12.44-.64,3.16-3.31,4-5.83,3.76-5.77-.45-11.6-.94-16.88-3.72-1.48-.78-2.94-1.86-3.2-3.55-.29-1.9-.48-3.26-2.86-3.77-1.44-.31-2-2.09-1.12-3.73a6.77,6.77,0,0,0,.92-5.17c9-12.85,20.91-21,36.87-22.38,1.33-.12,2.65-.39,4-.58l.38-.17,1.19.51c2,.64,4.36.07,6.29,1.3-3.86,3.41-8.91,2.33-13.37,3.45-3.6.91-7.23,1.57-10.64,3.14-2,.91-3.14,2.18-2.93,4.44-2.21,2.36-5.12,3.64-7.87,5.17-.93-1.12-1.74-.66-2.61.13a32.34,32.34,0,0,0-6.48,7.8c-.49.87-1.36,1.88-.69,2.86.93,1.38,2.13-.38,3.22,0,0,2.15,1.27,2.55,3.2,2.64A19.62,19.62,0,0,0,100,123.32C101.11,119.7,99,118.51,96.33,117.49Z"/><path class="cls-3" d="M214.26,111.88c-2.78.07-5.12-.69-6.44-3.4A8.92,8.92,0,0,1,214.26,111.88Z"/><path class="cls-5" d="M107.86,76.89a10,10,0,0,1,6.52,1.45c.73.49,1.66.89,1.35,2s-1.33.94-2.2,1.06c-3,.43-5.85-.78-8.8-.92-1.22-.06-2.66-.18-2.74-1.65-.1-1.85,1.53-1.86,2.88-1.93C105.75,76.86,106.65,76.89,107.86,76.89Z"/><path class="cls-4" d="M109.63,199.26l-.66-.9Z"/><path class="cls-3" d="M142.26,110.41a2.28,2.28,0,0,1-2.16.63A2,2,0,0,1,142.26,110.41Z"/><path class="cls-6" d="M112.28,106.24l-1.19-.51Z"/><path class="cls-3" d="M207.16,107.76c-.77.78-1.49.6-2.16-.14Z"/><path class="cls-11" d="M136.28,140.68c-10.13.71-7.93-2.52-5.67-8.42a18.26,18.26,0,0,1,11.67-11c4.71-1.6,11.41,1.71,12.33,5.67,1.2,5.16-3,11.39-9,12.65C142.48,140.26,139.26,141.28,136.28,140.68Z"/><path class="cls-11" d="M118.75,146.62A58.91,58.91,0,0,1,126.41,123a3,3,0,0,1,.58-.69c1.87-1.61,4.17-4.74,6.11-3.33s-1.11,3.74-2.2,5.41c-4.27,6.5-5.51,14.06-7.82,21.24-.41,1.27-.61,2.61-1,3.89a2.11,2.11,0,0,1-2.4,1.55c-1.17-.2-.85-1.38-.91-2.22S118.75,147.36,118.75,146.62Z"/><path class="cls-11" d="M192.57,117.3c-.24-2.79,1.49-3.55,4.18-3.49,4.76.09,8.35,3.44,8.31,8.11,0,3.06-2.53,3.45-4.74,3.58C196.91,125.71,192.64,121.17,192.57,117.3Z"/><path class="cls-3" d="M193.19,109.63l.32-.13.1.49a.78.78,0,0,1-.35-.08C193.2,109.87,193.21,109.72,193.19,109.63Z"/><path class="cls-11" d="M83.76,123.74c2.75-1.53,5.66-2.81,7.87-5.17l4.7-1.08c2.69,1,4.78,2.21,3.64,5.83A19.62,19.62,0,0,1,80.4,137.17c-1.93-.09-3.18-.49-3.2-2.64C78.26,130.25,81.34,127.2,83.76,123.74Z"/><path class="cls-5" d="M102.71,155.67c-2.26-8.28,6.15-30.89,12.76-33.66C109.62,133.13,106.64,144.55,102.71,155.67Z"/><path class="cls-3" d="M83.76,123.74c-2.42,3.46-5.5,6.51-6.56,10.79-1.09-.38-2.29,1.38-3.22,0-.67-1,.2-2,.69-2.86a32.34,32.34,0,0,1,6.48-7.8C82,123.08,82.83,122.62,83.76,123.74Z"/></g></svg>