<svg xmlns="http://www.w3.org/2000/svg" viewBox="0 0 300 300"><defs><style>.cls-1{fill:#b9322f;}.cls-2{fill:#466f41;}.cls-3{fill:#d14f38;}.cls-4{fill:#d97a60;}.cls-5{fill:#dd8a37;}.cls-6{fill:#83b952;}.cls-7{fill:#a2c64e;}.cls-8{fill:#69ab53;}.cls-9{fill:#51944f;}.cls-10{fill:#fefdfd;}.cls-11{fill:#e4b536;}</style></defs><title>fp</title><g id="клубника"><path class="cls-1" d="M119.66,73.33c17.27,2.4,29.51,12.16,38.21,26.65,2.08,3.45,3.53,4.7,7.68,3.23s8.67-1.51,13-2.18c.73,1.18,2.2,1.81,2.49,3.32-1.42.05-2.85.19-4.27.13-16.85-.8-32.95,12.4-39,26-8.12,18.17-7.5,37.16-4.95,56.2,1.93,14.45,6.67,28.21,12.66,41.47,3.66,8.1,9.14,14.32,18.59,16a40.94,40.94,0,0,0,15.25,0c28.53-5.5,54.78-15.46,74.56-38,11.35-12.95,16-27.62,11.34-44.65-1.07-3.9-3.45-5.7-6.78-4.67s-1.91,4.08-1.57,6.1c1.54,9.15-.06,17.83-3.68,26.16-5,11.49-14.24,19.38-24,26.64-10.22,7.62-21.7,13.14-33.46,17.88-10.08,4.07-20.71,6.23-31.73,5.36-1.09-.08-2.3.31-3.16-.78-2-2.5-1.51-10.73.83-13.66,3.22-4,5.36-4.52,10.34-1.87,2.93,1.56,5.23.74,5.42-2.15.35-5.43,3.37-9.6,5.55-14.16,1.83-3.81,8.66-5,10.94-2.13,1.64,2.05.51,4,.18,6.09-.45,2.77.07,4.73,3.6,3.26,1.05-.44,2.15-.77,3.2-1.2,6.84-2.74,11.55-9.32,19.25-10.6.93-.16,1.89-1.35,2.43-2.3a27.29,27.29,0,0,1,4.18-4.84c5.64-6,11.48-11.72,15.14-19.28,1.51-3.14,2.11-5.83.58-9.26-2.7-6.07-6.66-11.16-10.77-16.26-3.69-4.59-4-4.8-8.58-1.23a37.6,37.6,0,0,1-13.59,7c-2,.53-5.1,1.63-5.48-2.4,8.46-3.87,17.79-6.36,23.31-14.9.75-1.15,2-.86,2.72.47,4.29,8.26,13.1,13.7,14.75,23.62a2.31,2.31,0,0,0,1.2,1.58c1,.31,1.49-.61,1.84-1.39,1.24-2.7,2.86-5.22,3.42-8.24.5-2.71,1.74-4.3,5.08-3.22,2.94,1,6.1,1.2,9.16,1.75,9,19,5.43,36.52-6.77,52.53-12.51,16.4-29.91,26.2-48.79,33.5-11.88,4.6-24.13,8-36.91,8.86-14.38,1-23.8-4.46-29.86-17.47-3.06-6.57-5.66-13.36-8.67-20.51-12.83,8.18-25.79,5.19-38.82.38-17.16-6.32-33.24-14.55-46.63-27.2-10.79-10.19-18.92-22.11-21-37.28a40.26,40.26,0,0,1,1.55-16.92c.84-2.86,1.66-5.73,2.48-8.6,1.76,1,3.31-1.49,5-.36,5.55,3.68,10.29.64,15-1.85,4.54-2.4,9-4.91,11.68-9.66.77-1.38,1-3.85,3.21-3.25,1.67.45,2.32,2.33,2.14,4.19a8.68,8.68,0,0,0-1.64,1.35C61.49,119,53,123.6,43.05,126.1c-2.33.58-4.18.84-5.61-1.38s-2.49-1.47-3.3.4a31.61,31.61,0,0,0-2,5.6c-3.65,16.35,1.49,30.45,12,42.66,17.6,20.43,40.84,31.48,66.51,37.72,6.87,1.67,14.26,1.38,20.38-3.63.73-.6,2.08-.84,1.65-2.11a2.51,2.51,0,0,0-2.46-1.39c-1-.05-2.25-.12-2.86.42-3.07,2.69-6.71,1.93-10.22,2-1.33,0-2.53,0-2.85-1.79-.51-2.87-2.78-3.71-5.28-4.2-3.19-.62-5.24-2.76-6.79-5.41-1.08-1.84-1.43-3.91.37-5.48,1.62-1.41,3.57-2.34,5.83-1.09,1.86,1,3.93,1.7,5.45,3.31.61.65,1.45,1.15,2.29.61,1-.66.78-1.75.41-2.7a9.33,9.33,0,0,0-2.24-3,65.87,65.87,0,0,1-6.81-8.11c-1.86-2.66-1.38-8.77.64-9.9,3.4-1.88,5.87.52,8.4,2.3.22.16.33.47.52.68.46.51.86,1.25,1.72.84s.55-1.21.65-1.88c.22-1.48-.72-3.4,1-4.32,2.64-1.43,3.16-3,1.2-5.39a2.14,2.14,0,0,1,0-2.43c2.1-4.13,1.6-8.81,2.76-13.19,2.11-8,3.9-15.88,9-22.65a10.53,10.53,0,0,0,2.21-8.44,208.29,208.29,0,0,0-6-21c-.71-2.05-2.8-4.43-5.89-2-1.24,1-2.79,1.83-4.37,1.13-2.1-.92-3.77,0-5.72.47s-4.37,2.78-6.59.14c4.35-2.18,8.81-4.12,12.88-6.85,1.55-1,2.14-2,1.77-3.7.65,0,1.78-.83,1.84,0,.2,2.9,2.51,3.49,4.42,4.61,8.82,5.17,16.65,11.33,21.14,20.88.71,1.53,1.86,2.55,3.22,1s5.44-.75,3.94-4.74c-1.69-4.48-4.58-8.15-7.67-11.65-8.53-9.67-19.1-15.41-32.14-16.18C116.35,74.05,119,74.82,119.66,73.33Zm71.7,138c.88-1.81,1.95-4.06,0-5.39-2.16-1.5-4.35-.12-5.9,1.77a19.55,19.55,0,0,0-4.57,9.37c-.17,1.05.27,1.2,1,1.31C186.55,218,189,214.71,191.36,211.35Zm25.73,4.25c-.34-2.54-2-2.71-4-2-3,1.14-4.82,3.85-7,6-.87.87-2.07,2.23-1.31,3.3,1,1.4,2.58.31,3.83-.28,1.79-.84,3.57-1.72,5.31-2.65A6.63,6.63,0,0,0,217.09,215.6Zm27.15-23.8c-2.62-.14-9.07,8.52-8.16,10.92.34.92.91.84,1.68.68,3-.65,8.05-6.06,8.46-9.08C246.43,192.77,246,191.8,244.24,191.8ZM117.59,180.62c-1.27-3-1.5-6.42-4-8.83-1.24-1.18-2.62-2-4.16-.88a3,3,0,0,0-.55,4.55,51,51,0,0,0,6.28,6.36C116.33,182.87,117.52,182.6,117.59,180.62Zm44.75,49.79c.15,1.29-.5,3,1,3.47s2.17-1.13,2.91-2.06c1.69-2.11,3.11-4.44,2.21-7.3a1.51,1.51,0,0,0-2.2-.66A7.57,7.57,0,0,0,162.34,230.41Zm-20.71-128c0-2.33-3.49-6.65-5.58-7.41-.83-.3-1.51-.23-1.77.49-1.13,3.13,1.45,5,2.79,7.16a4.24,4.24,0,0,0,2.09,1.38C140.85,104.66,141.48,103.67,141.63,102.39Zm-35.54,88.55c-2.31.14-2.62,1.61-1.69,3.2,1.51,2.57,4.12,3.8,6.91,4.51,1,.24,2,.09,1.75-1.52C112.7,195.11,108,190.85,106.09,190.94Zm142-14.17c0,1.34-.36,3,1.52,3,3,0,2.59-2.89,3.33-4.66.62-1.51-.37-3.32-1.77-3.16C248.53,172.23,248.89,175.08,248.05,176.77Z"/><path class="cls-2" d="M181.08,104.35c-.29-1.51-1.76-2.14-2.49-3.32-2.83-6.87-2.64-13.61,1-20.14.72-1.29,1.39-3.28,3.24-2.88,1.51.34.78,2.21,1,3.39,1.4,7.5,6.31,11.78,13.59,14.88-.42-6.37,1-11.84,4.66-16.62,3.12-4.06,4.21-4.13,7.25.11s6,8.66,9,13c3.93,5.74,5.25,12.19,4.79,19.77,6.7-3.88,10.41-9.32,12.69-15.92a16.48,16.48,0,0,0,.58-2.5c.56-3.11,1.3-6,5.42-5.79a7.92,7.92,0,0,1,7.33,7.12,14,14,0,0,1-2.39,9.36c-2.57,3.8-4.86,7.85-8.69,11.46,6.53,1.36,12,4,17.39,6.9a18.66,18.66,0,0,0,9.05,2.29c.79,0,1.81-.6,2.29.45s-.35,1.9-1,2.63a14.23,14.23,0,0,1-8.58,5.13c5.56,5.95,11.68,10.27,20.38,9.48,2.65-.25,1.53,1.67.55,2.74-3.41,3.71-7.87,5.55-12.57,6.94-3.06-.56-6.22-.8-9.16-1.76-3.34-1.08-4.58.51-5.08,3.22-.56,3-2.18,5.54-3.42,8.24-.35.78-.86,1.7-1.84,1.39a2.31,2.31,0,0,1-1.2-1.58c-1.65-9.92-10.46-15.36-14.75-23.62-.69-1.33-2-1.62-2.72-.47-5.52,8.54-14.85,11-23.31,14.9-3.18.16-5.22-.55-4.65-4.53.31-2.19-.28-4.52-.5-6.78-.52-5.29-.52-10.59,1.7-15.5,1.61-3.53.88-4.55-2.92-4.27-6.66.48-13.34.81-20,1-2.25,0-5,.5-6-2.64l6.1-6.63a13.54,13.54,0,0,0,5.9-4.68c1.71-.76,1.3-1.56.05-2.38A5.63,5.63,0,0,0,181.08,104.35Zm76.45,26.06c1.85-.16,3.75-.23,4.74-2.69-8.51-1-15.12-7.3-23.71-7.87-1.61.11-3.43-.53-5,1.86,5.1,1.75,8.74,5.6,13.38,8A12.64,12.64,0,0,0,257.53,130.41Zm-33.61-14.83c-1.5.27-2.09,1.16-1.13,2.38,1.09,1.37,2.65,2.41,4.48,1.54,2.92-1.39,6.17-2.39,7.95-5.46,4.73-4.43,9.47-8.84,10.88-15.58a6.16,6.16,0,0,0-1.66-6.62c-1.58-1.44-4.21-2.21-4.79.45-1.65,7.55-5.56,13.77-10.22,19.68C227.11,112.44,225.8,114.45,223.92,115.58ZM199.33,102.8a18.42,18.42,0,0,0-2.92-3c-6.24-4.09-13-7.67-14.8-16.22-1.81,1.83-1.28,3.34-1.54,4.66-1.59,6.29.22,10.92,5,15,4.59,3.87,9.78,1.79,14.66,1.94C201.57,105.14,199.7,103.59,199.33,102.8Zm60,45.86c4.92.86,9.59.52,14.55-2.94-7.82-.48-12.78-4.76-17.88-8.86-1.74-1.39-3.57-3.53-6.27-1.56-.3,2.87,1.9,4.88,2.54,7.44A7.17,7.17,0,0,0,259.36,148.66Zm-53.92-40a2.08,2.08,0,0,0-2.06-.73,47.6,47.6,0,0,1-5.07,0c-9.54-1.07-16,4.11-21.9,10.54-1.93,2.12-.91,2.57,1.34,2.24,10.13-.93,20.39-.66,30.36-3.16,1.12-.28,2.25-.63,3,.7-6.43,3.44-9.58,9-10.13,16.07-.34,4.39.5,8.72,1,13.06-.44,3.19,1.62,3,3.45,2.23,10-3.93,20.26-7.71,22.84-20.11.18-.87.42-1.81,1.51-1.67s1,1.21,1,2a14.14,14.14,0,0,0,2.4,8.92c4.61,6.86,10.72,12.72,13.37,21.4,8.36-15.68-.52-33.28-16.87-35a6.75,6.75,0,0,1-2.37-.74c-5.27-2.66-9.44-6.59-13.45-10.83-2.13-2.24-4.53-4.36-7.85-4.81A.63.63,0,0,0,205.44,108.67Zm-3-7.5a13.64,13.64,0,0,0,9.05,7.12,7.16,7.16,0,0,1,4.1,2c1.08,1.18,1.59,3.73,3.48,3,.93-.37,1-3,1.37-4.6a4.88,4.88,0,0,0-.19-1.67c-.32-10.92-8.37-18-13.3-26.65-.59-1-1.55-.89-2.53-.09C199.63,84.21,198.49,95.91,202.45,101.17Z"/><path class="cls-2" d="M119.66,73.33c-.66,1.49-3.31.72-3.32,2.93-1.22,1.45-2.33,2.91.08,4.29a2.69,2.69,0,0,0,3.13.82l2,1C122,84,121.36,85,119.81,86c-4.07,2.73-8.53,4.67-12.87,6.85l-1.8.39c-2.64.13-5.3.2-7.94.41-2,.16-2.56,1.18-1.2,2.77A26.8,26.8,0,0,0,98.79,99l3.33,6.15c-.22,2,.21,3.6,2.27,4.39-.52,2.63,2,5,.68,7.7a24,24,0,0,0-7.32.1L84.43,117l-1.12-.1-.2.23a1.62,1.62,0,0,0-2.22-.85l.07,0c-.59-1.31-1.71-1.25-2.87-1.11l-.08.13a1.64,1.64,0,0,0-2.08-1l-.09.25.14-.22a1.29,1.29,0,0,0-1.68-.92l0,.1a.79.79,0,0,0-1-.79l0,.21.09-.2a1.23,1.23,0,0,0-1.58-1.06l0,.06A.71.71,0,0,0,71,111l0-.06a.73.73,0,0,0-.83-.8l0,0a.71.71,0,0,0-.77-.8l0-.08c.18-1.86-.47-3.74-2.14-4.19-2.24-.6-2.44,1.87-3.21,3.25-2.64,4.75-7.14,7.26-11.68,9.66-4.73,2.49-9.47,5.53-15,1.85-1.7-1.13-3.25,1.39-5,.36-3.21.09-6.06-1.42-9.1-2.1s-3-2.07-.74-4a53.83,53.83,0,0,1,17.3-10c2-.69,4-1.61,6.34-2.6-3.43-2.22-6.77-4.14-8.67-7.63-1.74-3.19-1.22-4.74,2.37-4.69,7.39.11,14.08-3.14,21.42-3.68-2.59-4-5-7.81-7.44-11.63a21.94,21.94,0,0,1-3.15-11.35c-.09-4.69,4.54-9.8,9.2-10.28,3.05-.32,4.41,1.47,5,4.14.92,4.31,1.11,8.75,2.7,13,1.72,4.56,4.53,8.48,7.23,12.77,5.19-9.2,13.75-13.18,23.54-15.36,7.12-1.59,14.15-3.53,20.25-7.76,2.36-1.63,2.92-.65,3,1.67a25.73,25.73,0,0,1-2.55,12v.06ZM65.54,84.75c.94,2.21,3,3.21,4.84,4.48a3.33,3.33,0,0,0,4.85-.74c1.15-1.51-.59-2.43-1.53-3.37-.69-.69-1.41-1.34-2.11-2-.78-1.2-1.22-2.63-2.5-3.47C64.81,72.85,63,65.25,62,57.43c-.81-3-2.51-3.3-5-1.75-4,2.53-4.69,5-3,10.44a10,10,0,0,0,4.37,8.73C59.27,79.24,63,81.54,65.54,84.75ZM43,96.38c3.86,3.24,8,2.71,12.28,1,2.33-.93,4-3.29,6.76-3.18l-1.05,1.64c-7.64,6.31-11.66,15.67-18.87,22.35l-.29.46.49-.19,2.64.39.72-.61,2.62-1c1.52,0,2.65-.88,3.84-1.63a38.78,38.78,0,0,0,13.73-15.29c.72-1.38,1-4,3.77-2.63-.06,8,3,12.57,10.5,15.23s15,1.92,23,1.7C98.94,104.67,95.29,95.2,85,90.83c-.07-.75-.7-1.88.87-1.64,1.81.27,3.58.86,5.39,1.11,8.43,1.12,16.69,1.22,24-4.27.71-1.21,2.68-1.08,3-3-3.93-2.11-8.25-1.52-12.44-1.77a1.77,1.77,0,0,0-2.65,0h-5c0-.53,0-1-.08-1.57,11,.39,16-1.56,20-13.31.41-1.19,1.23-2.7.13-3.54s-2.3.4-3.32,1.11c-3.3,1.2-6.55,2.6-9.92,3.55-5.53,1.58-11.22,2.64-16.39,5.33l-1,.76-.06-.06c-3.75,1.07-6.18,3.65-8,6.93-.75,1.58-2.94,3-1.6,4.89,2.58,3.61-.22,4.52-2.44,6.12-4.15,3-9.16,1.22-13.53,2.77,3.21-4.55,3.17-4.68-1.52-5.41-5.8-.59-11.14,2.2-16.87,2.29-1.38,0-3.8-.59-4.18,1C38.93,94,41,95.19,42.57,96.2,42.69,96.27,42.82,96.32,43,96.38Zm7.7,6.76c-8.58,2.46-16.83,5.67-24.29,10.66-1.43,1-2.58,1.93.39,2.1,10.27,2.09,15.92.79,20.88-7.05a15.16,15.16,0,0,0,3.54-5c.3-.25.61-.55.15-.88C51.21,102.86,50.88,103.07,50.65,103.14Zm64.49-24.65-.24-.35c-.11.09-.29.17-.31.28s.14.22.23.34Z"/><path class="cls-1" d="M118.88,72.69v0Z"/><path class="cls-3" d="M181.08,104.35a5.63,5.63,0,0,1,2.67,2.36c0,.79,0,1.58-.05,2.38a13.54,13.54,0,0,1-5.9,4.68,1.87,1.87,0,0,0-1.4-1.44c-4.63-1.11-17.51,2.57-20.27,8.35-3.27,1.3-3.72,4.41-4.57,7.22-.78,2.57.32,3.49,2.86,2.9l2,.3c-3.41,7.27-.89,12.31,6.46,12.82a10.93,10.93,0,0,0,4.2-.33,7.88,7.88,0,0,1,6.13.59c3.65,1.6,7.43,2.8,11.54,2.34a5.5,5.5,0,0,0,4.8-7c.32-4-.88-6.81-5.59-6.6-3.11-.68-6.88-.24-7.75-4.71-.06-.33-1.2-.44-1.83-.65-2.06-.79-3.93-1.77-4.38-4.22.24-1.19.22-2.53,1.74-3,1,3.14,3.77,2.69,6,2.64,6.67-.14,13.35-.47,20-1,3.8-.28,4.53.74,2.92,4.27-2.22,4.91-2.22,10.21-1.7,15.5.22,2.26.81,4.59.5,6.78-.57,4,1.47,4.69,4.65,4.53.38,4,3.44,2.93,5.48,2.4a37.6,37.6,0,0,0,13.59-7c4.59-3.57,4.89-3.36,8.58,1.23,4.11,5.1,8.07,10.19,10.77,16.26,1.53,3.43.93,6.12-.58,9.26-3.66,7.56-9.5,13.32-15.14,19.28a27.29,27.29,0,0,0-4.18,4.84c-.54,1-1.5,2.14-2.43,2.3-7.7,1.28-12.41,7.86-19.25,10.6-1,.43-2.15.76-3.2,1.2-3.53,1.47-4.05-.49-3.6-3.26.33-2.07,1.46-4-.18-6.09-2.28-2.84-9.11-1.68-10.94,2.13-2.18,4.56-5.2,8.73-5.55,14.16-.19,2.89-2.49,3.71-5.42,2.15-5-2.65-7.12-2.15-10.34,1.87-2.34,2.93-2.83,11.16-.83,13.66.86,1.09,2.07.7,3.16.78,11,.87,21.65-1.29,31.73-5.36,11.76-4.74,23.24-10.26,33.46-17.88,9.72-7.26,19-15.15,24-26.64,3.62-8.33,5.22-17,3.68-26.16-.34-2-1.87-5,1.57-6.1s5.71.77,6.78,4.67c4.7,17,0,31.7-11.34,44.65-19.78,22.58-46,32.54-74.56,38a40.94,40.94,0,0,1-15.25,0c-9.45-1.69-14.93-7.91-18.59-16-6-13.26-10.73-27-12.66-41.47-2.55-19-3.17-38,4.95-56.2,6.08-13.61,22.18-26.81,39-26C178.23,104.54,179.66,104.4,181.08,104.35Zm-35.16,48.12-.54.93c0,.83-.09,1.66-.14,2.49-1.59,1.89-1,4-.41,6,.39,1.31,1.46,2.1,2.4.6,2.13-3.4,5.49-6.37,4.46-11.05V150c.1-.5-.12-.74-.62-.75C147,146.65,147,150.32,145.92,152.47ZM167.54,197c-4.24-1.51-3.84,2-4.53,4.23-2,2.59-2.82,6.7-.59,7.91,2.74,1.49,3.56-3,5.11-4.9a8.4,8.4,0,0,0,1.49-3.89C169.21,199.1,169.7,197.37,167.54,197Zm53-14.6a7.52,7.52,0,0,0-6.53,2.81c-2.8,3.09-5,6.49-5.77,10.7-.49,2.73,1.75,5.31,4.32,4.33,5-1.93,10-4.22,12.67-9.35C227.54,186.41,225.4,182.48,220.52,182.41ZM170,168.23c.23,1.06-.59,2.5.78,3.33.27.17,1-.22,1.44-.55a18.79,18.79,0,0,0,6.1-9.45c.49-1.72.14-3.58-1.81-4.23-1.69-.55-3,.63-3.79,2A16.62,16.62,0,0,0,170,168.23Zm29.09,4.46c-.05-1.1.27-2.37-1.1-2.93a3.16,3.16,0,0,0-3.53.75c-3.15,3-4.33,6.88-5.26,10.9-.31,1.33.35,1.82,1.68,1.5C194,182.16,198.9,176.07,199.11,172.69Zm29.94-12.91c.06-1.51.14-2.89-1.28-3.55-1.22-.58-2.8-.74-3.59.34-2.13,3-4.71,5.76-4.44,9.87.14,2.05,1,2.53,2.76,1.65A12.88,12.88,0,0,0,229.05,159.78Zm-81.12,25.59a34.55,34.55,0,0,0,0,3.81c.18,1.6,1.36,2.1,2.25.82,2.18-3.13,4.08-6.49,4.07-10.48a2.69,2.69,0,0,0-2-2.91c-1.48-.32-2.35.72-3.09,1.8C147.71,180.53,147.81,183,147.93,185.37Z"/><path class="cls-3" d="M105.14,93.27l1.8-.39c2.21,2.64,4.51.38,6.58-.14s3.62-1.39,5.72-.47c1.58.7,3.13-.17,4.37-1.13,3.09-2.39,5.18,0,5.89,2a208.29,208.29,0,0,1,6,21,10.53,10.53,0,0,1-2.21,8.44c-5.06,6.77-6.85,14.69-9,22.65-1.16,4.38-.66,9.06-2.76,13.19a2.14,2.14,0,0,0,0,2.43c2,2.36,1.44,4-1.2,5.39-1.71.92-.77,2.84-1,4.32-.1.67.15,1.5-.65,1.88s-1.26-.33-1.72-.84c-.19-.21-.3-.52-.52-.68-2.53-1.78-5-4.18-8.4-2.3-2,1.13-2.5,7.24-.64,9.9a65.87,65.87,0,0,0,6.81,8.11,9.33,9.33,0,0,1,2.24,3c.37,1,.6,2-.41,2.7-.84.54-1.68,0-2.29-.61-1.52-1.61-3.59-2.27-5.45-3.31-2.26-1.25-4.21-.32-5.83,1.09-1.8,1.57-1.45,3.64-.37,5.48,1.55,2.65,3.6,4.79,6.79,5.41,2.5.49,4.77,1.33,5.28,4.2.32,1.78,1.52,1.83,2.85,1.79,3.51-.09,7.15.67,10.22-2,.61-.54,1.9-.47,2.86-.42a2.51,2.51,0,0,1,2.46,1.39c.43,1.27-.92,1.51-1.65,2.11-6.12,5-13.51,5.3-20.38,3.63-25.67-6.24-48.91-17.29-66.51-37.72-10.52-12.21-15.66-26.31-12-42.66a31.61,31.61,0,0,1,2-5.6c.81-1.87,1.91-2.54,3.3-.4s3.28,2,5.61,1.38c9.93-2.5,18.44-7.1,24.56-15.55a8.68,8.68,0,0,1,1.64-1.35l0,.08c-.16.67.11.92.77.8l0,0c-.11.67.17.93.83.8l0,.06c-.11.66.16.93.82.78l0-.06c-.08,1.26.69,1.26,1.58,1.06l-.09.2,0-.21c.06.62.37.9,1,.79l0-.09c0,1.24.77,1.25,1.68.91l-.14.22.09-.24c.23,1.27,1.13,1.19,2.08,1l.09-.13c.61,1.26,1.68,1.33,2.86,1.11l-.07,0c.46,1,1.3,1,2.22.85l.2-.23c.31.84.68.92,1.12.1l13.32.27c2.48,2.51,5,2.47,7.32-.1,1.3-2.7-1.2-5.07-.67-7.71.67-2.21-.13-3.65-2.28-4.38L98.79,99c.51-1.87,1.53-3.34,3.53-3.72C103.61,95,104.81,94.81,105.14,93.27ZM84.28,161.66c.66,1.6,2.16,2.89,3.53,2.17,1.57-.84.52-2.73.07-4.18-.67-2.16-1.27-4.36-3.65-5.36-.91-1.52-2.17-2.4-3.83-1.34s-1.08,2.67-.5,4.17a5.94,5.94,0,0,0,2.73,3.09l.77.69Zm-24.44-9.24c4,0,8.35-3.26,8.79-7.27a5.84,5.84,0,0,1,3.14-4.87,20.58,20.58,0,0,0,8.26-10c1.47-3.89,0-7.91-4-11.19-2.82-2.32-5.62-3.1-8.65-.2-1,1-2.69.75-4,1.14-5.4,1.6-10,4-12.47,9.8-2.23,5.07-1,9.64-.06,14.48C51.52,147.89,56.33,152.4,59.84,152.42Zm39.49-9.34c-.8-4.52-2.2-7.75-4.59-10.51-1.11-1.27-2.51-2.11-4.13-1.1s-1.42,2.76-.87,4.23c1.32,3.48,4.18,5.73,7.07,7.79C97.76,144.17,99.39,144.31,99.33,143.08Zm21.79-3.64a12,12,0,0,0-4.06-8.52c-.94-.88-1.91-2-3.32-1s-1.28,2.49-.88,3.87c.84,2.89,3.33,4.55,5.3,6.58.63.66,1.3,1.91,2.39,1.15C121.06,141.13,121,140,121.12,139.44Zm-3.27-37.32a1.94,1.94,0,0,0-1.48,1.07,2.79,2.79,0,0,0,.37,3.17c2,2.62,4.75,4.41,7.42,6.24.82.57,2.3,1,2.54-.85C127.05,109.14,121.2,102.36,117.85,102.12ZM64.5,170.67a13.72,13.72,0,0,0-5.69-8.18,2.19,2.19,0,0,0-2.77,0,2.28,2.28,0,0,0-.61,3.07,20,20,0,0,0,7.32,6.91C64.12,173.12,64.49,172.23,64.5,170.67Zm-16.44-26c.31-2.6.11-4.57-1-6.34-.7-1.1-1.49-2.23-3-1.83s-1.6,1.78-1.66,3.1c-.1,2,1,3.52,1.64,5.25.53,1.53,1.27,3.32,3.09,2.94S47.84,145.38,48.06,144.68Zm41,41.49c-1.55-2.69-2.92-5.67-6-7.25-1-.53-2.12-1-3.09,0a2.47,2.47,0,0,0-.07,3.47,14.14,14.14,0,0,0,7.72,4.86C88.33,187.48,89,187.28,89,186.17Z"/><path class="cls-3" d="M116.42,80.55c-2.41-1.38-1.3-2.84-.08-4.29,13,.77,23.6,6.51,32.13,16.18,3.09,3.5,6,7.17,7.67,11.65,1.5,4-2.6,3.22-3.94,4.74s-2.51.52-3.22-1c-4.49-9.55-12.32-15.71-21.14-20.88-1.91-1.12-4.22-1.71-4.42-4.61-.06-.83-1.19,0-1.84,0l-2-1C118.72,80.3,117.56,80.48,116.42,80.55Z"/><path class="cls-3" d="M217.09,215.6a6.63,6.63,0,0,1-3.18,4.43c-1.74.93-3.52,1.81-5.31,2.65-1.25.59-2.82,1.68-3.83.28-.76-1.07.44-2.43,1.31-3.3,2.19-2.17,4-4.88,7-6C215.06,212.89,216.75,213.06,217.09,215.6Z"/><path class="cls-3" d="M244.24,191.81c1.73,0,2.19,1,2,2.51-.41,3-5.46,8.43-8.46,9.08-.77.16-1.34.24-1.68-.68C235.17,200.32,241.62,191.66,244.24,191.81Z"/><path class="cls-3" d="M117.59,180.62c-.07,2-1.26,2.25-2.47,1.2a51,51,0,0,1-6.28-6.36,3,3,0,0,1,.55-4.55c1.54-1.1,2.92-.3,4.16.88C116.09,174.2,116.32,177.63,117.59,180.62Z"/><path class="cls-4" d="M182,218.41c-.76-.11-1.2-.26-1-1.31a19.55,19.55,0,0,1,4.57-9.37c1.55-1.89,3.74-3.27,5.9-1.77,1.9,1.33.83,3.58,0,5.39-.9-.32-1.45-2.2-2.71-.77C186.39,213.16,183,214.82,182,218.41Z"/><path class="cls-5" d="M162.34,230.41a7.57,7.57,0,0,1,3.92-6.55,1.51,1.51,0,0,1,2.2.66c.9,2.86-.52,5.19-2.21,7.3-.74.93-1.53,2.51-2.91,2.06S162.49,231.7,162.34,230.41Z"/><path class="cls-3" d="M141.63,102.39c-.15,1.28-.78,2.27-2.47,1.62a4.24,4.24,0,0,1-2.09-1.38c-1.34-2.21-3.92-4-2.79-7.16.26-.72.94-.79,1.77-.49C138.14,95.74,141.6,100.06,141.63,102.39Z"/><path class="cls-3" d="M106.09,190.94c1.9-.09,6.61,4.17,7,6.19.28,1.61-.78,1.76-1.75,1.52-2.79-.71-5.4-1.94-6.91-4.51C103.47,192.55,103.78,191.08,106.09,190.94Z"/><path class="cls-3" d="M182,218.41c1.07-3.59,4.42-5.25,6.68-7.83,1.26-1.43,1.81.45,2.71.77C189,214.71,186.55,218,182,218.41Z"/><path class="cls-3" d="M248.05,176.77c.84-1.69.48-4.54,3.08-4.84,1.4-.16,2.39,1.65,1.77,3.16-.74,1.77-.33,4.64-3.33,4.66C247.69,179.77,248.1,178.11,248.05,176.77Z"/><path class="cls-6" d="M206,108.74c3.32.45,5.72,2.57,7.85,4.81,4,4.24,8.18,8.17,13.45,10.83a6.75,6.75,0,0,0,2.37.74c16.35,1.75,25.23,19.35,16.87,35-2.65-8.68-8.76-14.54-13.37-21.4a14.14,14.14,0,0,1-2.4-8.92c.05-.82.17-1.89-1-2s-1.33.8-1.51,1.67c-2.58,12.4-12.81,16.18-22.84,20.11-1.83.72-3.89,1-3.45-2.23,1.55,0,2.38-.67,3.29-2.07,1.57-2.42,2.31-6.95,7.13-4.14.41.24,1.44-.2,1.95-.61,3.7-3,8-5.6,8.16-11.24,0-1.08.88-2.2-.49-3s-2.42.18-3.31,1.1c-1.37,1.43-2.68,2.9-4.54,4.91-.09-2.87,1.4-4.1,1.74-5.71,1.18-5.56.52-8.33-4.78-8.39-.74-1.33-1.87-1-3-.7-10,2.5-20.23,2.23-30.36,3.16,2-3.29,5.73-3.38,8.72-4.53,5.46-2.09,10.92-5,17.19-3.17,1.7.51,4,2,5.11.3s-2.1-1.79-2.51-3.3C206.14,109.57,206.06,109.15,206,108.74ZM232.73,132c1.41,4.46,4.88,7.72,7.7,11.38a2,2,0,0,0,2.41.3c.79-.33.82-1.07.81-1.79,0-2.63-5.74-11.32-8.11-12.18C233.6,129,232.47,129.51,232.73,132Z"/><path class="cls-7" d="M211.1,118.22c5.3.06,6,2.83,4.78,8.39-.34,1.61-1.83,2.84-1.74,5.71,1.86-2,3.17-3.48,4.54-4.91.89-.92,1.84-1.93,3.31-1.1s.52,1.9.49,3c-.18,5.64-4.46,8.23-8.16,11.24-.51.41-1.54.85-1.95.61-4.82-2.81-5.56,1.72-7.13,4.14-.91,1.4-1.74,2.08-3.29,2.07-.48-4.34-1.32-8.67-1-13.06C201.52,127.18,204.67,121.66,211.1,118.22Z"/><path class="cls-6" d="M202.45,101.17c-4-5.26-2.82-17,2-20.91,1-.8,1.94-.94,2.53.09,4.93,8.63,13,15.73,13.3,26.65a4,4,0,0,1-4.23-2c-2.54-3.66-6.65-6-8.64-10.41C207.38,98.28,204.67,99.54,202.45,101.17Zm4-9-.05.63c.08-.1.21-.19.22-.3S206.54,92.3,206.47,92.19Z"/><path class="cls-7" d="M206,108.74c.1.41.18.83.3,1.24.41,1.51,3.67,1.58,2.51,3.3s-3.41.21-5.11-.3c-6.27-1.87-11.73,1.08-17.19,3.17-3,1.15-6.76,1.24-8.72,4.53-2.25.33-3.27-.12-1.34-2.24,5.88-6.43,12.36-11.61,21.9-10.54a47.6,47.6,0,0,0,5.07,0,1.85,1.85,0,0,0,2.06.73A.63.63,0,0,1,206,108.74Z"/><path class="cls-8" d="M202.45,101.17c2.22-1.63,4.93-2.89,4.94-6.58,2,4.4,6.1,6.75,8.64,10.41a4,4,0,0,0,4.23,2,4.88,4.88,0,0,1,.19,1.67c-.36,1.62-.44,4.23-1.37,4.6-1.89.76-2.4-1.79-3.48-3a7.16,7.16,0,0,0-4.1-2A13.64,13.64,0,0,1,202.45,101.17Z"/><path class="cls-7" d="M229.43,112c4.66-5.91,8.57-12.13,10.22-19.68.58-2.66,3.21-1.89,4.79-.45a6.16,6.16,0,0,1,1.66,6.62c-3.23.33-3.77,3.38-5.47,5.3C237.51,107.28,235.61,112.58,229.43,112Z"/><path class="cls-4" d="M156.13,120.68c2.76-5.78,15.64-9.46,20.27-8.35a1.87,1.87,0,0,1,1.4,1.44l-6.1,6.63c-1.51.45-1.49,1.79-1.73,3-1-3.65-3.18-1.91-5.14-1.1,0-1.68-.41-2.69-2.43-2a30.59,30.59,0,0,1-3.59.8Z"/><path class="cls-6" d="M249.76,135.3c2.7-2,4.53.17,6.27,1.56,5.1,4.1,10.06,8.38,17.88,8.86-5,3.46-9.63,3.8-14.55,2.94A47.14,47.14,0,0,0,249.76,135.3Z"/><path class="cls-6" d="M180.07,88.19c.26-1.32-.27-2.83,1.54-4.66,1.84,8.55,8.56,12.13,14.8,16.22a18.42,18.42,0,0,1,2.92,3,25.1,25.1,0,0,0-4.67,0c-4.82.91-8-1.67-10.27-5.19C182.53,94.76,181.48,91.36,180.07,88.19Z"/><path class="cls-8" d="M180.07,88.19c1.41,3.17,2.46,6.57,4.32,9.44,2.29,3.52,5.45,6.1,10.27,5.19a25.1,25.1,0,0,1,4.67,0c.37.79,2.24,2.34.4,2.29-4.88-.15-10.07,1.93-14.66-1.94C180.29,99.11,178.48,94.48,180.07,88.19Z"/><path class="cls-6" d="M229.43,112c6.18.61,8.08-4.69,11.2-8.21,1.7-1.92,2.24-5,5.47-5.3-1.41,6.74-6.15,11.15-10.88,15.58-3-2-4.42,1.44-6.7,2-1.67.39-3.27,2.16-4.6-.44C225.8,114.45,227.11,112.44,229.43,112Z"/><path class="cls-6" d="M238.56,119.85c8.59.57,15.2,6.84,23.71,7.87-1,2.46-2.89,2.53-4.74,2.69-.69-1.25-2-.81-3-1.11A33.48,33.48,0,0,1,238.56,119.85Z"/><path class="cls-8" d="M238.56,119.85a33.48,33.48,0,0,0,16,9.45c1,.3,2.31-.14,3,1.11a12.64,12.64,0,0,1-10.59-.75c-4.64-2.35-8.28-6.2-13.38-8C235.13,119.32,237,120,238.56,119.85Z"/><path class="cls-9" d="M249.76,135.3a47.14,47.14,0,0,1,9.6,13.36,7.17,7.17,0,0,1-7.06-5.92C251.66,140.18,249.46,138.17,249.76,135.3Z"/><path class="cls-9" d="M223.92,115.58c1.33,2.6,2.93.83,4.6.44,2.28-.54,3.72-4,6.7-2-1.78,3.07-5,4.07-7.95,5.46-1.83.87-3.39-.17-4.48-1.54C221.83,116.74,222.42,115.85,223.92,115.58Z"/><path class="cls-1" d="M183.7,109.09c0-.8,0-1.59.05-2.38C185,107.53,185.41,108.33,183.7,109.09Z"/><path class="cls-6" d="M205.44,108.67a1.85,1.85,0,0,1-2.06-.73A2.08,2.08,0,0,1,205.44,108.67Z"/><path class="cls-6" d="M85,90.83c10.34,4.37,14,13.84,18.15,23.75-8,.22-15.61.94-23-1.7s-10.56-7.27-10.5-15.23c2.63-1.45,5.31-2.05,8.16,0-.56-5.28-.55-5.26,4.35-6.06C83.06,91.4,84,91.07,85,90.83ZM80,99.32c-.31-.21-.62-.43-1-.62a3.08,3.08,0,0,0-.22.31l1.1.39c.36,1.94,1.94,2.21,3.48,2.53,0,.26,0,.53,0,.79a6.92,6.92,0,0,1-5.84-1.93c-1.34-1.28-2.91-2.23-4.46-.78-1.88,1.76-.37,3.58.81,4.8,3.83,4,8.75,5.51,14.15,5.68,1.06,0,2.48.39,2.82-1.13.29-1.29-.78-2-1.67-2.73-1.45-1.18-4-1.16-4.13-3.77a1.76,1.76,0,0,0-1.72-.94A4.27,4.27,0,0,0,80,99.32Z"/><path class="cls-8" d="M85,90.83c-1,.24-1.89.57-2.85.72-4.9.8-4.91.78-4.35,6.06-2.85-2-5.53-1.41-8.16,0-2.81-1.37-3,1.25-3.77,2.63a38.78,38.78,0,0,1-13.73,15.29c-1.19.75-2.32,1.65-3.84,1.63,0-1.33,1-1.84,2-2.57,5.13-4.15,9.22-9.27,13.07-14.57,2.06-2.83,1.42-4.46-2.34-4.23L62,94.19l0,0c4.37-1.55,9.38.2,13.53-2.77,2.22-1.6,5-2.51,2.44-6.12-1.34-1.88.85-3.31,1.6-4.89a25.73,25.73,0,0,0,11.32-.1A26.83,26.83,0,0,1,98,79.68c0,.52,0,1,.08,1.57-3,1.94-6.82.18-9.85,2-1,.64-2.82.7-2.69,2.29s1.92,1.26,2.81,1.24c7.87-.14,15.79.48,23.56-1.25,1.21-.26,2.36-1.33,3.22.46-7.26,5.49-15.52,5.39-24,4.27-1.81-.25-3.58-.84-5.39-1.11C84.25,89,84.88,90.08,85,90.83Z"/><path class="cls-6" d="M98,79.68a26.83,26.83,0,0,0-7.18.67,25.73,25.73,0,0,1-11.32.1c1.83-3.28,4.26-5.86,8-6.93C87.94,75.63,86,76,84.93,77a1.47,1.47,0,0,0-.36,1.92c.55.82,1.23.34,1.81-.09,2.35-1.74,5.07-2.35,7.88-3,6.11-1.32,12.26-2.71,17.41-6.53,1.74-1.28,4.61-2.16,3.22-5.41,1-.71,2.19-2,3.32-1.11s.28,2.35-.13,3.54C114,78.12,109.05,80.07,98,79.68Z"/><path class="cls-7" d="M115.16,86c-.86-1.79-2-.72-3.22-.46-7.77,1.73-15.69,1.11-23.56,1.25-.89,0-2.67.26-2.81-1.24s1.67-1.65,2.69-2.29c3-1.86,6.83-.1,9.85-2h5l2.65,0c4.19.25,8.51-.34,12.44,1.77C117.84,85,115.87,84.82,115.16,86Z"/><path class="cls-7" d="M114.89,63.94c1.39,3.25-1.48,4.13-3.22,5.41-5.15,3.82-11.3,5.21-17.41,6.53-2.81.6-5.53,1.21-7.88,3-.58.43-1.26.91-1.81.09A1.47,1.47,0,0,1,84.93,77c1-1,3-1.37,2.61-3.48l.06.06,1-.76c5.17-2.69,10.86-3.75,16.39-5.33C108.34,66.54,111.59,65.14,114.89,63.94Z"/><path class="cls-7" d="M60.94,95.83c3.76-.23,4.4,1.4,2.34,4.23-3.85,5.3-7.94,10.42-13.07,14.57-.91.73-1.91,1.24-2,2.57l-2.61,1-.73.62-2.64-.39-.2-.27C49.28,111.5,53.3,102.14,60.94,95.83Z"/><path class="cls-6" d="M62,57.43c1.07,7.82,2.85,15.42,7.13,22.21-3.44.41-5.87-1.21-7.78-3.87-.73-1-1.17-3-2.89-.92a10,10,0,0,1-4.36-8.73c3.55.56,3.15,5.4,6.67,6.19.84-2.47.15-4.62-.61-6.94C59.21,62.54,58.07,59.3,62,57.43Z"/><path class="cls-7" d="M26.75,115.9c-3-.17-1.82-1.14-.39-2.1,7.46-5,15.71-8.2,24.29-10.66l.52.69a15.16,15.16,0,0,1-3.54,5C40.48,110.66,34,114.41,26.75,115.9Z"/><path class="cls-7" d="M62,57.43c-3.89,1.87-2.75,5.11-1.84,7.94.76,2.32,1.45,4.47.61,6.94-3.52-.79-3.12-5.63-6.67-6.19-1.74-5.48-1-7.91,2.95-10.44C59.45,54.13,61.15,54.47,62,57.43Z"/><path class="cls-6" d="M60.44,88.82c4.69.73,4.73.86,1.52,5.41l0,0c-2.8-.11-4.43,2.25-6.76,3.18-4.3,1.72-8.42,2.25-12.28-1,1-1.84,2.74-1,4.2-1.31C52.13,94.17,57.3,93.63,60.44,88.82Z"/><path class="cls-7" d="M60.44,88.82c-3.14,4.81-8.31,5.35-13.29,6.25-1.46.26-3.23-.53-4.2,1.31-.13-.06-.26-.11-.38-.18-1.56-1-3.64-2.17-3.18-4.08.38-1.6,2.8-1,4.18-1C49.3,91,54.64,88.23,60.44,88.82Z"/><path class="cls-6" d="M26.75,115.9c7.25-1.49,13.73-5.24,20.88-7.05C42.67,116.69,37,118,26.75,115.9Z"/><path class="cls-8" d="M58.42,74.85c1.72-2.08,2.16-.09,2.89.92,1.91,2.66,4.34,4.28,7.78,3.87,1.28.84,1.72,2.27,2.49,3.47-2,.56-3.67,2.41-6,1.64C63,81.54,59.27,79.24,58.42,74.85Z"/><path class="cls-9" d="M65.54,84.75c2.37.77,4-1.08,6-1.64.71.67,1.43,1.32,2.12,2,.94.94,2.68,1.86,1.53,3.37a3.33,3.33,0,0,1-4.85.74C68.57,88,66.48,87,65.54,84.75Z"/><path class="cls-1" d="M105.14,93.27c-.33,1.54-1.53,1.72-2.82,2-2,.38-3,1.85-3.53,3.72A26.8,26.8,0,0,1,96,96.45c-1.36-1.59-.77-2.61,1.2-2.77C99.84,93.47,102.5,93.4,105.14,93.27Z"/><path class="cls-1" d="M105.07,117.2c-2.29,2.57-4.84,2.61-7.32.1A24,24,0,0,1,105.07,117.2Z"/><path class="cls-1" d="M102.12,105.11c2.15.73,2.95,2.17,2.28,4.38C102.33,108.71,101.9,107.07,102.12,105.11Z"/><path class="cls-1" d="M81,116.35c-1.18.22-2.25.15-2.86-1.11C79.25,115.1,80.37,115,81,116.35Z"/><path class="cls-1" d="M116.42,80.55c1.14-.07,2.3-.25,3.13.82A2.69,2.69,0,0,1,116.42,80.55Z"/><path class="cls-8" d="M105.71,81.31l-2.65,0A1.77,1.77,0,0,1,105.71,81.31Z"/><path class="cls-1" d="M73.38,112.77c-.89.2-1.66.2-1.58-1.06A1.23,1.23,0,0,1,73.38,112.77Z"/><path class="cls-1" d="M76,114.37c-.91.34-1.63.33-1.68-.91A1.28,1.28,0,0,1,76,114.37Z"/><path class="cls-1" d="M78,115.37c-1,.17-1.85.25-2.08-1A1.62,1.62,0,0,1,78,115.37Z"/><path class="cls-1" d="M83.11,117.16c-.92.19-1.76.15-2.22-.85A1.62,1.62,0,0,1,83.11,117.16Z"/><path class="cls-1" d="M74.33,113.55c-.63.11-.94-.17-1-.79A.79.79,0,0,1,74.33,113.55Z"/><path class="cls-6" d="M50.65,103.14c.23-.07.56-.28.67-.19.46.33.15.63-.15.88Z"/><path class="cls-1" d="M70.06,110.08c-.66.12-.93-.13-.77-.8A.71.71,0,0,1,70.06,110.08Z"/><path class="cls-1" d="M84.43,117c-.44.82-.81.74-1.12-.1Z"/><path class="cls-8" d="M42.27,118.45l-.49.19.29-.46Z"/><path class="cls-8" d="M44.91,118.84l.73-.62Z"/><path class="cls-1" d="M115.14,78.49l-.32.27c-.09-.12-.24-.24-.23-.34s.2-.19.31-.28Z"/><path class="cls-1" d="M70.92,110.93c-.66.13-.94-.13-.83-.8A.73.73,0,0,1,70.92,110.93Z"/><path class="cls-1" d="M71.77,111.77c-.66.15-.93-.12-.82-.78A.71.71,0,0,1,71.77,111.77Z"/><path class="cls-6" d="M88.58,72.82l-1,.76Z"/><path class="cls-4" d="M189.52,139.56a5.5,5.5,0,0,1-4.8,7c-4.11.46-7.89-.74-11.54-2.34a7.88,7.88,0,0,0-6.13-.59,10.93,10.93,0,0,1-4.2.33c-7.35-.51-9.87-5.55-6.46-12.82l1.81-.15a9.67,9.67,0,0,1,.55,1.12c1.61,5.11,6.26,7.06,12.13,5.07,3.46-1.18,4.86-5,3.47-9.54.63.21,1.77.32,1.83.65.87,4.47,4.64,4,7.75,4.7a2.47,2.47,0,0,1-.2.8c-1.51,2.27-5.39,4.13-2.28,7.42,2.9,3.07,5.3.1,7.65-1.56C189.2,139.54,189.38,139.58,189.52,139.56Z"/><path class="cls-10" d="M174.35,127.6c1.39,4.51,0,8.36-3.47,9.54-5.87,2-10.52,0-12.13-5.07a9.67,9.67,0,0,0-.55-1.12l.87-2.1c.61-.24,1-.6.81-1.33l5-5.24c2-.81,4.13-2.55,5.14,1.1C170.42,125.83,172.29,126.81,174.35,127.6Z"/><path class="cls-1" d="M220.52,182.41c4.88.07,7,4,4.69,8.49-2.66,5.13-7.65,7.42-12.67,9.35-2.57,1-4.81-1.6-4.32-4.33.76-4.21,3-7.61,5.77-10.7A7.52,7.52,0,0,1,220.52,182.41Zm-5.06,13.77,0,0c3.14-1.24,5.19-3.68,6.86-6.46.92-1.54,1.88-3.18-.07-4.73-4.91.13-9.57,4.39-11.22,10.29-.22.77-.94,1.65-.07,2.31s1.82-.26,2.71-.57A1.6,1.6,0,0,0,215.46,196.18Z"/><path class="cls-11" d="M170,168.23a16.62,16.62,0,0,1,2.72-8.88c.81-1.39,2.1-2.57,3.79-2,1.95.65,2.3,2.51,1.81,4.23a18.79,18.79,0,0,1-6.1,9.45c-.39.33-1.17.72-1.44.55C169.43,170.73,170.25,169.29,170,168.23Z"/><path class="cls-11" d="M199.1,172.69c-.2,3.38-5.1,9.47-8.2,10.22-1.33.32-2-.17-1.68-1.5.93-4,2.11-7.94,5.26-10.9a3.16,3.16,0,0,1,3.53-.75C199.38,170.32,199.06,171.59,199.1,172.69Z"/><path class="cls-5" d="M229.05,159.78a12.88,12.88,0,0,1-6.55,8.31c-1.75.88-2.62.4-2.76-1.65-.27-4.11,2.31-6.92,4.44-9.87.79-1.08,2.37-.92,3.59-.34C229.19,156.89,229.11,158.27,229.05,159.78Z"/><path class="cls-11" d="M147.93,185.37c-.12-2.41-.22-4.84,1.24-7,.74-1.08,1.61-2.12,3.09-1.8a2.69,2.69,0,0,1,2,2.91c0,4-1.89,7.35-4.07,10.48-.89,1.28-2.07.78-2.25-.82A34.55,34.55,0,0,1,147.93,185.37Z"/><path class="cls-10" d="M189.52,139.56c-.14,0-.32,0-.42.05-2.35,1.66-4.75,4.63-7.65,1.56-3.11-3.29.77-5.15,2.28-7.42a2.47,2.47,0,0,0,.2-.8C188.64,132.75,189.84,135.52,189.52,139.56Z"/><path class="cls-11" d="M156.13,120.68l2.68.39c1,4.33-3.2,6.36-4.39,9.73-2.54.59-3.64-.33-2.86-2.9C152.41,125.09,152.86,122,156.13,120.68Z"/><path class="cls-5" d="M167.54,197c2.16.36,1.67,2.09,1.48,3.35a8.4,8.4,0,0,1-1.49,3.89c-1.55,1.93-2.37,6.39-5.11,4.9-2.23-1.21-1.37-5.32.59-7.91.25,2.52,1.13,3.24,2.94,1A8,8,0,0,0,167.54,197Z"/><path class="cls-5" d="M154.42,130.8c1.19-3.37,5.35-5.4,4.39-9.73a30.59,30.59,0,0,0,3.59-.8c2-.68,2.46.33,2.43,2l-5,5.24a1,1,0,0,0-.81,1.33l-.87,2.1-1.81.15Z"/><path class="cls-11" d="M151.68,150c0,.48,0,1,0,1.45-2.51,2.14-3.16,5.56-5.28,8.12-.77-1.29.1-2.81-1.17-3.67,0-.83.1-1.66.14-2.49l.54-.93c1-2.15,1.12-5.82,5.14-3.23Z"/><path class="cls-5" d="M145.24,155.89c1.27.86.4,2.38,1.17,3.67,2.12-2.56,2.77-6,5.28-8.12,1,4.68-2.33,7.65-4.46,11.05-.94,1.5-2,.71-2.4-.6C144.23,159.88,143.65,157.78,145.24,155.89Z"/><path class="cls-11" d="M167.54,197a8,8,0,0,1-1.59,5.21c-1.81,2.26-2.69,1.54-2.94-1C163.7,199,163.3,195.5,167.54,197Z"/><path class="cls-5" d="M151.68,150l-.62-.75C151.56,149.25,151.78,149.49,151.68,150Z"/><path class="cls-5" d="M145.92,152.47l-.54.93Z"/><path class="cls-4" d="M59.84,152.42c-3.51,0-8.32-4.53-9-8.09-.91-4.84-2.17-9.41.06-14.48,2.52-5.76,7.07-8.2,12.47-9.8,1.33-.39,3-.16,4-1.14,3-2.9,5.83-2.12,8.65.2,4,3.28,5.44,7.3,4,11.19a20.58,20.58,0,0,1-8.26,10,5.84,5.84,0,0,0-3.14,4.87C68.19,149.16,63.84,152.44,59.84,152.42Zm7-16.93c.07-4.18-2.36-6.85-6.32-7-4.55-.13-8.71,4.27-8.69,9.21,0,4.24,3.12,8.39,6.31,8.39C63.14,146.13,66.73,141.75,66.84,135.49Zm4.88-4.64c3.16,0,6.42-2.68,6-5.34A4.79,4.79,0,0,0,72.87,121c-3.09-.09-5.49,2.47-5.5,5.85C67.36,129.78,69,131,71.72,130.85Z"/><path class="cls-5" d="M99.33,143.08c.06,1.23-1.57,1.09-2.52.41-2.89-2.06-5.75-4.31-7.07-7.79-.55-1.47-.78-3.21.87-4.23s3-.17,4.13,1.1C97.13,135.33,98.53,138.56,99.33,143.08Z"/><path class="cls-5" d="M121.12,139.44c-.13.52-.06,1.69-.57,2.05-1.09.76-1.76-.49-2.39-1.15-2-2-4.46-3.69-5.3-6.58-.4-1.38-.58-2.92.88-3.87s2.38.15,3.32,1A12,12,0,0,1,121.12,139.44Z"/><path class="cls-5" d="M117.85,102.12c3.35.24,9.2,7,8.85,9.63-.24,1.83-1.72,1.42-2.54.85-2.67-1.83-5.41-3.62-7.42-6.24a2.79,2.79,0,0,1-.37-3.17A1.94,1.94,0,0,1,117.85,102.12Z"/><path class="cls-5" d="M64.5,170.67c0,1.56-.38,2.45-1.75,1.76a20,20,0,0,1-7.32-6.91,2.28,2.28,0,0,1,.61-3.07,2.19,2.19,0,0,1,2.77,0A13.72,13.72,0,0,1,64.5,170.67Z"/><path class="cls-11" d="M48.06,144.68c-.22.7.9,2.74-1,3.12s-2.56-1.41-3.09-2.94c-.6-1.73-1.74-3.29-1.64-5.25.06-1.32.09-2.69,1.66-3.1s2.33.73,3,1.83C48.17,140.11,48.37,142.08,48.06,144.68Z"/><path class="cls-5" d="M89,186.17c-.08,1.11-.7,1.31-1.46,1.11a14.14,14.14,0,0,1-7.72-4.86,2.47,2.47,0,0,1,.07-3.47c1-1,2-.56,3.09,0C86.11,180.5,87.48,183.48,89,186.17Z"/><path class="cls-11" d="M82.63,160.21a5.94,5.94,0,0,1-2.73-3.09c-.58-1.5-1.17-3.09.5-4.17s2.92-.18,3.83,1.33c-.68,2.47,1.74,4.91,0,7.38l-.88-.76Z"/><path class="cls-5" d="M84.28,161.66c1.69-2.47-.73-4.91,0-7.38,2.38,1,3,3.21,3.65,5.37.45,1.45,1.5,3.34-.07,4.18C86.44,164.55,84.94,163.26,84.28,161.66Z"/><path class="cls-5" d="M82.63,160.21l.77.69Z"/><path class="cls-7" d="M232.73,132c-.26-2.44.87-3,2.81-2.29,2.37.86,8.09,9.55,8.11,12.18,0,.72,0,1.46-.81,1.79a2,2,0,0,1-2.41-.3C237.61,139.67,234.14,136.41,232.73,132Z"/><path class="cls-8" d="M206.47,92.19c.07.11.18.23.17.33s-.14.2-.22.3C206.44,92.61,206.45,92.4,206.47,92.19Z"/><path class="cls-7" d="M85.14,102.86c.15,2.61,2.68,2.59,4.13,3.77.89.71,2,1.44,1.67,2.73-.34,1.52-1.76,1.16-2.82,1.13-5.4-.17-10.32-1.72-14.15-5.68-1.18-1.22-2.69-3-.81-4.8,1.55-1.45,3.12-.5,4.46.78a6.92,6.92,0,0,0,5.84,1.93Z"/><path class="cls-8" d="M83.42,101.93c-1.54-.32-3.12-.59-3.48-2.53l.07-.08a4.27,4.27,0,0,1,3.41,2.6Z"/><path class="cls-8" d="M79.94,99.4,78.84,99a3.08,3.08,0,0,1,.22-.31c.33.19.64.41,1,.62Z"/><path class="cls-8" d="M85.14,102.86l-1.68-.14c0-.26,0-.53,0-.79h0A1.76,1.76,0,0,1,85.14,102.86Z"/><path class="cls-4" d="M159.07,128.85a1,1,0,0,1,.81-1.33C160.09,128.25,159.68,128.61,159.07,128.85Z"/><path class="cls-4" d="M213.71,197c-.89.31-1.72,1.33-2.71.57s-.15-1.54.07-2.31c1.65-5.9,6.31-10.16,11.22-10.29-1,1.38-1.93,2.76-2.92,4.12-1.6,2.19-4.63,3.59-3.87,7.07l0,0A1.76,1.76,0,0,0,213.71,197Z"/><path class="cls-3" d="M215.5,196.15c-.76-3.48,2.27-4.88,3.87-7.07,1-1.36,1.95-2.74,2.92-4.12,2,1.55,1,3.19.07,4.73C220.69,192.47,218.64,194.91,215.5,196.15Z"/><path class="cls-3" d="M213.71,197a1.76,1.76,0,0,1,1.75-.81A1.6,1.6,0,0,1,213.71,197Z"/><path class="cls-10" d="M66.84,135.49c-.11,6.26-3.7,10.64-8.7,10.63-3.19,0-6.3-4.15-6.31-8.39,0-4.94,4.14-9.34,8.69-9.21C64.48,128.64,66.91,131.31,66.84,135.49Z"/><path class="cls-10" d="M71.72,130.85c-2.77.12-4.36-1.07-4.35-4,0-3.38,2.41-5.94,5.5-5.85a4.79,4.79,0,0,1,4.88,4.49C78.14,128.17,74.88,130.87,71.72,130.85Z"/></g></svg>