<svg width="50" height="50" xmlns="http://www.w3.org/2000/svg" fill="none" viewBox="0 0 600 600"><defs><style>.cls-1{fill:#35314b;}</style></defs><title>tic-tac-toe</title><g id="Слой_3" data-name="Слой 3"><path class="cls-1" d="M578.7,274.43c-17.53-10.55-28.05,0-28.05,0s21-28.14,7-38.69c-11.94-9-26.41-2.66-30.45,10.27,1.71-14.49,2.85-45.44-18.62-45.44,0,0-35.06,3.52-10.52,45.72,0,0-56.09,28.14-56.09,42.21l-.82.61c16.7-40.29,20.23-119.48-14.85-176.16a34,34,0,0,0,17.82-7.37c16.87-13.75,17.18-41.4.7-61.75s-43.52-25.7-60.39-11.95c-8.69,7.08-13,17.86-12.84,29.42-20.52-13.34-96.49-54-197.8-3.17l-4.55,4.09c-.84-13.38-6.94-25.39-17.85-32.32-20-12.67-48.37-3.52-63.49,20.43S76.73,104,96.68,116.63a35.9,35.9,0,0,0,9.14,4.14c-6.51,14-33.23,78.59-16.16,158.93,7,23.88,21.26,42.14,39,56.06-28.19,24.75-77.79,74.6-75.78,117.42-.2-4-2.47-26.28-28-13.45-28,14.07-10.52,31.65-10.52,31.65a37.93,37.93,0,0,0,10.47,3.94c-11.71,3.76-21.83,10.9-10.47,24.2,0,0,5.65,11.29,22,6-8.79,4.42-22.17,14.87-4.44,32.65,0,0,24.54,24.62,35.06-14.06a168.2,168.2,0,0,0,28.33-6.84,201.55,201.55,0,0,0,3.54,35.82,424.26,424.26,0,0,0,48.76,18.8,92.39,92.39,0,0,1,0-24.92c7-58,59.59-103.76,122.69-114.31C339,421.2,399.91,483.87,399.91,547a134.39,134.39,0,0,1-2.64,26.64s12.41-1,55.55-23.81c3.4-28.83,1.92-65.68-7.63-112.93,29.15-18.94,110-77.77,98.45-141.37,0,0,13.3,16.67,39.88,4.56a7.35,7.35,0,0,0,3.65-3.6C589.29,291.94,591.65,282.23,578.7,274.43ZM345.34,136.75a2,2,0,0,1,2.44-1.44l.1,0L372.23,143a1.33,1.33,0,0,1-.73,2.56l-24.72-6.39A2,2,0,0,1,345.34,136.75ZM171.68,139.5,196,131.83a2,2,0,0,1,1.21,3.81l-.1,0-24.73,6.39a1.32,1.32,0,0,1-1.62-.95A1.34,1.34,0,0,1,171.68,139.5Zm-9.41,39.7a1.33,1.33,0,0,1,0-1.71,35.81,35.81,0,0,1,4.3-4.23,33.58,33.58,0,0,1,5.08-3.4,31.49,31.49,0,0,1,5.71-2.32,34,34,0,0,1,6.08-1.07,34.64,34.64,0,0,1,12.1,1.36,41.79,41.79,0,0,1,5.66,2.11,33.55,33.55,0,0,1,5.26,3,1.33,1.33,0,0,1,.3,1.86,1.34,1.34,0,0,1-1.69.41l-.07,0A40.77,40.77,0,0,0,200,173a43.21,43.21,0,0,0-5.31-1.6,36.71,36.71,0,0,0-10.87-.93,31,31,0,0,0-5.34.87,35.94,35.94,0,0,0-5.09,1.83,31.23,31.23,0,0,0-4.74,2.75c-.79.48-1.49,1.08-2.24,1.63s-1.41,1.21-2.14,1.8l-.07.06A1.34,1.34,0,0,1,162.27,179.2Zm202.59,89.95c-5.26,49.24-47,86.17-96.41,86.17S173.8,314.87,165,269.15c-9.33-48.64,47-89.68,96.4-89.68C326.29,179.47,366.61,212.88,364.86,269.15Zm13.69-89.78a1.31,1.31,0,0,1-1.66.45l-.12,0c-1.69-.8-3.31-1.68-5-2.48l-2.54-1a21.89,21.89,0,0,0-2.55-1,38.71,38.71,0,0,0-5.22-1.4l-1.32-.27-.66-.14-.66-.06-2.66-.24a31,31,0,0,0-10.49,1.39,27.78,27.78,0,0,0-4.91,2.07,27,27,0,0,0-4.39,2.92l-.1.09a1.33,1.33,0,0,1-1.88-.18,1.32,1.32,0,0,1,0-1.72,24.93,24.93,0,0,1,4.64-4,29.84,29.84,0,0,1,5.39-2.7,30.44,30.44,0,0,1,11.88-1.91l3,.29.75.08.73.16,1.47.32a36.37,36.37,0,0,1,5.69,1.76,21.66,21.66,0,0,1,2.69,1.21l2.63,1.32c1.65,1.05,3.3,2.1,4.89,3.2A1.32,1.32,0,0,1,378.55,179.37ZM529.27,293.64c-5.59,7.93-17.81,8.91-27.3,2.18s-12.64-18.61-7.05-26.54,17.81-8.9,27.29-2.18S534.85,285.72,529.27,293.64Z"/><path class="cls-1" d="M315.78,234c0,18.46-17.53,29.9-47.33,40.45-33.3-10.55-54.34-22-54.34-40.45s22.76-33.41,50.84-33.41S315.78,215.53,315.78,234Z"/><path class="cls-1" d="M321.31,284.91a2,2,0,0,0-2.77-.55A89.32,89.32,0,0,1,295,295.65a1.94,1.94,0,0,0-.67.21c-14,4.16-28.83,4.54-44.31,1.09a101,101,0,0,1-31.2-12.58,2,2,0,0,0-2.24,3.31,93.7,93.7,0,0,0,18.35,9c4.24,21.53,11.29,43.17,30.54,43.18h0c23.9,0,30.46-33.63,31.57-40.7a92.43,92.43,0,0,0,23.66-11.43A2,2,0,0,0,321.31,284.91Z"/></g></svg>