<svg width="50" height="50" xmlns="http://www.w3.org/2000/svg" xmlns:xlink="http://www.w3.org/1999/xlink" viewBox="0 0 600 600"><defs><style>.cls-1{mask:url(#mask);}.cls-2{fill:#f3f3c4;}.cls-3{fill:#35314b;}</style><mask id="mask" x="-18.12" y="-745.82" width="628.76" height="1112.88" maskUnits="userSpaceOnUse"/></defs><title>tic-tac-toe</title><g id="Слой_1" data-name="Слой 1"><g class="cls-1"><ellipse class="cls-2" cx="301.5" cy="34.29" rx="288.18" ry="332.77"/></g></g><g id="Слой_3" data-name="Слой 3"><path class="cls-3" d="M598.54,415.38l-92.3-226.95a74.92,74.92,0,0,0-41.62-41.36h0L460.14,137a11.41,11.41,0,0,0-10.57-7.11L389.1,129a11.42,11.42,0,0,0-10.73,7.53l-1.8,5-154.66.17-2.6-5.87a11.41,11.41,0,0,0-10.57-7.11l-60.47-.82a11.4,11.4,0,0,0-10.73,7.53L133.1,148l.18,0a74.94,74.94,0,0,0-39.52,40.49l-92.3,227a41.18,41.18,0,0,0,38.15,56.7H68.24a92,92,0,0,0,86.6-61l2.13-5.95A75.72,75.72,0,0,1,228.26,355H372.53a75.75,75.75,0,0,1,71.3,50.19l2.13,5.95a92,92,0,0,0,86.6,61h27.83A41.18,41.18,0,0,0,598.54,415.38ZM427.37,166.57a17.56,17.56,0,1,1-17.56,17.56A17.56,17.56,0,0,1,427.37,166.57ZM173,248.28a31.11,31.11,0,1,1,31.11-31.11A31.11,31.11,0,0,1,173,248.28Zm97.81,48.81a6.66,6.66,0,0,1-6.66,6.66H255a6.66,6.66,0,0,0-6.66,6.66v10.45a6.66,6.66,0,0,1-6.66,6.65H232.3a6.66,6.66,0,0,1-6.66-6.65V310.41a6.66,6.66,0,0,0-6.65-6.66H208.83a6.66,6.66,0,0,1-6.66-6.66V287.7a6.66,6.66,0,0,1,6.66-6.66H219a6.66,6.66,0,0,0,6.65-6.66v-8.82a6.66,6.66,0,0,1,6.66-6.66h9.39a6.66,6.66,0,0,1,6.66,6.66v8.82A6.66,6.66,0,0,0,255,281h9.12a6.66,6.66,0,0,1,6.66,6.66ZM360.5,323.5a31.11,31.11,0,1,1,31.11-31.11A31.11,31.11,0,0,1,360.5,323.5Zm34.85-90.3a17.56,17.56,0,1,1,17.56-17.56A17.56,17.56,0,0,1,395.35,233.2Zm32,31.26a17.56,17.56,0,1,1,17.56-17.56A17.57,17.57,0,0,1,427.37,264.46Zm30.9-31.3a17.56,17.56,0,1,1,17.56-17.55A17.56,17.56,0,0,1,458.27,233.16Z"/></g></svg>