<svg id="timer" xmlns="http://www.w3.org/2000/svg" viewBox="0 0 300 300"><defs><style>.cls-1{fill:#7f3129;}.cls-2{fill:#a93c2f;}.cls-3{fill:#444325;}.cls-4{fill:#98c252;}.cls-5{fill:#eab33d;}.cls-6{fill:#b8bebd;}.cls-7{fill:#cd5f33;}.cls-8{fill:#e4a23d;}.cls-9{fill:#da7c35;}.cls-10{fill:#f7eeae;}.cls-11{fill:#df9136;}.cls-12{fill:#f5e45c;}.cls-13{fill:#7aad52;}.cls-14{fill:#cdcdc9;}.cls-15{fill:#fcf6e6;}</style></defs><title>fp</title><path class="cls-1" d="M100.29,79.88a1.44,1.44,0,0,0,1.29-.18,106.52,106.52,0,0,1,34.85-8.22c.2,0,.39-.06.59-.09,1,.53,2,.25,3,.3,0,.62,0,1.23,0,1.85-.44.11-.93-.06-1.32.27a77.64,77.64,0,0,0-15.05,1.55A97.58,97.58,0,0,0,75.5,99.22l-.38.31h0l-.32.29h0c-.44,0-.67.14-.63.6h0c-.39.14-.7.35-.73.8l.1,0-.1,0a.41.41,0,0,0-.5.42h0c-.7.14-1.08.71-1.54,1.15a89.93,89.93,0,0,0-13.84,17.1,94.5,94.5,0,0,0-10.36,21.88,11.9,11.9,0,0,0-.94,3c-.39,1.31-.77,2.62-1.16,3.93l-.17.87-.13.34-.14.9-.17.6-.1.6a.22.22,0,0,0,0,.22,7.11,7.11,0,0,0-.56,2.8l-.11.54c-.08.29-.19.57-.24.86a98.07,98.07,0,0,0-1.25,21.24,92.12,92.12,0,0,0,4.22,23.27A93.73,93.73,0,0,0,57.9,225c.17.28.28.67.75.62v0c-.09.5,0,.87.6.93v0a1,1,0,0,0,.9,1.24v0a1,1,0,0,0,.91,1.24v0c-.16.94.86,1.3,1.05,2.06-.45,1.07-.08,1.55,1.44,1.83l.82.91a3.27,3.27,0,0,0,1.44,3.14c1.83,1.15,2.9,2.83,4.2,4.41,1,1.19,1.28,2.88,2.66,3.7a104.51,104.51,0,0,1,8.84,6.49,151.21,151.21,0,0,0,14,9.06l.26.08a.57.57,0,0,0,.55.3,103.2,103.2,0,0,0,16.89,7.76,111,111,0,0,0,32.15,6.05,95.4,95.4,0,0,0,18.56-1.12,98.28,98.28,0,0,0,26.64-7.83A91.3,91.3,0,0,0,213.77,251c5-4.45,9.83-8.94,13.9-14.22a98.31,98.31,0,0,0,16.13-30.51,99.84,99.84,0,0,0,4.6-30.15,109.36,109.36,0,0,0-.83-11.7A92.38,92.38,0,0,0,238.46,134a96.33,96.33,0,0,0-16.15-23.55c-.84-.9-1.42-2.09-2.7-2.52h0q0-.32-.3-.3h0c0-.21-.09-.31-.31-.3h0a1.3,1.3,0,0,0-1.22-1.22,3.22,3.22,0,0,0-1.24-1.66c-2.83-2.33-5.31-5-8.09-7.38s-5.27-5.08-8.42-7c-.28-.17-.95-.2-.76-.86a80.16,80.16,0,0,1,15.94,10.9,103.41,103.41,0,0,1,21.91,26.2,99.32,99.32,0,0,1,12.8,36.6,99.91,99.91,0,0,1-39.09,93.72,100,100,0,0,1-48.08,19.63,108,108,0,0,1-58.91-8.64A97,97,0,0,1,73.4,246.83c-5.12-5.27-10.38-10.42-14.73-16.39A94.63,94.63,0,0,1,42,193.54c-6-29.26.08-56,17.4-80.32a95.2,95.2,0,0,1,11.74-13.4c.52-.5,1.49-.83,1.2-1.88l1.21-1.52c.58.59,1.14.45,1.71,0l4.7-4c4.16-2.86,8.33-5.71,12.73-8.21,1.7-.85,3.39-1.73,5.11-2.56a1,1,0,0,0,.62-1.18C99.22,80.75,99.89,80.74,100.29,79.88Z"/><path class="cls-2" d="M140,73.54c0-.62,0-1.23,0-1.85,0-.08,0-.16.08-.25h.26c1.93-.12,3.84.5,5.78.25,5.19.29,10.34.87,15.47,1.65,2.1.57,4.2,1.19,6.32,1.7a8.73,8.73,0,0,0,3.36.6,1.77,1.77,0,0,0,2.6.6c6.37,2.59,12.74,5.17,18.65,8.72,2.27,1.36,4.49,2.82,6.73,4.24-.19.66.48.69.76.86,3.15,1.94,5.64,4.66,8.42,7s5.26,5.05,8.09,7.38a3.22,3.22,0,0,1,1.24,1.66,3,3,0,0,0,1.22,1.22h0l.31.3h0l.3.3h0a1.07,1.07,0,0,0,.34.8,95.27,95.27,0,0,1,12.27,19.42A99.74,99.74,0,0,1,242.31,173a107.72,107.72,0,0,1-1.78,17,30.66,30.66,0,0,0-1.09,4.64,98.31,98.31,0,0,1-13.87,31.21,103.23,103.23,0,0,1-17.14,19.56,98,98,0,0,1-19.49,13.38,102,102,0,0,1-40.39,11.42c-9.62.39-19.22.12-28.72-2a111.06,111.06,0,0,1-22.06-7.16c-.46-.21-.94-.73-1.48-.11a.57.57,0,0,1-.55-.3c-.06-.13-.11-.26-.26-.08a151.21,151.21,0,0,1-14-9.06A104.51,104.51,0,0,0,72.69,245c-1.38-.82-1.68-2.51-2.66-3.7-1.3-1.58-2.37-3.26-4.2-4.41a3.27,3.27,0,0,1-1.44-3.14l.36,0v0a.66.66,0,0,0,.33.59c.89,1,1.73,2.09,2.66,3.07a104.19,104.19,0,0,0,13.07,11.39,98,98,0,0,0,23.37,12.84,101.31,101.31,0,0,0,34.32,6.79,104.37,104.37,0,0,0,12.37-.52,100,100,0,0,0,15.59-2.66,97.81,97.81,0,0,0,49.86-30.78,97.16,97.16,0,0,0,15-23.18,38.66,38.66,0,0,0,2.87-7.1c3.81-9.17,5.43-18.83,6-28.65a92.61,92.61,0,0,0-1.1-19.31,96,96,0,0,0-8.36-27.18,92.39,92.39,0,0,0-13.85-21.27,63.65,63.65,0,0,0-8.5-8.32l-.29-.29-.32-.3A93.51,93.51,0,0,0,192.38,87.5a79,79,0,0,0-11.95-6.09,5.57,5.57,0,0,0-2.11-.86,27.15,27.15,0,0,0-5.45-1.92A71.7,71.7,0,0,0,161,75.39,106.48,106.48,0,0,0,140,73.54Z"/><path class="cls-1" d="M134.94,59.34a24.93,24.93,0,0,1-4.54-2c-3.39-1.93-5.09-4.74-4.63-8.72.54-4.58.92-9.18,1.56-13.75a10.42,10.42,0,0,1,4.42-7.1,26,26,0,0,1,13-4.56,70.7,70.7,0,0,1,35.94,5.69,24.27,24.27,0,0,1,9.95,7.43,10.94,10.94,0,0,1,2.13,8.81c-.69,4.16-1.32,8.33-2,12.49A7.56,7.56,0,0,1,187,63.16c-2.54,1.55-5.42,1.79-8.25,2.26-.91-.78-.33-1.65-.14-2.49a16,16,0,0,0,6.3-1.35c.74-.34,1.73-.85.84-1.91a10,10,0,0,0-5-3.42,5,5,0,0,0-1.86-1.08,39.41,39.41,0,0,0-8.5-3c-.43-.13-.86-.28-1.3-.39a84.86,84.86,0,0,0-17.42-2.6,48.2,48.2,0,0,0-12.91.73,9.87,9.87,0,0,0-3.27.66,18.82,18.82,0,0,0-4.36,1.21c-.59.25-1.29.37-1.41,1.18s.46,1.39,1.1,1.82a22,22,0,0,0,5.3,2.52A3.73,3.73,0,0,1,134.94,59.34ZM162.05,48.6l5.35,1.06L172.74,51A49.89,49.89,0,0,1,185,56.64c.44.4.86.84,1.34,1.2s.7,1.24,1.31,1,.64-1.07.84-1.68a2.15,2.15,0,0,0,.09-.44c.61-3.85,1.18-7.71,1.82-11.55a9.55,9.55,0,0,0-2.78-8.79,30.15,30.15,0,0,0-9.34-6A35.58,35.58,0,0,0,171,28a66.5,66.5,0,0,0-25.16-2.53c-4.33.4-8.57,1.37-12.21,4l-.38.32-.47.37a7.29,7.29,0,0,0-3.07,5c-.48,3.33-.82,6.68-1.19,10-.18,1.69-.31,3.4-.42,5.1,0,.42-.09,1,.38,1.22s.69-.28,1-.48a12.63,12.63,0,0,1,2.75-1.25c4.1-1.43,8.39-1.7,12.66-2.12,3.85-.05,7.7,0,11.54.29l3.51.36A4.68,4.68,0,0,0,162.05,48.6Z"/><path class="cls-3" d="M134.94,59.34a3.73,3.73,0,0,0,1.19-2A10.54,10.54,0,0,1,138,54.56h0l.41-.3L141,52.93a58.21,58.21,0,0,1,18.72.07c3.2.49,6.29,1.45,9.43,2.19v0a.64.64,0,0,0,.64.28c2.76,1.23,5.73,2.09,7.73,4.57a12.92,12.92,0,0,1,1.11,2.92c-.19.84-.77,1.71.14,2.49-.32,2-.65,4-.94,5.93a6,6,0,0,1-4,4.89,1.78,1.78,0,0,1-2.6-.61,1.54,1.54,0,0,0-.8-1.87,31.49,31.49,0,0,0-9.82-3.49,36.62,36.62,0,0,0-6.39-1.08c-4.19-.25-8.39-.5-12.51.56-.61.15-1.36.2-1.47,1.07a.56.56,0,0,0-.2.62c0,.09,0,.17-.08.25-1,0-2,.23-3-.3a6,6,0,0,1-2.24-6.08c.3-1.61.31-3.26.45-4.9C135.27,60,135.35,59.61,134.94,59.34Zm39.12.32a.61.61,0,0,0-.07-.1s-.06,0-.09,0l.17.09c-.28,1.25.75,2.27.56,3.52-.45,3.06-.59,6.16-1.49,9.15-.12.39-.51.85,0,1.24s1-.06,1.34-.33a2.53,2.53,0,0,0,1.12-1.72,56,56,0,0,0,.91-8.07A3.91,3.91,0,0,0,174.06,59.66Zm-29.71,7.62,7-.24A59,59,0,0,1,166.74,70c1.31.47,1.92,0,2.58-1a11.85,11.85,0,0,0,1.7-5.39c.26-2.31-1.77-6.32-4.71-7.12a59.84,59.84,0,0,0-23.24-1.75c-2.83.35-5,1.1-5.43,5.17-.24,2.24-.54,4.48-.77,6.73a2.82,2.82,0,0,0,.75,2.22c.26.3.55.66,1,.31C140.33,67.82,142.44,67.87,144.35,67.28Z"/><path class="cls-3" d="M100.29,79.88c-.4.86-1.07.87-1.84.57-.74-.73-1.12-2-2.57-1.73a22.22,22.22,0,0,0-7.8,2.62C82.39,84,77.43,87.53,73.82,92.75c-.83,1.2-1.27,2.38-.24,3.67l-1.21,1.52c-2.8-.66-3.91-3.07-5.35-5.14-.52-.75-.94-1.56-1.52-2.25-1.85-2.25-1.87-4.69-.82-7.22,1.56-3.77,4.52-6.39,7.68-8.76a37.62,37.62,0,0,1,15.32-7.23c3.6-.71,6.49.1,8.49,3.35,1.15,1.88,2.35,3.75,3.63,5.56C100.63,77.42,100.08,78.68,100.29,79.88ZM71.44,77.93a14.81,14.81,0,0,0-5.11,6.65,3.76,3.76,0,0,0,.55,4,25.8,25.8,0,0,0,3.45,5.26c.47.63.72.22.94-.24a15.41,15.41,0,0,1,2-3.37C79.63,82.81,87.47,77.91,97.5,76.6A56.18,56.18,0,0,0,94,71.11c-1.4-2-3.43-2.4-5.63-2a33,33,0,0,0-13.1,6Z"/><path class="cls-4" d="M31.93,110.27a6.77,6.77,0,0,1-3.55-1.17,18.41,18.41,0,0,1-6.68-7c-1-1.85-.88-3,.49-4.67a26.78,26.78,0,0,1,3.18-3.21c2.08-1.74,3.39-1.64,4.79.67a22.36,22.36,0,0,0,3.92,4.52,10,10,0,0,0,5,3c.68.12.92.51.49,1a39.09,39.09,0,0,1-5.93,6.4A2.56,2.56,0,0,1,31.93,110.27Z"/><path class="cls-5" d="M61.35,60.75c-.12.65-.6.86-1.18,1-1.32.33-2.66.63-4,1.06-5.77,1.93-8.2,6.48-9.37,12a9.12,9.12,0,0,1-.21,1,.82.82,0,0,1-.8.59.78.78,0,0,1-.78-.6,9.19,9.19,0,0,1-.27-1.18C43.56,67.76,39.58,63.52,32.65,62c-.85-.18-2.27.06-2.26-1.27s1.43-1,2.28-1.23C39,58.06,43.08,54.42,44.44,48c.14-.69.3-1.38.44-2.07s.39-1,1-1,.81.5.92,1c.2.83.37,1.67.57,2.5,1.46,6,5.31,9.54,11.27,10.94.63.15,1.28.27,1.92.43A1,1,0,0,1,61.35,60.75ZM45,53a11.25,11.25,0,0,1-6.55,6.68l-2.95,1.13c5.53,1.32,8.29,5,10.44,9.71a15.61,15.61,0,0,1,9.89-9.88c-5-1.54-8.19-4.8-9.93-9.85Z"/><path class="cls-5" d="M273.55,96.65c-.19.67-.77.77-1.3.88a18.93,18.93,0,0,0-4,1.35c-3.88,1.79-5.41,5.21-6.37,9-.06.24-.07.49-.13.74-.09.47-.28.91-.84.9s-.67-.51-.76-1a19.51,19.51,0,0,0-1.38-4.6c-1.78-3.8-5.15-5.34-8.93-6.32-.61-.16-1.47-.06-1.52-.93s.84-.89,1.44-1c6-1.24,9.26-5,10.27-10.84.1-.57.07-1.33.92-1.31s.73.72.87,1.24a8.67,8.67,0,0,1,.21.88c1.08,5.56,4.49,8.81,10,10C272.65,95.79,273.38,95.81,273.55,96.65Zm-18.22-.81a3.2,3.2,0,0,0-2.28.91,12.56,12.56,0,0,1,7.88,7.72c1.81-3.82,4.18-6.54,8.39-7.89-4.24-1.39-6.95-3.83-8.25-7.73a2.45,2.45,0,0,0-.78,1.36A12.44,12.44,0,0,1,255.33,95.84Z"/><path class="cls-5" d="M78,33.74a.75.75,0,0,1,.65.55,5.39,5.39,0,0,1,.22.88c.88,4.87,3.88,7.67,8.65,8.74.49.11,1.11.15,1.1.8s-.63.7-1.11.83a17.4,17.4,0,0,0-3.85,1.34c-2.88,1.55-4.05,4.22-4.81,7.17-.14.53.07,1.41-.77,1.43s-.72-.82-.83-1.38c-.82-4.31-3.19-7.19-7.6-8.2-.45-.1-.88-.23-1.33-.33s-.94-.23-1-.8.5-.68,1-.76l.29-.07c4.93-1,7.73-4.06,8.58-8.95C77.24,34.47,77.16,33.82,78,33.74Zm-5.27,10.5a1.51,1.51,0,0,0-1.23.79c3.36.84,5.12,3.27,6.68,6.2a11.14,11.14,0,0,1,6.72-6.55A11.39,11.39,0,0,1,78,38.22l-.41,1C76.43,41.38,75.05,43.28,72.69,44.24Z"/><path class="cls-6" d="M239.08,64.42a2.24,2.24,0,0,1-.37,1.29,42.9,42.9,0,0,0-2.47,4.82c-.43,1-1,1.35-2.15.75-1.77-.94-3.62-1.75-5.45-2.6-1.06-.5-1.39-1.09-.7-2.24a54.14,54.14,0,0,0,2.56-5.11c.48-1,1.08-1.34,2.14-.81,1.8.9,3.63,1.73,5.46,2.57C238.69,63.37,239.16,63.69,239.08,64.42Z"/><path class="cls-5" d="M272.36,138.46c-.45-.1-.49-.47-.56-.81a6,6,0,0,0-5.14-5.19c-.39-.08-.86-.14-.85-.68s.43-.52.77-.6a6.38,6.38,0,0,0,5.16-5.44c.07-.36.06-.91.63-.85s.51.57.6,1a6.92,6.92,0,0,0,2,3.77,8.35,8.35,0,0,0,3.25,1.55c.32.09.76.11.71.6s-.38.47-.66.53a6.45,6.45,0,0,0-5.4,5.56C272.85,138.16,272.75,138.45,272.36,138.46Zm-.22-10.24a6.33,6.33,0,0,1-2.43,2.93c-.42.09-.87.14-1.11.74a6.69,6.69,0,0,1,3.3,3c.32.59.65.49,1-.08a6.5,6.5,0,0,1,2.63-2.62c.4-.22.78-.6.18-.84-1.34-.54-2-1.76-3-2.64l-.19-.55C272.3,127.9,272.2,127.91,272.14,128.22Z"/><path class="cls-5" d="M178.32,80.55a5.57,5.57,0,0,1,2.11.86c.09,2,1.62,2.77,3.19,3.55,2,1,4,2.15,6,3.24.33.18.83.29.74.81s-.54.57-.9.71a1.79,1.79,0,0,1-1.58-.18c-1.26-.71-2.55-1.4-3.87-2a132.92,132.92,0,0,0-15.85-5.8c-1-.3-1.42-.23-1.39,1s-.07,2.53-1.35,2.72c-2.12.31-4.4.63-6.42-.18a19.92,19.92,0,0,0-5.68-1.3c-.83-.06-2.11-.09-2.31,1.31-1.8-.19-3.6-.5-5.4-.54a107.66,107.66,0,0,0-17.67.81,85.72,85.72,0,0,0-45.8,21.2,83.91,83.91,0,0,0-15.49,18,96.28,96.28,0,0,0-7,13.66c-.26.12-.61.18-.78.38a2.16,2.16,0,0,1-3.24.29c-1.31-1-3.17-1.47-3.61-3.41a.5.5,0,0,0-.53-.44c-.26,0-.27.26-.35.44s-.31.63-.42,1a160.31,160.31,0,0,0-5.09,15.69c-.1.4,0,1.2-.78,1.07-.59-.11-.26-.77-.39-1.17a.22.22,0,0,1,0-.22c.28-.16.34-.36.1-.6.06-.2.11-.4.17-.6a.54.54,0,0,0,.14-.9l.13-.34c.46-.21.44-.52.17-.87.39-1.31.77-2.62,1.16-3.93,1.15-.75,1.16-1.84.94-3A94.5,94.5,0,0,1,57.6,119.86a89.93,89.93,0,0,1,13.84-17.1c.46-.44.84-1,1.54-1.15a52.8,52.8,0,0,1-3.78,5.12c-.38.51-1,.88-.92,1.65.76.21,1.25-.33,1.8-.62s.88-1,1.68-.73A7.94,7.94,0,0,1,70,109a26.93,26.93,0,0,0-5.79,7.09,10.69,10.69,0,0,0-2.43,4.74c-.1.47-.33,1.19.32,1.48a1.34,1.34,0,0,0,1.6-.57,35.25,35.25,0,0,0,3.46-4.51L68.92,115c1.64-2,3.31-4,4.89-6.11.42-.56,1-1.35.43-2.06s-1.27-.11-1.91.14a2.2,2.2,0,0,1-.58.06c-.21-.67.37-.88.73-1.17,1.43-1.18,2.93-2.28,4.34-3.49a112.16,112.16,0,0,1,27.77-17.59,85.83,85.83,0,0,1,28-7.25,105.73,105.73,0,0,1,25.66,1.54c2.53.42,5,1.15,7.62,1.14.48,0,1.08.13,1.22-.57s-.3-1-.76-1.18a10.64,10.64,0,0,0-2.09-.88c-2.89-.69-5.79-1.36-8.71-2-5.56-1.13-11.22-1.35-16.85-1.82.39-.33.88-.16,1.32-.27a106.48,106.48,0,0,1,21,1.85,71.7,71.7,0,0,1,11.83,3.24c.6,1.41,4,2.79,5.35,2.18C178.28,80.79,178.29,80.64,178.32,80.55Z"/><path class="cls-7" d="M96.29,260.94c.54-.62,1-.1,1.48.11a111.06,111.06,0,0,0,22.06,7.16c9.5,2.12,19.1,2.39,28.72,2a102,102,0,0,0,40.39-11.42,98,98,0,0,0,19.49-13.38,103.23,103.23,0,0,0,17.14-19.56,98.31,98.31,0,0,0,13.87-31.21,30.66,30.66,0,0,1,1.09-4.64c0,.2,0,.53.1.57,1.49.63,1.08,1.92,1.14,3.06s-.39,2.34.19,3.26c.86,1.36.69,2.77.71,4.2,0,1.8-.34,3.68,1.13,5.17a98.31,98.31,0,0,1-16.13,30.51c-4.07,5.28-8.94,9.77-13.9,14.22a91.3,91.3,0,0,1-23.24,14.81,98.28,98.28,0,0,1-26.64,7.83,95.4,95.4,0,0,1-18.56,1.12,111,111,0,0,1-32.15-6.05A103.2,103.2,0,0,1,96.29,260.94Z"/><path class="cls-8" d="M44.4,152.22c.13.4-.2,1.06.39,1.17.74.13.68-.67.78-1.07a160.31,160.31,0,0,1,5.09-15.69c.11-.33.29-.64.42-1s.09-.42.35-.44a.5.5,0,0,1,.53.44c.44,1.94,2.3,2.41,3.61,3.41a2.16,2.16,0,0,0,3.24-.29c.17-.2.52-.26.78-.38-.55,2.06-1.66,3.93-2.11,6a67.73,67.73,0,0,0-2.4,9.21,46.62,46.62,0,0,0-.86,5c-.1.76-.52,1.89.79,2,1,.11,1,.68,1,1.33a11.05,11.05,0,0,0-.34,1.75c0,6.47-.16,12.94.87,19.38a81.69,81.69,0,0,0,9.67,27.95,84.76,84.76,0,0,0,21,24.53,83.3,83.3,0,0,0,32.47,16c2.92.72,5.88,1.3,8.83,1.95.14.93,1,.89,1.58,1,.88.17,1.3.59,1.21,1.49-14.39-1.73-27.76-6.27-39.79-14.44-.52-.37-1-.76-1.58-1.12a86.69,86.69,0,0,1-14.57-13,93,93,0,0,1-6.69-8.3,75.47,75.47,0,0,1-6.25-10.77,109.43,109.43,0,0,1-4.2-10.27,83.18,83.18,0,0,1-4.08-17.45c-.12-.83-.1-1.74-1.06-2.34a4.49,4.49,0,0,0-5.2.21c-3.17,2.16-3.9,5.31-3.39,8.78.27,1.88.23,3.88,1.2,5.63l1.8,7.54-1,.36a92.12,92.12,0,0,1-4.22-23.27,98.07,98.07,0,0,1,1.25-21.24c0-.29.16-.57.24-.86,1.06.22,1.17.09,1.07-1.33-.49.06-.37.88-1,.79A7.11,7.11,0,0,1,44.4,152.22Z"/><path class="cls-9" d="M243.8,206.26c-1.47-1.49-1.11-3.37-1.13-5.17,0-1.43.15-2.84-.71-4.2-.58-.92-.14-2.16-.19-3.26s.35-2.43-1.14-3.06c-.1,0-.07-.37-.1-.57a107.72,107.72,0,0,0,1.78-17,99.74,99.74,0,0,0-10.09-44.87A95.27,95.27,0,0,0,220,108.73a1.07,1.07,0,0,1-.34-.8c1.28.43,1.86,1.62,2.7,2.52A96.33,96.33,0,0,1,238.46,134a92.38,92.38,0,0,1,9.11,30.41,109.36,109.36,0,0,1,.83,11.7A99.84,99.84,0,0,1,243.8,206.26Z"/><path class="cls-10" d="M138.71,73.81c5.63.47,11.29.69,16.85,1.82,2.92.6,5.82,1.27,8.71,2a10.64,10.64,0,0,1,2.09.88c.46.23.87.59.76,1.18s-.74.57-1.22.57c-2.6,0-5.09-.72-7.62-1.14a105.73,105.73,0,0,0-25.66-1.54,85.83,85.83,0,0,0-28,7.25,112.16,112.16,0,0,0-27.77,17.59c-1.41,1.21-2.91,2.31-4.34,3.49-.36.29-.94.5-.73,1.17h0c-.8-.28-1.14.45-1.68.73s-1,.83-1.8.62c0-.77.54-1.14.92-1.65A52.8,52.8,0,0,0,73,101.61h0c.36.09.53,0,.5-.42l.1,0-.1,0a.71.71,0,0,0,.73-.8h0a.57.57,0,0,0,.63-.6h0a.29.29,0,0,0,.32-.29h0l.38-.31a97.58,97.58,0,0,1,48.16-23.86A77.64,77.64,0,0,1,138.71,73.81Z"/><path class="cls-9" d="M47.46,200.57,45.66,193c.81-.27,1.37-.33,1.57.82s.82,2.47,1.13,3.73a87.92,87.92,0,0,0,5.33,14.29,90,90,0,0,0,10.73,17.51c1.19,1.59,2.82,2.84,3.7,4.68a3.82,3.82,0,0,1-1.79-1c-.4-.29-.8-.81-1.28-.6s-.16.9-.3,1.35l-.36,0-.82-.91v-.3c.54-.81-.3-.86-.64-1.19h0A4.41,4.41,0,0,0,61.08,229v0c.06-.68-.36-1-.91-1.24v0a1.2,1.2,0,0,0-.91-1.24v0a.77.77,0,0,0-.61-.93v0a4.81,4.81,0,0,0-1-2.32,95.1,95.1,0,0,1-7.17-14.48C49.46,206.11,48.47,203.33,47.46,200.57Z"/><path class="cls-9" d="M73.58,96.42c-1-1.29-.59-2.47.24-3.67,3.61-5.22,8.57-8.76,14.26-11.41a1.57,1.57,0,0,1,.67,1.25,5.56,5.56,0,0,1-.87.55,24.8,24.8,0,0,0-8.14,5.51,1.77,1.77,0,0,0-.4,2.41c.23.44.43.89.65,1.34l-4.7,4C74.72,96.87,74.16,97,73.58,96.42Z"/><path class="cls-5" d="M80,92.4c-.22-.45-.42-.9-.65-1.34a1.77,1.77,0,0,1,.4-2.41,24.8,24.8,0,0,1,8.14-5.51,5.56,5.56,0,0,0,.87-.55c2.1-.53,2.91-.2,4,1.6C88.32,86.69,84.15,89.54,80,92.4Z"/><path class="cls-7" d="M92.72,84.19c-1.06-1.8-1.87-2.13-4-1.6a1.57,1.57,0,0,0-.67-1.25,22.22,22.22,0,0,1,7.8-2.62c1.45-.25,1.83,1,2.57,1.73a1,1,0,0,1-.62,1.18C96.11,82.46,94.42,83.34,92.72,84.19Z"/><path class="cls-11" d="M47.46,200.57c1,2.76,2,5.54,3,8.29a95.1,95.1,0,0,0,7.17,14.48,4.81,4.81,0,0,1,1,2.32c-.47.05-.58-.34-.75-.62a93.73,93.73,0,0,1-11.44-24.11Z"/><path class="cls-2" d="M63.57,232.55v.3c-1.52-.28-1.89-.76-1.44-1.82l.8.34h0A1.16,1.16,0,0,0,63.57,232.55Z"/><path class="cls-8" d="M47.24,141.74c.22,1.18.21,2.27-.94,3A11.9,11.9,0,0,1,47.24,141.74Z"/><path class="cls-11" d="M62.93,231.37l-.8-.34c-.19-.77-1.21-1.13-1.05-2.07A4.41,4.41,0,0,1,62.93,231.37Z"/><path class="cls-5" d="M43.84,155c.59.09.47-.73,1-.79.1,1.42,0,1.55-1.07,1.33C43.77,155.38,43.8,155.2,43.84,155Z"/><path class="cls-11" d="M59.26,226.54a1.2,1.2,0,0,1,.91,1.24A1,1,0,0,1,59.26,226.54Z"/><path class="cls-11" d="M60.17,227.75c.55.23,1,.56.91,1.24A1,1,0,0,1,60.17,227.75Z"/><path class="cls-9" d="M219,107.33a3,3,0,0,1-1.22-1.22A1.3,1.3,0,0,1,219,107.33Z"/><path class="cls-11" d="M58.65,225.64a.77.77,0,0,1,.61.93C58.66,226.51,58.56,226.14,58.65,225.64Z"/><path class="cls-5" d="M74.2,100.4a.71.71,0,0,1-.73.8C73.5,100.75,73.81,100.54,74.2,100.4Z"/><path class="cls-5" d="M74.82,99.81a.57.57,0,0,1-.63.6C74.15,100,74.38,99.78,74.82,99.81Z"/><path class="cls-8" d="M45.14,148.69c.27.35.29.66-.17.87C45,149.27,45.08,149,45.14,148.69Z"/><path class="cls-8" d="M44.84,149.9a.54.54,0,0,1-.14.9C44.75,150.5,44.79,150.2,44.84,149.9Z"/><path class="cls-8" d="M44.53,151.4c.24.24.18.44-.1.6Z"/><path class="cls-5" d="M73.47,101.19c0,.38-.14.51-.5.42A.41.41,0,0,1,73.47,101.19Z"/><path class="cls-5" d="M75.13,99.53a.29.29,0,0,1-.32.29Z"/><path class="cls-5" d="M75.5,99.22l-.38.31Z"/><path class="cls-9" d="M219.6,107.93l-.3-.3Q219.61,107.62,219.6,107.93Z"/><path class="cls-9" d="M219.3,107.63l-.31-.3C219.21,107.32,219.31,107.42,219.3,107.63Z"/><path class="cls-7" d="M95.48,260.56c.15-.18.2-.05.26.08Z"/><path class="cls-9" d="M91.48,241.61c12,8.17,25.4,12.71,39.79,14.44,1.71.11,3.41.27,5.12.33a85.12,85.12,0,0,0,18.8-1.23,94.72,94.72,0,0,0,12.45-3,95.12,95.12,0,0,0,20.08-9.37c1.09,1.68,2.61,1.89,4.31,1.13a20.54,20.54,0,0,0,5-3c1.71-1.45,3.46-2.86,2.08-5.49-.15-.29.07-.76.12-1.15a2.38,2.38,0,0,1,.92-.89,1.29,1.29,0,0,0,1.53-1.51,10.09,10.09,0,0,1,3-2.76c1,1,.85,1.82-.36,2.52a10.68,10.68,0,0,0-1.36,1c-.65.52-.25,1.12,0,1.64s.83.2,1,0c1.8-1.46,4.19-2,5.86-3.61.62-.6,1.62-1.28,1.42-2.14-.29-1.3.36-1.71,1.27-2.18a9.87,9.87,0,0,0,1.88-1.24,125.77,125.77,0,0,0,11.75-11.68c1.39-1.59,2.78-3.31,3.06-5.44a16.77,16.77,0,0,1,2.43-6.07c.69-1.24,1.85-2.13,2.3-3.57A93.91,93.91,0,0,0,238,175.46a84,84,0,0,0-.18-12.78,110.63,110.63,0,0,0-2.47-15.34,99,99,0,0,0-7.32-20.16A115.36,115.36,0,0,0,220.86,115a17.47,17.47,0,0,0-3.38-4.37,56.16,56.16,0,0,0-8.12-9.43c-.5-.47-1.13-.9-1-1.74a63.65,63.65,0,0,1,8.5,8.32,92.39,92.39,0,0,1,13.85,21.27,96,96,0,0,1,8.36,27.18,92.61,92.61,0,0,1,1.1,19.31c-.54,9.82-2.16,19.48-6,28.65-1.17,0-2.24-.28-2.88,1.33a92.05,92.05,0,0,1-8.42,16.59,90.47,90.47,0,0,1-9.78,12.74,92.06,92.06,0,0,1-16,13.93A105.43,105.43,0,0,1,180,258a86,86,0,0,1-16,5.19,97.56,97.56,0,0,1-27.84,2.29,133.12,133.12,0,0,1-14.78-1.81,94,94,0,0,1-23.46-7.59,96.76,96.76,0,0,1-17-10.49A54.49,54.49,0,0,1,72.35,238a1.71,1.71,0,0,0,1.62-.59c.85-1.22,1.09-.34,1.43.4.71,1.54.87,3.58,3.26,3.65.09,0,.17.11.24.18,1.82,1.73,4.11,2.64,6.34,3.65s3.33.6,4.78-1.3C90.6,243.23,90.6,242.15,91.48,241.61Z"/><path class="cls-8" d="M208.36,99.48c-.13.84.5,1.27,1,1.74a56.16,56.16,0,0,1,8.12,9.43c-.47.25-.85.64-1.47.63a1.21,1.21,0,0,0-1.28,1.19l-1.74-.88c-.5-.24-1-.55-1.55-.13s-.29,1.06-.18,1.66c.19,1.12,1.22,1.84,1.36,3a8.1,8.1,0,0,1-1.9-.45,1.44,1.44,0,0,0-1.46.54.71.71,0,0,0,.11,1.06,42.56,42.56,0,0,1,3.2,4.34,68.78,68.78,0,0,1,6.69,11.2,86.56,86.56,0,0,1,6.64,18.44,91.2,91.2,0,0,1,2.2,18.09,67.46,67.46,0,0,1-.62,11.36c-.54,0-.59-.43-.6-.86,0-1.32-.55-1-1.19-.35A82.36,82.36,0,0,0,220,138.89c-2.82-6.87-6.82-13.07-11-19.15,0-.6.28-1.37-.17-1.75-1.7-1.44-2.37-3.62-3.87-5.16a84.93,84.93,0,0,0-6.48-6.53,103,103,0,0,0-11.15-8.22,88.67,88.67,0,0,0-12.86-6.7A84.92,84.92,0,0,0,151,85.28c.2-1.4,1.48-1.37,2.31-1.31a19.92,19.92,0,0,1,5.68,1.3c2,.81,4.3.49,6.42.18,1.28-.19,1.37-1.64,1.35-2.72s.36-1.28,1.39-1A132.92,132.92,0,0,1,184,87.55c1.32.59,2.61,1.28,3.87,2a1.79,1.79,0,0,0,1.58.18c.36-.14.83-.25.9-.71s-.41-.63-.74-.81c-2-1.09-3.94-2.24-6-3.24-1.57-.78-3.1-1.5-3.19-3.55a79,79,0,0,1,11.95,6.09,93.51,93.51,0,0,1,15.37,11.39l.32.3Z"/><path class="cls-7" d="M72.35,238a54.49,54.49,0,0,0,8.52,7.61,96.76,96.76,0,0,0,17,10.49,94,94,0,0,0,23.46,7.59,133.12,133.12,0,0,0,14.78,1.81A97.56,97.56,0,0,0,164,263.21,86,86,0,0,0,180,258a105.43,105.43,0,0,0,17.09-9.22,92.06,92.06,0,0,0,16-13.93,90.47,90.47,0,0,0,9.78-12.74,92.05,92.05,0,0,0,8.42-16.59c.64-1.61,1.71-1.35,2.88-1.33a38.66,38.66,0,0,1-2.87,7.1,97.16,97.16,0,0,1-15,23.18,97.81,97.81,0,0,1-49.86,30.78,100,100,0,0,1-15.59,2.66,104.37,104.37,0,0,1-12.37.52,101.31,101.31,0,0,1-34.32-6.79,98,98,0,0,1-23.37-12.84,104.19,104.19,0,0,1-13.07-11.39c-.93-1-1.77-2-2.66-3.07.46-.51.06-.55-.33-.59v0c.14-.45-.25-1.12.3-1.35s.88.31,1.28.6a3.82,3.82,0,0,0,1.79,1Z"/><path class="cls-9" d="M140.3,70.82c.11-.87.86-.92,1.47-1.07,4.12-1.06,8.32-.81,12.51-.56a36.62,36.62,0,0,1,6.39,1.08c-.48.38-1,.72-.88,1.47-4.81-1.46-9.65-2.21-14.66-.51l1,.45c-1.94.25-3.85-.37-5.78-.25Z"/><path class="cls-7" d="M159.79,71.74c-.14-.75.4-1.09.88-1.47a31.49,31.49,0,0,1,9.82,3.49,1.54,1.54,0,0,1,.8,1.87,8.73,8.73,0,0,1-3.36-.6c-2.12-.51-4.22-1.13-6.32-1.7C161.33,72.43,160.46,72.19,159.79,71.74Z"/><path class="cls-5" d="M159.79,71.74c.67.45,1.54.69,1.82,1.59-5.13-.78-10.28-1.36-15.47-1.65l-1-.45C150.14,69.53,155,70.28,159.79,71.74Z"/><path class="cls-8" d="M178.32,80.55c0,.09,0,.24-.1.26-1.38.61-4.75-.77-5.35-2.18A27.15,27.15,0,0,1,178.32,80.55Z"/><path class="cls-9" d="M64.75,233.77c.39,0,.79.08.33.59A.66.66,0,0,1,64.75,233.77Z"/><path class="cls-1" d="M140.3,70.82l.06.61h-.26A.56.56,0,0,1,140.3,70.82Z"/><path class="cls-9" d="M208.07,99.19l-.32-.3Z"/><path class="cls-5" d="M144.91,47.6c-4.27.42-8.56.69-12.66,2.12A12.63,12.63,0,0,0,129.5,51c-.31.2-.52.74-1,.48s-.41-.8-.38-1.22c.11-1.7.24-3.41.42-5.1.37-3.34.71-6.69,1.19-10a7.29,7.29,0,0,1,3.07-5,6.81,6.81,0,0,0,3.71-.78,23.07,23.07,0,0,1,5.12-1.74c.58-.11.85,0,1,.53s.49.84.89,1.12a2.64,2.64,0,0,1,1.18,2.13,75.81,75.81,0,0,1-.33,11.07c-.06,1-.07,2,1.1,2.09s1.58-.67,1.62-1.72c.12-3.57,1.1-7,1.73-10.5.24-1.34.79-2.64,2.46-2.87.25.33.61.31,1,.32a47.6,47.6,0,0,1,7.55.31,3.25,3.25,0,0,0,2.94-1.23c.58-.58.39-1-.37-1.14a37.72,37.72,0,0,0-9.29-.92l-.85-.26c.22-.37.58-.35.93-.35a88,88,0,0,1,13.46,1.07c1.48.21,2.86,1.08,4.43.71a35.58,35.58,0,0,1,7.26,2.49c-.48.66,0,1.21.18,1.82.3,1,1.08,2.05-.16,3l-1.26-.5c-2.07-.78-4-1.87-6.32-2-.23-.32-.58-.27-.91-.29-1.44-1.23-3.29-1.09-5-1.46s-3.46-.71-5.14.18c-.36.19-.8.35-.76.83s.57.66,1,.74c.79.14,1.58.25,2.38.33,1.51.16,2.19.91,2,2.37-.12,1-.38,2-.49,2.94-.3,2.56-1,5.07-1,7.68a2.47,2.47,0,0,1-.34,1.5l-2.54.66-3.51-.36c-2.5-.89-2.82-1.44-2.41-4.31.27-1.82.59-3.63.84-5.45.07-.52.31-1.2-.21-1.55s-.84.34-1.26.56a4.18,4.18,0,0,1-1.09.47A2.36,2.36,0,0,0,150.4,40c-.13,1.24-.19,2.49-.34,3.72-.35,2.94-1,3.5-4,3.61C145.63,47.31,145.21,47.22,144.91,47.6Z"/><path class="cls-9" d="M170.72,32.77c2.28.1,4.25,1.19,6.32,2l1.26.5c.43.25.84.53,1.28.76,2.6,1.34,5.32,2.46,6.83,5.25.61,1.14,1.25,2.11.83,3.5a22.08,22.08,0,0,0-.44,3,55.53,55.53,0,0,1-1.8,8.94A49.89,49.89,0,0,0,172.74,51a2.28,2.28,0,0,0,1.93-2.32c.13-1.14.39-2.26.51-3.4.25-2.37.95-4.69,1-7.09a1.69,1.69,0,0,0-1.34-1.87c-1.81-.6-3.58-1.32-5.37-2C169.48,33.49,170.33,33.31,170.72,32.77Zm7.58,16.46c0,1.2.55,1.3,1.35.79,2.61-1.68,4.59-3.69,5-7a2.82,2.82,0,0,0-1.48-3.23c-2.34-1.41-3-1.1-3.37,1.53,0,.2-.11.39-.14.58C179.2,44.35,178.74,46.85,178.3,49.23Z"/><path class="cls-5" d="M169.49,34.34c1.79.67,3.56,1.39,5.37,2a1.69,1.69,0,0,1,1.34,1.87c-.07,2.4-.77,4.72-1,7.09-.12,1.14-.38,2.26-.51,3.4A2.28,2.28,0,0,1,172.74,51l-5.34-1.35a4.63,4.63,0,0,1-.68-4.18c.48-2.22.59-4.52,1-6.75C168.05,37.19,167.76,35.35,169.49,34.34Z"/><path class="cls-8" d="M185,56.64a55.53,55.53,0,0,0,1.8-8.94,22.08,22.08,0,0,1,.44-3c.42-1.39-.22-2.36-.83-3.5-1.51-2.79-4.23-3.91-6.83-5.25-.44-.23-.85-.51-1.28-.76,1.24-.93.46-2,.16-3-.19-.61-.66-1.16-.18-1.82a30.15,30.15,0,0,1,9.34,6,9.55,9.55,0,0,1,2.78,8.79c-.64,3.84-1.21,7.7-1.82,11.55a2.15,2.15,0,0,1-.09.44c-.2.61-.21,1.48-.84,1.68s-.86-.7-1.31-1S185.44,57,185,56.64Z"/><path class="cls-11" d="M169.15,55.19c-3.14-.74-6.23-1.7-9.43-2.19A58.21,58.21,0,0,0,141,52.93c0-.57-.3-.88-.75-1.2a3,3,0,0,1-1.48-1.82,48.2,48.2,0,0,1,12.91-.73,84.86,84.86,0,0,1,17.42,2.6c.44.11.87.26,1.3.39C170.18,53.26,169,53.94,169.15,55.19Z"/><path class="cls-8" d="M144.91,47.6c.3-.38.72-.29,1.12-.3,3-.11,3.68-.67,4-3.61.15-1.23.21-2.48.34-3.72a2.36,2.36,0,0,1,1.92-2.36,4.18,4.18,0,0,0,1.09-.47c.42-.22.7-.93,1.26-.56s.28,1,.21,1.55c-.25,1.82-.57,3.63-.84,5.45-.41,2.87-.09,3.42,2.41,4.31C152.61,47.62,148.76,47.55,144.91,47.6Z"/><path class="cls-12" d="M171,28c-1.57.37-3-.5-4.43-.71a88,88,0,0,0-13.46-1.07c-.35,0-.71,0-.93.35-3.31-.13-6.58-.07-9.59,1.6-.13-.56-.4-.64-1-.53a23.07,23.07,0,0,0-5.12,1.74,6.81,6.81,0,0,1-3.71.78l.47-.37a.38.38,0,0,0,.38-.32c3.64-2.63,7.88-3.6,12.21-4A66.5,66.5,0,0,1,171,28Z"/><path class="cls-9" d="M169.15,55.19c-.19-1.25,1-1.93,1.25-3a39.41,39.41,0,0,1,8.5,3,8.39,8.39,0,0,1-1,2.19c-.17.38-.76.71-.39,1.17s.92.09,1.38-.06c.11,1-.3,1.59-1.4,1.54-2-2.48-5-3.34-7.73-4.57a.58.58,0,0,0-.64-.28Z"/><path class="cls-11" d="M177.53,60c1.1.05,1.51-.51,1.4-1.54,1.22-.24,1.36-1.36,1.83-2.22a10,10,0,0,1,5,3.42c.89,1.06-.1,1.57-.84,1.91a16,16,0,0,1-6.3,1.35A12.92,12.92,0,0,0,177.53,60Z"/><path class="cls-9" d="M138,54.56a10.54,10.54,0,0,0-1.84,2.74,22,22,0,0,1-5.3-2.52c-.64-.43-1.23-.93-1.1-1.82s.82-.93,1.41-1.18a18.31,18.31,0,0,1,4.36-1.2,12.89,12.89,0,0,0,.1,1.64C135.83,53.53,136.29,54.68,138,54.56Z"/><path class="cls-11" d="M169.49,34.34c-1.73,1-1.44,2.85-1.75,4.39-.43,2.23-.54,4.53-1,6.75a4.63,4.63,0,0,0,.68,4.18l-5.35-1.06c.52-.17,1.1-.33.45-1a2.47,2.47,0,0,0,.34-1.5c2.64-1,3.19-3.43,3.9-5.67.87-2.71.35-5.94,3.07-7.94.33,0,.68,0,.91.29C170.33,33.31,169.48,33.49,169.49,34.34Z"/><path class="cls-7" d="M138,54.56c-1.68.12-2.14-1-2.37-2.34a12.89,12.89,0,0,1-.1-1.64,9.64,9.64,0,0,1,3.27-.67,3,3,0,0,0,1.48,1.82c.45.32.78.63.75,1.2l-2.65,1.33-.41.3Z"/><path class="cls-7" d="M180.76,56.25c-.47.86-.61,2-1.83,2.22-.46.15-1,.56-1.38.06s.22-.79.39-1.17a8.39,8.39,0,0,0,1-2.19A5,5,0,0,1,180.76,56.25Z"/><path class="cls-8" d="M162.5,47.59c.65.68.07.84-.45,1a4.68,4.68,0,0,1-2.09-.35Z"/><path class="cls-5" d="M133.65,29.42a.38.38,0,0,1-.38.32Z"/><path class="cls-13" d="M144.35,67.28c-1.91.59-4,.54-5.71,1.81-.47.35-.76,0-1-.31a2.82,2.82,0,0,1-.75-2.22c.23-2.25.53-4.49.77-6.73.43-4.07,2.6-4.82,5.43-5.17a59.84,59.84,0,0,1,23.24,1.75c2.94.8,5,4.81,4.71,7.12a11.85,11.85,0,0,1-1.7,5.39c-.66,1-1.27,1.5-2.58,1A59,59,0,0,0,151.32,67c.16-.85-.5-1.69-.15-2.5a13.44,13.44,0,0,0,.94-6.89.46.46,0,0,1,.21-.18c.72.15,1.54,0,1.51-.76s-.92-.25-1.42-.36a2.43,2.43,0,0,0-.6,0,12.92,12.92,0,0,0-6.84.36c-.66.22-1.79.29-1.65,1.2s1.2.26,1.81.45c.37.09.73.23.62.68C145,61.76,146.38,64.8,144.35,67.28Z"/><path class="cls-4" d="M152.11,57.65a13.44,13.44,0,0,1-.94,6.89c-.35.81.31,1.65.15,2.5l-7,.24c2-2.48.69-5.52,1.4-8.22.11-.45-.25-.59-.62-.68.25-.36.62-.26,1-.27A41.75,41.75,0,0,0,152.11,57.65Z"/><path class="cls-13" d="M174.06,59.66a3.91,3.91,0,0,1,2.47,3.78,56,56,0,0,1-.91,8.07,2.53,2.53,0,0,1-1.12,1.72c-.39.27-.79.73-1.34.33s-.14-.85,0-1.24c.9-3,1-6.09,1.49-9.15.19-1.25-.84-2.27-.56-3.52Z"/><path class="cls-11" d="M169.16,55.16a.58.58,0,0,1,.64.28A.64.64,0,0,1,169.16,55.16Z"/><path class="cls-13" d="M174.07,59.65l-.17-.09s.07,0,.09,0a.61.61,0,0,1,.07.1Z"/><path class="cls-9" d="M137.94,54.56l.41-.3Z"/><path class="cls-13" d="M94,71.11A56.18,56.18,0,0,1,97.5,76.6c-10,1.31-17.87,6.21-24.24,13.67a15.41,15.41,0,0,0-2,3.37c-.22.46-.47.87-.94.24a25.8,25.8,0,0,1-3.45-5.26,6.28,6.28,0,0,1,1.26-3.18c.8-1.14,1.62-2.27,2.43-3.4a1,1,0,0,1,.74-.43,36.44,36.44,0,0,0,3.28,4.25c.54.63,1.06.84,1.76.15a38.29,38.29,0,0,1,10-6.91,1.19,1.19,0,0,0,.57-1.94A33.16,33.16,0,0,0,85,74.09c-.6-.81-.4-1.15.45-1.51A18.93,18.93,0,0,1,94,71.11Z"/><path class="cls-4" d="M94,71.11a18.93,18.93,0,0,0-8.54,1.47c-.85.36-1,.7-.45,1.51a33.16,33.16,0,0,1,1.88,3.07,1.19,1.19,0,0,1-.57,1.94,38.29,38.29,0,0,0-10,6.91c-.7.69-1.22.48-1.76-.15a36.44,36.44,0,0,1-3.28-4.25l5.62-4.73.07.05,0-.08.5-.47c1.66-.54,3-1.71,4.54-2.44a3.72,3.72,0,0,0,1.33-1.37c.32-.43,0-.79-.35-.68-1.17.38-2.63.27-3.31,1.64-1.53.34-2.7,1.65-4.38,1.58a33,33,0,0,1,13.1-6C90.59,68.71,92.62,69.07,94,71.11Z"/><path class="cls-10" d="M75.29,75.11c1.68.07,2.85-1.24,4.38-1.58.91.43,0,.63-.15.75a6.17,6.17,0,0,0-2.06,2.1l-.5.47,0,0-5.62,4.73a1,1,0,0,0-.74.43c-.65-.48-.59-.9-.14-1.59s1.47-1.38,1-2.52Z"/><path class="cls-4" d="M71.44,77.93c.46,1.14-.53,1.78-1,2.52s-.51,1.11.14,1.59c-.81,1.13-1.63,2.26-2.43,3.4a6.28,6.28,0,0,0-1.26,3.18,3.76,3.76,0,0,1-.55-4A14.81,14.81,0,0,1,71.44,77.93Z"/><path class="cls-12" d="M45,53l.9-2.21c1.74,5,4.93,8.31,9.93,9.85a15.61,15.61,0,0,0-9.89,9.88c-2.15-4.66-4.91-8.39-10.44-9.71l2.95-1.13c0,.7.39.88,1,.74a9.49,9.49,0,0,0,3.85-1.67A5.26,5.26,0,0,0,45,53Z"/><path class="cls-10" d="M45,53a5.26,5.26,0,0,1-1.72,5.75,9.49,9.49,0,0,1-3.85,1.67c-.59.14-1,0-1-.74A11.25,11.25,0,0,0,45,53Z"/><path class="cls-12" d="M260.29,90.21a2.45,2.45,0,0,1,.78-1.36c1.3,3.9,4,6.34,8.25,7.73-4.21,1.35-6.58,4.07-8.39,7.89a12.56,12.56,0,0,0-7.88-7.72,3.2,3.2,0,0,1,2.28-.91C258.86,95.87,261.22,93.2,260.29,90.21Z"/><path class="cls-10" d="M260.29,90.21c.93,3-1.43,5.66-5,5.63A12.44,12.44,0,0,0,260.29,90.21Z"/><path class="cls-12" d="M77.54,39.22l.41-1a11.39,11.39,0,0,0,6.91,6.46,11.14,11.14,0,0,0-6.72,6.55c-1.56-2.93-3.32-5.36-6.68-6.2a1.51,1.51,0,0,1,1.23-.79c1.46.87,2.47-.1,3.44-.9C77.42,42.29,78.3,41,77.54,39.22Z"/><path class="cls-10" d="M77.54,39.22c.76,1.79-.12,3.07-1.41,4.12-1,.8-2,1.77-3.44.9C75.05,43.28,76.43,41.38,77.54,39.22Z"/><path class="cls-12" d="M272.65,128.72c1,.88,1.68,2.1,3,2.64.6.24.22.62-.18.84a6.5,6.5,0,0,0-2.63,2.62c-.31.57-.64.67-1,.08a6.69,6.69,0,0,0-3.3-3c.24-.6.69-.65,1.11-.74.49.58,1,.27,1.39-.06A4.06,4.06,0,0,0,272.65,128.72Z"/><path class="cls-10" d="M272.65,128.72a4.06,4.06,0,0,1-1.55,2.37c-.44.33-.9.64-1.39.06a6.33,6.33,0,0,0,2.43-2.93l.32-.05Z"/><path class="cls-12" d="M272.46,128.17l-.32.05C272.2,127.91,272.3,127.9,272.46,128.17Z"/><path class="cls-9" d="M151,85.28a84.92,84.92,0,0,1,23.45,6.1,88.67,88.67,0,0,1,12.86,6.7,103,103,0,0,1,11.15,8.22,84.93,84.93,0,0,1,6.48,6.53c1.5,1.54,2.17,3.72,3.87,5.16.45.38.14,1.15.17,1.75a7,7,0,0,1-1.92-1.91A86.16,86.16,0,0,0,179.6,96.11a83,83,0,0,0-29.68-8.43,90.52,90.52,0,0,0-23.08.66,84.19,84.19,0,0,0-24,7.65,85.25,85.25,0,0,0-26.22,19.92A86.83,86.83,0,0,0,64,134.79c-1.79,3.56-3.06,7.31-4.59,11-.36-.82-1.36-.73-1.9-1.31.45-2.11,1.56-4,2.11-6a96.28,96.28,0,0,1,7-13.66,83.91,83.91,0,0,1,15.49-18,85.72,85.72,0,0,1,45.8-21.2,107.66,107.66,0,0,1,17.67-.81C147.38,84.78,149.18,85.09,151,85.28Z"/><path class="cls-10" d="M64.2,116.1A26.93,26.93,0,0,1,70,109a7.94,7.94,0,0,0,1.77-2h0a2.2,2.2,0,0,0,.58-.06c.64-.25,1.34-.88,1.91-.14s0,1.5-.43,2.06C72.23,111,70.56,113,68.92,115l-1.77,2.23Z"/><path class="cls-12" d="M64.2,116.1l3,1.14a35.25,35.25,0,0,1-3.46,4.51,1.34,1.34,0,0,1-1.6.57c-.65-.29-.42-1-.32-1.48A10.69,10.69,0,0,1,64.2,116.1Z"/><path class="cls-1" d="M59.38,145.76c1.53-3.66,2.8-7.41,4.59-11a86.83,86.83,0,0,1,12.65-18.88A85.25,85.25,0,0,1,102.84,96a84.19,84.19,0,0,1,24-7.65,90.52,90.52,0,0,1,23.08-.66,83,83,0,0,1,29.68,8.43A86.16,86.16,0,0,1,207,117.83a7,7,0,0,0,1.92,1.91c4.2,6.08,8.2,12.28,11,19.15a82.36,82.36,0,0,1,5.71,40.56,100.91,100.91,0,0,1-2.91,13.77,82.65,82.65,0,0,1-9.86,21.61,84.49,84.49,0,0,1-41,33.48,91.13,91.13,0,0,1-15.46,4.47,1.81,1.81,0,0,0-1.3.26l-.83.08-.86.12-1,.16a2.38,2.38,0,0,0-1.57.25l-.55,0a3.28,3.28,0,0,0-1.9.25l-1.14.06a10.14,10.14,0,0,0-3.43.23h-6.49a8,8,0,0,0-3.12-.22l-1.45-.08a4.24,4.24,0,0,0-2.2-.24l-.83-.07a.86.86,0,0,0-1.16,0,.14.14,0,0,0-.18-.05c-2.95-.65-5.91-1.23-8.83-1.95a83.3,83.3,0,0,1-32.47-16,84.76,84.76,0,0,1-21-24.53,81.69,81.69,0,0,1-9.67-27.95c-1-6.44-.83-12.91-.87-19.38A11.05,11.05,0,0,1,56,162,123.53,123.53,0,0,1,59.38,145.76ZM58,166a4.22,4.22,0,0,0-.18,2.25,45.81,45.81,0,0,0,0,5.74,2.79,2.79,0,0,0,.17,1.71,37.69,37.69,0,0,0,.65,7,79.88,79.88,0,0,0,27.75,49.6,81.4,81.4,0,0,0,45.09,19.31,83.35,83.35,0,0,0,44.73-7.37,82.47,82.47,0,0,0,47.8-69.92A75.24,75.24,0,0,0,220,145c-.16-.53-.29-1.06-.47-1.58a78.7,78.7,0,0,0-10.2-19.29,83,83,0,0,0-59.18-34.35,83.45,83.45,0,0,0-37.33,4.34c-22,8-38.08,22.53-47.95,43.71a74,74,0,0,0-6.72,25.66Z"/><path class="cls-11" d="M72.35,238l-4.23-3.94c-.88-1.84-2.51-3.09-3.7-4.68a90,90,0,0,1-10.73-17.51,87.92,87.92,0,0,1-5.33-14.29c-.31-1.26-.91-2.46-1.13-3.73s-.76-1.09-1.57-.82c-1-1.75-.93-3.75-1.2-5.63-.51-3.47.22-6.62,3.39-8.78a4.49,4.49,0,0,1,5.2-.21c1,.6.94,1.51,1.06,2.34a83.18,83.18,0,0,0,4.08,17.45,109.43,109.43,0,0,0,4.2,10.27,75.47,75.47,0,0,0,6.25,10.77,93,93,0,0,0,6.69,8.3,86.69,86.69,0,0,0,14.57,13c.53.36,1.06.75,1.58,1.12-.88.54-.88,1.62-1.46,2.38-1.45,1.9-2.63,2.28-4.78,1.3s-4.52-1.92-6.34-3.65c-.07-.07-.15-.17-.24-.18-2.39-.07-2.55-2.11-3.26-3.65-.34-.74-.58-1.62-1.43-.4A1.71,1.71,0,0,1,72.35,238Zm-3.87-14.3a3.28,3.28,0,0,0-.65-1.84c-1.63-2.64-3.23-5.3-4.85-7.94-1-1.71-2.12-3.4-3.19-5.1A2,2,0,0,0,57,208c-.87.42-.85,1.32-.53,2.24.5,1.43,1.08,2.8,1.68,4.19,1.78,4.14,4.69,7.56,7.24,11.2a2,2,0,0,0,2,.85c.84-.13.62-.9.74-1.46S68.37,224.13,68.48,223.7Z"/><path class="cls-5" d="M137.42,254.25h6.49c1.15,0,2.32.31,3.43-.23l1.14-.06c.64,0,1.32.26,1.9-.25l.55,0c.53,0,1.11.22,1.57-.25l1-.16a.58.58,0,0,0,.86-.12l.83-.08c.46,0,.94.18,1.3-.26a91.13,91.13,0,0,0,15.46-4.47,84.49,84.49,0,0,0,41-33.48,82.65,82.65,0,0,0,9.86-21.61,100.91,100.91,0,0,0,2.91-13.77c.64-.68,1.16-1,1.19.35,0,.43.06.81.6.86-.26,1.73-.44,3.46-.79,5.17a89.46,89.46,0,0,1-6.32,19.66,83.9,83.9,0,0,1-13.48,20.87,9.87,9.87,0,0,0-2.19,2.82,10.09,10.09,0,0,0-3,2.76,5,5,0,0,0-1.53,1.51,2.91,2.91,0,0,1-1.59,1.19,99.17,99.17,0,0,1-10.84,8.17,95.12,95.12,0,0,1-20.08,9.37,94.72,94.72,0,0,1-12.45,3,85.12,85.12,0,0,1-18.8,1.23c-1.71-.06-3.41-.22-5.12-.33.09-.9-.33-1.32-1.21-1.49-.63-.11-1.44-.07-1.58-1a.14.14,0,0,1,.18.05l1.16,0,.83.07c.69.52,1.46.2,2.2.24l1.45.08C135.3,254.55,136.37,254.2,137.42,254.25Z"/><path class="cls-11" d="M59.38,145.76A123.53,123.53,0,0,0,56,162c0-.65,0-1.22-1-1.33-1.31-.14-.89-1.27-.79-2a46.62,46.62,0,0,1,.86-5,67.73,67.73,0,0,1,2.4-9.21C58,145,59,144.94,59.38,145.76Z"/><path class="cls-11" d="M63.57,232.55a1.16,1.16,0,0,1-.64-1.19C63.27,231.69,64.11,231.74,63.57,232.55Z"/><path class="cls-11" d="M204.7,229.18a9.87,9.87,0,0,1,2.19-2.82,83.9,83.9,0,0,0,13.48-20.87,89.46,89.46,0,0,0,6.32-19.66c.35-1.71.53-3.44.79-5.17a67.46,67.46,0,0,0,.62-11.36,91.2,91.2,0,0,0-2.2-18.09,86.56,86.56,0,0,0-6.64-18.44,68.78,68.78,0,0,0-6.69-11.2,42.56,42.56,0,0,0-3.2-4.34.71.71,0,0,1-.11-1.06,1.44,1.44,0,0,1,1.46-.54,8.1,8.1,0,0,0,1.9.45c2.74,3.82,5.25,7.78,7.63,11.83a13.47,13.47,0,0,0,2.56,3.32,1.62,1.62,0,0,0,1.64.48c.7-.22.59-.84.62-1.38a10.92,10.92,0,0,0-1.45-5.3,50.66,50.66,0,0,0-8.89-12.56,1.21,1.21,0,0,1,1.28-1.19c.62,0,1-.38,1.47-.63a17.47,17.47,0,0,1,3.38,4.37,115.36,115.36,0,0,1,7.21,12.16,99,99,0,0,1,7.32,20.16,110.63,110.63,0,0,1,2.47,15.34,84,84,0,0,1,.18,12.78A93.91,93.91,0,0,1,234,198.4c-.45,1.44-1.61,2.33-2.3,3.57a16.77,16.77,0,0,0-2.43,6.07c-.28,2.13-1.67,3.85-3.06,5.44a125.77,125.77,0,0,1-11.75,11.68,9.87,9.87,0,0,1-1.88,1.24c-.91.47-1.56.88-1.27,2.18.2.86-.8,1.54-1.42,2.14-1.67,1.62-4.06,2.15-5.86,3.61-.2.16-.77.56-1,0s-.62-1.12,0-1.64a10.68,10.68,0,0,1,1.36-1C205.55,231,205.67,230.18,204.7,229.18Z"/><path class="cls-11" d="M187.72,242.81a99.17,99.17,0,0,0,10.84-8.17,2.4,2.4,0,0,1,.67-.3c0,.39-.27.86-.12,1.15,1.38,2.63-.37,4-2.08,5.49a20.54,20.54,0,0,1-5,3C190.33,244.7,188.81,244.49,187.72,242.81Z"/><path class="cls-11" d="M200.15,233.45a5,5,0,0,1,1.53-1.51A1.29,1.29,0,0,1,200.15,233.45Z"/><path class="cls-5" d="M214.73,112.47A50.66,50.66,0,0,1,223.62,125a10.92,10.92,0,0,1,1.45,5.3c0,.54.08,1.16-.62,1.38a1.62,1.62,0,0,1-1.64-.48,13.47,13.47,0,0,1-2.56-3.32c-2.38-4-4.89-8-7.63-11.83-.14-1.12-1.17-1.84-1.36-3-.11-.6-.36-1.2.18-1.66s1.05-.11,1.55.13Z"/><path class="cls-10" d="M142.61,28.12c3-1.67,6.28-1.73,9.59-1.6l.85.26c.59,1.16.25,1.88-1,2.21a3.53,3.53,0,0,0-.76.45c-1.67.23-2.22,1.53-2.46,2.87-.63,3.49-1.61,6.93-1.73,10.5,0,1-.51,1.86-1.62,1.72s-1.16-1.1-1.1-2.09a75.81,75.81,0,0,0,.33-11.07,2.64,2.64,0,0,0-1.18-2.13C143.1,29,142.61,28.72,142.61,28.12Z"/><path class="cls-8" d="M169.81,32.48c-2.72,2-2.2,5.23-3.07,7.94-.71,2.24-1.26,4.69-3.9,5.67,0-2.61.7-5.12,1-7.68.11-1,.37-2,.49-2.94.18-1.46-.5-2.21-2-2.37-.8-.08-1.59-.19-2.38-.33-.43-.08-.95-.18-1-.74s.4-.64.76-.83c1.68-.89,3.43-.56,5.14-.18S168.37,31.25,169.81,32.48Z"/><path class="cls-12" d="M151.26,29.44A3.53,3.53,0,0,1,152,29c1.28-.33,1.62-1,1-2.21a37.72,37.72,0,0,1,9.29.92c.76.14.95.56.37,1.14a3.25,3.25,0,0,1-2.94,1.23,47.6,47.6,0,0,0-7.55-.31C151.87,29.75,151.51,29.77,151.26,29.44Z"/><path class="cls-11" d="M178.3,49.23c.44-2.38.9-4.88,1.37-7.37,0-.19.11-.38.14-.58.34-2.63,1-2.94,3.37-1.53A2.82,2.82,0,0,1,184.66,43c-.42,3.35-2.4,5.36-5,7C178.85,50.53,178.31,50.43,178.3,49.23Z"/><path class="cls-10" d="M152.11,57.65a41.75,41.75,0,0,1-6,.46c-.34,0-.71-.09-1,.27-.61-.19-1.66.45-1.81-.45s1-1,1.65-1.2a12.92,12.92,0,0,1,6.84-.36c.24.34.57.63.51,1.1A.46.46,0,0,0,152.11,57.65Z"/><path class="cls-4" d="M152.32,57.47c.06-.47-.27-.76-.51-1.1a2.43,2.43,0,0,1,.6,0c.5.11,1.39-.33,1.42.36S153,57.62,152.32,57.47Z"/><path class="cls-12" d="M77.46,76.38a6.17,6.17,0,0,1,2.06-2.1c.17-.12,1.06-.32.15-.75.68-1.37,2.14-1.26,3.31-1.64.33-.11.67.25.35.68A3.72,3.72,0,0,1,82,73.94C80.44,74.67,79.12,75.84,77.46,76.38Z"/><polygon class="cls-12" points="76.93 76.88 76.96 76.85 77 76.93 76.93 76.88"/><path class="cls-14" d="M220,145a75.24,75.24,0,0,1,4,29.37,82.47,82.47,0,0,1-47.8,69.92,83.35,83.35,0,0,1-44.73,7.37,81.4,81.4,0,0,1-45.09-19.31,79.88,79.88,0,0,1-27.75-49.6,37.69,37.69,0,0,1-.65-7c.11-.25-.08-.6.34-.79a53.08,53.08,0,0,0,1.06,9.54c.56-.06.77-.94,1.18-.6,1.75,1.48,1-.34,1.1-.83.35-1.78-.83-3.45-.55-5.18.46-2.81.16-5.61.27-8.41a52.47,52.47,0,0,1,1.16-7.79A5.41,5.41,0,0,0,64,163.34a1,1,0,0,0-.4.76c-.2,2.84-.56,5.67-.59,8.51a69.61,69.61,0,0,0,2.53,18.31,34.2,34.2,0,0,0,2.81,7.85c-1.2,2.26-.42,4.34,1.9,5.1,1.2,2.54,2.73,4.9,4.13,7.33C78.78,218.88,85,225,91.77,230.54c.49.4,1,.68,1.5-.06.13,2.53,1.42,3.61,4,3.31.44,1.21,1.66,1.54,2.59,2.11a71.78,71.78,0,0,0,18.74,8.18c4,1.1,8,2.23,12.22,2.35a3.57,3.57,0,0,0,4.52.86,88.27,88.27,0,0,0,19.82-1.17,83.12,83.12,0,0,0,12.8-3.36c1.58-.58,3.31-.91,4.63-2.08a3.53,3.53,0,0,0,4.52-2.09c3.95-1.47,7.41-3.86,10.83-6.21a76.74,76.74,0,0,0,14.76-13.7,13.6,13.6,0,0,0,2.64-4v0c.27,0,.53-.09.63-.39a4.91,4.91,0,0,0,1.24-2.32,48.64,48.64,0,0,0,5.19-8.61A71.43,71.43,0,0,0,218.69,186c.75-3.35,1.72-6.69,1.43-10.2l0,.05c.2,0,.31-.08.12-.27a4.15,4.15,0,0,0,.34-3c.6-4.45,0-8.89-.17-13.32,0-1.06-.21-2.18-.35-3.27-.47-3.66-1.28-7.26-2-10.88Z"/><path class="cls-6" d="M62.59,161.65a52.47,52.47,0,0,0-1.16,7.79c-.11,2.8.19,5.6-.27,8.41-.28,1.73.9,3.4.55,5.18-.09.49.65,2.31-1.1.83-.41-.34-.62.54-1.18.6a53.08,53.08,0,0,1-1.06-9.54c-.42.19-.23.54-.34.79a2.79,2.79,0,0,1-.17-1.71c.18-2.27.43-4.54.51-6.82a9.06,9.06,0,0,0-.2-3.7,74,74,0,0,1,6.72-25.66c9.87-21.18,26-35.73,48-43.71a83.45,83.45,0,0,1,37.33-4.34,83,83,0,0,1,59.18,34.35,78.7,78.7,0,0,1,10.2,19.29c.18.52.31,1.05.47,1.58l-1.93.06a34.15,34.15,0,0,0-3.92-8.66,3.17,3.17,0,0,0-1.7-1.58c-.54-1.49-1.37-2.62-3.18-2.51.09-1.23-.94-1.84-1.54-2.66a67,67,0,0,0-13.12-13.58,2.61,2.61,0,0,0-2-1.3c-1.59-2.32-4.11-3.39-6.42-4.75,1.58-2.41,1.15-4.23-1.12-4.75a10.11,10.11,0,0,0-1.35-.12c-.2-.22-.37-.52-.63-.64-2.48-1.19-4.95-2.4-7.47-3.5a72.76,72.76,0,0,0-11.82-4,65.74,65.74,0,0,0-13.13-2.34l-.33-.31-.41-.27a4.06,4.06,0,0,0-3.4.32c-5.39,0-10.8-.44-16.15.58-3.25.62-6.48,1.27-9.71,2-2.93.67-5.57,2.42-8.71,2.23a3.56,3.56,0,0,0-3.86,1.77,3.46,3.46,0,0,1-1.89,1.4A75.48,75.48,0,0,0,94,109.92a86.05,86.05,0,0,0-11.24,10.19,9.87,9.87,0,0,1-2.5,2.09c-2.42.28-3.38,1.67-2.84,4.15-1.49,2.34-3,4.68-4.46,7-.43.68-1.17,1.06-1.49,1.86-1.85,4.63-4.34,9-5.8,13.78a57.51,57.51,0,0,0-2.39,9.85A5.2,5.2,0,0,0,62.59,161.65Z"/><path class="cls-14" d="M58.17,163.48a9.06,9.06,0,0,1,.2,3.7c-.08,2.28-.33,4.55-.51,6.82a45.81,45.81,0,0,1,0-5.74c.45-.72.17-1.49.18-2.25Z"/><path class="cls-8" d="M147.34,254c-1.11.54-2.28.19-3.43.23A10.14,10.14,0,0,1,147.34,254Z"/><path class="cls-8" d="M137.42,254.25c-1-.05-2.12.3-3.12-.22A8,8,0,0,1,137.42,254.25Z"/><path class="cls-8" d="M132.85,254c-.74,0-1.51.28-2.2-.24A4.24,4.24,0,0,1,132.85,254Z"/><path class="cls-6" d="M58,166c0,.76.27,1.53-.18,2.25A4.22,4.22,0,0,1,58,166Z"/><path class="cls-8" d="M150.38,253.7c-.58.51-1.26.22-1.9.25A3.28,3.28,0,0,1,150.38,253.7Z"/><path class="cls-8" d="M152.5,253.4c-.46.47-1,.24-1.57.25A2.38,2.38,0,0,1,152.5,253.4Z"/><path class="cls-8" d="M156.45,252.78c-.36.44-.84.27-1.3.26A1.81,1.81,0,0,1,156.45,252.78Z"/><path class="cls-8" d="M154.32,253.12a.58.58,0,0,1-.86.12Z"/><path class="cls-8" d="M129.82,253.64l-1.16,0A.86.86,0,0,1,129.82,253.64Z"/><path class="cls-8" d="M68.48,223.7c-.11.43-.22.87-.32,1.3s.1,1.33-.74,1.46a2,2,0,0,1-2-.85c-2.55-3.64-5.46-7.06-7.24-11.2-.6-1.39-1.18-2.76-1.68-4.19-.32-.92-.34-1.82.53-2.24a2,2,0,0,1,2.75.84c1.07,1.7,2.14,3.39,3.19,5.1,1.62,2.64,3.22,5.3,4.85,7.94A3.28,3.28,0,0,1,68.48,223.7Z"/><path class="cls-15" d="M212.47,134.81a3.17,3.17,0,0,1,1.7,1.58,34.15,34.15,0,0,1,3.92,8.66c.71,3.62,1.52,7.22,2,10.88.14,1.09.31,2.21.35,3.27.17,4.43.77,8.87.17,13.32-.52-.68-1-1.5-1.93-1.56-3.13-.2-6.26-.44-9.38-.48a2.58,2.58,0,0,0-2.34,3,2.81,2.81,0,0,0,2.65,2.63,61.78,61.78,0,0,0,7.68.42,4,4,0,0,0,2.84-.77c.29,3.51-.68,6.85-1.43,10.2a71.43,71.43,0,0,1-6.33,17.48,48.64,48.64,0,0,1-5.19,8.61,3.28,3.28,0,0,0-1.23-2.17c-2-1.35-4-2.75-6-4.09a2.68,2.68,0,0,0-4,.61c-1,1.46-.74,2.93.83,4,1.75,1.21,3.54,2.34,5.26,3.57a3.81,3.81,0,0,0,3.27.75,13.6,13.6,0,0,1-2.64,4,76.74,76.74,0,0,1-14.76,13.7c-3.42,2.35-6.88,4.74-10.83,6.21-.68-3.3-2.62-6-4.31-8.81-.65-1.06-2.09-1.08-3.28-.42s-1.89,1.59-1.41,2.7a40.35,40.35,0,0,0,4.48,8.62c-1.32,1.17-3.05,1.5-4.63,2.08a83.12,83.12,0,0,1-12.8,3.36,88.22,88.22,0,0,1-19.81,1.17c.26-.36.7-.7.76-1.09a48.32,48.32,0,0,0,.9-9.28c-.06-1.31-1.46-2-3.12-1.94s-2.29.75-2.42,2.42a33.48,33.48,0,0,1-.53,3.73,14.53,14.53,0,0,0-.12,5.3c-4.21-.12-8.22-1.25-12.22-2.35a71.78,71.78,0,0,1-18.74-8.18c-.93-.57-2.15-.9-2.59-2.11,2.57-2.13,4.21-5,5.87-7.78.65-1.09,0-2.47-1.22-3.22s-2.39-.92-3.17.11a59.6,59.6,0,0,0-5.45,7.58c-.47.74-1,.46-1.5.06C85,225,78.78,218.88,74.36,211.2c-1.4-2.43-2.93-4.79-4.13-7.33,2.87-1.05,5.59-2.45,8.33-3.77a2.54,2.54,0,0,0,1.76-2.24,2.75,2.75,0,0,0-3.89-2.74c-2.74,1.13-5.41,2.42-8.1,3.65a34.2,34.2,0,0,1-2.81-7.85A69.61,69.61,0,0,1,63,172.61c0-2.84.39-5.67.59-8.51a1,1,0,0,1,.4-.76,1.35,1.35,0,0,0,.77.41c2.74.2,5.48.45,8.22.63a2.65,2.65,0,0,0,3.1-2.54,2.71,2.71,0,0,0-2.73-3.09c-2.76-.29-5.53-.55-8.29-.82a31.59,31.59,0,0,1,3.39-10.18,5.45,5.45,0,0,0,.14.58,2.23,2.23,0,0,0,2.8,1.79,2.36,2.36,0,0,0,1.74-2.88,2.29,2.29,0,0,0-3-1.54,8.45,8.45,0,0,0-.85.28,21.43,21.43,0,0,1,4.09-7.68c.83,1.11,1.84,1.75,3.24,1a2.22,2.22,0,0,0,1.26-2.24c-.06-1.23-.92-1.81-2-2.21.57-1.78,2-3,3-4.55A2.73,2.73,0,0,1,80.6,129c1.06.77,2.11,1.56,3.18,2.31,1.55,1.07,2.78.92,3.82-.42a2.71,2.71,0,0,0-.5-4c-1-.8-2-1.54-3-2.31.12-.7.69-1.06,1.12-1.53,1.33-1.47,2.93-2.67,4.12-4.26,3.16,1,4.47-.14,3.82-3.23l5.63-4c1.57,1,3,.92,3.82-.28a3.64,3.64,0,0,0,.26-2.61,3,3,0,0,0,1.39-.49,23.59,23.59,0,0,1,5.18-2.38c1,1,1.18,2.4,1.89,3.54a2.56,2.56,0,0,0,3.61,1.08,2.44,2.44,0,0,0,1.3-3.48,23.89,23.89,0,0,1-1.48-3.45.88.88,0,0,1,.53-.68A30,30,0,0,1,121.2,101c.57,1.11,1.36,1.88,2.74,1.6,1.54-.3,1.8-1.52,2-2.8A23.12,23.12,0,0,1,133,98.56a2.33,2.33,0,0,0,2,2.33,2.44,2.44,0,0,0,2.68-1.76l.08,0-.06-.15v-.68a32.74,32.74,0,0,1,7.78-.59.41.41,0,0,0,.19,0c-.15,1.59-.33,3.18-.45,4.77a2.68,2.68,0,0,0,5.15,1.3,47.41,47.41,0,0,0,.71-4.88.5.5,0,0,0,.11-.59l0,0c2.8,0,5.51.75,8.28,1-.19,1.11-.68,2.26.47,3.16a2.42,2.42,0,0,0,4-2,23.34,23.34,0,0,1,7,2.38c-.79,1-1.25,2.09-.27,3.23a2.16,2.16,0,0,0,2.43.72c1.37-.41,1.6-1.49,1.58-2.71,2.33.94,4.72,1.75,6.65,3.44-1,1.4-2.16,2.77-3.12,4.22a2.39,2.39,0,0,0,.76,3.53,2.46,2.46,0,0,0,3.62-.35,24.42,24.42,0,0,0,2.86-4.19l.67-.64c2.31,1.36,4.83,2.43,6.42,4.75a4.19,4.19,0,0,0-1,.24,2.37,2.37,0,0,0-1.36,2.85,2.1,2.1,0,0,0,2.24,1.64,2.24,2.24,0,0,0,2.18-2.09,6.06,6.06,0,0,0-.05-1.34,67,67,0,0,1,13.12,13.58c.6.82,1.63,1.43,1.54,2.66a75.33,75.33,0,0,0-7.38,3.77,2.69,2.69,0,0,0-1,3.66,2.73,2.73,0,0,0,3.65,1.09c2.13-1.12,4.22-2.31,6.32-3.49A2.62,2.62,0,0,0,212.47,134.81Zm-2.84,15h0l.31.31h0a.3.3,0,0,0,.39.24.37.37,0,0,1,.19.09c.33.37.65.76,1.2.32a2.28,2.28,0,0,0,2-2.52,2.17,2.17,0,0,0-2-2.15c-1.06-.13-2.15,0-2.51,1.35-.18.07-.24.17-.08.33l.2,1.67A.3.3,0,0,0,209.63,149.84Zm-15.82-14.15-.31-.37c-.44-1.3-1.56-1.61-2.71-1.74a5.65,5.65,0,0,0-3.87,1c-4.8,3.25-9.61,6.47-14.42,9.71L150.68,159c.42-4.23.81-8.46,1.28-12.68.55-5,1.16-9.93,1.75-14.89s1.14-9.83,1.78-14.73a5.22,5.22,0,0,0-2.82-5.44c-.14-.37-.27-.75-.42-1.12a5.24,5.24,0,0,0-5.41-3,5.09,5.09,0,0,0-4.37,4.19q-1.08,9.12-2.13,18.24-1.65,14.28-3.27,28.57a1.3,1.3,0,0,1-.94,1.3,10.46,10.46,0,0,0-4.12,3,12.33,12.33,0,0,0-2.52,12.24l.14.32.23.56c-.69.37-.23.87-.13,1.31,1.25,5.78,7.48,10.17,13.48,10,7.14-.22,13.13-5.67,12.91-13.08a2.86,2.86,0,0,1,1.49-2.81q17.77-11.74,35.5-23.57a19.79,19.79,0,0,0,3.66-2.64c2.32-2.47,1.08-6.94-2.15-7.76-.38-.34-.24-1-.81-1.25ZM87.22,222.2a2.32,2.32,0,0,0,2.35-2.26,2.35,2.35,0,0,0-2.4-2.38,2.22,2.22,0,0,0-2.31,2.24A2.32,2.32,0,0,0,87.22,222.2ZM216.4,159.88a2.34,2.34,0,0,0-2.37-2.25,2.58,2.58,0,0,0-2.59,2.23,2.84,2.84,0,0,0,2.67,2.39A2.46,2.46,0,0,0,216.4,159.88ZM70.06,175a2.37,2.37,0,0,0-2.32-2.29,2.34,2.34,0,0,0-2.37,2.39,2.24,2.24,0,0,0,2.29,2.27A2.41,2.41,0,0,0,70.06,175Zm1.41,11.86a2.26,2.26,0,0,0-2.14-2.44,2.41,2.41,0,0,0-2.52,2.12A2.37,2.37,0,0,0,69.07,189,2.29,2.29,0,0,0,71.47,186.81Zm91.39,53.83a2.32,2.32,0,0,0-2.38-2.24,2.4,2.4,0,0,0-2.46,2.19A2.49,2.49,0,0,0,160.4,243,2.55,2.55,0,0,0,162.86,240.64Zm37.22-112.25a2.13,2.13,0,0,0,2.25-2.14,2.1,2.1,0,0,0-2.25-2.43,2.23,2.23,0,0,0-2.31,2.28A2.29,2.29,0,0,0,200.08,128.39Zm8.3,73.12a2.38,2.38,0,0,0,2.44-2.35,2.18,2.18,0,0,0-2.3-2.25,2.24,2.24,0,0,0-2.43,2.29A2.31,2.31,0,0,0,208.38,201.51Zm4.36-16a2.32,2.32,0,0,0-2.32,2.42,2.06,2.06,0,0,0,2.28,2.33,2.45,2.45,0,0,0,2.34-2.45A2.35,2.35,0,0,0,212.74,185.54Zm-102.42,50a2.08,2.08,0,0,0-2.21-2.39,2.14,2.14,0,0,0-2.36,2.1,2.33,2.33,0,0,0,2.25,2.49A2.16,2.16,0,0,0,110.32,235.51Zm73.79-4a2.55,2.55,0,0,0,2.36-2.47,2.27,2.27,0,0,0-2.39-2.19,2.53,2.53,0,0,0-2.31,2.36A2.46,2.46,0,0,0,184.11,231.53ZM79.55,213.28a2.18,2.18,0,0,0,2.32-2.2,2.34,2.34,0,1,0-4.68,0A2.14,2.14,0,0,0,79.55,213.28Zm113.69,5.87a2.39,2.39,0,0,0-2.37,2.4,2.32,2.32,0,0,0,2.2,2.23,2.46,2.46,0,0,0,2.48-2.31A2.4,2.4,0,0,0,193.24,219.15ZM148.55,245a2.29,2.29,0,1,0,0-4.57,2.29,2.29,0,1,0,0,4.57Zm-29.39-3a2.34,2.34,0,0,0,2.37-2.23,2.46,2.46,0,0,0-2.37-2.34,2.34,2.34,0,0,0-2.33,2.27A2.41,2.41,0,0,0,119.16,241.92Z"/><path class="cls-13" d="M220.12,175.75a4,4,0,0,1-2.84.77,61.78,61.78,0,0,1-7.68-.42,2.81,2.81,0,0,1-2.65-2.63,2.58,2.58,0,0,1,2.34-3c3.12,0,6.25.28,9.38.48,1,.06,1.41.88,1.93,1.56a4.15,4.15,0,0,1-.34,3l-.12.27Z"/><path class="cls-13" d="M65.05,157.93c2.76.27,5.53.53,8.29.82a2.71,2.71,0,0,1,2.73,3.09,2.65,2.65,0,0,1-3.1,2.54c-2.74-.18-5.48-.43-8.22-.63a1.35,1.35,0,0,1-.77-.41,5.41,5.41,0,0,1-1.39-1.69,5.2,5.2,0,0,1,.66-2.78C63.87,158.59,64.32,158,65.05,157.93Z"/><path class="cls-13" d="M130.79,246.43a14.53,14.53,0,0,1,.12-5.3,33.48,33.48,0,0,0,.53-3.73c.13-1.67.7-2.3,2.42-2.42s3.06.63,3.12,1.94a48.32,48.32,0,0,1-.9,9.28c-.06.39-.5.73-.76,1.09A3.58,3.58,0,0,1,130.79,246.43Z"/><path class="cls-13" d="M68.33,198.77c2.69-1.23,5.36-2.52,8.1-3.65a2.75,2.75,0,0,1,3.89,2.74,2.54,2.54,0,0,1-1.76,2.24c-2.74,1.32-5.46,2.72-8.33,3.77C67.91,203.11,67.13,201,68.33,198.77Z"/><path class="cls-13" d="M93.27,230.48a59.6,59.6,0,0,1,5.45-7.58c.78-1,2.09-.79,3.17-.11s1.87,2.13,1.22,3.22c-1.66,2.8-3.3,5.65-5.87,7.78C94.69,234.09,93.4,233,93.27,230.48Z"/><path class="cls-13" d="M172.56,240.68a40.35,40.35,0,0,1-4.48-8.62c-.48-1.11.35-2.11,1.41-2.7s2.63-.64,3.28.42c1.69,2.8,3.63,5.51,4.31,8.81A3.53,3.53,0,0,1,172.56,240.68Z"/><path class="cls-13" d="M205.31,214.73A3.81,3.81,0,0,1,202,214c-1.72-1.23-3.51-2.36-5.26-3.57-1.57-1.09-1.86-2.56-.83-4a2.68,2.68,0,0,1,4-.61c2,1.34,4,2.74,6,4.09a3.28,3.28,0,0,1,1.23,2.17,5,5,0,0,1-1.24,2.33l-.63.38Z"/><path class="cls-15" d="M205.3,214.75l.63-.38C205.83,214.66,205.57,214.72,205.3,214.75Z"/><path class="cls-15" d="M220.14,175.8l.12-.27C220.45,175.72,220.34,175.78,220.14,175.8Z"/><path class="cls-14" d="M109.47,105.74a23.59,23.59,0,0,0-5.18,2.38,3,3,0,0,1-1.39.49c-1.1-.71-2.22-1.52-3.53-.47s-1.12,2.11-.55,3.36l-5.63,4-.76-.49A2.23,2.23,0,0,0,89,117.64c.11.39.27.75.4,1.13-1.19,1.59-2.79,2.79-4.12,4.26-.43.47-1,.83-1.12,1.53-1.35-.71-2.39-1.92-3.9-2.36a9.87,9.87,0,0,0,2.5-2.09A86.05,86.05,0,0,1,94,109.92a75.48,75.48,0,0,1,12.28-7.52,3.46,3.46,0,0,0,1.89-1.4C107.71,102.82,109.18,104.12,109.47,105.74Z"/><path class="cls-14" d="M145.51,97.67a32.74,32.74,0,0,0-7.78.59,2.37,2.37,0,0,0-4.7.3,23.12,23.12,0,0,0-7.14,1.22c-.61-1.21-1.46-2.06-2.93-1.65A2.34,2.34,0,0,0,121.2,101a30,30,0,0,0-5.88,1.77.88.88,0,0,0-.53.68c-.86-1.44-1.18-3.24-2.79-4.2,3.14.19,5.78-1.56,8.71-2.23,3.23-.75,6.46-1.4,9.71-2,5.35-1,10.76-.55,16.15-.58C145.68,95.32,145.76,96.55,145.51,97.67Z"/><path class="cls-14" d="M171.05,102.76a23.34,23.34,0,0,0-7-2.38c-1.11-2.27-2.11-2.53-4.49-1.17-2.77-.25-5.48-1-8.28-1,0-1.21.3-2.47-.53-3.55A65.74,65.74,0,0,1,163.84,97a72.76,72.76,0,0,1,11.82,4c2.52,1.1,5,2.31,7.47,3.5.26.12.43.42.63.64a3.5,3.5,0,0,0-2.06,2.19l-.26.11c-1.93-1.69-4.32-2.5-6.65-3.44C173.83,102.08,172.9,101.78,171.05,102.76Z"/><path class="cls-14" d="M65.05,157.93c-.73.07-1.18.66-1.8.94A57.51,57.51,0,0,1,65.64,149c1.46-4.8,4-9.15,5.8-13.78.32-.8,1.06-1.18,1.49-1.86,1.47-2.35,3-4.69,4.46-7A36.67,36.67,0,0,0,80.6,129a2.73,2.73,0,0,0-1.69,1.36c-1,1.52-2.41,2.77-3,4.55-2.27.27-2.86,1.06-2.53,3.42A21.43,21.43,0,0,0,69.31,146l-.87,1.77A31.59,31.59,0,0,0,65.05,157.93Z"/><path class="cls-13" d="M80.6,129a36.67,36.67,0,0,1-3.21-2.62c-.54-2.48.42-3.87,2.84-4.15,1.51.44,2.55,1.65,3.9,2.36,1,.77,2,1.51,3,2.31a2.71,2.71,0,0,1,.5,4c-1,1.34-2.27,1.49-3.82.42C82.71,130.53,81.66,129.74,80.6,129Z"/><path class="cls-13" d="M212.47,134.81a2.62,2.62,0,0,1-1.59,2.52c-2.1,1.18-4.19,2.37-6.32,3.49a2.73,2.73,0,0,1-3.65-1.09,2.69,2.69,0,0,1,1-3.66,75.33,75.33,0,0,1,7.38-3.77C211.1,132.19,211.93,133.32,212.47,134.81Z"/><path class="cls-13" d="M112,99.23c1.61,1,1.93,2.76,2.79,4.2a23.89,23.89,0,0,0,1.48,3.45,2.44,2.44,0,0,1-1.3,3.48,2.56,2.56,0,0,1-3.61-1.08c-.71-1.14-.93-2.54-1.89-3.54-.29-1.62-1.76-2.92-1.33-4.74A3.56,3.56,0,0,1,112,99.23Z"/><path class="cls-13" d="M150.71,94.66c.83,1.08.52,2.34.53,3.55l0,0a.44.44,0,0,0-.11.59,47.41,47.41,0,0,1-.71,4.88,6.83,6.83,0,0,1-.38-3.85c.35-1.83,0-2.16-1.76-2.18l-2.56,0a.41.41,0,0,1-.19,0c.25-1.12.17-2.35,1.06-3.27a4.06,4.06,0,0,1,3.4-.32l.41.27Z"/><path class="cls-8" d="M194.63,116.06a6.06,6.06,0,0,1,.05,1.34,2.24,2.24,0,0,1-2.18,2.09,2.1,2.1,0,0,1-2.24-1.64,2.37,2.37,0,0,1,1.36-2.85,4.19,4.19,0,0,1,1-.24A2.61,2.61,0,0,1,194.63,116.06Z"/><path class="cls-13" d="M181.7,107.33a3.5,3.5,0,0,1,2.06-2.19,10.11,10.11,0,0,1,1.35.12c2.27.52,2.7,2.34,1.12,4.75l-.67.64A5.44,5.44,0,0,0,181.7,107.33Z"/><path class="cls-14" d="M150.38,94.35l-.41-.27Z"/><path class="cls-6" d="M194.62,136.92c3.23.82,4.47,5.29,2.15,7.76a19.79,19.79,0,0,1-3.66,2.64q-17.73,11.82-35.5,23.57a2.86,2.86,0,0,0-1.49,2.81c.22,7.41-5.77,12.86-12.91,13.08-6,.18-12.23-4.21-13.48-10-.1-.44-.56-.94.13-1.31l.75,1.12a12.21,12.21,0,0,0,10.51,5.8c7.6.09,12.73-6,12-14.05C166.09,159.73,179,151.07,192,142.5,194.1,141.1,195,139.38,194.62,136.92Z"/><path class="cls-1" d="M153.16,168.35c.69,8.09-4.44,14.14-12,14.05a12.21,12.21,0,0,1-10.51-5.8l-.75-1.12c-.08-.18-.15-.37-.23-.56l-.14-.32A12.33,12.33,0,0,1,132,162.36a10.46,10.46,0,0,1,4.12-3,1.3,1.3,0,0,0,.94-1.3q1.6-14.3,3.27-28.57,1-9.12,2.13-18.24a5.09,5.09,0,0,1,4.37-4.19,5.24,5.24,0,0,1,5.41,3c.15.37.28.75.42,1.12-.57,7.61-1.63,15.18-2.44,22.76-.89,8.4-1.84,16.78-2.77,25.17-.1.87.12,1.48,1.11,1.58a1,1,0,0,0,.94.64c.06.71.65,1,1.11,1.42l1.24,1.89.64,1.51Zm-12.5-26.09c-.48.49-.31,1.09-.27,1.66l0,.74a1.57,1.57,0,0,0-.27.53c-.48,4.17-.94,8.35-1.44,12.52-.09.78.23.82.87.73a11.4,11.4,0,0,1,4.65.34c1,.29,1.33.1,1.41-1,.13-1.85.43-3.68.65-5.52.59-5.07,1.16-10.14,1.75-15.22.55-4.77,1.14-9.54,1.65-14.32a108.22,108.22,0,0,0,1.1-11.21c0-2.24-1.61-3.25-3.81-2.45a2.73,2.73,0,0,0-2.82,2.58c-.4,5.29-1.48,10.52-1.62,15.84-.08.12-.21.24-.23.37Q141.45,135.07,140.66,142.26Zm-9.09,24.08c-1.92,2.47-1.35,5.13-.31,7.64,1.72,4.16,6.57,6.49,11.59,5.44,5.74-1.21,9.57-6.51,8.18-12.19-.85-3.42-4.91-6.92-7.31-6.69C137.9,159.28,134.05,161.12,131.57,166.34Z"/><path class="cls-6" d="M148.57,160.73c-1-.1-1.21-.71-1.11-1.58.93-8.39,1.88-16.77,2.77-25.17.81-7.58,1.87-15.15,2.44-22.76a5.22,5.22,0,0,1,2.82,5.44c-.64,4.9-1.2,9.82-1.78,14.73s-1.2,9.92-1.75,14.89c-.47,4.22-.86,8.45-1.28,12.68Z"/><path class="cls-2" d="M153.16,168.35l-.66-2.16a2.57,2.57,0,0,0,1.48-.68q6.69-4.5,13.4-9,11.81-7.87,23.61-15.72a3.46,3.46,0,0,0,1.89-3.6c1-.09.86-.89.93-1.54.57.23.43.91.81,1.25.4,2.46-.52,4.18-2.64,5.58C179,151.07,166.09,159.73,153.16,168.35Z"/><path class="cls-7" d="M193.81,135.67c-.07.65.09,1.45-.93,1.54-.4-1-.91-1.87-2.21-1.75a3.32,3.32,0,0,0-3,.67q-13,8.76-26.11,17.49c-4,2.66-7.87,5.44-12.07,7.75a1,1,0,0,1-.94-.64l2.11-1.77L172.5,144.3c4.81-3.24,9.62-6.46,14.42-9.71a5.65,5.65,0,0,1,3.87-1c1.15.13,2.27.44,2.71,1.74l.31.37Z"/><path class="cls-4" d="M181.7,107.33a5.44,5.44,0,0,1,3.86,3.32,24.42,24.42,0,0,1-2.86,4.19,2.46,2.46,0,0,1-3.62.35,2.39,2.39,0,0,1-.76-3.53c1-1.45,2.08-2.82,3.12-4.22Z"/><path class="cls-4" d="M145.7,97.65l2.56,0c1.77,0,2.11.35,1.76,2.18a6.83,6.83,0,0,0,.38,3.85,2.68,2.68,0,0,1-5.15-1.3C145.37,100.83,145.55,99.24,145.7,97.65Z"/><path class="cls-8" d="M87.22,222.2a2.32,2.32,0,0,1-2.36-2.4,2.22,2.22,0,0,1,2.31-2.24,2.35,2.35,0,0,1,2.4,2.38A2.32,2.32,0,0,1,87.22,222.2Z"/><path class="cls-8" d="M216.4,159.88a2.46,2.46,0,0,1-2.29,2.37,2.84,2.84,0,0,1-2.67-2.39,2.58,2.58,0,0,1,2.59-2.23A2.34,2.34,0,0,1,216.4,159.88Z"/><path class="cls-8" d="M70.06,175a2.41,2.41,0,0,1-2.4,2.37,2.24,2.24,0,0,1-2.29-2.27,2.34,2.34,0,0,1,2.37-2.39A2.37,2.37,0,0,1,70.06,175Z"/><path class="cls-8" d="M68.44,147.75l.87-1.77a8.45,8.45,0,0,1,.85-.28,2.29,2.29,0,0,1,3,1.54,2.36,2.36,0,0,1-1.74,2.88,2.23,2.23,0,0,1-2.8-1.79A5.45,5.45,0,0,1,68.44,147.75Z"/><path class="cls-8" d="M71.47,186.81a2.29,2.29,0,0,1-2.4,2.21,2.37,2.37,0,0,1-2.26-2.53,2.41,2.41,0,0,1,2.52-2.12A2.26,2.26,0,0,1,71.47,186.81Z"/><path class="cls-8" d="M162.86,240.64a2.55,2.55,0,0,1-2.46,2.4,2.49,2.49,0,0,1-2.38-2.45,2.4,2.4,0,0,1,2.46-2.19A2.32,2.32,0,0,1,162.86,240.64Z"/><path class="cls-8" d="M73.4,138.3c-.33-2.36.26-3.15,2.53-3.42,1,.4,1.91,1,2,2.21a2.22,2.22,0,0,1-1.26,2.24C75.24,140.05,74.23,139.41,73.4,138.3Z"/><path class="cls-8" d="M200.08,128.39a2.29,2.29,0,0,1-2.31-2.29,2.23,2.23,0,0,1,2.31-2.28,2.1,2.1,0,0,1,2.25,2.43A2.13,2.13,0,0,1,200.08,128.39Z"/><path class="cls-8" d="M208.38,201.51a2.31,2.31,0,0,1-2.29-2.31,2.24,2.24,0,0,1,2.43-2.29,2.18,2.18,0,0,1,2.3,2.25A2.38,2.38,0,0,1,208.38,201.51Z"/><path class="cls-8" d="M212.74,185.54a2.35,2.35,0,0,1,2.3,2.3,2.45,2.45,0,0,1-2.34,2.45,2.06,2.06,0,0,1-2.28-2.33A2.32,2.32,0,0,1,212.74,185.54Z"/><path class="cls-8" d="M159.52,99.21c2.38-1.36,3.38-1.1,4.49,1.17a2.42,2.42,0,0,1-4,2C158.84,101.47,159.33,100.32,159.52,99.21Z"/><path class="cls-8" d="M110.32,235.51a2.16,2.16,0,0,1-2.32,2.2,2.33,2.33,0,0,1-2.25-2.49,2.14,2.14,0,0,1,2.36-2.1A2.08,2.08,0,0,1,110.32,235.51Z"/><path class="cls-8" d="M98.82,111.5c-.57-1.25-.61-2.43.55-3.36s2.43-.24,3.53.47a3.64,3.64,0,0,1-.26,2.61C101.83,112.42,100.39,112.53,98.82,111.5Z"/><path class="cls-8" d="M184.11,231.53a2.46,2.46,0,0,1-2.34-2.3,2.53,2.53,0,0,1,2.31-2.36,2.27,2.27,0,0,1,2.39,2.19A2.55,2.55,0,0,1,184.11,231.53Z"/><path class="cls-8" d="M133,98.56a2.37,2.37,0,0,1,4.7-.3v.68a.13.13,0,0,0,0,.19,2.44,2.44,0,0,1-2.68,1.76A2.33,2.33,0,0,1,133,98.56Z"/><path class="cls-8" d="M79.55,213.28a2.14,2.14,0,0,1-2.36-2.15,2.34,2.34,0,1,1,4.68,0A2.18,2.18,0,0,1,79.55,213.28Z"/><path class="cls-8" d="M193.24,219.15a2.4,2.4,0,0,1,2.31,2.32,2.46,2.46,0,0,1-2.48,2.31,2.32,2.32,0,0,1-2.2-2.23A2.39,2.39,0,0,1,193.24,219.15Z"/><path class="cls-8" d="M148.55,245a2.29,2.29,0,1,1,0-4.57,2.29,2.29,0,1,1,0,4.57Z"/><path class="cls-8" d="M119.16,241.92a2.41,2.41,0,0,1-2.33-2.3,2.34,2.34,0,0,1,2.33-2.27,2.46,2.46,0,0,1,2.37,2.34A2.34,2.34,0,0,1,119.16,241.92Z"/><path class="cls-8" d="M121.2,101A2.34,2.34,0,0,1,123,98.13c1.47-.41,2.32.44,2.93,1.65-.15,1.28-.41,2.5-2,2.8C122.56,102.86,121.77,102.09,121.2,101Z"/><path class="cls-8" d="M210.5,150.46a.37.37,0,0,0-.19-.09l-.39-.24h0l-.31-.31h0l-.25-.38c-.07-.56-.14-1.12-.2-1.67,0-.11,0-.22.08-.33.36-1.32,1.45-1.48,2.51-1.35a2.17,2.17,0,0,1,2,2.15,2.28,2.28,0,0,1-2,2.52C211.37,150.42,210.91,150.52,210.5,150.46Z"/><path class="cls-8" d="M89.37,118.77c-.13-.38-.29-.74-.4-1.13a2.23,2.23,0,0,1,3.46-2.59l.76.49C93.84,118.63,92.53,119.74,89.37,118.77Z"/><path class="cls-8" d="M171.05,102.76c1.85-1,2.78-.68,3.74,1.24,0,1.22-.21,2.3-1.58,2.71a2.16,2.16,0,0,1-2.43-.72C169.8,104.85,170.26,103.78,171.05,102.76Z"/><path class="cls-10" d="M210.5,150.46c.41.06.87,0,1.2.32C211.15,151.22,210.83,150.83,210.5,150.46Z"/><path class="cls-14" d="M151.11,98.84a.44.44,0,0,1,.11-.59A.5.5,0,0,1,151.11,98.84Z"/><path class="cls-10" d="M209.62,149.83l.31.31Z"/><path class="cls-10" d="M209.92,150.13l.39.24A.3.3,0,0,1,209.92,150.13Z"/><path class="cls-2" d="M193.81,135.69l-.31-.37Z"/><path class="cls-6" d="M129.49,174.6l.14.32Z"/><path class="cls-14" d="M137.7,99.13a.13.13,0,0,1,0-.19l.06.15Z"/><path class="cls-10" d="M209.26,147.46c0,.11,0,.22-.08.33C209,147.63,209.08,147.53,209.26,147.46Z"/><path class="cls-10" d="M209.38,149.46l.25.38A.3.3,0,0,1,209.38,149.46Z"/><path class="cls-7" d="M146.91,109.09c2.2-.8,3.82.21,3.81,2.45a108.22,108.22,0,0,1-1.1,11.21c-.51,4.78-1.1,9.55-1.65,14.32-.59,5.08-1.16,10.15-1.75,15.22-.22,1.84-.52,3.67-.65,5.52-.08,1.07-.4,1.26-1.41,1a11.4,11.4,0,0,0-4.65-.34c-.64.09-1,.05-.87-.73.5-4.17,1-8.35,1.44-12.52a1.57,1.57,0,0,1,.27-.53c.12,1.19.57,2.37.22,3.58a7,7,0,0,0-.16,2.09c0,.41-.18,1.07.42,1.1s.58-.64.66-1.06c.16-.79.25-1.59.35-2.38.58-4.66,1.23-9.32,1.7-14,.21-2.07.9-4.11.5-6.23C145.68,121.65,145.07,115.18,146.91,109.09Z"/><path class="cls-7" d="M143.72,160.54c2.4-.23,6.46,3.27,7.31,6.69,1.39,5.68-2.44,11-8.18,12.19-5,1.05-9.87-1.28-11.59-5.44-1-2.51-1.61-5.17.31-7.63.79,1.18,1,0,1.31-.37a12,12,0,0,1,9.09-5A3.44,3.44,0,0,0,143.72,160.54Zm3.05,8.39c-.67-1.61-1.43-3.15-3.32-3.67-3.41-1.11-5.49-.48-7,2.11a5.21,5.21,0,0,0,1.18,7.21,22.46,22.46,0,0,0,2.09,1.18,1.07,1.07,0,0,0,1,1,6.11,6.11,0,0,0,7-6.6C147.56,169.61,147.52,169,146.77,168.93Z"/><path class="cls-11" d="M151.86,164.68l-1.23-1.89c0-.57.45-.71.83-1q10.42-7,20.86-14c2.47-1.64,4.8-3.51,7.33-5,3.75-2.27,7.29-4.85,11-7.15,1.1.61.89,1.5.33,2.27a7,7,0,0,1-1.75,1.64q-7.86,5.31-15.76,10.57l-14.89,10C156.34,161.64,154.1,163.17,151.86,164.68Z"/><path class="cls-9" d="M151.86,164.68c2.24-1.51,4.48-3,6.73-4.55l14.89-10q7.89-5.28,15.76-10.57A7,7,0,0,0,191,138c.56-.77.77-1.66-.33-2.27a1.85,1.85,0,0,0,0-.23c1.3-.12,1.81.74,2.21,1.75a3.46,3.46,0,0,1-1.89,3.6q-11.84,7.81-23.61,15.72-6.7,4.49-13.4,9a2.57,2.57,0,0,1-1.48.68C152.29,165.69,152.07,165.19,151.86,164.68Z"/><path class="cls-12" d="M190.67,135.46a1.85,1.85,0,0,1,0,.23c-3.72,2.3-7.26,4.88-11,7.15-2.53,1.53-4.86,3.4-7.33,5q-10.45,7-20.86,14c-.38.25-.85.39-.83,1-.47-.4-1.06-.71-1.12-1.42,4.2-2.31,8.09-5.09,12.07-7.75q13.06-8.72,26.11-17.49A3.32,3.32,0,0,1,190.67,135.46Z"/><path class="cls-8" d="M144,127.77c.4,2.12-.29,4.16-.5,6.23-.47,4.67-1.12,9.33-1.7,14-.1.79-.19,1.59-.35,2.38-.08.42-.16,1.08-.66,1.06s-.41-.69-.42-1.1a7,7,0,0,1,.16-2.09c.35-1.21-.1-2.39-.22-3.58,0-.24,0-.49,0-.74.48-.49.31-1.08.27-1.66q.79-7.19,1.58-14.38c0-.13.15-.25.23-.37C142.89,128.21,143.38,128.51,144,127.77Z"/><path class="cls-10" d="M144,127.77c-.66.74-1.15.44-1.57-.26.14-5.32,1.22-10.55,1.62-15.84a2.73,2.73,0,0,1,2.82-2.58C145.07,115.18,145.68,121.65,144,127.77Z"/><path class="cls-10" d="M143.72,160.54a3.44,3.44,0,0,1-1.75.4,12,12,0,0,0-9.09,5c-.28.38-.52,1.55-1.31.37C134.05,161.12,137.9,159.28,143.72,160.54Z"/><path class="cls-7" d="M140.66,142.26c0,.58.21,1.17-.27,1.66C140.35,143.35,140.18,142.75,140.66,142.26Z"/><path class="cls-5" d="M143.45,165.26c1.89.52,2.65,2.06,3.32,3.67a6,6,0,0,1-6.35,6.87.26.26,0,0,0-.45,0,.5.5,0,0,0-.27,0,22.46,22.46,0,0,1-2.09-1.18,5.21,5.21,0,0,1-1.18-7.21c.45,0,1,.1,1.31-.12C139.44,166,141.59,166,143.45,165.26Z"/><path class="cls-2" d="M140.42,175.8a6,6,0,0,0,6.35-6.87c.75.07.79.68.86,1.2a6.11,6.11,0,0,1-7,6.6,1.07,1.07,0,0,1-1-1,.54.54,0,0,1,.28,0Z"/><path class="cls-12" d="M143.45,165.26c-1.86.77-4,.69-5.71,2-.29.22-.86.09-1.31.12C138,164.78,140,164.15,143.45,165.26Z"/><path class="cls-7" d="M140.42,175.8l-.44,0C140.13,175.61,140.28,175.62,140.42,175.8Z"/></svg>