<svg xmlns="http://www.w3.org/2000/svg" viewBox="0 0 300 300"><defs><style>.cls-1{fill:#b9322f;}.cls-2{fill:#466f41;}.cls-3{fill:#985e30;}.cls-4{fill:#d14f38;}.cls-5{fill:#d97a60;}.cls-6{fill:#83b952;}.cls-7{fill:#a2c64e;}.cls-8{fill:#69ab53;}.cls-9{fill:#fefdfd;}</style></defs><title>fp</title><g id="томат"><path class="cls-1" d="M222.48,72.32c16.3,5.84,29.37,16.15,39.59,29.86,24.06,32.29,24,77.7.34,111.91-20.73,29.94-50,46.6-85,53.81-38,7.84-74.64,4.32-107.92-17.07-38.88-25-59.73-71.28-44.8-117.31,5.71-17.6,16.6-31.63,31.7-42.38,1.29-.93,3.05-1.35,3.7-3.08l1.11.24,3,1.87a75.48,75.48,0,0,0-31.91,35.14c-9.12,20.41-11.11,41.56-4.43,63.2,2.22,7.18,4.29,14.43,9.58,20.16.36.93.73,1.87,1.1,2.8l.84,1.15a2.7,2.7,0,0,0,.18,1c12.71,19.77,29.64,34.56,51.56,43.46,26.88,10.9,54.66,12.7,82.77,6.82,39.37-8.24,72-26.59,91.22-63.86,9.51-18.44,12.82-37.83,9.26-58.24a85.33,85.33,0,0,0-23.19-45.89A74.18,74.18,0,0,0,225.33,78.2l0,0-1.08-1c-3.48-2.61-7-4.11-11.54-1,1.45.81,2.48,1.31,3.43,1.93,1.35.88,4.06,1.09,2.71,3.66-1.19,2.24-3,.82-4.74.29-5.38-1.71-10.65-1.62-15.5,1.64a36.93,36.93,0,0,1-9.21,4.55A111.29,111.29,0,0,1,172.25,92c-2.79.44-3.2,1.55-2.87,4.34.42,3.58,3.52,6,3.56,9.52-5.69-3-7.38-9.31-11.2-13.87-1-1.23-2.09-2.82-1.39-4.51.85-2,2.9-1.18,4.38-1.09,9.22.59,18.11-.8,26.25-5.11,9.55-5,19.23-9.09,30.34-8.15C221.68,73.18,222.09,72.61,222.48,72.32Z"/><path class="cls-2" d="M61.21,88.3l-1.11-.24c-4.15-2.18-9-3.33-11.92-7.4-1.06-1.46-2.52-3-1.73-4.86.88-2.15,3-1.65,4.76-1.45,11,1.25,21.27-1.59,31.13-6,12.55-5.62,25.26-8.31,38.78-3.86,1,.32,2.34,1.2,3.11-.11.65-1.13-.48-2.16-1-3.11a28.44,28.44,0,0,0-13-11.74c-4-1.83-4.89-4.56-2.77-8.32a79.46,79.46,0,0,1,5.28-8.87c3.86-5.14,7.39-5.37,11.86-.82a70.4,70.4,0,0,1,15.65,23.72c.72,1.82,1.46,3.64,2.29,5.7A30.37,30.37,0,0,1,154,56.17c4.48-1,8.05-3.59,11.32-6.69,2.9-2.75,6.1-5.07,10.12-5.84,3.33-.64,5.14.12,4,4.14a118.74,118.74,0,0,1-5.94,15.42c15.29-1,30.13-.69,44.3,5.15-1.53,3-3.94,3.09-6.69,2-1.44-1.56-3.44-1.64-5.32-2-13.54-2.68-27.16-2-40.78-.9-.87-.29-2.2.23-2.53-.88s.9-1.12,1.6-1.42c6.14-2.64,8.95-7.69,10.13-13.91.22-1.17,1.46-2.62-.16-3.41-1.34-.64-2.39.52-3.16,1.64a43.49,43.49,0,0,1-20.76,11c-2.45.51-5.43,1.53-5.93,4.92.26,1.45.45,2.9.78,4.32,1.24,5.27-1.06,8.33-7.08,9.34s-10.12-1.49-10.66-6.25c-.13-1.22.47-3.09-1.32-3.23-4.93-.37-9.16-3.8-14.3-3.08A44.22,44.22,0,0,0,92.1,68.41c-7.55,2.34-14.52,6.33-22.31,7.85-5.63,1.11-11.36,1.68-17.05,2.48-.1.36-.21.71-.31,1.06l11.86,5c1.68,2.44,4.24.94,6.34,1.29,12.46,2.12,24.46,1.06,35.55-5.67,1.08-.65,2.37-1.69,4-.61-2.64,3.5-6.75,5.65-7.77,10.12l-1.76,1.54c-.34-1.8.51-4.94-1.92-4.84-4.07.18-8.47.29-11.93,3.23l-2.08.19a7,7,0,0,0-7.74,0l-5-.28C68.63,87.69,65.21,86,61.21,88.3Zm77-26.82c-.64-2.44-1-5-2.9-6.92-3.13-7.87-8.56-14.18-14-20.44-1.47-1.68-3.46-2.42-5-.24-1.91,2.76-4.64,5.14-4.93,8.83-1.78,2.34.62,2.87,1.77,3.47a32.66,32.66,0,0,1,15.44,16.26c-.24,3.93,2.09,7.31,2.25,11.31.11,2.54,3.75,2.61,6.16,2.26s4.76-1.44,4.11-4.39C140.36,68.2,140.59,64.44,138.19,61.48Z"/><path class="cls-3" d="M211,70.38c2.76,1.06,5.17,1,6.7-2,2.65.05,2.9,3,4.74,4-.39.29-.8.86-1.16.83-11.11-.94-20.79,3.11-30.34,8.15-8.14,4.31-17,5.7-26.25,5.11-1.48-.09-3.53-.94-4.38,1.09-.7,1.69.36,3.28,1.39,4.51,3.82,4.56,5.51,10.83,11.2,13.87h0l1,1.13,1.08,1.75v5.07l0,.06c-.5,0-1,.06-1.48.06-15.27,0-30-1.28-39.56-15.67-1.5-2.24-2.65-.71-3.61.87-7.29,12-19.11,16.14-32,18.68-4.8,1-9.63-.46-14.33.89-4.24-3.31-4.23-3.72.22-6.06-.22,5.18,2.57,3.43,5.13,2.23l2.08-.14,4.13.08c.55.8,1,.72,1.49-.09l2.29-.11a2.16,2.16,0,0,0,2.68-.89c15.35-4.56,27-13,31-29.49,1.25,1.11,1,2.69,1.27,4.1,2.22,11,9.87,18.31,21.1,20.26a32.62,32.62,0,0,0,11.4,2c1.56.41,3.12.87,5.15-.41-8.08-8.35-12.69-18.77-19.17-28.9,7,2.2,13.36,3.16,20.06,2.45,10.83-1.15,19.72-6.78,29.09-11.4Z"/><path class="cls-4" d="M175,108.77,173.88,107l-1-1.13h0c0-3.57-3.14-5.94-3.56-9.52-.33-2.79.08-3.9,2.87-4.34a111.29,111.29,0,0,0,17.19-3.7,36.93,36.93,0,0,0,9.21-4.55c4.85-3.26,10.12-3.35,15.5-1.64,1.69.53,3.55,2,4.74-.29,1.35-2.57-1.36-2.78-2.71-3.66-1-.62-2-1.12-3.43-1.93,4.49-3.09,8.06-1.59,11.54,1-.76,1.56.58.8,1.08,1l0,0c.08,2.43,2.34,3.16,3.8,4.15a79.5,79.5,0,0,1,16.4,14.8c4,4.79,9.29,8.92,10.59,15.62-1.69.2-2.37-1.12-2.92-2.23-1.54-3.11-4.43-4.79-7-6.82-1.67-1.33-3.75-2.7-5.83-1.15s-1.38,3.81-.47,5.84a45.15,45.15,0,0,0,2.52,5.3c4.67,7.5,4.17,15.68-.43,22.1-4,5.64-6.19,10.9-6,17.58.05,1.5-1.09,3-1.7,4.55-1,2.43-2.16,4.81-2.94,7.3a53,53,0,0,1-12.38,21.54c-6.51,6.71-13.45,13-19.69,20-4.65,5.24-9.63,10.23-16.56,12.63-6.74,2.33-13.74,4-19.84,8a10.91,10.91,0,0,1-4.52,1.88c-12.24,1.16-24.38,1.84-36.74-.29-6.15-1.06-11.45-3.57-17.16-5.35-1.1-.34-2.75-1.78-3.54-.18-2.44,5-4.76,3.33-7.22.17-.55-.7-1.34-1.38-2.06-1.05-4.09,1.84-6.63-.38-9-3.19,1.49-4.66-1.29-7.87-7.47-8.65-.78-.23-2-.9-2.26-.62-3.2,2.86-5.09.63-7.47-1.39-3.1-2.63-6-5.67-9.86-7.22-1.85-.74-3.7-2.94-5.74-.69-1.79,2-2,4.21-.78,6.82,5.87,12.87,15.09,22.86,26.42,31,14.68,10.58,31.2,16.22,49.07,18.74,4.22.6,8.9-.93,12.76,2-1.49,1.05-3.2.7-4.79.6-20.68-1.31-39.82-7.08-57.37-18.44-22-14.23-36.13-33.83-43-59-3.07-11.24-3.08-22.65-2.72-35.49-.82,1.82-1.12,2.35-1.31,2.92a13.06,13.06,0,0,0-.63,2.36c-1.53,11.66-.33,23.1,2.28,34.54,1.73,7.57,6,14.16,7.57,21.74-5.29-5.73-7.36-13-9.58-20.16-6.68-21.64-4.69-42.79,4.43-63.2A75.48,75.48,0,0,1,64.19,90.17l1.74.13c2.54,1.6,2,2.71-.33,4.12-1.73,1.07-4.52,2.72-3.76,4.56.94,2.29,4.15,2.12,6.59,1.91a24.07,24.07,0,0,0,4.76-1.14c3.77-1.12,7.46-2.77,11.3-3.3,3-.41,6.69-2.29,9.21,1.44a20.34,20.34,0,0,1-8.86,13c1.07-6.76-2-9.38-8.81-7.45a16.36,16.36,0,0,0-5.79,2.65c-6,4.74-8.84,11.54-11.48,18.32-2.8,7.19-.16,11,7.46,11.15,2.69.06,4.12.72,3.72,3.62-1.07,7.74,4.49,11.78,9.86,14.32,10.34,4.88,21.29,3.75,31.43-1.18,4.86-2.37,9-6.31,8.29-12.8-.5-4.52-3.38-6.83-7.48-8-3.11-1.46-6.31-2.72-9.78-2.74A66.12,66.12,0,0,1,86.84,127l.19-2.4a62.83,62.83,0,0,0,46.22-12.82c2.53-1.92,4.19-1.68,6.17.58,1.3,1.47,3.06,2.81,5.19,2.16,4.56-1.38,8.61.7,12.88,1.44,5.95,1,12.09,2.71,17.43-2l0-.06C177.67,112.15,177.29,110.46,175,108.77Zm19.83,13.85c5.09.43,8.56-2.12,11.75-5.42,4.88-5.06,4.16-9.29-2.17-12.26-3.07-1.44-6.05-3.37-9.54-3.3-8,.15-11.21,6.46-14.64,12.2-.82,1.37-.63,4.08,1.06,4.24C186.25,118.56,189.64,123.53,194.79,122.62ZM221.3,106c2.8-.22,5,.32,5.64-2a6,6,0,0,0-1.55-5.93c-4.34-4.2-8.94-8.24-14.66-10.48-2-.79-4.75-1.27-6.42.78-1.45,1.77-1.14,4.15.05,6C208.53,101,215,104.23,221.3,106Zm-81.4,31.32c2.66-.44,3.76-2.57,4-4.77.31-2.54-1.57-3.74-4-3.85s-4.2,1.1-4.5,3.51C135.06,135.23,137.57,136.21,139.9,137.28Zm-6.57,7.88c-.06,2.61.06,4.29,2.42,4.21a5.27,5.27,0,0,0,5.39-4.7c.44-2.5-1.72-3.82-3.59-3.71A4.48,4.48,0,0,0,133.33,145.16ZM64.45,154.5c-2,.51-2.48,2-2.3,3.77.2,2,1.13,3.75,3.27,3.48a3.16,3.16,0,0,0,2.53-3.7A3.8,3.8,0,0,0,64.45,154.5Z"/><path class="cls-5" d="M256.12,112.77c-1.3-6.7-6.55-10.83-10.59-15.62a79.5,79.5,0,0,0-16.4-14.8c-1.46-1-3.72-1.72-3.8-4.15a74.18,74.18,0,0,1,25.84,17.68,85.33,85.33,0,0,1,23.19,45.89c3.56,20.41.25,39.8-9.26,58.24-19.23,37.27-51.85,55.62-91.22,63.86-28.11,5.88-55.89,4.08-82.77-6.82-21.92-8.9-38.85-23.69-51.56-43.46a2.7,2.7,0,0,1-.18-1l-.84-1.15c-.37-.93-.74-1.87-1.1-2.8-1.53-7.58-5.84-14.17-7.57-21.74-2.61-11.44-3.81-22.88-2.28-34.54a13.06,13.06,0,0,1,.63-2.36c.19-.57.49-1.1,1.31-2.92-.36,12.84-.35,24.25,2.72,35.49,6.86,25.17,21,44.77,43,59C92.78,253,111.92,258.73,132.6,260c1.59.1,3.3.45,4.79-.6l2.62-.11c.78,2.11,2.62,1.59,4.19,1.64,7.07.23,14-.87,21-1.79,32.35-4.25,59.82-17.88,81.23-42.68,5.74-6.65,11.07-13.85,13.5-22.61C270.87,166.28,271.85,139.13,256.12,112.77Z"/><path class="cls-3" d="M65.93,90.3l-1.74-.13-3-1.87c4-2.31,7.42-.61,10.78,1.55Z"/><path class="cls-5" d="M225.37,78.24c-.5-.17-1.84.59-1.08-1Z"/><path class="cls-4" d="M38.53,211.47l.84,1.15Z"/><path class="cls-6" d="M155.29,108.62c-11.23-2-18.88-9.3-21.1-20.26-.28-1.41,0-3-1.27-4.1-2.24-.52-3.85.75-5.51,1.91-1-5.36-4.61-1.35-6.93-2l0,0c.48-1.45,3-2.63,1.42-4.21s-3.72-1.07-5.49,0-3,2.77-4.75,3.45c-3.66,1.43-4.33,6.91-9.17,6.52,1-4.47,5.13-6.62,7.77-10.12-1.68-1.08-3,0-4,.61-11.09,6.73-23.09,7.79-35.55,5.67-2.1-.35-4.66,1.15-6.34-1.29,4-2.62,8.1-1.17,12.3-.78,10,.94,19.65-1.16,27.79-6.74,3.16-2.16,9.79-4,7.18-10.8,5.14-.72,9.37,2.71,14.3,3.08,1.79.14,1.19,2,1.32,3.23.54,4.76,4.76,7.23,10.66,6.25s8.32-4.07,7.08-9.34c-.33-1.42-.52-2.87-.77-4.32,5.56.35,10.64-1.64,15.7-3.46,4.73-1.71,8.71-4.49,11.22-9.07.71-1.31,1.15-2.36-.24-3.41.77-1.12,1.82-2.28,3.16-1.64,1.62.79.38,2.24.16,3.41-1.18,6.22-4,11.27-10.13,13.91-.7.3-1.89.42-1.6,1.42s1.66.59,2.53.88c-1.5,1.5-3.45.59-5.14,1-2.09.49-4.26,1-4.65,3.64s.27,4.9,2.91,6.13a23.4,23.4,0,0,0,8,2.07c9.93.87,18.61-2.63,27.06-7.17,2.76-1.48,5.58-3,8.69-.76-9.37,4.62-18.26,10.25-29.09,11.4-6.7.71-13-.25-20.06-2.45,6.48,10.13,11.09,20.55,19.17,28.9-2,1.28-3.59.82-5.15.42a3,3,0,0,0-1.83-4.08c-5.78-1.66-7.85-9.12-14.61-9.18-.58,0-1.26-1-1.69-1.69-2.15-3.29-4.36-6.54-6.26-10-1-1.81-1.83-3.92-4.21-3.16s-1.88,3.1-1.51,5c1.76,9.2,7.12,15.34,16,18.18C154.3,106.33,155.12,107,155.29,108.62Z"/><path class="cls-7" d="M111.56,66.52c2.61,6.79-4,8.64-7.18,10.8C96.24,82.9,86.57,85,76.59,84.06c-4.2-.39-8.34-1.84-12.3.78l-11.86-5c.1-.35.21-.7.31-1.06,5.69-.8,11.42-1.37,17.05-2.48,7.79-1.52,14.76-5.51,22.31-7.85A44.22,44.22,0,0,1,111.56,66.52Z"/><path class="cls-7" d="M102.46,90c4.84.39,5.51-5.09,9.17-6.52,1.76-.68,3.1-2.4,4.75-3.45s4.07-1.51,5.49,0-.94,2.76-1.42,4.21c-.13.15-.26.29-.4.43l.43-.4c2.32.63,6-3.38,6.93,2-6.67,10.45-14.61,19.48-26.57,24.2-3.23,1.27-7,1.5-9.5,4.39l-2.08.14a1.27,1.27,0,0,1-.53-.41l-.07-1.38c.07-.41.15-.83.22-1.24l0,0a.94.94,0,0,0,1-1l0,0c2.56-.28,3.5-2.48,4.39-4.26,2.22-4.38,4-9,6-13.48l.45-1.67Z"/><path class="cls-7" d="M201.82,72.35c-3.11-2.22-5.93-.72-8.69.76-8.45,4.54-17.13,8-27.06,7.17a23.4,23.4,0,0,1-8-2.07c-2.64-1.23-3.3-3.46-2.91-6.13s2.56-3.15,4.65-3.64c1.69-.39,3.64.52,5.14-1,13.62-1.1,27.24-1.78,40.78.9,1.88.38,3.88.46,5.32,2Z"/><path class="cls-1" d="M65.93,90.3,72,89.85l5,.28a7,7,0,0,0,7.74,0l2.08-.19A10.57,10.57,0,0,0,94,89.27c3.58-1.63,4.75-.06,4.7,3.33l-1.18,1.6c-.54.08-.69.36-.48.85-.16.38-.33.76-.49,1.13-.53.06-.7.33-.52.83-.17.35-.34.7-.52,1l-1.8-.16c-2.52-3.73-6.2-1.85-9.21-1.44-3.84.53-7.53,2.18-11.3,3.3a24.07,24.07,0,0,1-4.76,1.14c-2.44.21-5.65.38-6.59-1.91-.76-1.84,2-3.49,3.76-4.56C67.89,93,68.47,91.9,65.93,90.3Z"/><path class="cls-7" d="M111.38,42.71c.29-3.69,3-6.07,4.93-8.83,1.5-2.18,3.49-1.44,5,.24,5.46,6.26,10.89,12.57,14,20.44-1.59,1.35-1.27,3.61-2.5,5.2a5.79,5.79,0,0,1-3.42-2.51C125.59,49.63,120.1,44.19,111.38,42.71Z"/><path class="cls-8" d="M138.19,61.48c2.4,3,2.17,6.72,2.92,10.14.65,2.95-1.76,4-4.11,4.39s-6.05.28-6.16-2.26c-.16-4-2.49-7.38-2.25-11.31C131.87,63,134.94,61.27,138.19,61.48Z"/><path class="cls-6" d="M138.19,61.48c-3.25-.21-6.32,1.52-9.6,1a32.66,32.66,0,0,0-15.44-16.26c-1.15-.6-3.55-1.13-1.77-3.47,8.72,1.48,14.21,6.92,18,14.54a5.79,5.79,0,0,0,3.42,2.51c1.23-1.59.91-3.85,2.5-5.2C137.21,56.47,137.55,59,138.19,61.48Z"/><path class="cls-7" d="M170.83,49.48c1.39,1.05.95,2.1.24,3.41-2.51,4.58-6.49,7.36-11.22,9.07-5.06,1.82-10.14,3.81-15.7,3.46.49-3.39,3.47-4.41,5.92-4.92A43.49,43.49,0,0,0,170.83,49.48Z"/><path class="cls-3" d="M98.69,92.6c0-3.39-1.12-5-4.7-3.33a10.57,10.57,0,0,1-7.14.63c3.46-2.94,7.86-3.05,11.93-3.23,2.43-.1,1.58,3,1.92,4.84l-.45,1.67Z"/><path class="cls-3" d="M84.77,90.09a7,7,0,0,1-7.74,0A7,7,0,0,1,84.77,90.09Z"/><path class="cls-5" d="M112,131.55c4.1,1.15,7,3.46,7.48,8,.71,6.49-3.43,10.43-8.29,12.8-10.14,4.93-21.09,6.06-31.43,1.18-5.37-2.54-10.93-6.58-9.86-14.32.4-2.9-1-3.56-3.72-3.62-7.62-.17-10.26-4-7.46-11.15,2.64-6.78,5.45-13.58,11.48-18.32A16.36,16.36,0,0,1,76,103.45c6.8-1.93,9.88.69,8.81,7.45-.17.57-.33,1.15-.49,1.72l-.22,0c-4.45,2.34-4.46,2.75-.22,6.06C86.24,120,86,122.6,87,124.55c-.06.8-.13,1.6-.19,2.4-3.85,1-7.44,2.46-10.11,5.61-1.75,2.06-4.37,3.57-3.14,7.06s4,2.68,6.57,2.93c.81.08,1.59.49,2.4.55,8.21.65,16.4,1.13,24.15-2.67C110.51,138.58,113.39,136.38,112,131.55Zm-33.32-16.4c-.93-1.69,2.66-7.56-4-5.35s-10.87,7-12.95,13.74c-.74,2.41-.4,4.63,1.49,6.29,2.07,1.81,4.52,1.76,6.89.53C76.1,127.27,79.28,122.54,78.72,115.15Z"/><path class="cls-1" d="M87,124.55c-1-2-.79-4.57-3.12-5.82,4.7-1.35,9.53.06,14.33-.89,12.92-2.54,24.74-6.66,32-18.68,1-1.58,2.11-3.11,3.61-.87,9.58,14.39,24.29,15.7,39.56,15.67.49,0,1,0,1.48-.06-5.34,4.72-11.48,3-17.43,2-4.27-.74-8.32-2.82-12.88-1.44-2.13.65-3.89-.69-5.19-2.16-2-2.26-3.64-2.5-6.17-.58A62.83,62.83,0,0,1,87,124.55Z"/><path class="cls-7" d="M155.29,108.62c-.17-1.65-1-2.29-2.7-2.84-8.89-2.84-14.25-9-16-18.18-.37-1.95-.93-4.28,1.51-5s3.2,1.35,4.21,3.16c1.9,3.42,4.11,6.67,6.26,10,.43.67,1.11,1.69,1.69,1.69,6.76.06,8.83,7.52,14.61,9.18a3,3,0,0,1,1.83,4.08A32.86,32.86,0,0,1,155.29,108.62Z"/><path class="cls-8" d="M91.34,114.76c2.5-2.89,6.27-3.12,9.5-4.39,12-4.72,19.9-13.75,26.57-24.2,1.66-1.16,3.27-2.43,5.51-1.91-4,16.52-15.64,24.93-31,29.49a3,3,0,0,0-2.67.89l-2.29.11-1.49.09Z"/><path class="cls-2" d="M84.13,112.67l.22,0,3.6.4c-.29.78-1.23,1.9.78,1.47a1.27,1.27,0,0,0,.53.41C86.7,116.1,83.91,117.85,84.13,112.67Z"/><path class="cls-1" d="M175,108.77c2.33,1.69,2.71,3.38,0,5.07Z"/><path class="cls-2" d="M99.25,114.64a3,3,0,0,1,2.67-.89A2.15,2.15,0,0,1,99.25,114.64Z"/><path class="cls-1" d="M172.92,105.89l1,1.13Z"/><path class="cls-2" d="M95.47,114.84l1.49-.09C96.51,115.56,96,115.64,95.47,114.84Z"/><path class="cls-1" d="M140,259.33l-2.62.11c-3.86-2.94-8.54-1.41-12.76-2-17.87-2.52-34.39-8.16-49.07-18.74-11.33-8.17-20.55-18.16-26.42-31-1.19-2.61-1-4.85.78-6.82,2-2.25,3.89-.05,5.74.69,3.9,1.55,6.76,4.59,9.86,7.22,2.38,2,4.27,4.25,7.47,1.39.31-.28,1.48.39,2.25.62-2.6,1.27-2.39,3.05-1,5.13,2.06,3.05,5,3.91,8.47,3.52,2.37,2.81,4.91,5,9,3.19.72-.33,1.51.35,2.06,1.05,2.46,3.16,4.78,4.78,7.22-.17.79-1.6,2.44-.16,3.54.18,5.71,1.78,11,4.29,17.16,5.35,12.36,2.13,24.5,1.45,36.74.29a10.91,10.91,0,0,0,4.52-1.88c6.1-4,13.1-5.67,19.84-8,6.93-2.4,11.91-7.39,16.56-12.63,6.24-7,13.18-13.3,19.69-20a53,53,0,0,0,12.38-21.54c.78-2.49,2-4.87,2.94-7.3.61-1.51,1.75-3.05,1.7-4.55-.23-6.68,1.93-11.94,6-17.58,4.6-6.42,5.1-14.6.43-22.1a45.15,45.15,0,0,1-2.52-5.3c-.91-2-1.62-4.29.47-5.84s4.16-.18,5.83,1.15c2.53,2,5.42,3.71,7,6.82.55,1.11,1.23,2.43,2.92,2.23,15.73,26.36,14.75,53.51,3.82,81.12a4.34,4.34,0,0,0-4,3.22c-1.48,4.29-4.46,7.62-7,11.19-14,19.74-33,33.21-55.42,41.74C176.37,256.57,158.36,259.19,140,259.33Zm48.63-26.79a43.1,43.1,0,0,0-13.27,4.65c-1.62.93-4.28,1.57-3.61,3.86.58,2,3,3.25,5.16,3.06,5.25-.43,10.27-1.83,14.45-5.23,1.2-1,2.54-2.43,1.56-4.2C192.09,233.17,190.37,232.79,188.64,232.54ZM215.36,221c-.07-1.23-.29-2-1.28-2.21a5,5,0,0,0-4.15.9c-3.85,2.71-7.12,6.23-11.59,8.1-1.86.78-2.09,2.53-1.27,4.17s1.86,2.49,4,1.8a24.7,24.7,0,0,0,13.47-10.87A12.27,12.27,0,0,0,215.36,221Z"/><path class="cls-9" d="M112,131.55c1.35,4.83-1.53,7-5.33,8.88-7.75,3.8-15.94,3.32-24.15,2.67-.81-.06-1.59-.47-2.4-.55-2.52-.25-5.35.52-6.57-2.93s1.39-5,3.14-7.06C79.4,129.41,83,128,86.84,127a66.12,66.12,0,0,0,15.42,1.86C105.73,128.83,108.93,130.09,112,131.55Z"/><path class="cls-5" d="M194.79,122.62c-5.15.91-8.54-4.06-13.54-4.54-1.69-.16-1.88-2.87-1.06-4.24,3.43-5.74,6.61-12,14.64-12.2,3.49-.07,6.47,1.86,9.54,3.3,6.33,3,7,7.2,2.17,12.26C203.35,120.5,199.88,123.05,194.79,122.62Z"/><path class="cls-5" d="M221.3,106C215,104.23,208.53,101,204.36,94.4c-1.19-1.88-1.5-4.26-.05-6,1.67-2.05,4.4-1.57,6.42-.78,5.72,2.24,10.32,6.28,14.66,10.48a6,6,0,0,1,1.55,5.93C226.26,106.28,224.1,105.74,221.3,106Z"/><path class="cls-5" d="M82.72,219.41c-3.48.39-6.41-.47-8.47-3.52-1.4-2.08-1.61-3.86,1-5.13C81.43,211.54,84.21,214.75,82.72,219.41Z"/><path class="cls-5" d="M139.9,137.28c-2.33-1.07-4.84-2.05-4.46-5.11.3-2.41,2.06-3.61,4.5-3.51s4.29,1.31,4,3.85C143.66,134.71,142.56,136.84,139.9,137.28Z"/><path class="cls-5" d="M133.33,145.16a4.48,4.48,0,0,1,4.22-4.2c1.87-.11,4,1.21,3.59,3.71a5.27,5.27,0,0,1-5.39,4.7C133.39,149.45,133.27,147.77,133.33,145.16Z"/><path class="cls-3" d="M88,113l-3.6-.4c.16-.57.32-1.15.49-1.72a20.34,20.34,0,0,0,8.86-13l1.81.16c.63,2.13-.82,3.67-1.54,5.41-1.11,2.63-3.89,4.35-4.13,7.46l0,0-1,1,0,0a1,1,0,0,0-.94,1.11Z"/><path class="cls-5" d="M64.45,154.5a3.8,3.8,0,0,1,3.5,3.55,3.16,3.16,0,0,1-2.53,3.7c-2.14.27-3.07-1.52-3.27-3.48C62,156.49,62.44,155,64.45,154.5Z"/><path class="cls-4" d="M140,259.33c18.35-.14,36.36-2.76,53.52-9.29C216,241.51,234.91,228,249,208.3c2.55-3.57,5.53-6.9,7-11.19a4.34,4.34,0,0,1,4-3.22c-2.43,8.76-7.76,16-13.5,22.61-21.41,24.8-48.88,38.43-81.23,42.68-7,.92-13.94,2-21,1.79C142.63,260.92,140.79,261.44,140,259.33Z"/><path class="cls-2" d="M89.84,110.92c.24-3.11,3-4.83,4.13-7.46.72-1.74,2.17-3.28,1.54-5.41L96,97c.49-.07.7-.33.52-.83.16-.37.33-.75.49-1.13l.48-.85,1.18-1.6,1.56.58c-2,4.51-3.8,9.1-6,13.48C93.34,108.44,92.4,110.64,89.84,110.92Z"/><path class="cls-8" d="M88.73,114.49c-2,.43-1.07-.69-.78-1.47v0a2.23,2.23,0,0,1,.72.13Z"/><path class="cls-2" d="M88.66,113.11a2.23,2.23,0,0,0-.72-.13,1,1,0,0,1,.94-1.11C88.81,112.28,88.73,112.7,88.66,113.11Z"/><path class="cls-2" d="M88.84,111.91l1-1A.94.94,0,0,1,88.84,111.91Z"/><path class="cls-6" d="M120.48,84.19l-.43.4c.14-.14.27-.28.4-.43Z"/><path class="cls-3" d="M96.54,96.18c.18.5,0,.76-.52.83C95.84,96.51,96,96.24,96.54,96.18Z"/><path class="cls-3" d="M97.51,94.2l-.48.85C96.82,94.56,97,94.28,97.51,94.2Z"/><path class="cls-9" d="M78.72,115.15c.56,7.39-2.62,12.12-8.52,15.21-2.37,1.23-4.82,1.28-6.89-.53-1.89-1.66-2.23-3.88-1.49-6.29,2.08-6.7,6.42-11.56,12.95-13.74S77.79,113.46,78.72,115.15Z"/><path class="cls-5" d="M188.64,232.54c1.73.25,3.45.63,4.29,2.14,1,1.77-.36,3.22-1.56,4.2-4.18,3.4-9.2,4.8-14.45,5.23-2.21.19-4.58-1.09-5.16-3.06-.67-2.29,2-2.93,3.61-3.86A43.1,43.1,0,0,1,188.64,232.54Z"/><path class="cls-4" d="M215.36,221a12.27,12.27,0,0,1-.85,1.89A24.7,24.7,0,0,1,201,233.72c-2.11.69-3.2-.27-4-1.8s-.59-3.39,1.27-4.17c4.47-1.87,7.74-5.39,11.59-8.1a5,5,0,0,1,4.15-.9C215.07,219,215.29,219.73,215.36,221Z"/></g></svg>