<svg id="Слой_1" data-name="Слой 1" xmlns="http://www.w3.org/2000/svg" viewBox="0 0 300 300"><defs><style>.cls-1{fill:#e6b262;}.cls-2{fill:#d28a34;}.cls-3{fill:#eec590;}.cls-4{fill:#3ab3e1;}.cls-5,.cls-6{fill:none;stroke:#fff;stroke-width:4px;}.cls-5{stroke-miterlimit:10;}.cls-6{stroke-linecap:round;stroke-linejoin:round;}</style></defs><title>update-email-icon</title><g id="Слой_11" data-name="Слой 11"><g id="E-mail"><path class="cls-1" d="M.34,76.57V196.08A17.32,17.32,0,0,0,17.66,213.4h225.1c9.57,0,16-7.76,16-17.32l.55-119.51L138.24,145.84c-5.35,3.07-11.34,3.7-16.68.61Z"/><path class="cls-2" d="M254.14,208.53l-86-79.78-29.86,17.09c-5.35,3.07-11.34,3.7-16.68.61l-32.28-18.6h0L5.39,208.3a17.24,17.24,0,0,0,12.27,5.1h225.1A15.21,15.21,0,0,0,254.14,208.53Z"/><path class="cls-3" d="M242.07,44.16H17.39A17.33,17.33,0,0,0,.07,61.79L.34,76.57l119.9,69.25c5.33,3.06,12.68,3.89,18,0L259.3,76.57l.09-15A17.32,17.32,0,0,0,242.07,44.16Z"/></g><circle class="cls-4" cx="248.84" cy="202.04" r="50.28"/><path class="cls-5" d="M224.21,191.65s6.22-16.1,24.63-16.44,24.74,16.19,24.74,16.19"/><polyline class="cls-6" points="275.14 186.44 273.57 191.46 268.56 189.89"/><path class="cls-5" d="M224.12,212.44s6.41,16.32,24.72,16.42,24.64-16.42,24.64-16.42"/><polyline class="cls-6" points="222.6 217.46 224.17 212.44 229.19 214.01"/></g></svg>