<svg id="Слой_1" data-name="Слой 1" xmlns="http://www.w3.org/2000/svg" viewBox="0 0 100 100"><defs><style>.cls-1{fill:#fff;}</style></defs><title>upload-icon</title><g id="Слой_7" data-name="Слой 7"><path class="cls-1" d="M88.55,90.66H11.45a2,2,0,0,1-2-2V78.19a2,2,0,0,1,4,0v8.47h73.1V78.19a2,2,0,0,1,4,0V88.66A2,2,0,0,1,88.55,90.66Z"/><path class="cls-1" d="M72.8,58.12a2,2,0,0,0-2.83,0L51.49,76.6V11.34a2,2,0,1,0-4,0V76.6C29.94,59.06,28.77,57.94,28.69,57.87A2,2,0,0,0,26,60.8c.05.05,1.5,1.43,22.1,22l.1.08.11.08a1.59,1.59,0,0,0,.43.26h0a1.39,1.39,0,0,0,.33.1l0,0a2.58,2.58,0,0,0,.39,0,2.33,2.33,0,0,0,.38,0l.09,0,.29-.08.09,0a1.23,1.23,0,0,0,.25-.14,1.48,1.48,0,0,0,.31-.25L72.8,61A2,2,0,0,0,72.8,58.12Z"/></g></svg>