<?xml version="1.0" encoding="utf-8"?>
<!-- Generator: Adobe Illustrator 23.1.0, SVG Export Plug-In . SVG Version: 6.00 Build 0)  -->
<svg version="1.1" id="Слой_1" xmlns="http://www.w3.org/2000/svg" xmlns:xlink="http://www.w3.org/1999/xlink" x="0px" y="0px"
	 viewBox="0 0 100 100" style="enable-background:new 0 0 100 100;" xml:space="preserve">
<style type="text/css">
	.st0{fill:#0F1111;}
</style>
<title>upload-icon</title>
<g id="Слой_7">
	<path class="st0" d="M88.6,90.7H11.4c-1.1,0-2-0.9-2-2V78.2c0-1.1,0.9-2,2-2s2,0.9,2,2v8.5h73.1v-8.5c0-1.1,0.9-2,2-2s2,0.9,2,2
		v10.5C90.5,89.8,89.7,90.7,88.6,90.7z"/>
	<path class="st0" d="M72.8,58.1c-0.8-0.8-2-0.8-2.8,0c0,0,0,0,0,0L51.5,76.6V11.3c0-1.1-0.9-2-2-2s-2,0.9-2,2v65.3
		C29.9,59.1,28.8,57.9,28.7,57.9c-0.9-0.7-2.1-0.5-2.8,0.4c-0.6,0.8-0.5,1.8,0.1,2.5c0,0,1.5,1.4,22.1,22l0.1,0.1l0.1,0.1
		c0.1,0.1,0.3,0.2,0.4,0.3l0,0c0.1,0,0.2,0.1,0.3,0.1l0,0c0.1,0,0.3,0,0.4,0c0.1,0,0.3,0,0.4,0h0.1l0.3-0.1h0.1
		c0.1,0,0.2-0.1,0.3-0.1c0.1-0.1,0.2-0.2,0.3-0.3L72.8,61C73.6,60.2,73.6,59,72.8,58.1C72.8,58.2,72.8,58.1,72.8,58.1z"/>
</g>
</svg>
