<svg width="40" height="43" viewBox="0 0 40 43" fill="none" xmlns="http://www.w3.org/2000/svg">
<path d="M0 14.4194V31.837C0 32.5805 0.280952 33.2936 0.781049 33.8193C1.28115 34.3451 1.95942 34.6404 2.66667 34.6404H37.3333C38.0406 34.6404 38.7189 34.3451 39.219 33.8193C39.7191 33.2936 40 32.5805 40 31.837V14.4558L21.3333 25.7354C20.9279 25.9814 20.4681 26.111 20 26.111C19.5319 26.111 19.0721 25.9814 18.6667 25.7354L0 14.4194Z" fill="#90ABF1"/>
<path d="M37.2871 7.28888H2.68443C2.33017 7.28882 1.97944 7.36297 1.65273 7.507C1.32603 7.65103 1.0299 7.86205 0.781639 8.12774C0.533378 8.39343 0.337964 8.70846 0.20681 9.05443C0.0756549 9.40041 0.0113892 9.77039 0.0177661 10.1428L0.0604327 12.5411L18.6444 23.7548C19.0479 23.9977 19.5048 24.1255 19.9698 24.1255C20.4347 24.1255 20.8916 23.9977 21.2951 23.7548L39.9391 12.5411L39.9538 10.1133C39.9564 9.74341 39.8894 9.3766 39.7565 9.03404C39.6237 8.69149 39.4277 8.37995 39.1798 8.1174C38.9319 7.85485 38.6371 7.64647 38.3122 7.50427C37.9874 7.36207 37.639 7.28887 37.2871 7.28888Z" fill="#90ABF1"/>
</svg>
