<svg id="Слой_1" data-name="Слой 1" xmlns="http://www.w3.org/2000/svg" viewBox="0 0 300 297.23"><defs><style>.cls-1{fill:#0e0f0f;}</style></defs><title>download_icon</title><g id="Слой_7" data-name="Слой 7"><path class="cls-1" d="M293,297.23H7.4a7.37,7.37,0,0,1-7.4-7.3V251.59a7.4,7.4,0,0,1,14.8,0v31H285.2v-31a7.4,7.4,0,0,1,14.8,0v38.34A7.06,7.06,0,0,1,293,297.23Z"/><path class="cls-1" d="M234.53,178.19a7.22,7.22,0,0,0-10.36,0h0l-68.44,67.56V7.3a7.4,7.4,0,0,0-14.79,0V245.75c-65.11-63.9-69.18-68.29-69.55-68.29A7.3,7.3,0,0,0,61,178.92a7.09,7.09,0,0,0,.37,9.13s5.54,5.12,81.75,80.34l.37.36.37.37c.37.36,1.11.73,1.48,1.09h0c.37,0,.74.37,1.11.37h3.33l1.1-.37h.37c.37,0,.74-.36,1.11-.36l1.11-1.1,81-80c2.95-2.92,2.95-7.3,0-10.59Z"/></g></svg>