<svg width="18" height="17" viewBox="0 0 18 17" fill="none" xmlns="http://www.w3.org/2000/svg">
<g clip-path="url(#clip0_17_11)">
<path d="M0 5.82935V12.8707C0 13.1713 0.119614 13.4596 0.332529 13.6721C0.545444 13.8847 0.834218 14.0041 1.13533 14.0041H15.8946C16.1957 14.0041 16.4844 13.8847 16.6973 13.6721C16.9103 13.4596 17.0299 13.1713 17.0299 12.8707V5.84408L9.0826 10.404C8.91001 10.5035 8.71423 10.5559 8.51494 10.5559C8.31565 10.5559 8.11987 10.5035 7.94728 10.404L0 5.82935Z" fill="#E8E8E8"/>
<path d="M15.8746 2.94678H1.14259C0.991761 2.94675 0.842439 2.97673 0.703346 3.03496C0.564253 3.09318 0.438177 3.17849 0.332481 3.2859C0.226784 3.39331 0.143587 3.52067 0.0877487 3.66054C0.03191 3.8004 0.00454912 3.94997 0.00726403 4.10051L0.0254292 5.07008L7.93751 9.60341C8.10929 9.70162 8.30381 9.75329 8.50177 9.75329C8.69973 9.75329 8.89424 9.70162 9.06602 9.60341L17.0036 5.07008L17.0099 4.08861C17.011 3.93907 16.9825 3.79078 16.9259 3.65229C16.8694 3.51381 16.7859 3.38786 16.6804 3.28172C16.5749 3.17558 16.4493 3.09134 16.311 3.03385C16.1727 2.97637 16.0244 2.94677 15.8746 2.94678V2.94678Z" fill="#E8E8E8"/>
</g>
<defs>
<clipPath id="clip0_17_11">
<rect width="17.0299" height="17" fill="white"/>
</clipPath>
</defs>
</svg>
