<svg id="Слой_1" data-name="Слой 1" xmlns="http://www.w3.org/2000/svg" viewBox="0 0 296.64 298.62"><defs><style>.cls-1{fill:none;}.cls-1,.cls-2,.cls-3{stroke:#dad9d9;stroke-width:6px;}.cls-1,.cls-3{stroke-miterlimit:10;}.cls-2,.cls-3{fill:#dad9d9;}.cls-2{stroke-linejoin:round;}</style></defs><title>image-icon</title><path class="cls-1" d="M294,51.43a13.53,13.53,0,0,0-13.5-13.5H16.19a13.53,13.53,0,0,0-13.5,13.5h0V247.19a13.53,13.53,0,0,0,13.5,13.5H280.66A13.3,13.3,0,0,0,294,247.39Z"/><circle class="cls-2" cx="231.43" cy="89.69" r="25.28"/><path class="cls-2" d="M212.12,260.69l-91.9-117.87a13.51,13.51,0,0,0-18.79-2.39,23.51,23.51,0,0,0-2.22,2L6.28,256.24l9.91,4.27Z"/><path class="cls-3" d="M258.93,208.93l-51.08-56.21a13.47,13.47,0,0,0-19-.85l-1,1L93.06,260.69H281.34A12.62,12.62,0,0,0,294,248.08h0Z"/></svg>