<svg id="Слой_1" data-name="Слой 1" xmlns="http://www.w3.org/2000/svg" viewBox="0 0 300 300.36"><defs><style>.cls-1{fill:#dad9d9;}</style></defs><title>icon</title><g id="Слой_15_копия_" data-name="Слой 15 (копия)"><path class="cls-1" d="M110.5,189.68h0a11.84,11.84,0,0,0,16.74,0l61.54-61.55a11.83,11.83,0,1,0-16.73-16.73L110.5,173A11.83,11.83,0,0,0,110.5,189.68Z"/><path class="cls-1" d="M159.51,166.33,141,184.8a31.53,31.53,0,0,1-8.81,27.94l-30,30A31.67,31.67,0,0,1,57.43,198l30-30a31.55,31.55,0,0,1,27.9-8.82l18.51-18.46-2.43-1.29a55.12,55.12,0,0,0-60.71,11.83l-30,30A55.34,55.34,0,0,0,119,259.48l30-30a55.14,55.14,0,0,0,11.84-60.71Z"/><path class="cls-1" d="M181,40.88l-30,30a55.14,55.14,0,0,0-11.84,60.71l1.21,2.52L159,115.56a31.53,31.53,0,0,1,8.81-27.94l30-30a31.67,31.67,0,1,1,44.79,44.79l-30,30a31.53,31.53,0,0,1-27.94,8.81l-18.56,18.56,2.52,1.2a55.12,55.12,0,0,0,60.71-11.83l30-30A55.34,55.34,0,1,0,181,40.88Z"/></g></svg>