<svg id="Слой_1" data-name="Слой 1" xmlns="http://www.w3.org/2000/svg" viewBox="0 0 300.36 300.36"><defs><style>.cls-1{fill:#dad9d9;}</style></defs><title>icon</title><g id="Слой_13_копия_" data-name="Слой 13 (копия)"><path class="cls-1" d="M240.16,258.75H195.82V243.11H104.54v15.64H60.2A5.28,5.28,0,0,0,54.92,264v6.36a5.29,5.29,0,0,0,5.28,5.28h180a5.28,5.28,0,0,0,5.28-5.28V264A5.27,5.27,0,0,0,240.16,258.75Z"/><path class="cls-1" d="M273.36,24.7H27A25.82,25.82,0,0,0,1.18,50.52V210A25.82,25.82,0,0,0,27,235.82H273.36A25.82,25.82,0,0,0,299.18,210V50.52A25.82,25.82,0,0,0,273.36,24.7Zm.23,186.36H26.77V49.45H273.59Z"/></g></svg>