<svg id="Слой_1" data-name="Слой 1" xmlns="http://www.w3.org/2000/svg" viewBox="0 0 299.51 297.23"><defs><style>.cls-1{fill:#e8e8e8;}</style></defs><title>upload-icon</title><g id="Слой_7" data-name="Слой 7"><path class="cls-1" d="M108.34,177.16a3.27,3.27,0,0,0,4.69,0h0l31-30.58V254.51a3.35,3.35,0,0,0,6.69,0V146.58c29.47,28.93,31.31,30.91,31.48,30.91a3.3,3.3,0,0,0,4.69-.66,3.2,3.2,0,0,0-.17-4.13s-2.51-2.32-37-36.36l-.17-.17-.17-.16c-.16-.17-.5-.34-.67-.5h0c-.16,0-.33-.17-.5-.17h-1.51l-.5.17H146c-.16,0-.33.16-.5.16l-.5.5-36.67,36.2a3.35,3.35,0,0,0,0,4.79Z"/><path class="cls-1" d="M299.13,144.54l-.23-4.46c-2.8-31.9-32-56.58-67.5-56.58a75.07,75.07,0,0,0-11,.82,3,3,0,0,1-3-1.41c-16.06-26.56-47.25-43.49-80.84-43.49A98.34,98.34,0,0,0,78.92,57.83a84,84,0,0,0-31,42.44,3,3,0,0,1-2.27,2C20.29,107.43,1.86,127.15.45,150.93l-.07,4.4C.79,168.71,6.66,181.27,17,190.85a60.43,60.43,0,0,0,37.88,15.67l.06.11h68.49a3,3,0,0,0,3-2.95v-1.1a3,3,0,0,0-3-3h-65l-1.37,0C29.85,199,7.64,178.73,7.36,154.31v-.92c.24-22.6,18.46-41.45,43.32-44.83l.36,0a3,3,0,0,0,2.47-2.2l.09-.36c8.87-35,43-59.53,83-59.53,32.69,0,62.88,17.19,76.92,43.78l.2.37a2.93,2.93,0,0,0,3.22,1.51l.41-.09A67.48,67.48,0,0,1,231.4,90.5c32.45,0,59,22.72,60.64,51.79l0,.38c0,.79.07,1.59.07,2.4,0,29.48-25.68,53.43-58.47,54.51l-1,0h-62a3,3,0,0,0-2.95,3v1.1a3,3,0,0,0,2.95,2.95h63.06l2.57,0,0-.13c35.4-2.31,62.77-28.85,62.77-61.38Z"/></g></svg>