<svg width="29" height="23" viewBox="0 0 29 23" fill="none" xmlns="http://www.w3.org/2000/svg">
<g opacity="0.7" clip-path="url(#clip0_35_512)">
<path d="M27.2698 10.5214C24.6448 8.65946 19.4409 5.52301 14.1698 5.52301C8.88584 5.52301 3.76209 8.67632 1.19424 10.536C0.174645 11.2752 0.170961 12.4603 1.18503 13.2039C3.74644 15.0827 8.87939 18.2756 14.1717 18.2756C19.464 18.2756 24.6596 15.0988 27.2818 13.2156C28.3216 12.472 28.317 11.2642 27.2698 10.5214ZM14.2426 15.7023C13.2979 15.7023 12.3744 15.4793 11.5889 15.0614C10.8034 14.6435 10.1912 14.0496 9.82968 13.3547C9.46816 12.6597 9.37357 11.8951 9.55787 11.1574C9.74217 10.4196 10.1971 9.74201 10.8651 9.21014C11.5331 8.67828 12.3842 8.31608 13.3108 8.16933C14.2373 8.02259 15.1977 8.09791 16.0705 8.38575C16.9433 8.67359 17.6893 9.16104 18.2141 9.78644C18.739 10.4119 19.0191 11.1471 19.0191 11.8993C19.0191 12.9079 18.5159 13.8752 17.6201 14.5885C16.7243 15.3017 15.5094 15.7023 14.2426 15.7023V15.7023Z" fill="#E8E8E8"/>
<path d="M14.2408 14.6353C16.1392 14.6353 17.6781 13.41 17.6781 11.8985C17.6781 10.387 16.1392 9.16174 14.2408 9.16174C12.3424 9.16174 10.8035 10.387 10.8035 11.8985C10.8035 13.41 12.3424 14.6353 14.2408 14.6353Z" fill="#E8E8E8"/>
</g>
<defs>
<clipPath id="clip0_35_512">
<rect width="27.6312" height="21.9998" fill="white" transform="translate(0.427002 0.850952)"/>
</clipPath>
</defs>
</svg>
