<svg xmlns="http://www.w3.org/2000/svg" viewBox="0 0 511 511"><defs><style>.cls-1{fill:#84523e;}.cls-2{fill:#edbf9d;}.cls-3{fill:#663f31;}.cls-4{fill:#e5da17;}.cls-5{fill:none;}.cls-6{fill:#fcfcfc;}.cls-7{fill:#39afea;}.cls-8{fill:#cee9f4;}.cls-9{fill:#4c2f26;}.cls-10{fill:#321912;}.cls-11{fill:#723a29;}.cls-12{fill:#830604;}.cls-13{fill:#af1c1c;}.cls-14{fill:#fff;}</style></defs><title>bear-magic</title><g id="magic"><path class="cls-1" d="M97,424.74c4.43,1,9.84,2.7,14.3,3.58,6.16,1.21,13.56-.74,19.53-2.3-2,15.9,1.28,33.71,5,49-12.44-1.64-29.74-5.76-41.49-10.21-.41-1.38-2.3-2.68-2.43-4.47-.24-3.49-1-5.59-1.53-9.06s1-6.23,1.79-9.7C93.29,436.74,95.77,429.58,97,424.74Z"/><path class="cls-1" d="M287.77,459.34a178.93,178.93,0,0,1-28.26,9.36,130.22,130.22,0,0,0,.85-31.32c-2.17-22.54-9.5-40.16-26.72-55.15-15-13.09-30-16.67-49.87-13.27-13.29,2.27-25.75,9.19-35.75,17.87-4.59,2.72-1.83,10.19-1.87,10.55-.57,5.07-1.29,11.56-4.6,15.49-.72.86-2.82,5-3.23,5.28-8,6.11-19.63,4.81-28.43,1.87-16-5.34-30.87-15.85-42.38-28.25A57.71,57.71,0,0,1,54.4,367.09c-.31-1.28.53-3.43-.85-4.43.08-3.88,2.71-8.75,4.43-12.09C66.53,334,78.8,322.26,93.72,311.43c1.73-1.26,5.07-1,6.47-.17,5.36,3,12.24,5.7,17.87,8.17,0,1.26,2.12,2.15,2.9,2.55,11.33,5.84,21.64,8.74,34,11.57,13.9,3.18,27.15,2.9,41.36,3.58,8.43.4,15,.65,23.32-.85,16.16-2.93,30.59-5.7,43.75-16.17,3.11-2.48,10.47-4.61,10.72-9.71,4,.07,8.28,3.72,7.49,7.32-.25,1.11-1.09,3.5-1,4.6a7.84,7.84,0,0,1-3.07,6c-4.77,3.74-6.38,7.61-6.81,13.78,0,.52-.27,3.46-1.36,3.24-2.47-.52-.4,1-.17,1.36,1.26,2.19.09,3.54-.17,5.79a8.43,8.43,0,0,0,1.19,5.44c2.75,4.43,0,8.2-2.55,11.75-.73,1-1.4,2.84-2,3.91-1.67,2.79-1,2.55,1.7,4.26,4.36,2.73,3.21,2.26,5.62-.51,1.36.68,5.17,4,5.61,5.27,1.56,4.56,1.48,8.89,4,13-1.68,5.12.95,9.63,2,14.36-1.73,1.21,2.34,3,2,4.43-.89,3.55-.23,7.08.34,10.73a116.4,116.4,0,0,1,1.54,23.49C288.26,452.6,287.45,455.34,287.77,459.34Z"/><path class="cls-2" d="M148.59,383.26c10-8.67,21.08-15.14,34.36-17.41,19.87-3.4,37.44,1.67,52.49,14.76,17.22,15,25.73,34.44,27.9,57a122.4,122.4,0,0,1-.81,30.36c-11.4,3.36-23.06,5.46-34.78,7.32a305.4,305.4,0,0,1-61.46,3.24A211.21,211.21,0,0,1,134,475c-3.7-15.31-6.83-30.68-4.84-46.58.4-.23.79-.46,1.19-.67,5.47-2.86,10.62-6,11.41-13,.11-1,.9-1.54,1.59-2.14,5.37-4.71,6.74-10.84,4.28-17.1C145.81,390.88,147.51,387.27,148.59,383.26Z"/><path class="cls-3" d="M98.23,424.7c-1.23,4.84-3.06,11.86-4.2,16.72A74,74,0,0,0,94,451.93a49.35,49.35,0,0,0,1.6,10.41,8.65,8.65,0,0,0,2.09,3.73,129.11,129.11,0,0,1-29.54-13.79c-.43-7.14-.83-13.9-.77-21,.06-6.32.22-15.47,1.62-22.13C77.3,415.32,88.89,420.85,98.23,424.7Z"/><path class="cls-4" d="M446.88,210.13c-2.91-.44-5.64-.75-8.32-1.29a3.64,3.64,0,0,0-4.12,1.57,57.49,57.49,0,0,1-5.05,6c-2.41,2.46-5.08,1.93-5.44-1.39-.6-5.7-3.5-8.27-8.91-9.23-3-.54-3.42-2.28-1.44-4.69a27.71,27.71,0,0,1,5.07-5.08c2.93-2.09,3.66-4.69,3.06-8a48.5,48.5,0,0,1-.51-5.12c-.09-1.39-.1-2.83,1.47-3.51a3.75,3.75,0,0,1,3.88.58c1.86,1.34,3.69,2.71,5.47,4.14a4.23,4.23,0,0,0,4.4.86c2.93-.93,6-1.55,9-2.26,1.39-.33,2.76-.31,3.72,1a2.78,2.78,0,0,1-.08,3.51c-4.32,6-4.05,11.69.51,17.61C451.61,207.53,449.86,210.21,446.88,210.13Z"/><path class="cls-4" d="M431.77,336.56c-1.92-.25-3.68-1.66-5.42-2.84-2.82-1.89-5.34-2.27-8.5-.64-2,1-4.3,3.22-6.59,1.34-2.6-2.14-.34-4.86.52-6.89,1.52-3.59.83-6.26-1.7-8.89a12.34,12.34,0,0,1-2.13-3.09c-.95-1.95-.33-3.31,1.87-3.79a5.77,5.77,0,0,1,1-.07c5.56,0,9.94-1.76,11.73-7.65a2.85,2.85,0,0,1,3.1-2.22c1.45.19,2,1.39,2.35,2.65,0,.11.08.21.1.32.85,5.65,4,8.55,9.85,8.51,1.61,0,3.26.49,3.72,2.41.41,1.76-.85,2.71-2,3.65l-.27.21c-4.63,2.81-6.34,6.59-4.79,12C435.52,334.78,434.3,336.43,431.77,336.56Z"/><path class="cls-3" d="M285.88,460.19c-.32-4,.63-7.93.81-11.92.37-7.94-1.18-15.63-2.39-23.37a27,27,0,0,1,0-10.82c.36-1.44-1.44-2.9.29-4.11,1.68,5,3.24,10,5.08,14.91,2.35,6.31,8.09,8.17,14.78,7.27-.22,4.41,1.14,9,.25,13.4-.35,1.73-1.39,3.18-.38,4.85A77.35,77.35,0,0,1,285.88,460.19Z"/><path class="cls-4" d="M439,157.16a6.9,6.9,0,0,1-7.16,7,7.09,7.09,0,0,1-6.86-7.42,7.51,7.51,0,0,1,7.1-7A7.2,7.2,0,0,1,439,157.16Z"/><path class="cls-3" d="M274.85,379c1-2.49,1.78-3.14,4-.66,3.2,3.47,6.9,6.63,12.07,6.93a1.9,1.9,0,0,1,1.79,1.33c-3.93,2.39-8,4.61-10.2,9-2.51-4.15-4-8.73-5.59-13.28C276.52,381,276.21,379.71,274.85,379Z"/><path class="cls-4" d="M335.6,196.2c0,2.87-2.13,4.94-5.29,5.05-3.47.11-6-2.25-6-5.53a5.38,5.38,0,0,1,5.4-5.42A6,6,0,0,1,335.6,196.2Z"/><path class="cls-4" d="M378.23,140.86a5,5,0,0,1-5.25,4.73,5.51,5.51,0,1,1-.12-11C375,134.69,378.29,138.59,378.23,140.86Z"/><path class="cls-4" d="M466.43,233.72c-.07,2.85-2.16,4.74-5.19,4.71a5,5,0,0,1-5.13-5.19,5.53,5.53,0,0,1,5.19-5C463.82,228.25,466.49,231.11,466.43,233.72Z"/><path class="cls-5" d="M382,331.72c2.56,1.57,1.8,3.85.71,5.62-1.23,2-3.34,3.37-5.86,2.37a5.22,5.22,0,0,1-3.38-5.46,4.13,4.13,0,0,1,4-4c1.58-.12,3.51-.75,4.45,1.41-3.82,1.06.32,3.08-.27,4.52C381.83,334.72,381.94,333.22,382,331.72Z"/><path class="cls-4" d="M453.51,275.79a4.3,4.3,0,0,1-4.62,4.38,5,5,0,0,1-4.68-5c.17-2.77,2.07-4,4.53-4.2S453.53,273.29,453.51,275.79Z"/><path class="cls-1" d="M299.34,284.45c-1.75-.25-2.27,1.76-3.32,2.81-6.13,6.14-12.5,12.89-19.91,17.61-10.67,6.8-21,12.8-32.94,16.85a161.17,161.17,0,0,1-35,7.66c-24.7,2.34-50.89.53-74-8.17-17.79-6.68-33.81-17.67-45.19-32.93-9-12.08-17.21-27.86-18.9-43.15a126,126,0,0,1-.25-18.64c.73-13.21,2.85-28.39,6.64-41.11,1.14-3.82,1.94-7.88,3.57-11.49,1.37-3-.09-1.17-1.79-1.27-2.63-.17-4.06,0-6.63-.51C61.44,170,53.74,162.52,51.68,153a52.53,52.53,0,0,1,.51-21.7c.17-.7,2.09-3.37,1.28-3.83,6.38-10.73,15.87-17.81,27.83-18.9,14.65-1.33,28,8.29,32.68,22,.44,1.28.61,2-.26,2.81-.4.4-1.4,1.24-1,1.79.51.72,1.22-.4,1.79-.77,2.39-1.56,3.32-2.14,5.62-3.83,1.59-1.18,4.1-2,5.87-1.28,12.37,4.76,24.41,6.43,37.53,7.66,13.54,1.27,24.76.23,38-1.53a121.39,121.39,0,0,0,36.26-11.23c3.65-1.82,7.16-1.26,10.47.76,1.14.7,1.27,3.75,2.29,2,1.2-2-1-1.24-2.29-2a4,4,0,0,1-1.79-4.34c1.06-5.39.71-5.75,2.55-9.19,4.08-10.54,13.43-19.81,24.26-20.94,21.8-2.27,41.14,17.83,39.57,38.3-.81,10.6-8,18.9-16.34,25a35.55,35.55,0,0,1-7.15,4.34c-2.3.95-1.95.92-1,2.56,3.58,6.25,7.75,13.48,10.47,20.17,5.87,14.44,10,28.89,11.74,44.42,2.2,19.85-.37,38.82-10.46,56.43C299.71,282.33,299.8,283.79,299.34,284.45ZM87.76,128.32a15.13,15.13,0,0,0-14.54,18.3c1.33,6.4,5.21,10.76,10.85,13.74,1.23.65,2.68,1.12,1.59,3-.47.81-1.7,1.84-.36,2.59s1.83-.84,2.47-1.7a180.23,180.23,0,0,1,13.38-16.88c4.65-5,4.2-3.29.91-9.35a18.82,18.82,0,0,0-2.52-3.67C96.4,130.86,92.69,128.37,87.76,128.32Z"/><path class="cls-1" d="M273.81,347.68c4.33-.59,8.65,1.15,12.08,3.23.9.55,1.29,2.73,2.22,1.54,1.11-1.43-.48-1-1.37-1.71-3.55-2.84-7.62-4-12.08-4.59-2.48-.35-3.7-3.09-3.4-5.11,1.87-15.49,15.89-16.75,25.7-11.57,1.25.66,1.44,3.59,2.55,1.7s-.91-1.8-2.21-2.72c-3.33-2.36-7.62-2.61-11.58-2.56-3.71.06-5.32-2.19-3.91-5.78a15.71,15.71,0,0,1,12.59-9.2c12.62-.86,21.62,6.5,27.24,16.86A42.05,42.05,0,0,1,324,362.66a21.57,21.57,0,0,1-1.53,3.4c-1.19,0-2,2.2-2.72,2.9-7.72,7.31-19.44,8.86-28.26,3.06-.86-.56-2.12-1.83-3.06-2-5-1.1-8.57-5.3-11.75-8.85C273.36,357.39,271.92,350.75,273.81,347.68Z"/><path class="cls-4" d="M327.43,227.09c2.51.51,6.19.56,9.61,1.44,2,.53,2.86.8,4.34-.59,2.42-2.27,4-5.2,6.64-7.24,1.49-1.16,5.33-2.53,7.41-1.53s2.75,5.55,2.8,7.49c.09,3,.51,6.05.43,9-.06,2.2,1.24,2.49,3.06,3.66a43.78,43.78,0,0,1,8.26,6.81,4.86,4.86,0,0,1-1,7.74,33.56,33.56,0,0,1-9.7,3c-3.62.54-3.89,1.85-4.43,5.36-.43,2.82-2.74,6.43-4,9-1.7,3.48-5.7,3.07-8.26.08-1.92-2.25-4.66-4.58-6.12-7.15-1.28-2.25-1.5-2.13-3.92-1.87-3.29.35-6.56.88-9.87.94-4.14.07-6.21-4.14-4.17-7.58,1.86-3.15,4.1-6.07,6.13-9.11,1.15-1.72,1.15-2.38.17-4.25-1.49-2.83-3.76-6.73-4.51-9.87C319.46,229.05,323,227,327.43,227.09Z"/><path class="cls-6" d="M432.84,187.5c3.61.23,6.85-1.6,10.37-1.86,1-.07,2.22-.73,3,.08.92,1,0,2.22-.51,3.13-2.58,4.56-4.36,9,0,13.6,1,1.06,2.75,3,1.5,4.46s-3.54.15-5.55,0c.33-.39.43-.64.59-.67,1.18-.29,2.77.93,3.53-.31s-.45-2.69-1.29-3.62c-3.41-3.82-3.15-7.65-.62-11.76.67-1.1,1.86-2.6.93-3.72s-2.61-.18-3.9,0c-2.14.3-4.23.94-6.34,1.42a1.46,1.46,0,0,1-1.71-.79Z"/><path class="cls-6" d="M426.88,214.65c-2.57-.62-2.25-2.84-2.46-4.45-.41-3.26-1.94-4.87-5.22-4.94a10,10,0,0,1-2.33-.47c-.67-.17-1-.64-.45-1.21.93-.92.35.59.86.59s1.12.43,1.63.35c4.9-.79,5.88,2.46,6.59,6.16C425.76,212,425.62,213.59,426.88,214.65Z"/><path class="cls-6" d="M429.4,212.89l.1-.2-.09.21Z"/><path class="cls-6" d="M436.27,318.65c.8-1.14,1.42-2.22-.65-2.66-.78-.16-1.55-.4-2.33-.54-3.58-.63-6-2.33-6.43-6.27a3.89,3.89,0,0,0-1.37-3c-.36-.25-1.33.35-1.06-.68a1.71,1.71,0,0,1,.92-.93c.74-.31,1,.37,1.19.86a35.92,35.92,0,0,1,1.66,4.84c.52,2.28,1.64,3.6,4.09,3.81a17.85,17.85,0,0,1,3.95,1c.91.3,2.41.12,2.37,1.46a2.34,2.34,0,0,1-2.23,2.16Z"/><path class="cls-6" d="M431.7,322.67c.05,2.81.43,5.5.73,8.22.34,3-.5,3.54-3.24,2.15-1.93-1-3.76-2.17-5.63-3.26L424,329c1.52.86,3,1.76,4.58,2.59.75.4,1.48,1.43,2.41.71s.29-1.69.28-2.58C431.24,327.36,430.24,324.91,431.7,322.67Z"/><path class="cls-6" d="M433.52,321.4c.31-1.53,1.49-2.18,2.75-2.75l.11.09c-.34,1.54-1.56,2.14-2.85,2.66Z"/><path class="cls-6" d="M433.53,321.4l-.38.4c-.28-.51.11-.39.37-.4Z"/><path class="cls-6" d="M324.88,389.74c.09.28.33.71.24.8-.37.38-.74.13-1.06-.19Z"/><path class="cls-6" d="M435.42,153.48c2.58,2.91,2.44,4.94-.79,8.31C435.91,158.68,437.37,156.19,435.42,153.48Z"/><path class="cls-6" d="M463.75,235.56c.53-1.37.13-2.82.09-5.13,1.42,2.41,1.58,3.83-.11,5.12Z"/><path class="cls-6" d="M382,331.72c-.1,1.5-.21,3-.31,4.49.59-1.44-3.55-3.46.27-4.52Z"/><path class="cls-7" d="M176.15,137.13A150.46,150.46,0,0,1,127,129.34a4.44,4.44,0,0,1-2.55-6.64c10.3-15.93,20-31.83,30.38-47.74,7.9-12.18,16.1-24.68,24.13-36.77,1.15-1.74,4.34-3.6,6.13-.89,18.59,25.55,35.09,53.41,52.34,79.53,2.91,4.42,2.2,5.69-2.81,7.79C218.48,131.37,197.24,137,176.15,137.13Z"/><path class="cls-8" d="M185.34,44c4,6.71,8.14,13.37,12.07,20.13C207.73,81.89,218,99.74,229.16,117c1.79,2.75,1.19,3.71-1.5,4.85-6,2.55-6.06,2.69-9-3.15-11.36-22.93-21.53-46.41-32-69.73-.68-1.51-1.43-3-2.15-4.47Z"/><path class="cls-6" d="M347.25,268.44c1.07-4.39,2.12-8.79,3.22-13.18.43-1.67,1.89-2.22,3.31-2.69,2.6-.86,5.23-1.64,7.85-2.43,2.12-.64,2.38-1.57.5-2.89-2.43-1.71-4.83-3.45-7.3-5.1a5.1,5.1,0,0,1-2.46-4.27q-.18-5.64-.26-11.29c0-.79.23-1.79,1.22-1.76,1.16,0,.8,1.14.91,1.87a1.37,1.37,0,0,1,0,.35c-1.63,8.78,2.21,14.64,9.87,18.47a7.27,7.27,0,0,1,1.61,1.27c1.74,1.67,2.06,3-.82,3.73-3.31.88-6.53,2.15-9.88,2.86-2.55.55-3.43,2-4,4.33C350.12,261.38,349.88,265.31,347.25,268.44Z"/><path class="cls-9" d="M288.49,128.45c-.12,6.9-4.27,13.36-8.94,17.49-.92.81-3.47-1.13-4.35-2.1a90.59,90.59,0,0,0-12.43-11.13,1.85,1.85,0,0,1-.88-2.05c1.27-4.89,2.7-9.71,7-13,4.8-3.66,11.52-4.29,15.29.67C286.07,120.89,287.94,126,288.49,128.45Z"/><path class="cls-10" d="M289.78,129.7c-.71,5.4-2.47,10.71-6.76,15-1.51,1.5-4,2.85-1.51,5.54.19.2.07,1-.17,1.21s-.83.12-1.18-.22-.83-.79-1.23-1.2c-5.6-5.73-11.32-11.32-18.05-15.74-1.74-1.14-1.57-2-.9-3.87A65.24,65.24,0,0,1,264,120.6c2.95-5.36,8.59-9.08,12.72-8.36,5.92,1,11.42,6.57,12.49,12.65C289.5,126.35,289.58,127.84,289.78,129.7ZM286.93,128c-.54-2.4-1.13-5.46-3.05-8-3.77-5-8.68-5.7-13.49-2-4.27,3.25-5.7,8.07-7,13a1.83,1.83,0,0,0,.88,2.05,90.52,90.52,0,0,1,12.42,11.14c.89,1,1.76.79,2.68,0A20.87,20.87,0,0,0,286.93,128Z"/><path class="cls-9" d="M74.53,143.38c.1-6.07,6.22-12.83,11.49-13.15,5.81-.34,15.35,6.59,16.09,12.13.14,1.07-1.09,3.75-1.66,4.47-3.19,4-7.12,7.63-9.83,12-1,1.59-4.29,1.21-6,.51C79,157,74.44,149.4,74.53,143.38Z"/><path class="cls-10" d="M87.76,128.32c4.93.05,8.64,2.54,11.78,6a18.82,18.82,0,0,1,2.52,3.67c3.29,6.06,3.74,4.37-.91,9.35a180.23,180.23,0,0,0-13.38,16.88c-.64.86-1.06,2.49-2.47,1.7s-.11-1.78.36-2.59c1.09-1.89-.36-2.36-1.59-3-5.64-3-9.52-7.34-10.85-13.74A15.13,15.13,0,0,1,87.76,128.32Zm-12,15.23c-.1,6,4.22,12.49,9.89,14.79a3.07,3.07,0,0,0,4.14-1.29c2.72-4.37,6.31-8,9.5-12a3,3,0,0,0,1-2.4c-.74-5.54-8.39-11.7-14.19-11.36C80.83,131.58,75.87,137.48,75.78,143.55Z"/><path class="cls-2" d="M192.64,320.75c-13.31.25-26.83-5-38.14-15.31-8.69-7.9-13.52-18.16-15.58-29.79-4.55-25.66,12.65-49.76,35.22-59.28,8.3-3.49,16.9-5.81,25.92-5.41,28.51,1.29,51.63,20.43,55.31,49.32,2.3,18.11-4.78,33.43-18.68,45.26C224.68,315.76,210.66,320.86,192.64,320.75Z"/><path class="cls-10" d="M123,217.45c1.17-7.16,4.83-12.81,11.11-16.34,6.78-3.81,13.8-3.34,20.53.5a18.44,18.44,0,0,1,7.66,8.07c.9,1.87,1.71,4.13-.43,5.56s-3.76.15-5.35-1.51c-6.53-6.81-14.63-8-21.09-3.13a19.38,19.38,0,0,0-5.86,7.88c-.67,1.48-1.51,3.06-3.29,3.17C123.39,221.82,123,219.77,123,217.45Z"/><path class="cls-10" d="M266,215.27c.07,1.76-.35,3.28-2.28,3.71a3.63,3.63,0,0,1-4.35-2.52,17.05,17.05,0,0,0-4.46-6.78c-5.27-4.79-11.83-4.7-16.74.37-1.11,1.14-2,2.53-3.08,3.65a3.69,3.69,0,0,1-4.4,1c-1.51-.76-1.79-2.17-1.23-3.82,2.23-6.51,6.52-11.1,13.17-12.81a17.61,17.61,0,0,1,18.32,5.51A19.64,19.64,0,0,1,266,215.27Z"/><path class="cls-10" d="M145,164.92a21,21,0,0,0-18.25,9.6,29.59,29.59,0,0,1-1.8,2.48,2.74,2.74,0,0,1-3.14.71c-1.15-.38-1.41-1.37-1.49-2.45-.33-4.29,2.28-7.34,4.65-10.34a25.17,25.17,0,0,1,15.78-9.47,11.71,11.71,0,0,1,8.47,1.91c1.7,1.08,3,2.85,2.45,4.88s-2.44,2.85-4.62,2.69C146.35,164.88,145.66,164.92,145,164.92Z"/><path class="cls-10" d="M242.05,151.73q13.63.59,20.11,12.62a11.16,11.16,0,0,1,.83,2.24c.42,1.54.36,3-1.15,4-1.68,1-3.21.25-4.28-1a26.94,26.94,0,0,0-5.09-5c-3.78-2.62-7.83-4.2-12.51-3.86a13.06,13.06,0,0,1-3.42,0c-1.38-.29-3.76-.25-3.7-1.72.08-2-.08-4.69,2.54-5.9A13.45,13.45,0,0,1,242.05,151.73Z"/><path class="cls-10" d="M200.4,219.72c7.74.2,15.28,1.69,21.6,6.92,8.8,7.29,8.74,16.9-.1,24.13-13.43,11-30.41,10.79-43.62-.48-8.48-7.23-7.88-18.86,1.32-25.12C185.82,220.94,192.91,219.94,200.4,219.72Z"/><path class="cls-11" d="M197.74,236.26a15.6,15.6,0,0,1-8.85-2.19c-2.73-1.71-2.74-4.32.05-6,6.28-3.75,12.86-3.64,19.33-.68,3.56,1.62,3.48,4.79.08,6.74C205.18,236,201.66,236.28,197.74,236.26Z"/><path class="cls-12" d="M229,267.21c-2.56,8.24-5.88,16.93-11.19,23.62-1.76,2.22-4.6,4.16-6.51,6.26-.85.92-1.12,2-2.56,1.91-2.65-3.89-6.56-9-10.79-11.25-9.43-5-20.37-3.92-30.19-.37-4.19-4.63-5.77-11-7.15-16.85-.61-2.59-2.48-7.09-2.17-10.21a104.09,104.09,0,0,0,23.49,11c16.19,4.93,31.12,3.54,45.83-5.11a23.79,23.79,0,0,1,2.43-.25Z"/><path class="cls-13" d="M167.85,287c9.82-3.55,20.63-4.22,30.06.75,4.23,2.22,8.14,6.6,10.79,10.48-4.7,4.7-11.54,6.25-17.61,5.49-9.33-1.15-16.9-6.57-22.22-14.17A13.05,13.05,0,0,1,167.85,287Z"/><path class="cls-10" d="M156.46,259.52c-.59.19-.71.21-.81.26-1.32.64-2.13,3.3-3.74,2-1.86-1.47.05-3.38.88-4.85a10.65,10.65,0,0,1,5.33-5.13c1-.39,2-.68,2.73.47s0,1.79-.77,2.33c-1.38,1-1.44,1.73-.06,2.86,17.88,14.52,45.76,21.41,68.51,5.93.83-.56,2-.91,2.25-2,.44-1.79,1.67-2.11,3.13-1.79a3.5,3.5,0,0,1,2.8,3.13c.19,1.74-1.18,1.79-2.55,1.92s-1.35,1.65-1.77,2.63C227.53,278.86,222,290,212.3,298.4s-21,9.54-32.15,3.51C173,298,167.82,292.18,164.1,285a75.85,75.85,0,0,1-7.19-23C156.79,261.25,156.64,260.5,156.46,259.52Zm51.35,37.91c1.44.12,2.32-.81,3.16-1.74,1.91-2.1,3.9-4.13,5.66-6.35,5.32-6.69,9.77-13.89,12.33-22.13l.23-.35-.36.23a4,4,0,0,0-1,.28c-14.71,8.65-30.19,9.88-46.37,4.95-7.55-2.3-14.39-6-21.19-10.36-.31,3.12.85,5.71,1.46,8.3,1.38,5.83,3,11.65,7.22,16.27a4.89,4.89,0,0,0,.43,1.63c5.31,7.6,12.33,12.79,21.65,13.95C197.13,302.86,203.11,302.13,207.81,297.43Z"/><path class="cls-11" d="M228.83,267.09l.36-.23c-.08.11-.15.23-.23.35Z"/><path class="cls-3" d="M116.25,321.4c-1.76-1.72-1.06-1.33-.74-3.25-25.65-10.77-43.82-29.71-50.81-56.94-3.54-13.81-3.05-28.78-.76-42.76,2.22-13.63,6.66-26,12.63-38.43,1.12-2.3,2.42-1.56-.25-2-6-1.08-12.59-2.42-17.36-6.51a30,30,0,0,1-10-20.3c-.42-5.91-.24-13,2-18.51A16.11,16.11,0,0,1,55.13,127c.81.47,1.07,3.11.9,3.8-1.57,6.59-2.33,13.24-.89,20,2.06,9.56,7,16.42,17.2,18.55a54.91,54.91,0,0,0,7.76,1.1c1.7.1,3.67.27,2.3,3.3a87.86,87.86,0,0,0-3.72,11.37,168.73,168.73,0,0,0-6.36,39c-.31,5.6.68,11.11,1.29,16.66,1.69,15.29,7.7,29,16.7,41.05,11.39,15.26,26.69,25.89,44.48,32.57a159.41,159.41,0,0,0,71.84,9.79c11.32-1.07,22.65-1.77,33.59-5.48a155,155,0,0,0,34-16c7.42-4.73,13.48-10.89,19.61-17,1.05-1,3.66-2.73,5.41-2.49a60.13,60.13,0,0,1-14.42,18.77c-7.75,7.64-10.47,7.15-10.65,10.46-.24,5.1-4.8,6.66-7.92,9.14-13.16,10.47-28.88,14.74-45,17.66a111.23,111.23,0,0,1-25.15,2,241.27,241.27,0,0,1-42.21-5.56,150.67,150.67,0,0,1-35.72-12.62C117.34,322.66,116.25,322.66,116.25,321.4Z"/><path class="cls-3" d="M139.13,413.7c-1.59,6.92-7.62,11.17-13.6,12.64-10.21,2.52-21.08-.2-30.44-4.21-16.35-7-30.71-18.22-38.62-34.73a33.87,33.87,0,0,1-1.21-25.14c1.37,1,1.12,3.57,1.44,4.85A52.7,52.7,0,0,0,69.63,390.5a97.47,97.47,0,0,0,41.45,26.34c8.8,2.94,17.41,3.69,25.37-2.42A11.44,11.44,0,0,1,139.13,413.7Z"/><path class="cls-3" d="M144.32,395.68a14.94,14.94,0,0,1-2.21,14.26c-.92,1.14-2.27,2.15-3.28,3.23-1.24-.26-2.3-1.51-1.57-2.37a24.83,24.83,0,0,0,5.67-13.53C143,396.91,144,396,144.32,395.68Z"/><path class="cls-3" d="M274.9,348.09c-1.89,3.07-1.17,7.72,2.17,11.46,3.18,3.56,6.42,7.14,11.45,8.24a8.94,8.94,0,0,1,2.62,1.58c8.82,5.8,19.48,4.83,27.2-2.49.74-.7,1.38-1.57,2.56-1.53-3.58,9.64-11.36,14.15-20.68,16.44a19,19,0,0,1-17.3-3.81c-.61-.5-1.52-.73-1.68-1.59-.34-1.79-2.94-3.19-1.85-4.82.9-1.37,2.79.67,4.31.61,1.17-.05,2.92.76,3.33-.76.53-1.95-1.57-1.88-2.72-2.32-6.57-2.57-11.81-6.28-13.22-13.85-.4-2.17.21-4.09.7-6C272.09,348.08,273.22,346.74,274.9,348.09Z"/><path class="cls-10" d="M148.59,383.26c-1.08,4-2.78,7.62-1,12.25,2.46,6.26,1.09,12.39-4.28,17.1-.69.6-1.48,1.13-1.59,2.14-.79,7-5.94,10.12-11.41,13-.4.21-.79.44-1.19.67-6,1.55-12,2.65-18.15,1.44-4.46-.88-8.87-1.95-13.31-2.94a122.46,122.46,0,0,1-26.57-14.74A97.52,97.52,0,0,0,69,431.49c-.06,7.13.75,14.26,1.18,21.4-2.93,1-3.57-.94-4-3.14a93.66,93.66,0,0,1-.27-33.8c.9-5.32.08-9-3.83-13.21-14.92-16.25-16.86-33.93-6.52-53.36,8.64-16.25,21.76-28.39,36.65-38.79.56-.4,1.14-.75,1.91-1.24-2.93-2.47-5.87-4.77-8.6-7.29C69.79,287.56,61.71,269.32,60,248.23c-1.94-24.11,3.46-46.75,14.73-68.06a3.14,3.14,0,0,0,.13-.89,27.83,27.83,0,0,1-17-6.2c-11.24-9.34-13.84-21.44-10.42-35,3.82-15.15,13-25.84,28.23-30.43,14.44-4.35,28.65,1.91,35.66,15.31,1.42,2.72,2.56,5.58,3.91,8.52,2-1.71,4.32-2.65,4.92-5.93.49-2.65,2.56-5.06,4.06-7.49C141.49,90.13,159.64,62.78,178,35.55c3-4.44,6.14-4.55,9.06-.18q27.44,41.06,54.77,82.19c.8,1.21,1.46,2.51,2.6,4.48A48.51,48.51,0,0,1,247,109.85c5-12.75,13.5-21.69,27.83-22.65,15.27-1,27.2,5.48,34.87,18.72,10.94,18.89,5,39.34-14.14,50.21-2.07,1.17-4.22,2.22-6.46,3.4a145.37,145.37,0,0,1,20.3,46.39c1.72,7.21,2.43,14.59,3.44,21.93,2.05,14.88-1.07,29-4.72,42.92-3.73,14.18-12.62,25.51-24.29,34.49-1.89,1.46-3.83,2.85-5.77,4.28,3.94,3.43,4.41,3.42,8.54,1a19.4,19.4,0,0,1,11.51-2.72,2.88,2.88,0,0,0,3.26-1.66c7.45-13.39,15-26.72,22.51-40.07a7.14,7.14,0,0,0,.37-1.09c-1.1-.14-2.11-.25-3.11-.4-5.08-.74-7-4.14-4.95-8.91a42.16,42.16,0,0,1,5.68-9.36,2.87,2.87,0,0,0,.36-3.65,41.06,41.06,0,0,1-3.73-8.82c-1.28-5.06,1.33-8.91,6.48-9.57,4-.51,7.77.58,11.46,1.69a3.59,3.59,0,0,0,4.37-1.34,39.14,39.14,0,0,1,8.35-7.1c5.39-3.49,10.71-1,11.5,5.38a59.5,59.5,0,0,1,.35,9.25c-.08,2.27.42,3.82,2.5,5.08a41.57,41.57,0,0,1,7.78,6.17c5,5.07,4,10.53-2.7,13.15a62.86,62.86,0,0,1-8.54,2.5,3.83,3.83,0,0,0-3.17,3.05,61.21,61.21,0,0,1-3.13,9.05c-3.07,6.49-9.15,7.09-13.59,1.48-1-1.24-1.88-2.55-3.08-4.18-1,1.58-1.81,2.85-2.56,4.19-6.91,12.3-13.72,24.65-20.78,36.87-1.46,2.53-1.33,3.71,1.05,5.59,19.53,15.41,20.22,47.55,1.39,63.45-5.26,4.44-11.29,7.28-18.44,7.17a27.54,27.54,0,0,0-5,.87A1.9,1.9,0,0,0,291,385.3c-5.17-.3-8.87-3.46-12.07-6.93-2.27-2.48-3.06-1.83-4,.66-2.41,2.77-4.59,2.74-9,0-2.72-1.72-3.33-3.87-1.66-6.65.64-1.07,1.11-2.27,1.83-3.28,2.57-3.54,4.42-7,1.67-11.46-1-1.63-.61-3.82-.39-5.73.26-2.25.83-4.42-.43-6.6-.23-.4-1.3-2.44,1.18-1.93,1.08.23.6-.93.63-1.44a20.08,20.08,0,0,1,8-14.91c1.69-1.32,2.67-2.53,2.55-4.72a12.34,12.34,0,0,1,.58-3.35c.79-3.61-1.71-6.5-5.69-6.57a146.44,146.44,0,0,1-37.63,14.09c-2.87.67-5.78,1.18-8.68,1.71-.52.1-1.24.09-1.34-.68s.48-1,1-1.16c2.39-.73,4.78-1.52,7.2-2.13,17.92-4.48,34.52-11.72,48.75-23.68,5.67-4.76,10.79-10.12,14.07-16.93a23.64,23.64,0,0,0,1.36-2c10.1-17.61,12.94-36.7,10.75-56.55-1.72-15.53-6.61-30.32-12.48-44.76a161,161,0,0,0-9.7-19.29c-.94-1.64-1.23-2.58,1.08-3.53a34.24,34.24,0,0,0,6.91-4.41c8.38-6.12,14.24-14,15.05-24.58,1.57-20.47-14.64-38.82-36.44-36.55-10.82,1.13-18.77,9.26-24,20a24.71,24.71,0,0,0-2.54,8.29,3.06,3.06,0,0,0,1.61,3.7c1.32.8,4,1.57,2.78,3.55-1,1.71-2.83-.33-4-1-3.31-2-6.11-2-9.76-.19a109.93,109.93,0,0,1-34.62,10.47c-13.29,1.76-26.66,3.31-40.19,2-13.13-1.23-26.07-3-38.44-7.77-1.77-.68-3.19-.76-4.78.42-2.29,1.69-4.72,3.2-7.12,4.75-.57.38-1.31.74-1.82,0-.38-.54.1-1.07.5-1.47a2.75,2.75,0,0,0,1-3.05c-4.68-13.67-16-22.79-30.63-21.46-12,1.09-21,7.81-26.41,18.87-1.57,1.16-2,3-2.7,4.65a37.35,37.35,0,0,0-2.72,17.1,26.66,26.66,0,0,0,9.43,19.07c4.77,4.09,10.65,6,16.7,7.06,2.67.48,3,1.12,1.87,3.43a141.78,141.78,0,0,0-12.62,38.9c-2.28,14-2.7,27.93.84,41.74,7,27.22,24.2,45.46,49.84,56.22a140.45,140.45,0,0,0,17.07,6.11c.88.24,2,.45,1.78,1.64s-1.45,1.24-2.51,1a13.08,13.08,0,0,1-1.3-.42l-15.13-4.22c-5.63-2.47-11-5.53-16.31-8.52-1.4-.78-2.6-1.52-4.33-.26-14.92,10.84-27.95,23.38-36.5,40-1.71,3.33-3.31,6.77-3.38,10.65C53,371.61,54,379.8,57.66,387.46c7.9,16.51,21.8,26.46,38.14,33.47,9.37,4,19,6.62,29.25,4.1,6-1.47,11.45-4.07,13-11,0-.42,0-.84,0-1.26,1-1.07,2.1-2.09,3-3.24,3.17-4,4.33-8.35,2.64-13.29a8.57,8.57,0,0,0-.53-2.31c-1.31-2.39-3.3-4.23.09-7.1,2.31-2,.16-8.72-2.84-11.08a18.11,18.11,0,0,0-9.76-3.64c-12.5-1.29-22.27-7.27-29-18a8.81,8.81,0,0,1-.76-1.54c-.36-.93-1-2,.2-2.71,1-.57,1.62.48,2.2,1.14a11.38,11.38,0,0,1,1,1.39c.25.39.47.8.88,1.49,2.16-2.85,2.49-5.9,4-8.38.48-.79.8-2.32,2.06-1.88,1.46.52.26,1.72.16,2.62A24,24,0,0,1,109,354c-1,1.91-.66,3.35.72,4.56,6.17,5.41,12.91,9.7,21.52,9.66C139.55,368.23,145.71,373.5,148.59,383.26ZM320.9,365.35a21.43,21.43,0,0,0,1.88-3.22c4.3-11.44,3.76-22.67-2.08-33.41-5.62-10.35-13.7-17.13-26.31-16.27-5.05.35-8.95,2.69-10.88,7.59-1.42,3.59-.58,4.85,3.13,4.79,4-.06,7.8.37,11.13,2.73,1.3.92,3.93,1.73,2.84,3.58s-2.78-.37-4-1c-9.8-5.18-21.45-3.51-23.53,10.79-.3,2-.14,3.07,2.34,3.41a24.66,24.66,0,0,1,12.12,5.29c.89.71,2.58,1.5,1.47,2.93-.93,1.19-2.08-.11-3-.66-3.43-2.08-6.77-4.37-11.1-3.78-1.68-1.35-2.81,0-3.11,1.16-.49,1.91-1.1,3.83-.7,6,1.41,7.57,6.65,11.28,13.22,13.85,1.15.44,3.25.37,2.72,2.32-.41,1.52-2.16.71-3.33.76-1.52.06-3.41-2-4.31-.61-1.09,1.63,1.51,3,1.85,4.82.16.86,1.07,1.09,1.68,1.59a19,19,0,0,0,17.3,3.81C309.54,379.5,317.32,375,320.9,365.35ZM175.78,134.55c21.08-.18,42-4.21,58.17-11,5-2.09,5.11-2.16,2.2-6.57q-25.87-39.18-51.79-78.33c-1.79-2.72-2.65-1.44-3.8.3-8,12.09-16.18,24.11-24.08,36.28-10.34,15.92-20.44,32-30.75,47.91-1.65,2.56-1.15,3.48,1.66,4.42A144.74,144.74,0,0,0,175.78,134.55Zm151.61,93.84c-4.39-.09-5.5,1.33-4.69,4.73a38.49,38.49,0,0,0,3.7,8.83,4.41,4.41,0,0,1-.33,5.07c-2,3-3.87,6.2-5.73,9.35-2,3.45-1.32,4.7,2.82,4.63,3.31-.06,6.62-.34,9.92-.69a4.81,4.81,0,0,1,5.33,2.64,47.24,47.24,0,0,0,5.15,7.26c2.56,3,4.91,2.58,6.61-.9a28.57,28.57,0,0,0,2.4-8.21c.54-3.51,2.28-5.42,5.9-6a27.71,27.71,0,0,0,8.75-2.92c2.91-1.52,3.22-3.31.94-5.67a48.79,48.79,0,0,0-8.94-6.92,5.05,5.05,0,0,1-2.62-4.8c.08-3-.05-6-.14-8.92-.06-1.94.11-4.19-1.92-5.17s-3.7.68-5.2,1.85c-2.61,2-5.19,4.14-7.6,6.41a4.69,4.69,0,0,1-4.91,1.38C333.41,229.49,329.91,228.91,327.39,228.39Z"/><path class="cls-10" d="M303.09,451.31a7.22,7.22,0,0,1-.6-5.31c.88-4.41.37-8.84.58-13.25l4.12-1.76a66.3,66.3,0,0,1-.76,18.18A2.6,2.6,0,0,1,303.09,451.31Z"/><path class="cls-14" d="M322.6,422.2a11.82,11.82,0,0,1-4.76-1c-1-.44-9.72-4.62-5.15-15.28.52-1.2,1-2.4,1.5-3.61.1-.26.2-.52.31-.77l-1.05-.48c-7.34-3.3-8.39-10-6.27-14.91a10.92,10.92,0,0,1,8.89-6.73,11,11,0,0,1,6.72-5.66,11.16,11.16,0,0,1,3.36-.52,10.83,10.83,0,0,1,4.13.82,10.21,10.21,0,0,1,5.26-1.41,11,11,0,0,1,5.3,1.39c4.71,2.55,7.85,8.32,4.23,15.49l-.15.29,2,.94,2.92,1.39c1.53.72,5.6,2.64,7.21,7.18a11.12,11.12,0,0,1-.57,8.59,11,11,0,0,1-10,6.54,12,12,0,0,1-2.81-.34,11,11,0,0,1-6,5,12,12,0,0,1-4.06.72,11,11,0,0,1-3.55-.58A10.84,10.84,0,0,1,322.6,422.2Z"/><path class="cls-14" d="M299.19,434.27c-3.85,0-8.69-2.17-10.71-8.24-1.92-5.76-4-11.62-6-17.29l-1.71-4.9c-2.09-6,.33-12.32,5.78-15,.57-.28,1.12-.59,1.69-.91a25,25,0,0,1,8.43-3.29,17.69,17.69,0,0,1,2.71-.22A15.64,15.64,0,0,1,314.89,397a16.67,16.67,0,0,1,7.69,8.34,17.47,17.47,0,0,1-1.53,15.71c-5.65,9.43-15.59,12-18.85,12.8A12.07,12.07,0,0,1,299.19,434.27Z"/><path class="cls-14" d="M380.32,404.81a12.42,12.42,0,0,1-2.82-.34,11,11,0,0,1-7.09-5c-2.46-4.1-1.33-8.39-1-9.8s.72-2.94,1.08-4.51c.26-1.12.52-2.26.81-3.42-1.21-1-2.39-2-3.54-3l-2.55-2.14c-6.19-5.13-5.58-11.7-2.22-15.93a11,11,0,0,1,8.74-4.36,11.63,11.63,0,0,1,5.64,1.51c2.14-5.69,6.75-7.78,10.6-7.78a11.59,11.59,0,0,1,3,.4,11.1,11.1,0,0,1,6.95,5.14c1.6,2.78,1.88,6.09.84,9.83-.47,1.7-.9,3.42-1.35,5.23-.2.79-.4,1.58-.6,2.39l2.41,1.91c1,.82,2.06,1.65,3.11,2.45s4.76,3.62,5.39,8.45a11.73,11.73,0,0,1-11.26,12.91,11.78,11.78,0,0,1-5.72-1.53c-2.7,7-8.59,7.56-10.46,7.56Z"/><path class="cls-14" d="M357.82,413.29a13.22,13.22,0,0,1-2.24-.2c-1.74-.32-10.39-2.44-8.88-13.48l0-.32a27.87,27.87,0,0,1,1.24-5l-.41-.19a39.64,39.64,0,0,1-3.79-1.91c-1.35-.8-2.63-1.64-3.8-2.49-9.57-6.91-4.21-15.3-3.57-16.23a11.49,11.49,0,0,1,9.5-5.2,12.84,12.84,0,0,1,6.9,2.13c2.4-8.2,8.85-8.87,10.87-8.87a12.33,12.33,0,0,1,2.54.27,11,11,0,0,1,7.21,4.82c2.58,4,1.6,8.35,1.23,10-1.52,6.71-2.94,13.61-4.31,20.29q-.64,3.18-1.31,6.37C367.51,410.66,362.24,413.29,357.82,413.29Z"/><path class="cls-14" d="M409.1,382.62a10.59,10.59,0,0,1-10.29-8.28c-2.06-7.72-3.67-14-5.07-19.72a11.81,11.81,0,0,1,1.39-9.24,11.49,11.49,0,0,1,7.59-5,12,12,0,0,1,2.3-.23A11.12,11.12,0,0,1,416,349.18c1.07,4.92,2.09,9.84,3.12,14.77l1.31,6.3v.93a11.35,11.35,0,0,1-11.28,11.44Z"/><path class="cls-14" d="M411.38,394.37c-6.16-.79-10.32-5.32-10.34-11.27a11.27,11.27,0,0,1,11.24-11.64h.18a11.09,11.09,0,0,1,11.18,10.82c.33,5.76-3.24,10.43-9.1,11.9l-1.56.4Z"/><path class="cls-10" d="M412.46,385.92c-1.84-.24-2.89-1.13-2.9-2.86A2.73,2.73,0,0,1,412.4,380c1.74,0,2.63,1.1,2.73,2.8C415.24,384.76,414,385.53,412.46,385.92Z"/><path class="cls-10" d="M411.86,371.08a2.73,2.73,0,0,1-2,2.91c-1.56.44-2.44-.54-2.79-1.84-1.73-6.51-3.42-13-5-19.56-.47-1.9.28-3.48,2.34-3.89a2.65,2.65,0,0,1,3.27,2.29C409.08,357.67,410.46,364.38,411.86,371.08Z"/><path class="cls-10" d="M382.53,372.6c.93-4,1.71-7.42,2.57-10.85.48-1.93,1.49-3.63,3.77-3s2.28,2.45,1.72,4.45c-1,3.63-1.82,7.32-2.83,10.95a3,3,0,0,0,1.33,3.77c2.78,2,5.39,4.24,8.12,6.32,1.72,1.31,3,2.84,1.38,4.87s-3.44,1.07-5.07-.23a50.55,50.55,0,0,1-5.29-4.35c-2.38-2.48-2.9-1.18-3.35,1.26s-1.1,4.9-1.71,7.34c-.48,1.91-1.33,3.65-3.7,3.09s-2.3-2.38-1.78-4.38c.95-3.64,1.65-7.36,2.68-11a3,3,0,0,0-1.23-3.77c-2.9-2.23-5.65-4.65-8.47-7-1.34-1.11-2.33-2.36-1-4.06s2.83-1.34,4.25-.26C376.72,367.88,379.43,370.12,382.53,372.6Z"/><path class="cls-10" d="M358.53,384.72c.79-3.92,1.51-7.49,2.24-11.05.42-2,1.14-4.07,3.68-3.53s2.41,2.33,1.9,4.58c-2,8.9-3.8,17.86-5.65,26.81-.42,2-1.23,3.6-3.61,3.17-2.6-.47-2.14-2.42-1.9-4.31.46-3.48,3-7.4,1.49-10.15-1.43-2.58-5.6-3.63-8.55-5.38-1.08-.64-2.14-1.33-3.16-2.06-1.55-1.13-3-2.36-1.54-4.5s3.31-1.73,5.09-.53c2.47,1.66,4.85,3.44,7.28,5.15C356.55,383.44,357.32,383.92,358.53,384.72Z"/><path class="cls-10" d="M324.88,389.74c-.43-1.54-.91-3.06-1.29-4.61a2.48,2.48,0,0,1,1.73-3.26,2.42,2.42,0,0,1,3.08,1.52c.61,1.35,1.12,2.74,1.76,4.3,1.54-1.17,1.78-3.06,2.73-4.49s2.07-2.68,3.9-1.69,1.49,2.55.67,4.15c-1,2-1.82,4.2-2.93,6.19-.89,1.62-.51,2.36,1.11,3.07,3.56,1.55,7,3.27,10.54,4.92,1.87.88,3.73,2,2.6,4.38s-3.14,1.79-5.21.71c-2.93-1.53-6-2.71-9.7-4.32.89,2.58,1.52,4.52,2.24,6.44.63,1.7.66,3.3-1.27,4s-3.28-.3-3.94-2.21c-.59-1.71-1.19-3.42-2-5.8-1.3,3.11-2.35,5.59-3.37,8.08-.8,1.94-2.14,3.18-4.24,2.25s-1.41-2.53-.73-4.11c1.48-3.46,2.77-7,4.41-10.4.76-1.58.43-2.1-1.06-2.66-2.35-.87-4.65-1.9-6.94-2.93-1.58-.71-2.8-1.77-1.95-3.72s2.33-2,4-1.32,3.36,1.42,5,2.12c.32.32.69.57,1.06.19C325.21,390.45,325,390,324.88,389.74Z"/><path class="cls-10" d="M306.68,401c-.85,1.62-.13,2.17,1.75,2.65,6.32,1.61,8.68,7.48,5.31,13.09-3.08,5.13-8.11,7.51-13.65,8.92-1.8.46-2.9-.4-3.53-2.28-2.48-7.46-5.11-14.88-7.69-22.3-.66-1.9-.08-3.76,1.46-4.51,2.53-1.23,4.86-3,7.75-3.45A7.24,7.24,0,0,1,306.68,401Zm-2.09,7.73a5.08,5.08,0,0,0-3.53,1.07c-.9.73-3,.57-2.61,2.15.62,2.61,1.14,5.95,3,7.36,1.37,1.06,4-1.69,5.89-3.08a2.73,2.73,0,0,0,.5-.46c1.27-1.31,2.78-2.64,2-4.69S306.92,408.68,304.59,408.69Zm-8.22-3.05a23.12,23.12,0,0,0,2.48-1.5c1.58-1.25,3.71-2.68,2.38-4.91-1.44-2.41-3.58-.62-5.4,0-1.28.47-1.72,1.22-1,2.57C295.42,403,295.83,404.31,296.37,405.64Z"/></g></svg>