<svg width="204" height="261" viewBox="0 0 204 261" fill="none" xmlns="http://www.w3.org/2000/svg">
<path d="M148.145 241.214C149.922 228.195 148.968 212.597 145.33 185.46C144.724 180.934 143.876 176.25 142.961 171.363L40.7211 153.055C35.3583 160.029 30.4471 167.34 26.0176 174.941C16.3535 191.388 5.3933 218.406 4.7749 241.214H148.145Z" fill="#84523E"/>
<path d="M6.22873 241.214C6.59237 236.254 7.28909 231.324 8.31419 226.458L9.32732 222.057L10.4523 217.676C11.268 214.768 12.1233 211.873 13.0838 209.005C14.985 203.275 17.11 197.604 19.4717 192.039C21.8335 186.474 24.3795 180.974 27.1754 175.593C27.3327 175.292 27.3678 174.942 27.2732 174.616C27.1786 174.29 26.9618 174.013 26.668 173.844C26.3742 173.674 26.0261 173.624 25.6965 173.705C25.3669 173.786 25.0812 173.991 24.8992 174.277C21.5597 179.475 18.6003 184.908 16.0442 190.532C13.4738 196.15 11.2375 201.914 9.34705 207.795C8.89312 209.275 8.39971 210.735 7.98525 212.229C7.57079 213.722 7.14976 215.202 6.77477 216.709C6.39978 218.215 6.04453 219.715 5.70901 221.228L4.82746 225.787C3.90361 230.878 3.42157 236.039 3.38672 241.214H6.22873Z" fill="#2B1A15"/>
<path d="M123.876 241.214C117.778 224.294 102.245 205.078 80.1933 205.084C55.0626 205.084 31.2673 219.116 21.5308 241.214H123.876Z" fill="#663F31"/>
<path d="M121.975 241.214C117.251 222.498 101.041 205.959 80.1013 205.689C54.9376 205.4 31.4187 219.34 24.3926 241.214H121.975Z" fill="#EDBF9D"/>
<path d="M142.573 169.133C142.573 169.133 158.974 187.395 163.677 216.952L169.94 231.234C169.822 230.28 175.624 243.108 172.881 248.996C172.331 250.151 171.554 251.185 170.598 252.035C168.881 253.89 165.243 252.522 165.243 252.522C165.242 253.386 165.127 254.247 164.901 255.081C164.539 255.805 161.901 260.002 158.546 258.489C157.106 257.744 155.95 256.547 155.257 255.081C155.257 255.081 149.961 259.476 148.171 258.712C147.244 258.311 146.566 256.443 145.783 255.811C145.211 255.357 146.718 251.062 146.244 250.476C142.474 245.799 141.139 240.99 141.257 234.984L142.573 169.133Z" fill="#84523E"/>
<path d="M142.277 174.777C152.105 183.645 154.809 197.664 157.408 211.939C158.145 216.024 159.079 220.781 160.697 224.438C170.368 245.983 167.467 243.582 165.23 252.193C173.006 256.851 177.934 245.93 166.967 225.122C164.23 223.234 160.303 186.743 145.132 172.494L142.277 174.777Z" fill="#663F31"/>
<path d="M134.915 177.737C135.139 177.218 135.336 176.737 135.652 176.152C135.698 176.073 135.744 175.994 135.81 175.895C135.876 175.797 135.928 175.731 135.981 175.658C136.034 175.586 136.172 175.408 136.277 175.29C136.479 175.053 136.698 174.834 136.935 174.632C137.86 173.743 138.969 173.069 140.185 172.659C141.403 172.258 142.694 172.126 143.968 172.271C145.242 172.417 146.469 172.836 147.566 173.501C148.113 173.836 148.622 174.229 149.086 174.672C149.323 174.895 149.533 175.132 149.744 175.369L150.046 175.744L150.29 176.079C150.612 176.533 150.948 176.981 151.263 177.435L152.178 178.816C153.341 180.678 154.41 182.597 155.382 184.566C157.288 188.485 158.926 192.529 160.283 196.67C161.656 200.791 162.796 204.986 163.697 209.235L164.355 212.4L164.677 213.939L165.039 215.452C165.547 217.449 166.207 219.404 167.013 221.3C167.809 223.188 168.809 225.083 169.723 227.063C170.638 229.043 171.5 231.069 172.25 233.122C172.625 234.148 172.993 235.174 173.328 236.207C173.664 237.24 174.019 238.214 174.302 239.424C174.556 240.53 174.74 241.651 174.855 242.779C174.98 243.915 175.028 245.058 175 246.2C174.986 246.846 174.908 247.49 174.769 248.121C174.622 248.697 174.442 249.263 174.23 249.818C173.797 251.039 173.093 252.146 172.171 253.055C171.642 253.54 171.019 253.911 170.342 254.147L170.125 254.219L169.973 254.265C169.888 254.298 170.006 254.265 169.973 254.265C169.86 254.327 169.744 254.382 169.625 254.43C169.22 254.583 168.788 254.653 168.355 254.634C167.694 254.6 167.044 254.46 166.427 254.219C165.866 254.004 165.324 253.74 164.809 253.43L166.25 252.555C166.374 254.051 166.149 255.555 165.592 256.949C165.256 257.768 164.712 258.485 164.013 259.028C163.807 259.175 163.587 259.301 163.355 259.403C163.125 259.508 162.967 259.574 162.77 259.647C162.394 259.781 162.01 259.886 161.618 259.962C160.828 260.105 160.02 260.123 159.224 260.015C158.804 259.951 158.393 259.839 158 259.679C157.62 259.538 157.256 259.358 156.915 259.14C156.233 258.721 155.634 258.181 155.145 257.548C154.914 257.234 154.706 256.904 154.52 256.561C154.324 256.205 154.167 255.827 154.053 255.436L155.744 255.746C154.809 257.015 153.676 258.125 152.388 259.035C151.665 259.555 150.847 259.928 149.981 260.133L149.606 260.199C149.465 260.209 149.325 260.209 149.185 260.199C148.908 260.201 148.632 260.172 148.362 260.114C147.873 260.007 147.405 259.823 146.974 259.568C146.211 259.12 145.541 258.531 145 257.831C144.724 257.479 144.484 257.1 144.283 256.699C144.205 256.555 144.141 256.403 144.093 256.245C144.067 256.161 144.047 256.076 144.033 255.989V255.746C144.017 255.527 144.017 255.307 144.033 255.088C144.068 254.24 144.243 253.404 144.553 252.614C144.672 252.306 144.767 251.99 144.836 251.667C144.885 251.435 144.885 251.195 144.836 250.963C144.766 250.728 144.659 250.506 144.52 250.305L144.375 250.055C144.312 249.951 144.255 249.843 144.204 249.733L143.954 249.187C143.652 248.483 143.382 247.799 143.112 247.108C142.573 245.733 142.04 244.365 141.527 242.99C140.501 240.24 139.487 237.49 138.613 234.701C136.858 229.113 135.183 223.513 133.586 217.899L132.402 213.676C132.001 212.222 131.652 210.761 131.376 209.281C130.841 206.327 130.57 203.33 130.567 200.328C130.555 199.979 130.681 199.639 130.92 199.384C131.158 199.129 131.487 198.978 131.836 198.966C132.185 198.954 132.525 199.081 132.78 199.319C133.036 199.557 133.186 199.887 133.198 200.236C133.374 203.071 133.77 205.889 134.382 208.663C134.672 210.051 135.04 211.426 135.442 212.781L136.718 216.965L141.731 233.734C142.566 236.523 143.277 239.358 144.04 242.167C144.422 243.575 144.797 244.976 145.211 246.365C145.428 247.022 145.645 247.739 145.869 248.391L146.053 248.851C146.076 248.908 146.102 248.963 146.132 249.016L146.165 249.101L146.25 249.246C146.494 249.653 146.67 250.098 146.77 250.562C146.859 251.049 146.859 251.548 146.77 252.035C146.678 252.489 146.566 252.851 146.474 253.2C146.298 253.792 146.24 254.414 146.303 255.028C146.315 255.173 146.339 255.316 146.375 255.456V255.561V255.621C146.379 255.579 146.379 255.537 146.375 255.496C146.375 255.436 146.375 255.496 146.421 255.535C146.59 255.765 146.772 255.985 146.968 256.193C147.355 256.622 147.797 256.998 148.283 257.311C148.488 257.433 148.71 257.524 148.941 257.581C149.028 257.601 149.116 257.612 149.204 257.614H149.329C149.386 257.61 149.443 257.61 149.5 257.614C150.058 257.479 150.591 257.257 151.079 256.956C152.223 256.236 153.286 255.396 154.25 254.45C154.37 254.338 154.522 254.267 154.685 254.245C154.848 254.224 155.013 254.254 155.158 254.331L155.934 254.759C156.033 254.923 156.211 255.2 156.362 255.417C156.53 255.635 156.712 255.841 156.908 256.035C157.278 256.414 157.707 256.732 158.178 256.976C158.616 257.209 159.093 257.361 159.586 257.423C160.108 257.477 160.635 257.454 161.151 257.357C162.335 257.107 162.789 256.864 163.322 255.871C163.812 254.816 164.13 253.69 164.263 252.535C164.238 252.425 164.235 252.31 164.255 252.198C164.274 252.087 164.316 251.98 164.377 251.884C164.438 251.789 164.518 251.706 164.611 251.642C164.705 251.578 164.81 251.532 164.921 251.509C165.083 251.47 165.253 251.481 165.408 251.542L165.723 251.66C166.544 252.003 167.426 252.177 168.316 252.173C168.422 252.169 168.524 252.135 168.612 252.075C168.73 252.002 168.853 251.939 168.98 251.884L169.204 251.785L169.362 251.713C169.691 251.561 169.981 251.336 170.21 251.055C170.75 250.393 171.145 249.624 171.368 248.799C171.506 248.351 171.631 247.864 171.73 247.417C171.794 246.995 171.821 246.568 171.809 246.141C171.773 244.133 171.533 242.133 171.092 240.174C170.888 239.293 170.5 238.24 170.19 237.247C169.881 236.253 169.533 235.273 169.151 234.267C168.421 232.293 167.612 230.372 166.723 228.464C165.835 226.557 164.829 224.662 163.954 222.603C163.09 220.55 162.384 218.434 161.842 216.274L161.447 214.669L161.112 213.064L160.454 209.933C158.77 201.654 156.12 193.602 152.559 185.941C151.638 184.059 150.652 182.211 149.579 180.428L148.744 179.112C148.461 178.678 148.158 178.264 147.869 177.836L147.645 177.52L147.448 177.264C147.312 177.096 147.167 176.935 147.014 176.783C146.71 176.48 146.375 176.211 146.014 175.981C144.905 175.284 143.599 174.967 142.294 175.076C140.989 175.185 139.755 175.715 138.777 176.586C138.619 176.737 138.461 176.889 138.316 177.053C138.172 177.218 138.172 177.224 138.099 177.303C138.027 177.382 138.014 177.415 138.027 177.389L137.974 177.474C137.77 177.823 137.54 178.323 137.317 178.79C137.163 179.088 136.901 179.317 136.584 179.429C136.267 179.54 135.92 179.526 135.613 179.39C135.306 179.254 135.063 179.006 134.933 178.696C134.803 178.386 134.797 178.038 134.915 177.724V177.737Z" fill="#2B1A15"/>
<path d="M35.2937 160.969C35.2937 160.969 -14.7507 186.355 8.08406 212.281C31.7675 239.181 63.306 233.536 62.2599 224.445C65.8453 223.024 67.5229 215.268 65.5493 213.86C69.3321 210.65 67.5953 202.775 62.806 202.209C60.8324 201.966 58.0693 201.361 58.0693 201.361C58.0693 201.361 26.84 192.664 32.1885 178.303L35.2937 160.969Z" fill="#84523E"/>
<path d="M5.82084 185.987C5.82084 185.987 -14.6982 208.827 35.3396 230.096C30.8727 231.412 62.8256 234.793 62.273 224.425C52.1549 238.128 -2.81704 206.729 5.82084 185.987Z" fill="#663F31"/>
<path d="M32.3134 177.619L35.6028 181.198C35.6028 181.198 33.7739 188.085 46.5958 196.42C46.5893 196.42 27.8596 191.98 32.3134 177.619Z" fill="#663F31"/>
<path d="M35.8923 162.12C31.2673 164.845 26.8219 167.864 22.5835 171.159C18.3552 174.37 14.4825 178.024 11.0312 182.059C9.36422 184.04 7.9028 186.184 6.66953 188.46C5.4581 190.664 4.63052 193.057 4.22224 195.539C3.8398 197.97 4.00614 200.456 4.70907 202.815C5.44426 205.229 6.61235 207.489 8.15632 209.485C8.52473 210.005 8.95893 210.479 9.36023 210.979L10.676 212.452C11.551 213.452 12.5114 214.367 13.4522 215.307C15.3755 217.144 17.4123 218.858 19.5507 220.439C20.5901 221.261 21.7085 221.971 22.8006 222.728C23.8927 223.484 25.0439 224.129 26.2149 224.741C28.5331 226.021 30.9536 227.105 33.4516 227.984C38.4173 229.785 43.6775 230.635 48.9576 230.491C51.5535 230.414 54.1198 229.916 56.5561 229.017C57.7057 228.571 58.778 227.948 59.7336 227.168C60.6027 226.491 61.17 225.498 61.3125 224.405C61.3257 224.214 61.3902 224.031 61.499 223.873C61.6078 223.716 61.757 223.591 61.9309 223.511C62.5812 223.029 63.1161 222.409 63.4966 221.695C63.9468 220.9 64.317 220.063 64.6019 219.195C64.9057 218.323 65.126 217.425 65.2597 216.511C65.3132 216.103 65.3286 215.692 65.3058 215.281C65.2993 215.141 65.2795 215.002 65.2466 214.866C65.2137 214.781 65.2466 214.794 65.319 214.781L64.8716 213.189C66.0821 211.15 66.74 209.071 66.2268 207.301C65.9577 206.392 65.4432 205.575 64.74 204.939C63.9962 204.267 63.1067 203.776 62.1414 203.505C61.8991 203.435 61.6531 203.378 61.4046 203.334L60.6546 203.249H59.8981C59.8389 203.249 59.4836 203.249 59.2402 203.249C59.0192 203.244 58.799 203.22 58.5823 203.176C57.2558 202.925 55.9513 202.569 54.6811 202.111C52.2404 201.275 49.8852 200.361 47.5169 199.4L47.6287 199.44C46.4724 199.033 45.3391 198.563 44.2341 198.032C43.142 197.519 42.0741 196.953 41.0303 196.335C38.908 195.112 36.9532 193.619 35.2147 191.894C33.411 190.116 32.0578 187.933 31.2674 185.526C30.9005 184.297 30.7144 183.02 30.7148 181.737C30.7463 180.476 30.9431 179.224 31.3003 178.014C31.3605 177.759 31.5194 177.538 31.7421 177.401C31.9648 177.263 32.233 177.22 32.4878 177.28C32.7425 177.34 32.9629 177.499 33.1005 177.722C33.238 177.944 33.2815 178.213 33.2213 178.467V178.527C32.986 179.571 32.8866 180.641 32.9253 181.711C32.9756 182.758 33.1773 183.793 33.5239 184.783C34.3121 186.77 35.5454 188.55 37.1291 189.986C38.7452 191.495 40.5496 192.789 42.4973 193.835C44.4441 194.899 46.4857 195.78 48.5958 196.466L48.6945 196.506C51.0036 197.407 53.3588 198.275 55.7008 199.032C56.2863 199.223 56.8653 199.394 57.4442 199.558C57.9827 199.716 58.5296 199.843 59.0823 199.94C59.1792 199.963 59.2787 199.974 59.3783 199.973C59.472 199.988 59.5676 199.988 59.6612 199.973H60.7928L61.9177 200.091C62.2927 200.137 62.6546 200.256 63.023 200.334C64.49 200.741 65.8417 201.484 66.9702 202.505C68.1531 203.563 68.9898 204.952 69.3715 206.492C69.4438 206.887 69.4833 207.288 69.5293 207.683C69.5425 208.078 69.5293 208.473 69.4899 208.867C69.4618 209.254 69.3867 209.636 69.2662 210.005L69.1215 210.558C69.0557 210.735 68.9767 210.9 68.9044 211.071C68.3184 212.375 67.4486 213.533 66.3584 214.459L65.911 212.873C66.4118 213.011 66.8404 213.336 67.1084 213.781C67.3057 214.101 67.4522 214.449 67.5426 214.814C67.6881 215.417 67.7501 216.036 67.7268 216.656C67.6838 217.791 67.48 218.914 67.1215 219.991C66.7771 221.08 66.2667 222.11 65.6084 223.044C64.9143 224.104 63.8865 224.903 62.6875 225.313L63.3124 224.412C63.2826 225.259 63.0574 226.087 62.6546 226.833L62.3585 227.372L61.9967 227.846C61.8717 227.997 61.7533 228.168 61.6217 228.306L61.2072 228.714C60.1033 229.724 58.8351 230.539 57.4574 231.122C54.8052 232.216 51.9916 232.867 49.1287 233.05C43.4852 233.423 37.8236 232.674 32.4713 230.846C29.7978 229.964 27.2014 228.864 24.7084 227.556C23.4453 226.938 22.248 226.201 21.0309 225.504C19.8138 224.807 18.656 224.004 17.5376 223.162C15.2384 221.552 13.0534 219.785 10.9983 217.873C10.0049 216.893 8.97867 215.932 8.04449 214.893C7.57082 214.38 7.09057 213.88 6.6169 213.353C6.14323 212.827 5.66956 212.268 5.24194 211.676C3.41413 209.358 2.0211 206.728 1.13023 203.913C0.238405 201.035 -0.00204356 197.995 0.42631 195.012C0.867743 192.093 1.80206 189.27 3.18938 186.664C4.53604 184.131 6.15285 181.751 8.01159 179.566C11.6707 175.319 15.8352 171.534 20.4125 168.297C22.669 166.679 24.9781 165.139 27.3662 163.738C29.7438 162.301 32.192 160.983 34.7015 159.791C35.0062 159.657 35.3505 159.643 35.6648 159.753C35.9791 159.863 36.2401 160.087 36.3953 160.382C36.5505 160.676 36.5883 161.019 36.501 161.34C36.4138 161.661 36.208 161.938 35.9252 162.113L35.8923 162.12Z" fill="#2B1A15"/>
<path d="M60.7733 66.1628C68.2895 57.8183 68.7362 45.9682 61.7711 39.6947C54.8059 33.4213 43.0665 35.1001 35.5502 43.4446C28.034 51.789 27.5873 63.6391 34.5524 69.9126C41.5176 76.1861 53.2571 74.5072 60.7733 66.1628Z" fill="#84523E"/>
<path d="M170.758 89.8546C178.349 85.7421 180.49 75.0046 175.541 65.8716C170.593 56.7387 160.428 52.6688 152.838 56.7813C145.248 60.8937 143.106 71.6313 148.055 80.7642C153.003 89.8972 163.168 93.9671 170.758 89.8546Z" fill="#84523E"/>
<path d="M38.4582 71.0728C38.4582 71.0728 19.1167 96.1239 20.3074 133.01C24.2547 169.935 74.207 183.046 84.5948 184.197C94.3643 185.283 119.725 194.026 149.277 170.974C161.704 164.699 176.368 120.136 162.375 89.0059L147.534 69.3624C147.534 69.3624 119.357 37.3907 68.648 52.4029L38.4582 71.0728Z" fill="#84523E"/>
<path d="M145.566 67.5335C138.165 61.1524 110.166 40.7457 67.0295 53.5147" stroke="#2B1A15" stroke-width="4" stroke-linecap="round" stroke-linejoin="round"/>
<path d="M39.5304 71.8425C38.162 74.0923 36.8002 76.4475 35.5832 78.8618C34.3661 81.2761 33.1556 83.6839 32.0372 86.1376C30.9189 88.5914 29.8728 91.0716 28.9189 93.5911C27.965 96.1107 27.044 98.6303 26.2874 101.202C24.6472 106.314 23.4455 111.557 22.6954 116.873C21.9474 122.171 21.7467 127.532 22.0968 132.872V132.727C22.4574 135.13 22.9716 137.507 23.6362 139.845C25.6416 146.88 29.2591 153.351 34.2016 158.745C37.5345 162.345 41.3049 165.515 45.425 168.179C47.4907 169.494 49.6156 170.81 51.8129 171.922C54.0102 173.034 56.247 174.126 58.5232 175.112C63.1038 177.049 67.7937 178.716 72.5688 180.105C74.9635 180.763 77.3647 181.454 79.8054 182.079C81.0225 182.382 82.2264 182.671 83.4369 182.941C84.0421 183.066 84.6408 183.25 85.2526 183.322L87.0881 183.599C89.5156 184.007 91.9958 184.184 94.4629 184.408L98.1798 184.572C99.4166 184.632 100.66 184.572 101.897 184.572C106.84 184.489 111.769 184.02 116.64 183.171C121.512 182.316 126.306 181.064 130.975 179.428C135.6 177.771 140.016 175.578 144.132 172.895L145.652 171.882C146.139 171.52 146.599 171.132 147.08 170.757L148.494 169.626C148.968 169.251 149.362 168.81 149.81 168.409L151.093 167.179C151.31 166.982 151.504 166.761 151.672 166.521L152.211 165.797L153.283 164.356C153.468 164.12 153.652 163.883 153.823 163.633L154.31 162.863C154.967 161.83 155.625 160.824 156.283 159.765L158.02 156.541C159.059 154.331 160.119 152.127 160.941 149.824L161.599 148.114C161.823 147.542 161.98 146.95 162.171 146.364C162.526 145.193 162.928 144.042 163.244 142.858L164.125 139.292C164.29 138.7 164.388 138.095 164.5 137.49L164.836 135.681L165.165 133.878C165.257 133.273 165.322 132.661 165.401 132.056C165.54 130.839 165.724 129.622 165.829 128.405C165.98 125.958 166.191 123.51 166.138 121.063C166.309 111.241 164.711 101.492 162.145 91.9531V91.9004C162.064 91.5766 162.11 91.2342 162.272 90.9427C162.435 90.6512 162.702 90.4322 163.02 90.3302C163.337 90.2282 163.682 90.2508 163.984 90.3933C164.285 90.5358 164.522 90.7877 164.645 91.0979C165.092 92.2886 165.526 93.4924 165.961 94.6963L166.618 96.5054L167.138 98.3474L168.132 102.051L168.868 105.814C168.987 106.472 169.125 107.071 169.224 107.702L169.454 109.603C169.599 110.88 169.789 112.143 169.895 113.419C170.02 115.978 170.224 118.537 170.138 121.096C170.138 123.662 169.908 126.214 169.717 128.767C169.592 130.043 169.388 131.312 169.224 132.582C169.138 133.24 169.059 133.852 168.96 134.483L168.585 136.365L168.217 138.253C168.092 138.878 167.98 139.509 167.803 140.128L166.829 143.851C166.487 145.081 166.053 146.292 165.665 147.515C165.454 148.121 165.283 148.739 165.046 149.331L164.336 151.12C162.481 155.922 160.051 160.482 157.099 164.699L156.56 165.501C156.369 165.764 156.158 166.021 155.961 166.277L154.75 167.817L154.139 168.586C153.948 168.854 153.727 169.099 153.481 169.317L151.902 170.672C151.408 171.106 150.941 171.593 150.428 171.988L148.882 173.165C148.362 173.553 147.856 173.955 147.33 174.33L145.691 175.362C141.336 178.061 136.68 180.24 131.817 181.855C126.982 183.431 122.028 184.61 117.002 185.381C111.997 186.176 106.938 186.574 101.871 186.572C100.607 186.572 99.3377 186.612 98.0746 186.572L94.2786 186.395C91.759 186.158 89.2328 185.967 86.7197 185.526L84.8382 185.237C84.1803 185.158 83.5948 184.974 82.9764 184.849C81.7396 184.577 80.5094 184.289 79.2857 183.987C76.8384 183.401 74.4043 182.75 71.9767 182.059C67.1159 180.677 62.3328 179.034 57.6483 177.139C52.9365 175.23 48.3905 172.935 44.0566 170.277C39.6872 167.589 35.6715 164.365 32.103 160.679C28.519 156.946 25.5342 152.681 23.2546 148.035C22.1148 145.7 21.1558 143.281 20.3863 140.799C19.6197 138.331 19.011 135.818 18.564 133.273C18.5608 133.236 18.5608 133.198 18.564 133.161C18.1281 127.572 18.2692 121.953 18.985 116.392C19.6947 110.852 20.8788 105.383 22.5244 100.045C24.1785 94.7286 26.253 89.5525 28.7281 84.5654C31.1758 79.558 34.0852 74.7898 37.4186 70.3228C37.6232 70.0591 37.9203 69.8829 38.2499 69.83C38.5794 69.7771 38.9168 69.8514 39.1936 70.0379C39.4704 70.2244 39.666 70.5091 39.7408 70.8344C39.8155 71.1597 39.7639 71.5012 39.5962 71.7899L39.5304 71.8425Z" fill="#2B1A15"/>
<path d="M174.092 65.5008C172.412 62.4171 170.002 59.7923 167.072 57.8565C170.599 66.4086 168.316 75.7699 161.395 79.6052C156.553 82.2958 150.303 85.4337 150.303 85.4337C156.408 90.7755 160.52 91.5123 169.5 89.5585C177.927 87.7362 179.105 74.6252 174.092 65.5008Z" fill="#663F31"/>
<path d="M46.3789 66.3034C40.0699 60.5077 40.9844 44.5942 46.8 36.5289C42.5045 37.6678 38.6341 40.0338 35.6622 43.3377C28.0835 51.6332 27.544 63.4943 34.4451 69.836C41.3462 76.1777 53.5234 73.7832 57.4312 68.5532C57.4312 68.5532 50.3657 69.9676 46.3789 66.3034Z" fill="#663F31"/>
<path d="M65.2796 53.5147C65.4233 51.6334 65.2656 49.7413 64.8125 47.9098C64.3609 46.129 63.5628 44.4547 62.4639 42.9824C61.3779 41.5447 59.9988 40.354 58.418 39.4892C56.8325 38.6323 55.093 38.0979 53.2998 37.917C51.4759 37.7198 49.6319 37.8332 47.846 38.2525C46.0414 38.6903 44.3027 39.365 42.6751 40.2589C39.3965 42.1149 36.6314 44.7578 34.6293 47.9492C33.6318 49.5328 32.857 51.2461 32.3268 53.041C32.2149 53.4884 32.0505 53.9291 31.9649 54.3567L31.7018 55.7185L31.5636 57.1C31.5296 57.5574 31.5186 58.0163 31.5307 58.4749C31.5469 60.2913 31.8831 62.0907 32.5241 63.7903C33.1487 65.476 34.137 67.0033 35.4188 68.2638C36.7226 69.5305 38.2685 70.5213 39.9641 71.1769C41.6596 71.8325 43.47 72.1394 45.2869 72.0793C49.1104 71.9799 52.8252 70.7858 55.9905 68.6387C56.1322 68.5398 56.2919 68.4698 56.4607 68.4326C56.6294 68.3954 56.8039 68.3919 56.974 68.4221C57.1441 68.4523 57.3066 68.5158 57.4523 68.6088C57.5979 68.7019 57.7237 68.8227 57.8226 68.9644C57.9216 69.106 57.9916 69.2658 58.0288 69.4346C58.066 69.6033 58.0695 69.7777 58.0393 69.9479C58.009 70.118 57.9456 70.2805 57.8525 70.4261C57.7595 70.5717 57.6387 70.6976 57.497 70.7965C55.7559 72.1013 53.8404 73.1553 51.8064 73.9279C49.7578 74.7154 47.5972 75.1728 45.4053 75.2831C43.153 75.405 40.8985 75.0877 38.7673 74.3489C36.5897 73.6195 34.6028 72.4125 32.9517 70.8162C32.5504 70.4018 32.1228 70.0136 31.7544 69.5729L30.7018 68.2111L29.8137 66.731C29.5308 66.231 29.3203 65.6981 29.0769 65.1784C28.2306 63.0673 27.7716 60.8211 27.7216 58.5473C27.7216 57.9881 27.6822 57.4157 27.7216 56.8631L27.873 55.1856L28.1624 53.5344C28.2611 52.9884 28.4387 52.4555 28.5769 51.9161C29.1963 49.7853 30.1038 47.7491 31.2742 45.8638C31.5597 45.3879 31.8693 44.9268 32.2018 44.4823C32.5064 44.0244 32.8381 43.585 33.1952 43.1666C33.5504 42.7456 33.8991 42.3114 34.2675 41.9036L35.4319 40.726C37.0283 39.1834 38.8198 37.8564 40.7607 36.7789C42.7287 35.7282 44.8348 34.9597 47.0171 34.4961C49.2311 34.011 51.5122 33.9108 53.7603 34.2001C56.0359 34.4937 58.2299 35.2384 60.214 36.3907C62.1957 37.5559 63.8978 39.1413 65.2007 41.0352C67.6845 44.8013 68.6506 49.368 67.9046 53.8173C67.867 54.1662 67.6924 54.486 67.4192 54.7062C67.1459 54.9264 66.7963 55.0291 66.4474 54.9916C66.0984 54.954 65.7786 54.7794 65.5584 54.5062C65.3382 54.2329 65.2355 53.8834 65.2731 53.5344L65.2796 53.5147Z" fill="#2B1A15"/>
<path d="M144.343 67.2309C144.591 65.2368 145.188 63.3018 146.106 61.5142C147.035 59.6726 148.337 58.044 149.928 56.7316C150.731 56.0587 151.615 55.4886 152.56 55.0343C153.484 54.5482 154.459 54.1643 155.467 53.8896C157.485 53.3524 159.59 53.2249 161.658 53.5147C163.69 53.8049 165.664 54.4132 167.507 55.3172C169.316 56.2334 170.99 57.3957 172.48 58.7709C173.956 60.1372 175.254 61.6844 176.342 63.3759C177.422 65.0673 178.295 66.883 178.94 68.7834C179.578 70.6999 179.972 72.6892 180.111 74.7041C180.241 76.7362 180.066 78.7762 179.592 80.7564C179.13 82.7731 178.308 84.6898 177.164 86.4139C175.995 88.157 174.484 89.6452 172.724 90.7887C170.966 91.93 168.982 92.6774 166.908 92.9793C164.872 93.2827 162.797 93.1911 160.796 92.7096C156.911 91.7299 153.406 89.6134 150.731 86.631C150.506 86.3788 150.387 86.0497 150.398 85.712C150.409 85.3742 150.55 85.0537 150.791 84.8169C151.032 84.5801 151.355 84.4451 151.693 84.4399C152.031 84.4347 152.358 84.5597 152.606 84.789C155.041 87.1918 158.114 88.8469 161.461 89.5585C163.046 89.893 164.683 89.9082 166.274 89.6033C167.866 89.2983 169.381 88.6792 170.73 87.7823C173.387 85.905 175.222 83.079 175.855 79.888C176.533 76.6108 176.306 73.2108 175.197 70.0531C174.091 66.8634 172.236 63.9851 169.789 61.6589C168.569 60.528 167.21 59.5575 165.743 58.7709C164.285 58.0191 162.718 57.5019 161.099 57.2381C159.51 56.9552 157.88 57 156.31 57.3697C155.532 57.5523 154.776 57.8147 154.053 58.1525C153.313 58.4675 152.616 58.8765 151.981 59.3696C149.349 61.2708 147.645 64.3561 146.928 67.6848C146.892 67.8538 146.822 68.0138 146.723 68.1558C146.625 68.2978 146.499 68.419 146.354 68.5125C146.209 68.606 146.046 68.6699 145.876 68.7006C145.706 68.7313 145.531 68.7281 145.363 68.6913C145.04 68.6201 144.757 68.4304 144.568 68.1599C144.379 67.8894 144.299 67.5578 144.343 67.2309Z" fill="#2B1A15"/>
<path d="M130.363 149.693C124.541 169.429 104.265 181.428 83.5093 177.711C62.7534 173.994 46.6684 154.028 46.3329 134.648C45.9776 114.037 72.6873 101.479 93.4497 105.196C120.719 110.077 135.225 126.793 130.363 149.693Z" fill="#663F31"/>
<path d="M128.488 148.127C125.814 157.209 119.875 164.982 111.814 169.948C103.753 174.914 94.1399 176.723 84.8251 175.027C65.5494 171.58 50.7012 152.62 50.4709 134.161C50.2341 114.517 75.1017 102.433 94.3774 105.873C119.699 110.419 133.106 126.28 128.488 148.127Z" fill="#EDBF9D"/>
<path d="M111.785 130.964C110.469 138.2 102.851 141.411 90.4762 143.463C78.2135 137.016 70.7992 131.076 72.0952 123.872C73.3912 116.669 83.2791 112.419 94.2722 114.379C105.265 116.34 113.074 123.76 111.785 130.964Z" fill="#2B1A15"/>
<path d="M74.3581 107.222L71.0161 105.656L67.8978 104.176L67.115 103.794L66.9044 103.696L66.7992 103.643H66.7531H66.7005C66.2864 103.69 65.8859 103.82 65.5229 104.025L65.2071 104.196L64.9045 104.406L64.1874 104.893L62.7533 105.867L59.8652 107.774C58.8915 108.432 57.9245 109.024 56.8719 109.616C56.5909 109.782 56.301 109.931 56.0035 110.064C55.8985 110.11 55.7908 110.149 55.6811 110.182C55.5758 110.214 55.4679 110.236 55.3587 110.248H55.0759C54.6911 110.221 54.3258 110.069 54.0364 109.814C53.6751 109.477 53.4095 109.05 53.2667 108.577C53.1528 108.217 53.0757 107.847 53.0365 107.472C53.0299 107.404 53.0299 107.336 53.0365 107.268L53.9246 100.63L54.3785 97.308C54.4138 97.0773 54.4292 96.844 54.4246 96.6107C54.4227 96.413 54.3962 96.2163 54.3456 96.0252C54.2962 95.8474 54.2232 95.677 54.1285 95.5186C54.0841 95.4459 54.0358 95.3757 53.9838 95.3081C53.9443 95.2555 53.8391 95.1634 53.872 95.1897L53.7601 95.0187L51.7865 93.1504C51.1286 92.5254 50.4708 91.8873 49.7734 91.2886L47.7274 89.4664L45.6946 87.756C45.3675 87.4919 45.1486 87.117 45.0795 86.7023C45.0104 86.2876 45.0958 85.862 45.3196 85.5061C45.4495 85.3151 45.618 85.1536 45.8142 85.0318C46.0105 84.91 46.2301 84.8308 46.4589 84.7991C46.6876 84.7675 46.9205 84.7843 47.1424 84.8482C47.3643 84.9122 47.5703 85.022 47.7472 85.1706C47.8195 85.2298 56.2995 95.0384 56.385 95.4265C56.4706 95.8147 56.0232 100.801 56.0232 100.801C56.0232 100.801 55.7403 102.972 55.4772 104.913C55.4423 105.17 55.4821 105.432 55.592 105.668C55.7019 105.903 55.8772 106.102 56.097 106.241C56.3168 106.38 56.5718 106.452 56.8316 106.45C57.0915 106.448 57.3452 106.371 57.5626 106.228C60.5428 104.255 65.1413 101.222 65.3979 101.137C65.858 100.972 66.3435 100.89 66.8321 100.893C67.2031 100.939 67.5688 101.021 67.9241 101.137L78.3448 105.979H78.4238C78.4633 105.979 78.4896 105.979 78.4238 105.979C78.358 105.979 74.9831 93.4267 75.3449 93.3806C75.7068 93.3346 78.8383 102.485 79.8316 105.406L74.3581 107.222Z" fill="#663F31"/>
<path d="M84.3317 84.8285L77.8319 92.157C77.6084 92.4045 77.4495 92.7033 77.3691 93.0269C77.2888 93.3505 77.2896 93.6889 77.3714 94.0122L79.72 103.518C79.8124 103.89 79.7988 104.281 79.6806 104.646C79.5625 105.01 79.3445 105.335 79.0514 105.582C78.7583 105.829 78.4018 105.989 78.0223 106.044C77.6428 106.099 77.2555 106.047 76.9043 105.893L67.9243 101.946C67.6199 101.813 67.2878 101.757 66.9567 101.781C66.6255 101.805 66.3052 101.909 66.0231 102.084L57.7075 107.281C57.3829 107.485 57.0075 107.594 56.6239 107.595C56.2404 107.596 55.8643 107.49 55.5385 107.287C55.2127 107.085 54.9503 106.795 54.7813 106.451C54.6123 106.107 54.5435 105.722 54.5826 105.34L55.5366 95.5844C55.5682 95.2535 55.5196 94.9199 55.3948 94.6118C55.2699 94.3037 55.0726 94.0303 54.8195 93.8148L47.3263 87.506C47.0345 87.2582 46.8175 86.934 46.6997 86.5697C46.5819 86.2055 46.568 85.8156 46.6596 85.4438C46.7512 85.0721 46.9446 84.7333 47.2181 84.4654C47.4916 84.1975 47.8343 84.0111 48.2079 83.9273L57.7799 81.8221C58.1046 81.7502 58.407 81.6008 58.6614 81.3866C58.9157 81.1723 59.1144 80.8997 59.2404 80.5919L62.9311 71.5201C63.0757 71.1657 63.3165 70.8587 63.6265 70.634C63.9364 70.4092 64.3029 70.2756 64.6848 70.2482C65.0666 70.2209 65.4485 70.3008 65.7873 70.4791C66.1261 70.6573 66.4083 70.9268 66.602 71.257L71.5229 79.7038C71.6913 79.9912 71.9274 80.2331 72.2106 80.4085C72.4938 80.5839 72.8155 80.6875 73.1478 80.7104L82.9173 81.4208C83.3012 81.444 83.6709 81.5746 83.9841 81.7978C84.2974 82.0209 84.5417 82.3275 84.6892 82.6828C84.8366 83.038 84.8813 83.4275 84.8181 83.8069C84.7549 84.1863 84.5863 84.5403 84.3317 84.8285Z" fill="#E5DA17"/>
<path d="M68.1479 99.5447L73.1674 101.584L75.6739 102.604C75.8336 102.679 76.0013 102.737 76.1739 102.775C76.2923 102.775 76.2989 102.775 76.2068 102.775C76.1147 102.775 76.1673 102.821 76.2068 102.702C76.2265 102.569 76.2265 102.434 76.2068 102.301V102.367L74.6937 96.8936L73.9306 94.17L73.7398 93.5122L73.6937 93.3609V93.2885V93.2425V93.1438C73.6422 92.9009 73.6422 92.6499 73.6937 92.407C73.8245 91.7797 74.1043 91.193 74.5095 90.6966C74.595 90.5847 74.674 90.4795 74.7727 90.3611L75.0621 90.065L75.5555 89.5585L76.5357 88.5388L78.4765 86.4863C79.1344 85.8285 79.7462 85.1048 80.3119 84.4141C80.4501 84.2496 80.5883 84.072 80.6738 83.947C80.7593 83.822 80.6738 83.9075 80.6738 83.9075C80.6546 83.9454 80.6392 83.9851 80.6277 84.0259V84.1115C80.6134 84.2338 80.6363 84.3576 80.6935 84.4667C80.7725 84.5851 80.6935 84.4667 80.5948 84.4667C80.4627 84.3978 80.3238 84.3427 80.1804 84.3022L80.4106 84.3417L75.3647 83.9733C74.5227 83.9141 73.6872 83.822 72.8451 83.7496L72.1872 83.6904L71.8714 83.6575L71.4701 83.5983C70.8929 83.5008 70.3446 83.2761 69.8649 82.9405C69.6161 82.7529 69.3946 82.5314 69.207 82.2826C69.0908 82.1388 68.9915 81.9821 68.911 81.8155L68.7794 81.5327L68.2597 80.3814L67.2137 78.0855C66.5558 76.5396 65.8585 75.0002 65.2401 73.4345C65.1633 73.2775 65.1521 73.0964 65.2088 72.931C65.2656 72.7657 65.3857 72.6297 65.5427 72.553C65.6997 72.4762 65.8808 72.4649 66.0461 72.5217C66.2115 72.5784 66.3475 72.6985 66.4242 72.8556C67.2729 74.316 68.0821 75.7896 68.8978 77.2698L70.0886 79.5065L70.6807 80.6182L70.8254 80.9011C70.8254 80.8551 70.8254 80.934 70.8846 80.9603C70.9594 81.0464 71.0457 81.1217 71.1412 81.184C71.3585 81.3223 71.6031 81.4121 71.8583 81.4471H72.0754H72.3912H73.049C73.8845 81.4998 74.7266 81.5327 75.5687 81.5985L80.5948 81.9866C80.6597 81.9928 80.7236 82.006 80.7856 82.0261C81.0987 82.1209 81.4009 82.2488 81.6869 82.4076C82.0816 82.6148 82.4116 82.9266 82.6408 83.3089C82.8188 83.622 82.8903 83.9844 82.8448 84.3417C82.8342 84.4285 82.8166 84.5143 82.7921 84.5983C82.7595 84.6974 82.7199 84.7941 82.6737 84.8877C82.626 84.9783 82.5733 85.0661 82.5158 85.1509C82.325 85.414 82.1671 85.5982 82.0027 85.8087C81.3448 86.5652 80.6869 87.2494 80.0291 87.9336L78.016 89.9664L77.0028 90.9663L76.4897 91.4663L76.2792 91.6702L76.1016 91.8873C75.8967 92.1194 75.7401 92.39 75.641 92.6833C75.641 92.6833 75.641 92.6833 75.641 92.6438V92.6767V92.7754L75.6937 92.9596L75.8713 93.6569L76.5292 96.4199L77.8449 101.939V101.979V102.012C77.8975 102.325 77.8975 102.645 77.8449 102.959C77.8135 103.176 77.7391 103.384 77.6261 103.571C77.5131 103.759 77.3639 103.922 77.187 104.051C76.9834 104.196 76.7451 104.284 76.4963 104.308C76.3024 104.323 76.1073 104.31 75.9173 104.268C75.6496 104.201 75.3895 104.106 75.1411 103.985L72.6017 102.913L67.6347 100.735C67.5548 100.702 67.4822 100.653 67.4211 100.592C67.36 100.531 67.3116 100.458 67.2786 100.378C67.2456 100.298 67.2287 100.212 67.2289 100.126C67.229 100.039 67.2462 99.9535 67.2795 99.8736C67.3127 99.7937 67.3614 99.7211 67.4227 99.66C67.484 99.5989 67.5568 99.5505 67.6368 99.5175C67.7168 99.4845 67.8026 99.4676 67.8891 99.4678C67.9757 99.4679 68.0614 99.4851 68.1413 99.5184L68.1479 99.5447Z" fill="#F4F2D9"/>
<path d="M132.416 123.747C131.179 121.938 129.942 120.129 128.745 118.3L126.929 115.57C126.728 115.357 126.495 115.177 126.238 115.037C125.804 114.963 125.361 114.947 124.922 114.991C122.732 115.274 120.548 115.537 118.344 115.754C118.344 115.754 112.936 111.965 112.995 111.879C113.054 111.794 115.436 108.327 116.64 106.617L118.554 103.867C118.694 103.677 118.815 103.475 118.916 103.262C119.005 103.086 119.071 102.901 119.113 102.709C119.152 102.53 119.166 102.346 119.153 102.163C119.147 102.077 119.133 101.991 119.113 101.906C119.113 101.841 119.054 101.716 119.074 101.749L119.015 101.61L118.087 99.0316C117.778 98.1764 117.488 97.308 117.146 96.4594L116.153 93.9069C115.811 93.0846 115.495 92.2491 115.12 91.4334C114.959 91.0999 114.912 90.7226 114.987 90.3599C115.062 89.9972 115.254 89.6692 115.535 89.4269C115.731 89.2632 115.963 89.1469 116.211 89.0871C116.46 89.0274 116.719 89.0258 116.969 89.0824C117.218 89.139 117.451 89.2524 117.65 89.4137C117.848 89.575 118.007 89.7798 118.113 90.0124C118.159 90.1242 121.232 101.854 121.245 102.038C121.258 102.222 118.166 107.603 116.258 110.807C116.116 111.049 116.042 111.324 116.043 111.604C116.044 111.884 116.121 112.159 116.265 112.4C116.409 112.64 116.615 112.837 116.861 112.97C117.108 113.103 117.386 113.167 117.666 113.156C121.475 112.998 127.817 112.702 128.192 112.952C128.337 113.064 133.396 120.07 133.994 120.997C134.169 121.26 134.278 121.562 134.312 121.876C134.347 122.19 134.305 122.507 134.191 122.802C134.077 123.097 133.894 123.36 133.657 123.569C133.42 123.778 133.136 123.927 132.83 124.004C132.747 123.992 132.667 123.964 132.595 123.92C132.524 123.875 132.463 123.817 132.416 123.747Z" fill="#663F31"/>
<path d="M117.396 91.6833L120.771 100.893C120.886 101.206 120.924 101.541 120.88 101.871C120.837 102.202 120.713 102.516 120.521 102.788L114.864 110.781C114.643 111.093 114.513 111.461 114.49 111.843C114.467 112.225 114.552 112.606 114.734 112.942C114.916 113.279 115.188 113.558 115.52 113.748C115.852 113.938 116.231 114.031 116.613 114.017L126.403 113.649C126.735 113.636 127.066 113.704 127.366 113.847C127.667 113.99 127.928 114.205 128.126 114.471L133.981 122.326C134.208 122.635 134.518 122.874 134.874 123.016C135.23 123.157 135.619 123.196 135.996 123.128C136.373 123.059 136.724 122.886 137.007 122.628C137.291 122.37 137.496 122.037 137.6 121.668L140.277 112.241C140.368 111.921 140.535 111.629 140.764 111.388C140.993 111.147 141.278 110.966 141.593 110.86L150.869 107.715C151.232 107.593 151.554 107.371 151.798 107.075C152.042 106.78 152.198 106.421 152.249 106.041C152.299 105.661 152.243 105.275 152.085 104.925C151.927 104.576 151.674 104.277 151.356 104.064L143.231 98.5908C142.955 98.406 142.728 98.1566 142.57 97.8643C142.411 97.572 142.327 97.2456 142.323 96.9133L142.185 87.1244C142.177 86.7466 142.064 86.3784 141.86 86.0605C141.655 85.7426 141.367 85.4872 141.027 85.3226C140.687 85.158 140.308 85.0904 139.932 85.1274C139.556 85.1645 139.197 85.3046 138.896 85.5324L131.192 91.5912C130.929 91.7962 130.621 91.9344 130.293 91.994C129.966 92.0535 129.628 92.0327 129.31 91.9333L119.955 89.0256C119.59 88.9073 119.198 88.8942 118.825 88.9878C118.452 89.0814 118.112 89.2779 117.846 89.555C117.579 89.832 117.395 90.1785 117.316 90.5548C117.236 90.9311 117.264 91.3221 117.396 91.6833Z" fill="#E5DA17"/>
<path d="M129.758 112.906L133.146 117.136L134.843 119.247C134.944 119.39 135.061 119.52 135.192 119.636C135.29 119.715 135.317 119.675 135.192 119.675C135.067 119.675 135.133 119.675 135.192 119.603C135.27 119.491 135.332 119.37 135.376 119.241V119.307L136.692 113.794L137.35 111.037L137.507 110.38L137.547 110.222V110.143V110.103L137.58 110.005C137.643 109.765 137.755 109.541 137.909 109.347C138.329 108.86 138.859 108.481 139.455 108.242L139.85 108.084L140.251 107.965L140.909 107.761L142.257 107.347L144.948 106.505C145.836 106.209 146.737 105.913 147.58 105.59C147.764 105.519 147.944 105.438 148.119 105.347C148.158 105.347 148.158 105.347 148.158 105.347C148.121 105.37 148.088 105.399 148.06 105.433C148.037 105.451 148.017 105.473 148.001 105.498C147.931 105.597 147.89 105.713 147.882 105.834C147.882 105.979 147.882 105.867 147.81 105.761C147.724 105.64 147.63 105.526 147.527 105.419L147.711 105.564L143.481 102.788C142.777 102.327 142.086 101.834 141.389 101.36L140.869 101.005L140.613 100.828L140.284 100.578C139.847 100.188 139.505 99.7047 139.284 99.1632C139.157 98.8843 139.066 98.5903 139.014 98.2882C138.995 98.1045 138.995 97.9193 139.014 97.7356V97.4198L139.113 96.1633L139.323 93.6503C139.481 91.9728 139.639 90.2953 139.843 88.6178C139.853 88.4433 139.931 88.2798 140.061 88.1632C140.191 88.0466 140.363 87.9865 140.537 87.9961C140.711 88.0057 140.875 88.0842 140.992 88.2143C141.108 88.3445 141.168 88.5156 141.159 88.6901C141.159 90.3742 141.159 92.0649 141.159 93.749L141.113 96.2752V97.5383V97.854C141.113 97.808 141.113 97.9001 141.113 97.933C141.134 98.0461 141.174 98.155 141.231 98.2553C141.35 98.4848 141.521 98.6831 141.731 98.8342L141.909 98.9592L142.178 99.1303L142.711 99.4658C143.415 99.9197 144.132 100.36 144.836 100.828L149.04 103.61L149.191 103.735C149.415 103.972 149.616 104.23 149.79 104.505C150.03 104.879 150.166 105.311 150.185 105.755C150.188 106.116 150.075 106.469 149.862 106.761C149.811 106.834 149.753 106.902 149.691 106.965C149.612 107.031 149.533 107.097 149.448 107.156L149.178 107.307C148.889 107.446 148.658 107.531 148.415 107.623C147.474 107.965 146.566 108.242 145.652 108.518L142.902 109.307L141.534 109.689L140.843 109.88L140.56 109.952L140.297 110.051C140.007 110.159 139.739 110.319 139.507 110.524C139.507 110.524 139.507 110.524 139.507 110.485V110.531V110.623L139.461 110.814L139.277 111.472L138.527 114.215L137.001 119.688V119.721C136.886 120.018 136.726 120.295 136.527 120.543C136.261 120.898 135.867 121.134 135.429 121.201C135.179 121.223 134.928 121.182 134.698 121.083C134.524 121.002 134.362 120.895 134.218 120.767C134.015 120.578 133.832 120.369 133.672 120.142L132.027 117.978L128.738 113.656C128.685 113.587 128.646 113.509 128.623 113.426C128.6 113.343 128.593 113.256 128.604 113.17C128.615 113.084 128.642 113.001 128.685 112.926C128.728 112.851 128.785 112.785 128.853 112.731C128.921 112.678 128.999 112.639 129.083 112.616C129.166 112.593 129.253 112.587 129.339 112.598C129.425 112.608 129.508 112.636 129.583 112.678C129.658 112.721 129.724 112.778 129.777 112.847L129.758 112.906Z" fill="#F4F2D9"/>
<path d="M52.0564 53.3107C52.443 54.405 52.9859 55.4375 53.6682 56.3763C54.3495 57.3338 55.1134 58.2297 55.9511 59.0538C56.7911 59.8762 57.6856 60.6411 58.6286 61.3431C59.0957 61.6984 59.5891 62.001 60.0628 62.3628L61.5561 63.3035L60.5693 63.0996C60.5 63.109 60.4331 63.1313 60.372 63.1654C60.3433 63.1732 60.3164 63.1866 60.293 63.2049L60.2141 63.2641L60.1483 63.3364C60.1483 63.3364 60.1483 63.3364 60.1878 63.3364C60.2617 63.1992 60.3107 63.05 60.3325 62.8957C60.407 62.4414 60.4268 61.9798 60.3917 61.5207C60.3142 60.4859 60.1558 59.4587 59.918 58.4486C59.4123 56.3501 58.7907 54.2813 58.0562 52.2516C58.0364 52.1976 58.0275 52.1403 58.03 52.0828C58.0326 52.0254 58.0465 51.969 58.0709 51.917C58.0954 51.865 58.13 51.8183 58.1726 51.7798C58.2153 51.7412 58.2652 51.7115 58.3194 51.6924C58.4197 51.6579 58.529 51.66 58.6278 51.6986C58.7266 51.7372 58.8085 51.8096 58.8589 51.9029C59.8864 53.864 60.8002 55.8825 61.5956 57.9486C62.0088 59.0162 62.3323 60.1165 62.5627 61.2379C62.6925 61.8585 62.7499 62.4921 62.7337 63.1259C62.7212 63.518 62.6502 63.906 62.5232 64.2772C62.4341 64.5239 62.3101 64.7565 62.1548 64.9679C62.0526 65.1013 61.9356 65.2227 61.8061 65.3297C61.725 65.395 61.6392 65.4544 61.5496 65.5073L61.3851 65.5929C61.2896 65.6331 61.1905 65.6639 61.089 65.685H60.9904C60.8344 65.7157 60.6736 65.7121 60.5192 65.6747C60.3647 65.6372 60.2202 65.5666 60.0957 65.4679L58.622 64.2772C58.1549 63.8496 57.6681 63.4417 57.2142 63.0009C56.3004 62.1265 55.4454 61.1925 54.655 60.205C53.8642 59.2161 53.1619 58.1595 52.5564 57.0473C51.932 55.9279 51.4775 54.7218 51.2078 53.4686C51.1963 53.4124 51.196 53.3545 51.207 53.2983C51.2181 53.242 51.2401 53.1885 51.2719 53.1408C51.3037 53.0931 51.3446 53.0521 51.3924 53.0203C51.4401 52.9885 51.4936 52.9665 51.5499 52.9555C51.6552 52.9328 51.7652 52.9507 51.8579 53.0055C51.9506 53.0604 52.0191 53.1483 52.0499 53.2515L52.0564 53.3107Z" fill="#2B1A15"/>
<path d="M155.125 66.6454C153.436 68.4621 151.906 70.421 150.553 72.5003C149.9 73.4915 149.355 74.5502 148.928 75.658C148.741 76.1453 148.626 76.6572 148.586 77.1777C148.541 77.532 148.622 77.8908 148.816 78.1908L146.974 77.75L158.638 71.3951C158.736 71.3332 158.854 71.3126 158.967 71.3379C159.08 71.3632 159.178 71.4323 159.24 71.53C159.302 71.6277 159.323 71.746 159.298 71.8589C159.272 71.9718 159.203 72.07 159.105 72.1319L148.389 79.967C148.258 80.0634 148.109 80.1331 147.951 80.172C147.794 80.211 147.63 80.2185 147.469 80.194C147.308 80.1696 147.154 80.1137 147.015 80.0296C146.876 79.9455 146.755 79.8348 146.658 79.7038L146.579 79.5854V79.5262C146.172 78.7128 146.047 77.787 146.224 76.8948C146.363 76.1683 146.607 75.4659 146.948 74.8094C147.566 73.636 148.309 72.5331 149.165 71.5201C149.978 70.5236 150.841 69.5685 151.75 68.6585C152.658 67.7572 153.579 66.8888 154.553 66.027C154.638 65.9622 154.745 65.9307 154.852 65.9386C154.959 65.9465 155.059 65.9931 155.134 66.0698C155.209 66.1465 155.254 66.248 155.26 66.3552C155.265 66.4624 155.231 66.5679 155.165 66.652L155.125 66.6454Z" fill="#2B1A15"/>
<path d="M106.013 127.356C106.837 126.392 106.097 124.407 104.36 122.921C102.623 121.436 100.547 121.013 99.7229 121.977C98.8986 122.94 99.6385 124.926 101.375 126.411C103.112 127.897 105.188 128.32 106.013 127.356Z" fill="#F4F2F2"/>
<path d="M74.5293 147.121C74.5293 147.121 77.8976 165.08 86.1737 165.988C94.4497 166.896 102.443 152.12 102.443 152.12C94.3708 152.949 81.3909 150.436 74.5293 147.121Z" fill="#930043"/>
<path d="M79.3186 160.488C79.3186 160.488 92.3182 156.442 95.1076 161.028C95.1076 161.028 90.3709 167.764 86.2 165.988C83.503 164.737 81.1505 162.85 79.3449 160.488" fill="#BA3A6E"/>
<path d="M68.4504 143.45C68.4504 143.45 88.9432 159.087 112.423 148.713" stroke="#2B1A15" stroke-width="4" stroke-linecap="round" stroke-linejoin="round"/>
<path d="M74.457 147.772C75.2267 157.206 78.7529 164.146 85.4106 165.317C98.0944 167.554 102.982 151.699 102.982 151.699" stroke="#2B1A15" stroke-width="4" stroke-linecap="round" stroke-linejoin="round"/>
<path d="M46.5894 216.281L182 168L48.1617 219.36L46.5894 216.281Z" fill="#2B1A15" stroke="#2B1A15" stroke-width="4" stroke-linecap="round" stroke-linejoin="round"/>
<path d="M190.382 196.499L190.032 185.908" stroke="white" stroke-width="19" stroke-linecap="round" stroke-linejoin="round"/>
<path d="M193.354 202.42V202.861" stroke="white" stroke-width="21" stroke-linecap="round" stroke-linejoin="round"/>
<path d="M121.08 221.807C121.08 221.807 120.383 218.281 122.639 217.682L124.889 217.077C124.889 217.077 117.916 216.274 119.574 210.735C121.232 205.196 132.133 200.545 133.001 204.255C133.417 203.598 134.066 203.121 134.818 202.92C135.57 202.718 136.371 202.808 137.06 203.17C139.639 204.486 140.04 207.992 140.04 207.992C140.04 207.992 141.566 206.485 143.139 206.933L143.264 202.209C143.264 202.209 143.441 198.571 146.875 198.756C146.875 198.756 148.481 198.907 149.178 199.933C149.178 199.933 151.434 197.058 154.592 198.953C155.745 196.732 157.714 195.043 160.086 194.243C160.086 194.243 165.816 191.44 167.46 192.855C167.46 192.855 170.612 189.059 173.901 191.427C174.048 191.549 174.219 191.637 174.404 191.685C174.588 191.734 174.781 191.742 174.968 191.709C175.156 191.676 175.334 191.602 175.491 191.493C175.647 191.384 175.778 191.243 175.875 191.079C176.572 190.111 177.374 188.533 179.374 188.993C179.903 189.123 180.389 189.385 180.789 189.754C181.188 190.124 181.487 190.588 181.657 191.105L185.67 202.887C185.67 202.887 186.986 205.617 182.69 206.834C182.69 206.834 180.46 207.374 179.44 206.255C179.44 206.255 177.822 205.176 177.467 206.782C177.32 207.309 177.06 207.797 176.705 208.213C176.349 208.629 175.907 208.961 175.409 209.188C174.911 209.414 174.369 209.529 173.823 209.523C173.276 209.518 172.736 209.393 172.243 209.156C172.243 209.156 169.658 213.268 164.756 213.472C159.855 213.676 158.25 212.603 158.25 212.603C158.25 212.603 156.651 217.261 152.158 214.228C151.159 213.367 150.82 214.751 150.5 213.472C150.5 213.472 149.474 217.005 148.073 218.143C146.671 219.281 144.231 217.09 144.231 217.09C144.231 217.09 142.757 220.853 140.718 220.235C140.136 220.07 139.594 219.786 139.128 219.401C138.661 219.016 138.28 218.538 138.007 217.998C138.007 217.998 137.652 224.576 130.113 225.07C122.343 225.563 122.087 224.432 121.08 221.807Z" fill="white" stroke="white" stroke-width="9" stroke-miterlimit="10"/>
<path d="M130.593 208.781C129.253 208.743 127.916 208.944 126.646 209.373C126.064 209.561 125.514 209.836 125.014 210.189C124.845 210.29 124.699 210.425 124.586 210.586C124.473 210.747 124.395 210.93 124.357 211.123C124.361 211.543 124.52 211.946 124.804 212.255C125.12 212.686 125.526 213.043 125.995 213.301C127.112 213.772 128.344 213.9 129.534 213.669C130.192 213.597 130.935 213.478 131.764 213.413C132.224 213.369 132.686 213.369 133.146 213.413C133.829 213.454 134.482 213.707 135.014 214.136C135.178 214.268 135.324 214.42 135.448 214.59C135.574 214.744 135.678 214.915 135.758 215.097C135.84 215.256 135.906 215.424 135.955 215.597C136.002 215.752 136.04 215.91 136.067 216.07C136.11 216.342 136.132 216.617 136.133 216.893C136.126 218.143 135.8 219.37 135.185 220.458C134.897 220.924 134.542 221.345 134.133 221.708C133.734 222.054 133.292 222.346 132.817 222.577C131.948 222.998 131.014 223.267 130.054 223.373C129.18 223.474 128.3 223.496 127.422 223.438C126.995 223.405 126.58 223.366 126.153 223.313C125.71 223.259 125.271 223.18 124.837 223.077H124.712C124.14 222.91 123.654 222.53 123.355 222.015C123.055 221.5 122.965 220.89 123.103 220.31C123.24 219.731 123.596 219.226 124.095 218.901C124.594 218.576 125.199 218.455 125.784 218.564C125.929 218.598 126.07 218.646 126.205 218.708C126.476 218.818 126.753 218.912 127.034 218.991C127.335 219.083 127.64 219.16 127.949 219.221C128.539 219.35 129.141 219.416 129.745 219.419C130.262 219.432 130.778 219.358 131.271 219.202C131.653 219.079 131.993 218.851 132.251 218.544C132.54 218.16 132.722 217.706 132.777 217.228C132.806 217.103 132.823 216.975 132.83 216.847C132.836 216.752 132.836 216.658 132.83 216.564C132.83 216.426 132.83 216.491 132.929 216.564C133.027 216.636 132.975 216.564 132.764 216.511C132.491 216.465 132.212 216.452 131.935 216.472C131.277 216.472 130.534 216.577 129.758 216.616C128.931 216.678 128.1 216.658 127.278 216.557C126.355 216.46 125.46 216.18 124.646 215.735C123.827 215.264 123.126 214.614 122.594 213.834C122.454 213.641 122.329 213.439 122.219 213.228C122.097 213.006 121.996 212.772 121.916 212.531C121.722 211.995 121.654 211.42 121.719 210.854C121.784 210.277 121.987 209.724 122.311 209.242C122.592 208.827 122.928 208.453 123.311 208.13C123.982 207.581 124.715 207.111 125.495 206.729C126.238 206.374 126.975 206.071 127.718 205.755C128.462 205.439 129.185 205.203 130.021 204.913H130.054C130.306 204.816 130.575 204.77 130.845 204.779C131.116 204.788 131.381 204.852 131.626 204.966C131.871 205.079 132.091 205.241 132.272 205.442C132.453 205.643 132.592 205.878 132.681 206.133C132.769 206.388 132.805 206.659 132.787 206.929C132.768 207.198 132.696 207.462 132.573 207.703C132.451 207.944 132.281 208.158 132.075 208.332C131.868 208.506 131.628 208.636 131.37 208.716C131.117 208.786 130.854 208.808 130.593 208.781Z" fill="#2B1A15"/>
<path d="M137.58 205.867L141.915 216.722L140.067 216.965L140.356 210.525C140.378 210.034 140.594 209.572 140.957 209.24C141.32 208.908 141.799 208.734 142.29 208.755C142.591 208.769 142.883 208.856 143.143 209.007C143.403 209.158 143.623 209.37 143.784 209.623L147.191 215.07L145.455 215.682L144.922 202.249C144.912 201.99 144.953 201.731 145.043 201.488C145.133 201.245 145.27 201.021 145.446 200.831C145.802 200.447 146.296 200.22 146.82 200.2C147.343 200.18 147.853 200.368 148.237 200.724C148.622 201.08 148.849 201.574 148.869 202.098C148.879 202.194 148.879 202.291 148.869 202.387L147.415 215.781C147.402 215.914 147.362 216.043 147.299 216.161C147.235 216.278 147.149 216.382 147.045 216.466C146.941 216.55 146.821 216.612 146.693 216.649C146.564 216.687 146.429 216.698 146.297 216.682C146.095 216.664 145.905 216.583 145.751 216.452L145.685 216.393L140.784 212.242L144.211 211.34L141.981 217.379V217.452C141.935 217.578 141.864 217.694 141.773 217.793C141.682 217.892 141.572 217.972 141.449 218.029C141.327 218.085 141.195 218.116 141.06 218.121C140.926 218.126 140.791 218.104 140.665 218.057C140.451 217.977 140.27 217.826 140.152 217.629L134.021 207.63C133.886 207.408 133.795 207.162 133.755 206.905C133.715 206.648 133.727 206.386 133.788 206.133C133.849 205.88 133.96 205.642 134.113 205.433C134.267 205.223 134.46 205.045 134.682 204.91C134.904 204.775 135.15 204.685 135.407 204.645C135.664 204.605 135.926 204.616 136.179 204.677C136.432 204.738 136.67 204.849 136.88 205.002C137.089 205.156 137.267 205.349 137.402 205.571C137.471 205.664 137.53 205.763 137.58 205.867Z" fill="#2B1A15"/>
<path d="M153.27 200.604L156.816 211.34C156.981 211.839 156.941 212.382 156.705 212.851C156.47 213.319 156.058 213.675 155.559 213.84C155.061 214.005 154.518 213.965 154.049 213.73C153.58 213.494 153.224 213.082 153.06 212.584C153.035 212.511 153.015 212.436 153 212.36L150.724 201.282C150.652 200.949 150.711 200.602 150.889 200.312C151.067 200.022 151.351 199.813 151.68 199.727C152.01 199.642 152.36 199.688 152.656 199.855C152.952 200.022 153.172 200.298 153.27 200.624V200.604Z" fill="#2B1A15"/>
<path d="M165.191 197.506C163.84 197.444 162.489 197.638 161.211 198.078C160.627 198.266 160.077 198.544 159.579 198.9C159.41 199.004 159.264 199.142 159.151 199.305C159.037 199.468 158.959 199.653 158.921 199.848C158.939 200.264 159.099 200.661 159.375 200.973C159.688 201.405 160.095 201.761 160.566 202.012C161.681 202.48 162.91 202.608 164.099 202.38C164.789 202.308 165.5 202.19 166.322 202.124C166.784 202.083 167.249 202.083 167.71 202.124C168.38 202.175 169.019 202.425 169.546 202.841C169.863 203.102 170.119 203.43 170.296 203.801C170.378 203.963 170.444 204.133 170.493 204.308C170.541 204.461 170.578 204.617 170.605 204.775C170.646 205.049 170.666 205.327 170.664 205.604C170.67 205.846 170.659 206.087 170.631 206.328C170.557 207.335 170.246 208.311 169.723 209.176C169.431 209.64 169.074 210.061 168.664 210.426C168.263 210.77 167.821 211.064 167.349 211.301C166.478 211.722 165.541 211.989 164.579 212.09C163.706 212.192 162.824 212.212 161.947 212.15C161.52 212.15 161.099 212.077 160.678 212.025C160.235 211.97 159.796 211.891 159.362 211.788H159.244C158.945 211.716 158.664 211.586 158.417 211.406C158.169 211.226 157.959 210.998 157.799 210.737C157.639 210.475 157.532 210.185 157.484 209.882C157.436 209.579 157.448 209.27 157.52 208.972C157.592 208.674 157.721 208.393 157.902 208.145C158.082 207.897 158.309 207.687 158.571 207.527C158.832 207.367 159.123 207.26 159.425 207.212C159.728 207.165 160.038 207.177 160.336 207.249C160.476 207.283 160.613 207.331 160.743 207.393C161.014 207.503 161.291 207.597 161.572 207.676C161.875 207.762 162.178 207.847 162.487 207.906C163.078 208.03 163.679 208.093 164.283 208.097C164.798 208.105 165.311 208.03 165.803 207.873C166.184 207.753 166.522 207.525 166.776 207.216C167.059 206.84 167.24 206.398 167.302 205.933C167.327 205.807 167.345 205.679 167.355 205.551C167.361 205.459 167.361 205.367 167.355 205.275C167.355 205.13 167.355 205.203 167.454 205.275C167.552 205.347 167.513 205.275 167.302 205.229C167.028 205.186 166.75 205.173 166.474 205.189C165.816 205.189 165.072 205.295 164.296 205.334C163.469 205.396 162.639 205.376 161.816 205.275C160.893 205.174 159.999 204.893 159.184 204.446C158.363 203.973 157.659 203.321 157.125 202.538C156.985 202.348 156.862 202.145 156.757 201.933C156.632 201.711 156.528 201.478 156.448 201.236C156.25 200.694 156.185 200.113 156.257 199.541C156.329 198.969 156.536 198.422 156.862 197.946C157.14 197.531 157.476 197.159 157.862 196.841C158.534 196.294 159.267 195.826 160.046 195.447C160.79 195.091 161.52 194.789 162.27 194.473C163.02 194.157 163.73 193.914 164.566 193.611C164.845 193.524 165.14 193.499 165.43 193.537C165.72 193.574 165.998 193.675 166.245 193.831C166.493 193.987 166.703 194.195 166.862 194.441C167.022 194.686 167.125 194.963 167.167 195.253C167.208 195.542 167.187 195.837 167.103 196.117C167.019 196.398 166.875 196.656 166.682 196.876C166.488 197.095 166.249 197.269 165.982 197.387C165.714 197.505 165.424 197.564 165.132 197.558L165.191 197.506Z" fill="#2B1A15"/>
<path d="M173.322 193.592L175.408 206.446C175.436 206.617 175.43 206.791 175.391 206.96C175.351 207.128 175.279 207.287 175.179 207.428C175.078 207.568 174.95 207.687 174.803 207.779C174.656 207.87 174.493 207.931 174.322 207.959C173.999 208.013 173.668 207.944 173.393 207.766C173.118 207.589 172.919 207.315 172.835 206.999L169.467 194.42C169.4 194.17 169.382 193.909 169.416 193.651C169.449 193.394 169.533 193.146 169.663 192.921C169.792 192.696 169.965 192.499 170.171 192.341C170.376 192.183 170.611 192.067 170.862 192C171.112 191.932 171.374 191.915 171.631 191.948C171.888 191.982 172.136 192.066 172.361 192.195C172.586 192.325 172.783 192.497 172.941 192.703C173.099 192.909 173.215 193.144 173.283 193.394C173.296 193.46 173.316 193.526 173.322 193.592Z" fill="#2B1A15"/>
<path d="M180.322 191.625L183.644 202.808C183.724 203.058 183.753 203.321 183.729 203.583C183.706 203.844 183.631 204.098 183.508 204.33C183.385 204.562 183.218 204.767 183.015 204.933C182.812 205.1 182.578 205.224 182.326 205.299C182.075 205.373 181.811 205.397 181.55 205.369C181.289 205.341 181.036 205.26 180.807 205.133C180.577 205.006 180.376 204.834 180.213 204.628C180.051 204.422 179.931 204.186 179.861 203.933C179.847 203.899 179.836 203.864 179.828 203.828L177.144 192.493C177.04 192.074 177.104 191.631 177.323 191.26C177.543 190.888 177.899 190.618 178.316 190.506C178.733 190.395 179.176 190.452 179.552 190.665C179.927 190.878 180.204 191.229 180.322 191.644V191.625Z" fill="#2B1A15"/>
<path d="M172.723 198.999L179.894 196.401C180.224 196.281 180.588 196.297 180.905 196.446C181.223 196.595 181.469 196.863 181.588 197.193C181.708 197.523 181.691 197.887 181.543 198.204C181.394 198.522 181.125 198.768 180.796 198.887C180.723 198.913 180.648 198.933 180.572 198.946L173.066 200.262C172.98 200.277 172.892 200.275 172.807 200.256C172.723 200.237 172.642 200.202 172.572 200.151C172.501 200.101 172.44 200.038 172.394 199.964C172.348 199.89 172.317 199.808 172.302 199.723C172.278 199.572 172.306 199.417 172.383 199.285C172.46 199.153 172.58 199.052 172.723 198.999Z" fill="#2B1A15"/>
<path d="M190.598 196.828L188.071 185.539C187.956 185.028 188.049 184.492 188.329 184.049C188.609 183.606 189.054 183.293 189.565 183.178C190.076 183.062 190.612 183.155 191.055 183.435C191.498 183.715 191.811 184.16 191.927 184.671C191.927 184.743 191.927 184.822 191.966 184.895L193.229 196.4C193.286 196.749 193.202 197.107 192.995 197.393C192.893 197.535 192.763 197.656 192.615 197.748C192.466 197.84 192.3 197.902 192.127 197.93C191.778 197.987 191.421 197.902 191.134 197.696C190.847 197.489 190.654 197.177 190.598 196.828Z" fill="#2B1A15"/>
<path d="M193.354 202.42V202.861" stroke="#2B1A15" stroke-width="4" stroke-linecap="round" stroke-linejoin="round"/>
<path d="M68.6477 52.3897L115.653 2.68889L145.566 67.5335C145.566 67.5335 107.265 76.7501 68.6477 52.3897Z" fill="#90ABF1"/>
<path d="M67.3386 52.5542L90.2853 26.9308C98.0087 18.28 105.844 9.57003 113.758 0.892939C114.219 0.389605 114.861 0.0896459 115.543 0.0588167C116.225 0.0279876 116.892 0.268803 117.396 0.728475C117.637 0.945089 117.834 1.2065 117.975 1.49817L118.021 1.59684C120.6 6.96493 123.172 12.3264 125.685 17.7274L133.264 33.8909C135.817 39.2656 138.257 44.6929 140.738 50.1004L144.448 58.2183L148.086 66.3757L148.119 66.4547C148.414 67.1159 148.434 67.8672 148.175 68.5433C147.916 69.2193 147.399 69.7648 146.737 70.0597C146.57 70.1324 146.396 70.1897 146.218 70.2307C145.257 70.4347 144.441 70.5662 143.586 70.7044C142.731 70.8425 141.869 70.9412 141.007 71.0465C139.297 71.2438 137.586 71.3886 135.869 71.5004C132.448 71.7065 129.03 71.7504 125.613 71.632C118.793 71.4116 112.006 70.5727 105.337 69.1255C98.6863 67.6877 92.1795 65.6487 85.8972 63.0338L83.5684 62.0141L82.4039 61.501L81.2526 60.9484L78.9632 59.8432L76.7133 58.6591C75.2002 57.896 73.7529 57.021 72.2792 56.179C71.4067 55.685 70.5652 55.1379 69.7596 54.5409C68.8912 53.8897 68.0623 53.1923 67.3386 52.5542ZM69.9701 52.2253C70.628 52.4555 71.2859 52.6331 71.8122 52.8831C72.3385 53.1331 72.7858 53.4292 73.5884 53.8765C75.0292 54.6857 76.4502 55.5343 77.9238 56.2777L80.1277 57.4223L82.3645 58.4881L83.4894 59.0209L84.6275 59.5143L86.9038 60.5011C93.0412 63.0169 99.3936 64.9721 105.883 66.3428C112.382 67.724 118.992 68.5145 125.633 68.7045C128.955 68.7966 132.284 68.744 135.606 68.5269C138.919 68.3235 142.215 67.9082 145.474 67.2836L145.283 67.6783L130.317 35.2461L115.409 2.80072L115.844 2.87308C108.16 11.2366 100.513 19.5409 92.9036 27.786C85.2942 36.0311 77.6431 44.1885 69.9504 52.2582L69.9701 52.2253Z" fill="#2B1A15"/>
<path d="M115.344 5.20847L141.58 64.4153C141.58 64.4153 143.395 65.8231 134.159 66.3494L115.344 5.20847Z" fill="#DCE6FF"/>
<path d="M114.284 7.65569L74.0555 51.9095C74.0555 51.9095 71.9568 52.6266 80.6868 55.6724L114.284 7.65569Z" fill="#567AD7"/>
</svg>
