<svg xmlns="http://www.w3.org/2000/svg" viewBox="0 0 511 511"><defs><style>.cls-1{fill:#fff;}.cls-2{fill:#84523e;}.cls-3{fill:#663f31;}.cls-4{fill:#c9916b;}.cls-5{fill:#2b1a15;}.cls-6{fill:#830604;}.cls-7{fill:#af1c1c;}.cls-8{fill:none;stroke:#2b1a15;stroke-linecap:round;stroke-linejoin:round;stroke-width:3px;}.cls-9{fill:#4c2f26;}</style></defs><title>bear-hi</title><g id="hi"><path class="cls-1" d="M450.8,278.47l-9.77-7.3.71-.72a7.28,7.28,0,0,0,.54-.58,9.91,9.91,0,0,0-.73-13.58c13.6-8.88,19.75-22,16.18-35.48-2-7.47-7.62-12.3-15.6-13.49.56-6.83-1.22-14.15-7.48-19.45A21.17,21.17,0,0,0,420.52,183h-1a33.47,33.47,0,0,0-9.61,1.53c-4.35-8.13-12.93-10.62-18.05-10.68h-.58a20,20,0,0,0-2.17-.12,17.56,17.56,0,0,0-12.72,5.38c-6.11,6.18-8.49,16.76-9.36,25.42l-.6-.07a20.16,20.16,0,0,0-4.3,0c-1,.07-1.89.17-2.78.32a15.33,15.33,0,0,0-12.79,11.09,18.2,18.2,0,0,0-.71,2.39c-1.14,5.26-.31,11.18,2.41,17.13l.24.72c-1,1.3-2.11,2.56-3.15,3.77-1.47,1.33-3.08,2.73-4.75,4.17,3.08-16.19,1.35-31.37-.53-38.81-1.29-5.15-2.64-15.15-3.73-27.63a34.22,34.22,0,0,0,3.82-1.15,40.21,40.21,0,0,0,26.75-29.54c2.94-15.12-2.26-32.83-12.95-44.08A33.32,33.32,0,0,0,334.22,92.4a36.31,36.31,0,0,0-5.76-.45A50.57,50.57,0,0,0,308,96.81a145.92,145.92,0,0,0-39.41-25.58l.88-.81A7.21,7.21,0,0,0,266,58L266,58a7.22,7.22,0,0,0-5.39-12l-.6,0c-9.83.82-17.91,6.42-23.2,15.94-1.81-.29-3.64-.56-5.49-.78a137.39,137.39,0,0,0-18.84-1.29,140.64,140.64,0,0,0-44.59,7.21c-2.78-8.87-9.08-21.63-22.94-27.81a38.64,38.64,0,0,0-19.06-5.12c-23.3,0-40.35,21.58-41.06,22.5a7.25,7.25,0,0,0-.46.67C73.85,74.54,71.19,90,76.47,103.34c4.88,12.32,15.46,19.54,23.14,23.35-6.72,11.36-18.32,34.88-23.78,69-6.1,38.13,17.93,64.08,31.31,75.29-23.34,18.58-39.32,45.74-46.4,79A178.77,178.77,0,0,0,57,397.6C52.7,413,54.24,424.72,61.6,432.33c3.59,3.91,8.47,6.4,14.54,7.43,5.13,6.53,12,10.18,19.6,10.4l.64,3.22a7.2,7.2,0,0,0,4,5.11l.68.32.28.2c25.38,16.62,103.14,19.81,111.92,20.12h.38q4.13-.08,8-.19h3c47.9,0,72.11-8.14,73.12-8.48a6.71,6.71,0,0,0,1.09-.49c12.34-3.24,19.93-6.83,24.55-9.81a7.36,7.36,0,0,0,2.37-1l4.24-2.77a7.22,7.22,0,0,0,3-4.15c5.68-20.88,5.18-43.91,2.05-65.2a10.89,10.89,0,0,0,1.58-.35,10,10,0,0,0,6.91-8.36A9,9,0,0,0,348.8,380a9.13,9.13,0,0,0,2.75-.43,9,9,0,0,0,5.18-4.29,9.92,9.92,0,0,0,17-10.24l-3.63-6.52c.31-.25.62-.52.93-.79l.1-.09a19,19,0,0,0,4.61-6.39l4.34,5.71a9.07,9.07,0,0,0,5.23,3.35,9,9,0,0,0,10.46-5.81c.27,0,.54,0,.81,0a9,9,0,0,0,8.59-11.8A9.91,9.91,0,0,0,414.68,332l.16-.1a18.8,18.8,0,0,0,5.22-5,15.61,15.61,0,0,0,2-4,9,9,0,0,0,7.61-.73l13.92-8.14a8.23,8.23,0,0,0,.92-.62,9.91,9.91,0,0,0,2-13.9,10,10,0,0,0-8-4,9.85,9.85,0,0,0-3.06.49,9.75,9.75,0,0,0-1-1.6,9.07,9.07,0,0,0-3.6-2.84,10.08,10.08,0,0,0,1-3.32l6.36,5.58c.17.15.37.31.59.47a9.8,9.8,0,0,0,5.94,2A9.93,9.93,0,0,0,454.69,285,9.86,9.86,0,0,0,450.8,278.47Z"/><path class="cls-2" d="M324.34,450.08S312.55,470.29,213.6,472c0,0-83.8-3-108.22-19l-1.79-11.37s-14.06,6.5-23.53-9c0,0-26.05.77-15.63-34.29,0,0-8.52-84.95,54.95-127.26,0,0-43.89-26.85-36.31-74.22s27.47-73.58,27.47-73.58S61,109.75,90.64,61.12c0,0,24-30.85,51.15-15.38,0,0,18.56,9.11,20.23,31.48,0,0,74.53-36.32,144.32,28.74,0,0,26.82-17.42,43.58,3.79,17.05,21.58,11.58,60.42-22.11,61.58,0,0-.08,21.07,3.79,31.27,4.15,10.92,3.92,46.74-4.6,59.89,0,0,9.66,1.06,29.87-25.16,0,0-10.66-23.07,3.77-25.41,10.72-1.74,13.28,4.26,13.28,4.26s-1.58-41.37,19.9-34.43c0,0,10.42,2.21,10.73,12.95,0,0,15.16-9.16,24.64-1.26S432,214.91,432,214.91s16.11-4.73,18.63,10.74S435.31,252.81,426,255c-6.34,1.51-6.95,51.48-107.69,93.16C318.34,348.18,336.66,412.4,324.34,450.08Z"/><path class="cls-3" d="M83.49,97.22c10.13,9.92,20.71,15,36.16,18.53,0,0-34.66,57.07-20.21,103.9s89.69,77.37,125.38,79,78-1.58,101.37-28.42c0,0-15.79,53.05-111.48,42.95,0,0-43.19-3.24-105.6-33.52l11.18-8.48s-48-26.85-34.56-81.8,25.71-66,25.71-66S87.28,116.07,83.49,97.22Z"/><path class="cls-3" d="M310.08,326.71s43.16,11,94.28-36.12c0,0-26.69,34.54-85.12,57.59Z"/><path class="cls-3" d="M124,460.33s-3.37-13.3-2.74-16.46c0,0,14.14-1.58,10.66-26.84,0,0-3.87,21.65-21.39,18.16l-5.84,5.73,1.94,12.55A84.28,84.28,0,0,0,124,460.33Z"/><path class="cls-3" d="M329.58,157.75s20.7,6.86,28.51-9.83c0,0-7.67,22.46-28.51,23.41Z"/><path class="cls-4" d="M162.82,467.69S144.6,394.61,182.5,351s88.74-13.58,88.74-13.58,52.4,28.95,24.3,126.27C295.54,463.71,251.47,478.88,162.82,467.69Z"/><path class="cls-5" d="M177.58,296.51a190.39,190.39,0,0,1-27.4-8.78,172.57,172.57,0,0,1-25.82-12.86A115.57,115.57,0,0,1,101.52,257a72.53,72.53,0,0,1-16-24.53,77.34,77.34,0,0,1-4.58-29,107.24,107.24,0,0,1,1.49-14.55,120.06,120.06,0,0,1,3.26-14.19c5.43-18.62,14.23-36,24.73-52h0l.78,1.81a43.2,43.2,0,0,1-10.58-3.73,40.82,40.82,0,0,1-9.37-6.32,32.41,32.41,0,0,1-7-9.09,33,33,0,0,1-3.36-11c-.08-1-.24-1.92-.25-2.87s0-1.92,0-2.88l.19-2.85c.05-1,.25-1.89.36-2.83l.21-1.41.29-1.38c.21-.92.39-1.85.62-2.77l.78-2.7.4-1.35L83.87,72l.95-2.64c.34-.87.74-1.72,1.1-2.59l.56-1.29.27-.64.14-.33.22-.4c.49-.88,1-1.7,1.53-2.5a48.37,48.37,0,0,1,7.43-8.65,45.15,45.15,0,0,1,9.3-6.62l1.25-.7c.43-.21.88-.39,1.31-.59l2.63-1.15c.9-.32,1.81-.6,2.72-.89a20.15,20.15,0,0,1,2.76-.77,40,40,0,0,1,5.62-1L124.5,41c1-.07,1.89,0,2.84,0a35.91,35.91,0,0,1,11.32,1.52,32.3,32.3,0,0,1,10.24,5.25,35.06,35.06,0,0,1,7.68,8.41,45.63,45.63,0,0,1,4.87,10.1,47.7,47.7,0,0,1,2.41,10.86h0l-1.35-.76a85.37,85.37,0,0,1,9.19-3.61c3.1-1,6.24-2,9.42-2.8a141.07,141.07,0,0,1,19.36-3.51,134.38,134.38,0,0,1,39.32,1.45A130.44,130.44,0,0,1,277,81.08a150.37,150.37,0,0,1,31.8,23.3h0l.12.13c1.74,2.09,3.24,4.13,4.7,6.28s2.84,4.33,4.13,6.56a110.56,110.56,0,0,1,6.82,13.91c.51,1.19.91,2.43,1.36,3.64s.89,2.43,1.24,3.68l1.1,3.73c.34,1.25.6,2.52.9,3.78.66,2.52,1,5.1,1.39,7.67.25,1.27.26,2.58.4,3.87s.24,2.6.3,3.9v3.9c0,1.3,0,2.63,0,3.82a64.3,64.3,0,0,0,.25,7.34c.43,5,.92,10,1.5,15a138.64,138.64,0,0,0,2.39,14.7,84.42,84.42,0,0,1,2,15.48,88.31,88.31,0,0,1-4,30.69,69.57,69.57,0,0,1-6.44,14.2A68.74,68.74,0,0,1,317.25,279l-2.81,2.7c-1,.85-2,1.65-3,2.47-.51.4-1,.84-1.52,1.21l-1.6,1.1c-1.08.72-2.1,1.53-3.22,2.17a75.72,75.72,0,0,1-6.76,3.75c-1.16.55-2.29,1.18-3.48,1.66l-3.57,1.46a110.24,110.24,0,0,1-29.76,6.78.52.52,0,0,1-.57-.47.53.53,0,0,1,.42-.57h0l7.43-1.41,7.33-1.76c2.4-.75,4.81-1.44,7.17-2.25l3.51-1.32,1.76-.65c.58-.24,1.14-.51,1.71-.76l3.41-1.53c1.14-.51,2.2-1.16,3.31-1.73,2.23-1.11,4.28-2.5,6.38-3.82a70.14,70.14,0,0,0,11.27-9.55,65.13,65.13,0,0,0,8.79-11.77,66.47,66.47,0,0,0,5.87-13.48A86,86,0,0,0,332.91,222,79.82,79.82,0,0,0,331,207.41a142.08,142.08,0,0,1-2.58-15.23c-.63-5.06-1.14-10.12-1.56-15.19a68,68,0,0,1-.26-7.82c.05-1.34,0-2.54,0-3.77v-3.68A89.16,89.16,0,0,0,320.27,133a106,106,0,0,0-6.44-13.37c-1.22-2.15-2.52-4.26-3.91-6.31a70.17,70.17,0,0,0-4.34-5.9l.14.14A146.78,146.78,0,0,0,275,84.7a126.72,126.72,0,0,0-35.92-13A134,134,0,0,0,220,69.28a143.39,143.39,0,0,0-19.22.37,138.08,138.08,0,0,0-19.05,2.93,117.92,117.92,0,0,0-18.44,5.51h0a1,1,0,0,1-1.24-.53,1.14,1.14,0,0,1-.06-.25h0a48,48,0,0,0-8-19.34,32.07,32.07,0,0,0-7.23-7.29,29.39,29.39,0,0,0-9.16-4.32,33,33,0,0,0-10.18-1.07c-.86,0-1.73,0-2.59.06l-2.57.3a36.26,36.26,0,0,0-5.07,1,17.38,17.38,0,0,0-2.46.73c-.81.28-1.63.54-2.43.83l-2.35,1c-.38.18-.78.34-1.16.53l-1.12.64a40,40,0,0,0-8.31,6,44.53,44.53,0,0,0-6.72,7.79c-.47.7-.92,1.43-1.32,2.13l-.1.19-.13.31-.26.6-.52,1.2c-.34.81-.72,1.6-1,2.42l-.91,2.47-.47,1.23L87.46,76l-.77,2.51-.6,2.53-.29,1.27-.2,1.28a37.06,37.06,0,0,0-.43,10.23,28.68,28.68,0,0,0,8.58,18,42.7,42.7,0,0,0,17.94,10.34l.11,0a1.19,1.19,0,0,1,.8,1.49,1.08,1.08,0,0,1-.13.29h0c-2.3,4.16-4.56,8.33-6.7,12.57s-4.14,8.52-6,12.85A195.67,195.67,0,0,0,90.13,176a120.52,120.52,0,0,0-4.46,27.62,72.43,72.43,0,0,0,4.09,27.25,68.7,68.7,0,0,0,14.77,23.27,114.69,114.69,0,0,0,21.68,17.82,187.23,187.23,0,0,0,25,13.33A209.61,209.61,0,0,0,177.94,295h0a.77.77,0,0,1,.53,1A.79.79,0,0,1,177.58,296.51Z"/><path class="cls-5" d="M306.76,105.23a42.91,42.91,0,0,1,7.22-3.94,45,45,0,0,1,7.83-2.62,35.38,35.38,0,0,1,8.3-.92,28.92,28.92,0,0,1,8.38,1.36,29.51,29.51,0,0,1,13.72,9.73,42.9,42.9,0,0,1,4.63,7,44.8,44.8,0,0,1,3.28,7.68,52.38,52.38,0,0,1,1.92,8.12,45.69,45.69,0,0,1,.4,8.35,34.94,34.94,0,0,1-4.57,16.1,31.4,31.4,0,0,1-5.22,6.65,33.12,33.12,0,0,1-6.79,4.94,43.06,43.06,0,0,1-15.78,4.58,1,1,0,0,1-1.1-.9,1,1,0,0,1,.82-1.08h0a43.13,43.13,0,0,0,14.64-5.08,33,33,0,0,0,6-4.68,28.17,28.17,0,0,0,7.21-13.13,34.12,34.12,0,0,0,1.08-7.54,46.7,46.7,0,0,0-.45-7.65,47.21,47.21,0,0,0-1.8-7.49,45,45,0,0,0-3-7.07,38.57,38.57,0,0,0-4.18-6.41,31.3,31.3,0,0,0-5.37-5.3,24.19,24.19,0,0,0-6.55-3.55,29.15,29.15,0,0,0-15-.93,47.33,47.33,0,0,0-14.64,5.27l0,0a.87.87,0,0,1-.92-1.48Z"/><path class="cls-5" d="M326.19,450.42,322,453.19c14.35-59-17.85-141.89-18.17-142.73-.21-.6,1-1,1.28-.49C306.39,313.44,342.25,391.42,326.19,450.42Z"/><path class="cls-5" d="M323.51,264.81c5.83-4.42,11.63-8.93,17.33-13.53,2.85-2.3,5.67-4.64,8.42-7,1.37-1.2,2.73-2.42,4-3.67.64-.62,1.29-1.25,1.87-1.9a10.19,10.19,0,0,0,1.45-1.85l.15,1.27h0a30.94,30.94,0,0,1-3.32-6.1,25.23,25.23,0,0,1-1.78-6.73,16,16,0,0,1,.68-7.08,10.8,10.8,0,0,1,4.58-5.61,14.84,14.84,0,0,1,13.72-.56,11.14,11.14,0,0,1,1.57.82,12,12,0,0,1,1.45,1c1,.74,1.75,1.49,2.57,2.21.41.37.82.73,1.23,1.06l.29.22.08.05-.05,0-.1,0a.72.72,0,0,0-.4,0,.76.76,0,0,0-.42.35.7.7,0,0,0-.1.3.85.85,0,0,0,0,.29c0,.12,0,.07,0,.11a1,1,0,0,0-.14-.2l-.24-.31c-.69-.82-1.44-1.64-2.18-2.44h0a.78.78,0,0,1-.2-.42v0a63,63,0,0,1-.39-8.11,54.14,54.14,0,0,1,.68-8.12,37.2,37.2,0,0,1,2.11-8,20,20,0,0,1,4.67-7.14,14,14,0,0,1,7.86-3.86c.36,0,.73-.13,1.09-.15l1.08-.05a11.23,11.23,0,0,1,2.24.08,17.89,17.89,0,0,1,4.24,1.1,13.72,13.72,0,0,1,6.68,5.65,16.62,16.62,0,0,1,2.12,8.24h0l-1.44-.76a34.12,34.12,0,0,1,11.84-4.65,20.93,20.93,0,0,1,6.57-.21,15,15,0,0,1,6.32,2.36,15.27,15.27,0,0,1,1.36,1l1.2,1.19a8,8,0,0,1,1.08,1.31,8.87,8.87,0,0,1,.94,1.41,14.82,14.82,0,0,1,2,6.38,23.47,23.47,0,0,1-2.62,12.51h0l-.86-1a23,23,0,0,1,6.86-.82,15.51,15.51,0,0,1,6.88,1.73,11.31,11.31,0,0,1,4.87,5.42,15.35,15.35,0,0,1,.62,1.72c.16.57.25,1.14.38,1.72a11.31,11.31,0,0,1,.27,1.73,12.9,12.9,0,0,1,.14,1.75,22.68,22.68,0,0,1-3.72,13.3,33.46,33.46,0,0,1-9.67,9.66,47.29,47.29,0,0,1-5.88,3.41,12.93,12.93,0,0,1-3.33,1.23,16.11,16.11,0,0,0-3,1,6.12,6.12,0,0,0-1.24.72,1.36,1.36,0,0,0-.6.93l-.23.71-.25.8c-.16.54-.35,1.07-.54,1.6-.37,1.07-.74,2.14-1.19,3.17s-.81,2.12-1.32,3.12a110.68,110.68,0,0,1-14.42,22.82c-11.41,14-25.55,25.49-40.6,35.18a297.94,297.94,0,0,1-47.69,24.36,1.13,1.13,0,0,1-1.47-.62,1.11,1.11,0,0,1,.53-1.43l0,0c15.81-8,31.39-16.39,46.09-26.12a214.44,214.44,0,0,0,40.16-33.86A104.94,104.94,0,0,0,419.52,266c.54-1,.94-2,1.42-3s.88-2,1.29-3c.2-.51.41-1,.59-1.53l.29-.78c.09-.26.17-.5.32-.85l.21-.49.11-.23.18-.25a4,4,0,0,1,.8-.75,7.79,7.79,0,0,1,1.67-.9,20.81,20.81,0,0,1,3.35-1,9.69,9.69,0,0,0,2.89-1.1,46.13,46.13,0,0,0,5.57-3.38,31.12,31.12,0,0,0,8.9-9.18,20.89,20.89,0,0,0,2.52-5.78,19.53,19.53,0,0,0,.72-6.22,11.72,11.72,0,0,0-.13-1.56,10.34,10.34,0,0,0-.25-1.56,15,15,0,0,0-.82-2.95,8.89,8.89,0,0,0-3.79-4.39,13.94,13.94,0,0,0-5.87-1.73,25.16,25.16,0,0,0-6.37.29h-.07a.74.74,0,0,1-.86-.61.7.7,0,0,1,.07-.45h0a28.46,28.46,0,0,0,1.42-5.77,19.87,19.87,0,0,0,.06-5.81,13.39,13.39,0,0,0-1.82-5.28,13.24,13.24,0,0,0-3.8-4c-3.05-2.09-7-2.45-10.89-1.9a31.61,31.61,0,0,0-5.76,1.4,40.53,40.53,0,0,0-5.52,2.28h0a1,1,0,0,1-1.32-.45.91.91,0,0,1-.09-.31h0a16.6,16.6,0,0,0-2.52-6.89,11.74,11.74,0,0,0-5.52-4.27,15.51,15.51,0,0,0-3.49-.87,9.22,9.22,0,0,0-1.75-.07l-.92,0c-.3,0-.59.07-.89.11a11.9,11.9,0,0,0-3.39,1,12.07,12.07,0,0,0-2.92,2,17.6,17.6,0,0,0-4.1,6.08,35.1,35.1,0,0,0-2.26,7.36,71.69,71.69,0,0,0-1.18,15.64l-.21-.46h0c.78.81,1.55,1.6,2.31,2.47l.28.34a3.16,3.16,0,0,1,.33.47,1,1,0,0,1,.08.21.8.8,0,0,1-.09.67.82.82,0,0,1-.44.36,1.06,1.06,0,0,1-.45,0l-.14,0a.53.53,0,0,1-.15-.07,1.47,1.47,0,0,1-.27-.16l-.38-.27c-.47-.36-.89-.72-1.32-1.08-.86-.72-1.7-1.48-2.52-2.07a11.29,11.29,0,0,0-1.31-.85,10.11,10.11,0,0,0-1.4-.69,12.85,12.85,0,0,0-11.8.69,8.69,8.69,0,0,0-3.61,4.54A13.94,13.94,0,0,0,354,225a26.63,26.63,0,0,0,4.79,11.58h0l0,0a1.19,1.19,0,0,1,.12,1.24,11.21,11.21,0,0,1-1.8,2.58c-.62.74-1.27,1.42-1.92,2.09-1.31,1.34-2.65,2.63-4,3.89-2.71,2.53-5.47,5-8.26,7.39Q334.57,261,326,268a2,2,0,0,1-2.52-3.11l.05,0Z"/><path class="cls-5" d="M390.23,210.26a67.83,67.83,0,0,1,9.93,4.71,71.75,71.75,0,0,1,9.16,6.14,50.22,50.22,0,0,1,8,7.74,26,26,0,0,1,5.19,9.88.61.61,0,0,1-.45.75.62.62,0,0,1-.73-.36v0a30,30,0,0,0-5.73-8.79,60.68,60.68,0,0,0-7.82-7.19c-2.81-2.2-5.75-4.24-8.77-6.18s-6.1-3.83-9.23-5.59h0a.59.59,0,0,1-.22-.81A.6.6,0,0,1,390.23,210.26Z"/><path class="cls-5" d="M377.22,216.56a28.56,28.56,0,0,1,2.5,2.69,29.59,29.59,0,0,1,2.13,3,25.06,25.06,0,0,1,1.73,3.23,21.26,21.26,0,0,1,1.17,3.51.78.78,0,0,1-1.52.39v0a19.54,19.54,0,0,0-1.13-3.19,22.85,22.85,0,0,0-1.66-3,27.74,27.74,0,0,0-2.06-2.75,25,25,0,0,0-2.36-2.45l0,0a.92.92,0,0,1-.06-1.29.9.9,0,0,1,1.28-.06Z"/><path class="cls-5" d="M121.06,271.1a89.86,89.86,0,0,0-13.74,11.55,121,121,0,0,0-11.75,13.64,131.71,131.71,0,0,0-9.73,15.11q-2.18,3.93-4.06,8c-1.27,2.72-2.41,5.48-3.66,8.21a106.56,106.56,0,0,0-6.07,16.95,157.84,157.84,0,0,0-3.83,17.64,182.71,182.71,0,0,0-2,36.14h0a.9.9,0,0,1-.06.37h0c-.51,1.76-1,3.6-1.32,5.43a54.36,54.36,0,0,0-.8,5.52,30.39,30.39,0,0,0,.77,10.8,14.55,14.55,0,0,0,5.86,8.33,23.32,23.32,0,0,0,10.2,3.38.92.92,0,0,1,.78,1,.9.9,0,0,1-.89.78,26.42,26.42,0,0,1-5.91-.6,20.11,20.11,0,0,1-5.67-2.25,15.69,15.69,0,0,1-4.58-4.24A17.56,17.56,0,0,1,62,421.3a29.35,29.35,0,0,1-.58-11.92,44.93,44.93,0,0,1,3-11.32h0l-.06.38a195.74,195.74,0,0,1,1.18-36.61A161.06,161.06,0,0,1,69,343.77c1.48-6,3.44-11.79,5.41-17.64a74.06,74.06,0,0,1,3.72-8.46q2.06-4.14,4.4-8.14A130.65,130.65,0,0,1,93,294.28c7.71-9.58,16.61-18.26,27.21-24.7a.89.89,0,0,1,1.21.3.88.88,0,0,1-.27,1.18Z"/><path class="cls-5" d="M81.73,417.39a18.64,18.64,0,0,0-1.15,11.84,12.44,12.44,0,0,0,2.7,5.16l.46.56c.16.19.37.34.54.51l1.1,1c.8.58,1.62,1.14,2.46,1.67a19.27,19.27,0,0,0,11.35,2.61,10.08,10.08,0,0,0,5.07-1.75,6.92,6.92,0,0,0,2.52-4.21v0a2,2,0,1,1,3.91.86.29.29,0,0,1,0,.09,12.53,12.53,0,0,1-1.53,3.51A10.07,10.07,0,0,1,106.4,442a13.57,13.57,0,0,1-7,2.13,22.34,22.34,0,0,1-13-3.6c-.93-.64-1.85-1.33-2.73-2l-1.22-1.22c-.2-.21-.42-.39-.6-.62l-.52-.69a14.78,14.78,0,0,1-2.89-6.2A18.21,18.21,0,0,1,78.3,423a22.42,22.42,0,0,1,2-6.34.8.8,0,0,1,1.45.66Z"/><path class="cls-5" d="M102.43,416.94a39.64,39.64,0,0,0,2.28,8.58,16.4,16.4,0,0,0,4.71,6.94,7.68,7.68,0,0,0,3.49,1.6,9.55,9.55,0,0,0,3.93-.21,15.54,15.54,0,0,0,7.26-3.93,17.62,17.62,0,0,0,4.31-7.2,29,29,0,0,0,1.38-8.61,16,16,0,0,0-.08-2.12l-.28-2.29-.5-4.6c-.31-3.07-.56-6.14-.77-9.22-.4-6.15-.62-12.33-.42-18.53.08-3.1.35-6.2.74-9.31.12-.77.28-1.55.42-2.32a15.82,15.82,0,0,1,.52-2.32c.21-.77.42-1.55.65-2.3l.73-2.17c3.81-11.62,7.17-23.43,10.41-35.25h0a1.11,1.11,0,0,1,2.15.59c-3.17,11.87-6.46,23.7-10.24,35.43l-.72,2.2c-.21.72-.39,1.42-.59,2.13a16.69,16.69,0,0,0-.47,2.17c-.12.73-.27,1.46-.38,2.2a90.48,90.48,0,0,0-.66,9c-.16,6.07.09,12.18.53,18.26q.33,4.57.81,9.13l.52,4.55.29,2.27a19.56,19.56,0,0,1,.15,2.47,32.14,32.14,0,0,1-1.36,9.52,20.56,20.56,0,0,1-4.94,8.51,18.26,18.26,0,0,1-8.75,4.71,12.57,12.57,0,0,1-5.19.13,10.55,10.55,0,0,1-4.74-2.29,18.44,18.44,0,0,1-5.27-8.28,32.5,32.5,0,0,1-1.25-4.59,36.56,36.56,0,0,1-.65-4.71,1,1,0,0,1,2-.21Z"/><path class="cls-5" d="M277.24,188.38s5.9-7.15,12.42-3.36,6.95,9.47,6.95,9.47.84,6.32,4.63,4.21,1.9-16.21-5.68-20.21-17.48-4.21-23.79,4.21S274.29,193.23,277.24,188.38Z"/><path class="cls-5" d="M167.9,175.82a17.83,17.83,0,0,1,3.31-3.3c2.58-1.88,6.72-4.23,10.87-3.72l.2,0a12.25,12.25,0,0,1,9.49,7.35c1.31,3,3.67,7.29,6.31,6.73,4-.84,3.37-6.95,1.26-11.58s-6.26-11.05-17.47-11.7c-13.83-.81-20.64,11.7-20.64,11.7s-2.94,5.44,1.9,6.32A4.78,4.78,0,0,0,167.9,175.82Z"/><path class="cls-5" d="M168.36,128.79a17.09,17.09,0,0,1,2.4-1.34c3.74-1.79,12.56-5.37,20.27-3.81,0,0,4.1,1.9,5.36-1.42.64-1.65-.51-3.19-1.81-4.32a12,12,0,0,0-5.78-2.64c-3.68-.66-10.41-.87-18.3,3.49-12,6.63-5.84,10.9-5.84,10.9S165.7,130.65,168.36,128.79Z"/><path class="cls-5" d="M287.66,128.7s14.74,2.42,18.42,13.37c2.21,6.57.41,7.71-1.39,7.58a4.32,4.32,0,0,1-3.18-1.91c-1.79-2.58-6.4-8.6-11-9.67-5.89-1.37-11.43-1.21-10-6.11C281.77,127.64,287.66,128.7,287.66,128.7Z"/><path class="cls-4" d="M172.08,220s12.63-37.59,55.26-41.69,59,32.53,59,32.53,15.85,34.74-15.1,64.11c-15.32,14.54-33.78,16.54-48.51,14.85-19.53-2.24-37.25-13.14-47-30.21C169.71,249,166.17,235.4,172.08,220Z"/><path class="cls-5" d="M216.92,197.54s.63-12.16,23.69-10.89,29.68,12.16,29.84,19.26-5.84,19.16-23.21,18.26S213.76,210.81,216.92,197.54Z"/><path class="cls-3" d="M261.62,201.21c-.37,2.55-7,3.68-14.74,2.53s-14.7-4.76-14.33-7.3,7.93-3.07,15.7-1.92S262,198.67,261.62,201.21Z"/><path class="cls-6" d="M197.72,223.57c7.35,7.15,28.19,25,63.09,19.05,2.35-.4-12.62,34.82-37.68,32.08-22.12,0-29.87-32.7-29.89-49.17A2.65,2.65,0,0,1,197.72,223.57Z"/><path class="cls-7" d="M198.12,252s31.6-1.27,36.17,21.39C234.29,273.36,208.77,277.24,198.12,252Z"/><path class="cls-8" d="M194.92,224.22s-5.47,41.43,23.79,49.64c30.5,8.56,43-32.34,43-32.34"/><path class="cls-5" d="M190,225h-.21c-.07,0-.16.08-.14,0s0-.1,0-.15a1.84,1.84,0,0,1,0-.34c0-.25,0-.49.09-.76a6.85,6.85,0,0,1,.45-1.46,8.33,8.33,0,0,1,1.73-2.56,8.63,8.63,0,0,1,2.63-1.81,6,6,0,0,1,3.3-.47,1,1,0,0,1,.81,1.11.81.81,0,0,1-.1.31l-.05.1a19.75,19.75,0,0,1-1.51,2.31,21.57,21.57,0,0,1-1.54,1.85,13.82,13.82,0,0,1-1.84,1.71c-.35.27-.73.53-1.16.8-.23.11-.45.25-.71.38l-.42.21-.27.12s-.16.09-.27.13a1.21,1.21,0,0,1-.36.1.81.81,0,0,1-1-.61A.83.83,0,0,1,190,225Z"/><path class="cls-8" d="M195.67,222.81s20.85,28.95,66.83,19.47"/><path class="cls-9" d="M129.3,103.72l13.95-17.64s-9.8-24.46-26.36-7.15C111,102.43,129.3,103.72,129.3,103.72Z"/><path class="cls-5" d="M122.27,108.47,143,86.62l-.53,1.95h0a31,31,0,0,0-3.12-7.41,16.32,16.32,0,0,0-5.17-5.68,9.23,9.23,0,0,0-7.09-1.14,15.14,15.14,0,0,0-3.66,1.35c-.59.31-1.2.65-1.74,1a10.08,10.08,0,0,0-1.51,1.16,11,11,0,0,0-3.37,6.77,18.36,18.36,0,0,0,.82,8,19.49,19.49,0,0,0,4,7.09,10.24,10.24,0,0,0,3.12,2.4,5.08,5.08,0,0,0,3.64.36.75.75,0,0,1,.93.49.76.76,0,0,1-.47.92,6.64,6.64,0,0,1-4.75-.27,11.7,11.7,0,0,1-3.78-2.66,21.41,21.41,0,0,1-4.68-7.64,20.73,20.73,0,0,1-1.24-9,13.64,13.64,0,0,1,3.88-8.46,13.41,13.41,0,0,1,1.84-1.54c.65-.45,1.28-.83,2-1.21a18.15,18.15,0,0,1,4.33-1.77,12.7,12.7,0,0,1,4.85-.35,12.54,12.54,0,0,1,4.67,1.57,19.88,19.88,0,0,1,6.6,6.65,35.4,35.4,0,0,1,2.18,4,34.09,34.09,0,0,1,1.65,4.29h0l0,.11a1.86,1.86,0,0,1-.55,1.84l-22.21,20.31a.92.92,0,0,1-1.3-.06A.93.93,0,0,1,122.27,108.47Z"/><path class="cls-9" d="M319.87,125c5.69-2.34,11.69-4.27,16.68,6,2.85,10.48-3,16-8.91,18.95C325.87,140.86,324.32,133.63,319.87,125Z"/><path class="cls-5" d="M328.13,149.46a.35.35,0,0,0-.19-.11c-.16,0,.06,0,.13-.1s.4-.24.59-.36c.39-.25.78-.51,1.15-.79a21.62,21.62,0,0,0,2.11-1.83,19,19,0,0,0,3.34-4.38,14.38,14.38,0,0,0,1.64-5.06,14,14,0,0,0-2.84-9.83,7,7,0,0,0-4.06-2.42,12.07,12.07,0,0,0-5.15.24,27.78,27.78,0,0,0-5.21,1.93l.53-2a45.53,45.53,0,0,1,3,6.15q1.29,3.12,2.28,6.33c.66,2.13,1.23,4.29,1.74,6.46.25,1.08.46,2.18.69,3.27A15.89,15.89,0,0,1,328.13,149.46Zm-.59,1.64-.05-.13a29.83,29.83,0,0,1-1.17-3.68c-.31-1-.58-2.11-.91-3.15-.62-2.1-1.29-4.18-2.05-6.23s-1.57-4.06-2.47-6a44.58,44.58,0,0,0-3-5.61,1.41,1.41,0,0,1,.39-2l.13-.07h0a28.42,28.42,0,0,1,5.73-2.28,14.73,14.73,0,0,1,6.47-.42,9.93,9.93,0,0,1,3.24,1.2,10.64,10.64,0,0,1,2.61,2.24,15.65,15.65,0,0,1,2.87,5.81,15.39,15.39,0,0,1,.36,6.41,15.66,15.66,0,0,1-2.26,5.93,20,20,0,0,1-4.05,4.68,21.87,21.87,0,0,1-2.46,1.84c-.43.28-.88.54-1.33.79l-.69.35a4.54,4.54,0,0,1-.52.22A2.14,2.14,0,0,1,327.54,151.1Z"/><polygon class="cls-5" points="103.56 452.03 101.42 441.26 105.84 440.79 108.72 454.48 103.56 452.03"/><path class="cls-5" d="M238.38,77.63a41.82,41.82,0,0,1,2.15-8.74,34.88,34.88,0,0,1,4.17-8.12,24,24,0,0,1,6.76-6.52A22.37,22.37,0,0,1,260.54,51a2.2,2.2,0,0,1,.59,4.37l-.2,0h0a18.34,18.34,0,0,0-7.67,1.92,21,21,0,0,0-6.37,5.11,32.59,32.59,0,0,0-4.56,7.17,40.18,40.18,0,0,0-2.85,8.17v0a.54.54,0,0,1-1.07-.19Z"/><path class="cls-5" d="M244.81,82.89a36,36,0,0,1,2.86-6.44,35.61,35.61,0,0,1,4.09-5.83,25.73,25.73,0,0,1,5.59-4.71,21.82,21.82,0,0,1,7-2.68,2,2,0,1,1,.81,3.86l-.18,0h-.14a18.3,18.3,0,0,0-6,1.6,22.77,22.77,0,0,0-5.35,3.63,32.53,32.53,0,0,0-4.38,5,35,35,0,0,0-3.38,5.84v0a.52.52,0,0,1-.68.26A.51.51,0,0,1,244.81,82.89Z"/></g></svg>