<svg xmlns="http://www.w3.org/2000/svg" viewBox="0 0 511 511"><defs><style>.cls-1,.cls-3{fill:#fff;}.cls-2{fill:#2b1a15;}.cls-11,.cls-17,.cls-19,.cls-3,.cls-4{stroke:#2b1a15;}.cls-17,.cls-19,.cls-20,.cls-3{stroke-linecap:round;stroke-linejoin:round;}.cls-11,.cls-17,.cls-3,.cls-4{stroke-width:3px;}.cls-10,.cls-4{fill:#f4b821;}.cls-11,.cls-4{stroke-miterlimit:10;}.cls-5{fill:#c9916b;}.cls-6{fill:#893015;}.cls-7{fill:#6d2611;}.cls-8{fill:#efd092;}.cls-9{fill:#b55939;}.cls-11,.cls-17,.cls-19,.cls-20{fill:none;}.cls-12{fill:#84523e;}.cls-13{fill:#663f31;}.cls-14{fill:#4c2f26;}.cls-15{fill:#830604;}.cls-16{fill:#af1c1c;}.cls-18{fill:#ba8c25;}.cls-19{stroke-width:4px;}.cls-20{stroke:#fff;stroke-width:19px;}</style></defs><title>bear-honey</title><g id="yammy"><path class="cls-1" d="M425.18,313.12a13.17,13.17,0,0,1-5.72-1.48c-1.51-.73-5.79-2.79-9.81-13.68l-1-.2a8.06,8.06,0,0,1-8.14,7,13,13,0,0,1-5.67-1.5c-5.61-2.69-8.13-9.4-9.25-14.74a81.18,81.18,0,0,1-9.07-6.28c-23.72-3-34.36-21.46-34.36-38.81,0-13.19,9.51-27.22,22.78-34.43a21.51,21.51,0,0,0-.8-3.38,25.54,25.54,0,0,0-3.41-7.1,8.5,8.5,0,0,0-3.9-3.24,3.21,3.21,0,0,0-.64-.14,9.32,9.32,0,0,1-7.58,3.88c-.32,0-.64,0-1-.05a9.33,9.33,0,0,1-5.11-16.37l1-.87a13.65,13.65,0,0,1,1.35-1l.19-.12c.39-.25.78-.47,1.18-.68a17,17,0,0,1,2.32-1,18,18,0,0,1,5-1.08c.43,0,.88,0,1.33,0h.08a9.27,9.27,0,0,1,4.48-4.08l1.24-.53a12.26,12.26,0,0,1,1.58-.55l.24-.07c.44-.12.88-.22,1.31-.3a16.69,16.69,0,0,1,2.52-.31c.3,0,.64,0,1,0a18.14,18.14,0,0,1,4.12.47,20.63,20.63,0,0,1,8.06,4,21.09,21.09,0,0,1,4.29,4.66,70,70,0,0,1,3-8.06,22.19,22.19,0,0,1,10.32-11,17.81,17.81,0,0,1,8-2,15.82,15.82,0,0,1,5.18.87c5.11,1.74,9.35,6,12.58,12.62a29.88,29.88,0,0,1,2.36,6.9,71.72,71.72,0,0,1,16.5-9.94,21.38,21.38,0,0,1,29,25.46c-3.81,13.34-13.3,23.7-27.42,30.3,9.6,4.85,16.54,11.31,20.69,19.29a35.86,35.86,0,0,1,3.91,13.57l4.16,1.71a10.06,10.06,0,0,1,5.78,7,9.92,9.92,0,0,1-5.94,11.26l-10.71,4.26c-6.14,7.81-16.22,13.22-28.1,15.19.1,1,.2,1.63.26,1.9,1,3.88.51,7.07-1.38,9.48a8.5,8.5,0,0,1-6.79,3.23Z"/><path class="cls-1" d="M469.24,267.23l-8.32-3.41a28.93,28.93,0,0,0-3.19-15.08c-4.47-8.59-13.06-15.18-25.53-19.61h0a90.7,90.7,0,0,0-12.13-3.31C435,223.35,457.65,216,463.93,194a14.32,14.32,0,0,0-19.36-17,65.3,65.3,0,0,0-27,21.71c1.8-7.44,2.21-15.42-1-22.06-2.38-4.88-5.24-7.92-8.51-9a9.84,9.84,0,0,0-7.72.73,15.09,15.09,0,0,0-7,7.53c-8.24,18.7-3.77,31.15,1.94,38.57a25.28,25.28,0,0,0-12.4-3.25c-.13-1.29-.19-2.56-.26-3.84l-.22-5.32a46.89,46.89,0,0,0-1.5-10.61,23.65,23.65,0,0,0-2.06-5.12,15.16,15.16,0,0,0-3.67-4.38,13.43,13.43,0,0,0-5.27-2.6,11.16,11.16,0,0,0-3.11-.27,10.41,10.41,0,0,0-1.56.2c-.27.05-.53.11-.79.18a5.33,5.33,0,0,0-.87.3l-1.22.52a2.23,2.23,0,0,0-1.19,1.19,2.27,2.27,0,1,0,4.17,1.77,2.24,2.24,0,0,1,.34-.18l.46-.19a7.13,7.13,0,0,1,1-.26,7,7,0,0,1,2.1,0,10.21,10.21,0,0,1,4.18,1.69,15.28,15.28,0,0,1,5.47,7.78,32.52,32.52,0,0,1,1.55,10,28.55,28.55,0,0,1-.41,5.13,23.54,23.54,0,0,1-1.11,4.39c-.91.16-1.8.35-2.68.58-.63-1.41-1.16-2.82-1.68-4.23l-1.78-5a46.8,46.8,0,0,0-4.57-9.69,24.34,24.34,0,0,0-3.48-4.28,15.16,15.16,0,0,0-4.8-3.09,13.44,13.44,0,0,0-5.81-.93,10.68,10.68,0,0,0-3.05.67,9.61,9.61,0,0,0-1.43.64c-.24.13-.47.26-.7.41a5.84,5.84,0,0,0-.75.54l-1,.86a2.23,2.23,0,0,0-.78,1.49,2.26,2.26,0,1,0,4.5.46l.28-.28.39-.32a6,6,0,0,1,.89-.54,6.58,6.58,0,0,1,2-.63,10.13,10.13,0,0,1,4.49.38,15.33,15.33,0,0,1,7.53,5.81,32.78,32.78,0,0,1,4.44,9.13,29.54,29.54,0,0,1,1.13,5,24,24,0,0,1,.22,4.88c-13.49,5.33-23,18.79-23,30.05,0,13.47,7.75,29.92,29.58,32l.55,0A74.85,74.85,0,0,0,392,284c.23,1.83,1.56,10.77,5.9,12.85,4.84,2.33,3.92-1,3.18-2.48-.55-1.11-.92-4.8-1.07-6.64.69.27,1.38.54,2.08.79A64.17,64.17,0,0,0,415,291.71c.89,3,3.8,11.78,7.5,13.56,4.48,2.16,4.65-.5,4-3.15a75.26,75.26,0,0,1-.89-9.92c14.08-.65,25.59-6.54,31.08-14.69l12.6-5a2.87,2.87,0,0,0-.05-5.27Z"/><path class="cls-1" d="M163.08,480.16a87.57,87.57,0,0,1-22-2.83,108.24,108.24,0,0,1-12.31-4.11,77.07,77.07,0,0,1-12.09-5.92c-1.12-.69-2.1-1.34-3-2l-.7-.48-.46-.32-.22-.16c-.36-.27-.71-.56-1.06-.85l-.49-.4a37.81,37.81,0,0,1-5.31-5.53,35.28,35.28,0,0,1-6.25-13,42.71,42.71,0,0,1-4-5.5c-.65-1-1.18-1.92-1.65-2.8a53.17,53.17,0,0,1-4-9.57,65.12,65.12,0,0,1-1.82-8c-7.61-1.82-17.17-4.92-26-10.82-13.8-9.24-22-22.66-24.39-39.89-2.89-20.93,7-45,29.4-71.5a266.09,266.09,0,0,1,26.48-26.91,93.78,93.78,0,0,1-15.65-18.21c-.37-.55-.76-1.16-1.15-1.76l-.14-.23c-1.21-1.93-2.36-3.94-3.4-6l-.21-.4c-.31-.6-.59-1.16-.86-1.73a101.66,101.66,0,0,1-6.73-17.82,107.75,107.75,0,0,1-3.94-27.86,114.62,114.62,0,0,1,3.35-27.86,132.56,132.56,0,0,1,9.47-26c2.08-4.25,4.22-8.14,6.43-11.74a32.43,32.43,0,0,1-8.8-5.18,43.65,43.65,0,0,1-8.14-8.82.61.61,0,0,1-.07-.1c-1.24-1.79-2.19-3.28-3.06-4.8l-.06-.12a29.88,29.88,0,0,1-2.56-6.37c-2-7.44-1.75-15.56.79-24.14A52.07,52.07,0,0,1,70.05,60.11a41.7,41.7,0,0,1,21.1-12.47,49,49,0,0,1,5.92-.93,51.38,51.38,0,0,1,5.24-.27H103a42,42,0,0,1,12.12,1.85,36.33,36.33,0,0,1,11.29,5.81,38.82,38.82,0,0,1,8.5,9,48.35,48.35,0,0,1,5.31,10.53l.06.17A148,148,0,0,1,206,57.28a38.59,38.59,0,0,1,1.36-3.7,30.89,30.89,0,0,1,6.82-10A29.31,29.31,0,0,1,224.92,37a9,9,0,0,1,11.7,10.86,8.81,8.81,0,0,1,5.87,11.68,8.47,8.47,0,0,1-.88,1.69c4,1,8.22,2.21,12.87,3.77l.23.08,2.24.82c2.56.93,5.2,1.89,7.84,3.09l1.56.67c1.07.46,2.18.93,3.31,1.46l4.78,2.37,2.35,1.18.2.1.34.19.06,0a54.79,54.79,0,0,1,5-10.26,42.93,42.93,0,0,1,7.93-9.35,36.42,36.42,0,0,1,11-6.57,38.57,38.57,0,0,1,12.27-2.42l1.84,0c1.38,0,2.77.06,4.14.18,1,.09,1.94.21,2.9.35,1.16.18,2.16.36,3.1.58a49.29,49.29,0,0,1,20.92,10.64,40.85,40.85,0,0,1,8,9.42,35.22,35.22,0,0,1,4.55,12,49.26,49.26,0,0,1,.72,11.69,39.58,39.58,0,0,1-2.58,11.89,41.33,41.33,0,0,1-14.7,18.45,58.22,58.22,0,0,1-10.86,6.16c.3.65.6,1.33.89,2,1.3,3,2.64,6.34,4.07,10.19a206.84,206.84,0,0,1,6.62,21,193.94,193.94,0,0,1,4.31,21.72,98.07,98.07,0,0,1,.71,23.16,112.62,112.62,0,0,1-4.72,22.39,95.86,95.86,0,0,1-9.73,21,92.69,92.69,0,0,1-20.54,23.14,159.82,159.82,0,0,1,32,24.55c27,27.18,26.86,50.91,22,66a46.13,46.13,0,0,1-6,12.31c.29-.12.58-.24.88-.34a15.4,15.4,0,0,1,17.29,5l15,19.12a15.44,15.44,0,0,1-2.61,21.69,15.55,15.55,0,0,1-9.53,3.29h0a15.31,15.31,0,0,1-8-2.21,15.48,15.48,0,0,1-10.95,16.05,15.42,15.42,0,0,1-18.39,3c-.29.22-.59.42-.9.62a15.4,15.4,0,0,1-18.69,12.56l-3.08,1.2A263.07,263.07,0,0,1,291,466a7.18,7.18,0,0,1-1.89.26H289c-18.16,3-40.83,4.55-67.41,4.55-9.06,0-18.7-.17-28.72-.53a19.26,19.26,0,0,1-3.74,3.47l-.08.06a29.57,29.57,0,0,1-7.49,3.7,54.41,54.41,0,0,1-14,2.52h-.09C166,480.12,164.53,480.16,163.08,480.16Z"/><path class="cls-1" d="M373.83,384.3a8.38,8.38,0,0,0-14.68,3,8.38,8.38,0,0,0-11.4,5.41,8.37,8.37,0,0,0-5.54-1.48,33.06,33.06,0,0,0-11.87,3.11c-.88-4.12-1.9-8.24-3.06-12.4a38.5,38.5,0,0,0,6.08.52c.7,0,1.39,0,2.08-.06,8.39-.52,19.55-4.69,25-21.59,6.16-19-.84-39.37-20.24-58.88a152.53,152.53,0,0,0-31.07-23.72,71.24,71.24,0,0,0-9.45-4.79A86.58,86.58,0,0,0,336.79,226a105.23,105.23,0,0,0,4.41-21,90,90,0,0,0-.69-21.46,187.19,187.19,0,0,0-4.15-20.91A202.31,202.31,0,0,0,330,142.4c-1.23-3.32-2.53-6.63-3.94-9.88-.7-1.64-1.45-3.25-2.22-4.85-.64-1.31-1.3-2.61-2.08-3.88a53.75,53.75,0,0,0,16.64-8,34.44,34.44,0,0,0,12.24-15.29,32.55,32.55,0,0,0,2.12-9.79,42.11,42.11,0,0,0-.63-10,27.74,27.74,0,0,0-3.63-9.55,33.66,33.66,0,0,0-6.59-7.76A42,42,0,0,0,324,54.38c-.83-.19-1.68-.34-2.53-.47s-1.66-.22-2.5-.3a39.09,39.09,0,0,0-5.08-.13,31.6,31.6,0,0,0-10.08,2,29.16,29.16,0,0,0-8.85,5.3,34.93,34.93,0,0,0-6.57,7.76,47.91,47.91,0,0,0-4.36,9c-.74,2-1.37,4-1.92,6.11-.25.61-.45,1.08-.58,1.37q-3.75-2-7.43-3.69l-.46-.26-2.32-1.17-4.63-2.3c-1.57-.73-3.17-1.38-4.75-2.07-3.15-1.44-6.43-2.54-9.67-3.75a133.52,133.52,0,0,0-20.09-5.21c-2.41-.42-4.83-.8-7.26-1.11A23,23,0,0,1,229.15,61a18.55,18.55,0,0,1,5.58-2.89l.12,0L235,58a1.74,1.74,0,0,0-1.4-3.19,21.67,21.67,0,0,0-6.28,4,25.49,25.49,0,0,0-4.47,5.72c-.12.19-.21.4-.32.59-3-.33-6.07-.57-9.12-.68a32.61,32.61,0,0,1,2.67-7A20.93,20.93,0,0,1,221.24,51a18.31,18.31,0,0,1,7.16-3.58h0l.15,0a1.95,1.95,0,1,0-1.3-3.67,22.25,22.25,0,0,0-8.14,5,24.12,24.12,0,0,0-5.25,7.71,34.31,34.31,0,0,0-2.27,8h-.11a141,141,0,0,0-20.74,1,143.59,143.59,0,0,0-20.33,4.12,134.63,134.63,0,0,0-34.73,15,42.86,42.86,0,0,0-2.14-8.5,41.25,41.25,0,0,0-4.52-9,32.15,32.15,0,0,0-6.95-7.41A29.5,29.5,0,0,0,113,55a34.8,34.8,0,0,0-10.11-1.52,41,41,0,0,0-5.08.23,40.35,40.35,0,0,0-5.05.78A34.59,34.59,0,0,0,75.24,64.9a44.88,44.88,0,0,0-10,17.64c-1.92,6.49-2.57,13.52-.75,20.26a23.08,23.08,0,0,0,2,4.86c.86,1.52,1.76,2.88,2.72,4.28a37.09,37.09,0,0,0,6.87,7.46,24.6,24.6,0,0,0,9,4.78,18.7,18.7,0,0,0,7.54.58A115.77,115.77,0,0,0,80.32,144.9a125.61,125.61,0,0,0-9,24.64,107.55,107.55,0,0,0-3.14,26.09,100.82,100.82,0,0,0,3.69,26,94,94,0,0,0,6.29,16.65c.24.51.5,1,.76,1.53l.21.41q1.44,2.79,3.16,5.52s0,0,0,0l0,.05c.36.56.73,1.13,1.11,1.7a86.61,86.61,0,0,0,16,18.2c1.54,1.32,3.13,2.58,4.75,3.79a256.55,256.55,0,0,0-32.1,31.57c-21,24.92-30.41,47.12-27.8,66,4.84,35,35.42,43,49.76,45.85.09,1,.19,2,.33,2.93a58.5,58.5,0,0,0,1.87,8.77,44.92,44.92,0,0,0,3.46,8.3c.44.83.93,1.63,1.43,2.42a35,35,0,0,0,4.63,6.07,1.22,1.22,0,0,0,0,.54A28.43,28.43,0,0,0,111,453.22a30.73,30.73,0,0,0,4.33,4.5c.4.32.79.67,1.2,1s.86.57,1.28.88c.83.6,1.69,1.17,2.57,1.7a71.1,71.1,0,0,0,11,5.36,103.12,103.12,0,0,0,11.52,3.86,80.51,80.51,0,0,0,24.21,2.5,48.11,48.11,0,0,0,12.15-2.16A22.53,22.53,0,0,0,185,468a12.68,12.68,0,0,0,2.47-2.29,8.28,8.28,0,0,0,1.45-2.66c40.06,1.58,74.32.47,100.2-4,.07-.45.15-.91.22-1.37-.07.5-.14,1-.22,1.5a258.58,258.58,0,0,0,30.52-10.46l5.54-2.15a8.37,8.37,0,0,0,11.7-9.79,8.39,8.39,0,0,0,6.53-4.9l.83-1.87a8.37,8.37,0,0,0,15.15,1.41l.4,0a8.39,8.39,0,0,0,7.44-9.24l-.76-7a8.39,8.39,0,0,0,7.73-3.3l1.47,1.89a8.39,8.39,0,0,0,13.2-10.36Z"/><g id="bee"><path class="cls-2" d="M392.32,283.64s1.09,10.87,5.94,13.19,3.92-1,3.18-2.49-1.16-7.71-1.16-7.71Z"/><path class="cls-2" d="M415,290.63s3.32,12.42,7.8,14.58,4.64-.5,4-3.16-.91-10.53-.91-10.53Z"/><path class="cls-2" d="M348.32,186.86a5.16,5.16,0,0,1,.78-.56c.24-.15.48-.29.72-.41a10.68,10.68,0,0,1,1.47-.66,11.21,11.21,0,0,1,3.12-.66,13.49,13.49,0,0,1,5.89,1,15.17,15.17,0,0,1,4.84,3.15,24.18,24.18,0,0,1,3.5,4.32,48.39,48.39,0,0,1,4.57,9.73,89.45,89.45,0,0,0,4,10v0a2.61,2.61,0,0,1-4.66,2.34,2.54,2.54,0,0,1-.26-1.44,25.73,25.73,0,0,0-1.18-10.24,31.6,31.6,0,0,0-4.43-9.09,15.08,15.08,0,0,0-7.48-5.72,10.15,10.15,0,0,0-4.4-.34,6.53,6.53,0,0,0-1.93.63,6.91,6.91,0,0,0-.86.54l-.37.31c-.09.09-.26.25-.24.26a2.21,2.21,0,1,1-3.07-3.18Z"/><path class="cls-2" d="M363.76,179.35a6.14,6.14,0,0,1,.91-.31l.8-.18a12.61,12.61,0,0,1,1.61-.19,11.26,11.26,0,0,1,3.17.29,13.54,13.54,0,0,1,5.35,2.66,15.21,15.21,0,0,1,3.69,4.45,24.17,24.17,0,0,1,2.06,5.16,47.87,47.87,0,0,1,1.49,10.65,88.42,88.42,0,0,0,.83,10.76v0a2.61,2.61,0,0,1-5.15.86,2.67,2.67,0,0,1,.18-1.46,26,26,0,0,0,1.91-10.13,32.11,32.11,0,0,0-1.55-10,15.1,15.1,0,0,0-5.46-7.67,10,10,0,0,0-4.1-1.63,6.28,6.28,0,0,0-2,0,7.4,7.4,0,0,0-1,.26l-.44.19a1.79,1.79,0,0,0-.31.18,2.21,2.21,0,0,1-2-4Z"/><path class="cls-3" d="M406.88,225.67s46.72.71,56.1-32.15c3-10.41-7.63-19.77-17.56-15.46C412.79,192.2,406.88,225.67,406.88,225.67Z"/><path class="cls-3" d="M406.39,221.91s-26.12-12.52-11.53-45.66a13.84,13.84,0,0,1,6.37-6.87c4-2,9.65-2.16,14.45,7.69C424.08,194.32,406.39,221.91,406.39,221.91Z"/><path class="cls-4" d="M432.07,230.31a97.12,97.12,0,0,0-25.95-5.08c-6.17-8.45-15.93-13.43-23.81-12.83-17.47,1.33-31.4,17.72-31.4,31s7.56,28.7,28.37,30.64l1,.06a72.19,72.19,0,0,0,22.66,13.19c26.13,9.27,50.07-.29,55.27-15S458.21,239.59,432.07,230.31Z"/><path d="M360.53,245.57c2.1.89,5-2.09,5.74-5.39.42-2,1.16-6.47-2.43-7.43-1.65-.45-5,1.1-5.86,5.24C357.71,239.27,357.27,244.2,360.53,245.57Z"/><path d="M384.41,251.43c5.09,0,6.38-5.41,6.31-7.29-.05-1.32-.67-7.86-4.62-8.49-4.51-.72-6.2,5.54-6.44,6.83C378.55,248.23,382.37,251.43,384.41,251.43Z"/><path class="cls-2" d="M404.42,225c2.42,1.64,10.63,43-25.14,48l11.44,7.69c21.67-7.63,29.15-30.5,22.66-54.63Z"/><path class="cls-2" d="M428.51,230.87s8.65,38.5-22.09,57.06c0,0,15.35,4.22,22.23,3a57.24,57.24,0,0,0,13.15-56.84Z"/><path class="cls-2" d="M460.8,263.57l8.75,3.6a2.87,2.87,0,0,1,1.09,4.49,2.78,2.78,0,0,1-1,.77l-13.05,5.19S458.31,274.35,460.8,263.57Z"/></g><path class="cls-5" d="M132.33,459.33s-16.06-139.59,81.49-139.6C303.2,338.68,295.51,422.27,289.41,459,252,465.48,197,464.93,132.33,459.33Z"/><g id="pot"><path class="cls-6" d="M215.92,384.27C206,386,192,380.82,173.51,374.9c-20-6.38-46.39-19.18-51.25-24.88-9,8.49-22.93,23.91-25.72,43.09-7.18,49.36,17.54,58.36,49.27,66.54C178.29,468,209,463.8,223,428.14,228.34,414.39,228.34,395.06,215.92,384.27Z"/><path class="cls-7" d="M150.44,449.54c-39.11-11.63-31.29-29.92-28.42-31.16,9.68-4.21,13.59-29.44,16.75-36.07l0,0c14.84,8,43.13,18.7,80.81,8.38l-2.82-4.89s-32.08,14.31-77.7-12.89l.08-.1c-6-2.37-19.63-20.53-19.63-20.53-28.79,23.38-23.75,63.06-23.87,63.06.14,6.86,3.8,16.72,9.38,23.25l3.09,4.42s4.37,18.41,35.79,26c35.44,8.55,44.25-6.81,44.25-6.81l1-1.64c8.16-2.93,20.37-8.78,23.42-16.83C203.68,451.12,177.6,457.51,150.44,449.54Z"/><path class="cls-2" d="M108.46,441.35a25.76,25.76,0,0,0,5,10.12,27.58,27.58,0,0,0,4,4c.38.29.74.6,1.13.87a10.51,10.51,0,0,0,1.14.88c.79.55,1.61,1.06,2.44,1.55a69.32,69.32,0,0,0,10.59,4.9A109.28,109.28,0,0,0,144,467.17a80.89,80.89,0,0,0,23.18,2.21,48.31,48.31,0,0,0,11.32-1.82,19.76,19.76,0,0,0,5-2.2,7.37,7.37,0,0,0,3.21-3.59v0a1.46,1.46,0,0,1,2.79.85,10.12,10.12,0,0,1-4.13,5.55,23.59,23.59,0,0,1-5.79,2.85,48.22,48.22,0,0,1-12.21,2.17,79.89,79.89,0,0,1-24.27-2.52,102.13,102.13,0,0,1-11.54-3.87,72,72,0,0,1-11-5.39c-.88-.54-1.74-1.1-2.58-1.71-.41-.31-.85-.59-1.28-.89s-.8-.65-1.21-1a31.54,31.54,0,0,1-4.34-4.53A28.66,28.66,0,0,1,106,441.94a1.27,1.27,0,0,1,2.47-.59Z"/><path class="cls-2" d="M215.7,385.24a12.83,12.83,0,0,1-1.24.41l-.76.16-.82.17c-1.1.24-2.21.42-3.32.61-2.22.35-4.45.63-6.68.82a102.2,102.2,0,0,1-13.44.3,105.09,105.09,0,0,1-13.36-1.42c-2.22-.38-4.41-.84-6.59-1.36a55.23,55.23,0,0,1-6.47-2,113.79,113.79,0,0,1-23.46-13q-5.51-3.83-10.7-8.05c-3.47-2.82-6.86-5.69-10.08-8.86l1.3.1h0a35.65,35.65,0,0,0-6,6.05,81.24,81.24,0,0,0-5.12,7.05,109.42,109.42,0,0,0-8.31,15.36,67.44,67.44,0,0,0-3,8.14,32.89,32.89,0,0,0-.94,4.17c-.21,1.36-.27,2.87-.39,4.31a85.7,85.7,0,0,0,.44,17.4A56.21,56.21,0,0,0,98.53,424a43.15,43.15,0,0,0,3.32,7.93A40.63,40.63,0,0,0,113,444.83a64.56,64.56,0,0,0,15.17,8.3,125,125,0,0,0,16.69,5.18c11.34,2.71,23.07,4.31,34.61,3.13a54.93,54.93,0,0,0,16.67-4.3,44,44,0,0,0,14-9.81,52.54,52.54,0,0,0,9.59-14.26A71.42,71.42,0,0,0,223,425a49.2,49.2,0,0,0,1.85-8.4,43.84,43.84,0,0,0-1.11-17.07,35.51,35.51,0,0,0-3.19-7.91,27.9,27.9,0,0,0-2.34-3.55c-.44-.55-.9-1.08-1.37-1.6l-.75-.74A1.59,1.59,0,0,1,215.7,385.24Zm.45-1.95a10.19,10.19,0,0,1,1.29,1l.82.81c.53.56,1,1.13,1.52,1.73a29.85,29.85,0,0,1,2.57,3.77,35.79,35.79,0,0,1,3.46,8.38,46,46,0,0,1,1.24,17.93,50.84,50.84,0,0,1-1.9,8.81,72.36,72.36,0,0,1-3.26,8.36,55,55,0,0,1-10,14.88,46.45,46.45,0,0,1-14.74,10.29,57.32,57.32,0,0,1-17.37,4.46c-11.93,1.2-23.87-.48-35.35-3.24a126.89,126.89,0,0,1-17-5.3,66.44,66.44,0,0,1-15.68-8.62A42.71,42.71,0,0,1,100,433a45.53,45.53,0,0,1-3.47-8.33,59,59,0,0,1-1.87-8.79A88.51,88.51,0,0,1,94.22,398c.13-1.48.18-2.93.41-4.48a35.9,35.9,0,0,1,1-4.42,69.71,69.71,0,0,1,3.1-8.4,111.42,111.42,0,0,1,8.49-15.64,85.83,85.83,0,0,1,5.25-7.23,37.7,37.7,0,0,1,6.42-6.39h0a1,1,0,0,1,1.27.08l0,0c3.11,3.06,6.5,5.94,9.92,8.72s7,5.44,10.58,8a112,112,0,0,0,23,12.78,53.55,53.55,0,0,0,6.23,2c2.14.5,4.29,1,6.46,1.33a104.66,104.66,0,0,0,13.1,1.39,101.65,101.65,0,0,0,13.18-.29c2.19-.19,4.37-.47,6.54-.8,1.08-.19,2.17-.36,3.24-.6l1.67-.35C214.82,383.52,215.49,383.4,216.15,383.29Z"/><path class="cls-7" d="M178,350.79c-21.42-6.85-38.74-6.32-41.29-.62-1.91,4.27,15,13.68,36.41,20.54s41.12,9,41.16,4.28C214.37,366.16,199.44,357.64,178,350.79Z"/><circle class="cls-8" cx="203.92" cy="378.16" r="4.21"/><path class="cls-6" d="M181.6,341.24c-27.54-8.81-60.4-3.8-62.83,4.53s20.42,31.75,48.3,39.39c17.69,4.84,58.9,5.7,59.81-10.16C227.72,360.49,209.14,350.05,181.6,341.24Zm-8.31,28.39c-23.38-5.95-37.87-15-36.56-19.46s20.93-7.71,42.35-.85,33.46,16.25,31.62,21.89C209.26,375.66,196.46,375.53,173.29,369.63Z"/><path class="cls-2" d="M181.31,341.4a94.25,94.25,0,0,0-31.77-4,85,85,0,0,0-15.92,2,44.61,44.61,0,0,0-7.59,2.38,21.64,21.64,0,0,0-3.45,1.79,8.85,8.85,0,0,0-2.64,2.42c-1.19,1.7-.29,4.35.9,6.54a34.25,34.25,0,0,0,4.65,6.3,76.14,76.14,0,0,0,12,10.47,112.07,112.07,0,0,0,13.64,8.38,97.87,97.87,0,0,0,14.8,6.11,92.15,92.15,0,0,0,31.57,4.06,67.07,67.07,0,0,0,15.68-2.41,32,32,0,0,0,7.18-3,14.91,14.91,0,0,0,5.33-4.87,9,9,0,0,0,.79-6.7A16.93,16.93,0,0,0,223,364.3a49.13,49.13,0,0,0-12.16-10.05,100.81,100.81,0,0,0-14.34-7.33C191.55,344.81,186.45,343,181.31,341.4Zm.59-1.85A168.87,168.87,0,0,1,212,352.37a51.79,51.79,0,0,1,13.12,10.19,19.83,19.83,0,0,1,4.29,7.56,13.54,13.54,0,0,1,.46,4.54,10.57,10.57,0,0,1-1.35,4.52,16.67,16.67,0,0,1-6.61,5.91,41.68,41.68,0,0,1-7.84,3.14,71,71,0,0,1-16.38,2.57,95.09,95.09,0,0,1-32.61-4.26,99.65,99.65,0,0,1-15.22-6.32,97.12,97.12,0,0,1-14-8.63,78.46,78.46,0,0,1-12.22-11.12,36.85,36.85,0,0,1-4.83-6.87,15.22,15.22,0,0,1-1.49-4.14,7.56,7.56,0,0,1-.06-2.38,5.33,5.33,0,0,1,.92-2.34,10.8,10.8,0,0,1,3.34-3,25.22,25.22,0,0,1,3.78-1.9,52.58,52.58,0,0,1,7.93-2.45,88.74,88.74,0,0,1,16.3-2A96.32,96.32,0,0,1,181.9,339.55Z"/><path class="cls-2" d="M170.78,370.87a168.74,168.74,0,0,1-19.34-7.38,76.1,76.1,0,0,1-9.18-5,30.82,30.82,0,0,1-4.24-3.25,10.61,10.61,0,0,1-1.81-2.22,4.54,4.54,0,0,1-.58-1.55,3.22,3.22,0,0,1,.21-1.88,5.67,5.67,0,0,1,2.19-2.34,14.09,14.09,0,0,1,2.53-1.24,28.5,28.5,0,0,1,5.21-1.34,53.31,53.31,0,0,1,10.54-.58,41.64,41.64,0,0,1,5.24.47c1.73.26,3.46.51,5.17.85a88.14,88.14,0,0,1,10.14,2.6,154.36,154.36,0,0,1,19.41,7.42,58,58,0,0,1,9.1,5.38,30.9,30.9,0,0,1,4.1,3.62,13.83,13.83,0,0,1,1.69,2.29,10.7,10.7,0,0,1,.66,1.31c.1.25.17.4.29.74a2.91,2.91,0,0,1,.12,1.35,3.32,3.32,0,0,1-1.13,2,6.81,6.81,0,0,1-1.39.94,14.16,14.16,0,0,1-2.71,1,31.11,31.11,0,0,1-5.32.84,64.41,64.41,0,0,1-10.49-.11,101.86,101.86,0,0,1-10.31-1.45A88.11,88.11,0,0,1,170.78,370.87Zm.59-1.84a72.22,72.22,0,0,0,19.95,3.72,57.38,57.38,0,0,0,10.08-.43,30.58,30.58,0,0,0,4.79-1,11.12,11.12,0,0,0,2.09-.86,3.54,3.54,0,0,0,.72-.52c.17-.17.17-.28.14-.18s0,.09,0,.08l-.2-.44c-.16-.33-.34-.65-.53-1a20.68,20.68,0,0,0-1.33-1.87,19.3,19.3,0,0,0-3.48-3.32,51.47,51.47,0,0,0-8.62-5,155.58,155.58,0,0,0-19-7.33,79.44,79.44,0,0,0-19.8-3.8,50.55,50.55,0,0,0-10,.21,25.22,25.22,0,0,0-4.79,1.06,12.37,12.37,0,0,0-2.12.94,3.64,3.64,0,0,0-1.37,1.28,1.61,1.61,0,0,0,.2,1.5,7.71,7.71,0,0,0,1.38,1.78,23.92,23.92,0,0,0,3.89,3.05,74.33,74.33,0,0,0,8.92,4.83A167.59,167.59,0,0,0,171.37,369Z"/><path class="cls-9" d="M196.15,432.31a3.79,3.79,0,0,0,2.94,5.35c2.11.29,4.87-.25,6.31-4.33,2.52-7.16,7-11.87,4.45-16.51s-11.64-2.54-9.93,5.32a12.15,12.15,0,0,1-2.6,8.45A8.61,8.61,0,0,0,196.15,432.31Z"/><path class="cls-10" d="M155.56,361.32s11.52,1,18.88.42c17.19-1.35,36.43,2.32,37.06,14.11.36,6.7.11,28-7.37,28s-6.7-13-8.42-17.27c-1.66-4.09-3-12.63-13.69-15.58C172.72,368.45,168.23,368.82,155.56,361.32Z"/><circle class="cls-8" cx="204.09" cy="377.93" r="4.25"/><path class="cls-11" d="M153.2,362.42s13.88-.1,21.24-.68c17.19-1.35,37.46.95,38.09,12.74.36,6.7-.92,29.4-8.4,29.37s-6.7-13-8.42-17.27c-1.66-4.09-2.57-10.9-13.31-13.85C173.1,370.17,165.88,369.93,153.2,362.42Z"/></g><path class="cls-12" d="M361.63,347.84c2.47-20.06-21.16-53.37-64.71-73.85,55.72-40.17,41.34-97.33,41.34-97.33-5-20.91-9.81-38.82-17.69-53.38,8.14-.59,25.27-11,29.06-22.74.08-.27.14-.54.21-.81a34.91,34.91,0,0,0-32-43.19c-25.35-1.36-34.49,25.1-36,28.35C243.09,64.43,209,65.7,209,65.7c-30,1.62-50.12,8.19-73.33,20.09-4-25.1-22.9-29.92-22.9-29.92C77.88,48.55,69.17,75.59,69.17,75.59,59.37,111,76.65,118.79,94.43,123c-19.9,27.79-24,60.64-24,60.64-1.9,33.79,3,63.12,36.51,87.12-19,11.69-66.2,53.74-61.67,98.86,0,0,3.68,33.21,52.32,42.37,0,0,42.32,6.63,38.53-28.11-1.06,1.42,18.33-12.93-14.83-40.72,0,0,15.38-10,44.21-6.11,0,0,20.21-19.08,48.63-16.34a75,75,0,0,1,29.59,9.57c20,11.25,34.51,30.11,41.45,52,7.63,24,8.66,49.74,4.24,76.91a242.56,242.56,0,0,0,41.9-15.6c4.16-.06-1.18-53-7-63.4C324.32,380.14,356.89,386.37,361.63,347.84Z"/><path class="cls-13" d="M350.81,93.13s2.61-20.7-11.92-31c0,0,29.94,36-18.69,61.08C320.2,123.2,351,115.92,350.81,93.13Z"/><path class="cls-13" d="M296.92,274c25.22-13,50.18-50.56,41.53-93.77,12.21,61-38.88,96-98.73,101.3-27.13,2.39-54.68,9.37-97.28-6.95,0,0-42.81-15.29-56.31-64.12a103.67,103.67,0,0,1-.78-50.87c2.72-11.83,7.38-27.44,14.77-39.46,0,0-47.8-2.92-17.37-59.37,0,0-13.27,10.42-16.74,26.84C62.33,105,79.08,128.07,95.7,123c0,0-11.06,12.84-21.55,43.58,0,0-21.66,61.44,33.11,103,0,0-42.46,31.19-57.62,71.93-10.52,28.28,2.47,56.87,32.48,66.34,0,0,44.21,15.48,53.06-17.37C130,401.89,73.32,406.3,60.69,368a45.35,45.35,0,0,1,2-32.32C73.57,310.8,87,294,115.26,284.5c0,0,49.07,21.4,107.4,16.61,5.83,7.88,13.5,17.79,28.51,26.12a36.44,36.44,0,0,1,10,9.09c17.5,24.46,29.83,34.72,40.12,42.16,3.69,2.67,7.35,8.55,8.23,13a394.22,394.22,0,0,1,6.38,58.74l15.87-6.15A139.8,139.8,0,0,0,324.05,381c29.68-3.8,34.93-15.27,34.74-35.06-19.65,33.93-57.8,11.68-84.65-23.69-17.22-6.32-28.42-25.58-28.42-25.58Z"/><path class="cls-13" d="M135.65,87.2l-1.22.11s-2.52-47.93-53.74-26.56C80.69,60.75,127.66,50.43,135.65,87.2Z"/><path class="cls-13" d="M289.81,93.13l-8-8s18.87-46.87,51.61-24.38C333.42,60.75,306.15,43,289.81,93.13Z"/><path class="cls-14" d="M108,108.57l15.31-16.19S114.09,66,96,84.51C90.48,108.1,108,108.57,108,108.57Z"/><path class="cls-2" d="M101.82,114l20.37-22.14-.5,2h0a31.36,31.36,0,0,0-3.22-7.36,16.42,16.42,0,0,0-5.26-5.61,9.24,9.24,0,0,0-7.1-1,15.13,15.13,0,0,0-3.65,1.41c-.58.31-1.19.66-1.73,1a10.65,10.65,0,0,0-1.49,1.19A11,11,0,0,0,96,90.2a18.36,18.36,0,0,0,.94,8,19.36,19.36,0,0,0,4.08,7,10.14,10.14,0,0,0,3.16,2.36,5.07,5.07,0,0,0,3.64.3.74.74,0,0,1,.93.48.75.75,0,0,1-.45.93,6.62,6.62,0,0,1-4.76-.2,11.88,11.88,0,0,1-3.81-2.6,21.36,21.36,0,0,1-4.79-7.58,20.51,20.51,0,0,1-1.37-9,13.66,13.66,0,0,1,3.76-8.52,12.75,12.75,0,0,1,1.81-1.56c.64-.46,1.27-.85,1.94-1.24a18.34,18.34,0,0,1,4.3-1.84,13.12,13.12,0,0,1,4.85-.42,12.61,12.61,0,0,1,4.69,1.51,19.82,19.82,0,0,1,6.69,6.56,35.05,35.05,0,0,1,4,8.24h0l0,.11a1.9,1.9,0,0,1-.53,1.85l-21.91,20.63a.92.92,0,0,1-1.31-1.3Z"/><path class="cls-14" d="M296.21,96.34s6.69-24.72,23.46-12.25c13.6,14.66-6.41,29.28-6.41,29.28Z"/><path class="cls-2" d="M314.52,116.46c-3-3.39-6.08-6.73-9.25-10-1.59-1.61-3.2-3.19-4.85-4.72a50.93,50.93,0,0,0-5.09-4.23,1.44,1.44,0,0,1-.52-1.73l0,0h0A48.28,48.28,0,0,1,299,88a29.25,29.25,0,0,1,5.91-6.7A14.45,14.45,0,0,1,309,79a9.92,9.92,0,0,1,4.9-.46,11.21,11.21,0,0,1,4.47,1.82,20.77,20.77,0,0,1,3.45,3,15.39,15.39,0,0,1,4.1,8.17,16.39,16.39,0,0,1-1.37,8.92,30.84,30.84,0,0,1-4.67,7.41,44.82,44.82,0,0,1-6.18,6.06.71.71,0,0,1-1-.11.69.69,0,0,1,.08-1l0,0a43,43,0,0,0,5.62-6.12,29.34,29.34,0,0,0,4.07-7.08,14.56,14.56,0,0,0,.95-7.69,12.77,12.77,0,0,0-3.63-6.67c-1.88-1.86-4-3.52-6.36-3.82a8.71,8.71,0,0,0-6.67,2.29,26.27,26.27,0,0,0-5.25,6,47.78,47.78,0,0,0-3.95,7.17h0l-.51-1.78a51.26,51.26,0,0,1,5.19,4.73c1.62,1.65,3.18,3.33,4.7,5,3,3.41,6,6.9,8.85,10.47a.85.85,0,0,1-1.3,1.1Z"/><path class="cls-5" d="M274.46,232.46c-3.28,26-32.69,49.39-57.12,49.39-26.56,0-57.82-12-61.42-51.92-2.66-29.48,27.58-63.38,63.79-63.38C244.15,166.55,280.35,185.71,274.46,232.46Z"/><path class="cls-2" d="M139.28,125.18c-.29,3.74,2.63,4.68,4.21,2.52,3.27-3.73,8.64-12.42,22.64-11.89,5.91.76,11.35-1.21,7.22-6.24a10.93,10.93,0,0,0-7-3.84C153.51,103.92,139.71,117.57,139.28,125.18Z"/><path class="cls-2" d="M292.9,122.82c2.09,3.23.28,11-3.91,5.36-3.79-5.05-12.87-13.27-21.16-10.9-4.52,1.29-8.49-8,.66-8.92C285.51,106.62,292.9,122.82,292.9,122.82Z"/><path class="cls-2" d="M254.74,168.9a20.42,20.42,0,0,1,1.48-3,23,23,0,0,1,1.84-2.67,21.64,21.64,0,0,1,4.86-4.62,12.39,12.39,0,0,1,1.48-.94c.52-.28,1-.59,1.57-.84a19,19,0,0,1,3.46-1.17,18.11,18.11,0,0,1,3.68-.49,16.53,16.53,0,0,1,1.86.08,11,11,0,0,1,1.83.22l1.77.42c.29.08.59.13.88.23l.83.32c.56.22,1.12.43,1.66.68l1.58.86a19.91,19.91,0,0,1,5.36,4.72,21,21,0,0,1,3.23,6,23.12,23.12,0,0,1,.81,3.23c.07.55.15,1.1.19,1.65a16.51,16.51,0,0,1,0,1.76,2.47,2.47,0,0,1-4.59,1.23l-.37-.61c-.16-.27-.33-.71-.52-1.07s-.38-.77-.57-1.14c-.4-.76-.82-1.48-1.27-2.17a21.39,21.39,0,0,0-3-3.67,16.54,16.54,0,0,0-3.56-2.56,16.34,16.34,0,0,0-4.08-1.47,5.21,5.21,0,0,0-1-.14,9,9,0,0,0-1-.11,12.86,12.86,0,0,0-2,.15,13.36,13.36,0,0,0-4.16,1.34c-.7.33-1.37.78-2.07,1.18s-1.35,1-2,1.49-1.31,1.11-2,1.7-1.29,1.26-1.81,1.79l-.24.24a2.51,2.51,0,0,1-4.11-2.71Z"/><path class="cls-2" d="M139.73,171.2a23.94,23.94,0,0,1,.87-3.55,28.45,28.45,0,0,1,1.32-3.33,26.48,26.48,0,0,1,4.05-6.17,21.27,21.27,0,0,1,6.23-4.79,19.59,19.59,0,0,1,7.86-2.05,20.29,20.29,0,0,1,3.93.18,26.94,26.94,0,0,1,3.63.68,24.63,24.63,0,0,1,7,2.87,19.72,19.72,0,0,1,5.75,5.21,18.64,18.64,0,0,1,1.93,3.39,16.61,16.61,0,0,1,.66,1.83c.09.33.17.63.24,1s.12.62.19,1.12a1.86,1.86,0,0,1-2.49,2l-2.38-.87c-.07,0-.2-.26-.31-.42s-.26-.35-.38-.52a11.34,11.34,0,0,0-.83-1,16,16,0,0,0-1.85-1.83,17.07,17.07,0,0,0-4.4-2.68,11.67,11.67,0,0,0-1.21-.47,8.74,8.74,0,0,0-1.25-.42L167,161l-1.34-.26c-.87-.23-1.83-.26-2.74-.41a16.7,16.7,0,0,0-2.5-.13,14.27,14.27,0,0,0-8.87,3.63,25.91,25.91,0,0,0-3.82,4c-.6.75-1.15,1.56-1.71,2.37s-1.09,1.72-1.53,2.45l-.17.27a2.51,2.51,0,0,1-4.62-1.72Z"/><path class="cls-2" d="M219.68,175.8c1.61-.08,3.23-.07,4.84,0,6.41.31,21.36,2.36,26.61,15.89,4.69,12.09-10,20.49-20.07,23.41-7.37,2.14-12.08,2.09-17.83,0s-12.54-5.93-17-11a15,15,0,0,1,1.57-21.4C204.74,176.85,214.92,176,219.68,175.8Z"/><path class="cls-13" d="M233.8,187.56c0,2.36-6.11,5.13-14,5.13s-12.56-3.48-12.56-5.84S212,181,219.9,181,233.8,185.19,233.8,187.56Z"/><path class="cls-15" d="M175.66,214s32.37,31.28,78.47,11.78c0,0-12.78,36.59-42.63,37C189.71,262.54,175.17,234.9,175.66,214Z"/><path class="cls-16" d="M184.46,244.93s28.39-12.26,42.22,12.87C226.68,257.8,202.54,271.23,184.46,244.93Z"/><path class="cls-17" d="M175.67,212.9s-1.79,46.13,37.44,50.38C238.61,266,255,224.51,255,224.51"/><path class="cls-2" d="M168.22,216.2a.4.4,0,0,0-.19,0l-.09,0s0,0,0,0l0-.22.13-.48c.09-.32.22-.64.33-1a14,14,0,0,1,.88-1.83,15.67,15.67,0,0,1,2.45-3.25,15,15,0,0,1,3.28-2.6,8.73,8.73,0,0,1,4.26-1.28.91.91,0,0,1,.9.91.87.87,0,0,1-.18.53l-.06.08c-.8,1.07-1.51,2-2.26,3s-1.55,1.86-2.38,2.77a27,27,0,0,1-2.73,2.6,18,18,0,0,1-1.6,1.19c-.3.18-.58.36-.91.54l-.51.27-.29.13a.2.2,0,0,0-.09,0,1.18,1.18,0,0,1-.19.11,1.58,1.58,0,0,1-.39.12.83.83,0,0,1-1-.61A.84.84,0,0,1,168.22,216.2Z"/><path class="cls-2" d="M253.42,223.14a3.6,3.6,0,0,1,.89-.63,3.55,3.55,0,0,1,.94-.3,4,4,0,0,1,1.95.15,3.56,3.56,0,0,1,1.57.94,2.7,2.7,0,0,1,.74,1.51,1.74,1.74,0,0,1-1.54,1.93h-.13l-.6,0a2,2,0,0,1-.58-.05,2.29,2.29,0,0,1-.42-.07,1.48,1.48,0,0,1-.52-.22c-.13-.06-.24-.15-.39-.24l-.25-.17c-.07-.07-.25-.09-.23-.25a1.5,1.5,0,1,1-1.43-2.63Z"/><path class="cls-17" d="M175.67,212.9s29.62,32.93,79.37,11.61"/><path class="cls-2" d="M211.41,74a41.68,41.68,0,0,1,.27-9,34.88,34.88,0,0,1,2.38-8.81,24.11,24.11,0,0,1,5.25-7.8,22.23,22.23,0,0,1,8.21-5A2.2,2.2,0,1,1,229,47.53l-.18.06h0a18.12,18.12,0,0,0-7.09,3.49,20.88,20.88,0,0,0-5.17,6.32,33,33,0,0,0-3,8A40.06,40.06,0,0,0,212.5,74v0a.56.56,0,0,1-.56.54A.53.53,0,0,1,211.41,74Z"/><path class="cls-2" d="M218.79,77.82a36.73,36.73,0,0,1,1.46-6.89A34.81,34.81,0,0,1,223,64.37a26,26,0,0,1,4.47-5.78,22,22,0,0,1,6.33-4.09,2,2,0,0,1,1.6,3.6l-.17.07-.13,0A17.9,17.9,0,0,0,229.59,61a22.81,22.81,0,0,0-4.47,4.67,33,33,0,0,0-3.23,5.83A35,35,0,0,0,219.81,78v0a.51.51,0,0,1-.6.4A.53.53,0,0,1,218.79,77.82Z"/><g id="honey"><path class="cls-10" d="M277.67,269.7c-5.9-25.87-26-20.82-34.27-17.4-2.13.88-8.06,6.61-10,7.91-.7.47,1-5.3-.46-4.56a55.41,55.41,0,0,1-14.26,4.6c-14.82,2.89-24.38,21.79-13.79,35s9.67,26.77,9.67,26.77-1,22,6.81,26.53c13.34,7.77,18.95-4.95,18.95-4.95s4.07-9.74.22-19.24c-3.59-8.85-1.78-24.78-1.78-24.78S249.69,267.73,277.67,269.7Z"/><path class="cls-18" d="M216.71,260.75s-19.68,10-7.89,27.72,12.16,23.47,9.63,36.11c-2.7,13.49,1.08,18.49,10.53,25.44,0,0-16,.29-14.68-15.07,1.21-14.1,1.3-21.45-4-30.9s-11.06-14.65-9.91-25.7C201.63,266.75,216.71,260.75,216.71,260.75Z"/><path class="cls-2" d="M278.19,269.82c-.32.87,0,1-.11.83l0,0,0-.07-.06-.14-.12-.27-.26-.56-.55-1.09c-.36-.74-.74-1.46-1.14-2.17-.78-1.44-1.64-2.82-2.53-4.17a34.43,34.43,0,0,0-6.19-7.19,15.43,15.43,0,0,0-7.89-3.82,11.87,11.87,0,0,0-2.15-.1c-.69,0-1.52.14-2.28.24a47.31,47.31,0,0,0-4.66.91,45,45,0,0,0-9,3.24,27.6,27.6,0,0,0-4.09,2.47,14.42,14.42,0,0,0-1.73,1.56c-.26.28-.5.57-.73.87l-.31.47c-.07.11-.14.22-.24.35a2.6,2.6,0,0,1-.19.22.86.86,0,0,1-.19.16.75.75,0,0,1-.17.1,1,1,0,0,1-.31.11,1.18,1.18,0,0,1-.55,0,1.07,1.07,0,0,1-.44-.28.92.92,0,0,1-.2-.26,1.44,1.44,0,0,1-.09-.21,1.58,1.58,0,0,1-.07-.4,3.36,3.36,0,0,1,0-.45c0-.26,0-.48.08-.71.07-.44.16-.86.24-1.28l.27-1.25.14-.62,0-.16a.77.77,0,0,0,0,.1.47.47,0,0,0,.08.26.46.46,0,0,0,.47.2.4.4,0,0,0,.13,0s.09-.05,0,0l-.27.2c-.37.25-.74.48-1.12.71-.75.46-1.52.87-2.3,1.25a50.73,50.73,0,0,1-9.7,3.45c-.82.22-1.66.4-2.49.59l-1.09.29-1.06.38a18,18,0,0,0-4,2.15,23,23,0,0,0-6.24,6.63,21.61,21.61,0,0,0-3.11,8.52,16.28,16.28,0,0,0,1.26,8.87,17.21,17.21,0,0,0,2.4,3.91,43.53,43.53,0,0,1,3.07,4.17,42,42,0,0,1,4.43,9.33,48,48,0,0,1,2.2,10,48.49,48.49,0,0,1,.31,5.11c0,.86,0,1.71-.06,2.58a19.67,19.67,0,0,1-.25,2.66l0-.22c0,1.64-.11,3-.08,4.5a27.69,27.69,0,0,0,.34,4.29,16,16,0,0,0,3.12,7.49,14.84,14.84,0,0,0,14.12,4.68,8.5,8.5,0,0,0,3.17-1.68,11.87,11.87,0,0,0,2.37-3,19.83,19.83,0,0,0,2.58-7.78,16,16,0,0,0,0-4.09c-.23-1.4-.51-2.92-.79-4.38-.56-2.93-1.18-5.87-1.71-8.84a64.77,64.77,0,0,1-1.12-9,34.87,34.87,0,0,1,.82-9.16,22.85,22.85,0,0,1,1.46-4.39c.62-1.39,1.24-2.77,2-4.11s1.47-2.66,2.3-3.94a38.76,38.76,0,0,1,2.69-3.7,33.19,33.19,0,0,1,6.7-6.26,38.33,38.33,0,0,1,8.08-4.27,57.11,57.11,0,0,1,8.72-2.62c1.47-.34,3-.62,4.45-.87.74-.14,1.49-.24,2.23-.37l.27,0h.16a1.82,1.82,0,0,1,.33,0C277.66,269.67,277.9,269.75,278.19,269.82Zm1.69,1.07a12.12,12.12,0,0,1-1.47.47q-.39.09-.78.15l-.68.1c-.74.1-1.47.18-2.2.3-1.47.22-2.93.47-4.37.77a56,56,0,0,0-8.49,2.42,33.17,33.17,0,0,0-14.13,10,39.36,39.36,0,0,0-4.75,7.38c-.68,1.31-1.28,2.66-1.86,4a20.69,20.69,0,0,0-1.31,4.11,32.27,32.27,0,0,0-.67,8.67,62,62,0,0,0,1.18,8.74c.6,2.91,1.32,5.8,2.08,8.69.38,1.47.79,2.86,1.16,4.39a18.82,18.82,0,0,1,.4,4.84,23,23,0,0,1-2.41,9.31,14.84,14.84,0,0,1-3,4.13,11.79,11.79,0,0,1-4.62,2.6,13.53,13.53,0,0,1-5.15.5,18.28,18.28,0,0,1-4.85-1.08,16.1,16.1,0,0,1-7.93-5.93,18.69,18.69,0,0,1-3-9.14,33.16,33.16,0,0,1-.07-4.67c.07-1.51.28-3.1.38-4.45v-.1s0-.09,0-.13a19.32,19.32,0,0,0,.29-4.74,44.51,44.51,0,0,0-.47-4.88,46.33,46.33,0,0,0-2.42-9.45,39.24,39.24,0,0,0-4.45-8.58,41,41,0,0,0-3-3.79,20.54,20.54,0,0,1-3-4.49,20.07,20.07,0,0,1-2-10.65,23.43,23.43,0,0,1,3.44-10.24,24,24,0,0,1,7.51-7.75,19.94,19.94,0,0,1,5-2.27l1.34-.33,1.36-.23c.81-.11,1.63-.21,2.43-.35a41.8,41.8,0,0,0,9.41-2.47,23.94,23.94,0,0,0,2.17-1c.34-.2.68-.41,1-.62l.24-.17.27-.16a1.28,1.28,0,0,1,.43-.14,1.58,1.58,0,0,1,1.56.66,1.51,1.51,0,0,1,.27.85,1.28,1.28,0,0,1-.05.41l0,.15-.15.6c-.09.4-.18.8-.25,1.2s-.15.8-.2,1.18c0,.19,0,.38-.05.54v.18s0,0,0-.1a.61.61,0,0,0-.06-.13,1.07,1.07,0,0,0-.15-.21,1,1,0,0,0-.38-.23,1,1,0,0,0-.48,0,.9.9,0,0,0-.23.08l-.1.06-.08.06s0,0,0,0l.11-.17.36-.58a13.26,13.26,0,0,1,.82-1.11,17.9,17.9,0,0,1,1.86-1.93,28.92,28.92,0,0,1,4.18-3.17,40.2,40.2,0,0,1,9.43-4.42,33.81,33.81,0,0,1,5.13-1.18c.89-.13,1.72-.22,2.7-.27a16,16,0,0,1,2.85.17,18.52,18.52,0,0,1,9.79,5,33.92,33.92,0,0,1,6.37,8.34,46,46,0,0,1,2.26,4.63c.33.79.65,1.59.94,2.4.14.4.28.81.41,1.21l.19.62.09.31.05.16,0,.08v0C279.86,269.88,280.2,270,279.88,270.89Z"/><ellipse class="cls-8" cx="251.77" cy="262.78" rx="5.26" ry="2.95" transform="translate(-66.94 87.09) rotate(-17.36)"/><circle class="cls-8" cx="228.98" cy="334.95" r="4.97"/></g><path class="cls-12" d="M266.2,329.52S228.08,316.66,245.35,287c19.74-33.95,61.91-7.34,61.91-7.34s65.06,35.69,50.53,80.54S283.89,367.42,266.2,329.52Z"/><path class="cls-19" d="M267.51,329.52S229.39,316.66,246.67,287c19.74-33.95,61.9-7.34,61.9-7.34s65.06,35.69,50.53,80.54S285.2,367.42,267.51,329.52Z"/><path class="cls-19" d="M267.51,288.78c-5.62-1.37-13.51-3.4-20.84-1.82"/><path class="cls-19" d="M105.8,270.78s-65.48,51.8-59.37,96c4.84,35.08,36.11,42,50.85,44.85,16,3.09,42.11-5.47,40.11-26.87a26.11,26.11,0,0,0-.32-24.29c-10.17-15.57-26-23.45-46.43-25"/><path class="cls-17" d="M126,317.21c-2.89,10.09-6.31,18.68-10.76,24.3"/><path class="cls-17" d="M118,368.79s16,7.48,19.35,16"/><path class="cls-2" d="M296.32,273a88.33,88.33,0,0,0,29.34-29.06,86.27,86.27,0,0,0,8.56-18.9,102,102,0,0,0,4.29-20.36,87.33,87.33,0,0,0-.68-20.72,193.38,193.38,0,0,0-4.06-20.58c-1.73-6.79-3.57-13.57-5.7-20.26-1.07-3.34-2.23-6.66-3.49-9.93a55.46,55.46,0,0,0-4.39-9.41v0a.85.85,0,0,1,.27-1.17.91.91,0,0,1,.25-.11,43.81,43.81,0,0,0,8.83-3.25,45.32,45.32,0,0,0,8-4.95,34.64,34.64,0,0,0,6.54-6.6,29.1,29.1,0,0,0,4.22-8.12,33.36,33.36,0,0,0,.38-18.06,26.79,26.79,0,0,0-9.31-14.78,38.5,38.5,0,0,0-16.07-7.86c-5.83-1.13-12.1-1.09-17.54.95a28.35,28.35,0,0,0-13.52,11,52.18,52.18,0,0,0-4.44,8,84.67,84.67,0,0,0-3.26,8.79v0a1.61,1.61,0,0,1-3.11-.81,65.13,65.13,0,0,1,2.69-9.49,47.69,47.69,0,0,1,4.34-9,35.93,35.93,0,0,1,6.62-7.82A29.39,29.39,0,0,1,304,55.11a31.89,31.89,0,0,1,10.17-2,39.55,39.55,0,0,1,5.11.13q1.27.12,2.52.3c.86.14,1.72.29,2.55.48a42.12,42.12,0,0,1,18,9.18A34.17,34.17,0,0,1,349,71a28.34,28.34,0,0,1,3.64,9.65,36.65,36.65,0,0,1-1.56,19.86,34.65,34.65,0,0,1-12.33,15.33,54.32,54.32,0,0,1-17.68,8.23l.51-1.29a39.7,39.7,0,0,1,2.63,4.75c.77,1.6,1.53,3.21,2.24,4.85,1.42,3.25,2.72,6.55,4,9.88a198.4,198.4,0,0,1,6.44,20.29A187.56,187.56,0,0,1,341,183.51a90.82,90.82,0,0,1,.69,21.5,105.49,105.49,0,0,1-4.42,21,86.91,86.91,0,0,1-39.77,49,1.17,1.17,0,0,1-1.2-2Z"/><path class="cls-2" d="M147,287.71a84.48,84.48,0,0,1-12.84-3A106,106,0,0,1,121.89,280a94,94,0,0,1-22.2-14.1,87.07,87.07,0,0,1-17.21-20A91.72,91.72,0,0,1,72,221.67a101.34,101.34,0,0,1-3.69-26.1,107.56,107.56,0,0,1,3.15-26.15,124.25,124.25,0,0,1,9-24.67,111,111,0,0,1,14-22.17,1.21,1.21,0,0,1,1.91,1.49l0,0a105.48,105.48,0,0,0-6.85,10.76c-2.09,3.72-4.06,7.51-5.81,11.4a134.36,134.36,0,0,0-8.36,24.08,106.67,106.67,0,0,0-3,25.2,96.94,96.94,0,0,0,3.5,25.09,90.42,90.42,0,0,0,9.94,23.25,83,83,0,0,0,16.3,19.3,95.43,95.43,0,0,0,21.23,13.91,102,102,0,0,0,11.83,4.8,81.52,81.52,0,0,0,12.29,3.15l.06,0a1.34,1.34,0,0,1-.41,2.64Z"/><path class="cls-2" d="M133,86.34c11.53-7.82,24.37-13.25,37.69-17.07a140,140,0,0,1,41.14-5.2,133.08,133.08,0,0,1,20.69,2.16,131.18,131.18,0,0,1,20.11,5.23c3.25,1.21,6.53,2.32,9.68,3.76,1.58.7,3.19,1.35,4.75,2.08l4.64,2.32L274,80.78l2.25,1.29,4.49,2.57c3,1.76,5.8,3.73,8.7,5.6a1.12,1.12,0,0,1-1.18,1.91l-.06,0-4.4-2.58c-1.47-.84-2.89-1.79-4.41-2.54l-4.5-2.37-2.26-1.18-2.31-1.06-4.61-2.14c-1.55-.69-3.13-1.28-4.7-1.93-3.1-1.34-6.34-2.35-9.53-3.46a139.48,139.48,0,0,0-39.77-6.8,148.38,148.38,0,0,0-20.21.9,153.28,153.28,0,0,0-19.89,3.79,145.25,145.25,0,0,0-19.26,6.37,125.11,125.11,0,0,0-18.17,9l-.07,0A1.05,1.05,0,0,1,133,86.34Z"/><path class="cls-2" d="M95.69,124.2a16.13,16.13,0,0,1-5.19.76,19.37,19.37,0,0,1-5.13-.72,24.75,24.75,0,0,1-9.09-4.78A36.84,36.84,0,0,1,69.37,112c-1-1.4-1.87-2.77-2.74-4.3a22.23,22.23,0,0,1-2-4.9c-1.86-6.78-1.2-13.85.72-20.37a45.07,45.07,0,0,1,10-17.73A34.72,34.72,0,0,1,93,54.24a47.95,47.95,0,0,1,10.19-1,34.54,34.54,0,0,1,10.16,1.55,29.35,29.35,0,0,1,9.16,4.73,32,32,0,0,1,7,7.46,43.13,43.13,0,0,1,6.78,18.75.6.6,0,0,1-.54.67.61.61,0,0,1-.67-.48v0a43.38,43.38,0,0,0-7.61-17.42,29.59,29.59,0,0,0-6.68-6.54A27.29,27.29,0,0,0,112.41,58a38.3,38.3,0,0,0-18.52,0,30.3,30.3,0,0,0-8.46,3.56,35.16,35.16,0,0,0-7.12,5.88,42.51,42.51,0,0,0-9.22,16.15,40.61,40.61,0,0,0-1.77,9.18,29.42,29.42,0,0,0,.65,9.19,19.36,19.36,0,0,0,1.55,4.24c.71,1.33,1.57,2.73,2.43,4A42.27,42.27,0,0,0,74.81,114a31.49,31.49,0,0,0,3.27,3.36A22.22,22.22,0,0,0,86,122a18.91,18.91,0,0,0,4.53.87,14.65,14.65,0,0,0,4.52-.36l.09,0a.91.91,0,0,1,.51,1.74Z"/><path class="cls-2" d="M334.83,442.92l-4.7,1.8a213.52,213.52,0,0,0-8-64.82h4.92A196.89,196.89,0,0,1,334.83,442.92Z"/><path class="cls-10" d="M251.69,384s-7.95,8.83-7.95,17.65,7.95,8.83,7.95,8.83,7.94,0,7.94-8.83S251.69,384,251.69,384Z"/><path class="cls-2" d="M251.69,385a.75.75,0,0,0,.64-.22l-.05.07-.16.19-.31.39-.6.8c-.4.54-.78,1.1-1.15,1.65-.74,1.12-1.4,2.29-2,3.47a26.41,26.41,0,0,0-2.59,7.38,17.31,17.31,0,0,0-.18,1.88l0,.94c0,.31.06.61.09.91a9.46,9.46,0,0,0,.33,1.73l.31.79a8,8,0,0,0,.38.71,5.65,5.65,0,0,0,2.3,2.06,8.53,8.53,0,0,0,1.52.53,5.62,5.62,0,0,0,.8.15,5.41,5.41,0,0,0,.72.05,6.7,6.7,0,0,0,.7-.09,7,7,0,0,0,.79-.19,7.6,7.6,0,0,0,1.46-.61,5.75,5.75,0,0,0,2.05-2.08c.1-.23.25-.44.33-.68l.27-.74a9,9,0,0,0,.29-1.66,14.25,14.25,0,0,0-.09-3.62,28.21,28.21,0,0,0-2.42-7.32c-.58-1.18-1.24-2.34-1.91-3.5-.35-.57-.71-1.14-1.08-1.69l-.57-.83-.28-.41-.15-.2s-.07-.09-.05-.08A.76.76,0,0,0,251.69,385Zm0-2a1.32,1.32,0,0,1,.82.41l.12.12.19.19.37.39.71.79c.46.54.91,1.09,1.35,1.64a37.21,37.21,0,0,1,2.44,3.51,27.46,27.46,0,0,1,3.43,8.06,17.88,17.88,0,0,1,.45,4.6,10.53,10.53,0,0,1-1.24,4.81,8.93,8.93,0,0,1-3.7,3.68,11.24,11.24,0,0,1-2.37.91,10.34,10.34,0,0,1-1.23.26,10.07,10.07,0,0,1-1.34.11,8.07,8.07,0,0,1-1.34-.16,9.69,9.69,0,0,1-1.21-.29,11.17,11.17,0,0,1-2.31-1,9.2,9.2,0,0,1-3.46-3.7,10.53,10.53,0,0,1-.5-1.15l-.34-1.17a12.74,12.74,0,0,1-.27-2.35,18.51,18.51,0,0,1,.42-4.48,29,29,0,0,1,3.27-8c.72-1.22,1.5-2.4,2.32-3.55.42-.57.84-1.13,1.29-1.69l.67-.82.35-.4.17-.2.12-.13A1.35,1.35,0,0,1,251.69,383Z"/><polyline class="cls-20" points="359.18 423.02 356.13 394.89 367.77 406.8 367.55 389.42 382.56 408.53"/><path class="cls-20" d="M352.43,427.18l-9.16-27.71s-13.62,1.21-13.17,8S343,412.83,343,412.83L336,428.44"/><line class="cls-20" x1="304.91" y1="411.01" x2="312.81" y2="441.36"/><line class="cls-20" x1="318.89" y1="408.67" x2="329.1" y2="438.98"/><line class="cls-20" x1="309.91" y1="425.83" x2="323.16" y2="421.37"/><path class="cls-2" d="M356,423.63l-1.44-28.28v-.13a2,2,0,0,1,1.87-2.08,2,2,0,0,1,1.59.67l11,12.5-2.59,1-.35-17.38a2,2,0,0,1,3.51-1.3l.09.11L385,407.59a3,3,0,0,1-4.65,3.8l-.15-.2-13.79-20,3.6-1.18-.65,17.38a1.52,1.52,0,0,1-1.57,1.46,1.6,1.6,0,0,1-1-.45l-11.74-11.82,3.45-1.54,3.43,28.11a3,3,0,1,1-6,.73C356,423.77,356,423.7,356,423.63Z"/><path class="cls-2" d="M349.25,428.27l-7.6-28.2,2.05,1.41h0a44.92,44.92,0,0,0-7,2.26,10.74,10.74,0,0,0-2.61,1.61,2.23,2.23,0,0,0-.85,1.44,2.69,2.69,0,0,0,.07.76,1.42,1.42,0,0,0,.34.6,5.52,5.52,0,0,0,2.15,1.3,31.55,31.55,0,0,0,7,1.39h0a1.88,1.88,0,0,1,2.11,2.54l-.12.3-6.37,15.88a3,3,0,0,1-5.58-2.23A2.37,2.37,0,0,1,333,427l8.18-15,2,2.84h0a22.07,22.07,0,0,1-4.4.5,18.3,18.3,0,0,1-4.57-.51,10.3,10.3,0,0,1-4.82-2.56,7.47,7.47,0,0,1-1.73-2.82,7.79,7.79,0,0,1-.37-3.21,7.34,7.34,0,0,1,1.07-3.14,8.64,8.64,0,0,1,2-2.23,14.27,14.27,0,0,1,4.41-2.27,24.79,24.79,0,0,1,8.7-1.09h0a1.91,1.91,0,0,1,2,1.29l0,.12L355,426.51a3,3,0,0,1-5.68,1.95Z"/><path class="cls-2" d="M307.88,409.49l6.27,30.75a2,2,0,0,1-3.89.93L302,410.88a3,3,0,1,1,5.79-1.57A1,1,0,0,1,307.88,409.49Z"/><path class="cls-2" d="M320.89,407.56l10.51,30.22a3,3,0,0,1-5.67,2,1,1,0,0,1-.05-.18l-8.61-30.82a2,2,0,0,1,3.82-1.19Z"/><line class="cls-19" x1="309.63" y1="425.11" x2="322.98" y2="420.93"/></g></svg>